<?xml version="1.0" encoding="UTF-8"?>
<svg id="Camada_1" xmlns="http://www.w3.org/2000/svg" version="1.1" viewBox="0 0 411.7 62">
  <!-- Generator: Adobe Illustrator 29.1.0, SVG Export Plug-In . SVG Version: 2.1.0 Build 142)  -->
  <defs>
    <style>
      .st0 {
        fill: #5b5b5b;
      }
    </style>
  </defs>
  <g>
    <path d="M131.2,46.1h-21.5c-.6,0-1.1,0-1.8-.2s-1.3-.3-1.9-.6-1.2-.6-1.8-1.1-1.1-1-1.5-1.6-.8-1.3-1-2.2-.4-1.7-.4-2.8v-16.2c0-.6,0-1.1.2-1.8s.3-1.3.6-1.9.6-1.2,1.1-1.8,1-1.1,1.6-1.5,1.3-.8,2.1-1,1.7-.4,2.8-.4h21.5v6h-21.5c-.8,0-1.4.2-1.8.6s-.6,1-.6,1.8v16.1c0,.8.2,1.4.6,1.8s1,.6,1.8.6h21.5v6h0Z"/>
    <path d="M169.4,32.8c0,2-.3,3.9-1,5.5s-1.6,3.1-2.9,4.4-2.7,2.2-4.4,2.9c-1.7.7-3.5,1-5.5,1h-8.1c-2,0-3.8-.3-5.5-1-1.7-.7-3.1-1.6-4.4-2.9s-2.2-2.7-2.9-4.4c-.7-1.7-1-3.5-1-5.5v-6.3c0-2,.4-3.8,1-5.5.7-1.7,1.7-3.1,2.9-4.4s2.7-2.2,4.4-2.9,3.5-1,5.5-1h8.1c2,0,3.8.3,5.5,1s3.1,1.6,4.4,2.9,2.2,2.7,2.9,4.4,1,3.5,1,5.5v6.3ZM163.4,26.6c0-1.2-.2-2.2-.6-3.2s-.9-1.8-1.6-2.5-1.5-1.2-2.5-1.6-2-.6-3.2-.6h-8.1c-1.2,0-2.2.2-3.2.6s-1.8.9-2.5,1.6-1.2,1.5-1.6,2.5c-.4,1-.6,2-.6,3.2v6.3c0,1.2.2,2.2.6,3.2s.9,1.8,1.6,2.5,1.5,1.2,2.5,1.6,2,.6,3.2.6h8c1.2,0,2.2-.2,3.2-.6s1.8-.9,2.5-1.6,1.2-1.5,1.6-2.5c.4-1,.6-2,.6-3.2v-6.3h0Z"/>
    <path d="M204.9,43.6c0,.4,0,.8-.2,1.2s-.4.7-.6,1-.6.5-.9.6-.8.2-1.2.2-.7,0-1.1-.2-.7-.4-1-.7l-21.8-22.8v23.2h-6V15.8c0-.6.2-1.2.5-1.7s.8-.9,1.3-1.1c.6-.2,1.1-.3,1.7-.2s1.1.4,1.5.8l21.8,22.8V13.2h6v30.4h0Z"/>
    <path d="M240.7,43.6c0,.4,0,.8-.2,1.2s-.4.7-.6,1-.6.5-1,.6-.8.2-1.2.2-.7,0-1.1-.2-.7-.4-1-.7l-21.8-22.8v23.2h-6V15.8c0-.6.2-1.2.5-1.7s.8-.9,1.3-1.1c.6-.2,1.1-.3,1.7-.2s1.1.4,1.5.8l21.8,22.8V13.2h6v30.4h0Z"/>
    <path d="M273.3,46.1h-21.5c-.8,0-1.7-.1-2.7-.4s-1.9-.8-2.7-1.4-1.5-1.5-2.1-2.6-.8-2.4-.8-3.9v-21.5c0-.4,0-.8.2-1.2s.4-.7.6-1,.6-.5,1-.6.8-.2,1.2-.2h26.9v6h-23.9v18.6c0,.8.2,1.4.6,1.8s1,.6,1.8.6h21.5v6h0ZM270.6,32.7h-18.8v-6h18.8v6Z"/>
    <path d="M306.3,46.1h-21.5c-.5,0-1.1,0-1.8-.2s-1.3-.3-1.9-.6-1.2-.6-1.8-1.1-1.1-1-1.5-1.6-.8-1.3-1-2.2-.4-1.7-.4-2.8v-16.2c0-.6,0-1.1.2-1.8s.3-1.3.6-1.9.6-1.2,1.1-1.8,1-1.1,1.6-1.5,1.3-.8,2.1-1,1.7-.4,2.8-.4h21.5v6h-21.5c-.8,0-1.4.2-1.8.6s-.6,1-.6,1.8v16.1c0,.8.2,1.4.6,1.8s1,.6,1.8.6h21.5v6h0Z"/>
    <path d="M341.4,19.2h-13.1v26.9h-6v-26.9h-13.2v-6h32.3v6Z"/>
    <path d="M374.4,19.2h-23.9v26.9h-6v-29.9c0-.4,0-.8.2-1.2s.4-.7.6-1,.6-.5,1-.6.8-.2,1.2-.2h26.9v6h0Z"/>
    <path d="M410,24.2c0,1.4-.2,2.6-.5,3.6-.3,1.1-.8,2-1.4,2.8-.6.8-1.2,1.5-2,2.1s-1.5,1.1-2.4,1.4-1.6.6-2.5.8-1.6.2-2.4.2h-2.4v10.8h-6v-10.8h-2.4c-.7,0-1.5,0-2.4-.2s-1.7-.4-2.5-.8-1.6-.9-2.4-1.4-1.4-1.3-2-2.1-1-1.8-1.4-2.9-.5-2.3-.5-3.6v-11h6v11c0,.8.1,1.5.4,2.1s.6,1.1,1,1.6c.4.4,1,.8,1.6,1s1.3.4,2.1.4h10.8c.6,0,1.1-.2,1.7-.4s1.1-.4,1.6-.8.9-.8,1.2-1.5.5-1.5.5-2.5v-11h6v11h0Z"/>
    <path class="st0" d="M337.6,28.6h18.9c1.6,0,2.9,1.3,2.9,2.9h0c0,1.6-1.3,2.9-2.9,2.9h-18.9c-1.6,0-2.9-1.3-2.9-2.9h0c0-1.6,1.3-2.9,2.9-2.9Z"/>
  </g>
  <g>
    <path d="M2.6,41.8C0,32.4,3.1,22.3,10.6,16l12.7-10.7c2.4-2,6.1-.6,6.6,2.5l1.5,9.7L2.6,41.7h0Z"/>
    <path d="M70.5,6.2L28.6,41.5c-3.1,2.6-7.6,2.2-10.2-.9h0c-2.6-3.1-2.2-7.6.9-10.2l22.2-18.8c14.5-12.2,29-5.5,29-5.5h0Z"/>
    <path d="M15.1,55.7L57.1,20.3c3-2.5,7.6-2.1,10.1.9h0c2.6,3.1,2.2,7.6-.8,10.1l-22.6,19c-14.3,12-28.7,5.3-28.7,5.3h0Z"/>
    <path d="M82.6,20.5s4.1,15.5-10.3,27.7l-8.7,7.4h0s-1.4,1.2-1.4,1.2c-2.3,2-5.9.6-6.4-2.4l-.2-1.5-1.3-8.4h0s28.4-23.9,28.4-23.9h0Z"/>
  </g>
</svg>