<svg width="134" height="88" viewBox="0 0 134 88" fill="none" xmlns="http://www.w3.org/2000/svg">
<path d="M1.72536 61.6043C-2.4409 46.3007 2.59469 29.7341 14.8803 19.3512L35.6952 1.7676C39.6318 -1.56213 45.7008 0.717821 46.4881 5.80263L48.9321 21.7296L1.70895 61.5879L1.72536 61.6043Z" fill="#113638"/>
<path d="M113.099 3.29325L44.3557 61.2601C39.3365 65.492 31.8569 64.8523 27.625 59.8331C23.3931 54.8139 24.0328 47.3343 29.052 43.1024L65.5315 12.3475C89.266 -7.66369 113.115 3.29325 113.115 3.29325H113.099Z" fill="#113638"/>
<path d="M22.2129 84.4699L91.0711 26.4046C96.0083 22.2383 103.455 22.9272 107.671 27.93C111.902 32.9492 111.312 40.3796 106.375 44.5623L69.3376 75.7929C45.9475 95.5088 22.2129 84.4699 22.2129 84.4699Z" fill="#113638"/>
<path d="M132.897 26.7981C132.897 26.7981 139.688 52.1565 115.953 72.1677L101.667 84.2237L101.699 84.2565L99.3702 86.2248C95.5319 89.4725 89.6106 87.2581 88.8561 82.2881L88.4788 79.8277L86.3301 66.0332L86.3629 66.066L132.914 26.8145L132.897 26.7981Z" fill="#113638"/>
</svg>
