<?xml version="1.0" encoding="UTF-8"?>
<svg id="Camada_1" data-name="Camada 1" xmlns="http://www.w3.org/2000/svg" viewBox="0 0 256 256">
  <defs>
    <style>
      .cls-1 {
        fill: none;
        stroke: #1d1d1b;
        stroke-miterlimit: 10;
        stroke-width: .58px;
      }

      .cls-2 {
        fill: #1d1d1b;
      }
    </style>
  </defs>
  <g>
    <path class="cls-2" d="M128,104.98l4.94,13.35c.81,2.19,2.54,3.92,4.73,4.73l13.35,4.94-13.35,4.94c-2.19.81-3.92,2.54-4.73,4.73l-4.94,13.35-4.94-13.35c-.81-2.19-2.54-3.92-4.73-4.73l-13.35-4.94,13.35-4.94c2.19-.81,3.92-2.54,4.73-4.73l4.94-13.35Z"/>
    <line class="cls-1" x1="146.73" y1="128" x2="256" y2="128"/>
  </g>
  <g>
    <path class="cls-2" d="M104.98,128l13.35-4.94c2.19-.81,3.92-2.54,4.73-4.73l4.94-13.35,4.94,13.35c.81,2.19,2.54,3.92,4.73,4.73l13.35,4.94-13.35,4.94c-2.19.81-3.92,2.54-4.73,4.73l-4.94,13.35-4.94-13.35c-.81-2.19-2.54-3.92-4.73-4.73l-13.35-4.94Z"/>
    <line class="cls-1" x1="128" y1="109.27" x2="128"/>
  </g>
  <g>
    <path class="cls-2" d="M128,151.02l-4.94-13.35c-.81-2.19-2.54-3.92-4.73-4.73l-13.35-4.94,13.35-4.94c2.19-.81,3.92-2.54,4.73-4.73l4.94-13.35,4.94,13.35c.81,2.19,2.54,3.92,4.73,4.73l13.35,4.94-13.35,4.94c-2.19.81-3.92,2.54-4.73,4.73l-4.94,13.35Z"/>
    <line class="cls-1" x1="109.27" y1="128" y2="128"/>
  </g>
  <g>
    <path class="cls-2" d="M151.02,128l-13.35,4.94c-2.19.81-3.92,2.54-4.73,4.73l-4.94,13.35-4.94-13.35c-.81-2.19-2.54-3.92-4.73-4.73l-13.35-4.94,13.35-4.94c2.19-.81,3.92-2.54,4.73-4.73l4.94-13.35,4.94,13.35c.81,2.19,2.54,3.92,4.73,4.73l13.35,4.94Z"/>
    <line class="cls-1" x1="128" y1="146.73" x2="128" y2="256"/>
  </g>
</svg>