<?xml version="1.0" encoding="UTF-8"?>
<svg id="Camada_2" xmlns="http://www.w3.org/2000/svg" version="1.1" viewBox="0 0 500 300">
  <!-- Generator: Adobe Illustrator 29.6.1, SVG Export Plug-In . SVG Version: 2.1.1 Build 9)  -->
  <defs>
    <style>
      .st0 {
        fill: #00708c;
      }
    </style>
  </defs>
  <path class="st0" d="M317.1,190.5h12.5c1,0,1.8.8,1.8,1.8v30h-16.2v-30c0-1,.8-1.8,1.8-1.8h0Z"/>
  <path class="st0" d="M339.2,178.6h9.5c1.9,0,3.4,1.5,3.4,3.4v34.6c0,3.2-2.6,5.8-5.8,5.8h-10.4v-40.4c0-1.9,1.5-3.4,3.4-3.4h0Z"/>
  <path class="st0" d="M297.6,202.8h11.1c1.3,0,2.3,1,2.3,2.3v17.3h-10.7c-3.1,0-5.5-2.5-5.5-5.5v-11.2c0-1.5,1.2-2.8,2.8-2.8h0Z"/>
  <g>
    <path class="st0" d="M159.4,153.7c-1.5,0-2.9-.9-3.5-2.3-.2-.5-5.5-12.5-17.7-12.5s-3.8-1.7-3.8-3.8,1.7-3.8,3.8-3.8c5,0,9.1,1.4,12.5,3.3l-12.9-41.4-21.2,57.8c-.7,2-2.9,3-4.9,2.3-2-.7-3-2.9-2.3-4.9l25.1-68.4c.6-1.5,2-2.6,3.7-2.5,1.6,0,3.1,1.1,3.5,2.7l21.3,68.7c.6,1.9-.4,4-2.3,4.7-.4.2-.9.2-1.3.2h0Z"/>
    <path class="st0" d="M300.1,153.8h-34c-2.1,0-3.8-1.7-3.8-3.8v-68.7c0-2.1,1.7-3.8,3.8-3.8s3.8,1.7,3.8,3.8v64.9h30.2c2.1,0,3.8,1.7,3.8,3.8s-1.7,3.8-3.8,3.8Z"/>
    <path class="st0" d="M320.4,153.8c-2.1,0-3.8-1.7-3.8-3.8v-68.7c0-2.1,1.7-3.8,3.8-3.8s3.8,1.7,3.8,3.8v68.7c0,2.1-1.7,3.8-3.8,3.8Z"/>
    <path class="st0" d="M248.9,153.2c-1.5,0-2.9-.9-3.5-2.3-.2-.5-5.5-12.5-17.7-12.5s-3.8-1.7-3.8-3.8,1.7-3.8,3.8-3.8c5,0,9.1,1.4,12.5,3.3l-12.9-41.4-21.2,57.8c-.7,2-2.9,3-4.9,2.3-2-.7-3-2.9-2.3-4.9l25.1-68.4c.6-1.5,2.1-2.6,3.7-2.5,1.6,0,3.1,1.1,3.5,2.7l21.3,68.7c.6,1.9-.4,4-2.3,4.7-.4.2-.9.2-1.3.2h0Z"/>
    <path class="st0" d="M180.7,153.2h-.1c-1.6,0-3.1-1.1-3.5-2.7l-21.3-68.7c-.6-1.9.4-4,2.3-4.7,1.9-.7,4,.2,4.8,2.1.2.5,5.5,12.5,17.7,12.5s3.8,1.7,3.8,3.8-1.7,3.8-3.8,3.8c-5,0-9.1-1.3-12.5-3.3l12.9,41.4,21.2-57.8c.7-2,2.9-3,4.9-2.3,2,.7,3,2.9,2.3,4.9l-25.1,68.4c-.6,1.5-2,2.5-3.6,2.5h0Z"/>
    <path class="st0" d="M387,153.2c-1.5,0-2.9-.9-3.5-2.3-.2-.5-5.5-12.5-17.7-12.5s-3.8-1.7-3.8-3.8,1.7-3.8,3.8-3.8c5,0,9.1,1.4,12.5,3.3l-12.9-41.4-21.2,57.8c-.7,2-2.9,3-4.9,2.3-2-.7-3-2.9-2.3-4.9l25-68.4c.6-1.5,2-2.6,3.7-2.5,1.6,0,3,1.1,3.5,2.7l21.3,68.7c.6,1.9-.4,4-2.3,4.7-.4.2-.9.2-1.3.2h0Z"/>
  </g>
  <g>
    <path class="st0" d="M219.8,164.2h-17.9c-2,0-3.7,1.7-3.7,3.8v51.3c0,2.1,1.6,3.8,3.7,3.8h18.8c4.9,0,20.7-2.1,20.7-29.5s-10.9-29.4-21.6-29.4h0ZM220.6,214.7h-15.3v-42.2h14.5c7.2,0,14.5,7.2,14.5,21s-5,21.1-13.8,21.1h0Z"/>
    <path class="st0" d="M192.4,219.2c0,2.1-1.6,3.8-3.7,3.8h-35.9c-2,0-3.7-1.7-3.7-3.8v-51.2c0-2.1,1.6-3.8,3.7-3.8h35.9c1.4,0,2.8.9,3.4,2.2.6,1.3.3,2.9-.6,4,0,0-3.6,4.6-3.6,15.1s-1.6,3.8-3.7,3.8-3.7-1.7-3.7-3.8c0-5.1.7-9.7,2.2-13.8h-26.2v18.1h19.4c2,0,3.6,1.7,3.6,3.8s-1.6,3.8-3.6,3.8h-19.4v18.1h32.2c2,0,3.7,1.7,3.7,3.8h0Z"/>
    <path class="st0" d="M289.4,167.9v25.5c0,9.6,0,29.6-21,29.6s-.3,0-.5,0c-.2,0-.5,0-.7,0-21,0-21-20-21-29.6v-25.5c0-1.4.8-2.7,1.9-3.3.5-.3,1.1-.4,1.7-.4s1.5.2,2.1.7c0,0,7,4.9,15.2,4.9s3.7,1.7,3.7,3.8-1.6,3.8-3.7,3.8c-5.4,0-10.3-1.6-13.7-3.1v19.2c0,12.1,1,22.1,13.7,22.1s.3,0,.4,0c.2,0,.5,0,.7,0,12.6,0,13.7-10,13.7-22.1v-25.5c0-2.1,1.6-3.8,3.7-3.8s3.7,1.7,3.7,3.8h0Z"/>
  </g>
</svg>