<?xml version="1.0" encoding="UTF-8"?>
<svg xmlns="http://www.w3.org/2000/svg" viewBox="0 0 1920 1000">
  <defs>
    <style>
      .cls-1 {
        isolation: isolate;
      }

      .cls-2 {
        fill: #56635f;
      }

      .cls-3 {
        mix-blend-mode: multiply;
      }

      .cls-4 {
        opacity: .3;
      }
    </style>
  </defs>
  <g class="cls-1">
    <g id="Camada_2" data-name="Camada 2" class="cls-3">
      <g class="cls-4">
        <g>
          <path class="cls-2" d="M205.62,976.72c1.55,0,3.09,.29,4.64,.87,1.55,.58,3.03,1.58,4.45,3l25.92,27.27c-11.35,14.83-25.57,26.02-42.65,33.56-17.09,7.54-37.3,11.32-60.64,11.32-21.41,0-40.59-3.64-57.55-10.93-16.96-7.28-31.34-17.34-43.14-30.18-11.8-12.83-20.86-28.05-27.18-45.65-6.32-17.6-9.48-36.72-9.48-57.35s3.41-40.33,10.25-57.93c6.83-17.6,16.44-32.79,28.82-45.55,12.38-12.77,27.21-22.69,44.49-29.79,17.28-7.09,36.3-10.64,57.06-10.64,10.57,0,20.53,.94,29.89,2.8,9.35,1.87,18.09,4.45,26.21,7.74s15.6,7.25,22.44,11.9c6.83,4.64,12.89,9.67,18.18,15.09l-22.05,29.6c-1.42,1.81-3.09,3.45-5.03,4.93-1.93,1.48-4.64,2.22-8.12,2.22-2.32,0-4.52-.51-6.58-1.55-2.06-1.03-4.26-2.29-6.58-3.77-2.32-1.48-4.87-3.09-7.64-4.84-2.77-1.74-6.06-3.35-9.86-4.84-3.81-1.48-8.25-2.74-13.35-3.77-5.1-1.03-11.06-1.55-17.89-1.55-10.83,0-20.73,2-29.69,6-8.96,4-16.7,9.84-23.21,17.51-6.51,7.67-11.54,17.09-15.09,28.24-3.55,11.16-5.32,23.89-5.32,38.2s1.96,27.27,5.9,38.49c3.93,11.22,9.28,20.67,16.06,28.34,6.77,7.67,14.67,13.51,23.7,17.51,9.03,4,18.7,6,29.02,6,5.93,0,11.35-.29,16.25-.87,4.9-.58,9.48-1.55,13.73-2.9,4.26-1.35,8.25-3.16,11.99-5.42,3.74-2.25,7.54-5.13,11.41-8.61,1.55-1.29,3.22-2.35,5.03-3.19,1.8-.84,3.68-1.26,5.61-1.26Z"/>
          <path class="cls-2" d="M312.2,818.1v65.77h88.59v48.36h-88.59v67.12h115.67v50.29H246.43v-281.83h181.44v50.29h-115.67Z"/>
          <path class="cls-2" d="M675.85,1049.64h-59.19c-10.96,0-18.83-4.13-23.6-12.38l-46.81-81.82c-2.19-3.48-4.64-6.03-7.35-7.64-2.71-1.61-6.58-2.42-11.61-2.42h-16.64v104.26h-65.38v-281.83h91.69c20.37,0,37.75,2.1,52.13,6.29,14.38,4.19,26.11,10.03,35.2,17.51,9.09,7.48,15.7,16.31,19.83,26.5,4.13,10.19,6.19,21.28,6.19,33.27,0,9.16-1.23,17.8-3.67,25.92-2.45,8.13-6.06,15.64-10.83,22.54-4.77,6.9-10.67,13.06-17.7,18.47-7.03,5.42-15.12,9.87-24.28,13.35,4.26,2.19,8.25,4.93,11.99,8.22,3.74,3.29,7.09,7.19,10.06,11.7l59.96,98.07Zm-138.89-149.33c8.9,0,16.47-1.13,22.73-3.38,6.25-2.25,11.38-5.38,15.38-9.38s6.9-8.67,8.7-14.02c1.8-5.35,2.71-11.12,2.71-17.31,0-12.38-4.03-22.05-12.09-29.01-8.06-6.96-20.54-10.45-37.43-10.45h-26.31v83.56h26.31Z"/>
          <path class="cls-2" d="M873.73,819.65h-79.31v229.99h-65.38v-229.99h-79.31v-51.84h224v51.84Z"/>
          <path class="cls-2" d="M949.75,1049.64h-65.77v-281.83h65.77v281.83Z"/>
          <path class="cls-2" d="M1237.19,908.63c0,20.38-3.51,39.17-10.54,56.39-7.03,17.22-16.93,32.11-29.69,44.68s-28.14,22.37-46.13,29.4c-17.99,7.03-37.95,10.54-59.87,10.54h-109.48v-281.83h109.48c21.92,0,41.88,3.55,59.87,10.64,17.99,7.09,33.37,16.9,46.13,29.4,12.77,12.51,22.66,27.37,29.69,44.59,7.03,17.22,10.54,35.95,10.54,56.19Zm-66.93,0c0-13.93-1.81-26.5-5.42-37.72-3.61-11.22-8.8-20.73-15.57-28.53-6.77-7.8-15.06-13.8-24.86-17.99-9.8-4.19-20.96-6.29-33.46-6.29h-43.72v181.25h43.72c12.51,0,23.66-2.09,33.46-6.29,9.8-4.19,18.09-10.19,24.86-17.99,6.77-7.8,11.96-17.31,15.57-28.53,3.61-11.22,5.42-23.86,5.42-37.91Z"/>
          <path class="cls-2" d="M1529.65,908.63c0,20.38-3.51,39.33-10.54,56.87-7.03,17.54-16.93,32.79-29.69,45.75-12.77,12.96-28.14,23.11-46.13,30.47-17.99,7.35-37.95,11.03-59.87,11.03s-41.91-3.67-59.96-11.03c-18.06-7.35-33.5-17.51-46.33-30.47-12.83-12.96-22.76-28.21-29.79-45.75-7.03-17.54-10.54-36.49-10.54-56.87s3.51-39.33,10.54-56.87c7.03-17.54,16.96-32.75,29.79-45.65,12.83-12.89,28.27-23.02,46.33-30.37,18.05-7.35,38.04-11.03,59.96-11.03s41.88,3.71,59.87,11.12c17.99,7.42,33.37,17.57,46.13,30.47,12.77,12.9,22.66,28.12,29.69,45.65,7.03,17.54,10.54,36.43,10.54,56.68Zm-66.93,0c0-13.93-1.81-26.47-5.42-37.62-3.61-11.15-8.8-20.6-15.57-28.34-6.77-7.74-15.06-13.67-24.86-17.8-9.8-4.13-20.96-6.19-33.46-6.19s-23.89,2.06-33.75,6.19c-9.86,4.13-18.18,10.06-24.95,17.8-6.77,7.74-11.96,17.19-15.57,28.34-3.61,11.16-5.42,23.7-5.42,37.62s1.8,26.66,5.42,37.82c3.61,11.16,8.8,20.6,15.57,28.34,6.77,7.74,15.09,13.64,24.95,17.7,9.86,4.06,21.11,6.09,33.75,6.09s23.66-2.03,33.46-6.09c9.8-4.06,18.09-9.96,24.86-17.7,6.77-7.74,11.96-17.18,15.57-28.34,3.61-11.15,5.42-23.76,5.42-37.82Zm-54.94-193.43c2.83,0,5.22-.55,7.16-1.64,1.94-1.09,3.51-2.52,4.74-4.26,1.22-1.74,2.13-3.61,2.71-5.61,.58-2,.87-3.9,.87-5.71h36.37c0,7.09-.97,13.93-2.9,20.5-1.93,6.58-4.77,12.41-8.51,17.51-3.74,5.1-8.38,9.16-13.93,12.19-5.55,3.03-11.93,4.55-19.15,4.55s-13.38-.97-18.47-2.9c-5.1-1.93-9.61-4.09-13.54-6.48-3.94-2.38-7.51-4.55-10.74-6.48-3.22-1.93-6.51-2.9-9.86-2.9-2.84,0-5.22,.58-7.16,1.74-1.93,1.16-3.48,2.61-4.64,4.35-1.16,1.74-2,3.65-2.51,5.71-.52,2.06-.77,4-.77,5.8h-36.75c0-7.09,.97-13.93,2.9-20.5s4.8-12.44,8.61-17.6c3.8-5.16,8.44-9.28,13.93-12.38,5.48-3.09,11.83-4.64,19.05-4.64s13.41,.97,18.57,2.9c5.16,1.93,9.67,4.1,13.54,6.48,3.87,2.39,7.41,4.55,10.64,6.48,3.22,1.93,6.51,2.9,9.87,2.9Z"/>
          <path class="cls-2" d="M1611.09,818.1v65.77h88.59v48.36h-88.59v67.12h115.67v50.29h-181.44v-281.83h181.44v50.29h-115.67Z"/>
          <path class="cls-2" d="M1899.88,825.07c-1.93,3.09-3.96,5.42-6.09,6.96-2.13,1.55-4.87,2.32-8.22,2.32-2.97,0-6.16-.93-9.57-2.81-3.42-1.87-7.29-3.96-11.61-6.29-4.32-2.32-9.25-4.42-14.8-6.29-5.55-1.87-11.87-2.81-18.96-2.81-12.25,0-21.37,2.61-27.37,7.84-6,5.22-8.99,12.28-8.99,21.18,0,5.68,1.8,10.38,5.42,14.12,3.61,3.74,8.35,6.96,14.22,9.67,5.87,2.71,12.57,5.19,20.12,7.45,7.54,2.26,15.25,4.77,23.12,7.54,7.86,2.77,15.57,6.03,23.12,9.77,7.54,3.74,14.25,8.51,20.12,14.31,5.87,5.8,10.6,12.86,14.22,21.18,3.61,8.32,5.42,18.35,5.42,30.08,0,13.03-2.26,25.21-6.77,36.56-4.52,11.35-11.06,21.25-19.63,29.69-8.58,8.45-19.15,15.09-31.72,19.92-12.57,4.84-26.86,7.25-42.85,7.25-8.77,0-17.7-.9-26.79-2.71-9.09-1.8-17.89-4.35-26.4-7.64-8.51-3.29-16.51-7.19-23.99-11.7-7.48-4.51-13.99-9.54-19.54-15.09l19.34-30.56c1.55-2.19,3.58-4.03,6.09-5.51,2.51-1.48,5.25-2.22,8.22-2.22,3.87,0,7.77,1.23,11.7,3.67,3.93,2.45,8.38,5.16,13.35,8.13,4.96,2.97,10.67,5.67,17.12,8.12,6.45,2.45,14.05,3.67,22.82,3.67,11.86,0,21.08-2.61,27.66-7.83,6.58-5.22,9.86-13.51,9.86-24.86,0-6.58-1.81-11.93-5.42-16.05-3.61-4.13-8.35-7.54-14.22-10.25-5.87-2.71-12.54-5.09-20.02-7.16-7.48-2.06-15.15-4.35-23.02-6.87-7.87-2.52-15.54-5.61-23.02-9.28-7.48-3.68-14.15-8.51-20.02-14.51-5.87-6-10.61-13.47-14.22-22.44-3.61-8.96-5.42-20.02-5.42-33.17,0-10.57,2.13-20.89,6.38-30.95,4.26-10.06,10.51-19.02,18.76-26.89,8.25-7.86,18.38-14.15,30.37-18.86,11.99-4.71,25.73-7.06,41.2-7.06,8.64,0,17.05,.68,25.24,2.03,8.19,1.35,15.96,3.35,23.31,6,7.35,2.64,14.22,5.8,20.6,9.48,6.38,3.67,12.09,7.83,17.12,12.48l-16.25,30.37Z"/>
        </g>
      </g>
    </g>
  </g>
</svg>