<?xml version="1.0" encoding="UTF-8"?>
<svg id="Camada_2" xmlns="http://www.w3.org/2000/svg" version="1.1" viewBox="0 0 500 300">
  <!-- Generator: Adobe Illustrator 29.6.1, SVG Export Plug-In . SVG Version: 2.1.1 Build 9)  -->
  <defs>
    <style>
      .st0 {
        fill: #00708c;
      }
    </style>
  </defs>
  <g>
    <path class="st0" d="M185.3,160.7h-.3c0,8.5-.7,10.5-3,14.2-2.4,3.7-5.5,6.3-9.3,7.9-3.8,1.6-8.5,2.4-14.1,2.4-5.4-.1-10-1.5-14-4-4-2.5-7-6.1-9.1-10.7s-3.2-10-3.2-16.3,1.1-11.7,3.4-16.2c2.2-4.5,5.4-8,9.6-10.5,4.1-2.5,9.1-3.7,14.9-3.7s11.1,1.3,15.5,4.1,7.6,7.2,9.6,13.5h1v-16.3c-3.2-1.5-7.1-2.7-11.7-3.7-4.6-1-9.8-1.5-15.6-1.5-9.2,0-17.1,1.4-23.7,4.2-6.6,2.8-11.7,6.8-15.3,12-3.5,5.2-5.3,11.3-5.3,18.5s1.8,13.5,5.4,18.7c3.6,5.1,8.7,9.1,15.4,11.9,6.6,2.8,14.4,4.2,23.2,4.2,5.4,0,10.1-.6,14.1-1.8,4-1.2,7.3-2.7,10-4.6,2.4-1.7,4.8-4,6.4-6.2.4-.5.6-1.1.6-1.7h0c0-.5-.1-.9-.3-1.3-2-3.9-3.4-8.2-4-13h0Z"/>
    <g>
      <path class="st0" d="M261.7,176.4c0,.3-.1.7-.4.9-1.6,1.8-3.9,3.5-6.9,5.3-3.2,1.9-7,3.5-11.4,4.7-4.4,1.2-9.4,1.9-14.8,1.9s-14.4-1.4-20.1-4.2c-5.7-2.8-10.2-6.9-13.3-12.1-3.2-5.2-4.7-11.4-4.7-18.5s1.6-13.3,4.7-18.4c3.1-5.1,7.6-9.1,13.4-12,5.8-2.8,12.7-4.2,20.6-4.2s7.3.2,10.8.7,6.7,1.1,9.7,1.9c3,.8,5.4,1.7,7.4,2.7l.2,16.3h-.9c-1.3-4.3-3.1-7.8-5.5-10.3-2.4-2.6-5.2-4.4-8.4-5.5-3.2-1.1-6.6-1.7-10.1-1.7-5.4,0-10.1,1.3-13.9,3.8-3.8,2.5-6.6,6.1-8.6,10.7s-2.9,10.2-2.9,16.7.9,11.4,2.7,16c1.8,4.5,4.4,8,7.8,10.5,3.4,2.4,7.6,3.7,12.5,3.8,2.5,0,4.9-.4,7.2-1.1s4.4-1.8,6.1-3.2c1.8-1.4,3-3.1,3.7-5.1v-14.6c.1-2.9-1.6-4.3-5-4.3h-1.6v-1h18.6c.1,5.4,1.2,10.4,3.1,14.8,0,.2.1.4.1.6v5.1h0Z"/>
      <path class="st0" d="M337.5,136.7c-3.2-5.2-7.7-9.3-13.6-12.2-5.9-2.9-12.9-4.5-20.9-4.6-8.1-.1-15.1,1.2-21.1,3.9-6,2.7-10.6,6.6-14,11.8-2.8,4.4-4.5,9.5-5,15.3,0,1-.1,2-.2,3.1-.1,6.9,1.2,12.8,4.1,17.9.1.2.3.5.4.7,3.1,5.2,7.7,9.3,13.5,12.2s12.9,4.5,20.9,4.6c8.1.1,15.1-1.2,21.1-3.9s10.7-6.6,14-11.8,5.1-11.2,5.2-18.4c.1-7.2-1.4-13.4-4.6-18.6h0ZM323.5,171.5c-2,4.8-4.7,8.4-8.3,11.1s-7.8,3.9-12.8,3.9c-4.9,0-9.1-1.3-12.7-3.9-3.6-2.6-6.4-6.3-8.3-11.1-2-4.8-2.9-10.4-2.9-17s1-12.2,2.9-17c2-4.8,4.7-8.4,8.3-11.1,3.6-2.6,7.8-3.9,12.7-3.9,5,0,9.2,1.3,12.8,3.9s6.3,6.3,8.3,11.1c2,4.8,2.9,10.4,2.9,17s-1,12.2-2.9,17h0Z"/>
      <path class="st0" d="M404,121.2v1h-.9c-1.5,0-3,.5-4.7,1.4s-3,2.5-4.1,4.6h0l-23.5,49.2c-.1.4-.4,1.1-1,2.1s-1.1,2.2-1.7,3.6c-.6,1.3-1.1,2.6-1.6,3.9-.4,1.2-.7,2.2-.8,2.9h-.9l-18.3-37.3c-.1-.3-.2-.5-.2-.8-.4-6.5-2.1-12.3-5.1-17.3-3.4-5.5-8.1-10-14.2-13.2h30v1h-.9c-1.3,0-2.4.5-3.4,1.6s-1.1,2.5-.4,4.4h0l17.1,39.3,17.8-39.3h0c.9-1.9.8-3.4-.3-4.4-1.1-1.1-2.3-1.6-3.5-1.6h-.9v-1h21.6Z"/>
    </g>
  </g>
  <g>
    <path class="st0" d="M145.7,96.6c.2,0,.3,0,.5.1.7,0,1.3,0,2,0,1.8,0,4.8.4,6.6.7,2.1.3,4.2.7,6.3,1.1,3,.6,6.1,1.2,9.1,1.8,4.1.8,8.3,1.7,12.4,2.5,3,.6,6,1.2,9,1.8,3.1.6,6.3,1.2,9.5,1.8,2.6.5,5.1.9,7.7,1.4,2.5.4,5.1.8,7.6,1.2,1.8.3,3.6.6,5.3.8,1.6.2,3.3.4,4.9.6,1.4.2,2.8.4,4.2.5,1.1.1,2.2.2,3.3.3,1.3.1,2.5.2,3.8.4.5,0,.9,0,1.4.1.6,0,1.5.1,2.1.2,2.5.2,5.1.3,7.6.5.5,0,1.1,0,1.6,0,4.8.2,9.6.2,14.4.1,2.5,0,5.1-.2,7.6-.3,1.5,0,2.9-.2,4.4-.3,1.9-.2,3.9-.3,5.8-.5,1.6-.2,3.2-.3,4.9-.5,1.4-.2,2.9-.3,4.3-.5,1.6-.2,3.2-.4,4.8-.6,2.1-.3,4.2-.6,6.4-.9,1.9-.3,3.9-.6,5.8-.9,1.8-.3,3.5-.6,5.3-.9,2.3-.4,4.5-.8,6.8-1.2,2.1-.4,4.1-.8,6.2-1.2,3.3-.7,6.6-1.3,9.8-2,3.2-.7,6.4-1.3,9.6-2,3.5-.7,6.9-1.4,10.4-2.1,2.9-.6,5.9-1.1,8.9-1.5,1.7-.3,3.4-.3,5-.5.9,0,1.8,0,2.6,0,.1,0,.3,0,.4,0h4.4c.2,0,.3.1.5.1,2,0,4,.3,6,.7,2.6.6,5.1,1.6,7.3,3.4,2.7,2.2,4.3,5.4,4.8,9.4,0,.4,0,.8.1,1.1v3.2c-.2-.2-.1-.5-.1-.8-.1-2.8-.7-5.5-2-7.9-.8-1.5-1.8-2.6-3-3.5-1.8-1.3-3.8-2.1-5.8-2.5-1.4-.3-2.8-.4-4.2-.5-1.9-.2-3.7,0-5.6.2-2.9.2-5.8.7-8.7,1.1-2.6.4-5.3.8-7.9,1.2-1.8.3-3.7.7-5.5,1.1-3.2.6-6.4,1.3-9.6,2-2.9.6-5.8,1.2-8.7,1.8-3.5.7-7,1.4-10.5,2.1-2.9.6-5.7,1.1-8.6,1.7-2.6.5-5.2.9-7.8,1.4-2.3.4-4.5.8-6.8,1.1-1.9.3-3.8.5-5.6.8-1.6.2-3.3.5-4.9.7-1.5.2-3,.3-4.4.5-1.8.2-3.5.4-5.3.5-.8,0-1.7.1-2.5.2-1.9.1-3.8.3-5.8.4-.1,0-.3,0-.4,0-1.8,0-3.5.1-5.3.2-4.4.2-8.9.1-13.3,0-2.1,0-4.2,0-6.4-.2-1.8,0-3.6-.2-5.3-.3-2.1-.2-4.2-.3-6.3-.5-1.3-.1-2.5-.2-3.8-.3-1.5-.2-3-.3-4.6-.5-1.3-.2-2.6-.3-3.9-.5-1.2-.2-2.5-.3-3.7-.5-1.5-.2-2.9-.4-4.4-.6-2-.3-3.9-.6-5.9-.9-2.1-.3-4.1-.7-6.2-1.1-2.2-.4-4.4-.8-6.6-1.2-3-.6-6.1-1.2-9.1-1.8-2.9-.6-5.8-1.2-8.8-1.8-3.4-.7-6.9-1.4-10.3-2.1-2.3-.5-4.5-.9-6.8-1.4-2.4-.5-4.8-.9-7.2-1.3-2.1-.3-4.2-.7-6.2-.9-1.7-.2-3.3-.5-5-.7-2.5-.3-5.1-.4-7.6-.2-2.6.1-5.2.5-7.7,1.8-3.6,1.8-5.8,5-6.6,9.8-.2,1-.3,2-.3,3,0,.2,0,.5-.2.2l-.2-1.8c.3-.4.4-.9.4-1.5,0-.7.1-1.3.3-1.9.6-3,1.7-5.5,3.7-7.4,1.3-1.3,2.8-2.3,4.4-3,2.8-1.3,5.8-1.8,8.8-2,.3,0,.7,0,1-.1h5.8,0Z"/>
    <path class="st0" d="M152,204.9c-.2-.1-.3-.1-.5-.1-1.4-.1-2.7-.2-4.1-.3-2.7-.3-5.3-.6-7.9-1.2-2.2-.5-4.4-1.1-6.6-2-2.3-1-4.4-2.3-6.3-4.2-1.7-1.7-3-3.7-3.8-6.3,0-.1,0-.2-.1-.4.2,0,.2.2.3.4,1.2,2.8,3,4.9,5.2,6.4,2.4,1.7,5.1,2.7,7.8,3.3,2,.5,4.1.7,6.1.9,3,.3,5.9.3,8.9.2,2.4,0,4.8-.2,7.2-.3,1.8,0,3.6-.2,5.4-.3,2-.1,4.1-.3,6.1-.4,1.7-.1,3.4-.3,5.1-.4,2.5-.2,5-.5,7.5-.7,2.3-.2,4.6-.5,6.9-.7,2.2-.2,4.4-.5,6.5-.7,2-.2,3.9-.5,5.9-.7,1.6-.2,3.2-.3,4.8-.5,2.1-.2,4.2-.5,6.3-.7,1.3-.1,2.6-.2,4-.3,1.4-.1,2.7-.3,4.1-.4.7,0,1.4,0,2.1-.2,1.6-.1,3.1-.2,4.7-.3,2.1-.2,4.2-.3,6.3-.4,1.8-.1,3.6-.2,5.4-.3,2.5-.1,5-.2,7.5-.3,2.2-.1,4.5,0,6.7-.1,3.5-.2,7.1-.1,10.6,0,2.4,0,4.9,0,7.4.1,1.2,0,2.5,0,3.7.1,2.2,0,4.4.2,6.7.3,1.6,0,3.2.2,4.8.3,2,.1,4.1.3,6.1.4,1.9.2,3.8.3,5.6.4,2.2.2,4.4.4,6.7.6,1.9.2,3.9.4,5.8.6,2,.2,4.1.5,6.1.7,1.5.2,3.1.3,4.6.5,1.5.2,3,.4,4.6.5,1.1.1,2.2.2,3.3.3,1.2.1,2.3.3,3.5.4,1.1.1,2.2.2,3.3.3,1.3.1,2.6.3,4,.4,1.3.1,2.5.2,3.8.3,1.6.1,3.2.3,4.7.4.7,0,1.4,0,2.1.1,1,.1,2.1.1,3.1.2,2.4.1,4.8.2,7.2.3,1.5,0,2.9,0,4.4.1,2.9.2,5.9.2,8.8,0,3.7-.1,7.3-.5,10.9-1.7,2.4-.8,4.6-1.9,6.6-3.6,1.6-1.4,2.9-3.1,3.9-5.2,0-.1.1-.2.2-.4,0,0,0,0,0,0,0,.2,0,.3,0,.4-1,2.8-2.6,5-4.5,6.8-2.1,1.9-4.4,3.1-6.8,4-2.6,1-5.3,1.6-8,2.1-2,.3-4,.6-6,.8-1,.1-1.9.1-2.9.2-1.6.1-3.3.2-5,0-1.9,0-3.8-.2-5.6-.3-1.5,0-3-.2-4.5-.3-2-.1-3.9-.3-5.9-.4-1.7-.1-3.4-.3-5.1-.4-2.3-.2-4.6-.5-6.9-.7-1.7-.2-3.5-.3-5.2-.5-2.1-.2-4.2-.5-6.3-.7-1.7-.2-3.3-.3-5-.5-1.6-.2-3.2-.4-4.8-.5-1.2-.1-2.4-.2-3.6-.3-1.2-.1-2.4-.3-3.6-.4-1.2-.1-2.3-.2-3.5-.3-1.4-.1-2.8-.3-4.2-.4-.6,0-1.2,0-1.8-.2-1.5-.1-3-.2-4.5-.3-2-.2-4.1-.3-6.1-.4-1.5,0-2.9-.2-4.4-.3-2-.1-4-.2-6-.3-1.3,0-2.6,0-3.8-.1-7.6-.3-15.3-.1-22.9,0-1.5,0-3,0-4.5.1-2,.1-4,.2-5.9.3-2.3.1-4.7.3-7,.4-1.9.1-3.8.3-5.6.4-2.3.2-4.5.4-6.8.6-2,.2-4.1.4-6.1.6-2.1.2-4.3.5-6.4.7-1.7.2-3.3.3-5,.5-2,.2-4.1.5-6.1.7-1.2.1-2.3.2-3.5.3-1.6.2-3.2.4-4.9.5-1.1.1-2.3.2-3.4.3-1.3.1-2.6.3-3.9.4-1.2.1-2.4.2-3.6.3-1.4.1-2.9.3-4.3.4-.6,0-1.3,0-1.9.2-1.6.1-3.1.2-4.7.3-2,.1-3.9.3-5.9.4-.2,0-.3,0-.4.1h-6.9Z"/>
  </g>
</svg>