<?xml version="1.0" encoding="UTF-8"?>
<svg id="Camada_2" xmlns="http://www.w3.org/2000/svg" xmlns:xlink="http://www.w3.org/1999/xlink" version="1.1" viewBox="0 0 500 300">
  <!-- Generator: Adobe Illustrator 29.6.1, SVG Export Plug-In . SVG Version: 2.1.1 Build 9)  -->
  <defs>
    <style>
      .st0 {
        fill: #24aac9;
      }

      .st1 {
        fill: url(#Gradiente_sem_nome_4);
      }

      .st2 {
        fill: #00708c;
      }

      .st3 {
        fill: #4b4b4b;
      }
    </style>
    <linearGradient id="Gradiente_sem_nome_4" data-name="Gradiente sem nome 4" x1="264.5" y1="11.8" x2="264.5" y2="11.1" gradientTransform="translate(-104.4 202) rotate(-5)" gradientUnits="userSpaceOnUse">
      <stop offset="0" stop-color="#3878d7"/>
      <stop offset="1" stop-color="#7cabec"/>
    </linearGradient>
  </defs>
  <path class="st1" d="M160.8,189.8c-.2.1-.4.2-.5.3-.3.2-.6.3-.9.5.5-.3,1-.6,1.4-.9h0Z"/>
  <path class="st2" d="M148.2,108.4c3.3,5.4,1.5,12.5-3.9,15.7-1.8,1.1-3.8,1.6-5.8,1.6-.5,0-1,0-1.5,0,0,0-.7-.1-1-.2-4.6-.2-9.4.9-13.6,3.4h-.2c-12,7.4-20.3,17.5-22.8,27-1.5,5.3-1.1,10.4,1.4,14.5,1.7,2.9,4.3,5.1,7.5,6.5,9.7,4.4,24.9,2.5,39.1-5.9h.2c0-.2.2-.2.3-.3h0c.2,0,.4-.2.6-.3,5.4-3.3,12.5-1.5,15.7,3.9,3,4.9,1.8,11.2-2.5,14.7t0,0c-.3.2-.6.5-.9.7h0c-.5.3-.9.6-1.4.8h0c-22.5,13.5-51.6,6.2-65-16.3-13.5-22.5-6.2-51.6,16.3-65s19.5-7.5,29.4-6.5h0c3.3.6,6.4,2.5,8.3,5.6Z"/>
  <path class="st0" d="M147.4,171.1c-14.2,8.4-29.4,10.4-39.1,5.9-3.2-1.5-5.8-3.6-7.5-6.5-2.5-4.2-2.8-9.2-1.4-14.5,2.6-9.4,10.8-19.6,22.8-26.9-11.5,7-15.2,22-8.3,33.5,6.9,11.6,21.9,15.3,33.5,8.5Z"/>
  <path class="st0" d="M181,137.6c.5.8.9,1.7,1.1,2.6.2.9.3,1.8.5,2.7,2.5,17.9-5.4,36.4-21.5,46.6,4.6-3.5,6-10,2.9-15.1-3.1-5.2-9.7-7-15-4.3-.2.1-.5.3-.7.4s-.3.2-.5.3h0c-5.3,2.9-12.1,1-15.2-4.2s-2-5.8-1.3-8.7c.7-2.8,2.5-5.4,5.2-7l28.8-17.3c5.4-3.2,12.5-1.5,15.7,3.9Z"/>
  <g>
    <g>
      <path class="st3" d="M221,172.1c-4.7,0-8.6-.9-11.8-2.6-3.2-1.8-5.7-4.3-7.4-7.5-1.7-3.2-2.5-7.1-2.5-11.5s.5-6.4,1.5-9.1c1-2.7,2.4-5,4.3-6.9,1.9-1.9,4.1-3.4,6.8-4.4,2.7-1,5.7-1.5,9.1-1.5s4.5.3,6.8.8c2.3.5,4.4,1.5,6.4,2.7.7.4,1.1,1,1.3,1.6.2.6.2,1.3,0,2-.2.7-.5,1.2-.9,1.7-.4.5-1,.8-1.7.9s-1.4,0-2.2-.5c-1.5-.9-3.1-1.5-4.6-1.9-1.6-.4-3.3-.6-5.2-.6-3,0-5.5.6-7.5,1.8-2,1.2-3.6,2.9-4.6,5.1-1,2.2-1.5,5-1.5,8.2,0,4.9,1.2,8.7,3.5,11.2,2.4,2.6,5.9,3.8,10.5,3.8s3.2-.2,4.9-.5c1.6-.3,3.2-.8,4.8-1.3l-1.5,3.4v-12.8h-6.6c-1,0-1.8-.3-2.3-.8-.5-.5-.8-1.2-.8-2.1s.3-1.6.8-2.1c.5-.5,1.3-.7,2.3-.7h9.9c1,0,1.8.3,2.3.8s.8,1.3.8,2.3v14.6c0,.9-.2,1.6-.5,2.2-.3.6-.9,1-1.6,1.3-1.8.6-3.8,1.2-6.1,1.6-2.3.4-4.5.6-6.7.6Z"/>
      <path class="st3" d="M247.1,171.5c-1.3,0-2.3-.3-3-1-.7-.7-1-1.7-1-3v-34.1c0-1.3.3-2.3,1-3s1.7-1,3-1h21.4c1,0,1.8.3,2.3.8s.8,1.3.8,2.2-.3,1.8-.8,2.3-1.3.8-2.3.8h-18.1v11.6h16.8c1,0,1.8.3,2.3.8.5.5.8,1.3.8,2.3s-.3,1.8-.8,2.3c-.5.5-1.3.8-2.3.8h-16.8v12.3h18.1c1,0,1.8.3,2.3.8.5.5.8,1.3.8,2.3s-.3,1.8-.8,2.3c-.5.5-1.3.8-2.3.8h-21.4Z"/>
      <path class="st3" d="M291.7,171.9c-1.1,0-2-.3-2.6-.8-.7-.5-1.2-1.3-1.6-2.5l-12.5-35.5c-.4-1.3-.4-2.4.3-3.2.6-.9,1.7-1.3,3.1-1.3s1.9.3,2.5.8c.6.5,1.1,1.3,1.4,2.4l10.8,32h-2.4l11.3-32c.4-1.1.9-1.9,1.5-2.4.6-.5,1.4-.8,2.3-.8s1.7.3,2.3.8c.6.5,1,1.3,1.4,2.5l10.9,31.9h-2.1l11-32c.4-1,.8-1.8,1.4-2.3.6-.5,1.4-.8,2.5-.8s2.2.4,2.8,1.3c.6.9.7,2,.2,3.2l-12.7,35.5c-.4,1.1-.9,1.9-1.6,2.4-.6.5-1.5.8-2.6.8s-1.9-.3-2.6-.8-1.2-1.3-1.6-2.5l-10.4-29.8h1.4l-10.6,29.8c-.4,1.1-.9,1.9-1.5,2.4s-1.5.8-2.5.8Z"/>
      <path class="st3" d="M345.9,171.5c-1.3,0-2.3-.3-3-1-.7-.7-1-1.7-1-3v-34.1c0-1.3.3-2.3,1-3s1.7-1,3-1h21.4c1,0,1.8.3,2.3.8s.8,1.3.8,2.2-.3,1.8-.8,2.3-1.3.8-2.3.8h-18.1v11.6h16.8c1,0,1.8.3,2.3.8.5.5.8,1.3.8,2.3s-.3,1.8-.8,2.3c-.5.5-1.3.8-2.3.8h-16.8v12.3h18.1c1,0,1.8.3,2.3.8.5.5.8,1.3.8,2.3s-.3,1.8-.8,2.3c-.5.5-1.3.8-2.3.8h-21.4Z"/>
      <path class="st3" d="M379.9,171.5c-1.3,0-2.3-.3-3-1-.7-.7-1-1.7-1-3v-34.1c0-1.3.3-2.3,1-3s1.7-1,3-1h14.4c3,0,5.5.4,7.6,1.3,2.1.9,3.7,2.1,4.8,3.8,1.1,1.6,1.7,3.6,1.7,5.9s-.7,4.7-2.2,6.5c-1.5,1.8-3.5,2.9-6.1,3.5v-.9c3,.4,5.3,1.6,6.9,3.4,1.6,1.8,2.5,4.1,2.5,7s-1.3,6.7-3.8,8.7c-2.5,2.1-6.1,3.1-10.6,3.1h-15.1ZM383.2,147.1h9.8c2.6,0,4.6-.5,5.9-1.5,1.3-1,1.9-2.5,1.9-4.5s-.7-3.5-1.9-4.5c-1.3-1-3.3-1.5-5.9-1.5h-9.8v12.1ZM383.2,165.6h10.8c2.7,0,4.7-.5,6-1.6,1.3-1.1,1.9-2.6,1.9-4.8s-.6-3.8-1.9-4.8c-1.3-1-3.3-1.6-6-1.6h-10.8v12.7Z"/>
    </g>
    <g>
      <path class="st2" d="M221,172.1c-4.7,0-8.6-.9-11.8-2.6-3.2-1.8-5.7-4.3-7.4-7.5-1.7-3.2-2.5-7.1-2.5-11.5s.5-6.4,1.5-9.1c1-2.7,2.4-5,4.3-6.9,1.9-1.9,4.1-3.4,6.8-4.4,2.7-1,5.7-1.5,9.1-1.5s4.5.3,6.8.8c2.3.5,4.4,1.5,6.4,2.7.7.4,1.1,1,1.3,1.6.2.6.2,1.3,0,2-.2.7-.5,1.2-.9,1.7-.4.5-1,.8-1.7.9s-1.4,0-2.2-.5c-1.5-.9-3.1-1.5-4.6-1.9-1.6-.4-3.3-.6-5.2-.6-3,0-5.5.6-7.5,1.8-2,1.2-3.6,2.9-4.6,5.1-1,2.2-1.5,5-1.5,8.2,0,4.9,1.2,8.7,3.5,11.2,2.4,2.6,5.9,3.8,10.5,3.8s3.2-.2,4.9-.5c1.6-.3,3.2-.8,4.8-1.3l-1.5,3.4v-12.8h-6.6c-1,0-1.8-.3-2.3-.8-.5-.5-.8-1.2-.8-2.1s.3-1.6.8-2.1c.5-.5,1.3-.7,2.3-.7h9.9c1,0,1.8.3,2.3.8s.8,1.3.8,2.3v14.6c0,.9-.2,1.6-.5,2.2-.3.6-.9,1-1.6,1.3-1.8.6-3.8,1.2-6.1,1.6-2.3.4-4.5.6-6.7.6Z"/>
      <path class="st2" d="M247.1,171.5c-1.3,0-2.3-.3-3-1-.7-.7-1-1.7-1-3v-34.1c0-1.3.3-2.3,1-3s1.7-1,3-1h21.4c1,0,1.8.3,2.3.8s.8,1.3.8,2.2-.3,1.8-.8,2.3-1.3.8-2.3.8h-18.1v11.6h16.8c1,0,1.8.3,2.3.8.5.5.8,1.3.8,2.3s-.3,1.8-.8,2.3c-.5.5-1.3.8-2.3.8h-16.8v12.3h18.1c1,0,1.8.3,2.3.8.5.5.8,1.3.8,2.3s-.3,1.8-.8,2.3c-.5.5-1.3.8-2.3.8h-21.4Z"/>
      <path class="st2" d="M291.7,171.9c-1.1,0-2-.3-2.6-.8-.7-.5-1.2-1.3-1.6-2.5l-12.5-35.5c-.4-1.3-.4-2.4.3-3.2.6-.9,1.7-1.3,3.1-1.3s1.9.3,2.5.8c.6.5,1.1,1.3,1.4,2.4l10.8,32h-2.4l11.3-32c.4-1.1.9-1.9,1.5-2.4.6-.5,1.4-.8,2.3-.8s1.7.3,2.3.8c.6.5,1,1.3,1.4,2.5l10.9,31.9h-2.1l11-32c.4-1,.8-1.8,1.4-2.3.6-.5,1.4-.8,2.5-.8s2.2.4,2.8,1.3c.6.9.7,2,.2,3.2l-12.7,35.5c-.4,1.1-.9,1.9-1.6,2.4-.6.5-1.5.8-2.6.8s-1.9-.3-2.6-.8-1.2-1.3-1.6-2.5l-10.4-29.8h1.4l-10.6,29.8c-.4,1.1-.9,1.9-1.5,2.4s-1.5.8-2.5.8Z"/>
      <path class="st2" d="M345.9,171.5c-1.3,0-2.3-.3-3-1-.7-.7-1-1.7-1-3v-34.1c0-1.3.3-2.3,1-3s1.7-1,3-1h21.4c1,0,1.8.3,2.3.8s.8,1.3.8,2.2-.3,1.8-.8,2.3-1.3.8-2.3.8h-18.1v11.6h16.8c1,0,1.8.3,2.3.8.5.5.8,1.3.8,2.3s-.3,1.8-.8,2.3c-.5.5-1.3.8-2.3.8h-16.8v12.3h18.1c1,0,1.8.3,2.3.8.5.5.8,1.3.8,2.3s-.3,1.8-.8,2.3c-.5.5-1.3.8-2.3.8h-21.4Z"/>
      <path class="st2" d="M379.9,171.5c-1.3,0-2.3-.3-3-1-.7-.7-1-1.7-1-3v-34.1c0-1.3.3-2.3,1-3s1.7-1,3-1h14.4c3,0,5.5.4,7.6,1.3,2.1.9,3.7,2.1,4.8,3.8,1.1,1.6,1.7,3.6,1.7,5.9s-.7,4.7-2.2,6.5c-1.5,1.8-3.5,2.9-6.1,3.5v-.9c3,.4,5.3,1.6,6.9,3.4,1.6,1.8,2.5,4.1,2.5,7s-1.3,6.7-3.8,8.7c-2.5,2.1-6.1,3.1-10.6,3.1h-15.1ZM383.2,147.1h9.8c2.6,0,4.6-.5,5.9-1.5,1.3-1,1.9-2.5,1.9-4.5s-.7-3.5-1.9-4.5c-1.3-1-3.3-1.5-5.9-1.5h-9.8v12.1ZM383.2,165.6h10.8c2.7,0,4.7-.5,6-1.6,1.3-1.1,1.9-2.6,1.9-4.8s-.6-3.8-1.9-4.8c-1.3-1-3.3-1.6-6-1.6h-10.8v12.7Z"/>
    </g>
  </g>
</svg>