<?xml version="1.0" encoding="UTF-8"?>
<svg id="Camada_2" xmlns="http://www.w3.org/2000/svg" xmlns:xlink="http://www.w3.org/1999/xlink" version="1.1" viewBox="0 0 408 99.8">
  <!-- Generator: Adobe Illustrator 29.0.1, SVG Export Plug-In . SVG Version: 2.1.0 Build 192)  -->
  <defs>
    <style>
      .st0 {
        isolation: isolate;
      }

      .st1 {
        fill: #686868;
      }
    </style>
  </defs>
  <g>
    <path class="st1" d="M137.4,61.1h0c0,.2,0,.4,0,.5-.2,3.3-3,5.8-6.3,5.8h-28.4c-.5,0-.9-.4-.9-.9s.4-.9.9-.9h2.6c1.2,0,2.2-1,2.2-2.2V27.8c0-1-.9-1.9-1.9-1.9h-2c-.6,0-1.1-.5-1.1-1.1s.5-1.1,1.1-1.1h17.3c.6,0,1.1.5,1.1,1.1s-.5,1.1-1.1,1.1h-3.1c-1.1,0-1.9.9-1.9,1.9v31.2c0,3.5,2.8,6.3,6.3,6.3h8.1c.8,0,1.5-.1,2.1-.3,2.6-.8,4.1-3.1,4.7-5.4.2.5.3,1,.3,1.5h0Z"/>
    <path class="st1" d="M163.9,62.6c6.2-6.2,6.4-16,.6-21.9-5.9-5.9-15.7-5.6-21.9.6-6.2,6.2-6.4,16-.6,21.9,5.9,5.9,15.7,5.6,21.9-.6h0ZM153.2,65.1c-5.3,0-9.6-5.9-9.6-13.2s4.3-13.2,9.6-13.2,9.6,5.9,9.6,13.2-4.3,13.2-9.6,13.2Z"/>
    <path class="st1" d="M187.1,60.1v.4c-.3,4.1-3.7,6.9-7.9,6.9s-.3,0-.5,0h0c-.5,0-1,0-1.5-.2-3.4-.9-5.9-4-5.9-7.6v-19.6h-3.3c-.4,0-.7-.3-.7-.7v-1.5c0-.4.3-.7.7-.7h0c3.6,0,6.5-2.9,6.5-6.5h0c0-.5.3-.8.7-.8h1.4c.4,0,.7.3.7.7v6.7h7.2c.4,0,.7.3.7.7v1.5c0,.4-.3.7-.7.7h-7.2v18.2c0,.6,0,2.3.1,2.8.6,2,2.2,3.4,4.2,3.6,4.4,0,5.5-4.5,5.5-4.5h0Z"/>
    <path class="st1" d="M210.1,67.4h.2-.2Z"/>
    <path class="st1" d="M211.1,60.1v-14.1c0-8-6.6-9.4-11.9-9.4s-10.6,3.6-10.4,8.3c0,1.6,1.3,3,3,3s3-1.3,3-3,0-.3,0-.5c0-.2,0-.4-.2-.6,0,0,0,0,0,0-1.1-2.3-.3-5.8,4.7-5.8s6.3.8,6.3,8.8v4h-4.4c-4.4,0-12.5.6-12.5,9.3s10.5,8.6,16.9,3.7c0,.6.4,1.6,1.2,2.4.3.3.6.5,1,.7.2.1.4.2.6.3.1,0,.3,0,.4.2h0c.3,0,.6.2.9.2h0c.1,0,.3,0,.4,0h1c0-.1,0-.1,0-.1,1.5-.3,2.7-1.4,3.3-2.9-1.9-.6-3.3-2.3-3.3-4.4h0ZM205.5,62.4h0c-4.5,3.9-11.8,3.9-11.8-3s5.7-7.4,8.7-7.4h3.1v10.3h0Z"/>
    <path class="st1" d="M205.5,62.3h0s0,0,0,0h0Z"/>
    <path class="st1" d="M208.7,67.2c.3,0,.6.2.9.2-.3,0-.6,0-.9-.2Z"/>
    <path class="st1" d="M209.6,67.4c.2,0,.3,0,.5,0h0c-.1,0-.3,0-.4,0Z"/>
    <path class="st1" d="M258.9,49.3v1c0,.2-.2.4-.4.4h-3.6l-.7,11.3s-3.6,5.1-18.3,5.3h-1c-11.3,0-20.4-7-20.4-22.8s9.1-22.8,20.4-22.8c0,0,7.5-.3,11.8,2.2,3.9,2.3,5.2,4,5.4,4.2,0,0,0,0,0,0v-1.3s0,0,0,0v-2c0-.4.2-.6.6-.6h.7c.3,0,.6.3.6.6v13h-1.9c-1.8-9.3-7.5-13.1-14.2-13.1s-14.8,5.2-14.8,20,6.6,20,14.8,20,6.2-.8,8.7-2.7c1.4-1.3,2-4.1,2-7.9s-4.1-3.4-4.8-3.4h-2.4v-1.8h17.2c.2,0,.4.2.4.4h0Z"/>
    <path class="st1" d="M280.6,65.9c8.1-3.3,12.1-12.2,9-19.9s-12.3-11.3-20.4-8c-8.1,3.3-12.1,12.2-9,19.9,3.1,7.7,12.3,11.3,20.4,8h0ZM274.9,65.1c-5.3,0-9.5-5.9-9.5-13.2,0-7.3,4.4-13.1,9.7-13.1,5.3,0,9.5,5.9,9.5,13.2,0,7.3-4.4,13.1-9.6,13.1h0Z"/>
    <path class="st1" d="M287.1,38.8h-.6.6Z"/>
    <path class="st1" d="M321,37.2v1.3c0,.2-.2.4-.4.4h-.9c-1.2,0-2.4.8-2.9,1.9l-12.2,26.7h-2.1l-12.3-26.5c-.6-1.3-1.9-2.1-3.3-2.1h-.6c-.2,0-.3-.2-.3-.3v-1.4c0-.2.1-.3.3-.3h15.2c.2,0,.3.1.3.3v1.4c0,.2-.1.3-.3.3h-3c-1.3,0-2.1,1.3-1.6,2.5l8,18.1,8.3-18.2c.4-1.1-.4-2.3-1.6-2.3h-2.4c-.1,0-.3-.1-.3-.3,0-.3,0-.9,0-1.4h0s.2-.4.4-.4h11.1c.2,0,.4.2.4.4h0Z"/>
    <path class="st1" d="M359.9,60.4c0,2.5-2,4.4-4.4,4.4s-1.2-.1-1.8-.4c-.2,0-.4-.2-.6-.3,0,0-.2-.1-.2-.2-5.7-3.9-2.7-18.2-10.6-18.9h-1c6.3,0,11.5-5.2,11.5-11.5v-.4c0-6.3-5.2-11.5-11.5-11.5h-21.2c-.4,0-.6.3-.6.6v1.5c0,.4.3.6.6.6h3.6c.8,0,1.4.6,1.4,1.4v38c0,.7-.6,1.3-1.4,1.3h-2.6c-.3,0-.5.2-.5.5v1.5c0,.3.2.5.5.5h15.9c.3,0,.5-.2.5-.5v-1.5c0-.3-.2-.5-.5-.5h-4c-.7,0-1.4-.6-1.4-1.3v-16c0-.6.5-1,1-1h4.4c.5,0,4.3.3,6.4,8.2,1,3.8,2,6.6,2.8,8.6.9,2.2,3.1,3.6,5.5,3.6h2.5c3.1,0,5.7-1.7,5.7-6.9h0ZM338.6,43h-6.2c-.5,0-1-.4-1-1v-16.5c0-.5.4-1,1-1h6.2c4.9,0,8.9,4,8.9,8.9v.6c0,4.9-4,8.9-8.9,8.9h0Z"/>
    <path class="st1" d="M408,65.7v1.5h0c0,.3-.2.5-.5.5h-15.9c-.3,0-.5-.2-.5-.5v-1.5c0-.3.2-.5.5-.5h2.6c.7,0,1.3-.6,1.3-1.3v-17.9h-22.6v17.9c0,.8.6,1.3,1.4,1.3h3.9c.2,0,.4.2.5.4,0,0,0,0,0,.1v1.5h0c0,.3-.2.5-.5.5h-16.7c-.3,0-.5-.2-.5-.5v-1.5c0-.3.2-.5.5-.5h3.8c.7,0,1.3-.6,1.3-1.3V25.9c0-.7-.6-1.4-1.4-1.4h-3.6c-.4,0-.6-.3-.6-.6v-1.5c0-.4.3-.6.6-.6h16.3c.4,0,.7.3.7.7v1.3c0,.4-.3.7-.7.7h-4c-.5,0-1,.4-1,1v17.3h22.6v-16.9c0-.8-.6-1.4-1.4-1.4h-2.5c-.4,0-.6-.3-.6-.6v-1.5c0-.4.3-.6.6-.6h15.5c.4,0,.7.3.7.7v1.3c0,.4-.3.7-.7.7h-4.4c-.5,0-1,.4-1,1v38.3c0,.7.6,1.4,1.4,1.4h4.2c.2,0,.4.2.5.4,0,0,0,0,0,.1h0Z"/>
  </g>
  <g>
    <image class="st0" width="274" height="243" transform="translate(1 40.3) scale(.2)" xlink:href="lotagovrh_logo-1.png"/>
    <image class="st0" width="184" height="330" transform="translate(40 18.9) scale(.2)" xlink:href="lotagovrh_logo-2.png"/>
    <image class="st0" width="184" height="278" transform="translate(1.2 .7) scale(.2)" xlink:href="lotagovrh_logo-3.png"/>
    <image class="st0" width="34" height="35" transform="translate(37.2 .7) scale(.2)" xlink:href="lotagovrh_logo-4.png"/>
    <image class="st0" width="276" height="189" transform="translate(18.4 .7) scale(.2)" xlink:href="lotagovrh_logo-5.png"/>
    <image class="st0" width="33" height="35" transform="translate(40.2 .7) scale(.2)" xlink:href="lotagovrh_logo-6.png"/>
  </g>
</svg>