<?xml version="1.0" encoding="UTF-8"?>
<svg id="Camada_5" xmlns="http://www.w3.org/2000/svg" version="1.1" viewBox="0 0 1000 1000">
  <!-- Generator: Adobe Illustrator 29.6.1, SVG Export Plug-In . SVG Version: 2.1.1 Build 9)  -->
  <defs>
    <style>
      .st0 {
        fill: #00708c;
      }

      .st1 {
        opacity: .3;
      }
    </style>
  </defs>
  <g class="st1">
    <path class="st0" d="M259.6,387.8h0C116.2,387.8,0,271.6,0,128.2V44h519.2v84.2c0,143.4-116.2,259.6-259.6,259.6h0Z"/>
  </g>
  <g>
    <path class="st0" d="M687.8,223.2c-1.9,8.4-1.3,17.1-.3,25.6,1,8.6,2,17.2,2.1,25.9.1,8.9,0,17.9,0,26.8s.4,17.6-.4,26.3c-.9,9.7-4.6,18.7-6.5,28.2-.4,1.9,2.5,2.7,2.9.8,1.7-8.3,4.9-16.3,6.1-24.7,1.3-8.6.9-17.4.9-26.1s0-17.9,0-26.9c0-8.8-.6-17.4-1.6-26.1-1.2-9.6-2.4-19.5-.3-29.1.4-1.9-2.5-2.7-2.9-.8h0Z"/>
    <path class="st0" d="M682.8,356.1c0,7.2,0,14.5-.2,21.7s-1.7,14.2-3.2,21.3c-2.8,13.5-5.5,27-9.2,40.3-2.1,7.4-4.6,14.8-7.8,21.8-.8,1.8,1.8,3.3,2.6,1.5,5.6-12.8,9.3-26.2,12.4-39.8,1.5-6.9,3-13.7,4.4-20.6s3.2-14.3,3.7-21.5c.5-8.2.3-16.5.3-24.7,0-1.9-3-1.9-3,0h0Z"/>
    <path class="st0" d="M662.3,461.3c-.6,1.8-1.7,4.1-3.5,5s-1.8-1-1.2-2.2c1.8-3.4,7.4-3.5,10.7-3.6,9.5-.5,19,.6,28.1,3.2s16.8,6.8,25.3,10.1c3.5,1.4,7.1,2.9,9.6,5.7,3,3.3,3.6,7.9,4.3,12.1,2.1,11.5,4.3,23.1,6.4,34.6.3,1.9,3.2,1.1,2.9-.8-2.1-11.6-4.3-23.2-6.4-34.9-.9-4.8-1.7-9.8-5.3-13.4-3-3.1-7.1-4.8-11.1-6.3-4.8-1.9-9.4-4.2-14.1-6.2s-10-3.8-15.3-4.9-10.5-1.9-15.9-2.2c-5-.2-10.3-.4-15.2.8-2.3.6-4.8,1.7-6.3,3.7-1.2,1.6-1.8,4-.7,5.9,1.3,2.2,4.2,2,6,.8,2.2-1.5,3.6-4,4.4-6.5.6-1.9-2.3-2.6-2.9-.8h0Z"/>
    <path class="st0" d="M742,525.4c1.1,8.3,2,16.6,2.8,25,.1,1.6.3,3.3-.9,4.5-1,1-2.5,1.5-3.9,1.9s-6.9,1.8-6.2-1.2c.3-1.7,2.2-2.2,3.7-2.3,1.6,0,3.5,0,4.9.7,1.5.8,2,2.6,2.5,4.2.6,1.9,1,3.8,1.4,5.7,1.5,7.6,1.6,15.3,1.8,23,.2,8.7.6,17.5,3,26,.5,1.9,3.4,1.1,2.9-.8-4.9-17.6-.8-36.4-6-54-.5-1.9-1.1-3.8-2.4-5.3s-3.2-2.1-5.2-2.3c-3.6-.4-8.6.2-9.5,4.5-.8,3.9,3,5.8,6.3,5.5s7.2-1.3,9.3-3.9c1.5-1.8,1.6-4.1,1.4-6.3-.2-2.8-.5-5.5-.8-8.3-.6-5.5-1.2-11-1.9-16.5-.2-1.9-3.2-1.9-3,0h0Z"/>
    <path class="st0" d="M750.7,612.4c1,4.4.8,9.2.7,13.8s-.4,9.1-1,13.6c-1.1,9-3.2,18-6.2,26.5-.9,2.7-2.3,7.8-5.8,8.1-1.3,0-4.8-1.1-4.7-2.9,0-.6.7-.9,1.2-.9.9,0,1.7.6,2.3,1.2,2.6,2.6,4.2,6.7,4.1,10.4-.2,4.2-3,7.2-5.5,10.3-5.8,7.2-9.9,15.7-11.7,24.8-.4,1.9,2.5,2.7,2.9.8,1-4.7,2.5-9.3,4.6-13.7s5.1-8.3,8.2-12.1,5-7.6,4.4-12.5c-.5-4.1-2.7-9.1-6.3-11.4-1.7-1.1-4-1.2-5.6,0-1.8,1.3-1.9,3.6-.7,5.4,2.5,3.7,8.1,4.7,11.4,1.5,1.5-1.4,2.4-3.2,3.1-5.1,1-2.3,1.7-4.8,2.5-7.2,1.6-5.1,2.8-10.3,3.8-15.5,1-5.8,1.7-11.7,2-17.7.1-3,.2-6.1.1-9.2s-.1-6.2-.8-9.2c-.4-1.9-3.3-1.1-2.9.8h0Z"/>
    <path class="st0" d="M724.2,716.5c1,11.2-4.4,21.4-10.5,30.3-1.6,2.3-3.2,4.6-4.9,6.9-1.5,2.1-3,4.1-5,5.8-4.1,3.6-10.1,4.7-15.2,6.3-11.5,3.5-22.9,7-34.4,10.5-11.3,3.5-22.6,7-34,10.1-6.2,1.7-12.5,3.2-18.8,4.5-3.1.6-6.2,1.2-9.4,1.6s-6.2.5-9.1-.8l-.4,2.7c3.5-.7,6.6-1.9,9.3-4.2,2.5-2.1,4.4-4.9,5.7-7.8,3.4-7.4,3-15.7,2.5-23.7-.1-1.9-3.1-1.9-3,0,.5,7.2,1,15-1.9,21.8-1.2,2.7-2.8,5.2-5,7.2-2.4,2.2-5.2,3.2-8.4,3.8-1.2.2-1.5,2.2-.4,2.7,5.3,2.3,11,1.2,16.5.3,6-1,11.8-2.3,17.7-3.8,11.9-3,23.6-6.7,35.3-10.3s23.9-7.3,35.8-10.9c3-.9,6-1.8,9-2.7,2.6-.8,5.2-1.7,7.5-3.1,4.6-2.8,7.6-7.6,10.6-11.9,7.3-10.3,14.5-22.1,13.3-35.2-.2-1.9-3.2-1.9-3,0h0Z"/>
    <path class="st0" d="M568.5,297.8c1.4-1.7,1.4-3.7,1.5-5.9,0-2.4.1-4.9,0-7.3,0-5-.3-10-1.3-14.9-.4-1.9-3.3-1.1-2.9.8.8,4.3,1.1,8.7,1.2,13.1,0,2.1,0,4.2,0,6.3,0,1.1,0,2.2,0,3.3,0,.8,0,1.7-.6,2.4-1.2,1.5.9,3.6,2.1,2.1h0Z"/>
    <path class="st0" d="M568.6,271.6c8-2.8,16.6-2.5,24.8-1,4.2.8,8.3,1.8,12.3,2.8s8.1,2,11.7,3.9,6.6,4.8,7.3,8.9c.3,1.9,3.2,1.1,2.9-.8-1.6-8.6-10.7-12-18.1-14-8.8-2.4-17.7-4.7-26.9-4.9-5.1,0-10.1.6-14.9,2.2-1.8.6-1,3.5.8,2.9h0Z"/>
    <path class="st0" d="M627.2,286c-6.8-6.9-16.2-10.2-25.5-11.9-4.8-.9-9.8-1.5-14.7-1.8s-10.2,0-14.8,1.8c-8.8,3.5-13.4,11.9-15.8,20.6-1.4,5-2.2,10.1-2.7,15.2-.6,5.7-.5,11.6.8,17.2s4.2,10.5,4.1,16.2c0,1.2-.2,2.3-.6,3.5-.2.6-1,2.9-2,2.8-.2,0-.7-.8-.9-1-.4-.4-.8-.7-1.3-.9-1-.5-2.2-.5-3.3-.3-2.3.5-4.1,2-6.1,3.1-1.8,1-3.8,1.6-5.9,1.6-2.3,0-3.9-1.3-4.9-3.3s-2-4.1-3.7-5.8-3.8-2.8-6-3.3c-2-.5-4.6-.2-6.4-1.4-2-1.3-1.2-4.2-.2-6,1.1-2,2.7-3.7,4.6-4.9,4-2.4,8.5-1.6,11.6,1.8,3.4,3.7,4,8.9,3.4,13.7-.8,5.9-2.9,11.6-4.5,17.2-1.2,4.1-2.4,9-6,11.6-2.1,1.5-4.6,1.9-7.1,1.9s-4.9-.2-7.3-.4c-4.5-.4-9.2-1.1-13.3-3.2-2-1-3.6-2.3-5.1-3.9l-1.1,2.6c5.3.3,10.5.7,15.8,1,2.6.2,5.3.3,7.9.5,2.2.1,4.5.2,6.7.7s3.9,1.3,5.5,2.7c1.7,1.5,3.3,2.5,5.7,2.6s4.5-.2,6.7,0,4.3.6,6.4,1.2c4.8,1.4,9.2,3.9,12.8,7.2l.3-2.4c-1.9,1.1-4.1,1-6,0-1.7-1-3.2,1.6-1.5,2.6,2.8,1.6,6.2,1.6,9,0,.8-.5,1-1.7.3-2.4-6.7-6.2-15.7-9.6-24.8-9.4-1.2,0-2.3.2-3.5,0-1.2-.1-2.1-.7-3-1.5-1.7-1.4-3.3-2.6-5.4-3.3-4.5-1.5-9.5-1.3-14.2-1.6-6.2-.4-12.5-.8-18.7-1.2-1.4,0-1.9,1.7-1.1,2.6,3.3,3.6,7.8,5.7,12.5,6.8s10.1,1.6,15.1,1.6c2.6,0,5.3-.3,7.7-1.5,2.1-1.1,3.7-2.9,4.9-4.9,2.7-4.5,3.8-10,5.3-15,1.7-5.9,3.8-12.1,3-18.4-.5-4.6-2.8-9.2-6.7-11.9s-9.3-2.6-13.3,0c-3.8,2.5-7.7,7.6-6.4,12.4,1.4,5.5,7.9,3.8,11.8,5.9,2.3,1.2,3.8,3,4.9,5.3s2.2,4.4,4.4,5.5c4.2,2.1,9.1.4,12.7-2,1-.7,2.1-1.4,3.2-1.7,1.4-.4,2,0,2.9.9,1.8,2,4.3,1.2,5.8-.7,3.4-4.5,2.2-11.1.6-16-.9-2.9-2.1-5.7-2.7-8.7s-1-6.2-1-9.4c0-5.8.9-11.7,2.1-17.4,1-4.6,2.4-9.3,4.9-13.4s6.1-7.5,10.7-9c5.1-1.8,10.7-1.6,16-1.1,10.1.9,20.8,2.5,29.5,8,2.1,1.3,4,2.8,5.7,4.5,1.4,1.4,3.5-.8,2.1-2.1h0Z"/>
    <path class="st0" d="M555.8,382c-17.7-4.2-35.9-6-54.1-5.4-1,0-1.7.9-1.5,1.9,1,4.5,2.2,9.2,5,13s7.1,5.8,11.6,6.9c5.3,1.3,10.8,1.9,16.2,2.3s10.8.6,15.9-1.1c4.7-1.5,9-5,10.2-10,.5-1.9-2.5-2.7-2.9-.8-2.3,9.5-14.6,9.3-22.2,8.9-4.9-.2-9.8-.8-14.7-1.8-4-.9-8.2-2.2-11-5.3-3.2-3.5-4.2-8.4-5.3-12.9l-1.5,1.9c17.9-.6,35.8,1.2,53.3,5.3,1.9.4,2.7-2.5.8-2.9h0Z"/>
    <path class="st0" d="M557.9,383.5c-6.7-2.9-13.9.5-18.2,6-2.3,2.9-4,6.3-5.4,9.7-1.6,3.8-3,7.6-4.1,11.5s-1.6,7.8-2.9,11.5c-1.1,3.1-3.3,5.5-6.5,6.6-6.2,2-12.9-.6-18.1-3.9-5.9-3.8-10.6-9.1-14.8-14.7-4.6-6.1-9-12.5-13-19.1-4.2-7-7.5-14.4-9.4-22.4s-2.5-16.2-2.7-24.4-.4-16.6.3-24.9c.3-4.2,1-8.3,2.2-12.3,1-3.5,2.6-7.2,5.8-9.2s6.9-2.4,10.5-2.5,7.4.4,11.1,1.1c7.2,1.3,14.4,3.3,21.7,3.3s13.9-2.4,19.3-7.2,9-10.9,12.3-17c6.6-12,11.8-25.2,21.2-35.4,10.2-11,24.8-15.7,39.5-16.1,7.1-.2,15.1.3,20.8,5,5.1,4.2,7.2,10.7,8.4,16.9.6,3.1.9,6.3,1.2,9.5.2,1.9,3.2,1.9,3,0-.6-6.7-1.4-13.5-4.1-19.8-2.9-6.6-8.1-11.3-15-13.3s-15.2-1.7-22.6-.7-14.9,3.2-21.6,7c-12.8,7.2-20.2,19.9-26.7,32.6-3.2,6.3-6.4,12.8-10.1,18.8s-8.6,12.1-15.4,14.9-14.8,1.8-22,.5c-7.4-1.4-15-3.4-22.6-2.9-3.7.2-7.6.9-10.8,3.1s-5,5.5-6.3,9c-2.9,8.1-3.2,17-3.2,25.5-.1,16.5-.1,33.8,6,49.4,3.1,7.9,7.6,15.1,12.4,22,4.1,6.1,8.3,12.3,13.4,17.7,4.8,5.1,10.5,9.7,17.2,12,5.8,2,13.4,2.1,18.1-2.5,2.7-2.6,3.7-6.3,4.5-9.9.9-4.1,2-8.1,3.3-12.1s2.8-7.7,4.8-11.2c1.8-3.2,4.1-6.3,7.3-8.2,2.9-1.7,6.5-2.4,9.7-1.1.8.3,1.6.2,2-.5.4-.6.2-1.7-.5-2h0Z"/>
    <path class="st0" d="M637.1,253.7c.1,9.7.5,19.5.3,29.2,0,4.9-.3,9.7-1,14.5s-1.8,9.4-3,14.1c-2.4,8.7-5,17.3-7.9,25.8s-5.9,16.3-9.8,24.1c-2,3.8-4.1,7.6-6.5,11.1s-4.7,7.3-8,9.8c-1.6,1.2-3.7,2.1-5.7,1.9-1.9-.2-3.3-1.5-4.3-3.1-2.2-3.9-1.3-8.7-1.8-13-.5-3.9-1.8-7.8-4-11.1-2.2-3.5-5.2-6.1-8.5-8.6-2.8-2.1-7-5.7-5.2-9.7,1.3-3,5.4-4.1,8.3-4.8,4.8-1.2,9.6-2.4,14.4-3.6,3.9-1,7.9-2.1,11.6-3.9s6.7-4.6,9.2-8,4.5-7,7.8-9.6c1.5-1.2,3.3-2.1,5.2-2.3s1.9-3.2,0-3c-4.2.5-7.7,3-10.3,6.2-2.8,3.4-4.9,7.5-8.1,10.6-3.2,3-7.3,4.6-11.5,5.9-4.7,1.4-9.4,2.5-14.1,3.6-3.9,1-8.4,1.7-11.8,4s-4.7,6-3.2,9.8c1.7,4.4,5.7,6.6,9.1,9.4,3.2,2.7,5.7,6.2,7.2,10.1.7,2,1.2,4.1,1.4,6.2.2,2.6,0,5.1.4,7.7.5,3.9,2.3,8.1,6.2,9.6,4.2,1.7,8.6-.5,11.6-3.4s5.7-6.9,8-10.6c9.9-15.5,15.5-33.2,20.7-50.6,3-9.8,5.7-19.6,6.5-29.9s.4-20.4.2-30.6v-7.8c-.1-1.9-3.1-1.9-3.1,0h0Z"/>
    <path class="st0" d="M568.1,298.1c5.5-7,16.1-1.6,22.5.8,4,1.5,8.1,2.6,12.3,3.1s8.4.4,12.5,0c4.8-.4,9.6-1.2,14.3-2l-1.5-2.5c-2.5,2.6-4.9,5.1-7.4,7.7-2.2,2.2-4.2,4.5-5.4,7.4-.7,1.8,2.2,2.6,2.9.8,1.1-2.7,3.3-4.7,5.3-6.8,2.2-2.3,4.5-4.7,6.7-7,1.1-1.1,0-2.8-1.5-2.5-8.6,1.5-17.4,2.9-26.1,1.9-4.4-.5-8.5-1.8-12.7-3.4s-8.2-3.3-12.6-3.8-9,.6-11.8,4.1c-1.2,1.5.9,3.6,2.1,2.1h0Z"/>
    <path class="st0" d="M574.4,293.4c-.7,4.2-1.2,8.6,1.7,12,2.6,3.1,6.7,4.4,10.6,5,4.2.6,8.6,1.1,12.7-.4s6.8-4.6,7.6-8.6c.4-1.9-2.5-2.7-2.9-.8-.7,3.3-2.9,5.7-6,6.8-3.4,1.1-7,.7-10.5.2-3.1-.5-6.5-1.2-8.8-3.6-2.6-2.6-2-6.4-1.5-9.7.3-1.9-2.6-2.7-2.9-.8h0Z"/>
    <path class="st0" d="M606.3,299.4c-2.3-.3-4.6-.6-6.9-1.1s-4.3-1.2-6.5-1.9c-3.3-1-8.8-3.1-11.1.7s-.7,8.1,3.2,9.7c3.1,1.3,9.2,2.3,10.8-1.8.7-2,.5-4.9-.7-6.6s-3.3-2.4-5.2-2.9-2.7,2.4-.8,2.9c1.3.4,3.1.8,3.8,2.1.4.8.4,2,.3,2.9-.2,1-.8,1.4-1.7,1.5-1.7.2-4.1-.2-5.6-1-1.8-1-2.3-2.6-1.7-4.5s2.5-1.6,4.1-1.2c2,.4,3.9,1.1,5.8,1.7,4,1.3,8.2,2,12.4,2.5.8.1,1.5-.8,1.5-1.5,0-.9-.7-1.4-1.5-1.5h0Z"/>
    <path class="st0" d="M599.6,195.1c5.2-4.6,3.1-12.9-1.7-16.8-5.6-4.6-13.7-6-20.7-6.8-7.5-.9-15.3-.4-22.5,2s-13.4,7-18.8,12.5c-2.8,2.8-5.4,5.8-8.1,8.6s-5.8,5.5-8.8,8.2c-6,5.3-12,10.6-16.5,17.4-8,12.1-10.5,26.6-14.3,40.3-1.9,6.9-4.2,13.8-7.7,20.1s-8,11.4-13.7,15.4c-11.4,8.2-25.7,11.2-39.4,8.4-5.8-1.2-13.3-3-18.3,1.4-2.9,2.6-3.7,6.8-4.8,10.4-1.3,4.3-2.7,8.6-4,12.9-5.1,17.2-9.5,34.8-10.5,52.8-.2,4.4-.3,8.8,0,13.3s1.2,9,1.1,13.5-2.1,8.1-3.5,12.1c-1.1,3.3-1.9,6.8-2.4,10.3-1.9,13.9,1.2,28.5,8.6,40.4,1.9,3,4,5.8,6.4,8.3,1.3,1.4,3.4-.7,2.1-2.1-9.3-10.1-14.4-23.8-14.6-37.5-.1-7,1-13.9,3.5-20.4,1.4-3.8,3-7.5,2.9-11.7s-.9-8.6-1.1-12.9c-.9-17.3,2.1-34.5,6.4-51.1,2.2-8.4,4.7-16.7,7.3-25,.6-1.9,1.2-3.9,1.8-5.8s1.3-3.9,2.8-5.2c2.3-2,5.5-2.1,8.4-1.8,3.2.3,6.3,1.1,9.5,1.7s6.5.8,9.7.7c6.6-.2,13.2-1.7,19.4-4.3,12.5-5.3,22-15.1,27.5-27.5s7.6-26.6,12.1-39.7c2.2-6.6,5.2-13,9.5-18.5,4.7-6,10.8-10.9,16.4-15.9s10.7-11.1,16.3-16.4,11.7-8.9,19.1-10.7,15.1-1.5,22.5-.1c6.1,1.2,15,3,17.3,9.7,1,2.8.7,6-1.6,8.1-1.5,1.3.7,3.4,2.1,2.1h0Z"/>
    <path class="st0" d="M398.9,478.7c2.8,3.4,5.6,6.9,8.9,9.8s7.2,5,11.4,6.7,7.9,3.4,11.2,6.3c3.1,2.8,5.6,6.1,7.4,9.8l2.4-1.8c-4.3-4.8-9.8-9.6-16.8-8.9-3.1.4-5.9,1.8-7.7,4.5s-2.2,5.9-2.3,8.9c0,3.6.2,7.3.5,10.8.3,4,.7,7.9,1.2,11.8,1,7.8,2.4,15.5,4.1,23.1s3.9,15.2,6.4,22.6,5.1,14.5,8.5,21.4c3.1,6.4,7.2,12.1,13.2,16.1,3.2,2.2,6.7,4,10.1,5.9,3.6,2,7.2,4,10.8,6,6.1,3.4,13.1,6.4,16.4,13,2.8,5.7,2.6,12.6,1.4,18.7-.3,1.6-.7,3.1-1.1,4.6-.3,1.2,1.1,2.5,2.2,1.7,5.5-3.9,6.8-11,8.1-17.2,1.6-7.4,2.4-15.4-.3-22.7-4.4-11.8-15.8-19.2-20-31-5.4-15.4,2.9-31.1,5.3-46.2,2.5-15.3.1-31.1-5.5-45.4s-13.5-26.3-23-37.6c-1.2-1.4-2.4-2.8-3.6-4.1-1.3-1.5-3.4.7-2.1,2.1,19.3,21.9,34.7,49.8,31.8,79.9-1.4,15.1-9.2,29.4-7.5,44.8.7,6.7,3.5,12.5,7.5,17.9,3.5,4.8,7.7,9.2,11,14.3,1.9,2.9,3.4,6,4.2,9.4,1,4.1.8,8.4.3,12.5s-1.5,8.1-2.6,12.1c-.9,3.2-2.3,6.6-5.1,8.6l2.2,1.7c1.7-6,2.6-12.4,1.6-18.7s-4.5-11.8-9.8-15.4c-3-2-6.2-3.7-9.4-5.4-3.6-2-7.2-4-10.8-6-6.4-3.5-13-6.8-17.6-12.7-4.2-5.5-6.9-12.2-9.4-18.6-2.8-7.1-5.2-14.3-7.3-21.6-4.2-14.7-6.9-29.7-8.2-44.9-.3-3.9-.7-7.8-.6-11.7,0-3.2.7-7,3.6-9,2.7-1.8,6.3-1.6,9.2-.5,3.5,1.5,6.3,4.4,8.8,7.2,1.2,1.3,3-.4,2.4-1.8-3.7-7.8-10.2-13.4-18.2-16.7-4.4-1.8-8.6-3.6-12.2-6.8-3.3-2.9-6.1-6.4-8.9-9.8-1.2-1.5-3.3.6-2.1,2.1h0Z"/>
    <path class="st0" d="M397,328.3c-4.6-14.8-2.2-31.3,6.2-44.3,4.5-6.9,10.7-12,16.9-17.4,3.1-2.7,6-5.5,8.6-8.7,2.7-3.4,4.8-7.2,6.5-11.2,3.3-7.6,6-15.5,9.5-23.1s7.3-14.5,11.5-21.4c8.5-13.8,18.8-26.5,30.7-37.5,12.1-11.2,26-20.6,41.1-27.4s32.1-11.2,48.9-12.2c8.4-.5,16.9-.2,25.3,1,7.6,1.1,15.3,2.9,22.2,6.4s12.5,9,15.2,16.4c1.4,3.9,2.6,8.3,2.8,12.4,0,1.4,0,3.1-.6,4.4-.8,1.5-2.4,1.8-3.8.9-3.7-2.6-.5-7.4,2.1-9.4,2.8-2.1,6.4-3.1,9.9-3.1,7.5,0,14.5,3.8,19.8,8.9,12.7,12.3,16.8,30.6,17.5,47.6.2,4.7.2,9.4.2,14.1,0,1.9,3,1.9,3,0,.2-18.9-.9-39-11.6-55.3-4.5-6.8-10.5-12.9-18.2-16-6.9-2.9-15.4-3.5-21.8.9-3.2,2.2-6,5.8-5.5,9.9.4,3.6,4.1,6.8,7.8,5.7,3.4-1.1,4.3-4.9,4.3-8-.1-4.3-1.3-8.8-2.6-12.8-2.6-7.9-7.9-14.1-15.2-18.2s-15.2-6.2-23.2-7.4c-17.8-2.8-36-1.8-53.4,2.6-17.5,4.4-34.2,12.1-49,22.5s-26.5,22.1-37.1,35.7-19.2,28.8-26,44.8c-3.5,8.4-6,17.5-11.1,25s-12.6,12.4-19,18.5c-12,11.5-18.4,28.1-17,44.7.3,4,1.1,8,2.3,11.8.6,1.8,3.5,1,2.9-.8h0Z"/>
    <path class="st0" d="M652.4,577.7c-.4-2.3-.3-4.7.2-7,.2-.6.2-.9.8-.3.6.7.2,1.6-.1,2.3-1,1.8-2.2,3.5-3,5.4-.8,2-1.4,4.2-1.8,6.3-.8,4.6-1.3,9.2-1.9,13.8-.7,5-1.4,9.9-2.2,14.9-1.5,9.8-3.2,19.6-5,29.4-.9,4.9-1.9,9.8-2.9,14.8-.8,4.2-2.2,8.5-2.2,12.7s1.4,7.1,4.9,8.5,8.8,1.9,12.1-.4c3.1-2.2,4-6.4,1.2-9.2-2.6-2.7-6.7-2.7-9.8-.8-3.7,2.3-5.5,6.2-7.6,9.9s-4.9,6.3-8.3,8.5-6.9,3.7-10.5,5.2c-4.5,1.9-9,3.7-13.6,5.4-18.1,7-36.6,13.2-55.2,18.6-2.3.7-4.6,1.3-6.9,2-1.9.5-1.1,3.4.8,2.9,18.3-5.1,36.5-10.9,54.3-17.5,8.6-3.2,17.2-6.4,25.6-10.2,3.6-1.6,7-3.4,10.1-5.8s5.4-5.6,7.4-9.2c1.7-3.2,4.1-7.7,8.3-8,1.5,0,3.2.7,3.9,2,.8,1.5-.1,3.2-1.5,4-1.8,1.2-4.2,1-6.3.7-1.8-.3-3.8-.7-4.9-2.3-2-2.8-.9-7.1-.2-10.1,4-19.1,7.5-38.4,10.3-57.7.7-4.8,1.4-9.7,2-14.5.5-4.3,1-8.7,2.7-12.8,1.3-3.1,5.4-6.9,2.8-10.3-.9-1.2-2.5-2-4-1.5-1.9.6-2.2,2.8-2.5,4.5-.3,2.3-.3,4.5.1,6.8.3,1.9,3.2,1.1,2.9-.8h0Z"/>
    <path class="st0" d="M540.8,717.5c-7,1.3-13.8,3.5-20.2,6.6-3.2,1.5-6.3,3.3-9.3,5.2s-5.8,4.3-8.7,6.5c-6,4.5-13.5,6.5-20.5,8.8-7.4,2.5-14.9,4.8-22.3,7.3-8.2,2.8-16.4,5.9-24.3,9.5-1.8.8-.2,3.4,1.5,2.6,14.1-6.5,29-11,43.6-15.8,3.7-1.2,7.4-2.5,11.1-3.8,3.4-1.2,6.8-2.4,9.9-4.3s5.8-4.4,8.7-6.5c2.8-2,5.7-3.8,8.7-5.4,7.1-3.8,14.7-6.4,22.6-7.9,1.9-.3,1.1-3.2-.8-2.9h0Z"/>
    <path class="st0" d="M412.5,772.3c-19.1,4.2-36.4,15.1-56,17.3-1.2.1-2.5.2-3.7.3-.4,0,0,.1,0,.2.4-.1.5-.2.9-.3.7,0,1.4,0,2.1,0,3.2,0,6.4.2,9.6.3,1.9,0,1.9-3,0-3-3.3,0-6.6-.2-9.9-.3-2.3,0-5.5,0-5.8,3s3,3.1,5.2,2.9c2.7-.2,5.4-.7,8-1.2,11.1-2.3,21.5-6.8,32-10.8,6-2.2,12-4.3,18.2-5.6,1.9-.4,1.1-3.3-.8-2.9h0Z"/>
    <path class="st0" d="M356,793.4c-1,4.2,1.5,8.4,5.1,10.5,4.1,2.4,9.2,2.6,13.9,2.8,10.2.6,20.4-.4,30.3-2.7,5.6-1.3,11.1-3.2,16.5-5.4.8-.3,1.3-1,1-1.8-.2-.7-1.1-1.4-1.9-1-8.6,3.6-17.6,6.1-26.9,7.3-4.5.6-9.1.9-13.7.9s-9.1,0-13.5-1c-4-.9-9.2-3.8-8-8.7.4-1.9-2.5-2.7-2.9-.8h0Z"/>
    <path class="st0" d="M432.2,770.9c0,1.9-1.2,3.5-2.2,5-1.2,1.8-2.3,3.5-3.2,5.4-1.9,3.7-3.5,7.6-4.5,11.6-.9,3.3-2,7.7,1,10.2,2,1.7,6.9,2.2,6.4,5.6-.3,1.7-2.1,2.6-3.7,2-1.7-.7-1.9-2.9-.9-4.3,1.1-1.6-1.5-3.1-2.6-1.5-2.5,3.4-.4,8.4,3.8,8.9s7.5-3.6,6-7.6c-.7-1.9-2.3-3-4.1-3.8-1.7-.8-3.7-1.3-4-3.5s.7-4.7,1.3-6.8c.7-2.4,1.6-4.8,2.6-7,1.2-2.5,2.5-4.9,4.1-7.3,1.5-2.2,2.9-4.4,2.9-7.1,0-1.9-2.9-1.9-3,0h0Z"/>
    <path class="st0" d="M497.4,787.7c-7.7,2.1-15.1,5.6-21.6,10.2-3.2,2.3-6.3,4.9-9,7.7-3.1,3.1-5.7,6.6-8.5,10-5.7,6.7-13.3,11.1-21,15.2-1.9,1-3.8,1.9-6,1.7-2-.2-3.8-1.2-5.5-2.2-.9-.6-1.8-1.2-2.6-1.9-.7-.5-1.6-1.1-2-1.9-.8-1.7,1.3-4.2,2.3-5.4,2.5-2.8,6.8-4.6,10.1-2,4,3,.7,7.9-2.3,10.2-1.5,1.2,0,3.8,1.5,2.6,3.4-2.6,6.7-6.8,5.3-11.3-1.1-3.7-5.2-6-9-5.7-4.4.3-8,3.5-10.1,7.2-1.1,2-1.7,4.5-.2,6.5,1.3,1.7,3.5,3.1,5.2,4.3,1.9,1.3,4.1,2.3,6.4,2.6s4.6-.3,6.8-1.4c4.5-2.1,8.9-4.8,12.9-7.6s7.9-6.3,11.1-10.2,6.1-7.5,9.7-10.8c7.6-7,17-12.2,27-14.9,1.9-.5,1.1-3.4-.8-2.9h0Z"/>
    <path class="st0" d="M432.1,811.7c6.4-6,12.8-12,19.3-17.9,3-2.7,6.1-5.3,9.6-7.4s7.2-4,10.9-5.9c4.4-2.2,8.9-4.5,13.3-6.7,1.7-.9.2-3.5-1.5-2.6-7.7,3.9-15.6,7.5-23,11.9s-13.3,10.4-19.5,16.1l-11.2,10.4c-1.4,1.3.7,3.4,2.1,2.1h0Z"/>
    <path class="st0" d="M531.4,799.9c-7.9,1.2-14.5,6.4-20,11.9-6,5.9-11.5,12.2-19.1,16.3-3.6,2-7.5,3.4-11.4,4.4s-8.3,1.7-11.8-.6c-7.4-4.8,1.4-15.3,8.3-12.7,3.4,1.3,5.4,5.8,2.2,8.3-1.5,1.2-3.1,1.1-4.7,0-2.2-1.4-4.3-2.9-6.4-4.4-1.6-1.1-3.1,1.5-1.5,2.6,2.2,1.5,4.4,3.1,6.6,4.5,1.8,1.1,3.8,1.4,5.8.7,3.7-1.4,5.8-5.4,4.5-9.2-1.4-4-5.6-6.5-9.8-6s-8.3,3.5-10,7.5c-1.8,4.2-.4,8.6,3.4,11.1,4.1,2.8,9.3,2.1,13.8,1.1,9.6-2.2,17.9-7.3,24.9-14.1,7.6-7.4,14.9-16.8,26-18.5,1.9-.3,1.1-3.2-.8-2.9h0Z"/>
    <path class="st0" d="M472.6,819.3c3.1-.7,5.5-2.9,7.4-5.3,2-2.6,3.9-5.3,5.6-8,3.5-5.4,7-11,12-15.1,1.5-1.2-.6-3.3-2.1-2.1-4.8,3.9-8.3,9.2-11.6,14.3-1.7,2.6-3.3,5.2-5.2,7.7s-3.9,5-7,5.7c-1.9.4-1.1,3.3.8,2.9h0Z"/>
    <path class="st0" d="M531.1,802.6c-.9,5.1-.9,10.9,2,15.3,1.6,2.5,4.1,3.8,6.3,5.7s4.1,4.1,6.5,5.9c4.3,3.2,11.2,3.9,14-1.6,1.1-2.2,1.9-5.5,1.2-8s-2.7-3.7-5.1-4.1c-2-.4-6.6-.9-7.1,2-.3,1.7,1.1,2.7,2.4,3.4,1.7.9,3.4,1.8,5.2,2.7s3.2-1.7,1.5-2.6c-1.1-.6-2.2-1.1-3.2-1.7-.6-.3-1.1-.6-1.7-.9-.2-.1-.4-.2-.6-.3-.2,0-.3-.2-.4-.3-.3-.3-.3,0-.2.6.1,0,.9,0,1,0,.4,0,.8,0,1.2,0,.9,0,1.8.1,2.6.4,1.9.8,1.9,2.7,1.6,4.5-.3,1.9-1,4.1-2.8,5.1-3.8,2.1-8-1.4-10.5-3.9-1.6-1.6-3.2-3.1-5-4.5-1.7-1.2-3.3-2.4-4.4-4.2-2.2-3.7-2.2-8.4-1.5-12.6.3-1.9-2.5-2.7-2.9-.8h0Z"/>
    <path class="st0" d="M558.1,813.9c-1.4-2-.8-4.3,0-6.5.8-2.5,1.8-4.9,2.5-7.5s1-5.4,1.2-8.2c.1-2.2.1-4.5-.6-6.7-.6-1.9-1.8-3.7-3.7-4.6-2.1-1-4.5.3-4.6,2.8s2,4.2,4,5c2.3,1,4.9,1.2,7.4,1.6,6.7,1,13.4,2,20.1,3,1.9.3,2.7-2.6.8-2.9-4.9-.7-9.8-1.5-14.7-2.2-2.5-.4-5.1-.8-7.6-1.2-1.9-.3-4-.5-5.7-1.6-.3-.2-1.7-1.3-1.3-1.8.4-.4,1.4.8,1.7,1.1,1,1.3,1.2,3.1,1.2,4.7.2,4.6-.7,9.3-2.2,13.6-1.3,4-3.8,8.8-1,12.7,1.1,1.6,3.7,0,2.6-1.5h0Z"/>
    <path class="st0" d="M584.8,408c-6.2,9.2-6,20.8-4.3,31.3,2,12.3,6.3,24.8,3.2,37.3-1.5,5.9-4.3,11.2-7.4,16.4s-6.6,10.4-10,15.5c-7.1,10.5-14.7,20.8-22.7,30.6-7.5,9.3-16.2,18.1-21.7,28.8-5.1,9.8-7.3,20.9-7.5,31.9-.1,11.3,1.9,22.6,5.1,33.5s7.4,21.9,13.7,31.4c5.9,9,14,16.3,23.6,21.3,9.3,4.9,19.6,7.6,30,8.8,2.6.3,5.2.5,7.8.6,1.9,0,1.9-2.9,0-3-20.4-.8-41.7-7.8-55-24-7.2-8.8-11.8-19.7-15.4-30.4-3.6-10.6-6.1-21.6-6.6-32.7-.5-10.9.8-22,5.1-32,4.7-10.8,12.8-19.5,20.2-28.5,7.8-9.5,15.3-19.4,22.4-29.5,3.5-5,6.8-10,10.1-15.1s6.4-10.1,8.8-15.5,3.6-11,3.7-16.8c0-6.3-1.1-12.5-2.3-18.6-2.2-10.7-4.8-22.1-1.4-32.8.8-2.5,1.9-4.8,3.4-6.9,1.1-1.6-1.5-3.1-2.6-1.5h0Z"/>
    <path class="st0" d="M587.2,691.3c4-11-4.1-21-10.8-28.8-3.6-4.2-7-8.6-9.1-13.7-2-4.8-3-10-3.2-15.1-.9-21.8,12.3-40.7,28.1-54.5,7.5-6.5,16-12.7,20.4-21.8s3.1-19.9,4.8-29.9c.4-2.4,1-4.8,2-7s2.5-4.2,4-6.2c2.8-3.7,5.1-8.5,1.7-12.6-1.2-1.4-3-2.6-4.9-2.4s-3.6,1.6-4,3.5c-.8,4.2,3.4,7.9,7.3,7.5,5.1-.5,9-5,12.6-8.2,3.9-3.5,7.7-7.2,11.4-11,7.2-7.4,13.8-15.6,18-25.1,1-2.3,2-4.7,2.7-7.1.6-1.9-2.3-2.6-2.9-.8-2.9,9.3-8.3,17.6-14.6,25s-13.7,14.3-21.1,20.8c-2.6,2.2-8,5.8-10.2,1.1-.5-1.1-.3-2.9,1.3-2.8s2.9,2.1,3.2,3.5c.4,2.1-1.1,4.2-2.2,5.9-1.4,1.9-2.9,3.7-4,5.8-2.3,4.2-3.2,8.9-3.6,13.5-.9,9.4-.2,19.2-5.4,27.6-5,8.1-13.1,13.7-20,19.9-14.6,13.2-26.7,30.7-27.5,51-.4,9.8,2,19.9,7.5,28.1,5.7,8.3,15.1,15.2,16.5,25.9.3,2.5,0,4.9-.8,7.2-.7,1.8,2.2,2.6,2.9.8h0Z"/>
    <path class="st0" d="M304.3,681.9c-1.8,12.7,3,25.3,11.4,34.9,8.8,10,21.4,15.9,34.3,18.6,6.6,1.4,13.5,2.1,20.3,2.1,3.7,0,7.4-.2,11.1-.8,3.9-.6,7.6-2,11.3-3.2,14.5-4.7,28.8,2.3,42.4,6.7,16.5,5.3,33.8,5.7,50.9,5.8,1.9,0,1.9-3,0-3-15-.2-30.2-.3-44.9-4.2-13.4-3.6-26.7-10.9-41-9.9-7.3.5-13.9,4.1-21.1,5s-14.1.6-21-.3c-12.9-1.6-26-6-35.9-14.7-10.1-8.9-17-22.6-15.1-36.4.1-.8-.2-1.6-1-1.8-.7-.2-1.7.2-1.9,1h0Z"/>
    <path class="st0" d="M293.7,722.3c-3.3-4.3-3.1-10.2-1.7-15.1,1.6-5.6,4.6-10.8,7.2-15.9,5.1-10.3,10.5-20.5,15.5-30.9s9.8-20.9,13.9-31.6c4.1-10.8,7.2-21.8,9.5-33.2.7-3.1,1.3-6.3,2.7-9.2.5-.9,1.4-2.6,2.6-2.7s1,1.3.8,2.1c-.3,1.2-1,2.3-1.7,3.4-.9,1.5-1.8,2.9-2.7,4.4-1.9,3-3.8,6.1-5.7,9.1-1,1.6,1.6,3.2,2.6,1.5,1.8-2.9,3.6-5.8,5.5-8.7,1.6-2.5,3.6-5.1,4.7-7.9.8-2,1-4.8-1.1-6.1-2.2-1.5-4.7-.2-6.2,1.7-1.9,2.3-2.7,5.5-3.4,8.3-.8,3.1-1.3,6.2-2,9.3-1.4,6-3,12-5,17.8-7.9,24-19.8,46.2-31.1,68.7-3.1,6.2-6.7,12.4-8.7,19.1-1.9,6.2-1.7,13,2.4,18.2.5.7,1.6.5,2.1,0,.6-.6.5-1.5,0-2.1h0Z"/>
    <path class="st0" d="M387.4,427.9c-15.6.6-31.2,1.2-46.8,1.8-7.2.3-14.5.3-21.5,2.2-6,1.6-11.3,4.8-16.1,8.7s-9,8.8-13,13.8c-4.2,5.3-8.2,10.8-12.1,16.4-7.8,11.3-14.8,23-21.3,35.1-13,24.2-23.7,49.6-33.7,75.1-10.5,27-19.9,54.5-32,80.9-5.8,12.8-12.8,24.9-19.3,37.3-6.2,11.7-11.7,24.1-13.3,37.4-.4,3.2-.5,6.4-.4,9.7,0,1.9,3.1,1.9,3,0-.6-13.3,3.7-26,9.4-37.9s13-24,19-36.2c12.6-25.7,22-52.8,32.2-79.5,9.7-25.3,19.9-50.5,32.1-74.7,6.1-12.1,12.7-23.9,19.9-35.3s14.6-22.1,23.3-32c4.1-4.6,8.7-9,14.1-12.1,6.1-3.5,12.8-4.9,19.7-5.4,15-1,30.1-1.2,45.1-1.8l11.4-.5c1.9,0,1.9-3.1,0-3h0Z"/>
    <path class="st0" d="M215,707.3c-4.7-1.6-9.7-1-14.4.3-4.5,1.3-9,3.3-13.2,5.4s-7.9,4.5-11,7.9c-3.4,3.7-6,8.2-8.7,12.4-3.2,5-6.2,10.2-9.1,15.4l2.4-.3c-.5-.5-.8-1.3-.4-2,.8-1.8-1.8-3.3-2.6-1.5-.9,2-.6,4,.9,5.6.7.7,1.9.5,2.4-.3,2.4-4.4,4.9-8.7,7.6-12.9s5.1-8.4,8-12.2c5.3-6.9,14-10.8,22.1-13.7,4.9-1.8,10.3-2.9,15.4-1.2,1.8.6,2.6-2.3.8-2.9h0Z"/>
    <path class="st0" d="M240.4,706.9c-6.4,1.8-12.8-2.8-19.3-1.2-6.8,1.7-9.5,9.5-12.8,14.8-2.1,3.3-4.4,6.5-7.3,9.2-2.5,2.5-5.4,4.6-7.8,7.3s-3.9,6-4.6,9.6c-.8,3.9-1.2,7.9-2.1,11.7s-2.1,7.7-3.6,11.5-3.3,7.3-4.9,11c-2.7,6.5-4.5,14-1.9,20.9s8.7,10,15.3,12.1c7.9,2.5,15.9,4.7,24,6.5s16.8,2.9,25.3,2.6c6.8-.3,15.9-1.1,18.7-8.5.6-1.5.7-3.2.3-4.8-.4-1.9-3.3-1.1-2.9.8.7,3.3-1.9,6.2-4.7,7.5-3.2,1.5-7,1.8-10.5,2-8,.5-16-.5-23.8-2.1-7.8-1.6-15.4-3.8-23.1-6-6-1.8-12.6-3.8-15.4-10s-1.2-13.3,1.2-19.3c1.4-3.4,3-6.7,4.4-10s2.8-7.1,3.8-10.8,1.6-7.1,2.1-10.8,1.1-7.1,3.2-10.1c1.8-2.6,4.4-4.7,6.7-6.8,2.7-2.4,5.1-5,7.2-7.8,2.3-3.1,4.2-6.5,6.1-9.9,1.6-2.9,3.5-6.1,6.8-7.3s6.6-.2,9.8.5c3.4.7,6.9,1.4,10.4.4,1.9-.5,1.1-3.4-.8-2.9h0Z"/>
    <path class="st0" d="M209.7,794.8c8.5,4.5,17.4,8.2,26.6,11,4.7,1.4,9.4,2.7,14.2,3.6s9.7,1.6,14.5.8,8.9-3.8,9.1-8.8c0-1.9-2.9-1.9-3,0-.2,4-4.6,5.7-8,6-4.5.3-9-.4-13.4-1.3-8.5-1.8-16.8-4.4-24.9-7.7-4.6-1.9-9.1-4-13.6-6.3-1.7-.9-3.2,1.7-1.5,2.6h0Z"/>
    <path class="st0" d="M215.5,765.4c5.8,4.8,12.2,8.2,18.9,11.4,3.4,1.6,6.8,3.2,10,5s6.2,4.2,9.2,6.5c6.2,4.9,12.3,9.9,18.5,14.7,2.6,2,5.4,3.8,8.8,3.9s6.2-1.8,7.8-4.8c3.3-5.8,5.1-14.1,1-20-1.1-1.6-3.7,0-2.6,1.5,3.4,4.8,1.9,11.4-.6,16.2-1.4,2.8-3.5,4.5-6.8,3.8s-5.7-3-8.1-5c-5.7-4.5-11.3-9-17-13.5-2.7-2.1-5.4-4.2-8.3-5.9s-6.1-3.2-9.1-4.7c-6.9-3.2-13.6-6.6-19.5-11.5-1.5-1.2-3.6.9-2.1,2.1h0Z"/>
    <path class="st0" d="M229.3,739.2c8.8,4,17.1,8.8,25.3,13.9,4.1,2.5,8.3,4.9,12.1,7.8s6.5,6.6,9.5,10.2c3.7,4.4,7.4,8.8,11,13.2,1.2,1.5,3.4-.7,2.1-2.1-3.2-3.9-6.5-7.8-9.8-11.7-3.1-3.7-6-7.6-9.7-10.8s-7.8-5.4-11.8-7.9-8.3-5.1-12.5-7.5c-4.8-2.8-9.8-5.3-14.8-7.6-1.8-.8-3.3,1.8-1.5,2.6h0Z"/>
    <path class="st0" d="M269.5,727c3.1.2,5.5,2.2,7.4,4.5,2.3,2.6,4.1,5.6,6.1,8.4,4.6,6.5,9.1,13,13.7,19.6,2.3,3.3,4.6,6.5,6.9,9.8,2,2.8,4.3,5.7,5.2,9,.7,2.5.5,5.7-1.6,7.6-1.2,1.1-3,1.3-4.5,1.3-1.8,0-3.3.2-4.2-1.6-.9-1.9-1.4-4.2-1.4-6.3,0-1.5,0-3.1.9-4.4,2.3-3.4,7,1.4,8.2,3.6.9,1.7,3.5.2,2.6-1.5-1.8-3.2-5.5-6.5-9.4-6.1s-5.2,4.4-5.3,7.7c0,2.2.4,4.5,1.1,6.6.6,1.9,1.5,3.8,3.5,4.6s4.3.6,6.3.3c1.9-.3,3.6-1,4.9-2.4,2.4-2.6,3-6.4,2.1-9.8-1.1-4.3-4-7.9-6.5-11.4-5.6-8-11.2-16.1-16.9-24.1-2.9-4.1-5.6-8.5-8.8-12.3-2.6-3.2-5.9-5.8-10.1-6-1.9-.1-1.9,2.9,0,3h0Z"/>
    <path class="st0" d="M268.5,726.2c8.1-1.3,16.3-.4,24.3,1.3s15.7,4.2,23.2,7c2.6,1,5.6,2.3,7.1,4.7,2,3.1.7,6.8-1.1,9.6-1.9,3-4.6,5.5-6.5,8.5-.9,1.5-1.5,3.1-2,4.7s-1,3.4-2.3,4.6c-3.7,3.4-5.8-3.6-6.3-6.1-.1-.5-.3-1.1-.2-1.6,0-.5.2-.6.7-.8.9-.4,1.9-.7,2.9-.7,1.8,0,3.5.8,4,2.7s3.3,1.1,2.9-.8c-1-4.4-5.9-5.6-9.7-4.4-1.9.6-3.7,1.6-3.7,3.8s.8,4.7,1.7,6.8c.8,1.7,1.8,3.5,3.5,4.4s3.8.7,5.4-.4c3.8-2.5,3.7-7.5,6-11.1s5.8-6.5,7.6-10.6c1.7-3.8,1.8-8-1-11.3-2.4-2.9-6.1-4.3-9.6-5.5-4.7-1.6-9.5-3.2-14.3-4.5-10.8-3.1-22.1-5-33.3-3.2-1.9.3-1.1,3.2.8,2.9h0Z"/>
    <path class="st0" d="M293.3,794.1c1.3,2.8,2.7,5.5,4.3,8.2.7,1.2,1.3,2.4,2.3,3.4,1,1.1,2.3,1.2,3.7,1.5s2.3,1.6,3.2,2.7c1.1,1.2,2.1,2.5,3.2,3.7,2.2,2.5,4.4,5,6.6,7.5,1.1,1.2,2.7-.1,2.5-1.5-1-6.1-2.7-12-5-17.7-.3-.7-.6-1.4-.6-2.1,0-.8.3-1.4.5-2.1.4-1.2.4-2.5,0-3.7-.9-2.7-3.3-4.3-4.5-6.9-.8-1.8-3.4-.2-2.6,1.5,1.1,2.3,3.6,4,4.3,6.5.3,1.4-.6,2.5-.7,3.8-.1,1.5.4,2.8.9,4.1,2.2,5.6,3.9,11.4,4.8,17.3l2.5-1.5c-2.1-2.5-4.3-4.9-6.5-7.4-1-1.2-2-2.3-3.1-3.5-.9-1.1-1.8-2.2-3-3-.5-.3-1.1-.6-1.6-.7-.7-.2-1.5,0-2.1-.4-1.1-.5-1.7-2.2-2.3-3.2-1.6-2.7-3-5.4-4.3-8.2-.8-1.8-3.4-.2-2.6,1.5h0Z"/>
    <path class="st0" d="M197,816.9c-22.9,4.7-45.9,8.6-69,12s-45.9,6.5-68.9,9.5c-13.1,1.8-26.2,3.5-39.4,5.3-.8.1-1.2,1.1-1,1.8.2.9,1,1.2,1.9,1,23.2-3.1,46.5-6.2,69.7-9.4,23-3.1,45.9-6.4,68.8-10.2,13-2.2,25.9-4.6,38.8-7.2,1.9-.4,1.1-3.3-.8-2.9h0Z"/>
    <path class="st0" d="M19.8,848.6c41.6,7.1,83.4,13.1,125.4,18,40.1,4.6,80.8,6.7,120.3,14.9,10.7,2.2,21.2,4.9,31.6,8.3,5.2,1.7,10.5,3.5,15.5,5.7,2.2,1,4.8,2.3,5.3,4.9.2,1,0,2.5-1,3-.8.3-2.3,0-2.4-1l-.7,1.3c7-4.3,15.1-5.6,23.2-6.4,9-.9,18.1-1.4,27.1-1.8,18.2-.7,36.4-.5,54.5.6,10.3.6,20.5,1.6,30.7,2.8,1.9.2,1.9-2.8,0-3-37-4.4-74.5-5.1-111.6-1.6-8.8.8-17.8,2.1-25.4,6.9-.4.3-.8.8-.7,1.3.2,3.2,3.7,4.9,6.6,3.7,3.2-1.4,3.5-5.7,2-8.5-2.1-3.9-7.1-5.3-11-6.8-5-1.9-10.1-3.7-15.3-5.3-20.2-6.3-41.2-10-62.1-12.8-21.7-2.9-43.6-4.7-65.4-7-22.9-2.4-45.8-5.2-68.6-8.3-25.8-3.5-51.4-7.5-77-11.9-1.9-.3-2.7,2.6-.8,2.9h0Z"/>
    <path class="st0" d="M449.7,898.8c29,4.2,57.7,10.5,86.1,18,14.3,3.8,28.5,7.7,42.8,11.6s27.6,7.3,41.2,11.3c14.5,4.3,28.8,9.4,41.8,17.2,1.7,1,3.2-1.6,1.5-2.6-11.6-6.9-24.2-11.8-37.1-15.9s-27.2-7.7-40.8-11.4c-28.6-7.7-57.1-16-86-22.3-16.1-3.5-32.4-6.5-48.7-8.8-1.9-.3-2.7,2.6-.8,2.9h0Z"/>
    <path class="st0" d="M662.8,957.5c18.4-5,36.8-10,55.2-15,18.3-5,36.6-10,54.9-14.9,18.4-5,36.8-10,55.2-15s36.8-10,55.2-15c9-2.5,18.1-4.9,27.1-7.4,8.4-2.3,16.8-4.9,24.9-8.3,2-.8,4-1.8,6-2.7,1.7-.8.2-3.4-1.5-2.6-16.2,7.9-34.1,11.8-51.4,16.5-18.3,5-36.6,10-54.9,14.9s-36.6,10-54.9,14.9-36.6,10-54.9,14.9c-18.2,5-36.5,9.9-54.7,14.9-2.3.6-4.7,1.3-7,1.9-1.9.5-1.1,3.4.8,2.9h0Z"/>
    <path class="st0" d="M940.5,876.1c-16.1-6.2-32.4-11.9-48.9-17-16.5-5.2-33.1-9.8-49.9-13.8s-33.7-7.6-50.6-10.6c-17-3-34-5.4-51.1-7.3s-34.3-3.3-51.6-4.1c-2.2,0-4.4-.2-6.5-.3-1.9,0-1.9,2.9,0,3,17.2.7,34.3,1.8,51.4,3.6s34.3,4.1,51.4,7,33.8,6.3,50.5,10.2c16.7,3.9,33.3,8.4,49.7,13.4,16.5,5,32.8,10.6,49,16.6,2,.7,3.9,1.5,5.9,2.2,1.8.7,2.6-2.2.8-2.9h0Z"/>
    <path class="st0" d="M684.2,823.2c-10-.8-20.2.8-29.5,4.8-3.7,1.6-8.8,3.9-8.2,8.8.2,1.8,1.5,3.4,3.3,3.8,1.6.3,3.4-.4,4.2-1.8,2.4-4.3-5-7.3-7.8-8.5-4.5-1.8-9.2-2.8-14-3.2-5.5-.5-11-.5-16.4-.6s-10.8-.7-16.2-1.4c-11.9-1.7-23.8-4.1-35.9-3.8-1.9,0-1.9,3.1,0,3,9.3-.3,18.6,1.1,27.8,2.5,9.2,1.4,18.3,2.5,27.6,2.7,8.8.2,17.8.2,26,3.5,1.9.8,3.8,1.7,5.4,2.9.3.2,1.2,1,1,1.4-.2.4-.9.4-1.2.3-1.5-.6-.5-2.9.2-3.7,1.3-1.4,3.3-2.2,5-2.9,9-4,19-5.5,28.8-4.7,1.9.2,1.9-2.8,0-3h0Z"/>
    <path class="st0" d="M354.8,800c-12.6,1.3-25.1,3.2-37.5,5.5-1.9.4-1.1,3.2.8,2.9,12.1-2.3,24.4-4.1,36.7-5.4,1.9-.2,1.9-3.2,0-3h0Z"/>
    <path class="st0" d="M304.6,807.6c-14.8,3.8-29.8,6.4-45,7.7-1.9.2-1.9,3.2,0,3,15.5-1.3,30.8-3.9,45.8-7.8,1.9-.5,1.1-3.4-.8-2.9h0Z"/>
    <path class="st0" d="M387.8,885.7c29.2-7.2,59.4-8.9,88.7-15.8,14.7-3.5,29.1-8.1,44-10.8s29.7-3.6,44.2-7.5c15.3-4.2,30.3-10.5,46.4-11,1.9,0,1.9-3.1,0-3-14.3.4-27.9,5.4-41.5,9.5-7.1,2.1-14.2,3.8-21.5,5-7.5,1.2-15.1,2.1-22.6,3.2-15,2.3-29.5,6.6-44.2,10.4s-29.4,6.1-44.3,8.3c-16.8,2.5-33.6,4.8-50.1,8.8-1.9.5-1.1,3.3.8,2.9h0Z"/>
    <path class="st0" d="M9.9,774.5c19-2.1,38-4.6,57-6.2,9.4-.8,18.9-1.1,28.4-1.7s19.1-1.4,28.7-1.9c10.7-.6,21.5-.8,32.2,0,1.9.1,1.9-2.9,0-3-19.1-1.3-38.2.4-57.2,1.7-9.4.7-18.9,1-28.4,1.7s-19.1,1.8-28.7,2.9c-10.7,1.2-21.4,2.4-32.1,3.6-1.9.2-1.9,3.2,0,3h0Z"/>
    <path class="st0" d="M710.8,763.6c37.6,2.7,75.3,5.5,112.9,8.2s75.3,5.5,112.9,8.2c21.1,1.5,42.2,3.1,63.4,4.6,1.9.1,1.9-2.9,0-3-37.6-2.7-75.3-5.5-112.9-8.2s-75.3-5.5-112.9-8.2c-21.1-1.5-42.2-3.1-63.4-4.6-1.9-.1-1.9,2.9,0,3h0Z"/>
    <path class="st0" d="M289.1,448c-33,0-66,.2-99.1.3-16.3,0-32.6-.1-48.9.7-7.9.4-15.8,1.1-23.7,2.2-6.3.9-13.2,2.2-16.3,8.5-1.4,2.8-1.9,6-2.2,9.1-.4,3.8-.6,7.6-.8,11.4-.6,8.1-1.1,16.2-1.6,24.2-1,16.4-1.9,32.8-2.3,49.2s-.4,32.8.4,49.1,2.5,32.4,4.4,48.6c.9,8.1,1.8,16.3,2,24.4s-.3,15.7-1.1,23.5c-1.6,15.5-4.2,31.1-2.7,46.7.4,3.8,1,7.5,1.8,11.1.4,1.9,3.3,1.1,2.9-.8-3.6-15.1-2-30.8-.3-46,.9-7.6,1.8-15.2,2.2-22.9s0-15.8-.6-23.7c-1.4-16-3.8-31.9-5-48-1.1-16-1.5-32.1-1.4-48.2.2-32.2,2.4-64.4,4.8-96.5.2-3.1.5-6.3,1.7-9.2s3.6-5,6.7-6.1c3.2-1.1,6.7-1.5,10.1-1.9,4-.5,8-.9,11.9-1.2,16-1.3,32.1-1.2,48.1-1.2,32.3,0,64.6-.2,96.9-.3,4,0,8,0,11.9,0,1.9,0,1.9-3,0-3h0Z"/>
  </g>
</svg>