<?xml version="1.0" encoding="UTF-8"?>
<svg id="Camada_6" xmlns="http://www.w3.org/2000/svg" version="1.1" viewBox="0 0 1107.7 558">
  <!-- Generator: Adobe Illustrator 29.6.1, SVG Export Plug-In . SVG Version: 2.1.1 Build 9)  -->
  <defs>
    <style>
      .st0 {
        isolation: isolate;
        opacity: .5;
      }

      .st0, .st1 {
        fill: #00708c;
      }
    </style>
  </defs>
  <path class="st0" d="M573.6,557.9v-84.8c0-147.4,119.6-267,267-267h0c147.4,0,267,119.7,267,267v84.8h-534.1Z"/>
  <g>
    <path class="st1" d="M488.1,25.9c-9,12.5-9.4,29.1-7.7,43.9.4,3.7,1,7.4,1.7,11.1.8,3.9,2,7.8,2.4,11.8s-.6,7.8-4,10.3c-2.6,1.9-5.7,2.9-8.4,4.6-1.3.8-2.5,1.8-3.4,3-1.1,1.4-1.4,3.2-1.7,4.9-.5,3.8,0,7.5.8,11.2,1.8,7.7,5.6,15.3,5.2,23.4,0,1.6,0,3.3-1.3,4.4-1.1.9-2.7,1.3-4.1,1.4-4.1.4-8.3-.6-12.2-2.1-3.4-1.3-7.3-3.1-9.5-6.2-.7-1.1-1.2-2.3-.8-3.6.8-2.6,3.4-2.7,5.6-3.4,1.3-.4,2.4-1.1,3-2.3.4-.9-.9-1.6-1.3-.8-.8,1.5-2.6,1.7-4.1,2.1-1.3.4-2.6.8-3.5,1.9-1,1.2-1.5,2.6-1.3,4.2.5,3.5,4.1,5.9,6.9,7.4,3.9,2.1,8.2,3.5,12.6,4.1,3.1.4,7.4.6,9.9-1.9,1.2-1.3,1.3-2.8,1.4-4.4.3-4.1-.5-8.1-1.6-12-2.1-7.8-6-16-4.3-24.3.4-1.9,1.2-3.4,2.7-4.6,1.3-1.1,2.9-1.9,4.4-2.6,2.9-1.4,6-2.8,8-5.4,2.3-3.1,2.5-7.2,2-10.9-.5-4-1.8-7.9-2.5-11.9-2.8-15.4-4.3-33.2,3.1-47.6.9-1.7,1.9-3.3,3-4.8.6-.8-.7-1.5-1.3-.8h0Z"/>
    <path class="st1" d="M463.8,152.4c1.9-16.3-4.6-32.9-.2-49,.3-.9-1.2-1.3-1.5-.4-4.5,16.3,2,32.9.2,49.4-.1,1,1.4.9,1.5,0h0Z"/>
    <path class="st1" d="M463.2,102.4c-1.1-1.2-2.6-1.7-4.2-2-1.8-.3-3.6-.6-5.4-.8-3.5-.4-7.1-.2-10.6.5-7.2,1.5-13.8,5.2-19.6,9.6-.8.6,0,1.9.8,1.3,5.4-4.1,11.4-7.6,18.1-9.2,3.3-.8,6.7-1.1,10.1-.8,1.7.1,3.3.5,5,.7,1.8.2,3.5.5,4.8,1.8.7.7,1.7-.4,1.1-1.1h0Z"/>
    <path class="st1" d="M423.7,111.1c3,.4,5.9-.6,8.7-1.6,3.1-1.1,6.1-2,9.4-2.3,6.1-.6,12.3-.3,18.1-2.5.9-.3.5-1.8-.4-1.4-5.8,2.2-12.1,1.8-18.2,2.5-2.9.3-5.7,1-8.5,2-3,1.1-5.9,2.3-9.1,1.9-1-.1-1,1.4,0,1.5h0Z"/>
    <path class="st1" d="M451.8,105.6c-1,2.9-1.3,6-2.6,8.8-.3.7-.7,1.5-1.3,2.1-.7.6-1.6.8-2.5,1.1-1.6.6-3.3,1-4.9,1.3-6.7,1.2-13.6.8-20.4,1-1,0-1,1.5,0,1.5,7.4-.2,14.8.3,22.1-1.3,1.8-.4,3.6-.9,5.3-1.7.6-.3,1.3-.5,1.7-1,.5-.6.9-1.4,1.3-2.1,1.4-3,1.8-6.3,2.8-9.4.3-.9-1.1-1.3-1.5-.4h0Z"/>
    <path class="st1" d="M420.5,121.1c7.1-8.2,19.3-8.4,29.2-7.3,1,0,1-1.4,0-1.5-10.4-1.1-22.9-.8-30.3,7.7-.6.7.4,1.8,1.1,1.1h0Z"/>
    <path class="st1" d="M404.3,63.8c2.1,3.5,4.2,6.9,5.8,10.7,1,2.3,1.7,4.9,1.1,7.4-.6,2.8-2.6,5.2-4.4,7.3-1.4,1.5-2.8,3-4.3,4.4-.8.8-1.6,1.5-2.2,2.5s-1.1,2.1-1.6,3.2c-3.6,8.3-4.3,17.7-3.1,26.7.6,4.5,1.6,9,3.1,13.2,1.1,3,2,5.9,2.7,9,1.1,5.1,2,11.2,6.2,14.8,2.4,2,5.3,2.9,8.4,3.2,1,.1,2,.2,3.1.2.9,0,1.5-.5,2.1-1.1,1.2-1,2.1-2.2,2.9-3.6,1.6-2.9,2.2-6.2,3.2-9.3.5-1.7,1.2-3.4,2.1-4.9,1-1.7,2.3-2.8,3.8-4s2.5-3.7,2.5-5.6c0-1.6-.7-3-1.9-4.1-2.6-2.5-6.4-3.6-9.6-5.3-2.9-1.5-5.8-3.6-4.4-7.1.4-1.1,1.1-2.1,1.9-3.1.6-.8-.5-1.8-1.1-1.1-2.3,2.9-4,6.7-1.1,9.8,2.4,2.6,6.2,3.7,9.3,5.3,2.6,1.3,6.1,3.2,5.2,6.6-.3,1-.8,2-1.4,2.8-.4.6-1,.9-1.6,1.4-.7.6-1.4,1.3-1.9,2-2,2.6-3,5.8-3.9,8.9s-1.7,6.5-3.9,9c-.5.5-1.1,1.2-1.8,1.5-.8.4-2.1,0-2.9,0-1.7-.2-3.5-.5-5.1-1.2-5.4-2.3-6.9-8-8-13.3-.6-2.9-1.2-5.9-2.2-8.7-1.3-3.9-2.7-7.8-3.5-11.9-1.8-9-1.7-18.6,1.4-27.3.4-1.1.8-2.1,1.2-3.1.5-1.1,1-2.4,1.8-3.3,1.5-1.6,3.2-3.1,4.7-4.7,2-2.2,4.1-4.5,5.2-7.3,2.2-5.3-.5-10.6-3.1-15.2-1.1-2-2.2-3.9-3.4-5.8-.5-.8-1.8,0-1.3.8h0Z"/>
    <path class="st1" d="M378.6,111.9c7.2,15.4,0,32.1,0,48.1,0,7,1.9,14,4,20.6s4.7,13,8,19,7.2,11.4,12.1,16c2.4,2.3,5,4.3,7.7,6.1,3.3,2.1,6.6,4.2,10.1,5.9,6.8,3.3,14.8,5.3,22,2,4.8-2.2,9-6.2,12.2-10.3,6.1-7.9,10.8-20.3,2.5-28.5-1-1-2.2-1.9-3.4-2.7-.8-.5-1.6.8-.8,1.3,4.6,2.9,7.3,7.4,7.1,12.9s-2.5,10.3-5.5,14.5-7,8.2-11.6,10.8c-6.8,3.8-14.8,2.1-21.5-1.1-3.5-1.6-6.6-3.7-9.9-5.7-2.7-1.7-5.3-3.6-7.6-5.8-4.7-4.4-8.6-9.7-11.8-15.3s-5.9-12-8-18.4-4.1-13-4.3-19.6c-.5-15.1,5.9-30.3,1.7-45.2-.5-1.8-1.2-3.6-2-5.3-.4-.9-1.7-.1-1.3.8h0Z"/>
    <path class="st1" d="M425.4,173.2c.4,5.2,1.2,10.6,3.5,15.3,1.8,3.7,5,6.7,9.5,5.9,3.2-.6,6-2.8,8.4-5,.7-.7-.4-1.7-1.1-1.1-3,2.8-7.8,6.4-11.9,3.8-3.4-2.2-4.8-6.9-5.7-10.6-.6-2.7-1-5.5-1.2-8.3,0-1-1.6-1-1.5,0h0Z"/>
    <path class="st1" d="M446.8,189.4c0,0,.3-.2.1,0,.1,0,.2,0,.3-.1.1,0,.2,0,.4,0,0,0,.1,0,.2,0,.1,0,0,0,0,0,.6,0,1.3,0,2,0s1.3,0,2,.1c.2,0,.3,0,.5,0,.1,0,0,0,0,0s.1,0,.2,0c.2,0,.5,0,.7.1.4,0,.8-.1.9-.5.1-.4-.1-.8-.5-.9-1.3-.3-2.6-.4-3.9-.4-.7,0-1.5,0-2.2.1-.5,0-1.1.2-1.6.5-.8.5,0,1.8.8,1.3h0Z"/>
    <path class="st1" d="M426.9,173c-.3-1.7-.6-3.4-.6-5.2s.6-3.2,1.5-4.6c.5-.8-.8-1.6-1.3-.8-1,1.6-1.6,3.3-1.7,5.2s.3,3.9.6,5.8c.2.9,1.6.6,1.5-.4h0Z"/>
    <path class="st1" d="M426.5,163.1c1.6,5.5,6,9.9,10.8,12.8s10.7,4.8,16.2,3.3c3-.8,5.4-2.7,7.2-5.2.5-.8-.8-1.5-1.3-.8-6.7,9.7-20.6,3.5-27-3.2-2-2.1-3.6-4.5-4.4-7.3-.3-.9-1.7-.5-1.5.4h0Z"/>
    <path class="st1" d="M427.7,163.4c2.3-1.9,5.3-2.2,8.2-2.1,3.3,0,6.5.7,9.8,1.4s6.2,1.3,9.4,1.3c2.3,0,4.9-.3,6.6-1.9,2.5-2.4,2.5-6.4,2.1-9.5-.1-.9-1.6-1-1.5,0,.3,2.7.6,6.3-1.6,8.4-1.7,1.6-4.4,1.7-6.6,1.5-6.3-.4-12.3-2.6-18.6-2.6-3.1,0-6.3.6-8.8,2.6-.7.6.3,1.7,1.1,1.1h0Z"/>
    <path class="st1" d="M481.3,61.4c-2.3-7-6.8-12.7-13.3-16.1-6-3.1-12.8-4.2-19.5-4.9-6.1-.6-12.4-1.5-18.6-.5s-12.9,3.3-18.2,7-9.4,9.9-7.4,16.8c.3.9,1.7.5,1.5-.4-3.6-13,13.2-19.8,23.1-21.7,2.6-.5,5.4-.9,8-.7,3,.2,6.1.5,9.1.8,6.4.6,12.9,1.3,18.8,3.8,7.4,3,12.6,8.8,15.2,16.4.3.9,1.8.5,1.5-.4h0Z"/>
    <path class="st1" d="M488.6,25.6c-2.1.5-4.3.9-6.5.7-2.1-.2-4-1.1-5.7-2.1-2.8-1.6-5.5-3.3-8.2-5-2-1.2-4.1-2.2-6.2-3.2-8.2-3.9-16.8-7.1-25.5-9.6-9.3-2.7-18.9-4.7-28.5-5.6s-18.8-.9-28,.7c-8.4,1.5-16.8,4.4-23.8,9.4s-12.6,12.3-16,20.5c-.9,2.3-1.7,4.7-2.4,7.1-.7,2.7-1.1,5.5-1.7,8.2-1.6,6.7-2.4,13.5-2.4,20.3,0,12.3,2.4,24.4,5.8,36.1,3.1,10.7,7,21.1,9.6,31.9,2.3,9.7,3.2,19.8.3,29.5-.8,2.5-1.7,4.8-2.9,7.1-.4.9.9,1.6,1.3.8,4.6-9,5.7-18.8,4.4-28.7-1.4-10.5-4.9-20.6-8.1-30.6-3.6-11.3-7-22.8-8.3-34.6-.7-6.4-.8-12.9-.2-19.3.3-3.5.9-7,1.6-10.5.6-2.9,1.1-5.8,1.8-8.7,2.2-9,6.5-17.5,13.3-24,6.2-5.9,14-9.7,22.3-11.8,8.9-2.3,18.2-2.9,27.4-2.4,9.7.5,19.3,2.1,28.7,4.5,9,2.3,17.8,5.3,26.3,9,1.9.8,3.9,1.7,5.7,2.7,2.5,1.2,4.9,2.6,7.3,4.1,3.9,2.4,8,5.5,12.7,5.8,2.1.1,4.3-.3,6.4-.8.9-.2.5-1.7-.4-1.5h0Z"/>
    <path class="st1" d="M379.9,111.1c-1.6-3.8-3.7-7.4-6.7-10.3-2.7-2.7-5.9-4.8-9.2-6.7-2.9-1.7-7.4-1.7-10.5-.5-2.9,1-5.2,3.2-6.5,6-1.5,3.4-1.4,7.2-.5,10.8,1,4.1,1.6,8.4,2.7,12.5s2.4,8.2,4.5,11.9c1.9,3.3,4.6,6.6,8.2,8,2.9,1.1,6.8,1.9,9.6.1,3.4-2,3.2-6.4,2.5-9.7-.2-.9-1.6-.5-1.5.4.6,2.7.9,6.6-2,8.1-2.3,1.3-5.4.7-7.7-.2-3.5-1.2-6-4.4-7.9-7.5s-3.1-6.9-4.1-10.5-1.7-7.3-2.4-11-1.7-6.9-.8-10.5c1.6-6.5,8.4-8.8,14.4-7,1.8.5,3.6,2,5.2,3s3,2.2,4.4,3.5c3.1,2.9,5.2,6.6,6.9,10.5.4.9,1.7.1,1.3-.8h0Z"/>
    <path class="st1" d="M477.1,142.6c1.2-3.4,1.3-6.9.9-10.4-.2-1.7-.5-3.4-.7-5.1-.3-1.9-.7-4.2-.4-6.1.7-3.5,2.2-6.9,3.6-10.2s2.9-6.8,4.2-10.3c.3-.9-1.1-1.3-1.5-.4-2.5,6.9-6,13.4-7.8,20.6-.4,1.6,0,3.4.1,5.1.2,1.8.5,3.5.7,5.2.5,3.8.7,7.6-.7,11.3-.3.9,1.1,1.3,1.5.4h0Z"/>
    <path class="st1" d="M460.2,194.9c7.7-17.6,15.5-35.7,17.3-55,0-1-1.4-.9-1.5,0-1.8,19-9.5,36.9-17.1,54.3-.4.9.9,1.6,1.3.8h0Z"/>
    <path class="st1" d="M461.5,189c1.6,5.1,2.8,10.3,4.4,15.3.4,1.2.8,2.3,1.2,3.5.4,1,.7,2.4,1.5,3.1,1,1.1,2.5.8,3.6,0,1.4-1,2.4-2.5,3.2-3.9,1.4-2.2,2.6-4.4,4.1-6.6,3-4.5,6.4-8.9,9.4-13.4,1.5-2.2,2.5-4.3,2-7s-2.1-5.1-3.2-7.6c-.4-.9-1.8-.5-1.5.4,1.6,3.9,4.9,8,2.2,12.1s-5.5,7.8-8.2,11.8c-1.4,2-2.8,4-4.1,6.1-1,1.6-1.8,3.2-2.9,4.8-.5.8-2.2,3.3-3.4,2.6-.8-.4-1.2-2.3-1.5-3.1-.4-1.1-.8-2.2-1.2-3.3-1.6-5-2.8-10.1-4.4-15.1-.3-.9-1.7-.5-1.5.4h0Z"/>
    <path class="st1" d="M489.9,150.1c-1.9,1.3-4,2.3-4.7,4.6-.9,3.1-1.8,6.1-2.9,9.1-.7,2.1-1.8,4.4-.9,6.6.6,1.4,1.9,2.3,3.3,2.8,2.7.9,7.1.4,8.7-2.3.5-.8.6-2.1.8-3s.5-2,.9-2.9c.4-1,.9-2.1,1.7-2.8.9-.8,2.1-1.2,3.2-1.7,2-1,3.9-2.1,5.7-3.4.8-.6,0-1.9-.8-1.3-2.5,1.8-5.1,2.9-7.7,4.4-2,1-3,2.7-3.7,4.7-.3.8-.5,1.6-.7,2.3-.2,1-.3,2.4-.9,3.2-.9,1.1-2.6,1.5-3.9,1.7-1.4.1-3,0-4.1-.9-1.6-1.1-1.5-2.8-1-4.4.9-3,2.2-5.9,3-9,.4-1.4.5-2.9,1.5-4,.9-.9,2.1-1.5,3.1-2.2.8-.5,0-1.8-.8-1.3h0Z"/>
    <path class="st1" d="M490.2,151.3c5.3-1.4,9.8-4.8,15-6.6.9-.3.5-1.8-.4-1.4-5.1,1.9-9.7,5.2-15,6.6-.9.2-.5,1.7.4,1.4h0Z"/>
    <path class="st1" d="M504.8,145.1c1.9.8,3.4,2.4,4.6,4,1.3,1.7,2.5,3.5,3.9,5.2,1.6,2,3.8,3.5,5.6,5.3,2,1.9,3.8,3.9,5.5,6,.6.8,1.7-.3,1.1-1.1-1.8-2.2-3.7-4.3-5.8-6.2-1.9-1.8-4-3.4-5.7-5.4-2.6-3.3-4.7-7.6-8.8-9.2-.9-.4-1.3,1.1-.4,1.4h0Z"/>
    <path class="st1" d="M537.8,179.8c-2.4-4.5-1.1-12.4-6.6-14.8-1.5-.6-3.1-.3-4.7-.4-2-.1-4-.4-6-.7-3.7-.6-7.5-1.3-11.3-.7-1.7.3-3.3.8-4.6,2-1.5,1.4-2.8,2.8-4,4.4-2.4,3.2-4.3,6.8-5.5,10.6-.6,2-1.1,4.1-1.4,6.1-.2,1.6-.6,3.4.2,4.9,1.2,2.2,4,1.8,6,1,2.3-1,5.5-3,6.5-5.5.8-2,1.3-3.9,2.8-5.5s3.3-2.3,5.4-2.6c1-.1.5-1.6-.4-1.4-3,.4-5.5,1.9-7.2,4.5-.9,1.3-1.4,2.7-1.9,4.2-.4,1.1-1.2,1.9-2.1,2.7-1.6,1.4-4.3,3.3-6.5,2.9-1.5-.3-1.5-1.8-1.4-3,.2-1.9.5-3.8.9-5.6.9-3.7,2.4-7.2,4.5-10.4,1-1.6,2.2-3.1,3.6-4.5s2.5-2.5,4.3-3c3.4-.9,7.1-.2,10.4.3s6.7,1.1,10.2,1,4.6,3.3,5.2,5.9c.7,2.9,1,5.9,2.3,8.5.5.9,1.8.1,1.3-.8h0Z"/>
    <path class="st1" d="M491.7,149.5c-2.5-1.9-5.3-1.5-8.1-.4-2.6,1.1-5.2,2.6-8,1.5-.9-.3-1.3,1.1-.4,1.4,2.8,1.1,5.4,0,8-1.1,1.2-.5,2.5-1.1,3.8-1.2,1.5-.2,2.8.3,4,1.1.8.6,1.5-.7.8-1.3h0Z"/>
    <path class="st1" d="M478.3,140.6c3.6-4.4,9-4.3,14.2-3.6,1.2.2,2.5.4,3.7.5,1.3.2,2.1.4,3,1.5,1.4,1.8,2,4.1,3.4,5.9.6.8,1.6-.3,1.1-1.1-1.6-2.1-2.1-4.9-4.1-6.7-.9-.9-1.8-1-3-1.1-1.4-.2-2.8-.4-4.2-.6-5.5-.7-11.3-.5-15.1,4.1-.6.7.4,1.8,1.1,1.1h0Z"/>
    <path class="st1" d="M474,209.4c5.7,4.9,12.2,8.7,18.6,12.6,6,3.6,12,7.6,16.4,13.2,2.9,3.6,4.9,7.8,6.3,12.2.3.9,1.7.5,1.5-.4-2.4-7.5-6.6-13.9-12.6-18.9-5.6-4.7-12.1-8.1-18.3-11.9-3.8-2.4-7.5-4.9-10.9-7.9-.7-.6-1.8.4-1.1,1.1h0Z"/>
    <path class="st1" d="M553.7,232.1c-2.8-6-7.8-11.3-8.8-18.1-.3-1.8,0-3.5.2-5.2.3-2,.3-4,.2-6-.3-3.9-1.2-7.6-2.5-11.3-1.5-4.2-3.3-8.2-5.2-12.2-.4-.9-1.7-.1-1.3.8,3.3,7.2,6.9,14.7,7.5,22.7.2,2,.1,4.1-.2,6.1-.3,1.7-.4,3.3-.2,5,.4,3.2,1.7,6.2,3.3,8.9,1.9,3.4,4.1,6.6,5.8,10.1.4.9,1.7.1,1.3-.8h0Z"/>
    <path class="st1" d="M514.2,249.1c4-.2,7.8-1.2,11.5-2.6s7.3-3.4,11-4.9c7.2-3,14.7-5.4,21.3-9.7.8-.5,0-1.8-.8-1.3-6.5,4.2-13.9,6.6-21,9.5-3.6,1.5-7,3.4-10.6,4.8s-7.6,2.5-11.6,2.7c-1,0-1,1.6,0,1.5h0Z"/>
    <path class="st1" d="M550.5,226.2c11.3,2.7,13,17.7,10.7,27.2-.2.9,1.2,1.3,1.5.4,2.5-10.2.4-26.1-11.8-29-.9-.2-1.3,1.2-.4,1.4h0Z"/>
    <path class="st1" d="M562.7,245.3c-13.9,5.8-27.1,14.2-42.1,16.6l.7.2c-2.8-3.5-6-6.8-6.1-11.5,0-1-1.5-1-1.5,0,.1,5.2,3.5,8.7,6.5,12.6.2.2.5.2.7.2,15-2.5,28.2-10.9,42.1-16.6.9-.4.5-1.8-.4-1.4h0Z"/>
    <path class="st1" d="M516.8,263.2c6.9,1.3,13.9,1,20.9.2,3.4-.4,6.8-1.1,10.3-1.5,2.9-.4,5.8,0,8.4-1.8.8-.5,0-1.9-.8-1.3-2.5,1.7-5.4,1.2-8.3,1.6-3.4.5-6.7,1.1-10.1,1.5-6.7.8-13.4,1-20-.2-.9-.2-1.3,1.3-.4,1.5h0Z"/>
    <path class="st1" d="M515.8,262.9c4.9,11.9,9.7,24,14.2,36,1.2,3.1,2.3,6.1,3.4,9.2.5,1.5,1.1,2.9,1.6,4.4.6,1.6,1.3,3.2,1.7,4.8.3,1.4.4,2.9.6,4.3.3,1.7.6,3.3.9,5,.6,3.1,1.3,6.1,2,9.2,1.7,7,3.6,14,5.5,21,.2.9,1.7.5,1.5-.4-3.2-12.2-6.8-24.5-8.7-37-.2-1.7-.6-3.1-1.2-4.7s-1.1-3.1-1.7-4.6c-1.1-3.1-2.2-6.1-3.4-9.2-2.2-6-4.5-12-6.8-17.9-2.7-6.8-5.4-13.6-8.2-20.4-.4-.9-1.8-.5-1.5.4h0Z"/>
    <path class="st1" d="M562.3,250.1c1.6,3.1,2.9,6.5,4.3,9.7,3,7,6,14.1,8.9,21.2,3.7,9,7.4,18.1,11,27.1s7.1,18,10.5,27.1c2.6,7.1,5.2,14.3,7.4,21.6.2.7.4,1.4.6,2,.3.9,1.7.5,1.5-.4-1.9-7-4.4-13.8-6.9-20.6-3.3-9-6.8-18-10.3-26.9s-7.3-18.3-11.1-27.4c-3.1-7.4-6.2-14.9-9.3-22.3-1.6-3.8-3.1-7.8-5-11.5,0-.1-.1-.3-.2-.4-.5-.9-1.7-.1-1.3.8h0Z"/>
    <path class="st1" d="M559.7,264.9c1.7,2.7,2.4,5.9,3.4,8.9.7,2.1,1.5,5.3,3.8,6.2,1.7.7,3.8-.2,4.4-2.1.7-2.1-1-3.6-2.7-4.5-1-.5-2.3-1.1-3.3-.4-.9.6-1,1.7-.9,2.6.2,3.1,1.7,6.1,2.7,9,1.6,4.5,2.9,9.2,4.3,13.8,2,6.8,3.9,13.6,5.3,20.6.4,1.8.7,3.5.9,5.3.1,1,.3,1.9.9,2.7.8,1.1,2.2,1.9,3.5,1.5,1.6-.6,1.9-2.8,1.5-4.2-.5-1.5-2.3-2.7-3.7-3.2-2.2-.7-3.5.8-3.3,2.9.3,3.1,1.3,6.1,2.5,9,2.7,6.3,6.6,12.1,8.2,18.9.2.9,1.7.5,1.5-.4-2.1-9.3-8.9-16.9-10.5-26.3,0-.6-.6-2.3.2-2.7.6-.3,1.6.3,2,.6,1.2.7,2.5,2.3,1.5,3.7-.7,1.1-2.1-.3-2.4-1-.4-.8-.4-1.7-.5-2.6-.2-1.5-.5-3-.8-4.5-1.1-5.6-2.6-11.1-4.2-16.6-1.4-4.9-3.2-9.7-4.4-14.7-.6-2.4-1.6-4.6-2.4-6.9-.4-1.2-.8-2.4-1.1-3.7-.1-.6-.5-1.8-.1-2.4s1.7.2,2.2.5c1,.5,2,1.2,1.7,2.5-.2,1-1.2,1.5-2.2,1.3-1.4-.3-1.9-2.1-2.4-3.2-.5-1.2-.9-2.5-1.3-3.8-.8-2.6-1.6-5.2-3-7.5-.5-.8-1.8,0-1.3.8h0Z"/>
    <path class="st1" d="M605.2,359.5c3,8.4,5.6,17,7.1,25.9,1.1,6,1.7,12.3.9,18.4-.6,4.1-1.9,8.2-4.6,11.4-2.4,2.8-5.6,4.5-9.2,5.4-9.4,2.3-19.8-.6-28.8-3.6-6.1-2.1-12-4.6-17.8-7.3-3.1-1.5-6.2-3-9.2-4.6-1.6-.8-3.2-1.7-4.8-2.6s-3.4-1.7-4.9-2.8c-18.1-13.2-35.7-27.1-54.5-39.4-2.3-1.5-4.6-3-7-4.5-.8-.5-1.6.8-.8,1.3,19.5,12.1,37.7,26.2,56.1,39.9,2.2,1.6,4.3,3.5,6.7,4.8,1.6.9,3.2,1.8,4.8,2.6,3.2,1.7,6.3,3.3,9.6,4.9,6,2.9,12.2,5.7,18.5,8,9.5,3.5,20.2,6.6,30.3,5,3.8-.6,7.5-2,10.4-4.6,3.1-2.7,4.9-6.5,5.9-10.4,1.4-5.5,1.2-11.3.6-16.8-1-8.2-3-16.3-5.5-24.2-.8-2.5-1.6-4.9-2.4-7.3-.3-.9-1.8-.5-1.5.4h0Z"/>
    <path class="st1" d="M525.4,282.1c-9.1-9.2-16-20.1-23.5-30.6-7-9.9-14.7-19.5-25.1-25.9-6.5-4-13.6-6.6-21.1-7.9-.9-.2-1.4,1.3-.4,1.4,6.7,1.2,13.1,3.4,19,6.7,5.3,3,10,6.9,14.2,11.3,8.5,8.9,15,19.5,22.2,29.4,4.2,5.8,8.6,11.5,13.7,16.6.7.7,1.7-.4,1.1-1.1h0Z"/>
    <path class="st1" d="M484.7,232.4c1.6,16.1,1.7,32.4.6,48.5s-3.4,33.6-7.3,50c-2,8.6-4.5,17.2-7.5,25.5-.3.9,1.1,1.3,1.5.4,5.6-15.3,9.3-31.2,11.7-47.3s3.9-33.4,3.8-50.2c0-9-.4-18-1.3-26.9,0-.9-1.6-1-1.5,0h0Z"/>
    <path class="st1" d="M482.1,297.1c-17.6,1.8-35.4,2.6-53.1,2.5-1,0-1,1.5,0,1.5,17.7,0,35.5-.8,53.1-2.5,1,0,1-1.6,0-1.5h0Z"/>
    <path class="st1" d="M465.4,439.1c.5-5.4,1.1-10.8,2.1-16.2.5-2.5,1-5.1,1.7-7.6s1.7-5,2.4-7.5c1.4-5.1.7-10.6.7-15.8l-.2-16.9c0-6.3-.1-12.6-.2-18.9,0-1-1.5-1-1.5,0,.1,11.2.2,22.4.4,33.6v8.2c.1,2.8.3,5.6-.3,8.4-.5,2.5-1.6,5-2.3,7.5s-1.4,5.1-1.9,7.8c-1.1,5.8-1.7,11.6-2.3,17.5-.1,1,1.4,1,1.5,0h0Z"/>
    <path class="st1" d="M426.7,318.7c17,2.1,34.5,3,51.3-1.4.9-.2.5-1.7-.4-1.5-16.6,4.4-34,3.4-50.9,1.4-1-.1-1,1.4,0,1.5h0Z"/>
    <path class="st1" d="M449.6,222.7c-3.1,6.2-8,11.1-14.8,13.1-4.9,1.4-9.9,1.2-14.9,1.4-1.8,0-3.8.2-5.4,1.1-.2.1-.4.4-.4.6.8,11.7-9.4,19-15.7,27.4-1.6,2.1-3,4.3-4,6.7-.7,1.6-.9,3.1-1,4.9-.2,2-.4,4.1-.5,6.2-.6,8.4-.4,16.9.1,25.4,1.1,16.8,3.8,33.5,5.5,50.2.9,8.4,1.5,16.8,1.6,25.2,0,3.3,0,6.5.7,9.8.6,2.8,1.7,5.5,2.9,8.2,4.7,10.4,13.4,20.8,12.1,32.8-.2,1.5-.5,3-1,4.4h1.5c-.2-.8-.3-1.6-.5-2.4-.2-1-1.6-.5-1.5.4.2.8.3,1.6.5,2.4s1.2.7,1.5,0c3.8-11.8-3-22.6-8.4-32.6-2.8-5.3-5.5-10.9-6.2-17-.4-3.9-.1-7.8-.2-11.7-.1-4.2-.4-8.4-.8-12.6-1.4-16.9-4.2-33.6-5.6-50.5-.7-8.4-1.2-16.9-1-25.4.1-4.2.4-8.4.8-12.6.2-1.9.5-3.5,1.2-5.2.5-1.2,1.2-2.3,1.9-3.4,5.6-8.8,16-15.4,17.5-26.4.2-1.4.2-2.8.1-4.2l-.4.6c1.4-.8,3.2-.9,4.7-.9,2.4-.1,4.7,0,7.1-.2,5.7-.3,11.4-1.7,16.1-5.2,3.4-2.6,5.9-6.1,7.8-9.8.4-.9-.9-1.6-1.3-.8h0Z"/>
    <path class="st1" d="M398.5,265c-3.2-10.2-4.9-20.8-5.1-31.5,0-2,0-4.1-.8-5.9-.8-1.7-2.8-2.3-4.4-3.1-3.2-1.7-6.4-3.5-9.6-5.3-11.6-6.9-22.8-15.8-28.2-28.6-3.4-8-4.2-16.8-3.7-25.4,0-1-1.4-1-1.5,0-.5,7.7.1,15.5,2.6,22.9,2.1,6.2,5.6,11.9,10.1,16.8s10,9.2,15.7,12.9c3,2,6.2,3.8,9.4,5.6,1.7.9,3.4,1.8,5,2.7.8.4,1.7.8,2.4,1.3,1,.7,1.2,2.2,1.4,3.4.2,2.8.1,5.6.3,8.4s.5,5.8.9,8.7c.9,5.9,2.2,11.8,4,17.5.3.9,1.7.5,1.5-.4h0Z"/>
    <path class="st1" d="M345.2,165.1c-3.9,1.8-5.8,5.7-9,8.4-3,2.4-5.2,5.4-5.5,9.3-.1,2.1.6,4.2,1.1,6.2.6,2.4,1.4,4.7,2.2,7,1.6,4.3,3.5,8.6,5.9,12.5,1.2,2,2.5,3.9,3.9,5.8.7,1,1.9,1.7,2.8,2.4,2.4,1.8,4.8,3.5,7.2,5.2,6,4,12.1,7.8,18.6,10.9,3.3,1.6,6.6,3.1,10.1,4.1,2.6.8,5.5,1.4,8.2,1.1,1-.1,1-1.6,0-1.5-5.2.6-10.7-1.8-15.3-3.9-6.2-2.8-12.1-6.2-17.8-9.9-2.5-1.6-5-3.4-7.5-5.1-1.1-.8-2.1-1.6-3.1-2.4-1.2-1-2.2-1.9-3.1-3.2-5.2-7.3-8.7-15.7-10.9-24.3-.6-2.4-1.2-4.7-.5-7.1.6-2.1,2-3.9,3.6-5.4s3.1-2.9,4.5-4.5c1.5-1.7,3.1-3.4,5.2-4.4.9-.4.1-1.7-.8-1.3h0Z"/>
    <path class="st1" d="M333.8,175.6c-1.1-.6-3,0-4.2.2-2.8.5-5.6,1.2-8.4,2-8.5,2.2-16.9,4.8-25.2,7.5-8.9,2.9-17.7,5.9-26.4,9.3-3.4,1.3-6.8,2.7-10,4.3-2,1-4.2,2-5.9,3.5-.6.6-1.1,1.3-1.6,1.9-1.1,1.6-2.2,3.1-3.3,4.8-2.1,3.3-4,6.8-5.8,10.3-3.4,7-6.3,14.3-9.2,21.5-.7,1.8-1.4,3.6-2.2,5.4-.4.9,1.1,1.3,1.4.4,5.8-14.2,11-29,20.1-41.5,1.5-2.1,3.2-3.1,5.5-4.3,2.9-1.5,5.9-2.8,8.9-4,8.3-3.4,16.7-6.3,25.2-9.1s16.9-5.4,25.5-7.8c3.1-.9,6.2-1.7,9.4-2.4,1.7-.4,3.5-.9,5.2-.8.2,0,.2,0,.2,0,.9.5,1.6-.8.8-1.3h0Z"/>
    <path class="st1" d="M231.5,245.5c-11.5,24.1-18.5,50.1-23.6,76.2-5.1,26.4-8.4,53-12.7,79.5-2.1,12.7-5.2,25.5-5.4,38.4-.1,6,.5,12.1,2.6,17.8s5.4,10.3,9.8,14.1,9.4,6.4,14.8,8.2c1.3.5,2.6.9,3.9,1,1.9.2,3.8.4,5.6.6,3.7.5,7.4.9,11.1,1.5,14.6,2,29,4.5,43.5,7,28.6,4.9,57.3,9.9,86.4,11.3,3.6.2,7.2.3,10.8.4,1,0,1-1.5,0-1.5-28.9-.5-57.6-5-86-9.8-14.2-2.4-28.3-4.9-42.5-7.1-6.9-1.1-13.8-2.1-20.7-2.9-3.5-.4-7.1-.5-10.5-1.6-2.8-.9-5.5-2-8.1-3.4-5.1-2.7-9.6-6.4-12.9-11.1-3.5-5.1-5.3-11.2-5.9-17.3-1.2-12.6,1.7-25.3,3.8-37.6,4.5-26,7.7-52.2,12.3-78.2,4.7-26,10.8-51.9,21.2-76.2,1.2-2.9,2.6-5.8,3.9-8.6.4-.9-.9-1.6-1.3-.8h0Z"/>
    <path class="st1" d="M353.1,497.7c-2.6-5-4-10.5-3.5-16.2.5-5.2,2.7-10,5.7-14.2,6.4-9,16.5-15.3,26.9-18.6,5.6-1.8,11.5-2.7,17.4-2.3,1,0,1-1.4,0-1.5-11.2-.9-22.7,3-32,9-9.1,5.9-17.4,14.8-19.2,25.8-1,6.5.4,12.9,3.4,18.7.5.9,1.8.1,1.3-.8h0Z"/>
    <path class="st1" d="M293.5,327.8c-1,20.2-3.1,40.3-6.5,60.2-.8,4.8-1.7,9.6-2.7,14.4-.3,1.6-.1,3.2.7,4.6,1,1.6,2.5,2.4,4.1,3.3,7.9,4.9,16.3,8.7,25,11.8s17.5,5.7,26.4,8.2c8.7,2.5,17.3,5.2,25.9,7.9,16.1,4.9,32.5,9.5,49.4,10.7,17.4,1.2,34.7-2,50.5-9.4,2.2-1,4.4-2.1,6.5-3.3.9-.5,0-1.8-.8-1.3-15.6,8.4-32.7,13-50.5,12.7-16.5-.3-32.7-4.3-48.5-8.9-8.3-2.5-16.6-5.1-24.9-7.6s-17.3-4.9-25.8-7.7-17.3-6.1-25.4-10.4c-2-1-4-2.1-5.9-3.3-1.6-1-3.8-1.9-4.8-3.6-1.1-1.9-.3-3.9,0-5.9.5-2.4.9-4.8,1.3-7.2,3.4-19.1,5.7-38.5,6.9-57.9.1-2.4.3-4.9.4-7.3,0-1-1.5-1-1.5,0h0Z"/>
    <path class="st1" d="M472.7,436.3c3.8-.9,7.1.8,10.2,2.9,1.6,1.1,3.1,2.2,4.7,3.2,1.9,1.1,3.9,2.1,5.9,3,8.1,3.8,16.6,6.6,24.7,10.2.9.4,1.6-.9.8-1.3-8.5-3.8-17.5-6.7-25.9-10.8-2.1-1-4.2-2-6.1-3.3-1.5-1-3-2.1-4.5-3.1-3.1-2-6.4-3.1-10.1-2.2-.9.2-.5,1.7.4,1.5h0Z"/>
    <path class="st1" d="M517.7,455.4c3.7,1.4,6.8,3.7,9.6,6.4,2.7,2.5,5,5.4,7.7,7.9,3.1,2.9,6.2,5.9,8.7,9.3,1.4,1.9,5.3,7,2.6,9.3-.7.6-1.6.8-2.5,1-1.3.2-3,.4-4.3,0-2.8-.9-5.2-3.2-7.1-5.3-4.5-4.9-8.2-11-14.8-13.2-.9-.3-1.3,1.1-.4,1.5,6.4,2.2,10,8.5,14.5,13.2,2.1,2.2,4.6,4.4,7.5,5.4,1.3.5,3.1.3,4.4.1,1-.1,2.1-.4,3-.9,3.7-2.1,1.6-6.8,0-9.5-2.5-4-5.8-7.6-9.3-10.8-6.1-5.6-11-12.5-19-15.6-.9-.3-1.3,1.1-.4,1.5h0Z"/>
    <path class="st1" d="M479,453.7c7.4-1,14.8.2,20.9,4.6,5.7,4.1,9.9,10,13.7,15.8,2.4,3.6,4.6,7.2,7,10.8.5.8,1.8,0,1.3-.8-7.9-11.6-15.3-27.2-30-31.3-4.4-1.2-8.9-1.2-13.4-.6-1,.1-.5,1.6.4,1.5h0Z"/>
    <path class="st1" d="M521.1,483.9c-1.7-.2-3.4.1-4.7,1.3-1.2,1.1-1.8,2.7-2.1,4.3-.6,3.5.3,7.5,2.5,10.4,1.1,1.5,2.7,2.6,4.6,2.8,1,0,1-1.4,0-1.5-2.9-.3-4.5-3.5-5.2-6-.7-2.6-1-6.2.8-8.4,1-1.3,2.6-1.5,4.1-1.3,1,.1,1-1.4,0-1.5h0Z"/>
    <path class="st1" d="M522.2,486.8c2.8,3,6.4,8.3,3.8,12.5-1,1.6-2.8,2.6-4.7,3-1.1.3-2.3.4-3.4.4-1.5,0-3.4,0-4.5-.9-4.1-3.1-5.5-9-8.1-13.2-1.4-2.3-3.2-4-5.1-5.8-2.3-2.1-4.8-4.2-7.3-6-5.8-4.2-12.3-7.6-19.3-9.1-.9-.2-1.3,1.2-.4,1.5,6.9,1.5,13.2,4.8,18.9,9,2.9,2.1,5.6,4.5,8.3,6.9,2.2,2.1,3.8,4.3,5.1,7,1.3,2.5,2.3,5.2,3.9,7.5.6,1,1.4,1.9,2.2,2.7.4.4.9.8,1.4,1.2.7.5,1.5.5,2.3.6,4.2.6,9.5,0,12-3.9,3-4.9-.7-10.7-4-14.3-.7-.7-1.7.4-1.1,1.1h0Z"/>
    <path class="st1" d="M457.4,488.3c5.5,1.3,9.6,5.6,13.1,9.8,3.8,4.7,7,9.9,10.4,14.9.8,1.1,1.5,2.1,2.3,3.2.9,1.3,1.6,2.8,2.6,4,1.8,2.5,4,4.5,7.1,5,4.2.6,8.2-.8,9.5-5.1,1.5-4.7-.2-10.2-2.7-14.2-.2-.3-.5-.4-.9-.3-6.5,1.9-8.4,9.6-7.2,15.5.2,1,1.6.5,1.5-.4-1-5.1.4-12,6.1-13.7l-.9-.3c2.1,3.5,3.7,8.1,2.8,12.2-.4,1.7-1.3,3.4-2.9,4.2-1.9,1-4.5,1-6.6.3-3.1-.9-5-4.2-6.6-6.8-1.3-2.2-2.9-4.1-4.3-6.2-3.1-4.6-6.1-9.4-9.7-13.7s-7.9-8.5-13.4-9.8c-.9-.2-1.3,1.2-.4,1.5h0Z"/>
    <path class="st1" d="M496.9,502.1c-4.4-7.8-7.9-16.1-12.8-23.6-3.9-6-9.1-10.3-16-12.5-5.3-1.7-11-2.3-16.5-2.6-1,0-1,1.5,0,1.5,8.4.4,17.6,1.5,24.5,6.8,5.6,4.3,8.9,10.8,12,17,2.5,4.8,4.9,9.5,7.5,14.2.5.8,1.8,0,1.3-.8h0Z"/>
    <path class="st1" d="M436.3,481.8c5.9,2.1,12,4.4,16.9,8.5,1.2,1,2.3,2.1,3.3,3.3,1.1,1.3,1.8,2.8,2.7,4.2,1.8,2.9,4.4,5.3,6.8,7.6,2.6,2.4,5.3,4.7,7.8,7.2,2.1,2.1,4.2,4.2,4.4,7.3.2,3.6-3,4.8-6.1,4.6-3.9-.3-8.2-2.7-9.3-6.6-.3-.9-1.7-.5-1.5.4,1.2,3.9,4.9,6.5,8.7,7.4,3.1.7,7.5.5,9.1-2.8.9-1.9.5-4.1-.1-6-.6-1.6-1.8-2.8-2.9-4-1.3-1.4-2.8-2.8-4.2-4.1-2.9-2.7-5.9-5.2-8.6-8.2-1.4-1.5-2.5-3.1-3.5-4.9-.9-1.5-1.9-2.9-3-4.1-5.3-5.8-12.8-8.7-20-11.2-.9-.3-1.3,1.1-.4,1.5h0Z"/>
    <path class="st1" d="M462.6,518.2c.3-1.9.9-3.8,2.1-5.3s2.9-2.4,4.8-2.7c.4,0,.6-.6.5-.9-.1-.4-.5-.6-.9-.5-2.1.4-4.1,1.4-5.5,3.1s-2.2,3.8-2.5,6c0,.4.1.8.5.9.4,0,.9-.1.9-.5h0Z"/>
    <path class="st1" d="M434.6,504.6c10.8,4.6,17.3,15.2,27.2,21.2.8.5,1.6-.8.8-1.3-9.9-6-16.4-16.6-27.2-21.2-.9-.4-1.6.9-.8,1.3h0Z"/>
    <path class="st1" d="M470.2,530.2c2.5-.2,4.9-1.1,6.7-2.8s2.8-4.2,3.2-6.7c0-.4-.1-.8-.5-.9-.4,0-.9.1-.9.5-.3,2.2-1.1,4.3-2.7,5.9s-3.6,2.3-5.7,2.5c-1,0-1,1.6,0,1.5h0Z"/>
    <path class="st1" d="M434.2,503.5c-9.1,2.4-18.8,5.1-28,1.7-4.8-1.8-9.1-4.8-13-8-1.1-.9-2.1-2-3.5-2.2-1.6-.3-3.2-.6-4.8-.8-3.3-.5-6.7-.9-10-1.4-7.5-1.1-15.1-2.5-22-6-.9-.4-1.6.9-.8,1.3,6.2,3.1,12.9,4.6,19.7,5.7,3.3.5,6.7.9,10,1.4,1.6.2,3.2.5,4.8.7.9.1,1.7.3,2.6.5.9.2,1.5.8,2.2,1.4,4.1,3.3,8.4,6.4,13.3,8.4,3.9,1.6,8,2.3,12.1,2.1,6-.2,11.9-1.8,17.7-3.4.9-.2.5-1.7-.4-1.5h0Z"/>
    <path class="st1" d="M463.9,528.7c2,.8,4.2,1.7,6.4,1.4.4,0,.8-.3.8-.8s-.4-.8-.8-.8c-2.1.2-4.1-.6-6-1.3-.4-.2-.8.2-.9.5-.1.4.1.8.5.9h0Z"/>
    <path class="st1" d="M529.1,453.8c31.1-8.8,62.1-17.7,93.1-26.8,8.7-2.6,17.5-5.1,26.2-7.8.9-.3.5-1.7-.4-1.5-31,9.2-62,18.2-93,27.1-8.8,2.5-17.5,5-26.3,7.5-.9.3-.5,1.7.4,1.5h0Z"/>
    <path class="st1" d="M549.9,482.1c31.8,4.6,63.6,9.1,95.4,13.7,8.9,1.3,17.8,2.5,26.7,3.8.9.1,1.3-1.3.4-1.5-31.8-4.6-63.6-9.1-95.4-13.7-8.9-1.3-17.8-2.5-26.7-3.8-.9-.1-1.3,1.3-.4,1.5h0Z"/>
    <path class="st1" d="M550.2,489.8c16.1,3.5,32.3,6.7,48.6,9.6s32.5,5.6,48.9,8c9.2,1.4,18.3,2.6,27.5,3.8,1,.1,1-1.4,0-1.5-32.7-4.2-65.2-9.5-97.6-15.8-9-1.8-18-3.6-27-5.6-.9-.2-1.3,1.2-.4,1.5h0Z"/>
    <path class="st1" d="M671.2,499.9c2,3.6,3.3,7.5,4,11.5.2,1,1.6.5,1.5-.4-.7-4.2-2.1-8.2-4.1-11.9-.5-.8-1.8,0-1.3.8h0Z"/>
    <path class="st1" d="M677.7,505.2c1,3.3,1.8,6.6,2.5,9.9.2.9,1.6.5,1.5-.4-.7-3.3-1.5-6.6-2.5-9.9-.3-.9-1.7-.5-1.5.4h0Z"/>
    <path class="st1" d="M681.5,515c23.6-5.6,46.4-13.9,69-22.7,11.3-4.4,22.6-8.9,33.9-13.3,2.9-1.1,5.7-2.2,8.6-3.3,2.5-1,5-2.1,7.5-3.1,4.9-1.9,9.8-3.6,14.8-5.4,11.2-4,22.4-8.4,31.9-15.7.8-.6,0-1.9-.8-1.3-8.5,6.6-18.4,10.7-28.4,14.4-4.9,1.8-9.9,3.5-14.8,5.4-5.2,2-10.3,4.2-15.5,6.2-22.6,8.7-44.9,18-67.8,26-12.8,4.4-25.7,8.4-38.9,11.5-.9.2-.5,1.7.4,1.5h0Z"/>
    <path class="st1" d="M679.4,505.5c4.1-17.6,8.1-35.2,12.1-52.9s7.8-35.5,11.6-53.3,7.5-35.4,11-53.1c3.6-17.7,7.1-35.5,10.5-53.2,3.4-17.9,6.8-35.7,10.1-53.6.4-2.2.8-4.4,1.2-6.6.2-.9-1.3-1.4-1.5-.4-3.2,17.8-6.5,35.6-10,53.4s-6.9,35.7-10.5,53.5-7.2,35.5-11,53.1-7.6,35.4-11.5,53c-3.9,17.7-8,35.5-12.1,53.2l-1.5,6.6c-.2.9,1.2,1.3,1.5.4h0Z"/>
    <path class="st1" d="M733.9,234c20.2-1.1,40.4-2.5,60.6-3.8,20.1-1.3,40.2-2.6,60.3-3.4,11.3-.5,22.7-.8,34-.9,1,0,1-1.5,0-1.5-20.2.2-40.4,1.1-60.6,2.2s-40.2,2.5-60.3,3.8c-11.3.7-22.7,1.4-34,2.1-1,0-1,1.6,0,1.5h0Z"/>
    <path class="st1" d="M848.1,451c7.3-29,13.1-58.3,18-87.8s9.3-59,13.7-88.6c2.5-16.6,5-33.2,7.8-49.8.2-.9-1.3-1.4-1.5-.4-4.9,29.6-9.1,59.2-13.6,88.8-4.5,29.5-9.1,59-14.9,88.3-3.2,16.4-6.9,32.8-11,49-.2.9,1.2,1.3,1.5.4h0Z"/>
    <path class="st1" d="M649,419.5c14.7.1,29.2,2.5,43.8,4.2,1,.1,1-1.4,0-1.5-14.6-1.7-29.1-4.1-43.8-4.2-1,0-1,1.5,0,1.5h0Z"/>
    <path class="st1" d="M684.2,434.5c-17.9,5.7-35.7,11.8-53.6,17.6-9,2.9-18,5.8-27,8.5-8.5,2.6-17.2,4.4-25.9,6.5-9.5,2.3-19,4.9-28,8.8-.9.4-.1,1.7.8,1.3,16.3-7,33.8-9.3,50.7-14.2,18-5.2,35.7-11.3,53.4-17.2,10-3.3,19.9-6.6,29.9-9.8.9-.3.5-1.7-.4-1.5h0Z"/>
    <path class="st1" d="M573.6,446.4c14.5-.4,28.6,3.4,42.9,5.3.9.1,1.3-1.3.4-1.5-14.4-2-28.7-5.7-43.3-5.3-1,0-1,1.5,0,1.5h0Z"/>
    <path class="st1" d="M618,452.9c14.9-5.7,30.1-10.6,45.5-14.6.9-.2.5-1.7-.4-1.5-15.4,4-30.6,8.9-45.5,14.6-.9.3-.5,1.8.4,1.5h0Z"/>
    <path class="st1" d="M663.2,436.5c-14.5-1.8-29-3.5-43.5-4.9-1-.1-1,1.4,0,1.5,14.5,1.5,29,3.1,43.5,4.9,1,.1,1-1.4,0-1.5h0Z"/>
    <path class="st1" d="M619.6,431.8c-15.5,4.7-31.2,8.9-47,12.7-.9.2-.5,1.7.4,1.5,15.8-3.8,31.5-8,47-12.7.9-.3.5-1.7-.4-1.5h0Z"/>
    <path class="st1" d="M503.8,518.4c7.6.5,14.8,3.6,22.5,3.3,1.3,0,3.1.1,3.7-1.2.5-1.1.8-2.2,1-3.4.3-2.5,0-5.1-1.1-7.4-1.1-2.5-3.1-4.5-5.8-5.1-.9-.2-1.3,1.2-.4,1.5,2.9.7,4.7,3.2,5.5,5.9.4,1.4.6,2.9.5,4.4,0,.8-.3,3.2-1,3.6-.7.4-2.3.2-3.1.2s-2,0-2.9-.1c-2.2-.2-4.4-.6-6.6-1.1-4-.8-8-1.8-12.1-2.1-1,0-1,1.4,0,1.5h0Z"/>
    <path class="st1" d="M523.5,505.7c5.3,1.9,11.4,2.3,17,1.6,4.4-.5,10.7-2.2,11.5-7.4.5-3.5-1.4-6.8-3.4-9.5-.6-.8-1.9,0-1.3.8,1.7,2.3,3.5,5.1,3.2,8-.1,2-1.5,3.6-3.2,4.5-4.4,2.6-10.3,2.6-15.3,2.2-2.8-.2-5.6-.7-8.2-1.6-.9-.3-1.3,1.1-.4,1.5h0Z"/>
    <path class="st1" d="M538,496.2c4.1,1.1,7.6,3.8,9.8,7.4.5.8,1.8,0,1.3-.8-2.4-3.9-6.3-6.8-10.7-8-.9-.3-1.3,1.2-.4,1.5h0Z"/>
    <path class="st1" d="M528.2,522.3c5.9-.5,12.3-1.1,17.4-4.4,2.8-1.9,4.6-4.7,6.2-7.6,1.5-2.8,2.5-5.9,2.3-9.1-.3-3.9-2.4-7.4-4.7-10.6-.6-.8-1.9,0-1.3.8,2.4,3.3,4.7,7,4.5,11.2s-2.4,8.1-4.8,11.2c-4.4,5.7-13,6.4-19.6,6.9-1,0-1,1.6,0,1.5h0Z"/>
    <path class="st1" d="M348.3,140.9c-3.4-10.5-10.9-18.8-20.7-23.8s-20.3-6.9-31-7.4c-7.9-.3-15.8-1.2-23.6-1.9-8.3-.7-16.5-1.5-24.8-2.2-16.4-1.5-32.7-3.1-49.1-4.5-16.4-1.4-32.7-2.8-49.1-3.7-1.9-.1-3.8-.2-5.7-.3-.9,0-1.9-.3-2.7-.2-.6,0-1.2.4-1.8.7-2.2,1-4.2,2.1-6.2,3.5-3.5,2.5-6.5,5.6-8.8,9.2-4.8,7.5-6.7,16.4-7.4,25.2-.9,9.8-.4,19.7,0,29.6.4,9.3.9,18.6,0,27.9-.7,6.8-2.2,13.5-3.9,20.1-1.9,7.8-4.2,15.4-6.3,23.1-1,3.7-2,7.4-3,11.1-.2.9,1.2,1.3,1.4.4,3.8-15.2,8.8-30,11.7-45.4.9-4.9,1.6-9.8,1.8-14.8.2-4.6.1-9.2,0-13.8-.3-9.7-1-19.4-.8-29.1.2-9,1-18.3,4.3-26.8s9.1-14.8,17.1-18.5c.5-.3,1.1-.6,1.7-.8.9-.2,1.9,0,2.8,0,2.1.1,4.1.2,6.2.4,4,.2,7.9.5,11.9.8,8.1.6,16.2,1.2,24.3,1.9,32.1,2.7,64.1,6,96.3,8.7,12,1,24.2,1,35.7,4.8,10,3.3,19.3,9.3,24.7,18.6,1.4,2.4,2.6,5,3.5,7.7.3.9,1.8.5,1.5-.4h0Z"/>
    <path class="st1" d="M104.1,249.6c28.3,10.9,58.4,15.7,88.4,19.1,8.5.9,17,1.8,25.6,2.6,1,0,.9-1.4,0-1.5-29.9-2.9-60.1-5.9-89.2-13.7-8.2-2.2-16.4-4.8-24.4-7.9-.9-.4-1.3,1.1-.4,1.4h0Z"/>
    <path class="st1" d="M102.3,250.3c-3.9,24.8-1.4,50.1,4.5,74.3s10.6,50.3,13.5,75.9c1.6,14.4,2.7,28.8,3.3,43.3,0,1,1.5,1,1.5,0-1.1-25.5-3.7-50.9-7.9-76.1-2.1-12.6-4.5-25.1-7.5-37.5-1.4-6-3-12-4.2-18.2s-2.2-12.6-2.8-19c-1.4-14.1-1.3-28.4.9-42.5.2-.9-1.3-1.4-1.4-.4h0Z"/>
    <path class="st1" d="M94.7,461.9c1.5-5.8,6.8-8.8,12.3-10.2,6.2-1.6,12.9-1.6,19.3-.8,2.9.4,5.8,1,8.7,1.8,3.5,1.1,6.9,2.5,10.3,3.7,9,3.1,18.1,5.8,27.1,9.1s17.9,7.4,25.8,12.9c1,.7,1.9,1.4,2.9,2.1s2,1.4,2.4,2.5c.5,1.2.8,2.5.4,3.8-.6,2.4-3.1,3.7-5.3,4.5-2.7,1-5.6,1.5-8.5,1.8-1.2.1-2.5.2-3.7.2-2,0-3.7-.6-5.6-1.2-9.9-3.1-19.4-7.1-29-10.9-9.6-3.9-19.2-7.7-29.1-10.5-4.9-1.4-9.9-2.5-14.9-3.3-2.3-.4-4.7-.6-7.1-.8-1.7-.1-3.5-.7-4.8-1.8-1.5-1.2-1.9-2.8-1-4.5.5-.9-.8-1.6-1.3-.8-1.9,3.4.4,6.3,3.6,7.7,1.8.8,3.6.8,5.6,1,2.8.3,5.7.7,8.4,1.3,10.8,2.1,21.1,5.7,31.3,9.6s20.5,8.4,30.9,12.1c2.5.9,5.1,1.8,7.7,2.6,1.1.4,2.4.9,3.6,1,.6,0,1.2,0,1.7,0,2.9-.1,5.9-.4,8.8-1,4.9-1,11.3-3.7,9.9-9.9-.2-.8-.5-1.5-.8-2.2-.5-1-1.6-1.6-2.5-2.3-2-1.5-4-2.9-6.1-4.2-4.3-2.7-8.9-5.1-13.6-7.1-9.3-4.1-19-7.2-28.6-10.4-4.9-1.6-9.7-3.2-14.5-5-2.7-1-5.4-1.9-8.2-2.5-6.7-1.4-13.7-1.7-20.5-.7-5.8.9-12.3,3-15.7,8.2-.8,1.2-1.3,2.5-1.6,3.8-.2.9,1.2,1.3,1.4.4h0Z"/>
    <path class="st1" d="M94.9,458.6c17.2,2.1,34.1,6.9,49.9,14.2,4.5,2.1,8.9,4.3,13.2,6.8.8.5,1.6-.8.8-1.3-15.4-8.7-32-15.1-49.3-18.8-4.8-1-9.7-1.8-14.5-2.4-1-.1-.9,1.4,0,1.5h0Z"/>
    <path class="st1" d="M123.2,475c1,7.3,1.5,14.7,1.3,22.1,0,1,1.5,1,1.5,0,.2-7.5-.3-15-1.4-22.5-.1-1-1.6-.5-1.4.4h0Z"/>
    <path class="st1" d="M155.5,493.5c-20.1,4-40.3,7.1-60.6,9.8-20.2,2.7-40.4,5-60.6,7.5-11.3,1.4-22.5,2.8-33.8,4.4-.9.1-.6,1.6.4,1.5,20.2-2.9,40.6-5.2,60.9-7.7,20.1-2.4,40.2-4.9,60.2-8,11.3-1.8,22.6-3.7,33.8-5.9.9-.2.6-1.6-.4-1.5h0Z"/>
    <path class="st1" d="M695.5,396.5c-10.8,3-21.7,6-32.5,8.8-13.2,3.5-26.5,7-39.8,10.4-14.1,3.6-28.2,7.2-42.3,10.8-13.6,3.4-27.1,6.9-40.7,10.2-11.4,2.9-22.8,5.7-34.2,8.5-1.2.3-2.4.6-3.7.9-.9.2-.5,1.7.4,1.5,11.1-2.7,22.2-5.5,33.3-8.3,13.4-3.4,26.8-6.7,40.2-10.1,14.1-3.6,28.2-7.2,42.4-10.8s26.9-7,40.4-10.5c11.2-3,22.4-6,33.5-9,1.2-.3,2.4-.7,3.5-1,.9-.3.5-1.7-.4-1.5h0Z"/>
    <path class="st1" d="M860.6,409.1c31.7,5.2,63.3,10.4,95,15.6,8.9,1.5,17.7,2.9,26.6,4.4.9.2,1.3-1.3.4-1.5-31.7-5.2-63.3-10.4-95-15.6-8.9-1.5-17.7-2.9-26.6-4.4-.9-.2-1.3,1.3-.4,1.5h0Z"/>
    <path class="st1" d="M460.5,173.2c-1-2.2-3.2-3.3-5.4-4-3-.9-6-1.6-9.1-2.4-6.1-1.5-12.3-2.9-18.4-4.2-.9-.2-1.4,1.3-.4,1.4,5.7,1.1,11.4,2.4,17,3.8,2.8.7,5.5,1.4,8.3,2.1,2.5.7,5.5,1.3,6.7,3.9.4.9,1.7.1,1.3-.8h0Z"/>
  </g>
</svg>