<?xml version="1.0" encoding="UTF-8"?>
<svg id="Camada_3" xmlns="http://www.w3.org/2000/svg" version="1.1" viewBox="0 0 1000 1000">
  <!-- Generator: Adobe Illustrator 29.6.1, SVG Export Plug-In . SVG Version: 2.1.1 Build 9)  -->
  <defs>
    <style>
      .st0 {
        fill: #008775;
      }

      .st1 {
        opacity: .3;
      }
    </style>
  </defs>
  <g class="st1">
    <ellipse class="st0" cx="696.5" cy="335.4" rx="303.5" ry="314"/>
  </g>
  <g>
    <path class="st0" d="M498.1,191.6c1.9-.2,2.6,1.9,2.5,3.5-.1,2.1-2.5,1.9-4.1,2.2s-2.6,1-3.4,2.4c-.4.7-.8,1.4-1.6,1.6-.8.2-1.6.2-2.4.1-1.9,0-3.2-.5-3.2-2.6s.5-4.2.8-6.3c.6-3.8,1.3-7.6,1.6-11.4.4-4.4.2-8.8-1.1-13-.4-1.4-2.6-.8-2.2.6,1.4,4.8,1.3,9.8.8,14.7-.3,2.5-.7,5-1.2,7.5s-1,5-1.1,7.5c0,1.9.5,3.7,2.3,4.6,1.6.8,3.8.8,5.5.5.8-.1,1.6-.4,2.3-.9.9-.7,1.1-1.8,1.9-2.5.7-.6,1.8-.7,2.7-.8,1-.1,2-.3,2.8-.8,3.7-2.2,1.4-9.6-3-9.2-1.4.2-1.4,2.4,0,2.2h0Z"/>
    <path class="st0" d="M487.3,169c1.3-2.2,2.5-4.5,4.4-6.3,2.1-2,5-2.8,7.8-3.2,3-.4,6.1-.3,9.1,0,1.6.2,3.2.5,4.8.9.7.1,1.4.3,2.1.5.4,0,.8.2,1.1.3.3,0,1,.5.8,0,.5,1.4,2.6.8,2.2-.6s-2.1-1.5-3.3-1.9c-1.8-.5-3.7-.9-5.5-1.2-3.6-.6-7.3-.9-11-.4-3.3.4-6.6,1.2-9.2,3.4-2.3,2-3.9,4.7-5.3,7.3-.7,1.3,1.2,2.4,1.9,1.1h0Z"/>
    <path class="st0" d="M518.7,159.8c-2.5-.3-5.1-.5-7.6-.5s-5,0-7.3.9c-3.8,1.4-8,3.2-10.7,6.4-.9,1.1.7,2.7,1.6,1.6,2.5-3,6.5-4.8,10.1-6,2.2-.7,4.5-.7,6.7-.6,2.4,0,4.8.2,7.1.5,1.4.2,1.4-2.1,0-2.2h0Z"/>
    <path class="st0" d="M494.9,167.1c-.3-1.1-.6-2.3-.9-3.5s-.3-2.1-.4-3.3c0-.6-.5-1.1-1.1-1.1s-1.1.5-1.1,1.1c0,1.3.2,2.5.4,3.8s.6,2.4.9,3.6c.2.6.8,1,1.4.8s1-.8.8-1.4h0Z"/>
    <path class="st0" d="M491.5,161.1c-.5,4.6,2.6,8.6,5.8,11.5,1.1,1,2.7-.6,1.6-1.6-2.8-2.6-5.6-5.8-5.1-9.9,0-.6-.6-1.1-1.1-1.1s-1.1.5-1.1,1.1h0Z"/>
    <path class="st0" d="M497.3,172.2c0,2.2,2,3.3,3.9,3.9,2.4.7,5,.7,7.3,0,4.9-1.5,8.1-6.8,13.3-7.3,1.4-.1,1.4-2.4,0-2.2-4.5.4-7.4,3.6-11,6-1.9,1.2-4,2-6.2,1.9-1.2,0-5.1-.3-5.1-2.1,0-1.4-2.3-1.4-2.2,0h0Z"/>
    <path class="st0" d="M499.4,172.2c0-2.6,2.8-3.5,5-3.7,2.7-.2,5.4,0,8.1-.3,4.3-.7,9.5-1.5,12-5.5.8-1.2-1.2-2.4-1.9-1.1-1.3,2.1-3.7,3-6,3.6-2.9.7-5.8,1.2-8.7,1.2-2.5,0-5-.2-7.2.9-2,1-3.3,2.8-3.4,5,0,1.4,2.2,1.4,2.2,0h0Z"/>
    <path class="st0" d="M506.3,166c-1.3,0-2.7.4-3.3,1.7-.3.7-.4,1.4-.4,2.1s0,1.4.4,2.1c.6,1.3,2.2,1.9,3.6,1.8.7,0,1.5-.2,2.2-.4s1.5-.5,2-1c.6-.6.7-1.6.8-2.4s.1-1.6,0-2.4c0-.6-.5-1.1-1.1-1.1-.6,0-1.2.5-1.1,1.1,0,1.1,0,2.1-.2,3.1,0,0,0,.1,0,.1,0,.1,0,0,0,0,0,0,0,.2,0,0,0,0-.1.1,0,0s0,0,0,0c0,0,0,0-.1,0s0,0-.1,0c0,0-.1,0,0,0-.5.2-1,.4-1.6.5-.1,0-.3,0-.4,0-.1,0,0,0,0,0,0,0-.1,0-.2,0-.1,0-.2,0-.4,0h-.2s-.2,0,0,0c-.1,0-.2,0-.4,0,0,0,0,0-.1,0,0,0,.1,0,0,0,0,0-.2,0-.3-.1,0,0,0,0-.1,0,0,0,0,0,0,0,0,0,0,0-.1-.1,0,0,0,.1,0,0,0,0,0,0,0-.1,0,0,0,.1,0,0,0-.1,0-.2,0-.3,0-.1,0,0,0,0,0,0,0-.2,0-.3,0-.2,0-.4,0-.7,0-.1,0-.2,0-.3,0,0,0-.1,0-.2,0-.2,0,0,0,0,0-.1,0-.2,0-.4,0,0,0-.2,0,0s0,0,0,0c0-.1,0,0,0,0,0,0,0,0,.1-.1-.1.1,0,0,0,0,0,0,.1,0,.2,0,0,0,.2,0,0,0-.1,0,0,0,0,0,.1,0,.2,0,.3,0,0,0,.1,0,.2,0-.1,0-.1,0,0,0,.1,0,.3,0,.4,0,.6,0,1.1-.5,1.1-1.1,0-.6-.5-1.2-1.1-1.1h0Z"/>
    <path class="st0" d="M522.6,162.7c2.2,4.1-.5,7.8-3.8,10.2-2.8,2.1-7,4.1-8.1,7.7-.5,1.8-.4,4.2,0,6,.5,1.7,1.5,2.9,2.9,3.9,1.3.8,2.8,1.3,4.1,2.1,1.7,1,2.3,2.3,2.4,4.3s0,4.1,1.2,5.8c1.2,1.6,3.1,2.3,5,2.8,1.4.4,2-1.8.6-2.2-1.6-.5-3.6-1.1-4.2-2.8s-.2-3.7-.5-5.5c-.6-3.4-3.6-4.5-6.3-5.9-1.5-.8-2.7-1.8-3-3.5-.4-1.9-.4-4.3.8-5.9,2.4-3,6.2-4.5,8.8-7.2,3-3,4-7.3,2-11.1-.7-1.3-2.6-.1-1.9,1.1h0Z"/>
    <path class="st0" d="M526.6,205.4c4,1,8.2,1.9,12.4,1.1,3.3-.7,6.5-2.7,8-5.8,1.7-3.6,1.3-7.9,1.2-11.8-.2-4.5-.6-9-1.2-13.5s-1.3-8.6-3-12.6-4.5-7-6.4-10.7-3.1-7.3-5.1-10.7-4.3-6.1-7.4-8.2c-6.9-4.9-15.6-6-23.8-6.7-4.6-.4-9.3-.6-13.9-.7-2.2,0-4.5,0-6.8,0-2,0-4.1.1-6,.8-3.4,1.2-5.8,3.9-7.3,7-1.8,3.6-2.9,7.5-3.6,11.4-1.5,8.2-1,16.7,1.5,24.6,1.3,4.1,3.4,7.9,3.9,12.2s0,8.3.4,12.5c.4,3.7,1.7,7,4,9.9,2.1,2.6,4.8,4.6,6.8,7.3,1,1.3,1.7,2.6,2.1,4.2.4,1.4,2.5.8,2.2-.6-1.6-6.1-7.7-9.2-10.8-14.4-4.1-6.8-1.1-15.2-3.2-22.5-1.1-3.8-2.9-7.2-3.9-11s-1.6-7.7-1.7-11.7.3-7.9,1.1-11.8c.8-3.6,1.9-7.3,3.8-10.4.9-1.5,2.1-2.9,3.6-3.8,1.6-1,3.6-1.3,5.4-1.4,4.2-.2,8.5,0,12.6.1,8.3.3,17.1.6,25,3.3,3.5,1.2,6.8,3,9.5,5.4s4.5,5.6,6,8.9,2.9,6.8,4.8,9.9c2.1,3.4,4.5,6.5,5.7,10.4s1.8,8.2,2.3,12.4.8,8.5.9,12.7c0,3.6.3,7.9-2.5,10.6-2.7,2.5-6.6,3-10.1,2.6-2.1-.2-4.1-.7-6.1-1.2-1.4-.3-2,1.8-.6,2.2h0Z"/>
    <path class="st0" d="M482.9,214.8c-.8,3.7,3.1,6.1,5.2,8.5,2.5,3,4,6.4,5.8,9.8,1.5,2.9,3.9,5.9,7.3,6.5,1.6.3,3.2,0,4-1.5s1-3.6,1.2-5.3c.5-4.1-.2-8.5-3.2-11.6-1-1-2.6.6-1.6,1.6,2.9,2.9,3,7.2,2.3,11-.2.9-.3,1.9-.6,2.8-.4,1-1.4.9-2.3.6-1.7-.5-3-1.8-4-3.1-1.1-1.6-1.9-3.4-2.7-5.1s-1.8-3.3-2.9-4.8-2.2-2.9-3.5-4.2c-1.1-1.2-3.4-2.7-3-4.6.3-1.4-1.9-2-2.2-.6h0Z"/>
    <path class="st0" d="M503.9,222c-.9-1.1-.4-3.2,0-4.4.4-1.5,1.2-2.8,2.3-3.9,1.2-1.2,2.6-2,4.1-2.5,1.9-.7,3.7-1.3,5.3-2.4,1.2-.8,0-2.7-1.1-1.9-1.9,1.2-4,1.8-6.1,2.7-1.8.8-3.3,1.9-4.5,3.4-2.2,2.7-3.9,7.6-1.5,10.7.4.5,1.2.4,1.6,0,.5-.5.4-1.1,0-1.6h0Z"/>
    <path class="st0" d="M514.1,207.5c-.5,3.1-.9,6.3-2.7,9s-4.5,3.6-7.6,4.1c-5.6.9-12.2-1.1-14.2-6.9-.5-1.4-2.6-.8-2.2.6,2.2,6.8,9.6,9.5,16.2,8.6,3.5-.5,6.8-1.5,9-4.4s3-6.7,3.5-10.4c.2-1.4-2-2-2.2-.6h0Z"/>
    <path class="st0" d="M489.1,214.9c3.8-1.9,8.1-2.6,12.2-3.5,4.4-.9,8.8-1.6,13.2-2,1.4-.1,1.4-2.4,0-2.2-4.6.5-9.3,1.1-13.9,2.1-4.3.9-8.8,1.8-12.8,3.7-1.3.6-.2,2.6,1.1,1.9h0Z"/>
    <path class="st0" d="M515.8,207.8c-1-2.5-3.9-3.7-6.3-4.4-2.8-.8-5.9-.9-8.8-.2-.6.2-1.3.4-1.9.7-.7.4-1.2.9-2,.9-1.6,0-3.2-.2-4.9,0-2.6.2-5.6,1.2-5.6,4.4,0,1.4,2.2,1.4,2.2,0,0-2.6,4.7-2.2,6.4-2.2,1,0,2.2.4,3.2,0s1.7-1.1,2.7-1.4c2.2-.6,4.5-.7,6.8-.2,1.1.2,2.3.6,3.3,1.1.9.4,2.2,1,2.6,2,.5,1.3,2.7.8,2.2-.6h0Z"/>
    <path class="st0" d="M486.5,209.7c1.2,2.4,4.7,1.5,6.7,1,2.4-.6,5.8-1.7,5.4-4.8-.1-1.3-1-2.5-1.5-3.6-.6-1.3-1.1-2.6-1.4-4-.3-1.9.1-6.4,2.9-6.5,1.5,0,1.5-2.3,0-2.2-2.3,0-3.9,1.9-4.6,3.9-.9,2.5-.7,5.2.2,7.7.4,1.2,1,2.4,1.6,3.5.2.4.7,1,.7,1.6s-.5,1.1-1,1.4c-1.2.7-2.7,1-4,1.2-.7.1-2.5.6-2.9-.2-.7-1.3-2.6-.1-1.9,1.1h0Z"/>
    <path class="st0" d="M545.3,207.5c-3.2,5.6-6.7,11-10.4,16.2-1.6,2.3-3.3,4.6-5.4,6.6-2.2,2.1-4.8,3.4-7.6,4.6-2.5,1.1-5.2,1.8-5.1,5.1s.8,6.5,1.1,9.7.6,6.3,1.3,9.3c.7,3.1,1.9,5.7,3.3,8.3s2.8,5,4.5,7.4c1.3,1.9,2.9,3.8,4.9,5,4.1,2.5,9.5.8,11-3.9.9-2.7-1-4.1-3.6-4.1-2,0-4.4,1-4.2,3.4.1,2.2,2.6,3.6,4.6,3,2.3-.8,3.2-3.5,2.7-5.7s-2.5-4.9-4.8-5.4c-1.9-.4-4,1.1-3.8,3.2.3,2.5,3.2,2.3,4.7,1,.9-.8,1.5-1.9,2.1-3,.9-1.4,1.7-2.9,2.6-4.3,6.2-10.5,11.6-21.6,13.8-33.7,1-5.9,1.4-11.8.6-17.8-.4-3-1-5.9-2-8.8s-2.4-5.8-3.5-8.7c-4.4-10.8-4.5-23.7,1-34.2,1.2-2.2,2.7-4.4,4.8-5.8,1-.7,2.3-1.3,3.5-1.4,1.6-.1,2.4.9,2.8,2.3.8,2.9,1.2,6.2,1.5,9.3s.2,6-.6,8.8c-.7,2.5-1.9,4.8-3.7,6.7-2,2-4.8,2.7-6.8,4.6-1.7,1.6-2.6,4.2-1,6.2,1.4,1.8,4,1.9,5.3,0,1.4-2.2.3-4.6-1.3-6.3-1-1.1-2.6.5-1.6,1.6.8.8,1.6,2,1.2,3.1-.5,1.3-1.9.8-2.1-.4-.5-2.5,3.2-3.9,4.9-4.8,3.7-2.1,6.2-5.8,7.3-9.9,1.4-4.9.9-10.1,0-15.1-.3-2.1-.5-4.5-1.7-6.3s-3.2-2.3-5.3-1.9c-4.1.8-7,4.3-8.9,7.7-2.3,4.2-3.6,8.9-4.3,13.6s-.5,9.7.4,14.4c1,5.1,3.3,9.7,5.2,14.5,7.9,20-.2,41.5-10.3,59-1.3,2.2-2.6,4.5-4,6.6-.2.3-1.5,2.7-2.2,2.4-.2-.1,0-.5.2-.6.5-.4,1.3.1,1.8.5,1.5,1.2,3.3,4.4,1.3,6-.7.5-2.3.2-2-.9.2-.9,2-.9,2.7-.8,1.4.2.8,1.5.2,2.4-.6.9-1.5,1.6-2.5,2-2,.7-4,0-5.6-1.2s-2.9-3.1-4-4.8c-1.3-2.1-2.6-4.2-3.8-6.4-1.2-2.3-2.3-4.8-2.9-7.3s-.9-5.5-1.2-8.2-.7-5.6-1-8.4c-.1-1.1-.7-2.8.3-3.7.9-.8,2.3-1.1,3.4-1.5,2.3-1,4.5-2.1,6.5-3.6s3.5-3.2,4.9-5.1c3.1-4,5.9-8.4,8.6-12.7,1.4-2.3,2.8-4.5,4.1-6.8.7-1.2-1.2-2.4-1.9-1.1h0Z"/>
    <path class="st0" d="M468.6,132.3c1.5-9.2,7.4-17.1,15.1-22.2,8.8-6,19.7-8.1,30.2-8,5.7,0,11.5.5,17,1.9s10.4,4.5,15.2,7.3,8.5,6.2,11.5,10.6,5.2,9.5,6.9,14.7c1.9,5.9,3.6,12,4.8,18.1s1.7,12.3-1,17.9c-.6,1.3,1.3,2.4,1.9,1.1,2.4-5.1,2.6-10.7,1.8-16.2-.8-5.8-2.5-11.5-4.1-17.1-3-10.6-7.5-21.5-16.6-28.3-2.4-1.8-5.1-3.3-7.7-4.8s-5.1-2.9-7.8-4c-5.6-2.3-11.7-3.1-17.7-3.5-11.2-.7-23,.8-32.9,6.4-9.4,5.3-17.1,14.4-19,25.3-.2,1.4,1.9,2,2.2.6h0Z"/>
    <path class="st0" d="M573.8,162.5c8.8,2.3,13.8,10.8,15.5,19.2,1,5,1.1,10.2,1.1,15.3,0,4.4,0,9.3,2.8,12.9,2.5,3.2,7.1,5.1,10.9,3,1.3-.7.1-2.6-1.1-1.9-3.5,1.9-7.5-.9-9-4.1-2-4.3-1.3-9.5-1.4-14.1-.2-8.9-1.6-18.2-7.5-25.3-2.8-3.4-6.5-6-10.8-7.1-1.4-.4-2,1.8-.6,2.2h0Z"/>
    <path class="st0" d="M558.8,212.3c2.9,7.9,9.6,13.2,13.9,20.2,2.4,3.9,3.1,8.4,5.5,12.3,2.1,3.5,5.4,6.1,9.1,7.6,4.8,1.8,10.2,1.3,14.6-1,1-.5.5-2.2-.6-2.1-5.8.3-10.6-3.5-13.9-8s-6-9.5-6.3-15l-1.9.8c3.5,4.1,9,5.1,14.1,5.7,6.6.8,13.3,1.4,19.8-.1,1.4-.3.8-2.5-.6-2.2-6.1,1.4-12.4.8-18.5.1-4.7-.5-10-1.3-13.3-5.1-.6-.7-2-.1-1.9.8.3,6.2,3.3,11.9,7,16.7s9,8.9,15.4,8.5l-.6-2.1c-7.5,3.9-17,1.1-21.1-6.4-2-3.7-2.8-7.9-5-11.5-2-3.2-4.4-6.1-6.8-9-2.7-3.3-5.5-6.8-6.9-10.9-.5-1.4-2.7-.8-2.2.6h0Z"/>
    <path class="st0" d="M613.7,229.1c-2.5-4.9-7.2-8.1-12.2-9.8-2.5-.9-5.1-1.4-7.7-1.7s-5.8-.5-8-2.3c-1.3-1.1-1.9-2.6-2.5-4.1-.7-1.7-1.3-3.5-1.8-5.3-.9-3.4-1.5-6.8-1.6-10.3,0-.5,0-3,.9-2.6.5.2.7,1.8.8,2.2.2.9.3,1.9,0,2.8-.6,1.6-2.1,1.8-3.4.8-1.4-1.1-1.8-3-2.3-4.6-1.3-3.4-3.3-6.5-4.5-10-1.3-3.9-1.3-8.1-.2-12,.4-1.4-1.8-2-2.2-.6-1.1,4-1.2,8.3,0,12.3s3.5,7.4,4.9,11.3c1,2.9,2.9,7.3,6.8,6.4s3.8-5.7,2.8-8.6c-.5-1.4-1.5-2.6-3.1-2.4-1.3.2-2.1,1.4-2.4,2.7-.4,1.8,0,3.7.1,5.5.2,2.1.6,4.2,1.1,6.3s1.2,4.2,1.9,6.2c.7,1.8,1.4,3.7,2.7,5.1,2.3,2.4,5.8,2.9,9,3.3,7.4.9,15.5,3.4,19.1,10.5.7,1.3,2.6.2,1.9-1.1h0Z"/>
    <path class="st0" d="M611.3,235.3c5-.3,9.8,1.2,14.8,1.9,2.5.3,4.9.4,7.4.4,2.3,0,5.2-.1,7.3,1,4.1,2.1,5.1,8.1,6.4,12,1.5,4.9,2.8,9.7,3.8,14.7,1.1,5.6,2,11.2,3.8,16.6.4,1.4,2.6.8,2.2-.6-1.6-5.1-2.5-10.4-3.6-15.6s-2.3-10.5-4-15.6c-1.3-4.3-2.5-9.6-6.3-12.6-1.7-1.4-3.8-1.7-6-1.9-2.7-.2-5.4-.1-8.1-.3-5.9-.4-11.6-2.5-17.6-2.2-1.4,0-1.5,2.3,0,2.2h0Z"/>
    <path class="st0" d="M654.3,282.1c2.2,4.7,3.5,9.8,4.6,14.8.3,1.4,2.5.8,2.2-.6-1.2-5.2-2.5-10.5-4.9-15.3-.6-1.3-2.6-.2-1.9,1.1h0Z"/>
    <path class="st0" d="M564.6,255.3c.6,0,1.2.6,1.6,1,.6.5,1.2,1,1.7,1.5,1.2,1,2.5,2,3.9,2.8,2.7,1.7,5.5,3.1,8.5,4.2,1.4.5,2-1.7.6-2.2-3-1.1-5.9-2.6-8.6-4.4-1.3-.9-2.6-1.9-3.8-2.9s-2.2-2-3.9-2.2c-.6,0-1.1.6-1.1,1.1s.5,1.1,1.1,1.1h0Z"/>
    <path class="st0" d="M581.3,264.5c2.7-3.2,7.1-3.4,10.9-4.5s7.4-2.8,10.6-5.1c1.2-.9,0-2.8-1.1-1.9-3.4,2.5-7.2,4.2-11.2,5.2-3.8.9-8,1.6-10.7,4.8-.9,1.1.7,2.7,1.6,1.6h0Z"/>
    <path class="st0" d="M601.6,254.2c1.8,1.7,1.9,4.6,2.2,6.9.4,2.9.8,5.9,1,8.9.5,5.9.6,11.8.5,17.7-.2,11.9-1.5,23.8-3.2,35.6-1,6.6-2,13.2-3.2,19.8-.2,1.4,1.9,2,2.2.6,4.2-24.2,7.9-48.9,5.9-73.5-.3-3.3-.7-6.6-1.1-10-.4-2.7-.7-5.6-2.8-7.6-1-1-2.7.6-1.6,1.6h0Z"/>
    <path class="st0" d="M599.6,342.3l-5.5,41.1c-.9,6.8-1.8,13.5-2.7,20.3-.9,6.6-1.9,13.1-2.6,19.8-.8,7.7-.2,15.5.4,23.2.1,1.4,2.4,1.5,2.2,0-.5-6.8-1-13.5-.6-20.3s1.6-13.4,2.5-20l5.5-40.6c1-7.6,2-15.2,3.1-22.8.2-1.4-2-2-2.2-.6h0Z"/>
    <path class="st0" d="M562.4,253.2c1.3,20.6,2.7,41.3,4.1,61.9.7,10.3,1.3,20.6,2,30.9.7,9.9,1.2,19.9,2.3,29.8,1.2,10.9,3.1,21.8,6.4,32.2.4,1.4,2.6.8,2.2-.6-5.9-18.8-7.2-38.6-8.5-58.2-1.3-20.4-2.7-40.8-4-61.2-.8-11.6-1.5-23.2-2.3-34.8,0-1.4-2.3-1.4-2.2,0h0Z"/>
    <path class="st0" d="M577.7,407.7c2.1,13.7,5.8,27.2,10.9,40.1.5,1.3,2.7.8,2.2-.6-5.1-12.9-8.7-26.4-10.9-40.1-.2-1.4-2.4-.8-2.2.6h0Z"/>
    <path class="st0" d="M524.4,296.2c-1.7-3.2-3-6.8-2.5-10.4.2-1.6.8-3.2,1.8-4.5,1.1-1.4,2.7-2.3,3.8-3.8.9-1.1-.7-2.7-1.6-1.6-1.2,1.6-2.9,2.6-4.1,4.2s-1.8,3.4-2.1,5.3c-.6,4.2.8,8.2,2.7,11.9.7,1.3,2.6.1,1.9-1.1h0Z"/>
    <path class="st0" d="M528.2,275.3c-10.7-9.8-19.2-21.8-25.1-35.1-.6-1.3-2.5-.2-1.9,1.1,6,13.4,14.7,25.5,25.5,35.5,1.1,1,2.7-.6,1.6-1.6h0Z"/>
    <path class="st0" d="M523.8,296.1c-6-12.1-11.9-24.4-17.7-36.7-.6-1.3-2.5-.2-1.9,1.1,5.8,12.3,11.7,24.5,17.7,36.7.6,1.3,2.6.2,1.9-1.1h0Z"/>
    <path class="st0" d="M471.4,272.2h17.7c1.9,0,3.7,0,5.5.6,1.4.5,2-1.7.6-2.2-1.7-.6-3.4-.7-5.2-.7-2.1,0-4.2,0-6.2,0h-12.4c-1.5,0-1.5,2.2,0,2.2h0Z"/>
    <path class="st0" d="M496.2,272.3c1-2.3,2.6-4.2,4.2-6.1.9-1,1.8-2,2.6-2.9.7-.8,1.4-1.9,2.5-2,.6-.1.9-.8.8-1.4-.2-.6-.8-.9-1.4-.8-1.3.2-2.2,1.2-3.1,2.1-1,1.1-2,2.2-3,3.3-1.8,2-3.6,4.2-4.7,6.7-.2.5-.2,1.2.4,1.5.5.3,1.3.1,1.5-.4h0Z"/>
    <path class="st0" d="M470.6,272.2c3.4,17.7,8.2,35.1,14.2,52s13.2,33.2,21.7,49c4.8,8.9,10,17.7,15.5,26.2.8,1.2,2.7,0,1.9-1.1-9.7-15-18.3-30.6-25.7-46.9s-13.6-33.1-18.5-50.4c-2.7-9.7-5.1-19.5-7-29.4-.3-1.4-2.4-.8-2.2.6h0Z"/>
    <path class="st0" d="M522.1,398.9c10.8,13.7,16.6,30.6,19.8,47.5.9,4.9,1.6,9.8,2.2,14.7.2,1.4,2.4,1.4,2.2,0-2.1-17.7-5.9-35.5-14.4-51.3-2.4-4.4-5.2-8.6-8.3-12.5-.9-1.1-2.5.5-1.6,1.6h0Z"/>
    <path class="st0" d="M546.8,460.9c-.4-10.8-.8-21.6-1.2-32.5s-.6-21.6-1.2-32.4c-.6-10.5-2.5-20.7-5.1-30.8s-5.7-20.2-8.4-30.4c-3-11.6-5.7-23.3-8-35.1-.3-1.4-2.5-.8-2.2.6,2,10.4,4.4,20.7,7,30.9s5.6,20.3,8.4,30.5,5.1,20.3,5.9,30.7.9,21.4,1.3,32.1c.4,12.1.9,24.3,1.3,36.4,0,1.4,2.3,1.5,2.2,0h0Z"/>
    <path class="st0" d="M491.8,231.2c-3.3.3-6.7.6-9.9,1.8s-5.6,3-7.9,5.3c-4.9,4.8-9.7,9.6-15.1,14-5.4,4.3-11,8.2-16.9,11.8-2.7,1.6-5.6,3.2-7.7,5.7-1.9,2.2-3.2,4.9-4.1,7.6-2.4,7.4-1.5,15.3-3.4,22.8-.4,1.4,1.8,2,2.2.6,1.7-6.5,1.2-13.4,2.7-19.9.6-2.9,1.6-5.7,3.3-8.2,1.8-2.6,4.4-4.3,7.1-6,11.2-6.6,21.5-14.6,30.6-23.8,2.5-2.6,5-5.4,8.3-7s7.1-2,10.8-2.3c1.4-.1,1.4-2.4,0-2.2h0Z"/>
    <path class="st0" d="M427.2,299.6c-1,4-.5,8.2-.4,12.3s0,8.5-.2,12.7c-.4,8.6-1.2,17.1-1.7,25.6-.3,4.9-.4,9.8-.2,14.7,0,1.4,2.3,1.5,2.2,0-.5-16.9,2.3-33.7,2.1-50.5,0-4.6-.9-9.6.2-14.1.4-1.4-1.8-2-2.2-.6h0Z"/>
    <path class="st0" d="M424.5,364.7c1.2,7.3.2,14.8-1,22-.6,3.6-1.2,7.1-1.6,10.7s-.6,7.2-.7,10.8-.3,7.3-1.2,10.9-2.2,6.9-3.7,10.2c-3.1,6.7-6.4,13.4-9.6,20-3.7,7.7-7.4,15.3-11.1,23-.6,1.3,1.3,2.4,1.9,1.1,6.7-13.9,13.5-27.8,20.1-41.8,1.5-3.2,2.9-6.4,3.9-9.7,1.1-3.5,1.5-7.2,1.8-10.8s.2-7.6.6-11.3,1-7.4,1.5-11.1c1.3-8.2,2.5-16.4,1.2-24.7-.2-1.4-2.4-.8-2.2.6h0Z"/>
    <path class="st0" d="M479,394c-2.2-8.2-4-16.5-5.2-24.9-.6-4.2-1.1-8.4-1.5-12.6-.2-1.9-.4-3.9-.4-5.9,0-.9.1-3.1,1.4-3.2l-.8-.3c1.2,1.5,1.3,3.5,1.2,5.3,0,2.2-.3,4.4-.5,6.6-.4,4.5-.8,9-1.2,13.6-.9,9.1-1.9,18.2-2.9,27.3-2.1,18.2-4.5,36.3-7.1,54.4-1.5,9.9-4,19.4-8.5,28.4-.6,1.3,1.3,2.4,1.9,1.1,2.8-5.6,5-11.6,6.6-17.7,1.6-6.5,2.4-13.1,3.3-19.8,1.8-13.2,3.6-26.4,5.2-39.6,1.6-13.3,3.1-26.6,4.3-39.9.3-3.4.6-6.8.8-10.1.2-2.8.7-5.8,0-8.5-.3-1-.8-2.2-1.6-2.8-.8-.6-2,0-2.7.5-1.5,1.3-1.7,3.7-1.6,5.6.9,14.6,3.4,29.1,7.2,43.2.4,1.4,2.5.8,2.2-.6h0Z"/>
    <path class="st0" d="M454.1,481.6c-5.1,8.6-10.3,17.1-15.5,25.7-2.5,4.2-5.1,8.5-7.7,12.8-2.1,3.5-4.2,7.2-7.8,9.4-1.2.8-.1,2.7,1.1,1.9,3.5-2.2,5.7-5.5,7.8-8.9,2.7-4.4,5.3-8.8,7.9-13.2,5.3-8.9,10.6-17.7,16-26.6.8-1.2-1.2-2.4-1.9-1.1h0Z"/>
    <path class="st0" d="M412.7,482.7c-1-2.6-1.3-5.8-3.4-7.9s-5.7-2.3-8.4-1.8c-3.3.6-3.7,4.7-4,7.4-.4,3.6.1,7.4,1.1,10.9,1.6,5.8,5.8,12,12.3,12.4,3.1.2,6-1.5,6.6-4.7.6-3-1-5.9-3.5-7.6-3-2-6.9-.5-9,2.2-1.8,2.3-1.4,6.3,1.8,7,1.4.3,2-1.8.6-2.2-.9-.2-1.3-1-1.3-1.9,0-1.1.9-2,1.8-2.7s2-1.2,3-1.2,2.4,1,3.2,1.9c1.5,1.8,1.9,4.7-.2,6.2-1.8,1.3-4.4.7-6.2-.2-4.3-2.2-6.4-6.8-7.4-11.3-.6-2.5-.9-5-.8-7.5,0-1.2.2-2.5.5-3.7.3-1.1.4-2.6,1.8-2.8,2.2-.4,5.4-.2,6.8,1.7,1.3,1.8,1.6,4.3,2.4,6.3.5,1.3,2.7.8,2.2-.6h0Z"/>
    <path class="st0" d="M414,487.9c3.3-.1,6.6.9,9.2,3.1,1.3,1.1,2.6,2.5,2.9,4.2.3,1.9-.1,3.9.1,5.8.2,1.7.7,3.3,1.3,4.9.7,1.7,2.1,3.6,1.3,5.5-.7,1.7-2,3.2-2.9,4.8l-3.4,5.5c-.8,1.2,1.2,2.4,1.9,1.1,1.3-2.1,2.6-4.2,3.9-6.3,1-1.6,2.5-3.4,2.9-5.3s-.6-3.9-1.5-5.6c-.9-2-1.5-4.1-1.5-6.3,0-2,.4-4-.4-5.9-.7-1.7-2.2-3.2-3.6-4.3-2.9-2.2-6.5-3.4-10.2-3.3-1.4,0-1.5,2.3,0,2.2h0Z"/>
    <path class="st0" d="M395.5,544.4c4.8-3.3,12.1-2.6,15.2-8.2.8-1.3,1.3-2.7,2.2-4,.8-1.1,1.7-2.2,2.2-3.5.4-1.2.6-2.8-.3-3.8s-2.5-.9-3.5-.2c-1.3.9-2,2.6-2.5,4.1-.7,1.8-1.1,3.7-1.3,5.6-.1,1.4,2.1,1.4,2.2,0,.2-1.7.6-3.4,1.2-5,.2-.4,1.4-3.5,2.2-2.9.4.3-.2,1.6-.3,1.9-.3.6-.7,1.2-1.1,1.7-.9,1.2-1.7,2.3-2.3,3.7s-1.3,2.6-2.6,3.5c-1.1.8-2.5,1.4-3.8,1.9-3,1-6.1,1.6-8.7,3.4-1.2.8,0,2.8,1.1,1.9h0Z"/>
    <path class="st0" d="M415.3,524.8c-.2-2.1-2.4-2.7-4.2-2.6-2,0-4,.8-5.5,2.1-1.6,1.4-2.5,3.4-3.7,5.1s-2.9,2.9-4.9,3.6c-1.4.5-.8,2.6.6,2.2,1.7-.6,3.2-1.5,4.5-2.7s2.2-2.8,3.2-4.3c.9-1.4,2-2.7,3.6-3.4.8-.3,1.6-.5,2.5-.4.4,0,.7,0,1.1.1.1,0,.3,0,.4.2.2,0,.2.3.2,0,.1,1.4,2.4,1.4,2.2,0h0Z"/>
    <path class="st0" d="M415.6,524.8c0-.2,0,0,0,0t0,0s0,0,0,0c0,0,0,0,0,0,0,0,.1,0,.2-.2-.1,0,0,0,0,0,0,0,.1,0,.2-.1,0,0,.2,0,.2-.1-.1,0,0,0,0,0,.8-.3,1.6-.5,2.4-.5.4,0,.6,0,1,.2.2,0,.5.2.7.4,0,0,0,0,.1,0,0,0,.1.1.2.2,0,0,.1.1.1.2-.1-.1,0,0,0,0,0,0,0,.1.1.2s0,.2,0,0c0,0,0,.1,0,.2,0,0,0,.3,0,.1,0,.6.5,1.1,1.1,1.1s1.2-.5,1.1-1.1c-.2-2.4-2.4-3.9-4.7-4-1.2,0-2.5.3-3.5.8-1,.5-1.9,1.3-1.9,2.5,0,.6.5,1.1,1.1,1.1s1.1-.5,1.1-1.1h0Z"/>
    <path class="st0" d="M400.8,545.9c3.3-1,6.7-2.1,9.7-3.7s5-4.4,7-6.9c1-1.2,2-2.5,3-3.9.9-1.2,1.8-2.6,1.8-4.1,0-1.3-.8-2.5-2-2.9-1.4-.4-2.8.4-3.6,1.4-1.8,2.1-3.4,6.3-.2,8,1.3.7,2.4-1.3,1.1-1.9s-.7-2.2-.1-3.2c.3-.5,1.8-3.1,2.5-1.8.6,1.1-1,2.9-1.6,3.7-.9,1.3-1.9,2.5-2.9,3.7-1.9,2.2-3.7,4.8-6.4,6.1-2.8,1.4-5.9,2.4-8.9,3.3-1.4.4-.8,2.6.6,2.2h0Z"/>
    <path class="st0" d="M390.7,533.5c1.2-.8,2.5-.8,3.9-.2.3.2.7.3,1,.5.2.1.6.3.7.4.1.2.2.6.3.9.1.4.2.8.3,1.3,0,.6,0,1.4-.2,1.8,0,0-.1.1-.2.1,0,0-.3,0-.4.1-.4,0-.7.1-1.1.2-.9.1-1.7.3-2.5.4-.5,0-.9.1-1.4.2-.2,0-.5,0-.7.1h-.3c-.3,0-.2.1.3.1l.4.4h0c0,0,0,1.1,0,1.1h0c.4-.5,0-1.3-.4-1.6-.6-.3-1.2,0-1.5.4-.4.5-.1,1.3.4,1.7.5.3.9.2,1.5.2.9-.1,1.8-.3,2.6-.4s1.8-.3,2.7-.4c.8-.1,1.7-.3,2.2-1,1.3-1.4,1-3.5.5-5.2-.2-.9-.5-1.8-1.3-2.3-.7-.5-1.5-.8-2.2-1.1-1.8-.8-3.9-.7-5.6.4-.5.3-.7,1-.4,1.5.3.5,1,.7,1.5.4h0Z"/>
    <path class="st0" d="M390,538.7c.5-.2,1.2-.5,1.5-.5.5,0,.9.1,1.5.3s1.2.4,1.8.6c.3,0,.6.2.9.3,0,0,.4.2.1,0,.4.2,0,0-.1-.2.2.6.8,1,1.4.8s1-.8.8-1.4c-.2-.9-1-1.2-1.8-1.4s-1.5-.5-2.2-.7-1.4-.5-2.2-.5-1.5.3-2.2.6c-.5.2-1,.8-.8,1.4.2.5.8,1,1.4.8h0Z"/>
    <path class="st0" d="M399,483.7c-3.1-2.6-6-5.3-8.8-8.2-1.3-1.4-2.4-2.5-4.4-2.8-1.6-.3-3.2-.4-4.9-.2-3.5.6-4.9,3.4-5.9,6.4-1.3,3.8-3,7.4-4.4,11.1-1.6,4.2-2,8.7-1.4,13.1.2,1.4,2.4.8,2.2-.6-.6-4.5,0-8.9,1.8-13.1.8-1.9,1.7-3.8,2.4-5.8s1.3-4.1,2.2-6.1,2.2-2.9,4.3-3c.9,0,1.9,0,2.8.2,1.2.2,2,.6,2.8,1.4,3,3.2,6.2,6.2,9.6,9.1,1.1.9,2.7-.7,1.6-1.6h0Z"/>
    <path class="st0" d="M369.2,502.1c-.2.9-.6,1.6-1,2.4-.4.8-.9,1.6-1.4,2.4-1,1.5-2.1,2.9-3.3,4.2-.4.5-.4,1.2,0,1.6.4.4,1.2.5,1.6,0,1.3-1.5,2.6-3,3.6-4.7.5-.8,1-1.6,1.4-2.4.5-.9,1-1.8,1.2-2.8.1-.6-.2-1.2-.8-1.4-.6-.1-1.3.2-1.4.8h0Z"/>
    <path class="st0" d="M353.6,520.4c-2.6,2.3-4.9,4.8-7.1,7.5s-4.8,4.9-7.5,7.2c-5.4,4.4-11,8.4-17.4,11.3-1.3.6-.2,2.5,1.1,1.9,6.4-2.9,12-7,17.5-11.4,2.7-2.2,5.3-4.4,7.5-7.1s4.7-5.4,7.4-7.8c1.1-1-.5-2.6-1.6-1.6h0Z"/>
    <path class="st0" d="M356.1,520.4c3.3-1.5,7-1.9,10.6-1.4,1.8.2,3.2.7,4.6,1.8s2.9,1.9,3.9,3.4c1.9,2.7,3.7,6.1,4.3,9.4.6,3.7,0,7.4-1.1,11-.4,1.4,1.8,2,2.2.6,1.2-3.9,1.9-8.1,1.1-12.2-.4-2-1.1-3.9-2.1-5.7s-1.9-3.6-3.2-5.2c-1.2-1.5-2.8-2.4-4.4-3.5-1.6-1.2-3.5-1.6-5.4-1.8-4-.5-8.1,0-11.7,1.7-1.3.6-.2,2.6,1.1,1.9h0Z"/>
    <path class="st0" d="M378.8,543.5c-1,2.9-1.4,5.9-1.2,9,0,.6.5,1.1,1.1,1.1,2.1,0,4.2-1.6,6-2.7s2.4-3.1,3.1-5c1.6-4.2,2.4-8.6,1.8-13.1,0-.6-.5-1.1-1.1-1.1s-1.2.5-1.1,1.1c.5,3.8,0,7.5-1.3,11.1-.3.9-.6,1.8-1,2.7-.3.8-.6,1.7-1.3,2.1-.8.6-1.7,1-2.6,1.5-.8.5-1.6,1-2.6,1.1l1.1,1.1c-.1-2.9.2-5.6,1.2-8.4.5-1.4-1.7-2-2.2-.6h0Z"/>
    <path class="st0" d="M388.4,531.7c-3.9.2-5.2,4.1-5.7,7.4-.5,3.6-.8,7.3.7,10.8.2.6,1.1.7,1.5.4.6-.3.6-1,.4-1.5-1.1-2.7-.9-5.7-.6-8.5.3-2.2.6-6.2,3.6-6.3,1.4,0,1.5-2.3,0-2.2h0Z"/>
    <path class="st0" d="M389.1,531.8c-.5-2.8-2.4-5.2-3.9-7.6-1.7-2.5-3.3-5.2-5.2-7.5-3.8-4.7-9.7-5.3-15.4-5.6-1.5,0-1.4,2.2,0,2.2,5.3.2,10.6.8,14.1,5.3,1.6,2.1,3,4.5,4.5,6.7s3.3,4.4,3.7,7c.2,1.4,2.4.8,2.2-.6h0Z"/>
    <path class="st0" d="M356.2,520.4c1.5-.8,3-1.7,4.3-2.6.7-.5,1.3-1,1.8-1.7s1-1.3,1.7-2c.4-.4.4-1.2,0-1.6s-1.2-.4-1.6,0c-1.1,1.2-1.9,2.5-3.1,3.4-1.3,1-2.8,1.8-4.2,2.6-.5.3-.7,1-.4,1.5.3.5,1,.7,1.5.4h0Z"/>
    <path class="st0" d="M375.4,550.6c-2.8,4.2-5.6,8.5-8.4,12.7s-5.7,8.2-8.1,12.5-4.3,8.4-7.3,12.1-6.3,6.6-9.6,9.7c-1.1,1,.5,2.6,1.6,1.6,3.4-3.1,6.8-6.2,9.8-9.8s5-7.8,7.3-12,5.3-8.4,8.1-12.5c2.9-4.4,5.8-8.7,8.7-13.1.8-1.2-1.1-2.3-1.9-1.1h0Z"/>
    <path class="st0" d="M333.3,617c1.9-5.4,4.6-10.3,7.6-15.2s5.3-9.8,7.3-15,2.6-10.5,1.3-16-3.9-10.1-7-14.4c-1.6-2.3-3.4-3.9-5.9-5-2.9-1.2-6-2.2-9.1-2.9-1.4-.3-2,1.8-.6,2.2,2.6.6,5.1,1.4,7.6,2.3s4.3,2.1,5.8,4.2c3,4.1,5.6,8.6,6.9,13.6,1.4,5.3.9,10.4-1.1,15.5s-4.2,9.9-7.1,14.5c-3.1,5-5.9,10.1-7.8,15.7-.5,1.4,1.7,2,2.2.6h0Z"/>
    <path class="st0" d="M317.1,568.7c4.7,12.5,8.1,26,6.5,39.4-.4,3-.9,6-2.1,8.8-1.2,3-3.2,5.2-5.9,7-2.4,1.6-4.5,3.3-6.5,5.3s-4.2,4.2-7.2,4.9-6.4,1-9.6,1.3c-3.4.3-6.8.5-10.2.4s-6.5-.7-9.6-1.7-6.3-2.3-9.6-3.1c-6.4-1.5-13-2.2-19.4-3.8-6.3-1.5-12.5-3.6-18.2-6.6-6.8-3.5-12.8-8.3-18.9-12.8-6.6-4.8-13.1-9.7-19.7-14.5-1.2-.9-2.3,1.1-1.1,1.9,6,4.4,12.1,8.9,18.1,13.3s11.5,8.8,17.7,12.5c5.8,3.4,12.1,5.8,18.5,7.6s13.4,2.8,20.2,4.1,13,4.6,19.9,5.3,13.5-.2,20.2-1.1c3.2-.5,5.9-1.5,8.3-3.6,2.2-1.9,4-4.2,6.4-5.9,2.6-1.8,5.2-3.4,7.1-6,1.6-2.3,2.6-5.2,3.2-7.9,3.4-15.1-.5-31-5.8-45.2-.5-1.3-2.7-.8-2.2.6h0Z"/>
    <path class="st0" d="M186.6,594c-4.2-2.9-9.1-4.2-13.8-6.1-5.3-2.2-10.1-5.5-15.1-8.4s-10-6-14.9-8.9c-4.6-2.8-9.4-5.6-13.1-9.5-1.8-1.9-3.5-4.8-2.2-7.4.3-.6.8-1.4,1.4-.5.4.6.1,1.7,0,2.3-.3,1.6-.8,3.1-1.4,4.6-.6,1.3,1.4,2.5,1.9,1.1.6-1.5,1.2-2.9,1.5-4.5.3-1.4.6-3,.1-4.3-.4-1-1.3-1.8-2.4-2-1.2-.2-2.2.6-2.8,1.6-3.7,5.3,2.2,10.9,6,13.9,5.2,4.1,11,7.3,16.7,10.6,5.9,3.6,11.8,7.2,17.9,10.6,3.1,1.7,6.3,3.1,9.6,4.3s6.6,2.4,9.5,4.4c1.2.8,2.3-1.1,1.1-1.9h0Z"/>
    <path class="st0" d="M321,546.9c-4.1,2-8.4,3.6-12.7,4.9-3.9,1.1-8.1,1.6-11.7,3.4-1.5.8-3.2,1.9-3.9,3.6-.5,1.4,0,2.9,1.5,3.3,1.2.3,2.7-.4,2.7-1.8s-1.8-3.2-2.8-4.2c-5.2-5.6-12.5-8.5-18.8-12.8-3.8-2.6-7.3-5.6-10.9-8.5s-7.4-6-11.1-8.9c-8.3-6.5-16.7-12.8-25.3-18.9-1.2-.8-2.3,1.1-1.1,1.9,13.4,9.5,26.3,19.6,39,30,3,2.5,6,4.9,9.2,7,2.8,1.8,5.7,3.4,8.6,5.1s5.7,3.6,8.1,6c.5.5,1.1,1.1,1.6,1.7.3.3.5.6.8,1s.5.8.6.2c0,0-.1,0-.1,0,0-.2,0-.4.2-.6.2-.4.5-.7.9-1,.7-.6,1.6-1.1,2.5-1.5,3.7-1.7,7.9-2.1,11.8-3.3,4.2-1.3,8.2-2.9,12.2-4.8,1.3-.6.2-2.6-1.1-1.9h0Z"/>
    <path class="st0" d="M228.3,507.3c-4.7-4.5-9.5-8.9-13.9-13.7s-7.8-9.6-11.7-14.3c-7.4-8.7-16.8-16.2-28.1-18.6-5.5-1.2-11.3-1.1-16.7.6-4.7,1.5-9,4.1-12.7,7.4-8.3,7.4-13,17.6-15.7,28.2-1.7,6.6-2.6,13.3-3.5,20-1,7.5-1.8,15.1-1.8,22.7,0,1.5,2.3,1.5,2.2,0,0-6.4.6-12.8,1.3-19.2.7-6,1.5-12,2.7-18,2.2-10.6,5.9-21.1,13.3-29.2s16.8-12.1,27.3-10.8c11.3,1.4,20.9,8.4,28.4,16.6,4.4,4.9,8,10.3,12.4,15.2,4.7,5.1,9.9,9.9,14.9,14.7,1,1,2.6-.6,1.6-1.6h0Z"/>
    <path class="st0" d="M193,467.7c2.1-4.6,4.6-8.9,7.7-12.9.4-.5,0-1.3-.4-1.5-.6-.3-1.2,0-1.5.4-3,4-5.6,8.4-7.7,12.9-.2.5-.2,1.2.4,1.5.5.3,1.3.1,1.5-.4h0Z"/>
    <path class="st0" d="M199.7,452.9c-1.6-.2-2.7-2-3.7-3.1-1.3-1.4-2.9-2.5-4.5-3.6-3.7-2.6-7.4-5.2-11.1-7.9s-7.4-5.2-11.1-7.8c-1.7-1.2-3.4-2.5-5-4s-2.9-2.9-4.4-4.3c-3.1-2.9-7-5.1-9.5-8.6-.8-1.2-2.8,0-1.9,1.1,2.3,3.2,5.6,5.5,8.6,8,3.3,2.7,6,6,9.4,8.5,7.6,5.6,15.5,11,23.2,16.5,1.9,1.4,3.8,2.7,5.3,4.5,1.3,1.5,2.6,2.7,4.6,2.9,1.4.2,1.4-2.1,0-2.2h0Z"/>
    <path class="st0" d="M180.5,440.5c3.6-4.2,6.9-8.4,9.2-13.4,2.4-5.3,4.9-10.5,7.8-15.6,2.7-4.8,5.3-9.7,8.3-14.3,1.3-2,2.9-4,4.9-5.3,2.4-1.6,5.1-2.3,7.8-3.1,6.5-1.9,12.9-3.7,19.4-5.6,1.4-.4.8-2.6-.6-2.2-5.9,1.7-11.8,3.4-17.7,5.1-2.7.8-5.4,1.5-7.9,2.6-2.2,1-4.2,2.6-5.7,4.5-3.4,4.1-5.8,9.1-8.5,13.7-2.9,5.1-5.9,10.3-8.3,15.7-1.3,3-2.6,6-4.3,8.7s-3.8,5.1-5.9,7.5c-.9,1.1.6,2.7,1.6,1.6h0Z"/>
    <path class="st0" d="M237.7,383.3c2.6-.8,5.3-1.6,7.3-3.6s2.5-4.5,2.1-7.2c-.7-6.4-2.5-12.8-2.2-19.3.2-3.2,1-6.3,2.4-9.2,1.4-2.7,2.9-5.4,3.8-8.3s1.2-5.9,1.4-8.8.4-6.1-.7-9.1c-2.2-6.2-7.7-10.2-11-15.8-.7-1.2-2.7-.1-1.9,1.1,2.8,4.7,7.1,8.3,9.8,13.1,1.4,2.6,1.9,5.2,1.7,8.1s-.4,5.9-1,8.8c-1.3,5.7-5.2,10.4-6.3,16.2s-.2,11.5.8,17.2c.3,1.7.6,3.3.8,5s.5,3.5-.2,5c-1.4,2.8-4.7,3.7-7.4,4.5-1.4.4-.8,2.6.6,2.2h0Z"/>
    <path class="st0" d="M241.1,301.8c-.6-3.2.1-6.4.4-9.6.3-2.6.2-5.3-.4-7.9-1.1-5-3.7-9.7-7.5-13.2-1.1-1-2.7.6-1.6,1.6,3.7,3.4,6.2,8,7.1,13,1,5.6-1.2,11.1-.2,16.7.2,1.4,2.4.8,2.2-.6h0Z"/>
    <path class="st0" d="M189.4,295.1c-3.1-.3-5.9,1.5-7.5,4.1s-2,6-1.9,9.1c.3,7,3.6,13.5,7.6,19.1,2,2.8,4.2,5.5,6.4,8.1,2.3,2.8,4.6,5.8,7.1,8.4,1.8,1.9,4.5,4.3,7.4,4,3.1-.3,3.6-4,2.6-6.4-.4-1.1-1-1.9-.4-3,.4-.7.7-1.3.9-2,.5-1.6.4-3.3.1-5-.4-1.9-1.2-3.7-2-5.5-.9-2-1.9-4-2.8-6-.6-1.3-2.6-.2-1.9,1.1,1.4,2.9,2.9,5.8,4,8.7.5,1.3.8,2.6.8,3.9,0,1.5-.5,2.6-1.1,3.9-.6,1.1-.6,2.2,0,3.4s1.6,3.2.4,4.2c-.9.8-2.5,0-3.4-.6-1.1-.7-2.1-1.6-3-2.6-2-2.2-3.9-4.6-5.8-6.9s-4-4.7-5.9-7.2c-3.6-4.7-6.8-9.9-8.1-15.7-.7-3.1-.9-6.6,0-9.7s3.2-5.6,6.6-5.3c1.4.1,1.4-2.1,0-2.2h0Z"/>
    <path class="st0" d="M226.3,244.2c1.4,2.3,1.7,5.1,2.1,7.7.5,2.9.9,5.7,1.2,8.6.6,5.5.9,11,.1,16.5-.4,2.6-1,5.2-1.8,7.8s-1.9,5.4-4.3,6.6-5.5,1.5-8.1,1.8c-2.8.3-5.6.4-8.4.6-6.6.3-13.3.7-19.9,1-1.4,0-1.4,2.3,0,2.2,6.4-.3,12.8-.7,19.2-1,3.1-.2,6.3-.3,9.4-.6,2.8-.3,5.7-.6,8.3-1.7,2.4-1,3.8-3.1,4.9-5.5,1.1-2.6,2-5.3,2.5-8,1.2-5.8,1.1-11.8.6-17.7-.3-3.4-.8-6.8-1.4-10.2-.5-3.1-.8-6.5-2.5-9.2-.8-1.2-2.7-.1-1.9,1.1h0Z"/>
    <path class="st0" d="M194.3,341.8c-1.2,9.5-4.8,18.7-10.3,26.6-.8,1.2,1.1,2.3,1.9,1.1,5.7-8.3,9.3-17.8,10.6-27.7.2-1.4-2.1-1.4-2.2,0h0Z"/>
    <path class="st0" d="M184.3,367.4c-2,4.6-4.8,8.8-8.2,12.4s-7.2,7.1-10.6,11-6.3,7.8-9.4,11.8-6.1,8.1-9.8,11.6c-4.3,4-10.3,5.9-15.7,8-1.3.5-.8,2.7.6,2.2,2.5-1,5-2,7.4-3s4.9-2.1,7.1-3.7c4.1-3,7.2-7.3,10.4-11.3s6.4-8.3,9.7-12.4,7.1-7.6,10.7-11.4c4-4.1,7.4-8.8,9.7-14,.6-1.3-1.4-2.5-1.9-1.1h0Z"/>
    <path class="st0" d="M228.7,243.9c-5.3-10.6-16.7-16.2-27.8-18.9-13.5-3.2-27.9-2.9-41.5-.4-7.2,1.3-14.2,3.2-21.1,5.6-6.5,2.3-13,5-19,8.4s-11.5,7.7-16.1,13-8.4,11-12.3,16.8c-8.6,13-16.8,26.7-20,42.2-.3,1.4,1.9,2,2.2.6,2.8-13.3,9.3-25.4,16.6-36.8s14.6-23.2,25.9-30.8c5.6-3.8,11.8-6.7,18.1-9.2,6.3-2.5,13.2-4.7,20-6.3,13.6-3.1,27.9-4.1,41.8-1.8,12.1,2,25.4,7.1,31.2,18.8.6,1.3,2.6.2,1.9-1.1h0Z"/>
    <path class="st0" d="M70.1,309.6c-.8,9.3-1.6,18.6-2.3,27.9s-1.8,18.1-1.1,27.2,2.7,17.1,5.3,25.3c1.3,4.2,2.8,8.3,4.3,12.4s2.9,8,4.7,11.8c3.8,8.4,10.5,14.5,17.4,20.4,1.1.9,2.7-.6,1.6-1.6-6-5.1-12.1-10.4-15.9-17.5-1.9-3.7-3.3-7.6-4.8-11.5s-3-8.1-4.3-12.1c-2.7-8.2-4.9-16.5-5.8-25.1s-.1-17.5.6-26.3l2.6-30.8c.1-1.4-2.1-1.4-2.2,0h0Z"/>
    <path class="st0" d="M105,435.4c5-1.6,10.1-3,15-4.8,4.6-1.6,8.3-4.7,12.8-6.6,1.3-.5.7-2.7-.6-2.2-4.4,1.9-8.2,5-12.8,6.6-4.9,1.8-10,3.2-15,4.8-1.4.4-.8,2.6.6,2.2h0Z"/>
    <path class="st0" d="M76.6,406.6c-1,.2-2.1-.2-3.1.1-1.2.4-1.6,1.5-1.7,2.6-.2,2.7-.2,5.5,0,8.3,0,1.2.4,2.1,1.4,2.8,1.1.7,2.4,1.2,3.6,1.6,2.5,1,5.1,1.5,7.8,1.8.6,0,1.1-.6,1.1-1.1s-.5-1.1-1.1-1.1c-2.1-.2-4.2-.7-6.3-1.4-1-.3-2-.7-2.9-1.2-.3-.2-.9-.3-1.2-.6-.2-.3-.2-.7-.2-1.1,0-2.2,0-4.5,0-6.7,0-.5,0-1,0-1.4,0-.3.2-.4.5-.4.9,0,1.7.2,2.6,0,1.4-.3.8-2.5-.6-2.2h0Z"/>
    <path class="st0" d="M76.3,421c-1.5.9-2.3,2.4-2.8,4-.7,2-1.3,4.2-1.9,6.3-1.2,4.5-2.3,9.1-3.2,13.6-.3,1.4,1.9,2,2.2.6.8-4.1,1.7-8.3,2.8-12.3.6-2,1.1-4.1,1.8-6.1.5-1.5.8-3.3,2.3-4.2,1.2-.8,0-2.7-1.1-1.9h0Z"/>
    <path class="st0" d="M68.4,445.2c.8,8.6-1.4,17.5-3,25.9-2.2,11.3-4.8,22.6-6.9,34-3.5,18.9-5,38-6.5,57.1-1,12.3-1.9,24.6-3.2,36.9-1.5,13.2-3.7,26.4-6.4,39.5s-5.7,25.9-9.1,38.7c-3.1,11.6-7.4,22.8-12,33.9-9,21.8-19.2,43.9-21.2,67.7-.2,2.9-.4,5.8-.4,8.6s2.2,1.5,2.2,0c0-24.2,9.4-46.8,18.6-68.7,4.6-11.1,9.3-22.2,12.8-33.7,3.8-12.4,6.8-25.1,9.5-37.8s5.3-26,7.1-39.2c1.7-12.6,2.7-25.2,3.8-37.9,1.5-19.2,2.7-38.5,5.8-57.5,1.8-11.5,4.4-22.8,6.7-34.2,1.9-9.4,4.1-19,4.5-28.6,0-1.6,0-3.2,0-4.8-.1-1.4-2.4-1.4-2.2,0h0Z"/>
    <path class="st0" d="M-.1,781c-1.6,28.7-2.9,58.9,7.8,86.1,2.4,6.2,5.6,12,8.9,17.7,1.7,2.8,3.4,5.6,5.5,8.2,1.7,2.2,3.7,3.9,5.8,5.8,4.3,3.8,8.8,8.2,14.2,10.4,3.5,1.4,7.4,2.2,11.1,3.1,3.9,1,7.9,1.8,11.9,2.5,14.2,2.6,28.6,3.6,43,3.5,13.5,0,27.1-1.2,40.5-2.2,13.6-1,27.2-2,40.9-2,15.4,0,30.5-1.1,45.6-3.8,30.2-5.4,59.3-15.5,88.9-23.5,3.8-1,7.6-2,11.5-3,1.4-.3.8-2.5-.6-2.2-29.5,7.3-58.2,17.5-87.9,24-14.8,3.3-29.9,5.5-45.1,6.1-7.2.3-14.4,0-21.6.2-6.7.2-13.4.6-20.1,1-27,1.9-53.9,4.7-80.9,1.6-7.6-.9-15.1-2.2-22.6-3.9-3.9-.9-7.8-1.9-11.6-3-2.9-.8-5.3-2.2-7.8-4s-4.9-4-7.3-6c-2-1.8-4.1-3.5-5.9-5.6-4-4.9-7.2-10.7-10.1-16.3-13.4-25.7-13.7-55.8-12.4-84.1.2-3.5.4-7,.6-10.5,0-1.5-2.2-1.4-2.2,0h0Z"/>
    <path class="st0" d="M210,614.9c-2.9,3.5-4,7.9-5.2,12.2-1.4,5-2.7,9.9-3.9,14.9-2.4,9.8-4.6,19.7-6.6,29.7-3.9,20.1-6.7,40.4-8.5,60.8-.5,5.7-.9,11.4-1.2,17.1-.3,5.3-.1,11-2.5,15.9-.6,1.3,1.3,2.4,1.9,1.1,2-4.2,2.4-8.7,2.6-13.3.2-5,.6-9.9.9-14.9.8-10.2,1.8-20.4,3.1-30.5,2.6-20.2,6.3-40.4,11.1-60.2,1.3-5.5,2.7-10.9,4.2-16.4.7-2.7,1.4-5.4,2.3-8,.8-2.5,1.7-4.9,3.4-6.8.9-1.1-.6-2.7-1.6-1.6h0Z"/>
    <path class="st0" d="M148.8,766.8c29.9,6,60.4,2.9,90.4-.3,15-1.6,30.1-3.3,45.1-4,15.7-.7,31.4-.3,47-.6,17.6-.4,35.2-1.2,52.8-2.1,1.4,0,1.5-2.3,0-2.2-15.8.8-31.5,1.5-47.3,1.9s-31.1.1-46.7.5c-30.2.8-60.1,6.2-90.3,7.7-16.9.8-33.9.3-50.5-3-1.4-.3-2,1.9-.6,2.2h0Z"/>
    <path class="st0" d="M203.9,650.4c7,4.5,14.9,7.3,22.9,9.5,4,1.1,8,2.2,12,3.1s8.4,1.2,12.3-.4c1.3-.5.8-2.7-.6-2.2-3.9,1.6-8,1.1-12,.2s-7.7-1.9-11.6-3c-7.7-2.2-15.2-4.8-21.9-9.2-1.2-.8-2.4,1.2-1.1,1.9h0Z"/>
    <path class="st0" d="M245.1,651c3.5,2.8,6.6,6.1,8.9,10s3.4,8.3,6.9,11.2c3.2,2.7,7.4,4,11.5,4.7,4.8.9,9.6,1.5,14.3,3s8.9,3.3,13.5,4.4c2.2.6,4.5,1,6.8,1.1,1.9,0,3.9,0,5.5-1s2.5-3,3-4.9.2-3.8-1.2-5.3-3.3-2.2-5.2-2.5-4.7-.5-6.5.4c-3.9,2.1-2.1,7.8.7,10,1.7,1.3,4,2,5.9.7s3.3-3.3,4.2-5.3c.6-1.3-1.3-2.5-1.9-1.1-.7,1.6-1.7,3-3.1,4.2-.8.7-1.4.9-2.4.5-.8-.3-1.5-.8-2.1-1.4-1-1.1-1.5-2.7-1.1-4.2.6-2,2.9-1.7,4.6-1.7,1.8,0,3.7.3,5,1.7,1.4,1.4,1,3.1.4,4.8-1.5,3.8-6.2,3-9.5,2.4-7.5-1.4-14.4-5-21.9-6.6-6.9-1.4-15.7-1.2-20.6-7.2-1.4-1.7-2.1-3.7-3-5.6-.8-1.8-1.8-3.5-2.9-5.1-2.3-3.3-5.1-6.3-8.3-8.8-1.1-.9-2.7.7-1.6,1.6h0Z"/>
    <path class="st0" d="M293.9,665.7c6.5-.3,13.1-.6,19.6.4s12.2,3.8,17.9,7c2.9,1.6,5.8,3.3,8.7,5s5.4,3.4,8.3,4.8c2.6,1.3,5.3,2.3,8.1,2.7,2.4.3,5.7.4,7.7-1.2,2.3-1.9.9-5-.6-7-1.6-2.3-4-4-6.7-4.7-.7-.2-1.4.4-1.4,1.1,0,3.2,1.9,5.9,4.8,7.1,1.4.5,1.9-1.7.6-2.2-2-.8-3.2-2.8-3.2-4.9l-1.4,1.1c2.3.6,4.2,2,5.6,4,.5.8,1.6,2.4,1.3,3.3s-2,1.2-2.9,1.3c-5.7.7-11-2.4-15.7-5.3-5.1-3.1-10.2-6.1-15.5-8.8s-10.3-4.7-16-5.5c-6.4-.9-12.9-.6-19.3-.3-1.4,0-1.5,2.3,0,2.2h0Z"/>
    <path class="st0" d="M336.2,659.1c4.6,1.9,8.5,4.7,12.1,8s8.4,5.9,12.6,8.6,8.8,5,13.8,6c3.2.6,9.5,1.7,10.1-3,.3-2.2-1.1-4.1-2.8-5.4-2.1-1.6-4.6-2.8-7.2-3.4-.7-.2-1.5.3-1.4,1.1.2,4.4,4.5,7.4,8.7,5.9,1.4-.5.8-2.7-.6-2.2-2.8,1-5.7-.7-5.9-3.7l-1.4,1.1c2,.5,3.9,1.3,5.7,2.5,1.3.8,3.9,2.9,2.4,4.6-1.1,1.3-3.8.8-5.3.6-2.1-.3-4.3-.8-6.3-1.6-4.2-1.5-7.9-4-11.7-6.4-2-1.2-3.9-2.5-5.8-3.8s-3.4-2.7-5.1-4.2c-3.4-3-7.2-5.3-11.4-7-1.3-.5-1.9,1.6-.6,2.2h0Z"/>
    <path class="st0" d="M385.9,675.3c.2-.8.4-1.6.5-2.5s-.1-1.7-.5-2.5c-.2-.5-1.1-.7-1.5-.4-.5.3-.7,1-.4,1.5.1.2,0-.2,0,0,0,0,0,.2,0,.2,0,0,0,.1,0,.2,0,0,0,.2,0,.2,0-.2,0-.2,0,0,0,0,0,0,0,.2v.2c0,.2,0,.3,0,.5,0,0,0,.2,0,.3h0c0,0,0,0,0,0,0,.2,0,.3-.1.5,0,.3-.2.7-.3,1-.1.6.2,1.2.8,1.4s1.2-.2,1.4-.8h0Z"/>
    <path class="st0" d="M384.6,669.7c-1.3.5-2.7,1-4.1.6-.7-.2-1.3-.6-1.9-1-.3-.2-.7-.4-1-.5-.1,0-.2-.1-.3-.2,0,0,0,.2,0,0,0-.6-.6-1.1-1.1-1.1s-1,.5-1.1,1.1c-.1,1.1.8,1.8,1.6,2.3s1.7,1,2.6,1.4c1.9.8,3.9.3,5.8-.4.6-.2,1-.8.8-1.4-.1-.5-.8-1-1.4-.8h0Z"/>
    <path class="st0" d="M376.5,669.6c1.3-.2,2.5.2,3.7.7,1.4.5,2.8,1.1,4.1,1.6.6.2,1.2-.2,1.4-.8.2-.6-.2-1.2-.8-1.4-1.5-.6-2.9-1.1-4.4-1.7s-3-.8-4.6-.6c-.6,0-.9.8-.8,1.4.2.7.8.9,1.4.8h0Z"/>
    <path class="st0" d="M376.9,667.3c-13.6-6.5-27.5-12.1-41.4-17.8-1.3-.5-1.9,1.6-.6,2.2,13.7,5.7,27.5,11.2,40.9,17.6,1.3.6,2.4-1.3,1.1-1.9h0Z"/>
    <path class="st0" d="M355.2,660.2c.7,1.6,2.3,2.6,3.7,3.6,1.6,1.2,3.2,2.4,5,3.4,3.4,1.9,6.9,3.5,10.6,4.8,1.4.5,2-1.7.6-2.2-3.4-1.2-6.7-2.6-9.8-4.4-1.5-.9-3-1.8-4.4-2.9-1.3-1-3-1.9-3.7-3.4-.6-1.3-2.5-.2-1.9,1.1h0Z"/>
    <path class="st0" d="M297.4,642.2c6.9,1.4,13.9,2,20.9,2,1.7,0,3.3,0,4.8.8,1.3.7,2.5,1.6,3.7,2.5,2.4,1.9,5,3.4,8,4.3,1.4.4,2-1.7.6-2.2-3.1-1-5.6-2.7-8.1-4.7s-4.8-3.1-8-3.1c-3.5,0-7,0-10.5-.3s-7.2-.9-10.8-1.6c-1.4-.3-2,1.9-.6,2.2h0Z"/>
    <path class="st0" d="M320.3,626.3c14.8-2.4,29.8.1,44.6.7,15,.5,30,.2,44.9,0,4.1,0,8.2-.2,12.2-.3,2.1,0,4.1,0,6.2,0,.2,0,.7,0,1,0,.7.3,0,.7-.5.9-.9.4-1.9.3-2.9,0l.5,1.9c2.2-2.4,6.3-.9,6,2.5-.2,2.4-2.8,2.1-4.6,2.2-2,0-4,.1-6.1,0-8.2-.3-16.3-1.7-24.5-2.4s-16.5-.6-24.7-.6-16.6-.4-24.9-1.1c-9.4-.8-18.7-2-28-3.2-1.4-.2-1.4,2.1,0,2.2,9.2,1.2,18.5,2.4,27.8,3.2,9.3.8,18.5,1.2,27.8,1.2,9.2,0,18.2,0,27.3,1.1,9.1,1,18.3,2.5,27.4,1.7,2-.2,3.6-.7,4.4-2.7.6-1.6.4-3.5-.6-5-2-3.1-6.5-3.3-8.9-.6-.6.6-.3,1.6.5,1.9,1.5.5,3.1.5,4.5-.2,1.2-.6,2.4-1.9,1.9-3.4-.4-1.4-1.8-1.7-3-1.8-2.1-.2-4.1-.1-6.2,0-8.4.1-16.8.4-25.1.5-8.3,0-16.6.2-24.9,0s-16.7-.7-25-1.3c-9.3-.7-18.6-1-27.8.5-1.4.2-.8,2.4.6,2.2h0Z"/>
    <path class="st0" d="M435.1,634.5c7.6-4.4,15.2-8.7,22.7-13.1,3.8-2.2,7.5-4.3,11.3-6.5,2-1.1,3.9-2.2,5.9-3.4,1.4-.8,2.6-1.8,2.8-3.6.2-1.8-.3-3.8-.6-5.6-.3-1.6-.4-3.4-2-4.2-1.5-.7-3.5-.5-5.1-.5-2.1,0-4.3,0-6.4.1-4.2.3-8.3,1-12.5,1.1s-8.6.1-12.9.1c-9.7,0-19.4,0-29.2-.2-1.5,0-1.5,2.2,0,2.2,8.1.2,16.1.3,24.2.3s15.7.2,23.4-.5c4-.4,7.9-1,11.9-.9,1.6,0,3.4,0,5,.2,1,.2,1.1,1,1.2,1.9.2,1.1.4,2.3.5,3.4.1.8.4,1.8.1,2.7s-1,1.2-1.6,1.5c-1.9,1.1-3.8,2.2-5.6,3.2-3.5,2-6.9,4-10.4,6-7.9,4.6-15.9,9.2-23.8,13.7-1.2.7-.1,2.7,1.1,1.9h0Z"/>
    <path class="st0" d="M334.7,613.2c3.9,1.7,8,2.1,12.2,1.6s7.9-2.2,11.8-3.9c2.1-.9,4.2-1.1,6.5-1s4.5,0,6.7-.7,4.1-1.9,6.2-2.9c2.1-1.1,4.3-2.2,6.4-3.2,1.3-.7.2-2.6-1.1-1.9-2,1-4,2-6,3s-4,2.2-6.1,2.9c-4,1.5-8.3,0-12.3,1.4-1.8.7-3.5,1.6-5.3,2.3s-3.8,1.3-5.8,1.7c-4,.7-8.2.5-12-1.1-1.3-.6-2.5,1.4-1.1,1.9h0Z"/>
    <path class="st0" d="M382.7,605.5c4.4.7,8.6-2.7,8.1-7.3-.3-2.3-1.7-4.4-2.5-6.6-.9-2.5-1.6-5.1-2-7.7-.3-2.4-.2-5.2,1.7-6.9,1.8-1.5,4.8-.8,6.5.6,1.8,1.5,2.9,4.2,3.7,6.3.8,2.4,1.3,4.9,1.4,7.4s0,6.6-3.4,6.8c-1.6,0-2.7-.3-4-1.2-1.1-.8-2.2-1.6-2.9-2.8s-2.7-.1-1.9,1.1c2.3,3.8,9.1,7.4,12.8,3.3,1.9-2.1,1.9-5.3,1.8-8-.2-2.8-.8-5.7-1.8-8.3-1-2.3-2.2-5-4.3-6.6-1.8-1.4-4.9-2.3-7.2-1.5-5.8,2-4.9,9.3-3.7,14,.4,1.6.9,3.1,1.5,4.7s1.4,2.8,1.9,4.3c1.2,3.3-1.3,6.8-4.9,6.2-1.4-.2-2,1.9-.6,2.2h0Z"/>
    <path class="st0" d="M390.9,605.4c2-.5,4.2-1,5.9-2.3,1.6-1.2,2.8-2.8,3.6-4.7.2-.5.2-1.2-.4-1.5-.5-.3-1.3-.2-1.5.4-.7,1.5-1.6,2.9-2.9,3.9-1.5,1.2-3.4,1.6-5.2,2-1.4.3-.8,2.5.6,2.2h0Z"/>
    <path class="st0" d="M391.6,574.3c-2.1-2.3-4.8-4-7.7-4.8-1.7-.5-3.5-.7-5.2-1-1.9-.3-3.8-.5-5.7-.4-1.4,0-1.5,2.3,0,2.2,1.8,0,3.5,0,5.3.4,1.6.2,3.2.5,4.8.9,2.7.7,5.1,2.3,7,4.3,1,1.1,2.6-.5,1.6-1.6h0Z"/>
    <path class="st0" d="M372.1,568.5l-3.9,1.1c-1.3.4-1,2.1.3,2.2,1.8.1,3.5.3,5.2,1,1.5.6,2.9,1.5,4.3,2.5.6.4,1.3.9,1.9,1.4.7.6,1.2,1.3,1.7,2,1,1.3,2.4,2.7,2.6,4.4,0,.6.9.9,1.4.8.6-.2.9-.8.8-1.4-.3-1.9-1.8-3.4-2.9-4.9-.6-.8-1.1-1.6-1.8-2.2s-1.6-1.2-2.4-1.8c-1.5-1-3.1-2-4.8-2.7-2-.8-4-1.1-6.1-1.2l.3,2.2,3.9-1.1c1.4-.4.8-2.6-.6-2.2h0Z"/>
    <path class="st0" d="M366.2,570.3l-3.6,1.2c-.6.2-1,.8-.8,1.4.2.6.8,1,1.4.8l3.6-1.2c.6-.2,1-.8.8-1.4-.2-.6-.8-1-1.4-.8h0Z"/>
    <path class="st0" d="M373.9,570.1c1.9-.4,3.6-1.5,5.2-2.4s3.1-2,4.5-3.1c2.9-2.3,5.4-4.9,7.6-7.9.9-1.2-1.1-2.3-1.9-1.1-2,2.7-4.4,5.2-7,7.3-1.3,1-2.6,2-4,2.8-1.5.9-3.2,1.9-4.9,2.3-1.4.3-.8,2.5.6,2.2h0Z"/>
    <path class="st0" d="M391.3,556.4c.4-1,1.2-1.8,2.2-2.2.3,0,.6-.2.9-.2.3,0,.5.1.2-.3-.1-.2.2-.2-.1,0-.1,0-.2.1-.3.2-.3.1-.6.2-.9.2-1.4.1-2.8-.6-3.9-1.3s-2.3-1.6-2.9-2.9c-.2-.5-1-.7-1.5-.4-.6.3-.7,1-.4,1.5.7,1.5,2.1,2.5,3.4,3.5,1.4,1,3,1.8,4.8,1.9,1.5,0,4.2-.6,4.1-2.6,0-2.2-2.7-2.2-4.2-1.6-1.7.7-3,2-3.6,3.7-.2.6.2,1.2.8,1.4.6.2,1.2-.2,1.4-.8h0Z"/>
    <path class="st0" d="M431.4,524.4c2.4,4.1,4,8.4,5.6,12.8s4.3,8,6.4,12.1,4.4,8.4,6,12.8c.4,1,.7,2.1.9,3.2.2,1,.4,2.5,0,3.4s-1.8.6-2.6.3c-.6-.2-2.4-1.5-1-1.9,2.2-.6,2.3,4.4,2.4,5.5.1,2.3-.4,5-2.5,6.3-1.2.8,0,2.7,1.1,1.9,2.2-1.4,3.3-3.7,3.6-6.2.2-1.5,0-3-.2-4.5-.2-1.3-.4-2.7-1.3-3.8-1.2-1.6-4-2.2-5.4-.3-1.5,2.2.6,4.5,2.6,5.1,2.3.7,5,.3,5.5-2.4.6-2.9-.4-6-1.5-8.7-2.5-5.9-5.4-11.8-8.8-17.3-.9-1.4-1.8-2.8-2.4-4.4-.7-1.7-1.2-3.4-1.8-5.1-1.2-3.5-2.8-6.8-4.6-9.9-.7-1.2-2.7-.1-1.9,1.1h0Z"/>
    <path class="st0" d="M447,578.5c-3.8,7.6-12.5,11.2-20.4,12.9-4.3,1-8.8,1.1-13.1,2.1s-8.5,2.4-12.4,4.3c-1.3.6-.2,2.6,1.1,1.9,4.2-2,8.7-3.5,13.2-4.4s9.1-1.1,13.5-2.3c7.8-2.1,16.2-5.9,20-13.5.6-1.3-1.3-2.4-1.9-1.1h0Z"/>
    <path class="st0" d="M408,597.3c2-3.1,4.1-6.3,4.7-10s-.4-7.4-2-10.8-3.7-6.4-6.8-8.3-7.2-2.8-10.9-3.5c-4.5-.8-9-1-13.4.1-1.4.3-.8,2.5.6,2.2,4.6-1.1,9.4-.8,14,.2,4.1.9,8.5,2,11.3,5.3,2.7,3.1,5,7.6,5.2,11.7.2,4.5-2.3,8.3-4.6,11.9-.8,1.2,1.2,2.3,1.9,1.1h0Z"/>
    <path class="st0" d="M405.3,453c-2.4-2.4-4.7-5-6.4-8-1.6-2.7-2.4-5.6-3-8.7-1.1-5.6-2.2-11.4-7.4-14.7-2.6-1.6-5.6-2.5-8.5-3.3-3.6-1.1-7.2-2.2-10.9-3.3s-7.3-2.2-11-3.1-7.4-1.3-10.9-2.5c-4-1.2-7.7-3.1-11.5-4.8s-7.9-3.6-11.8-5.4c-1.3-.6-2.5,1.3-1.1,1.9,6.7,3.1,13.4,6.4,20.3,9.2,3.4,1.4,6.8,2.2,10.4,2.9s7.2,1.6,10.8,2.7,7.2,2.2,10.8,3.3c3.2,1,6.6,1.8,9.7,3.1,2.9,1.2,5.2,3,6.6,5.9,1.3,2.6,1.7,5.6,2.2,8.4.7,3.4,1.6,6.6,3.3,9.6s4.2,5.9,6.8,8.5c1,1,2.6-.6,1.6-1.6h0Z"/>
    <path class="st0" d="M253.6,372.3c4.7,10,10.9,19.7,19.9,26.4s20.3,9.9,30.9,6.9,17.8-11.6,21.9-21.2c2.4-5.7,3.7-11.8,4.5-17.9s1.2-12.2,1.3-18.4c0-13.7-2.1-27.5-7.7-40.1-.6-1.3-2.5-.2-1.9,1.1,4.8,10.8,6.9,22.5,7.3,34.2.2,5.7,0,11.4-.5,17.1s-1.4,11.9-3,17.6c-2.9,9.9-8.8,19.6-18.5,24s-21.2,2.2-29.9-3.2c-10.2-6.4-17-17-22-27.7-.6-1.3-2.6-.2-1.9,1.1h0Z"/>
    <path class="st0" d="M323.2,307.6c-3.5-2.3-7.1-4.4-11-6s-8-2.6-12.2-2.9-8.7-.5-13-.5-8.5.3-12.5,1.3c-3.6.9-7.5,2.3-10.2,5-2.9,2.9-3.5,7.3-4.5,11.2-2.4,9.2-4.8,18.3-7.1,27.5-.6,2.3-1.1,4.6-1.3,7s.3,4.8.6,7.2c.8,5.3,1,10.7.9,16,0,1.5,2.2,1.5,2.2,0,.1-4.4,0-8.8-.5-13.2s-1.4-8.5-.6-12.8,2.1-8.6,3.2-12.8,2.2-8.5,3.3-12.8c.6-2.2,1.1-4.4,1.7-6.5.5-2,.9-4,1.6-5.9,1.4-3.8,4.9-5.6,8.5-6.9,7.7-2.6,16-2.1,24-1.7,4.7.2,9.3.8,13.8,2.5s8.2,4,12,6.4c1.2.8,2.4-1.2,1.1-1.9h0Z"/>
    <path class="st0" d="M334,351.1c-.5-3,.6-5.9,1.5-8.7.8-2.6,1.5-5.2,1.8-7.9.7-5.1.4-10.2-.5-15.3-1.8-10.2-6.4-20.4-12.8-28.6-3.3-4.2-7.3-7.4-12.3-9.3-5.3-2-11-3-16.6-3.4s-11.7-.3-17.5-.2c-5,0-10.6-.7-15.2,1.6-2.5,1.3-4.3,3.5-5.9,5.8-1.9,2.8-3.8,5.6-5.7,8.4-1.7,2.6-3.1,5.2-3.7,8.3s-.6,6.4-.6,9.5c0,1.5,2.3,1.5,2.2,0,0-2.8-.1-5.5.4-8.3s1.4-5,2.9-7.3,3.1-4.6,4.7-6.9c1.5-2.2,2.9-4.6,4.9-6.3,3.8-3.3,9.5-2.6,14.1-2.6,5.6,0,11.2-.2,16.8,0s10.9.9,16.1,2.6,9.2,4.1,12.6,8.1c3.2,3.8,5.8,8.2,7.9,12.7s3.9,9.3,5,14.2c1.2,5.5,1.6,11.3.8,17-.4,2.9-1.3,5.6-2.1,8.4s-1.5,5.6-1,8.6c.2,1.4,2.4.8,2.2-.6h0Z"/>
    <path class="st0" d="M265,304.6c-1.8-3.2-.8-7.8,0-11.2,1-3.7,2.8-7.2,6.1-9.3,3.1-2,6.8-2.7,10.4-3.1,4.4-.5,8.8-.7,13.1-1,1.4-.1,1.5-2.4,0-2.2-3.9.3-7.9.5-11.8.9-3.2.3-6.4.7-9.4,1.8s-5.6,2.9-7.5,5.5-3,5.8-3.6,9c-.7,3.6-1.2,7.5.6,10.8.7,1.3,2.6.1,1.9-1.1h0Z"/>
    <path class="st0" d="M250.9,391.3c-2.8,2.2-6.4,2.9-9.8,3.6-3.7.8-7.4,1.7-11.1,2.7-7.4,2.2-14.7,5-21.6,8.4-3.8,1.9-7.7,3.9-12.1,3.6-1.4-.1-1.4,2.1,0,2.2,3.8.3,7.4-1.1,10.8-2.8,3.6-1.7,7.2-3.5,11-5,7.5-3,15.2-5.3,23.2-7,4-.8,7.9-1.7,11.2-4.3,1.1-.9-.5-2.5-1.6-1.6h0Z"/>
    <path class="st0" d="M251,390.7c-1.9,4.3-2.8,8.8-2.3,13.5s2,9.4,3.2,14c2.4,9.4,4.7,18.8,8.5,27.7.4.9,1.9.6,2.1-.3.7-4.4,2-8.8,5-12.2,2.8-3.2,6.7-5.1,10.8-6.1,4.6-1.1,9.9-1.3,14.5-.5s8.5,3.9,11.7,7.1c3.7,3.7,5.5,8.6,7.2,13.4.4,1.1,2.4,1,2.2-.3-.9-8.2,2.6-16.1,4-24.1s1.8-16.5,1.4-24.7c0-1.4-2.3-1.5-2.2,0,.4,8.4,0,16.8-1.5,25.1s-4.8,15.7-3.9,23.8l2.2-.3c-1.6-4.7-3.3-9.4-6.6-13.1-1.6-1.9-3.6-3.5-5.6-5.1s-4.1-2.9-6.5-3.5-5-.7-7.5-.8c-2.7,0-5.5.1-8.2.6-4.5.8-9,2.6-12.4,5.8-4.1,3.8-5.9,9.1-6.8,14.5l2.1-.3c-3.6-8.4-5.8-17.4-8.1-26.2-1.1-4.4-2.5-8.8-3.2-13.3s0-9.2,1.9-13.5c.6-1.3-1.4-2.5-1.9-1.1h0Z"/>
    <path class="st0" d="M317.5,397.8c-2.7,14.9-19.3,20.1-30.7,26.6l1.6.7c-.9-2.7-4-3.3-6.4-4.2-3.3-1.3-6.4-2.8-9.3-4.8-2.7-1.9-5.1-4.1-7.5-6.4s-4.8-4.5-6.9-7.1c-4.2-5.4-4.8-12.1-4.6-18.8.2-7.2,1-14.5,0-21.7-.5-3.4-1.4-6.8-2.8-9.9-.9-2-3.4-7.6-6.4-5.8-1.2.7-.1,2.7,1.1,1.9.5-.3,2.4,3.2,2.6,3.5.8,1.4,1.4,2.8,1.9,4.3.9,2.8,1.5,5.8,1.7,8.8.6,6.9-.3,13.7-.4,20.6,0,6.1.7,12.3,4.4,17.4,1.7,2.4,3.8,4.5,5.9,6.5,2.3,2.2,4.5,4.4,7,6.4,2.7,2.2,5.7,4.1,8.9,5.6,1.6.7,3.2,1.4,4.9,2,1.2.4,3.3.9,3.8,2.2.2.7,1,1,1.6.7,12-6.8,29-12.3,31.8-27.9.2-1.4-1.9-2-2.2-.6h0Z"/>
    <path class="st0" d="M242.8,360.3c.2,2.5.5,4.9.9,7.4.2,1.2.3,2.4.9,3.5.4.9,1.2,1.6,2,2.1,1.8,1.1,4.3.8,5.8-.8.7-.8,1.1-1.8,1.5-2.8.4-1.2.6-2.4.5-3.6,0-.6-.5-1.1-1.1-1.1s-1.2.5-1.1,1.1c.1,1,0,1.9-.4,2.8-.2.7-.5,1.4-.9,2-.9,1.1-2.6,1.1-3.6.2-1.3-1.2-1.3-3.2-1.5-4.8-.3-2-.5-4-.7-6,0-.6-.5-1.1-1.1-1.1s-1.2.5-1.1,1.1h0Z"/>
    <path class="st0" d="M331.6,358.3c.4-1.6,1-3.2,1.8-4.7.3-.6.7-1.3,1.4-1.5.8-.3,1.3.4,1.5,1.1.4,1.5,0,3.5-.2,5-.2,1.8-.6,3.5-1,5.2-.8,3.3-1.8,6.6-2.6,9.9-.2.9-.6,4-1.9,3.9-.9,0-.8-4.1-.9-4.9-.1-1.4-2.4-1.5-2.2,0,.2,2.5-.2,8.3,4,7,1.5-.5,2.2-1.9,2.6-3.3.6-1.9,1-3.9,1.6-5.8,1.1-3.9,2.1-7.7,2.6-11.7.4-2.7,1.3-7.9-2.5-8.7s-5.6,5.3-6.3,8c-.4,1.4,1.8,2,2.2.6h0Z"/>
    <path class="st0" d="M270.1,431c3.6,2.6,5.2,7,6.9,10.9.7,1.5,1.3,3.8,3.2,4.1.9.1,1.8-.3,2.6-.5,1.1-.3,2.3-.6,3.5-.8s2.4-.2,3.6-.3c.8,0,1.6-.2,2.2-.7.7-.6.9-1.6,1.4-2.4s.9-1.4,1.5-2.1c2.4-2.7,5.4-4.8,7.6-7.8.9-1.2-1.1-2.3-1.9-1.1-2,2.7-4.8,4.6-7,7-1,1.1-1.9,2.4-2.6,3.8-.6,1.2-1.2,1-2.4,1.1-1,0-1.9.2-2.9.3-1,.2-2,.4-3,.7-.5.1-.9.3-1.4.4-.7.2-.9.3-1.3-.4-1-1.7-1.6-3.7-2.4-5.5-1.5-3.4-3.4-6.5-6.4-8.7-1.2-.9-2.3,1.1-1.1,1.9h0Z"/>
    <path class="st0" d="M278.8,445.6c2,5.9-1.8,11.6-4,16.8s-3.3,11.1-4.2,16.8c-1.8,12.3-3.6,24.7-4,37.1-.2,7.1.1,14.2,1.1,21.2.2,1.4,2.4.8,2.2-.6-1.9-12.5-1.2-25.2.2-37.7.7-6.3,1.6-12.6,2.5-19,.8-5.7,1.8-11.5,4.1-16.8,2.5-5.9,6.3-11.9,4.1-18.5-.5-1.4-2.6-.8-2.2.6h0Z"/>
    <path class="st0" d="M298.4,553.8c1.3-15.3,1.9-30.8,2.3-46.1.2-7.6.3-15.2.4-22.9s.6-14.5-1.8-21.5-6.2-13.2-6.8-20.5c-.1-1.4-2.4-1.5-2.2,0,.5,6.5,3.5,12.4,5.8,18.3,1.2,3,2.3,6.1,2.6,9.4.4,3.7.2,7.5.2,11.3-.2,15.4-.4,30.8-1.1,46.2-.4,8.6-.9,17.2-1.6,25.8-.1,1.4,2.1,1.4,2.2,0h0Z"/>
    <path class="st0" d="M260.2,449.3c.6,12.4.8,24.8.5,37.2-.1,6.1-.5,12.2-.8,18.3-.1,3-.2,6.1.2,9.1s1.1,5.9,1.4,9c.5,5.5.8,11.9,6.2,15,1.3.7,2.4-1.2,1.1-1.9-4.9-2.8-4.6-9.2-5.1-14-.3-2.7-.9-5.4-1.3-8.1-.4-3-.4-6-.2-8.9.6-11.8,1-23.6.9-35.4,0-6.7-.3-13.4-.6-20.1,0-1.4-2.3-1.5-2.2,0h0Z"/>
    <path class="st0" d="M310.4,449.2c-3.6,13.5-2.4,27.7-2.9,41.5-.5,14.3-1.7,28.6-1.1,43,.2,3.9.5,7.8.9,11.7.1.9.2,1.8.4,2.7,0,.7.1,1.4.6,1.9.9,1.1,2.4.3,2.5-.9.2-1.4-2.1-1.4-2.2,0v.2s.5-1,.5-1h.1c0,0,.8.3.8.3.2.2,0-.5,0-.6,0-.3,0-.7-.1-1-.1-.9-.2-1.8-.3-2.6-.2-1.6-.3-3.2-.5-4.9-.2-3.2-.4-6.5-.5-9.8-.1-6.5,0-13.1.4-19.6s.7-13.1.9-19.7.2-12.9.3-19.3c.2-7.2.7-14.4,2.5-21.4.4-1.4-1.8-2-2.2-.6h0Z"/>
    <path class="st0" d="M450.2,579.3c25,4.6,50,9,74.9,13.7,6,1.2,12,2.5,18,4.2,5.9,1.7,11.8,3.5,17.7,5.1,11.9,3.1,24.2,4.4,36.4,6.2,13.8,2.1,27.6,4.8,41.2,8,1.4.3,2-1.8.6-2.2-12.1-2.9-24.3-5.4-36.6-7.3s-24.7-3.1-36.7-5.9c-12-2.8-23.6-7-35.6-9.4s-24.7-4.6-37-6.8c-14.1-2.6-28.1-5.2-42.2-7.7-1.4-.3-2,1.9-.6,2.2h0Z"/>
    <path class="st0" d="M639.1,617.2c40.7,7.7,81.3,15.4,122,23.1,40.5,7.7,80.9,15.3,121.4,23,22.9,4.3,45.8,8.7,68.7,13,1.4.3,2-1.9.6-2.2-40.7-7.7-81.3-15.4-122-23.1-40.5-7.7-80.9-15.3-121.4-23-22.9-4.3-45.8-8.7-68.7-13-1.4-.3-2,1.9-.6,2.2h0Z"/>
    <path class="st0" d="M706.3,251.4c-2.2,8.9-11.8,13.4-19.4,16.8-8.2,3.5-16.8,7-22.1,14.5-4.7,6.7-5.9,15.2-5.8,23.2.1,9.6,1.7,19.2,2.7,28.7,2.2,22.3,3.7,44.7,4.3,67.1.6,22.4.4,44.9-.6,67.2s-2.8,44.8-5.4,67.1c-.3,2.8-.7,5.5-1,8.3-.2,1.4,2.1,1.4,2.2,0,2.8-22.2,4.8-44.4,6-66.8,1.2-22.3,1.6-44.6,1.2-67s-1.6-44.8-3.7-67.2c-.9-10.3-2.3-20.6-3.2-30.9-.7-8.1-.8-16.9,2.7-24.5,1.8-3.9,4.5-7.3,8-9.9,3.7-2.8,8-4.7,12.3-6.6,7.9-3.4,16.7-6.8,21.7-14.3,1.1-1.6,1.9-3.4,2.4-5.4.3-1.4-1.8-2-2.2-.6h0Z"/>
    <path class="st0" d="M684.5,623.4c1.5,0,1.5-2.2,0-2.2s-1.5,2.2,0,2.2h0Z"/>
    <path class="st0" d="M706.1,351.3c3,9.5,5.2,19.3,7,29.1,2.1,11.2,3.7,22.6,4.8,34s1.8,22,1.7,33c0,4.9-.2,9.7-.5,14.6-.5,6.3-1.3,12.6-1.8,18.9-1.4,16.4-2.1,32.9-2.2,49.4,0,1.5,2.2,1.5,2.2,0,0-14.8.7-29.5,1.8-44.3.9-11.8,2.5-23.6,2.7-35.4.3-22.3-2-44.8-5.9-66.8-2-11.2-4.3-22.3-7.8-33.1-.4-1.4-2.6-.8-2.2.6h0Z"/>
    <path class="st0" d="M825.7,650.7c3.9-10.3,7.8-20.6,12.2-30.7,2.2-5,4.6-10,7.1-14.9s5.2-9.3,7.6-14c2.5-5.1,4.3-10.6,3.7-16.3-.2-1.4-2.4-1.4-2.2,0,1.1,10.5-6,19.8-10.7,28.6-5,9.6-9.3,19.6-13.3,29.7-2.2,5.7-4.4,11.4-6.6,17.1-.5,1.4,1.7,1.9,2.2.6h0Z"/>
    <path class="st0" d="M854.4,574.3c.6,20.2.9,40.4.8,60.7,0,5.8,0,11.6-.1,17.4,0,1.5,2.2,1.5,2.2,0,.2-20.2.2-40.4-.3-60.7-.1-5.8-.3-11.6-.5-17.4,0-1.4-2.3-1.5-2.2,0h0Z"/>
    <path class="st0" d="M771.2,498.4c15.3,4.7,31.3,7.1,47.4,7.2s32-1.9,47.3-6.2c8.6-2.4,17-5.5,25-9.4,1.3-.6.2-2.6-1.1-1.9-14.1,6.7-29.3,11.1-44.8,13.5s-31.6,2.5-47.3.4c-8.8-1.2-17.5-3.1-26-5.7-1.4-.4-2,1.7-.6,2.2h0Z"/>
    <path class="st0" d="M870.8,493.8c-4.1-6.3-2.7-13.8-3.9-20.8-.5-3-2-6-5-6.9-2.3-.7-5.6-.3-6.7,2.2s1.6,5.5,4.2,4.9c3.3-.7,2.9-4.5,2.4-7-1.7-8.5-4.2-16.7-7-24.8-1.1-3.1-2.8-6.4-6.4-7-2.7-.5-6,1.4-5.4,4.5s4.4,3.3,6.5,1.8c3.1-2.3,1.8-6.4.9-9.4-2.6-8.2-4.9-16.5-7.8-24.6-1.1-3.1-3.2-6-6.8-6.4-2.7-.2-5.9,2-5,5,.8,2.7,4.2,2.8,6.3,1.7,3.1-1.7,2.9-5.3,1.8-8.2-1.5-4-3.2-7.8-4.6-11.8s-2.8-8.2-4.1-12.4c-.6-2-1.3-4-1.9-6-.4-1.4-2.6-.8-2.2.6,1.9,6.1,3.8,12.1,5.9,18.1,1,3,2.2,5.9,3.3,8.8.9,2.1,3.2,6,1.4,8.2-.8.9-4.5,2-3.8-.3.3-1.2,1.8-1.6,2.9-1.5,1.3.2,2.5,1.1,3.3,2.1,1.7,2.4,2.3,5.7,3.1,8.4,1,3,1.9,6.1,2.9,9.1s1.9,6.1,2.9,9.1c.7,2.1,2.6,6.3-.2,7.7-.7.4-2.3.5-2.6-.5-.3-1.2,1.2-2,2.2-2,3,0,4.4,2.9,5.2,5.2,2.1,6,4,12.1,5.6,18.2.4,1.5.7,3,1,4.5.3,1.4.7,2.8.8,4.2,0,.9,0,2.2-1.2,2.3-1,0-2-1.2-1.4-2.1s1.9-1,2.8-.9c1.3.1,2.3.7,3.1,1.7,1.7,2.3,1.6,5.6,1.8,8.3.3,5.8.4,11.9,3.7,17,.8,1.2,2.7,0,1.9-1.1h0Z"/>
    <path class="st0" d="M828.4,369.3c-.6-1.9-1.6-3.7-2.8-5.4-.9-1.4-2.2-2.6-3.9-2.8-1.6-.2-3.7.5-4.9,1.6-1.4,1.3-1,3,0,4.5,2.2,3.2,6.8,2.2,8.2-1.2.8-1.9.7-4.1.2-6.1-.5-2.3-1.3-4.6-2-6.8-1.7-5-3.6-10-5.7-14.8-.6-1.3-2.5-.2-1.9,1.1,1.7,3.8,3.2,7.7,4.6,11.6.7,1.9,1.3,3.9,1.9,5.8s1.4,4.1,1.3,6.2c0,1.8-.9,3.9-3,3.9s-1.4-.5-1.8-1.2c-.7-1.1-.3-1.5.8-2,.7-.3,1.6-.6,2.4-.4.8.2,1.5,1,1.9,1.7,1,1.5,2,3.1,2.5,4.8.4,1.4,2.6.8,2.2-.6h0Z"/>
    <path class="st0" d="M817.9,338.3c-2.7-7.5-8.1-13.6-14.3-18.5-3.2-2.5-6.7-4.8-10.2-6.8-1.8-1.1-3.7-2.1-5.2-3.6s-2.5-3.4-3.4-5.2c-.6-1.3-2.6-.2-1.9,1.1,1.8,3.5,4,6.5,7.5,8.5s7.2,4.2,10.6,6.7c6.4,4.7,12.2,10.8,14.9,18.4.5,1.4,2.7.8,2.2-.6h0Z"/>
    <path class="st0" d="M785,304.8c-.3-2.9-2.6-5-3.5-7.7-.4-1.3-.5-2.6,0-3.9.4-1.2,1.5-1.9,1.9-3.1s-.3-2.3-.9-3.3c-.8-1.4-1.5-2.7-2.3-4-1.2-2.1-2.7-4.1-5-5.2-1.3-.6-2.4,1.3-1.1,1.9,2.1,1,3.3,2.9,4.4,4.9.7,1.3,1.4,2.5,2.1,3.8.2.3.4.6.5.9,0,.5,0,.5-.3.9-.3.4-.7.8-1,1.3-1.1,1.9-1.1,4.3-.5,6.4.4,1.2.9,2.3,1.5,3.3.7,1.2,1.7,2.4,1.8,3.8s2.4,1.4,2.2,0h0Z"/>
    <path class="st0" d="M776.4,278.1c-2.7-2.9-6-5.1-9.2-7.2-1.7-1.1-3.5-2.2-5.2-3.4s-3.6-2.2-5.2-3.6-2.7-2.9-4-4.4-2.7-3.1-4.1-4.6c-2.9-3.1-5.9-6.2-9.1-9.1-1-1-2.7.6-1.6,1.6,3.1,2.9,6.1,6,9.1,9.1,1.4,1.5,2.8,3,4.1,4.6s2.5,3.1,4,4.4c3,2.6,6.7,4.6,10.1,6.8s6.8,4.4,9.5,7.4c1,1.1,2.6-.5,1.6-1.6h0Z"/>
    <path class="st0" d="M736.5,247.7c4,18.4,10.3,36,16,53.9,1.6,5,3.3,10.1,3.9,15.4.2,1.4,2.4,1.4,2.2,0-.5-4.6-1.8-9-3.2-13.4s-2.9-9-4.4-13.5c-3-9.1-6-18.1-8.5-27.3-1.5-5.1-2.8-10.3-3.9-15.6-.3-1.4-2.5-.8-2.2.6h0Z"/>
    <path class="st0" d="M756.8,317.2c2.4,7.5,2.6,15.4,4.6,22.9,1,3.8,2.7,7.4,3.8,11.1,1.2,4,2.2,8,3.2,12,.4,1.4,2.5.8,2.2-.6-1-3.9-2-7.9-3.1-11.7s-2.8-7.5-3.8-11.3c-2-7.5-2.2-15.5-4.6-22.9-.4-1.4-2.6-.8-2.2.6h0Z"/>
    <path class="st0" d="M768.4,363.3c.7,5.6,1.4,11.2,2.3,16.7s2.2,11.2,3.3,16.8c2.2,10.9,3.2,21.9,3,33-.3,21.9-4.3,43.5-6.9,65.1-1.5,12.3-2.5,24.7-2.1,37.1,0,1.4,2.3,1.5,2.2,0-.6-22.1,3.1-44,5.9-65.8s4.8-43.3,1-64.8c-1.1-6.4-2.6-12.6-3.8-19s-2-12.8-2.8-19.2c-.2-1.4-2.4-1.4-2.2,0h0Z"/>
    <path class="st0" d="M768.4,532.1c-3.7,18.4-9.9,36.2-18.3,53-2.4,4.8-5,9.6-7.8,14.2h1.9c-3.8-8.6-7.7-17.2-11.5-25.8-3.8-8.6-7.9-17.1-11.4-25.8-1.9-4.7-3.5-9.5-4-14.5-.2-1.4-2.4-1.4-2.2,0,1,9.1,5,17.4,8.7,25.6,3.9,8.8,7.9,17.7,11.8,26.5,2.2,5,4.5,10.1,6.8,15.2.4.8,1.5.7,1.9,0,9.8-16.3,17.4-33.8,22.6-52.1,1.5-5.2,2.7-10.4,3.8-15.7.3-1.4-1.9-2-2.2-.6h0Z"/>
    <path class="st0" d="M738.1,274.2c-6.4,8.4-15.4,14.2-24.2,19.8-1.1.7-2.2,1.4-3.2,2s-2.3,1.3-3.2,2.2c-1.9,1.8-1,4.5-.7,6.8.9,5.8,1.7,11.5,2.9,17.2s3,11.2,5.5,16.4c1.2,2.6,2.6,5.2,3.8,7.9s2.2,5.6,3,8.5c1.5,5.5,2.7,11.1,4.1,16.7s3,11.5,4.7,17.1c3.7,12.5,8.3,24.9,14.1,36.6.6,1.3,2.6.2,1.9-1.1-10.2-20.8-16-43-21.4-65.4-1.3-5.5-3-10.8-5.5-15.9s-5-10.4-6.6-16-2.5-11.2-3.4-16.9c-.4-2.8-.9-5.6-1.3-8.4-.2-1.6.5-2.2,1.8-3,1.1-.7,2.3-1.4,3.4-2.1,9.5-6,19.3-12.2,26.3-21.3.9-1.1-1.1-2.3-1.9-1.1h0Z"/>
    <path class="st0" d="M744.6,425.7c4.5,7.9,7.3,16.5,10.3,25.1,1.5,4.2,3,8.4,4.7,12.5s3.8,8.1,5.8,12.1c2.3,4.5,4.3,9.2,5.5,14.2.3,1.4,2.5.8,2.2-.6-2-8.9-7-16.6-10.6-24.8s-6.3-17.1-9.5-25.6c-1.8-4.8-3.9-9.5-6.4-14-.7-1.3-2.7-.1-1.9,1.1h0Z"/>
    <path class="st0" d="M711.7,254.2c-1.4,8.4-2.8,16.8-4.3,25.2-.3,2-.7,4.1-1,6.1-.2,1.5,0,2.8,1.5,3.6,1.7.9,3.6,1.3,5.4,1.9,2,.6,3.9,1.2,5.9,1.7,1.4.4,2-1.8.6-2.2-3.5-.9-7-1.9-10.4-3.2-1-.4-.9-.9-.7-2l.5-2.7,1-5.6c1.2-7.4,2.5-14.9,3.8-22.3.2-1.4-1.9-2-2.2-.6h0Z"/>
    <path class="st0" d="M826.1,286c-3.5-3.1-7.1-6.3-10.2-9.8-1.5-1.7-2.8-3.6-4-5.5-1.1-1.9-2.3-3.9-3.9-5.3-2.9-2.4-7.4-3-9.1,1.1-1.2,2.9-.4,7.1,3.1,8s7.1-2.8,4.7-5.9-7.2-1.4-8.2,2.2c-.6,2.3,0,4.8,0,7.1.2,1.9-.1,4.7,1.4,6.2s3.7,2.2,5.4,3.4c2.5,1.7.9,4,0,6.2-4.3,9.5-3.3,20.1-1.2,30.1.3,1.4,2.5.8,2.2-.6-1.5-7.1-2.5-14.6-1-21.8.3-1.8.8-3.5,1.5-5.2s1.7-3.3,2.1-5c.4-1.5.2-3.1-.8-4.3s-2.6-2-4-2.8c-.7-.4-1.5-.8-2.1-1.3-.9-.6-.8-1.6-.8-2.6-.2-2-.4-4-.5-6-.1-1.7,0-3.9,1.8-4.7,1.3-.6,3.8.6,2.7,2.2-.8,1.2-2.7,1.2-3.6,0-.8-1-.9-2.4-.5-3.6.5-1.8,2-2.6,3.8-2s2.9,1.9,3.9,3.4c1.2,1.7,2.1,3.5,3.3,5.1s2.4,3.1,3.8,4.6c2.8,3.1,6,5.9,9.1,8.7,1.1,1,2.7-.6,1.6-1.6h0Z"/>
    <path class="st0" d="M760,311.3c3.1-4.3,5.3-9.3,6.2-14.5.5-2.8.6-5.5.6-8.3,0-3.1.5-6.2,1.1-9.3l-1.4.8c2.8.8,5.7.8,8.4,0,1.4-.4.8-2.6-.6-2.2-2.4.7-4.8.7-7.2,0-.5-.1-1.3.2-1.4.8-.5,2.8-1,5.6-1.1,8.4s0,5.9-.5,8.8c-.9,5.2-3,10.1-6.1,14.4-.8,1.2,1.1,2.3,1.9,1.1h0Z"/>
    <path class="st0" d="M801.4,209.7c2.5,2.3,3.5,5.5,4.1,8.8.7,4,1.1,8.1,1.3,12.1.5,7.9,0,16-2.2,23.6-1.2,4.1-3,8-5.4,11.6-.8,1.2,1.2,2.4,1.9,1.1,9.2-14.3,9.2-32.2,6.6-48.5-.6-3.8-1.8-7.6-4.8-10.3-1.1-1-2.7.6-1.6,1.6h0Z"/>
    <path class="st0" d="M826.4,286.8c.2-5.2.5-10.4.1-15.6s-1.6-10-2.7-15.1-1.6-9.8-2.8-14.6-2.7-9.4-4.5-13.9c-2-5.1-4.4-10-7.2-14.8-.7-1.2-2.7-.1-1.9,1.1,4.8,8.3,8.5,17.2,11,26.4,1.2,4.7,2,9.4,2.8,14.2s2.4,9.8,2.8,14.9c.5,5.8.3,11.6,0,17.3,0,1.5,2.2,1.4,2.2,0h0Z"/>
    <path class="st0" d="M809.4,211.3c6.4,6.5,16.4,5.8,24,10.1,3.9,2.2,6.6,6.1,9.2,9.7s5,7.3,7.6,10.8c3,3.9,6.3,7.4,10.3,10.4v-1.9c-3.6,2.7-6.2,6.4-7.1,10.9-.3,1.4,1.9,2,2.2.6.8-3.8,3-7.2,6.1-9.5.7-.5.7-1.4,0-1.9-7.2-5.2-11.8-12.9-16.9-20-2.4-3.4-5-7.1-8.4-9.7s-8-3.8-12.2-4.9c-4.7-1.2-9.7-2.5-13.2-6-1-1-2.6.6-1.6,1.6h0Z"/>
    <path class="st0" d="M823.9,251.6c7.3,3.2,14.9,6,22.4,8.7s15.4,4.5,23.6,4.2c1.4,0,1.5-2.3,0-2.2-8,.3-15.5-1.4-23-4.1s-14.7-5.4-21.9-8.5c-1.3-.6-2.5,1.4-1.1,1.9h0Z"/>
    <path class="st0" d="M869.2,263.4c4.8,27.6,7.2,55.5,8.9,83.5,1.7,27.9,2.6,55.8,4.5,83.7,1,15.6,2.4,31.2,4.3,46.7.2,1.4,2.4,1.4,2.2,0-3.4-27.8-5-55.8-6.4-83.8-1.4-28-2.6-56-5.2-83.9-1.5-15.7-3.5-31.3-6.1-46.8-.2-1.4-2.4-.8-2.2.6h0Z"/>
    <path class="st0" d="M829.9,280.5c2.7,16.4,5.3,32.9,8.1,49.3s5.6,32.4,9.3,48.4,7.7,30.3,12.8,45.1,10.7,28.6,17.2,42.5,13.8,27.7,21.8,41c1,1.6,2,3.3,3,4.9.8,1.2,2.7.1,1.9-1.1-8.1-13.1-15.5-26.6-22.2-40.5s-12.6-28-17.8-42.4c-5.2-14.6-9.6-29.5-13.2-44.5-3.8-15.9-6.8-32-9.6-48-2.8-16.3-5.4-32.6-8.1-48.9l-1-6.1c-.2-1.4-2.4-.8-2.2.6h0Z"/>
    <path class="st0" d="M839.4,222.1c8.2,1.5,16.6,2.3,25,2.3s17.2-.8,25.8-.2c2.1.1,4.3.2,6.3.7,1.8.4,3.1,1.9,4.3,3.3,1.5,1.9,2.6,4,3.3,6.2,1.3,3.8,2.5,7.7,3.8,11.5s2.7,7.4,3.4,11.2c.3,1.4,2.5.8,2.2-.6-.6-3.3-1.9-6.6-3-9.8-1.3-4.2-2.7-8.3-4.1-12.5-.6-1.9-1.4-3.7-2.4-5.4-1-1.6-2.1-3-3.5-4.3s-2.9-1.9-4.8-2.2c-8.7-1.3-17.5-.6-26.3-.4-9.9.2-19.8-.4-29.5-2.2-1.4-.3-2,1.9-.6,2.2h0Z"/>
    <path class="st0" d="M912.1,260.1c5,18.1,9.5,36.5,16.6,54,.5,1.3,2.7.8,2.2-.6-7-17.5-11.6-35.9-16.6-54-.4-1.4-2.5-.8-2.2.6h0Z"/>
    <path class="st0" d="M928.2,313.3c2.2,7.3,4.1,14.7,5.8,22.1,3.4,14.2,6.4,28.6,8.9,43,3.1,18,5.5,36.2,6.6,54.5,1.2,18.5,1.2,37.1-1.1,55.5-2,16.2-6,32.8-14.3,47.1-.9,1.6-1.9,3.1-2.9,4.6-.8,1.2,1.1,2.3,1.9,1.1,9.1-13.5,13.8-29.6,16.4-45.6,3-18.3,3.4-37,2.5-55.6s-3-37-6-55.2c-2.5-15.3-5.5-30.5-9-45.5-2-8.5-4.1-17-6.5-25.3-.1-.4-.2-.8-.4-1.2-.4-1.4-2.6-.8-2.2.6h0Z"/>
    <path class="st0" d="M884.5,276c3.2,17.5,6.4,35,8.6,52.6,2.1,17.1,3,34.4,5.4,51.4,1.2,8.6,3,17.1,5.3,25.5s4.7,16.7,7,25.1c4.5,16.8,8.3,33.8,11.6,50.9,3.3,17.1,5.9,34.3,8,51.6.2,2.1.5,4.2.7,6.3.2,1.4,2.4,1.4,2.2,0-1.9-17.2-4.3-34.3-7.4-51.3-3.1-17.2-6.8-34.3-11.2-51.2s-9.9-33.4-12.9-50.5-3.8-34.8-5.8-52.2-5-34.9-8.2-52.2c-.4-2.2-.8-4.4-1.2-6.7-.3-1.4-2.4-.8-2.2.6h0Z"/>
    <path class="st0" d="M856.2,574.8c3.8-14.9,5.9-30.3,6.2-45.7,0-1.5-2.2-1.5-2.2,0-.2,15.2-2.3,30.3-6.1,45.1-.4,1.4,1.8,2,2.2.6h0Z"/>
    <path class="st0" d="M774.5,504.9c19.6,5.2,39.9,7.5,60.2,6.8,1.4,0,1.5-2.3,0-2.2-20.1.7-40.2-1.6-59.6-6.8-1.4-.4-2,1.8-.6,2.2h0Z"/>
    <path class="st0" d="M866.2,505.7c-5.9,0-11.8.5-17.7,1.3-4.2.6-10,.9-12.8,4.7-1.4,1.9-1.5,4.3-.9,6.5.3,1.2.8,2.3,1.3,3.4.5,1,.9,2.1,1.7,2.8.8.7,1.7.9,2.8.9,1.5,0,3.1,0,4.6,0,3.1,0,6.1-.1,9.2-.2,3.3,0,6.6-.1,10-.2,2.7,0,5.5,0,7.8-1.6,1.2-.8,0-2.8-1.1-1.9-1.8,1.2-3.9,1.2-6,1.2-2.6,0-5.1,0-7.7.1-5.1,0-10.3.2-15.4.3-1.1,0-2.3.3-3-.7-.6-.9-1-2-1.4-2.9-.8-2-1.4-4.4,0-6.2,1.1-1.6,3-2.3,4.8-2.7,2.2-.6,4.4-.9,6.6-1.2,5.7-.8,11.5-1.2,17.3-1.3,1.5,0,1.5-2.3,0-2.2h0Z"/>
    <path class="st0" d="M890.9,496.8c-3.5,2.1-6.9,4.3-10.4,6.3s-7,3.4-10.8,4.6c-7.6,2.4-15.5,4.4-23.4,5.3-1.4.2-3.1,0-3.7,1.7s-.1,3.9.3,5.6c.9,3.3,5.5,2.8,8.1,2.5,7.6-.9,15.1-2.4,22.5-4.7,4-1.2,8-2.7,11.9-4.4s7.3-3.4,10.4-5.9c1.1-.9-.5-2.5-1.6-1.6-2.6,2.1-5.7,3.7-8.7,5s-6.3,2.6-9.5,3.7c-6.6,2.2-13.3,3.9-20.2,5-1.7.3-3.5.5-5.2.7-1.5.2-3.8.6-5.1-.3-.5-.4-.5-1.3-.6-1.9s-.5-2.1,0-2.7c.3-.5,1.8-.4,2.5-.5.9-.1,1.8-.2,2.7-.4,7-1.1,14-2.8,20.8-5,3.6-1.2,7.2-2.6,10.5-4.5,3.7-2.1,7.2-4.3,10.8-6.5,1.2-.8.1-2.7-1.1-1.9h0Z"/>
    <path class="st0" d="M773.5,513.5c20,3.4,40.2,5.2,60.4,5.6,1.5,0,1.5-2.2,0-2.2-20-.4-40-2.2-59.8-5.5-1.4-.2-2,1.9-.6,2.2h0Z"/>
    <path class="st0" d="M931.5,540c4.2,16.1,6.8,32.6,7.9,49.2s1,33.3.9,50c0,9.5,0,19-.2,28.5,0,1.5,2.2,1.5,2.2,0,0-16.9.3-33.8.2-50.7-.1-16.7-.9-33.4-3.3-50-1.4-9.3-3.3-18.5-5.6-27.6-.4-1.4-2.5-.8-2.2.6h0Z"/>
    <path class="st0" d="M901.1,510.9c7.6,12.8,16.8,25,30.9,30.8,1.3.5,1.9-1.6.6-2.2-13.5-5.6-22.4-17.6-29.6-29.8-.7-1.2-2.7-.1-1.9,1.1h0Z"/>
    <path class="st0" d="M743.9,245c-4.8,0-9.5.2-14.1,1.8s-8.7,3.9-13.4,3.7-7.9-3.5-10.6-6.8-4.7-7-6.4-10.9c-1.9-4.4-3.2-8.9-4.6-13.5-.4-1.4-2.6-.8-2.2.6,2.5,8.4,5.2,17.1,10.6,24.2,2.5,3.3,5.7,6.8,9.8,8.1,4.7,1.5,9.6-.2,13.9-1.9,2.6-1,5.1-2,7.8-2.5,3-.5,6-.5,9-.5,1.5,0,1.5-2.3,0-2.2h0Z"/>
    <path class="st0" d="M705.3,208.4c-2.3,1.4-4.6,2.7-6.8,4-1.9,1.1-3.8,2.1-6,2.4-1.9.3-4.6.7-5.5-1.5-.8-2.1-1-4.7-.3-6.8s1.8-4.1,2.1-6.4.2-4.4,0-6.6c-.7-4.8-2.5-9.3-3.4-14-.3-1.4-2.4-.8-2.2.6.8,4,2.2,7.9,3,11.9.4,2.1.7,4.2.5,6.4s-.8,4-1.6,5.9c-.7,1.8-1.2,3.5-1.1,5.4.2,1.6.4,3.6,1.2,5.1,1.7,3.2,6,2.6,9,2,2.1-.5,3.9-1.5,5.7-2.6,2.2-1.3,4.4-2.6,6.6-3.9,1.2-.7.1-2.7-1.1-1.9h0Z"/>
    <path class="st0" d="M685.3,180.2c-1.1-3.9-2-7.9-3.9-11.6-1.6-3.2-1.8-6.6-.8-10,2.1-6.9,8.4-11.2,14.7-13.8,1.3-.6.7-2.7-.6-2.2-6.8,2.9-13.5,7.4-16,14.7-1.2,3.4-1.4,7.2,0,10.6.8,1.9,1.8,3.7,2.4,5.7.7,2.4,1.4,4.8,2.1,7.1.4,1.4,2.6.8,2.2-.6h0Z"/>
    <path class="st0" d="M672.6,164.1c-3.4-4.9-2-11.5,2.2-15.4,4.7-4.5,11.6-5.4,17.8-4.3,1.4.2,2-1.9.6-2.2-7.1-1.2-14.9-.2-20.2,5.1-4.7,4.7-6.2,12.3-2.3,17.9.8,1.2,2.8,0,1.9-1.1h0Z"/>
    <path class="st0" d="M673.2,164.2c-5-7.1-5.9-16.4-2.7-24.5,3.9-9.7,13.2-14.8,22.4-18.5,20.8-8.4,43.8-10.8,66-11.4,2.9,0,5.8,0,8.6.9,2.5.8,4.8,2.1,6.8,3.7,4.1,3.3,6.8,7.9,9,12.6,4.8,10.4,8,21.5,9.7,32.8.8,5.6,1.5,11.5,1.1,17.2-.4,5.4-2.5,10.1-6.2,14-3.4,3.6-7.6,6.4-11.8,9-1.6,1-4.2,3.1-6.3,2.4-1.2-.4-1.3-1.8-1.6-2.9-.3-1.3-.5-2.6-.7-3.9-1-9.6,2.3-20.1,9.2-27.1,4-4.1,9.7-1.4,11.8,3.2,1.1,2.4,1.6,5.1,2,7.6.4,2.8.5,5.8-.5,8.5-.8,2.2-2.4,3.9-4.4,5-1.3.7-.1,2.6,1.1,1.9,5.1-2.7,6.8-8.4,6.3-13.9-.5-5.1-1.6-11.6-6-14.8-1.9-1.4-4.4-2.2-6.8-1.9-2.7.4-4.6,2.2-6.3,4.2-3.4,4.1-6,8.9-7.4,14.1s-1.7,10.7-.6,16c.4,2.2.9,5.1,3.3,5.9,2.3.7,4.9-.6,6.8-1.8,4.6-2.9,9.2-5.9,13.1-9.7s6.6-8.7,7.3-14.4c.8-6.1,0-12.6-.9-18.7s-2.3-12.4-4.1-18.5-4-11.8-6.7-17.3c-2.5-5.1-5.8-9.8-10.6-13-2.2-1.5-4.7-2.6-7.3-3.2-3.2-.7-6.5-.6-9.8-.5-6.2.2-12.4.6-18.6,1.2-12.4,1.2-24.8,3.2-36.6,6.9-5.7,1.8-11.4,4-16.7,6.7-4.8,2.5-9.3,5.6-12.7,9.9-5.8,7.6-7.5,18-4.1,26.9.8,2.2,1.9,4.2,3.2,6.1.8,1.2,2.8,0,1.9-1.1h0Z"/>
    <path class="st0" d="M792.4,189.8c.2,4.3,1.8,8.4,3.4,12.4,1.3,3.2,2.8,6.4,5.9,8.3,1.2.7,2.4-1.2,1.1-1.9-2.8-1.6-4-4.8-5.1-7.6-1.4-3.6-2.8-7.2-3-11.1,0-1.4-2.3-1.4-2.2,0h0Z"/>
    <path class="st0" d="M734.5,247.9c5.3-2.4,10.7-4.9,15.9-7.4,5-2.4,10.1-4.8,14.8-7.7,3.9-2.5,7.1-5.9,7.1-10.8,0-2.6-.8-5.1-1.5-7.6-.8-2.7-1.6-5.4-2.1-8.2-1.3-6.4-1.8-12.8-1.6-19.3,0-1.4-2.2-1.4-2.2,0-.2,5.4.1,10.8,1,16.1.4,2.7,1,5.3,1.7,7.9s1.6,5.1,2.2,7.7c.5,2.5.7,5.1-.5,7.4-1,1.9-2.9,3.4-4.7,4.6-4.3,2.8-9.2,5-13.8,7.3-5.7,2.8-11.5,5.4-17.2,8.1-1.3.6-.2,2.5,1.1,1.9h0Z"/>
    <path class="st0" d="M695.9,144c5.4,2.7,10.8,5.4,16.7,6.6s12,1.4,18,.7,12-2,17.9-3.7,11.4-3.4,17-5.4,11.2-4.6,15.7-8.6c1.1-1-.5-2.6-1.6-1.6-3.9,3.5-8.6,5.8-13.5,7.6-5.2,2-10.6,3.6-15.9,5.2-11.3,3.4-23.2,5.9-35,4-6.5-1.1-12.4-3.8-18.2-6.8-1.3-.6-2.4,1.3-1.1,1.9h0Z"/>
    <path class="st0" d="M752.3,147.3c3.2,1.4,5.1,4.2,6.2,7.5,1.3,4,1.7,8.4,2,12.6.3,4.7.1,9.4-.2,14.1-.3,3.8,3.7,4.1,6.6,3.7,1.4-.2.8-2.4-.6-2.2-1.1.1-3.5.5-3.7-1-.2-1,.2-2.2.3-3.2,0-1.1.1-2.3.2-3.4.1-4.5-.1-8.9-.7-13.4-.8-6.3-2.2-13.9-8.8-16.7-1.3-.6-2.5,1.4-1.1,1.9h0Z"/>
    <path class="st0" d="M757.9,568.3c.6,8.7-2.2,17.4-3.5,25.9s-2.1,17.1-2.7,25.7c-.3,4.9-.6,9.9-.9,14.8,0,1.5,2.2,1.4,2.2,0,.5-8.7,1-17.5,1.8-26.2.8-8.7,2.3-17.3,4-25.9.9-4.7,1.7-9.5,1.3-14.4,0-1.4-2.3-1.5-2.2,0h0Z"/>
    <path class="st0" d="M541.8,491.3c6.9-1.3,13.9-1.3,20.8,0,6.5,1.2,13.1,2.9,19.6,1.1,1.4-.4.8-2.5-.6-2.2-6.7,1.8-13.6-.4-20.2-1.5s-13.5-.9-20.1.4c-1.4.3-.8,2.4.6,2.2h0Z"/>
    <path class="st0" d="M583,491.1c-.3-6.5-1.3-13-2.9-19.3-.5-2.1-1.1-4.7-3.2-5.9-1.9-1.1-4.3-.3-5.2,1.7-1,2.1.6,4.8,2.9,5,1,.1,2.1-.2,2.6-1.1.7-1.2.3-2.8.2-4.1-.6-6.6-1.2-13.2-1.9-19.8-.3-3.1-.4-6.3-1-9.4-.5-2.2-2.1-4.1-4.6-4.1-2.2,0-4,2.1-3.7,4.3s2.6,3.5,4.6,2.8c2.3-.9,2.5-3.6,2.5-5.6,0-3.1.1-6.2,0-9.3-.1-6.2-.7-12.6-2.7-18.5-.9-2.4-2.5-4.9-5.4-4.9s-4,2.9-4,5.3c0,1.3.3,2.8,1.5,3.5,1,.6,2.2.7,3.3.4,2.8-.9,3.4-4,3.1-6.5-.2-1.4-2.4-1.4-2.2,0s.3,3.9-1.5,4.4c-2,.6-1.9-2-1.6-3.3.6-2.2,2.9-1.7,3.9-.1s1.4,3.5,1.9,5.3c1.9,8,1.9,16.4,1.6,24.6,0,1-.6,4-2.3,2.5-.6-.5-.5-1.3,0-1.9.6-.7,1.5-.7,2.3-.3,1.6.9,1.5,3.7,1.6,5.3.2,2.1.4,4.2.7,6.3.4,4.3.8,8.6,1.2,12.9.2,2.2.4,4.4.6,6.6,0,.5.5,2.4-.3,2.5-1,.2-1.5-1.3-1.2-2,1.2-2.2,3,.4,3.5,1.6.8,2.1,1.2,4.4,1.7,6.6,1,4.8,1.6,9.6,1.9,14.5,0,1.4,2.3,1.5,2.2,0h0Z"/>
    <path class="st0" d="M568.9,406.3c-1.8-8.6-.8-17.6-2.8-26.2-.5-2.1-1.1-4.1-2-6-.7-1.5-1.7-3.1-3.3-3.7-3.1-1.3-6.8,2.3-4.5,5.2.9,1.2,2.6,1.8,4,1.1s2-2.3,2-3.8c0-2.1-.4-4.2-.7-6.3-.4-2.4-.8-4.8-1.2-7.2-.9-4.7-1.9-9.4-2.9-14.1-.8-3.8-1.9-8.2-4.8-11-1.4-1.4-3.4-2-5.1-.9-1.5,1-2.3,3-2.2,4.8s1.2,3.4,3.2,3.4c2.4,0,3.4-2.4,4.1-4.3.4-1.4-1.7-2-2.2-.6-.2.7-.4,1.5-.9,2.1-.6.6-1.4.8-1.8,0-.4-1,0-2.6.9-3.3,2.4-1.8,4.8,4.2,5.3,5.7,1,2.9,1.6,6,2.2,9,.7,3.3,1.4,6.7,2,10s1.2,6.8,1.7,10.3c.2,1.1.5,2.6,0,3.7-.6,1.2-2.3.7-2-.6.4-1.6,2.3-1,3.1-.1,1,1.1,1.5,2.6,2,4,1,2.9,1.6,6,1.9,9,.7,6.9.5,13.9,1.9,20.7.3,1.4,2.5.8,2.2-.6h0Z"/>
    <path class="st0" d="M552.9,337.2c.7-7.4.7-14.9-.1-22.4-.4-3.7-1-7.4-1.8-11-.6-2.9-1.3-6-3.5-8.2-1.9-2-4.9-2.4-6.9-.3-1.8,1.9-1.4,4.8.6,6.4,2.3,1.8,5.3.7,5.8-2.1s0-6-1.2-8.5c-1.3-3.1-3.5-5.6-6.2-7.6s-5.7-3.7-7.8-6.4c-.9-1.1-2.8,0-1.9,1.1,2.8,3.7,7.1,5.6,10.4,8.8,1.8,1.7,3.1,3.8,3.9,6.1.4,1.2.6,2.4.7,3.6,0,.9.3,2.8-.5,3.5-1.6,1.5-4.2-2.5-1.4-3.8,2.5-1.1,4.3,2.6,4.9,4.5,1.7,5.3,2.4,11.1,2.9,16.7.6,6.6.5,13.2-.1,19.7-.1,1.4,2.1,1.4,2.2,0h0Z"/>
    <path class="st0" d="M544.9,464.4c-3.3,19.6-8.2,38.9-13.7,58-2.8,9.6-5.7,19.1-8.7,28.7-1.3,4.2-2.5,8.7-5.1,12.3-2.4,3.3-6.5,5.8-10.7,4.7s-7.1-4.9-9.9-7.8c-3.3-3.5-6.6-6.9-9.8-10.4-5.9-6.3-11.5-13-15.2-20.8-2-4.1-3.5-8.5-3.8-13.1-.2-2.4,0-4.8.7-7s1.7-4.4,2.7-6.5c4.1-8.8,6.9-18.1,8.7-27.6s3.5-20,5.3-30c.8-4.9,1.8-9.7,1.6-14.7s-1.2-9.5-2.5-14c-.7-2.4-1.4-4.7-2.2-7-.4-1.4-2.6-.8-2.2.6,1.5,4.8,3.1,9.7,4,14.7s.7,10.4-.2,15.6c-1.6,10.3-3.5,20.5-5.3,30.8s-4.2,19.9-8.4,29.2c-2,4.3-4.2,8.4-4.4,13.3-.3,4.9.9,9.3,2.6,13.7,3.2,8.2,8.6,15.2,14.4,21.8,3.1,3.5,6.4,6.9,9.6,10.3s6.1,7,9.9,9.6c3.3,2.3,7.3,2.8,11,1.2,3.9-1.8,6.6-5.3,8.3-9.1,1.9-4.4,3.2-9.1,4.6-13.6,1.5-4.9,3-9.8,4.5-14.8,5.9-19.6,11.2-39.3,15-59.4.5-2.5.9-5.1,1.3-7.6.2-1.4-1.9-2-2.2-.6h0Z"/>
    <path class="st0" d="M482.5,409.4c0-2.1-.9-4-1.6-6s-1.1-4.1-1.3-6.2c-.1-1.4-2.4-1.5-2.2,0,.1,2.2.5,4.3,1.2,6.4.6,1.9,1.6,3.8,1.7,5.8,0,1.5,2.3,1.5,2.2,0h0Z"/>
    <path class="st0" d="M589.3,451.2c2.4,11,7.9,20.9,12.2,31.2,4.6,10.8,8.4,21.9,12.2,33,1.9,5.4,3.7,11.1,7.7,15.4,1,1.1,2.6-.5,1.6-1.6-3.6-3.8-5.2-8.9-6.9-13.8-1.9-5.4-3.8-10.9-5.7-16.3s-3.9-10.6-6.1-15.9-4.5-10.1-6.7-15.1c-2.5-5.7-4.8-11.5-6.2-17.6-.3-1.4-2.5-.8-2.2.6h0Z"/>
    <path class="st0" d="M626.4,373.8l-2,6c-.6,1.9-1.6,3.9-1.5,6,0,1.9.9,3.7,1.5,5.5.7,2,1.4,4.1,2.2,6.1.5,1.4,2.7.8,2.2-.6-.6-1.8-1.3-3.7-1.9-5.5-.6-1.7-1.5-3.6-1.6-5.5s.9-3.9,1.5-5.6l2-5.8c.5-1.4-1.7-2-2.2-.6h0Z"/>
    <path class="st0" d="M628,376c1.8-3.2,3.1-6.7,3.8-10.4.4-2.3,1.6-7-.8-8.6-1.1-.7-2.4-.4-3.2.5-.9,1-.9,2.5-.9,3.8,0,4.2.5,8.4,1,12.5,1,8.3,2.1,16.5,3.3,24.8.6,4.2,1.3,8.5,1.9,12.7s.8,8.5.8,12.8c0,9.5,0,19,0,28.5,0,1.5,2.2,1.5,2.2,0,0-7.6,0-15.2,0-22.8,0-3.8,0-7.6-.2-11.4s-.7-7.2-1.2-10.9c-1.2-7.5-2.2-15-3.2-22.5s-2.2-14.8-2.4-22.3c0-.3-.2-4.3.7-3.9,1,.5.1,4.3,0,5-.6,3.9-1.9,7.5-3.8,10.9-.7,1.3,1.2,2.4,1.9,1.1h0Z"/>
    <path class="st0" d="M634.1,452.2c-.8,10.9,2.3,21.6,2.7,32.4.2,5.6.1,11.1.3,16.7s.5,11.3,1,16.9c.5,6.3,1.2,12.6,2,18.8.2,1.4,2.4,1.4,2.2,0-1.5-11-2.5-22.2-2.9-33.3s-.2-11.1-.4-16.7-.8-11-1.5-16.4c-.9-6.1-1.7-12.3-1.2-18.5.1-1.4-2.1-1.4-2.2,0h0Z"/>
    <path class="st0" d="M622.2,531.5c4.3-.4,7.3-3.4,9.6-6.8,2.7-3.8,5.2-7.9,7.7-11.8.8-1.2-1.2-2.4-1.9-1.1-2.3,3.6-4.6,7.2-7,10.8-2,3-4.6,6.3-8.4,6.7-1.4.2-1.4,2.4,0,2.2h0Z"/>
    <path class="st0" d="M640.5,538.1c1.5,0,1.5-2.2,0-2.2s-1.5,2.2,0,2.2h0Z"/>
    <path class="st0" d="M641.1,540c8.9-4.3,16.5-11,21.9-19.3.8-1.2-1.2-2.3-1.9-1.1-5.2,8-12.5,14.3-21,18.5-1.3.6-.2,2.6,1.1,1.9h0Z"/>
    <path class="st0" d="M570.3,602.2c2.2-17.5,4.1-35,6.2-52.4.2-1.4-2.1-1.4-2.2,0-2,17.5-4,35-6.2,52.4-.2,1.4,2.1,1.4,2.2,0h0Z"/>
    <path class="st0" d="M573.8,549.7c1.6,18.3-2.6,37.5,3.9,55.2.5,1.3,2.7.8,2.2-.6-6.4-17.5-2.2-36.5-3.8-54.6-.1-1.4-2.4-1.4-2.2,0h0Z"/>
    <path class="st0" d="M482.3,549.3c1.5,12,3.5,23.9,5.9,35.7.3,1.4,2.5.8,2.2-.6-2.4-11.6-4.4-23.3-5.9-35.1-.2-1.4-2.4-1.4-2.2,0h0Z"/>
    <path class="st0" d="M640.3,537.8c-.5,2.3-.3,4.8.7,7,.4,1,1,2,1.9,2.7s2,1.1,3,1.5c4.5,1.6,9.6,1.5,14.1-.2,1.3-.5.8-2.7-.6-2.2-3.7,1.4-7.8,1.7-11.7.6-1.8-.5-3.5-1.1-4.4-2.9s-1.1-3.9-.7-5.9c.3-1.4-1.9-2-2.2-.6h0Z"/>
    <path class="st0" d="M666.3,427.5c-.3,9.8-.9,19.7,0,29.5s3.5,19.1,6.7,28.3c3.5,10,9.4,19.1,16,27.3,7.8,9.6,16.8,18,26.6,25.4,1.2.9,2.3-1.1,1.1-1.9-14.6-11.1-28-24.7-36.9-40.9-1.8-3.3-3.3-6.5-4.6-10-3-8.3-5.5-17-6.5-25.8-1.2-10.5-.5-21.2-.2-31.8,0-1.5-2.2-1.5-2.2,0h0Z"/>
    <path class="st0" d="M708.3,350.7l-.8-3.7c-.1-.6-.3-1.2-.4-1.9,0-.1-.5-1.9.1-1.5l-.6-1c.2,17.4.4,34.7.6,52.1,0,8.7.2,17.4.3,26.2,0,4.3,0,8.6.2,13s-.1,8.5.3,12.8c.5,4.5,2.2,8.8,3.7,13,1.6,4.7,3.2,9.4,4.8,14,.5,1.4,2.6.8,2.2-.6-1.6-4.7-3.2-9.4-4.8-14-1.5-4.5-3.3-8.9-3.7-13.6s-.2-9.7-.3-14.5-.1-9.8-.2-14.7c-.2-19.7-.5-39.4-.7-59,0-2.8,0-5.6,0-8.5,0-1.3,0-2.7,0-4,0-1,.3-2.4-.7-3-1.6-1-3.5.5-3.6,2.2,0,1.1.4,2.3.6,3.4l.9,4.2c.3,1.4,2.5.8,2.2-.6h0Z"/>
    <path class="st0" d="M201.6,689c35.1,12.8,70.2,25.3,105.5,37.6,35.1,12.2,70.2,24.2,105.5,36,35.4,11.8,70.9,23.4,106.4,34.7,35.4,11.3,70.9,22.3,106.4,33.1,35.7,10.8,71.5,21.5,107.3,31.8,4.4,1.3,8.9,2.6,13.3,3.8,1.4.4,2-1.8.6-2.2-35.9-10.3-71.7-20.9-107.4-31.7-35.6-10.7-71-21.7-106.5-32.9-35.6-11.3-71.1-22.8-106.5-34.5-35.2-11.7-70.4-23.6-105.5-35.8-35.3-12.2-70.4-24.7-105.5-37.4-4.3-1.6-8.7-3.2-13-4.7-1.4-.5-1.9,1.7-.6,2.2h0Z"/>
    <path class="st0" d="M364.9,761.9c13.5-1.4,28.7-2.8,40.8,4.7,5.9,3.8,10.3,9.5,13.7,15.5,3.7,6.7,6.5,14,8.8,21.3,4.7,15.3,7.1,31.4,9,47.3,2,16.6,3.1,33.3,3.2,50s-.5,33.2-2.1,49.8c-.2,2.1-.4,4.2-.7,6.3-.2,1.4,2.1,1.4,2.2,0,1.9-17,2.8-34.1,2.8-51.2s-.9-34-2.8-51-4.1-32.7-8.6-48.5c-2.1-7.6-4.9-15-8.4-22.1-3.1-6.2-7-12.3-12.4-16.7-11.2-9.3-26.4-9.4-40.2-8.2-1.8.2-3.5.3-5.3.5-1.4.2-1.4,2.4,0,2.2h0Z"/>
    <path class="st0" d="M304,889.6c-6.5-15.8-4.8-33.3-2.8-49.9,1.8-14.9,3.6-30.1,8.9-44.3,2.9-7.9,7-15.3,12.6-21.6,1-1.1-.6-2.7-1.6-1.6-10.1,11.5-15.2,26.3-18.2,41.1-1.5,7.5-2.5,15.2-3.5,22.8-1,8.6-2.1,17.2-2.2,25.9-.1,9.6,1,19.3,4.7,28.2.5,1.3,2.7.7,2.2-.6h0Z"/>
    <path class="st0" d="M429.9,799.4c11.2,5.8,22.4,11.9,32.4,19.7,9.6,7.4,18.2,16.5,22.9,27.8,5.7,13.8,4.6,29,.4,43.1-4.3,14.4-11.3,28-19.1,40.7-7.8,12.7-16.8,24.7-26.8,35.8-1.2,1.3-2.5,2.7-3.8,4-1,1,.6,2.6,1.6,1.6,10.5-11,19.9-23,28.1-35.8,8.2-12.8,15.6-26.6,20.6-41s7.3-30.1,2.6-44.8c-3.8-11.9-11.7-21.9-21.1-29.9-9.9-8.4-21.1-14.9-32.5-20.9-1.4-.8-2.8-1.5-4.2-2.2-1.3-.7-2.4,1.3-1.1,1.9h0Z"/>
    <path class="st0" d="M334.4,884.4c6.2-1.8,12.4-3.9,18.4-6.2,1.3-.5.8-2.7-.6-2.2-6,2.4-12.2,4.5-18.4,6.2-1.4.4-.8,2.6.6,2.2h0Z"/>
    <path class="st0" d="M350.1,879.8c3.9,25.8,8,51.6,12.3,77.3,1.2,7.3,2.5,14.5,3.8,21.8.2,1.4,2.4.8,2.2-.6-4.5-25.7-8.7-51.5-12.7-77.2-1.1-7.3-2.2-14.6-3.3-21.9-.2-1.4-2.4-.8-2.2.6h0Z"/>
    <path class="st0" d="M747.7,867.5c17.2-10.6,34.3-21.3,51.2-32.4,16.8-11,33.5-22.2,50-33.8s32.5-23.3,48.5-35.4c15.7-12,31.3-24.2,46.5-36.8,15.4-12.6,30.5-25.6,45.4-38.8,1.8-1.6,3.7-3.3,5.5-4.9,1.1-1-.5-2.6-1.6-1.6-14.8,13.2-29.8,26.2-45.1,38.9s-30.9,25.1-46.7,37.2-31.8,23.9-48,35.4c-16.3,11.6-32.9,22.8-49.6,33.8-16.8,11.1-33.8,21.8-50.8,32.4-2.1,1.3-4.2,2.6-6.4,3.9-1.2.8,0,2.7,1.1,1.9h0Z"/>
  </g>
</svg>