<?xml version="1.0" encoding="UTF-8"?>
<svg id="_x34_56311517" xmlns="http://www.w3.org/2000/svg" version="1.1" viewBox="0 0 1001 1001">
  <!-- Generator: Adobe Illustrator 29.6.1, SVG Export Plug-In . SVG Version: 2.1.1 Build 9)  -->
  <defs>
    <style>
      .st0, .st1, .st2, .st3, .st4 {
        fill: none;
      }

      .st1 {
        stroke-width: .9px;
      }

      .st1, .st2, .st3 {
        stroke: #00708c;
      }

      .st1, .st2, .st3, .st4 {
        stroke-dasharray: 0 0;
        stroke-linecap: round;
        stroke-linejoin: round;
      }

      .st2 {
        stroke-width: 1.1px;
      }

      .st5 {
        isolation: isolate;
        opacity: .6;
      }

      .st5, .st6 {
        fill: #00708c;
      }

      .st6 {
        opacity: .2;
      }

      .st4 {
        stroke: #000;
        stroke-width: 1.3px;
      }
    </style>
  </defs>
  <rect class="st0" y="0" width="1001" height="1001"/>
  <path id="_x34_56311518_x5F_fill_x5F_path" class="st5" d="M970,382.3s-10.2-4.4-17.8-7.1-50.1-13.6-50.1-13.6l1.4,1s2.7,1.6,3.2,4.3.9,4.3-2,9.5-7.4,11.6-12.1,14.2l-2.8-.5s-314.5-111.6-319.9-113.4c-5.4-1.8,1.1-2.7-6.4-5.2-7.6-2.5-13.4-2.4-13.8-8.9-.4-6.4,1.3-12.5,4.8-17.1,3.6-4.6,5.7-3.6,11.1-1.2,5.4,2.4,5.2,2.2,7.5,3.3s1-2.3,11.2,1.4c10.3,3.7,317.6,112.6,317.6,112.6,0,0,9.4,3.2,2.9,14.8-6.5,11.6-12,14.1-12,14.1,0,0,52.2,17.4,64.5,22.7,21.5,9.3,32.2-20.3,12-31"/>
  <path id="_x34_56311519_x5F_stroke_x5F_path" class="st1" d="M889.9,390.1s-314.5-111.6-319.9-113.4,1.1-2.7-6.4-5.2c-7.6-2.5-13.4-2.4-13.8-8.9-.4-6.4,1.3-12.5,4.8-17.1s5.7-3.6,11.1-1.2c5.4,2.4,5.2,2.2,7.6,3.3s1-2.3,11.2,1.4c10.3,3.7,317.6,112.6,317.6,112.6,0,0,9.4,3.2,2.9,14.8-6.5,11.6-12,14.1-12,14.1,0,0,52.2,17.4,64.5,22.7,21.5,9.3,32.2-20.3,12-31-20.2-10.6-58.1-19-77.2-25.9s-15.3-6-14.5-8.3,2-2.9,15.5,1.2c13.5,4.2,52.9,16.4,65.4,20.6,12.4,4.2,13.9,7,12.4,9.6"/>
  <path id="_x34_56311521_x5F_fill_x5F_path" class="st5" d="M84.7,853l21.2,76.8,30.3-7.6,75.3-20.8s13-3.7,12.6-9.8-4.9-7-4.9-7c0,0-2.3-28.1-3.4-35.5-1.1-7.4-6.2-17.4-10-21.4s0-6.6-16.7-2c-16.6,4.6-104.5,27.1-104.5,27.1h0v.2Z"/>
  <path id="_x34_56311522_x5F_stroke_x5F_path" class="st4" d="M192.6,893.6s-8.6-17.6-14.9-34.6c-6.4-17-13.5-28.6-5.3-35.2,8.1-6.6,23.6-21,8.1-25.9-15.5-4.8-42.7,1-54.6,11.7-12,10.7-6.4,15.3,1.7,18.6,8.1,3.2,14.5,3.5,13.4,14.5s-2.5,47.5-6.9,65.2c0,0,5.8,7.5,2.2,14.2l-30.3,7.6s-6-9.5-6.5-25.3-2.5-24.3-2.7-28.5-11.9-23-11.9-23c0,0,10.9-2.8,24.4-6.7s69.1-18,77.4-19.7,13.9-6,17.7-.9,10.2,9.9,12.1,26.2c1.8,16.2,3,32.8,3,32.8,0,0,4.4,2.2,4.9,7s-5.6,7.7-17,11.2-12.4,2.9-13.5-5.6,8.6-8,15.9-10l7.4-2"/>
  <path id="_x34_56311523_x5F_stroke_x5F_path" class="st4" d="M137.2,910.3s8.4,6.5,10,7.7,4-.5,17.4-4.7,17.2-5.9,18.9-6.7,4-3.4,5.1-9.7,3.4-4-.7-13.3c-4.1-9.3-18.9-41.4-24-50.7-5-9.2-15.2-26.1-15.7-36.1-.6-10,.8-11.4,8.2-21.1,7.5-9.7-6-29.7-34.3-21.7s-33.2,28.4-20.5,34.5c12.6,6.1,19.1,5.4,19.9,18.1.7,12.8,3.7,35.2,3.7,35.2l-40.5,11.1s4.8,16.5,8.2,32.1c3.3,15.6,5.5,26.7,5.5,26.7"/>
  <path id="_x34_56311524_x5F_stroke_x5F_path" class="st2" d="M312,361.4c.2-.1-10.5-15.3-10.5-15.3l1.8-1.1s10.1,15.5,10.4,15.3c21.9-15.2,40.1-36,52.2-61.2,0-.2-16.8-7.6-16.8-7.6l1.1-2.6s16.6,8.4,16.8,8c2.4-5.1,4.5-10.5,6.4-16,7.2-21.2,9.7-42.9,8-63.9,0-.3-19.1,1.9-19.1,1.9v-4c-.1,0,18.8-1,18.7-1.7-2.8-26.6-12.3-52.1-27.4-73.9-.2-.2-14.6,10.9-14.6,10.9l-1.8-2.5s15-10.4,14.7-10.8c-15.3-21.3-36-39.1-61-50.8-.3,0-7.6,16.2-7.6,16.2l-2.7-1.4s8-15.9,7.6-16.1c-4.6-2.1-9.4-4-14.3-5.6-20.8-7.1-42-9.6-62.6-8.1-.3,0,1.2,18.3,1.2,18.3l-3.1.3s-1.4-18.2-1.9-18.2c-26.8,2.6-52.4,12-74.4,27-.2,0,10.6,14.9,10.6,14.9l-2.4,1.7s-10.3-15.1-10.8-14.8c-21.2,15.1-38.9,35.6-50.8,60.3,0,.2,16.8,8.1,16.8,8.1l-1.4,3s-16.6-8.5-16.8-7.9c-2.2,4.8-4.2,9.8-5.9,15-7.1,20.9-9.6,42.2-8,62.9,0,.3,18.8-1.2,18.8-1.2l.4,3.3s-19,1.2-18.9,1.7c2.6,26.5,11.9,52,26.6,73.8.2.2,15.3-10.7,15.3-10.7l1.8,2.6s-15.5,10.5-15.2,10.9c15,21.4,35.4,39.2,59.9,51.2.4.2,8-16.2,8-16.2l2.9,1.4s-7.7,15.9-7.2,16.1c4.8,2.2,9.8,4.2,14.9,5.9,20.3,6.9,41.1,9.5,61.2,8.2.3,0-.5-19.3-.5-19.3l2.7-.3s1,19.3,1.6,19.2l11-1.5-24.3-138.3c-17.1-2.3-16.4-17.3-15.4-23.6.3-1.9,0-3.9-1.1-5.6l-37.2-59.8c-1.3-2.1-.6-4.8,1.5-6l7.4-4.4c2-1.2,4.6-.6,5.9,1.4l36.9,58.5c1.8,2.9,6,2.8,7.7-.1l56.4-97.2c1.2-2.1,4-2.8,6.1-1.5l1.4.9c2,1.2,2.6,3.8,1.5,5.8l-56.1,99.4c-1.1,1.9-.9,4.2.3,6,2.1,3,4.6,8.6,2.1,16-3.9,11.5-13.6,10.2-13.6,10.2l24.9,139.5c.4,6.4-4.8,14.2-15.7,14.2-59.1,0-109.8-17.7-140.6-55-55.4-67-54-133.3-28.6-193.1S167.4,54.9,234.6,57.8c42,1.8,88.5,24,118.1,59.8s45.7,77.6,39.9,133.3c-3.8,36.5-21.1,66.9-31.6,80.9-3.7,4.9-3.1,12.2,1.3,16.4h.1c5.6,5.4,6.2,13.9,1.7,20.1-29.8,40.8-112.7,70.3-171.2,59.5-116.6-21.5-161.8-107.7-169.1-173.6C13.9,167.3,64.8,71.5,155.4,41.6c90.4-29.8,186.3-.2,239.6,89.4,19.4,32.6,23.8,64.5,25.3,92.7.9,18.4-3.1,58.6-14.7,84.5-6.5,14.5,5.4,19.6,16,22.8,39.2,11.8,90.5,30.7,90.5,30.7,0,0,7.1-14.5,10.1-13.7s-8.6,44.3-17.5,41.3c-8.9-3,20.4-40,25.4-38.8s-7.5,44.5-13.2,42.4,5.6-28.1,14.5-24.7,20.9,1.1,6,29.9c0,0-10.2.2.5-21.5s24.6-27.5,16.9,1.3c-7.8,28.8-9.2,23.7-12.2,22.9s16.4-41.1,21.7-39.2-6.1,15.6-6.1,15.6l13.4,4.6s4.1-15.5,8.6-14.1-7.9,43.8-14.7,42.3,15-42.3,22.4-40.5-4,44.7-10.4,43,4-27.9,8.4-25.9,15.2,5.2,15.2,5.2c0,0,5-18.3,9.5-16.7s-7.7,44.7-14.1,42.5,16.9-42.8,23.5-40.6-6.5,46.3-12.7,43.9,3.2-25.8,8.5-24.1,119.2,41.4,119.2,41.4c0,0,7.1-14.8,12.8-13.2s-9.5,44.4-17.8,40.2,19.2-39.7,27.3-36.1-7.9,41.1-14.9,39,6.7-26.6,11.6-24.6,10.4,3.8,10.4,3.8c0,0,3.6-12.4,11.1-10.4s-9.6,42.1-17.1,39.1,18.1-38.3,26.6-36-7.6,41.7-15.2,38.9,6.5-27.8,13.1-25.4,11,3.7,11,3.7c0,0,3.6-11.6,10.4-10s-2.3,41.4-12.4,38.1c-10.1-3.3,14-38.2,22.3-35.5s-2.2,41.1-10.1,38.6,3.1-26.5,9.8-24.4c6.7,2.2,11.1,3.7,11.1,3.7,0,0,4.2-13.9,9.9-12.4s-2,43.1-9.8,40.2,5.9-42.1,18-38.4-1.7,43.4-6.8,41.8,2.8-26.8,8.3-24.5c4.5,1.9,90.3,30.8,119.8,40.7,5.5,1.8,8.4,7.8,6.5,13.2l-146.1,430.3c-1.8,5.5-7.8,8.4-13.2,6.5l-539.5-183.1c-5.5-1.8-8.4-7.8-6.5-13.2l119.4-348.1c1.9-5.5,7.8-8.4,13.2-6.5l528.2,179.1c5.5,1.8,8.4,7.8,6.5,13.2l-114.7,334.1c-1.8,5.5-7.8,8.4-13.2,6.5l-518.4-176c-5.5-1.8-8.4-7.8-6.5-13.2l100-294.7c1.9-5.5,7.8-8.4,13.2-6.5l559.4,190.6,31.4,10.1,15.4,5.2-.5,290.8c0,26-21.1,46.9-47,46.9l-904.7-1.4c-26,0-47-21.1-46.9-47.1L1.9,47.4C2,21.5,23,.5,49,.5l904.6,1.4c26,0,46.9,21.1,46.9,47l-.8,540.6"/>
  <path id="_x34_56311525_x5F_stroke_x5F_path" class="st3" d="M449.5,531.6l3.8-11.2c1.9-5.4-1.1-11.4-6.5-13.2l-43.7-14.8c-5.4-1.9-11.4,1.1-13.2,6.5l-8.3,24.5c-1.8,5.4,1.1,11.4,6.5,13.2l114.4,38.8c5.4,1.8,11.4-1.1,13.2-6.5l8.3-24.4c1.9-5.5-1.1-11.4-6.5-13.2l-43-14.6c-5.4-1.9-11.4,1.1-13.2,6.5l-8.3,24.4c-1.9,5.5,1.1,11.4,6.5,13.2l60.3,20.5,53.9,18.3c5.5,1.8,11.4-1.1,13.2-6.5l8.3-24.4c1.9-5.4-1.1-11.4-6.5-13.2l-44.1-15c-5.5-1.8-11.4,1.1-13.2,6.5l-8.3,24.4c-1.8,5.4,1.1,11.4,6.5,13.2l114.6,38.9c5.5,1.9,11.4-1.1,13.2-6.5l8.3-24.4c1.9-5.4-1.1-11.4-6.5-13.2l-43.8-14.9c-5.5-1.8-11.4,1.1-13.2,6.5l-8.3,24.4c-1.9,5.4,1.1,11.4,6.5,13.2l115.1,39.1c5.4,1.8,11.3-1,13.2-6.5l8.5-24.4c1.9-5.5-1-11.4-6.5-13.3l-44.3-15c-5.5-1.8-11.4,1.1-13.2,6.5l-8.3,24.4c-1.9,5.4,1.1,11.4,6.5,13.2l115.4,39.2c5.5,1.9,11.4-1.1,13.2-6.5l8.3-24.4c1.9-5.4-1.1-11.4-6.5-13.2l-44-14.9c-5.4-1.8-11.3,1-13.2,6.5l-8.4,24.4c-1.9,5.5,1,11.4,6.5,13.3l115,39c5.5,1.9,11.4-1.1,13.2-6.5l8.3-24.4c1.8-5.4-1.1-11.4-6.5-13.2l-45.5-15.5c-5.5-1.9-11.4,1.1-13.2,6.6l-25.1,74.8c-1.8,5.4,1.1,11.3,6.5,13.2l45.2,15.3c5.5,1.9,11.4-1.1,13.2-6.5l7.7-22.6c1.8-5.4-1.1-11.4-6.5-13.2l-115.1-39.1c-5.5-1.9-11.4,1.1-13.2,6.5l-7.7,22.6c-1.9,5.4,1.1,11.4,6.5,13.2l44.1,15c5.5,1.9,11.4-1.1,13.2-6.5l7.6-22.6c1.8-5.4-1.1-11.4-6.5-13.2l-115.4-39.2c-5.5-1.9-11.4,1.1-13.2,6.5l-7.7,22.6c-1.9,5.4,1.1,11.4,6.5,13.2l44.3,15c5.5,1.9,11.4-1.1,13.2-6.5l7.6-22.6c1.8-5.4-1.1-11.4-6.5-13.2l-115.3-39.1c-5.5-1.8-11.4,1.1-13.2,6.5l-7.7,22.6c-1.9,5.4,1.1,11.4,6.5,13.2l43.8,14.9c5.5,1.9,11.4-1.1,13.2-6.5l7.7-22.6c1.9-5.4-1.1-11.4-6.5-13.2l-114.5-38.9c-5.4-1.8-11.4,1.1-13.2,6.5l-7.7,22.6c-1.9,5.4,1.1,11.4,6.5,13.2l44,14.9c5.4,1.9,11.4-1.1,13.2-6.5l7.7-22.6c1.9-5.4-1.1-11.4-6.5-13.2l-114.2-38.7c-5.4-1.8-11.4,1.1-13.2,6.5l-7.7,22.5c-1.9,5.4,1.1,11.4,6.5,13.2l42.9,14.7c5.5,1.9,11.4-1.1,13.2-6.5l7.7-22.6c1.9-5.4-1.1-11.4-6.5-13.2l-114.4-38.8c-5.4-1.8-11.4,1.1-13.2,6.5l-7.6,22.5c-1.8,5.5,1.1,11.4,6.5,13.2l43.7,14.7c5.4,1.8,11.4-1.1,13.2-6.5l7.6-22.5c1.8-5.4-1.1-11.4-6.5-13.2l-43.7-14.8c-5.4-1.8-11.4,1.1-13.2,6.5l-25.5,75c-1.8,5.4,1.1,11.4,6.5,13.2l43.7,14.8c5.4,1.9,11.4-1.1,13.2-6.5l8.3-24.6c1.8-5.4-1.1-11.4-6.5-13.2l-43.7-14.8c-5.5-1.8-11.4,1.1-13.2,6.5l-8.3,24.6c-1.8,5.4,1.1,11.4,6.5,13.2l114.3,38.8c5.5,1.9,11.4-1.1,13.2-6.5l8.3-24.6c1.8-5.4-1.1-11.4-6.5-13.2l-42.9-14.6c-5.4-1.8-11.4,1.1-13.2,6.5l-8.4,24.6c-1.9,5.5,1.1,11.4,6.5,13.2l114.3,38.8c5.4,1.9,11.4-1.1,13.2-6.5l8.3-24.6c1.9-5.4-1.1-11.4-6.5-13.2l-44-14.9c-5.4-1.9-11.4,1.1-13.2,6.5l-8.3,24.6c-1.9,5.4,1.1,11.4,6.5,13.2l114.5,38.9c5.5,1.9,11.4-1.1,13.2-6.5l8.3-24.6c1.9-5.4-1.1-11.4-6.5-13.2l-43.8-14.9c-5.5-1.9-11.4,1.1-13.2,6.5l-8.3,24.6c-1.9,5.4,1.1,11.4,6.5,13.2l115.4,39.2c5.5,1.9,11.4-1.1,13.2-6.5l8.3-24.6c1.9-5.4-1.1-11.4-6.5-13.2l-44.4-15.1c-5.5-1.9-11.4,1.1-13.2,6.5l-8.3,24.6c-1.9,5.4,1.1,11.4,6.5,13.2l115.4,39.2c5.5,1.9,11.4-1.1,13.2-6.5l8.3-24.6c1.9-5.4-1.1-11.4-6.5-13.2l-44.1-15c-5.5-1.9-11.4,1.1-13.2,6.5l-8.3,24.6c-1.9,5.5,1.1,11.4,6.5,13.2l115.1,39.1c5.5,1.9,11.4-1.1,13.2-6.5l8.3-24.6c1.8-5.5-1.1-11.4-6.5-13.2l-55-18.7-28.9,85.3c-1.9,5.5,1.1,11.4,6.5,13.2l45.2,15.3c5.5,1.9,11.4-1.1,13.2-6.5l7.8-23.1c1.8-5.5-1.1-11.4-6.5-13.2l-115.2-38.9c-5.5-1.8-11.4,1.1-13.2,6.5l-7.8,22.9c-1.9,5.5,1.1,11.4,6.5,13.2l44.1,15c5.5,1.9,11.4-1.1,13.2-6.5l7.8-23.1c1.9-5.5-1.1-11.4-6.5-13.2l-115.4-39.2c-5.5-1.9-11.4,1.1-13.2,6.5l-7.8,23.1c-1.9,5.5,1.1,11.4,6.5,13.2l44.4,15.1c5.5,1.9,11.4-1.1,13.2-6.5l7.8-23.1c1.9-5.5-1.1-11.4-6.5-13.2l-115.6-39.2c-5.5-1.9-11.4,1.1-13.2,6.6l-7.7,23.1c-1.8,5.4,1.1,11.3,6.5,13.1l43.9,14.9c5.5,1.9,11.4-1.1,13.2-6.5l7.8-23.1c1.9-5.4-1.1-11.4-6.5-13.2l-114.6-38.9c-5.4-1.9-11.4,1.1-13.2,6.5l-7.8,23.1c-1.9,5.4,1.1,11.4,6.5,13.2l44,14.9c5.4,1.9,11.4-1.1,13.2-6.5l7.8-23.1c1.9-5.4-1.1-11.4-6.5-13.2l-114.1-38.8c-5.4-1.9-11.4,1.1-13.2,6.5l-7.9,23.2c-1.9,5.5,1.1,11.4,6.5,13.2l43,14.6c5.4,1.9,11.4-1.1,13.2-6.5l7.8-23.1c1.9-5.4-1.1-11.4-6.5-13.2l-50.9-17.3c-5.4-1.9-11.4,1.1-13.2,6.5l-7.8,23.1c-1.8,5.4-7.8,8.4-13.2,6.5l-43.7-14.8c-5.5-1.9-8.4-7.8-6.5-13.2l7.9-23.2c1.9-5.4,7.8-8.4,13.2-6.5l43.7,14.8c5.4,1.9,8.4,7.8,6.5,13.2l-25.4,74.9c-1.8,5.5-7.8,8.4-13.2,6.5l-43.7-14.8c-5.4-1.9-8.4-7.8-6.5-13.2l8.1-23.8c1.9-5.4,7.8-8.4,13.2-6.5l114.4,38.8c5.4,1.9,8.4,7.8,6.5,13.2l-8.1,23.8c-1.9,5.5-7.8,8.4-13.2,6.5l-43-14.6c-5.5-1.9-8.4-7.8-6.5-13.2l8.1-23.8c1.9-5.4,7.8-8.4,13.2-6.5l114.2,38.7c5.4,1.9,8.4,7.8,6.5,13.2l-8.1,23.8c-1.9,5.5-7.8,8.4-13.2,6.5l-44-14.9c-5.4-1.9-8.4-7.8-6.5-13.2l8.1-23.8c1.9-5.4,7.8-8.4,13.2-6.5l114.5,38.9c5.5,1.9,8.4,7.8,6.5,13.2l-8.1,23.8c-1.9,5.5-7.8,8.4-13.2,6.5l-43.8-14.9c-5.4-1.9-8.4-7.8-6.5-13.2l8.1-23.8c1.9-5.5,7.8-8.4,13.2-6.5l115.5,39.1c5.5,1.9,8.4,7.8,6.5,13.2l-8.2,23.9c-1.9,5.4-7.8,8.4-13.2,6.5l-44.4-15.1c-5.5-1.9-8.4-7.8-6.5-13.2l8.1-24c1.9-5.5,7.8-8.4,13.2-6.5l115.4,39.2c5.5,1.9,8.4,7.8,6.5,13.2l-8.1,24c-1.9,5.5-7.8,8.4-13.2,6.5l-44.1-15c-5.5-1.9-8.4-7.8-6.5-13.2l8.1-23.8c1.9-5.5,7.8-8.4,13.2-6.5l115.1,39.1c5.5,1.9,8.4,7.8,6.5,13.2l-8.1,23.8c-1.9,5.5-7.8,8.4-13.2,6.5l-45.2-15.3c-5.5-1.9-8.4-7.8-6.5-13.2l9.9-29.1"/>
  <animate values="-1114.697720631353 2240.542418469019;170.10287216834448 955.7418256693219;468.8418612975471 657.0028365401193;642.0658870836594 483.7788107540071;758.4403291175724 367.40436872009406;842.0426581649241 283.8020396727424;904.4657305202796 221.3789673173868;952.397732507428 173.44696533023847;989.8515759206413 135.99312191702518;1019.2795957453093 106.56510209235724;1042.4653083344413 83.37938950322517;1060.9692904969218 64.87540734074477;1075.4603608651294 50.38433697253705;1086.8302776155692 39.014420222097264;1095.74785938062 30.09683845704643;1102.4360457044081 23.408652133258308;1107.340715675186 18.5039821624804;1110.9077483812061 14.936949456460217;1113.137143822469 12.707554015197509;1114.2518415431005 11.592856294566031;1114.697720631353 11.146977206313538;1114.697720631353 11.146977206313538;1114.697720631353 11.146977206313538;1114.697720631353 11.146977206313538;1114.697720631353 11.146977206313538;1114.697720631353 11.146977206313538" restart="always" repeatCount="0" keyTimes="0;0.04;0.08;0.12;0.16;0.2;0.24;0.28;0.32;0.36;0.4;0.44;0.48;0.52;0.56;0.6;0.64;0.68;0.72;0.76;0.8;0.84;0.88;0.92;0.96;1" accumulate="none" additive="replace" attributeName="stroke-dasharray" calcMode="linear" dur="10s" fill="freeze" href="#456311519_stroke_path"/>
  <animate values="-1114.697720631353;-472.29742423150424;-322.92792966690297;-236.31591677384682;-178.12869575689018;-136.32753123321447;-105.11599505553657;-81.1499940619625;-62.423072355355764;-47.7090624430219;-36.11620614845583;-26.864215067215607;-19.618679883111813;-13.933721507891912;-9.4749306253665;-6.1308374634724405;-3.6785024780834648;-1.8949861250732998;-0.780288404441947;-0.2229395441262706;0;0;0;0;0;0" restart="always" repeatCount="0" keyTimes="0;0.04;0.08;0.12;0.16;0.2;0.24;0.28;0.32;0.36;0.4;0.44;0.48;0.52;0.56;0.6;0.64;0.68;0.72;0.76;0.8;0.84;0.88;0.92;0.96;1" accumulate="none" additive="replace" attributeName="stroke-dashoffset" calcMode="linear" dur="10s" fill="freeze" href="#456311519_stroke_path"/>
  <animate values="-673.9224131811881 1354.5840504941877;102.8405602514493 577.8210770615506;283.4517669840077 397.20987032899217;388.1793099923644 292.4823273206356;458.5368099284803 222.12482738451968;509.0809909170695 171.58064639593044;546.8206460552159 133.84099125778403;575.7993098220071 104.86232749099284;598.4431029048949 82.21853440810501;616.2346546128784 64.42698270012151;630.2522408070471 50.40939650595285;641.4393528658547 39.222284447145164;650.2003442372103 30.461293075789637;657.0743528516584 23.58728446134153;662.4657321571079 18.195905155892017;666.5092666361951 14.152370676804887;669.4745252541923 11.187112058807687;671.631076976372 9.030560336627973;672.9789218027344 7.682715510265596;673.6528442159156 7.008793097084332;673.9224131811881 6.739224131811887;673.9224131811881 6.739224131811887;673.9224131811881 6.739224131811887;673.9224131811881 6.739224131811887;673.9224131811881 6.739224131811887;673.9224131811881 6.739224131811887" restart="always" repeatCount="0" keyTimes="0;0.04;0.08;0.12;0.16;0.2;0.24;0.28;0.32;0.36;0.4;0.44;0.48;0.52;0.56;0.6;0.64;0.68;0.72;0.76;0.8;0.84;0.88;0.92;0.96;1" accumulate="none" additive="replace" attributeName="stroke-dasharray" calcMode="linear" dur="10s" fill="freeze" href="#456311522_stroke_path"/>
  <animate values="-673.9224131811881;-285.5409264648694;-195.2353230985902;-142.87155159441187;-107.69280162635386;-82.42071113205931;-63.55088356298603;-49.061551679590494;-37.73965513814653;-28.84387928415485;-21.83508618707049;-16.24153015766663;-11.86103447198891;-8.42403016476485;-5.7283405120400985;-3.7065732724965343;-2.223943963497921;-1.1456681024080198;-0.47174568922683163;-0.13478448263623763;0;0;0;0;0;0" restart="always" repeatCount="0" keyTimes="0;0.04;0.08;0.12;0.16;0.2;0.24;0.28;0.32;0.36;0.4;0.44;0.48;0.52;0.56;0.6;0.64;0.68;0.72;0.76;0.8;0.84;0.88;0.92;0.96;1" accumulate="none" additive="replace" attributeName="stroke-dashoffset" calcMode="linear" dur="10s" fill="freeze" href="#456311522_stroke_path"/>
  <animate values="-465.6207780945754 935.8977639700965;71.05373073723221 399.22325513828895;195.84009926657845 274.4368866089427;268.1975681824755 202.0794176930457;316.80837741554905 153.4686084599721;351.7299357726423 118.54705010287887;377.80469934593845 92.47228652958273;397.82639280400525 72.45059307151593;413.4712509479829 56.80573492753825;425.7636394896798 44.513346385841366;435.44855167404694 34.82843420147423;443.17785659041687 27.099129285104304;449.2309267056464 21.046059169874766;453.9802586422111 16.296727233310104;457.7052248669677 12.571761008553496;460.49894953553513 9.778036339986041;462.54768095915125 7.729304916369928;464.03766744905386 6.239318426467348;464.968909005243 5.308076870278196;465.4345297833376 4.842456092183568;465.6207780945754 4.656207780945758;465.6207780945754 4.656207780945758;465.6207780945754 4.656207780945758;465.6207780945754 4.656207780945758;465.6207780945754 4.656207780945758;465.6207780945754 4.656207780945758" restart="always" repeatCount="0" keyTimes="0;0.04;0.08;0.12;0.16;0.2;0.24;0.28;0.32;0.36;0.4;0.44;0.48;0.52;0.56;0.6;0.64;0.68;0.72;0.76;0.8;0.84;0.88;0.92;0.96;1" accumulate="none" additive="replace" attributeName="stroke-dasharray" calcMode="linear" dur="10s" fill="freeze" href="#456311523_stroke_path"/>
  <animate values="-465.6207780945754;-197.28352367867163;-134.8903394139985;-98.71160495604998;-74.40620033951315;-56.945421160966575;-43.90803937431846;-33.897192645285095;-26.074763573296224;-19.928569302447826;-15.086113210264243;-11.221460752079269;-8.194925694464528;-5.820259726182194;-3.9577766138038912;-2.5609142795201647;-1.536548567712099;-0.7915553227607782;-0.3259345446662028;-0.09312415561891509;0;0;0;0;0;0" restart="always" repeatCount="0" keyTimes="0;0.04;0.08;0.12;0.16;0.2;0.24;0.28;0.32;0.36;0.4;0.44;0.48;0.52;0.56;0.6;0.64;0.68;0.72;0.76;0.8;0.84;0.88;0.92;0.96;1" accumulate="none" additive="replace" attributeName="stroke-dashoffset" calcMode="linear" dur="10s" fill="freeze" href="#456311523_stroke_path"/>
  <animate values="-14085.051776835773 28310.9540714399;2149.378901145139 12076.52339345899;5924.172777337127 8301.729517267004;8112.989823457407 6112.912471146725;9583.469228959058 4642.433065645072;10639.848112221744 3586.054182382387;11428.611011724544 2797.291282879586;12034.268238128485 2191.6340564756456;12507.525977830164 1718.3763167739658;12879.371344738633 1346.5309498654985;13172.340421696816 1053.5618729073155;13406.152281192288 819.7500134118424;13589.257954291155 636.6443403129756;13732.92548241488 492.97681218925095;13845.605896629566 380.2963979745646;13930.11620729058 295.78608731354996;13992.090435108657 233.8118594954731;14037.16260079453 188.73969380960045;14065.332704348202 160.5695902559289;14079.41775612504 146.48453847909155;14085.051776835773 140.85051776835786;14085.051776835773 140.85051776835786;14085.051776835773 140.85051776835786;14085.051776835773 140.85051776835786;14085.051776835773 140.85051776835786;14085.051776835773 140.85051776835786" restart="always" repeatCount="0" keyTimes="0;0.04;0.08;0.12;0.16;0.2;0.24;0.28;0.32;0.36;0.4;0.44;0.48;0.52;0.56;0.6;0.64;0.68;0.72;0.76;0.8;0.84;0.88;0.92;0.96;1" accumulate="none" additive="replace" attributeName="stroke-dasharray" calcMode="linear" dur="10s" fill="freeze" href="#456311524_stroke_path"/>
  <animate values="-14085.051776835773;-5967.836437845317;-4080.4394997493237;-2986.0309766891837;-2250.7912739383564;-1722.6018323070152;-1328.2203825556132;-1025.3917693536443;-788.7628995028033;-602.840216048571;-456.35567756947904;-339.4497478217421;-247.8969112723096;-176.06314721044717;-119.72294010310408;-77.46778477259674;-46.48067086355805;-23.944588020620813;-9.85953624378504;-2.8170103553671546;0;0;0;0;0;0" restart="always" repeatCount="0" keyTimes="0;0.04;0.08;0.12;0.16;0.2;0.24;0.28;0.32;0.36;0.4;0.44;0.48;0.52;0.56;0.6;0.64;0.68;0.72;0.76;0.8;0.84;0.88;0.92;0.96;1" accumulate="none" additive="replace" attributeName="stroke-dashoffset" calcMode="linear" dur="10s" fill="freeze" href="#456311524_stroke_path"/>
  <animate values="-9503.48747518162 19102.009825115056;1450.2321887127155 8148.290161220721;3997.16683206139 5601.355517872046;5474.008785704614 4124.513564228822;6466.1728781135735 3132.349471819863;7178.934438752197 2419.58791118124;7711.129737362366 1887.392612571071;8119.779698795177 1478.7426511382598;8439.096877961278 1159.4254719721587;8689.988947306074 908.5334026273621;8887.661486789852 710.860863143585;9045.419378877867 553.1029710555706;9168.964716055229 429.5576338782084;9265.90028830208 332.62206163135596;9341.928188103533 256.59416182990293;9398.949112954624 199.57323697881316;9440.764457845422 157.75789208801442;9471.175617766003 127.34673216743447;9490.182592716366 108.33975721707121;9499.686080191548 98.83626974188851;9503.48747518162 95.03487475181629;9503.48747518162 95.03487475181629;9503.48747518162 95.03487475181629;9503.48747518162 95.03487475181629;9503.48747518162 95.03487475181629;9503.48747518162 95.03487475181629" restart="always" repeatCount="0" keyTimes="0;0.04;0.08;0.12;0.16;0.2;0.24;0.28;0.32;0.36;0.4;0.44;0.48;0.52;0.56;0.6;0.64;0.68;0.72;0.76;0.8;0.84;0.88;0.92;0.96;1" accumulate="none" additive="replace" attributeName="stroke-dasharray" calcMode="linear" dur="10s" fill="freeze" href="#456311525_stroke_path"/>
  <animate values="-9503.48747518162;-4026.627643234453;-2753.160321560116;-2014.7393447385034;-1518.6572985340229;-1162.2765182147123;-896.1788689096268;-691.853888193222;-532.1952986101708;-406.7492639377733;-307.9129941958845;-229.03404815187704;-167.26137956319653;-118.79359343977026;-80.77964353904378;-52.26918111349891;-31.361508668099347;-16.155928707808755;-6.652441232627134;-1.9006974950363242;0;0;0;0;0;0" restart="always" repeatCount="0" keyTimes="0;0.04;0.08;0.12;0.16;0.2;0.24;0.28;0.32;0.36;0.4;0.44;0.48;0.52;0.56;0.6;0.64;0.68;0.72;0.76;0.8;0.84;0.88;0.92;0.96;1" accumulate="none" additive="replace" attributeName="stroke-dashoffset" calcMode="linear" dur="10s" fill="freeze" href="#456311525_stroke_path"/>
  <rect class="st6" x="310.2" y="495.7" width="588.8" height="387.8" rx="12.7" ry="12.7" transform="translate(254.1 -157.9) rotate(18.8)"/>
</svg>