<?xml version="1.0" encoding="utf-8"?>
<!-- Generator: Adobe Illustrator 27.0.0, SVG Export Plug-In . SVG Version: 6.00 Build 0)  -->
<svg version="1.1" id="Camada_1" xmlns="http://www.w3.org/2000/svg" xmlns:xlink="http://www.w3.org/1999/xlink" x="0px" y="0px"
	 viewBox="0 0 127.6 127.5" style="enable-background:new 0 0 127.6 127.5;" xml:space="preserve">
<style type="text/css">
	.st0{opacity:0.8;fill:#465451;}
	.st1{fill:#465451;}
</style>
<g id="a">
</g>
<g id="b">
</g>
<g id="c">
</g>
<g id="d">
</g>
<g id="e">
</g>
<g id="f">
</g>
<g id="g">
</g>
<g id="h">
</g>
<g id="i">
	<g>
		<path class="st0" d="M18.5,93.8L18.5,93.8c10.2,0,18.4,8.3,18.4,18.4v10.2c0,2.8-2.3,5.1-5.1,5.1H5.1c-2.8,0-5.1-2.3-5.1-5.1
			v-10.2C0,102,8.3,93.8,18.5,93.8L18.5,93.8z"/>
		<path class="st1" d="M17.7,0h19.2v64.9c0,9.7-7.9,17.6-17.6,17.6H0.1V17.6C0,7.9,7.9-0.1,17.7,0L17.7,0z"/>
		<path class="st1" d="M45.3,51.2h33.5c1.9,0,3.4,1.5,3.4,3.4v69.5c0,1.9-1.5,3.4-3.4,3.4H45.3c-1.9,0-3.4-1.5-3.4-3.4V54.6
			C41.9,52.7,43.4,51.2,45.3,51.2z"/>
		<path class="st0" d="M62,0L62,0c11.1,0,20.1,9,20.1,20.1l0,0c0,11.1-9,20.1-20.1,20.1l0,0c-11.1,0-20.1-9-20.1-20.1l0,0
			C41.9,9,50.9,0,62,0z"/>
		<path class="st1" d="M107.5,0L107.5,0c11.1,0,20.1,9,20.1,20.1V35c0,2.9-2.4,5.2-5.2,5.2H92.7c-2.9,0-5.2-2.4-5.2-5.2V20.1
			C87.4,9,96.4,0,107.5,0L107.5,0z"/>
		<path class="st0" d="M107.5,51.2L107.5,51.2c11.1,0,20.1,9,20.1,20.1v53.5c0,1.5-1.2,2.7-2.7,2.7H90.1c-1.5,0-2.7-1.2-2.7-2.7
			V71.3C87.4,60.2,96.4,51.2,107.5,51.2L107.5,51.2z"/>
	</g>
</g>
<g id="j">
</g>
</svg>
