<?xml version="1.0" encoding="UTF-8"?>
<svg xmlns="http://www.w3.org/2000/svg" xmlns:xlink="http://www.w3.org/1999/xlink" viewBox="0 0 1000 1000">
  <defs>
    <style>
      .cls-1, .cls-2, .cls-3, .cls-4, .cls-5, .cls-6, .cls-7, .cls-8, .cls-9, .cls-10 {
        fill: none;
      }

      .cls-2 {
        stroke-width: 15.38px;
      }

      .cls-2, .cls-11, .cls-6, .cls-7, .cls-8, .cls-10 {
        stroke-linecap: round;
      }

      .cls-2, .cls-11, .cls-6, .cls-7, .cls-10 {
        stroke-linejoin: round;
      }

      .cls-2, .cls-7, .cls-10 {
        stroke: #813513;
      }

      .cls-12 {
        clip-path: url(#clippath);
      }

      .cls-13 {
        stroke-width: 13.19px;
      }

      .cls-13, .cls-14 {
        fill: #fff;
      }

      .cls-13, .cls-3, .cls-4, .cls-5, .cls-8, .cls-9, .cls-15, .cls-16 {
        stroke-miterlimit: 10;
      }

      .cls-13, .cls-9 {
        stroke: #fff;
      }

      .cls-17 {
        fill: #010101;
      }

      .cls-18 {
        fill: #00ba65;
      }

      .cls-19 {
        fill: #6a40d5;
      }

      .cls-20 {
        fill: #ec383d;
      }

      .cls-21 {
        fill: #e98c00;
      }

      .cls-22 {
        fill: #ea060e;
      }

      .cls-23 {
        fill: #ededed;
      }

      .cls-24 {
        fill: #ff9d70;
      }

      .cls-25 {
        fill: orange;
      }

      .cls-26, .cls-11 {
        fill: #e5e5e5;
      }

      .cls-27 {
        fill: #e83c35;
      }

      .cls-28 {
        fill: #813513;
      }

      .cls-29 {
        fill: #661b0f;
      }

      .cls-30 {
        fill: #009f50;
      }

      .cls-31 {
        fill: #bd0200;
      }

      .cls-32 {
        fill: #bd001e;
      }

      .cls-33 {
        fill: #bebebe;
      }

      .cls-34 {
        fill: #c9d7d8;
      }

      .cls-35 {
        fill: #e50000;
      }

      .cls-36, .cls-16 {
        fill: #165b41;
      }

      .cls-37 {
        fill: #161415;
      }

      .cls-38 {
        fill: #260f03;
      }

      .cls-39 {
        fill: #24282e;
      }

      .cls-40 {
        fill: #21272a;
      }

      .cls-41 {
        fill: #713431;
      }

      .cls-42 {
        fill: #980000;
      }

      .cls-43 {
        fill: #77310e;
      }

      .cls-44 {
        fill: #5e3112;
      }

      .cls-45 {
        fill: #50120c;
      }

      .cls-3 {
        stroke: #df0229;
        stroke-width: 9.21px;
      }

      .cls-11 {
        stroke: #191b1d;
        stroke-width: 2.64px;
      }

      .cls-46 {
        fill: #541a00;
        opacity: .2;
      }

      .cls-46, .cls-47 {
        mix-blend-mode: multiply;
      }

      .cls-4 {
        stroke: #b02;
      }

      .cls-4, .cls-5 {
        stroke-width: 9.93px;
      }

      .cls-5 {
        stroke: #f84d30;
      }

      .cls-6 {
        stroke: #ff9d70;
        stroke-width: 21.48px;
      }

      .cls-7 {
        stroke-width: 20.16px;
      }

      .cls-47 {
        fill: #a0a7c2;
        opacity: .7;
      }

      .cls-8 {
        stroke: #391412;
        stroke-width: 6.57px;
      }

      .cls-48 {
        opacity: .5;
      }

      .cls-9, .cls-15 {
        stroke-width: 8.44px;
      }

      .cls-10 {
        stroke-width: 15px;
      }

      .cls-49 {
        isolation: isolate;
      }

      .cls-15 {
        stroke: #000;
      }

      .cls-16 {
        stroke: #165b41;
        stroke-width: .66px;
      }
    </style>
    <clipPath id="clippath">
      <circle class="cls-1" cx="500" cy="500" r="500"/>
    </clipPath>
  </defs>
  <g class="cls-49">
    <g id="Camada_5" data-name="Camada 5">
      <circle class="cls-19" cx="500" cy="500" r="500"/>
      <g class="cls-12">
        <g>
          <g>
            <g>
              <g>
                <path class="cls-35" d="m501.79,912.36c0,36.76-33.98,66.83-75.51,66.83h-186.7c-41.53,0-75.51-30.08-75.51-66.83v-308.68c0-36.76,33.98-66.83,75.51-66.83h186.7c41.53,0,75.51,30.08,75.51,66.83v308.68Z"/>
                <path class="cls-42" d="m204.13,581.23c19.15-14,28.31-22.11,28.31-44.22h90.77l-2.5,67.07-116.58-22.85Z"/>
                <path class="cls-42" d="m465.72,581.23c-19.15-14-28.31-22.11-28.31-44.22h-90.77l2.5,67.07,116.58-22.85Z"/>
              </g>
              <g>
                <rect class="cls-33" x="209.45" y="989.48" width="252.86" height="13.62"/>
                <path class="cls-23" d="m209.45,989.48v-340.16c0-46.1,30.46-85.31,71.9-97.8,6.18-1.88,12.6-3.15,19.21-3.76,3.01-.29,6.05-.43,9.13-.43h52.38c1.47,0,2.93.04,4.38.11,6.39.28,12.64,1.17,18.68,2.63,44.11,10.67,77.18,51.23,77.18,99.25v340.16h-252.86Z"/>
                <g>
                  <polygon class="cls-22" points="432.25 760.77 432.25 984.81 241.46 984.5 232.59 961.43 232.59 742.67 413.37 742.67 432.25 760.77"/>
                  <path class="cls-26" d="m427.21,761.48h-183.23c-8.92-11.47-9.76-23.91,0-37.62h183.23v37.62Z"/>
                  <path class="cls-3" d="m241.91,758.34c-6.03-9.46-6.94-18.38-2.22-27.11h192.41"/>
                  <path class="cls-32" d="m241.33,985.11s-8.74-2.58-8.74-14.67v-227.77h8.74v242.44Z"/>
                  <path class="cls-4" d="m249.93,761.48c-8.92-11.47-9.76-23.91,0-37.62"/>
                  <path class="cls-5" d="m427.21,756.82v4.66h-183.23c-8.92-11.47-9.76-23.91,0-37.62h183.23v4.7"/>
                  <polygon class="cls-32" points="431.92 927.87 432.25 984.81 241.46 984.5 232.59 961.43 232.26 888.47 431.92 927.87"/>
                </g>
                <g>
                  <path class="cls-30" d="m410.21,779.89l11.75,180.89c.37,5.67-4.18,10.57-10.15,10.96l-142.85,9.28c-5.23.34-9.82-2.89-11.13-7.5-.18-.66-.3-1.34-.35-2.05l-11.75-180.89c-.37-5.67,4.18-10.58,10.15-10.97l142.85-9.28c1.22-.08,2.4.04,3.52.32,4.35,1.09,7.67,4.73,7.97,9.24Z"/>
                  <path class="cls-26" d="m407.7,785.02l11.45,176.24c.36,5.52-4.04,10.3-9.81,10.68l-138.15,8.97c-5.06.33-9.5-2.82-10.77-7.32-.18-.64-.3-1.31-.34-2l-11.45-176.24c-.36-5.52,3.97-11.36,9.75-11.74l138.21-7.92c1.18-.08,2.32.04,3.4.32,4.21,1.07,7.42,4.61,7.71,9.01Z"/>
                  <path class="cls-30" d="m410.82,797.2l11.75,180.88c-.03-.52-4.57,4.39-10.55,4.78l-142.86,9.28c-5.22.34-9.82-2.9-11.13-7.5-.19-.66-.31-1.35-.35-2.06l-11.75-180.88c-.37-5.67,4.18-10.58,10.15-10.97l142.86-9.28c1.23-.08,2.4.04,3.52.32,4.36,1.09,7.67,4.73,8.36,15.43Z"/>
                  <path class="cls-18" d="m402.45,781.77l-144.42,202.86c-.18-.66-.3-1.34-.35-2.05l-4.24-65.23,94.39-132.59,51.1-3.32c1.22-.08,2.4.04,3.52.32Z"/>
                  <g>
                    <g>
                      <path class="cls-36" d="m246.67,807.38l7.75-.5c1.8-.1,3.33,1.21,3.44,2.92.05.84-.24,1.65-.81,2.28-.57.63-1.36,1.01-2.22,1.06l-7.75.5-.41-6.26Z"/>
                      <path class="cls-36" d="m254.46,807.21c1.59-.09,2.97,1.09,3.07,2.61.1,1.54-1.13,2.89-2.73,2.99l-7.42.48-.36-5.6,7.42-.48s.02,0,.02,0h0Zm-.04-.66h0s-.03,0-.03,0l-7.42.48-.66.04.04.66.36,5.6.04.66.66-.04,7.42-.48c.94-.06,1.81-.48,2.44-1.17.64-.7.96-1.6.9-2.52-.12-1.89-1.81-3.34-3.76-3.23h0Z"/>
                    </g>
                    <g>
                      <path class="cls-36" d="m247.52,820.39l7.63-.5c.88-.05,1.7.22,2.34.76.65.56,1.04,1.33,1.1,2.16.11,1.73-1.25,3.22-3.03,3.34l-7.64.49-.41-6.26Z"/>
                      <path class="cls-36" d="m255.2,820.23c.79-.05,1.52.22,2.08.69.56.48.93,1.16.98,1.93.1,1.54-1.12,2.89-2.72,2.99l-7.31.47-.36-5.6,7.31-.47h.02Zm-.04-.66h0s-.03,0-.03,0l-7.31.47-.66.04.04.66.36,5.6.04.66.66-.04,7.31-.47c1.96-.13,3.46-1.78,3.34-3.69-.06-.92-.49-1.77-1.21-2.38-.71-.6-1.61-.9-2.55-.85h0Z"/>
                    </g>
                    <g>
                      <path class="cls-36" d="m248.36,833.4l7.51-.49c.88-.05,1.7.22,2.35.76.66.56,1.04,1.32,1.1,2.16.05.81-.22,1.6-.77,2.23-.58.66-1.39,1.05-2.27,1.11l-7.52.49-.4-6.26Z"/>
                      <path class="cls-36" d="m255.92,833.24c.79-.05,1.53.22,2.09.69.56.48.93,1.16.98,1.93.1,1.54-1.12,2.89-2.73,2.99l-7.19.47-.36-5.6,7.19-.47s.02,0,.02,0h0Zm-.04-.66h0s.04.66.04.66l-.05-.66-7.21.47-.66.04.04.66.36,5.6.04.66.66-.04,7.19-.47c.95-.06,1.82-.48,2.45-1.17.64-.7.95-1.59.89-2.52-.06-.92-.49-1.77-1.21-2.38-.71-.6-1.62-.9-2.55-.85h0Z"/>
                    </g>
                    <g>
                      <path class="cls-36" d="m249.21,846.41l7.41-.48c.88-.05,1.7.22,2.34.77.66.56,1.05,1.32,1.1,2.15.11,1.73-1.25,3.22-3.04,3.34l-7.41.48-.41-6.26Z"/>
                      <path class="cls-36" d="m256.66,846.26c.79-.05,1.53.22,2.08.69.56.48.94,1.16.99,1.92.1,1.54-1.13,2.89-2.73,2.99l-7.08.46-.36-5.6,7.08-.46h.02Zm-.04-.66h0s-.03,0-.03,0l-7.08.46-.66.04.04.66.36,5.6.04.66.66-.04,7.08-.46c1.97-.13,3.47-1.78,3.34-3.69-.06-.93-.49-1.78-1.22-2.39-.7-.6-1.6-.9-2.54-.84h0Z"/>
                    </g>
                    <g>
                      <path class="cls-36" d="m250.05,859.42l7.29-.47c.88-.05,1.71.22,2.34.77.66.56,1.04,1.33,1.1,2.15.05.81-.22,1.61-.77,2.23-.58.66-1.38,1.05-2.26,1.11l-7.3.47-.41-6.26Z"/>
                      <path class="cls-36" d="m257.39,859.27c.79-.05,1.53.22,2.08.69.56.48.93,1.16.98,1.92.1,1.54-1.12,2.89-2.72,2.99l-6.97.45-.36-5.6,6.97-.45s.02,0,.02,0h0Zm-.04-.66h0s-.03,0-.03,0l-6.97.45-.66.04.04.66.36,5.6.04.66.66-.04,6.97-.45c1.96-.13,3.46-1.78,3.34-3.69-.06-.92-.49-1.77-1.21-2.38-.7-.6-1.6-.9-2.55-.85h0Z"/>
                    </g>
                    <g>
                      <path class="cls-36" d="m250.89,872.43l7.18-.47c.87-.05,1.71.23,2.34.77.66.56,1.05,1.32,1.1,2.15.11,1.73-1.25,3.23-3.04,3.34l-7.18.47-.41-6.26Z"/>
                      <path class="cls-36" d="m258.12,872.29c.79-.05,1.53.22,2.08.69.56.48.94,1.16.99,1.92.1,1.54-1.13,2.89-2.73,2.99l-6.85.44-.36-5.6,6.85-.44h.02Zm-.04-.66h0s-.03,0-.03,0l-6.85.44-.66.04.04.66.36,5.6.04.66.66-.04,6.85-.44c1.97-.13,3.47-1.78,3.34-3.69-.06-.93-.49-1.77-1.22-2.39-.68-.59-1.61-.9-2.54-.84h0Z"/>
                    </g>
                    <g>
                      <path class="cls-36" d="m251.74,885.44l7.06-.46c.87-.05,1.7.22,2.34.77.66.56,1.04,1.33,1.1,2.16.05.81-.22,1.6-.77,2.23-.58.66-1.38,1.05-2.26,1.11l-7.07.46-.41-6.26Z"/>
                      <path class="cls-36" d="m258.85,885.3c.79-.04,1.53.22,2.08.69.56.48.93,1.16.98,1.92.1,1.54-1.12,2.89-2.72,2.99l-6.74.44-.36-5.6,6.73-.44s.02,0,.02,0h0Zm-.04-.66h0s-.03,0-.03,0l-6.74.44-.66.04.04.66.36,5.6.04.66.66-.04,6.74-.44c1.96-.13,3.46-1.78,3.34-3.69-.06-.92-.49-1.77-1.21-2.38-.71-.6-1.61-.9-2.55-.85h0Z"/>
                    </g>
                    <g>
                      <path class="cls-36" d="m252.59,898.44l6.94-.45c.87-.05,1.7.22,2.34.77.66.56,1.05,1.32,1.1,2.15.05.84-.24,1.65-.81,2.28-.57.63-1.36,1.01-2.22,1.06l-6.95.45-.4-6.26Z"/>
                      <path class="cls-36" d="m259.58,898.31c.79-.05,1.53.23,2.08.69.56.48.94,1.16.99,1.92.1,1.54-1.13,2.89-2.73,2.99l-6.62.43-.36-5.6,6.62-.43s.02,0,.02,0h0Zm-.04-.66h0s-.03,0-.03,0l-6.62.43-.66.04.04.66.36,5.6.04.66.66-.04,6.62-.43c.94-.06,1.81-.48,2.45-1.17.64-.7.96-1.6.9-2.52-.06-.92-.49-1.77-1.22-2.39-.71-.6-1.61-.9-2.55-.84h0Z"/>
                    </g>
                    <g>
                      <path class="cls-36" d="m253.43,911.44l6.83-.44c.88-.05,1.7.22,2.34.76.66.56,1.05,1.32,1.1,2.16.05.81-.22,1.6-.77,2.23-.58.66-1.38,1.05-2.27,1.11l-6.84.44-.41-6.26Z"/>
                      <path class="cls-36" d="m260.31,911.33c.79-.05,1.53.22,2.08.69.56.48.94,1.16.99,1.92.1,1.54-1.13,2.89-2.73,2.99l-6.51.42-.36-5.6,6.51-.42s.02,0,.02,0h0Zm-.04-.66h0s-.03,0-.03,0l-6.51.42-.66.04.04.66.36,5.6.04.66.66-.04,6.51-.42c1.97-.13,3.47-1.78,3.34-3.69-.06-.92-.49-1.77-1.22-2.39-.71-.6-1.61-.9-2.55-.84h0Z"/>
                    </g>
                    <g>
                      <path class="cls-36" d="m254.28,924.45l6.72-.44c.87-.05,1.7.22,2.34.77.65.56,1.04,1.32,1.1,2.15.11,1.73-1.25,3.22-3.03,3.34l-6.72.44-.41-6.26Z"/>
                      <path class="cls-36" d="m261.04,924.35c.79-.05,1.53.22,2.08.69.56.48.93,1.15.98,1.92.1,1.54-1.12,2.89-2.72,2.99l-6.39.42-.36-5.6,6.39-.42s.02,0,.02,0h0Zm-.04-.66h0s-.03,0-.03,0l-6.39.41-.66.04.04.66.36,5.6.04.66.66-.04,6.39-.42c.94-.06,1.81-.48,2.44-1.17.64-.7.95-1.6.89-2.52-.06-.92-.49-1.77-1.21-2.38-.71-.6-1.62-.9-2.55-.85h0Z"/>
                    </g>
                    <g>
                      <path class="cls-36" d="m255.12,937.46l6.6-.43c.87-.05,1.71.23,2.34.77.66.55,1.05,1.32,1.11,2.15.11,1.73-1.25,3.22-3.04,3.34l-6.61.43-.41-6.26Z"/>
                      <path class="cls-36" d="m261.77,937.36c.79-.05,1.53.22,2.08.69.56.48.94,1.15.99,1.92.1,1.54-1.13,2.89-2.73,2.99l-6.27.41-.36-5.6,6.28-.41s.01,0,.02,0h0Zm-.04-.66h0s-.03,0-.03,0l-6.27.41-.66.04.04.66.36,5.6.04.66.66-.04,6.27-.41c.94-.06,1.81-.48,2.45-1.17.64-.7.96-1.6.9-2.52-.06-.92-.49-1.77-1.22-2.39-.7-.59-1.63-.9-2.55-.84h0Z"/>
                    </g>
                    <g>
                      <path class="cls-36" d="m255.97,950.47l6.49-.42c.87-.05,1.69.22,2.34.76.66.56,1.05,1.33,1.1,2.16.05.84-.23,1.64-.81,2.28-.57.63-1.36,1.01-2.22,1.06l-6.49.42-.41-6.26Z"/>
                      <path class="cls-36" d="m262.5,950.38c.79-.04,1.52.22,2.08.69.56.48.93,1.15.98,1.92.1,1.54-1.12,2.89-2.72,2.99l-6.16.4-.36-5.6,6.16-.4s.01,0,.02,0h0Zm-.04-.66h0s-.03,0-.03,0l-6.16.4-.66.04.04.66.36,5.6.04.66.66-.04,6.16-.4c.94-.06,1.81-.48,2.44-1.17.64-.7.95-1.6.89-2.52-.06-.92-.49-1.77-1.21-2.38-.72-.6-1.63-.9-2.55-.85h0Z"/>
                    </g>
                    <g>
                      <path class="cls-36" d="m256.81,963.48l6.37-.41c.88-.05,1.7.22,2.34.76.66.56,1.05,1.32,1.11,2.15.11,1.73-1.25,3.23-3.04,3.34l-6.37.41-.41-6.26Z"/>
                      <path class="cls-36" d="m263.23,963.39c.79-.05,1.53.22,2.08.69.56.48.94,1.15.99,1.92.1,1.54-1.13,2.89-2.73,2.99l-6.05.39-.36-5.6,6.05-.39s.02,0,.02,0h0Zm-.04-.66h0s-.03,0-.03,0l-6.05.39-.66.04.04.66.36,5.6.04.66.66-.04,6.05-.39c.94-.06,1.81-.48,2.44-1.17.64-.7.96-1.6.9-2.52-.06-.92-.49-1.77-1.22-2.38-.71-.6-1.61-.9-2.55-.84h0Z"/>
                    </g>
                    <g>
                      <path class="cls-36" d="m257.66,976.49l6.26-.41c1.8-.1,3.33,1.21,3.44,2.92.11,1.72-1.25,3.22-3.03,3.34l-6.26.41-.41-6.26Z"/>
                      <path class="cls-36" d="m263.96,976.41c1.59-.09,2.96,1.08,3.06,2.61.1,1.54-1.12,2.89-2.72,2.99l-5.93.39-.36-5.6,5.93-.39s.02,0,.02,0h0Zm-.04-.66h0s-.03,0-.03,0l-5.93.39-.66.04.04.66.36,5.6.04.66.66-.04,5.93-.39c.94-.06,1.81-.48,2.44-1.17.64-.7.95-1.59.89-2.52-.12-1.89-1.81-3.34-3.76-3.23h0Z"/>
                    </g>
                    <path class="cls-16" d="m249.92,852.32l-.36-5.6.36,5.6Z"/>
                    <path class="cls-16" d="m250.76,865.33l-.36-5.6.36,5.6Z"/>
                    <path class="cls-16" d="m254.14,917.36l-.36-5.6.36,5.6Z"/>
                  </g>
                  <g>
                    <g>
                      <path class="cls-39" d="m255.27,802.71c-1.11.07-2.08.56-2.77,1.3l1.02-.07c1.6-.1,2.99,1.07,3.09,2.61h0c.1,1.54-1.13,2.89-2.73,2.99l-1.02.07c.78.64,1.81,1.01,2.91.93,2.25-.15,3.95-2.02,3.81-4.18-.14-2.16-2.08-3.8-4.32-3.66Z"/>
                      <path class="cls-34" d="m256.62,806.56h0c-.1-1.54-1.49-2.72-3.09-2.61l-1.02.07-9.66.63c-1.6.1-2.83,1.45-2.73,2.99h0c.1,1.54,1.49,2.72,3.09,2.61l9.66-.63,1.02-.07c1.6-.1,2.83-1.45,2.73-2.99Z"/>
                    </g>
                    <g>
                      <path class="cls-39" d="m253.23,817.03l1.02-.07c1.6-.1,2.99,1.07,3.09,2.61h0c.1,1.54-1.13,2.89-2.73,2.99l-1.02.07c.78.64,1.81,1.01,2.91.93,2.25-.15,3.95-2.02,3.81-4.18-.14-2.16-2.08-3.8-4.32-3.66-1.11.07-2.08.56-2.77,1.3Z"/>
                      <path class="cls-34" d="m243.58,817.66c-1.6.1-2.83,1.45-2.73,2.99h0c.1,1.54,1.49,2.72,3.09,2.61l9.66-.63,1.02-.07c1.6-.1,2.83-1.45,2.73-2.99h0c-.1-1.54-1.49-2.72-3.09-2.61l-1.02.07-9.66.63Z"/>
                    </g>
                    <g>
                      <path class="cls-39" d="m253.96,830.04l1.02-.07c1.6-.1,2.99,1.07,3.09,2.61h0c.1,1.54-1.13,2.89-2.73,2.99l-1.02.07c.78.64,1.81,1.01,2.91.93,2.25-.15,3.95-2.02,3.81-4.18-.14-2.16-2.08-3.8-4.32-3.66-1.11.07-2.08.56-2.77,1.3Z"/>
                      <path class="cls-34" d="m244.31,830.67c-1.6.1-2.83,1.45-2.73,2.99h0c.1,1.54,1.49,2.72,3.09,2.61l9.66-.63,1.02-.07c1.6-.1,2.83-1.45,2.73-2.99h0c-.1-1.54-1.49-2.72-3.09-2.61l-1.02.07-9.66.63Z"/>
                    </g>
                    <g>
                      <path class="cls-39" d="m254.7,843.06l1.02-.07c1.6-.1,2.99,1.07,3.09,2.61h0c.1,1.54-1.13,2.89-2.73,2.99l-1.02.07c.78.64,1.81,1.01,2.91.93,2.25-.15,3.95-2.02,3.81-4.18-.14-2.16-2.08-3.8-4.32-3.66-1.11.07-2.08.56-2.77,1.3Z"/>
                      <path class="cls-34" d="m245.04,843.69c-1.6.1-2.83,1.45-2.73,2.99h0c.1,1.54,1.49,2.72,3.09,2.61l9.66-.63,1.02-.07c1.6-.1,2.83-1.45,2.73-2.99h0c-.1-1.54-1.49-2.72-3.09-2.61l-1.02.07-9.66.63Z"/>
                    </g>
                    <g>
                      <path class="cls-39" d="m255.43,856.07l1.02-.07c1.6-.1,2.99,1.07,3.09,2.61h0c.1,1.54-1.13,2.89-2.73,2.99l-1.02.07c.78.64,1.81,1.01,2.91.93,2.25-.15,3.95-2.02,3.81-4.18-.14-2.16-2.08-3.8-4.32-3.66-1.11.07-2.08.56-2.77,1.3Z"/>
                      <path class="cls-34" d="m245.77,856.7c-1.6.1-2.83,1.45-2.73,2.99h0c.1,1.54,1.49,2.72,3.09,2.61l9.66-.63,1.02-.07c1.6-.1,2.83-1.45,2.73-2.99h0c-.1-1.54-1.49-2.72-3.09-2.61l-1.02.07-9.66.63Z"/>
                    </g>
                    <g>
                      <path class="cls-39" d="m256.16,869.09l1.02-.07c1.6-.1,2.99,1.07,3.09,2.61h0c.1,1.54-1.13,2.89-2.73,2.99l-1.02.07c.78.64,1.81,1.01,2.91.93,2.25-.15,3.95-2.02,3.81-4.18-.14-2.16-2.08-3.8-4.32-3.66-1.11.07-2.08.56-2.77,1.3Z"/>
                      <path class="cls-34" d="m246.5,869.72c-1.6.1-2.83,1.45-2.73,2.99h0c.1,1.54,1.49,2.72,3.09,2.61l9.66-.63,1.02-.07c1.6-.1,2.83-1.45,2.73-2.99h0c-.1-1.54-1.49-2.72-3.09-2.61l-1.02.07-9.66.63Z"/>
                    </g>
                    <g>
                      <path class="cls-39" d="m256.89,882.1l1.02-.07c1.6-.1,2.99,1.07,3.09,2.61h0c.1,1.54-1.13,2.89-2.73,2.99l-1.02.07c.78.64,1.81,1.01,2.91.93,2.25-.15,3.95-2.02,3.81-4.18-.14-2.16-2.08-3.8-4.32-3.66-1.11.07-2.08.56-2.77,1.3Z"/>
                      <path class="cls-34" d="m247.23,882.73c-1.6.1-2.83,1.45-2.73,2.99h0c.1,1.54,1.49,2.72,3.09,2.61l9.66-.63,1.02-.07c1.6-.1,2.83-1.45,2.73-2.99h0c-.1-1.54-1.49-2.72-3.09-2.61l-1.02.07-9.66.63Z"/>
                    </g>
                    <g>
                      <path class="cls-39" d="m257.62,895.12l1.02-.07c1.6-.1,2.99,1.07,3.09,2.61h0c.1,1.54-1.13,2.89-2.73,2.99l-1.02.07c.78.64,1.81,1.01,2.91.93,2.25-.15,3.95-2.02,3.81-4.18-.14-2.16-2.08-3.8-4.32-3.66-1.11.07-2.08.56-2.77,1.3Z"/>
                      <path class="cls-34" d="m247.96,895.75c-1.6.1-2.83,1.45-2.73,2.99h0c.1,1.54,1.49,2.72,3.09,2.61l9.66-.63,1.02-.07c1.6-.1,2.83-1.45,2.73-2.99h0c-.1-1.54-1.49-2.72-3.09-2.61l-1.02.07-9.66.63Z"/>
                    </g>
                    <g>
                      <path class="cls-39" d="m258.35,908.13l1.02-.07c1.6-.1,2.99,1.07,3.09,2.61h0c.1,1.54-1.13,2.89-2.73,2.99l-1.02.07c.78.64,1.81,1.01,2.91.93,2.25-.15,3.95-2.02,3.81-4.18-.14-2.16-2.08-3.8-4.32-3.66-1.11.07-2.08.56-2.77,1.3Z"/>
                      <path class="cls-34" d="m248.69,908.76c-1.6.1-2.83,1.45-2.73,2.99h0c.1,1.54,1.49,2.72,3.09,2.61l9.66-.63,1.02-.07c1.6-.1,2.83-1.45,2.73-2.99h0c-.1-1.54-1.49-2.72-3.09-2.61l-1.02.07-9.66.63Z"/>
                    </g>
                    <g>
                      <path class="cls-39" d="m259.08,921.15l1.02-.07c1.6-.1,2.99,1.07,3.09,2.61h0c.1,1.54-1.13,2.89-2.73,2.99l-1.02.07c.78.64,1.81,1.01,2.91.93,2.25-.15,3.95-2.02,3.81-4.18-.14-2.16-2.08-3.8-4.32-3.66-1.11.07-2.08.56-2.77,1.3Z"/>
                      <path class="cls-34" d="m249.42,921.78c-1.6.1-2.83,1.45-2.73,2.99h0c.1,1.54,1.49,2.72,3.09,2.61l9.66-.63,1.02-.07c1.6-.1,2.83-1.45,2.73-2.99h0c-.1-1.54-1.49-2.72-3.09-2.61l-1.02.07-9.66.63Z"/>
                    </g>
                    <g>
                      <path class="cls-39" d="m259.81,934.16l1.02-.07c1.6-.1,2.99,1.07,3.09,2.61h0c.1,1.54-1.13,2.89-2.73,2.99l-1.02.07c.78.64,1.81,1.01,2.91.93,2.25-.15,3.95-2.02,3.81-4.18-.14-2.16-2.08-3.8-4.32-3.66-1.11.07-2.08.56-2.77,1.3Z"/>
                      <path class="cls-34" d="m250.15,934.79c-1.6.1-2.83,1.45-2.73,2.99h0c.1,1.54,1.49,2.72,3.09,2.61l9.66-.63,1.02-.07c1.6-.1,2.83-1.45,2.73-2.99h0c-.1-1.54-1.49-2.72-3.09-2.61l-1.02.07-9.66.63Z"/>
                    </g>
                    <g>
                      <path class="cls-39" d="m260.54,947.18l1.02-.07c1.6-.1,2.99,1.07,3.09,2.61h0c.1,1.54-1.13,2.89-2.73,2.99l-1.02.07c.78.64,1.81,1.01,2.91.93,2.25-.15,3.95-2.02,3.81-4.18-.14-2.16-2.08-3.8-4.32-3.66-1.11.07-2.08.56-2.77,1.3Z"/>
                      <path class="cls-34" d="m250.88,947.81c-1.6.1-2.83,1.45-2.73,2.99h0c.1,1.54,1.49,2.72,3.09,2.61l9.66-.63,1.02-.07c1.6-.1,2.83-1.45,2.73-2.99h0c-.1-1.54-1.49-2.72-3.09-2.61l-1.02.07-9.66.63Z"/>
                    </g>
                    <g>
                      <path class="cls-39" d="m261.27,960.19l1.02-.07c1.6-.1,2.99,1.07,3.09,2.61h0c.1,1.54-1.13,2.89-2.73,2.99l-1.02.07c.78.64,1.81,1.01,2.91.93,2.25-.15,3.95-2.02,3.81-4.18-.14-2.16-2.08-3.8-4.32-3.66-1.11.07-2.08.56-2.77,1.3Z"/>
                      <path class="cls-34" d="m251.61,960.82c-1.6.1-2.83,1.45-2.73,2.99h0c.1,1.54,1.49,2.72,3.09,2.61l9.66-.63,1.02-.07c1.6-.1,2.83-1.45,2.73-2.99h0c-.1-1.54-1.49-2.72-3.09-2.61l-1.02.07-9.66.63Z"/>
                    </g>
                    <g>
                      <path class="cls-39" d="m264.77,971.91c-1.11.07-2.08.56-2.77,1.3l1.02-.07c1.6-.1,2.99,1.07,3.09,2.61.1,1.54-1.13,2.89-2.73,2.99l-1.02.07c.78.64,1.81,1.01,2.91.93,2.25-.15,3.95-2.02,3.81-4.18-.14-2.16-2.08-3.8-4.32-3.66Z"/>
                      <path class="cls-34" d="m266.11,975.75c-.1-1.54-1.49-2.72-3.09-2.61l-1.02.07-9.66.63c-1.6.1-2.83,1.45-2.73,2.99.1,1.54,1.49,2.72,3.09,2.61l9.66-.63,1.02-.07c1.6-.1,2.83-1.45,2.73-2.99Z"/>
                    </g>
                  </g>
                  <path class="cls-26" d="m372.91,892.45l-71.4,4.64c-4.52.29-8.42-3.13-8.71-7.65l-3.43-52.78c-.29-4.52,3.13-8.42,7.65-8.71l71.4-4.64c4.52-.29,8.42,3.13,8.71,7.65l3.43,52.78c.29,4.52-3.13,8.42-7.65,8.71Z"/>
                  <g>
                    <path class="cls-11" d="m304.32,843.84l58.67-3.81-58.67,3.81Z"/>
                    <path class="cls-11" d="m305.13,856.4l58.67-3.81-58.67,3.81Z"/>
                    <path class="cls-11" d="m305.95,868.97l58.67-3.81-58.67,3.81Z"/>
                    <path class="cls-11" d="m306.77,881.54l58.67-3.81-58.67,3.81Z"/>
                  </g>
                </g>
                <path class="cls-26" d="m385.14,550.02c-6.04-1.43-12.28-2.32-18.68-2.59,9.23,8.71,14.99,21.05,14.99,34.75,0,26.38-21.39,47.77-47.77,47.77s-47.77-21.39-47.77-47.77c0-13.53,5.62-25.74,14.66-34.43-6.61.6-13.02,1.85-19.21,3.69-5.32,9.02-8.38,19.52-8.38,30.74,0,33.47,27.22,60.7,60.7,60.7,33.47,0,60.7-27.24,60.7-60.7,0-11.8-3.39-22.83-9.24-32.16Z"/>
                <g>
                  <path class="cls-24" d="m266.08,958.23l22.59-39.71-109.71-62.41c.67-11.64,1.85-28.02,2.86-42.09,1.23-17.11,2.29-31.9,2.53-38.69l6.46-127.77-45.62-2.31-6.49,128.33c-.2,5.83-1.29,21.05-2.45,37.17-2.06,28.64-3.51,49.59-3.52,58.33v8.66c0,2.87,1.53,5.51,4.02,6.93l129.33,73.57Z"/>
                  <polygon class="cls-46" points="187.44 714.42 141.74 713.54 143.33 681.56 188.96 686.29 187.44 714.42"/>
                  <path class="cls-23" d="m221.38,581.71l-16.28,117.25-86.28-12.72c9.48-64.26,19.29-116.81,102.56-104.53h0Z"/>
                  <g>
                    <line class="cls-6" x1="303.18" y1="915.6" x2="340.64" y2="932.63"/>
                    <path class="cls-24" d="m248.95,959.48c2.24,1.61,4.71,2.97,7.38,4.04l35.46,14.24c18.01,7.24,34.15-3.88,41.99-22,7.71-17.82,13.17-31.61-4.85-38.84l-46.41-18.64c-18.01-7.24-38.48,1.5-45.72,19.52-6.16,15.34-.74,32.46,12.13,41.68Z"/>
                    <line class="cls-6" x1="304.44" y1="899.37" x2="271.66" y2="905.55"/>
                  </g>
                </g>
                <g>
                  <path class="cls-24" d="m402.9,959.37l-22.59-39.71,109.71-62.41c-.67-11.64-1.85-28.02-2.86-42.09-1.23-17.11-2.29-31.9-2.53-38.69l-6.46-127.77,45.62-2.31,6.49,128.33c.2,5.83,1.29,21.05,2.45,37.17,2.06,28.64,3.51,49.59,3.52,58.33v7.65c0,3.49-1.86,6.71-4.9,8.43l-128.45,73.08Z"/>
                  <polygon class="cls-46" points="481.55 715.56 527.24 714.68 525.66 682.7 480.03 687.43 481.55 715.56"/>
                  <path class="cls-23" d="m447.6,582.85l16.28,117.25,86.28-12.72c-9.48-64.26-19.29-116.81-102.56-104.53h0Z"/>
                  <g>
                    <line class="cls-6" x1="365.81" y1="916.74" x2="328.35" y2="933.77"/>
                    <path class="cls-24" d="m420.03,960.62c-2.24,1.61-4.71,2.97-7.38,4.04l-35.46,14.24c-18.01,7.24-34.15-3.88-41.99-22-7.71-17.82-13.17-31.61,4.85-38.84l46.41-18.64c18.01-7.24,38.48,1.5,45.72,19.52,6.16,15.34.74,32.46-12.13,41.68Z"/>
                    <line class="cls-6" x1="364.55" y1="900.51" x2="397.33" y2="906.69"/>
                  </g>
                </g>
                <path class="cls-42" d="m462.92,773.6c.25-4.26,43.35-116.37,2.91-193.45l-39.23-8.61c34.16,33.56,36.57,138.53,36.32,142.82v59.24Z"/>
                <path class="cls-42" d="m209.48,773.42c-.25-4.26-44.49-116.19-4.04-193.27l37.87-7.23c-34.16,33.56-34.07,136.43-33.82,140.73v59.77Z"/>
              </g>
            </g>
            <g>
              <path class="cls-24" d="m452.6,427.76c0,54.35-36.4,100.14-86.12,114.43v23.35s-10.11,12.92-32.93,12.92-32.93-12.92-32.93-12.92v-23.35c-49.75-14.29-86.12-60.1-86.12-114.43,0-65.74,53.3-119.03,119.06-119.03s119.03,53.3,119.03,119.03Z"/>
              <path class="cls-43" d="m543.91,516.75c-88.93-6.8-105.64,9.72-114.71-63.48-26.3,20.05-59.22,31.99-94.86,31.99s-68.56-11.93-94.86-31.99c-9.07,73.21-25.78,56.68-114.71,63.5,5.99-106.57,16.53-115.59,67.33-122.49-6.25-13.53-10.62-28.09-12.79-43.38-.2-1.52-.41-3.05-.59-4.6-.64-5.78-.96-11.68-.96-17.62,0-68.88,44.48-127.41,106.28-148.34.55-.21,1.14-.39,1.7-.59,11.03-3.59,22.61-6.02,34.59-7.08,3.61-.29,7.24-.49,10.93-.59h.03c1,0,2.02-.02,3.05-.02v-.02c1.03,0,2.06.03,3.05.03h.03c3.69.1,7.33.29,10.93.59,11.98,1.06,23.56,3.49,34.59,7.06.55.21,1.14.39,1.7.59,61.8,20.95,106.28,79.47,106.28,148.34,0,5.96-.33,11.86-.96,17.64-.18,1.55-.39,3.08-.59,4.6-2.17,15.29-6.54,29.86-12.79,43.38,50.81,6.9,61.35,15.92,67.33,122.48Z"/>
              <path class="cls-24" d="m381.55,581.84c0,26.38-21.39,47.77-47.77,47.77s-47.77-21.39-47.77-47.77c0-26.38,21.39-47.77,47.77-47.77,26.38,0,47.77,21.39,47.77,47.77Z"/>
              <path class="cls-46" d="m452.83,427.95c0,54.35-36.4,100.14-86.12,114.43v23.35s-10.11,12.92-32.93,12.92-32.93-12.92-32.93-12.92v-23.35c-49.75-14.29-86.12-60.1-86.12-114.43,0-65.74,53.3-119.03,119.06-119.03s119.03,53.3,119.03,119.03Z"/>
              <path class="cls-24" d="m452.8,413.64c0,1.14.03,2.29.03,3.43,0,65.73-53.3,119.03-119.03,119.03s-119.06-53.3-119.06-119.03c0-1.23.03-2.43.06-3.67-10.68-1.53-18.86-10.71-18.86-21.79,0-12.17,9.86-22.06,22.06-22.06,1.35,0,2.67.12,3.93.38.41,1.06.79,2.08,1.2,3.11.35-.85.7-1.73,1.08-2.58-.73-.23-1.5-.41-2.29-.53-4.72-12.85-7.33-26.75-7.33-41.27,0-65.74,53.3-119.03,119.03-119.03s119.06,53.3,119.06,119.03c0,14.84-2.7,29.04-7.66,42.12-.44.12-.88.29-1.32.47.21.47.38.97.59,1.44.23-.62.47-1.26.73-1.91,2.26-.82,4.66-1.23,7.19-1.23,12.17,0,22.06,9.89,22.06,22.06s-9.56,21.74-21.47,22.03Z"/>
              <path class="cls-24" d="m221.92,369.93c.79.12,1.55.29,2.29.53-.38.85-.73,1.73-1.08,2.58-.41-1.03-.79-2.05-1.2-3.11Z"/>
              <path class="cls-24" d="m445.03,370.78c-.26.65-.5,1.29-.73,1.91-.21-.47-.38-.97-.59-1.44.44-.18.88-.35,1.32-.47Z"/>
              <path class="cls-24" d="m224.21,370.46c-.38.85-.73,1.73-1.08,2.58-.41-1.03-.79-2.05-1.2-3.11.79.12,1.55.29,2.29.53Z"/>
              <path class="cls-24" d="m445.03,370.78c-.26.65-.5,1.29-.73,1.91-.21-.47-.38-.97-.59-1.44.44-.18.88-.35,1.32-.47Z"/>
              <path class="cls-31" d="m361.5,465.76c0,7.63-3.72,14.42-9.56,18.86-4.37,3.33-9.91,5.3-15.95,5.3s-11.58-1.98-15.95-5.3c-5.84-4.44-9.56-11.23-9.56-18.86h51.02Z"/>
              <path class="cls-27" d="m351.95,484.62c-4.37,3.33-9.91,5.3-15.95,5.3s-11.58-1.98-15.95-5.3c3.16-3.95,9.12-6.63,15.95-6.63s12.81,2.68,15.95,6.63Z"/>
              <path class="cls-43" d="m461.57,327.11l20.09,33.23-35.96,10.44c2.05-12.38.18-28.42-29.86-29.74l.21-.26c-2.43.18-4.9.26-7.39.26-43.18,0-80.4-25.46-97.41-62.24-.12-.18-.18-.38-.26-.59-.5,1.88-1.09,3.67-1.7,5.49-11,32.15-37.66,56.99-70.9,65.47h-.03c-.35.09-.7.18-1.06.26-13.2,3.23-16.48,9.94-14.78,19.83l-22-6.8v-10.94c-7.57-.91-14.84-2.7-21.79-5.22-.65-5.78-.97-11.67-.97-17.63,0-68.87,44.47-127.39,106.27-148.33.59-.21,1.14-.38,1.7-.59,7.54,7.71,13.84,16.57,18.63,26.34.12.23.23.47.35.7.5-1.88,1.03-3.75,1.61-5.6,3.26-10.27,8.01-19.86,13.99-28.51,3.61-.29,7.27-.5,10.97-.59,1.03,0,2.02-.03,3.08-.03,74.95,0,137.6,52.65,152.97,123.02,0,.03.03.06.03.09.5,3.4.88,6.83,1.14,10.3-7.71,8.59-16.81,15.93-26.93,21.65Z"/>
              <path class="cls-8" d="m376.23,392.5c10.48-5.96,22.9-.89,27.66,8.83"/>
              <path class="cls-8" d="m293.23,392.5c-10.49-5.96-22.9-.89-27.66,8.83"/>
            </g>
          </g>
          <g>
            <g>
              <g>
                <path class="cls-25" d="m773.42,606.33l18.79,162.91,73.39-.19c-4.01-53.89,16.6-204.23-92.17-162.72Z"/>
                <path class="cls-13" d="m792.28,773.9l73.79-6.89-73.79,6.89Z"/>
                <polygon class="cls-44" points="804.76 779.31 857.7 774.44 858.93 795.31 806.18 797.61 804.76 779.31"/>
              </g>
              <g>
                <path class="cls-28" d="m875.4,754.24l-14.12,96.42c-.03,4.59-2.36-55.67-2.36-55.67l-52.65,2.39,1.55,46.06c-.32,43.5,35.12,70.5,43.66,71.19,15.64,1.27,50.05-18.86,61.27-61.02l7.89-89.24-45.23-10.13Z"/>
                <g>
                  <line class="cls-10" x1="887.71" y1="715.33" x2="888.84" y2="656.42"/>
                  <path class="cls-28" d="m922.01,768.48c1.03-1.94,1.85-4.04,2.43-6.27l7.66-29.61c3.89-15.04-5.52-27.44-20.28-31.86-14.51-4.34-26.4-6.61-30.29,8.42l-10.02,38.74c-3.89,15.04,6.92,21.14,21.54,25.09,12.45,3.36,23.05,6.63,28.96-4.52Z"/>
                  <line class="cls-2" x1="862.57" y1="695.53" x2="882.66" y2="739.64"/>
                  <line class="cls-10" x1="901.94" y1="718.5" x2="910.21" y2="653.78"/>
                  <line class="cls-10" x1="914.61" y1="721.31" x2="932.34" y2="665.4"/>
                  <line class="cls-10" x1="924.24" y1="727.68" x2="946.41" y2="690.88"/>
                </g>
              </g>
              <g>
                <path class="cls-25" d="m582.49,612.87l-41.05,158.77-72.66-10.31c11.4-52.82,11.7-204.57,113.72-148.46Z"/>
                <path class="cls-13" d="m540.72,776.23l-72.14-16.99,72.14,16.99Z"/>
                <polygon class="cls-44" points="527.62 779.88 475.85 767.75 471.76 788.26 523.7 797.81 527.62 779.88"/>
              </g>
              <rect class="cls-47" x="561.68" y="991.09" width="223.83" height="22.28" transform="translate(1347.18 2004.46) rotate(180)"/>
              <path class="cls-25" d="m785.91,638.68c-11.79-39.61-42.05-59.79-67.65-69.11-13.98-5.09-26.58-6.95-34.02-6.95-2.84,0-5.69,8.45-8.57,8.45h-6.66c-2.9,0-5.74-8.45-8.57-8.45-6.4,0-16.61,1.37-28.25,5-26.63,8.29-60.68,28.39-73.38,70.94-3.32,7.6-5.16,16.32-5.16,26.37l10.3,327.78,221.41.47,5.66-328.25c0-9.99-1.81-18.69-5.1-26.25Z"/>
              <path class="cls-14" d="m617.4,605c0,31.47,25.52,56.97,56.98,56.97s56.97-25.51,56.97-56.97c0-3.08-.24-6.09-.72-9.04-1.63-10.28-6.02-19.64-12.37-27.3-13.98-5.1-26.58-6.96-34.02-6.96-2.84,0-5.69,8.47-8.57,8.47h-6.66c-2.9,0-5.74-8.47-8.57-8.47-6.4,0-16.61,1.37-28.25,5.01-6.98,7.68-11.88,17.29-13.83,27.92-.63,3.36-.94,6.82-.94,10.37Z"/>
              <polygon class="cls-21" points="657.69 770.73 686.64 770.73 686.64 657.83 672.17 660.72 657.69 657.83 657.69 770.73"/>
              <path class="cls-26" d="m666.2,708.46l.18.18c3.03,3.03,7.93,3.03,10.96,0l.18-.18c3.03-3.03,3.03-7.93,0-10.96l-.18-.18c-3.03-3.03-7.93-3.03-10.96,0l-.18.18c-3.03,3.03-3.03,7.93,0,10.96Z"/>
              <path class="cls-26" d="m666.05,730.04l.18.18c3.03,3.03,7.93,3.03,10.96,0l.18-.18c3.03-3.03,3.03-7.93,0-10.96l-.18-.18c-3.03-3.03-7.93-3.03-10.96,0l-.18.18c-3.03,3.03-3.03,7.93,0,10.96Z"/>
              <path class="cls-26" d="m665.75,753.81l.18.18c3.03,3.03,7.93,3.03,10.96,0l.18-.18c3.03-3.03,3.03-7.93,0-10.96l-.18-.18c-3.03-3.03-7.93-3.03-10.96,0l-.18.18c-3.03,3.03-3.03,7.93,0,10.96Z"/>
              <path class="cls-14" d="m741.65,579.66c22.48,41.95,10.1,81.14-23.16,119.3l-46.32-38.23c45.36-18.96,61.65-56.63,34.74-95.54,5.82,0,28.95,10.48,34.74,14.48Z"/>
              <path class="cls-14" d="m604,579.66c-22.48,41.95-8.52,81.14,24.74,119.3l43.43-38.23c-45.36-18.96-60.34-56.63-33.43-95.54-5.82,0-28.95,10.48-34.74,14.48Z"/>
              <g class="cls-48">
                <path d="m578.72,976.44h23.36c4.35-26.82-33.71-365.78-18.93-380.31l-33.61,4.21c-10.29,19.62,30.17,354.33,29.18,376.1Z"/>
                <path class="cls-15" d="m555.07,668.06h21.65c5.23,0,9.47,4.24,9.47,9.47v23.95c0,5.23-4.24,9.47-9.47,9.47h-21.65c-5.23,0-9.47-4.24-9.47-9.47v-23.95c0-5.23,4.24-9.47,9.47-9.47Z" transform="translate(-49.61 43.9) rotate(-4.26)"/>
                <path d="m590.51,1009.66h0c-3.29,0-5.98-2.69-5.98-5.98v-13.13c0-3.29,2.69-5.98,5.98-5.98h0c3.29,0,5.98,2.69,5.98,5.98v13.13c0,3.29-2.69,5.98-5.98,5.98Z"/>
                <polygon points="578.72 976.44 584.53 993.43 596.49 993.43 602.09 976.44 578.72 976.44"/>
              </g>
              <g>
                <path class="cls-41" d="m581.35,973.73h23.36c4.35-26.82-33.71-365.78-18.93-380.31l-34.85,6.65c-10.29,19.62,31.41,351.88,30.42,373.65Z"/>
                <rect class="cls-9" x="548.23" y="665.35" width="40.59" height="42.89" rx="9.47" ry="9.47" transform="translate(-49.4 44.09) rotate(-4.26)"/>
                <path class="cls-40" d="m593.14,1009.84h0c-3.29,0-5.98-2.69-5.98-5.98v-13.13c0-3.29,2.69-5.98,5.98-5.98h0c3.29,0,5.98,2.69,5.98,5.98v13.13c0,3.29-2.69,5.98-5.98,5.98Z"/>
                <polygon class="cls-26" points="581.35 973.73 587.16 990.73 599.12 990.73 604.72 973.73 581.35 973.73"/>
              </g>
              <g class="cls-48">
                <path d="m794.81,602.78l-34.85-6.65c14.79,14.54-21.92,353.49-17.58,380.31h23.36c-.99-21.77,39.37-354.04,29.07-373.65Z"/>
                <rect class="cls-15" x="755.84" y="669.21" width="42.89" height="40.59" rx="9.47" ry="9.47" transform="translate(32 1413.47) rotate(-85.74)"/>
                <path d="m754.06,1007.5h0c-3.29,0-5.98-2.69-5.98-5.98v-13.13c0-3.29,2.69-5.98,5.98-5.98h0c3.29,0,5.98,2.69,5.98,5.98v13.13c0,3.29-2.69,5.98-5.98,5.98Z"/>
                <polygon points="742.38 976.44 748.08 993.79 760.04 993.79 765.74 976.44 742.38 976.44"/>
              </g>
              <g>
                <path class="cls-41" d="m793.79,600.08l-34.85-6.65c14.79,14.54-21.92,353.49-17.58,380.31h23.36c-.99-21.77,39.37-354.04,29.07-373.65Z"/>
                <path class="cls-9" d="m764.29,666.5h23.95c5.23,0,9.47,4.24,9.47,9.47v21.65c0,5.23-4.24,9.47-9.47,9.47h-23.95c-5.23,0-9.47-4.24-9.47-9.47v-21.65c0-5.23,4.24-9.47,9.47-9.47Z" transform="translate(33.75 1409.95) rotate(-85.74)"/>
                <path class="cls-40" d="m753.04,1007.32h0c-3.29,0-5.98-2.69-5.98-5.98v-13.13c0-3.29,2.69-5.98,5.98-5.98h0c3.29,0,5.98,2.69,5.98,5.98v13.13c0,3.29-2.69,5.98-5.98,5.98Z"/>
                <polygon class="cls-26" points="741.36 973.73 747.06 991.09 759.02 991.09 764.72 973.73 741.36 973.73"/>
              </g>
              <g>
                <path class="cls-28" d="m526.26,796.17s-7.67,16.15-12.41,34.01c-6.16,23.22-7.28,50.12-7.27,50.05l17.11-82.43-51.93-9.55-14.17,78.37c-5.11,35.89,19.26,74.14,28.89,76.27,8.52,1.89,68.66,2.35,79.79-60.96l10.7-66.95-50.7-18.82Z"/>
                <g>
                  <line class="cls-7" x1="563.21" y1="764.58" x2="595.7" y2="743.72"/>
                  <path class="cls-28" d="m570.21,829.67c2.41-.95,4.74-2.2,6.95-3.76l29.28-20.71c14.87-10.52,15.49-28.98,5.2-44.38-10.12-15.15-19.39-26.4-34.26-15.88l-38.31,27.1c-14.87,10.52-18.4,31.11-7.88,45.98,8.96,12.67,25.22,17.11,39.03,11.65Z"/>
                  <line class="cls-7" x1="551.05" y1="755.33" x2="539.24" y2="784.32"/>
                </g>
              </g>
            </g>
            <g>
              <path class="cls-38" d="m816.59,412.48c-1.5.42-2.71-1.95,0,0,7.36-2.08,12.74-8.83,12.74-16.84,0-7.46-4.68-13.85-11.27-16.34,6.57-2.47,11.25-8.86,11.25-16.32s-5.07-14.4-12.11-16.66c6.81-2.39,11.67-8.86,11.67-16.48,0-9.67-7.86-17.5-17.53-17.5-.95,0-1.87.08-2.79.24,5.28-2.97,8.86-8.67,8.86-15.19,0-9.67-7.83-17.5-17.5-17.5-.18,0-.37,0-.53.03.97-2.15,1.5-4.52,1.5-7.04,0-9.67-7.83-17.5-17.5-17.5-.95,0-1.87.08-2.79.24,1.18-2.31,1.81-4.91,1.81-7.67,0-9.67-7.86-17.53-17.53-17.53-5.44,0-10.3,2.5-13.51,6.39.74-1.92,1.13-3.99,1.13-6.18,0-9.67-7.83-17.5-17.5-17.5-5.7,0-10.77,2.73-13.95,6.96-.05,2.34-1.37,1.76,0,0,.03-.18.03-.37.03-.55,0-9.67-7.83-17.5-17.5-17.5-5.81,0-10.96,2.84-14.14,7.2-2.42-6.67-8.83-11.46-16.37-11.46-8.36,0-15.32,5.86-17.05,13.66-2.89-5.6-8.72-9.41-15.48-9.41-9.67,0-17.5,7.83-17.5,17.5v.21c-3.07-2.76-7.15-4.44-11.61-4.44-9.67,0-17.5,7.83-17.5,17.5,0,.63.03,1.26.1,1.87-2.34-1.21-5.02-1.87-7.83-1.87-9.67,0-17.53,7.83-17.53,17.5,0,1.45.18,2.84.53,4.18-2-.81-4.18-1.26-6.44-1.26-9.67,0-17.5,7.86-17.5,17.53,0,3.36.95,6.49,2.6,9.14-9.67.03-17.47,7.83-17.47,17.5,0,6.52,3.55,12.19,8.83,15.19-.89-.16-1.81-.24-2.76-.24-9.67,0-17.5,7.83-17.5,17.5,0,7.62,4.86,14.08,11.64,16.48-7.02,2.29-12.09,8.88-12.09,16.66s4.68,13.85,11.25,16.32c-6.6,2.47-11.3,8.85-11.3,16.34,0,8.02,5.39,14.77,12.72,16.82-4.44,3.18-7.36,8.38-7.36,14.27,0,9.67,7.83,17.5,17.5,17.5.26,0,.55,0,.81-.03-3.52,3.18-5.7,7.78-5.7,12.9,0,9.67,7.83,17.5,17.5,17.5,2.92,0,5.7-.74,8.12-2.02-3.05,3.13-4.97,7.46-4.97,12.22,0,9.67,7.83,17.5,17.5,17.5s17.11-7.44,17.47-16.77c23.02,18.24,51.53,29.04,82.38,29.04s58.52-10.46,81.35-28.22c.79,8.93,8.3,15.95,17.45,15.95,9.67,0,17.5-7.83,17.5-17.5,0-4.76-1.92-9.09-4.97-12.22-1.68-.84-1.31-1.37,0,0,2.42,1.29,5.18,2.02,8.09,2.02,9.67,0,17.53-7.83,17.53-17.5,0-5.12-2.21-9.72-5.7-12.9.26.03.53.03.79.03,9.67,0,17.5-7.83,17.5-17.5,0-5.89-2.92-11.11-7.38-14.24Zm-12.56-98.12c-.45.13-.92.24-1.39.29.42-.24.84-.47,1.26-.66.05.13.08.26.13.37Zm-55.39-72.76s-.05.08-.11.13c0-.05.03-.11.05-.16.03,0,.05.03.05.03Zm-203.83,72.84c.11.08.24.13.34.21-.13,0-.26-.03-.39-.08,0-.03.03-.08.05-.13Zm249.99,125.31c-.05-.05-.11-.08-.16-.16.08,0,.16,0,.24.03-.03.05-.05.11-.08.13Z"/>
              <path class="cls-38" d="m638.96,226.37s.05.03.05.03c-.03.03-.05.08-.11.13,0-.05.03-.11.05-.16Z"/>
              <path class="cls-38" d="m685.02,424.39c.08,0,.16,0,.24.03-.03.05-.05.11-.08.13-.05-.05-.11-.08-.16-.16Z"/>
              <path class="cls-38" d="m694.4,299.15c-.45.13-.92.24-1.39.29.42-.24.84-.47,1.26-.66.05.13.08.26.13.37Z"/>
              <path class="cls-38" d="m694.4,299.15c-.45.13-.92.24-1.39.29.42-.24.84-.47,1.26-.66.05.13.08.26.13.37Z"/>
              <path class="cls-38" d="m694.4,299.15c-.45.13-.92.24-1.39.29.42-.24.84-.47,1.26-.66.05.13.08.26.13.37Z"/>
              <path class="cls-38" d="m706.96,397.27c-1.5.42-3.1.66-4.76.66-1.97,0-3.89-.32-5.65-.95.31-.97.6-1.97.87-2.94,3.55.11,6.83,1.29,9.54,3.23Z"/>
              <path class="cls-38" d="m685.02,424.39c.08,0,.16,0,.24.03-.03.05-.05.11-.08.13-.05-.05-.11-.08-.16-.16Z"/>
              <path class="cls-38" d="m706.96,397.27c-1.5.42-3.1.66-4.76.66-1.97,0-3.89-.32-5.65-.95.31-.97.6-1.97.87-2.94,3.55.11,6.83,1.29,9.54,3.23Z"/>
              <path class="cls-38" d="m671.64,454.03c1.68.84,3.18,1.97,4.49,3.34-1.68-.84-3.21-1.97-4.49-3.34Z"/>
              <path class="cls-38" d="m685.26,424.42c-.03.05-.05.11-.08.13-.05-.05-.11-.08-.16-.16.08,0,.16,0,.24.03Z"/>
              <path class="cls-38" d="m676.14,457.37c-1.68-.84-3.21-1.97-4.49-3.34,1.68.84,3.18,1.97,4.49,3.34Z"/>
              <g>
                <circle class="cls-28" cx="672.67" cy="606.73" r="46.18" transform="translate(-232 653.36) rotate(-45)"/>
                <rect class="cls-29" x="642.16" y="519.61" width="61.01" height="69.13"/>
                <circle class="cls-29" cx="672.67" cy="442.37" r="110.31" transform="translate(-115.79 605.22) rotate(-45)"/>
                <path class="cls-28" d="m782.95,421.79c0,1.05.03,2.1.03,3.15,0,60.93-49.4,110.31-110.31,110.31s-110.31-49.37-110.31-110.31c0-1.13.03-2.26.05-3.36-9.88-1.42-17.47-9.93-17.47-20.23,0-11.27,9.14-20.42,20.42-20.42,1.23,0,2.47.11,3.65.34.37,1,.74,1.97,1.13,2.92.32-.81.66-1.6,1-2.42-.68-.21-1.39-.4-2.13-.5-4.39-11.9-6.81-24.78-6.81-38.23,0-60.93,49.4-110.31,110.31-110.31s110.31,49.37,110.31,110.31c0,13.74-2.52,26.91-7.12,39.02-.39.13-.79.29-1.18.45.18.42.34.87.53,1.29.24-.58.45-1.16.66-1.73,2.1-.74,4.36-1.13,6.73-1.13,11.27,0,20.42,9.14,20.42,20.42s-8.86,20.15-19.89,20.44Z"/>
                <path class="cls-28" d="m571.14,381.77c-.34.81-.68,1.6-1,2.42-.39-.95-.76-1.92-1.13-2.92.74.11,1.45.29,2.13.5Z"/>
                <path class="cls-28" d="m775.7,382.06c-.21.58-.42,1.16-.66,1.73-.18-.42-.34-.87-.53-1.29.39-.16.79-.32,1.18-.45Z"/>
                <path class="cls-28" d="m571.14,381.77c-.34.81-.68,1.6-1,2.42-.39-.95-.76-1.92-1.13-2.92.74.11,1.45.29,2.13.5Z"/>
                <path class="cls-28" d="m775.7,382.06c-.21.58-.42,1.16-.66,1.73-.18-.42-.34-.87-.53-1.29.39-.16.79-.32,1.18-.45Z"/>
                <path class="cls-17" d="m631.02,399.54c0,4.63-3.76,8.39-8.39,8.39s-8.39-3.76-8.39-8.39,3.76-8.39,8.39-8.39,8.39,3.76,8.39,8.39Z"/>
                <path class="cls-37" d="m734.6,399.54c0,4.63-3.76,8.39-8.39,8.39s-8.39-3.76-8.39-8.39,3.76-8.39,8.39-8.39,8.39,3.76,8.39,8.39Z"/>
                <path class="cls-45" d="m707.06,465.95c0,9.67-4.72,18.28-12.12,23.91-5.54,4.22-12.56,6.72-20.23,6.72s-14.68-2.5-20.23-6.72c-7.4-5.63-12.12-14.24-12.12-23.91h64.69Z"/>
                <path class="cls-20" d="m694.94,489.86c-5.54,4.22-12.56,6.72-20.23,6.72s-14.68-2.5-20.23-6.72c4.01-5.01,11.56-8.4,20.23-8.4s16.25,3.39,20.23,8.4Z"/>
                <path class="cls-29" d="m703.17,588.74c0,7.8-10.27,20.4-30.51,20.4s-30.51-12.61-30.51-20.4,13.66-14.12,30.51-14.12,30.51,6.32,30.51,14.12Z"/>
              </g>
              <path class="cls-38" d="m784.72,352.67l2.84-65.27-33.27-43.51-87.63-23.73-74.34,23.73s-33.37,32.47-39.65,38.17c0,0-3.76,46.75-.71,71.72-3.71,3.21-6.04,7.96-6.04,13.24,0,9.67,7.86,17.5,17.53,17.5s17.5-7.83,17.5-17.5c0-4.02-1.34-7.73-3.63-10.69,7.49-1.52,13.24-7.8,13.95-15.56,1.94.76,4.05,1.18,6.25,1.18,7.59,0,14.03-4.83,16.42-11.59,3.02,5.26,8.7,8.8,15.19,8.8,7.15,0,13.3-4.28,16-10.43,2.68,6.15,8.83,10.43,15.98,10.43,7.73,0,14.29-5.02,16.58-11.98,2.29,6.96,8.86,11.98,16.58,11.98s14.87-5.47,16.87-12.9c.95,8.8,8.38,15.69,17.42,15.69,4.94,0,9.41-2.05,12.59-5.39-.13.84-.21,1.71-.21,2.6,0,9.67,7.83,17.5,17.5,17.5,1.6,0,3.13-.21,4.6-.63-2.86,3.1-4.6,7.25-4.6,11.8,0,9.67,7.86,17.5,17.53,17.5s17.5-7.83,17.5-17.5c0-6.49-3.52-12.14-8.75-15.16Zm-72.94-31.72l-.37-.08c.11-.37.18-.74.29-1.1.05.39.08.79.08,1.18Z"/>
              <path class="cls-38" d="m638.96,226.37s.05.03.05.03c-.03.03-.05.08-.11.13,0-.05.03-.11.05-.16Z"/>
              <path class="cls-38" d="m639.01,226.4s-.05.08-.11.13c0-.05.03-.11.05-.16.03,0,.05.03.05.03Z"/>
            </g>
          </g>
        </g>
      </g>
    </g>
  </g>
</svg>