<?xml version="1.0" encoding="utf-8"?>
<!-- Generator: Adobe Illustrator 27.5.0, SVG Export Plug-In . SVG Version: 6.00 Build 0)  -->
<svg version="1.1" id="Camada_1" xmlns="http://www.w3.org/2000/svg" xmlns:xlink="http://www.w3.org/1999/xlink" x="0px" y="0px"
	 viewBox="0 0 470.3 540.3" style="enable-background:new 0 0 470.3 540.3;" xml:space="preserve">
<style type="text/css">
	.st0{fill:#F8D370;}
	.st1{clip-path:url(#SVGID_00000000938522578866267790000009924498534471458210_);}
	.st2{fill:#E50000;}
	.st3{fill:#980000;}
	.st4{fill:#BEBEBE;}
	.st5{fill:#EDEDED;}
	.st6{fill:#EA060E;}
	.st7{fill:#E5E5E5;}
	.st8{fill:none;stroke:#DF0229;stroke-width:4.48;stroke-miterlimit:10;}
	.st9{fill:#BD001E;}
	.st10{fill:none;stroke:#BB0022;stroke-width:4.84;stroke-miterlimit:10;}
	.st11{fill:none;stroke:#F84D30;stroke-width:4.84;stroke-miterlimit:10;}
	.st12{fill:#009F50;}
	.st13{fill:#00BA65;}
	.st14{fill:#165B41;}
	.st15{fill:#165B41;stroke:#165B41;stroke-width:0.32;stroke-miterlimit:10;}
	.st16{fill:#24282E;}
	.st17{fill:#C9D7D8;}
	.st18{fill:#E5E5E5;stroke:#191B1D;stroke-width:1.28;stroke-linecap:round;stroke-linejoin:round;}
	.st19{fill:#FF9D70;}
	.st20{opacity:0.2;fill:#541A00;enable-background:new    ;}
	.st21{fill:none;stroke:#FF9D70;stroke-width:10.46;stroke-linecap:round;stroke-linejoin:round;}
	.st22{fill:#77310E;}
	.st23{fill:#BD0200;}
	.st24{fill:#E83C35;}
	.st25{fill:none;stroke:#391412;stroke-width:3.2;stroke-linecap:round;stroke-miterlimit:10;}
	.st26{fill:#6A40D5;}
	.st27{clip-path:url(#SVGID_00000036958478113117269160000012201595653877250721_);}
	.st28{fill:#FFA500;}
	.st29{fill:#FFFFFF;stroke:#FFFFFF;stroke-width:6.42;stroke-miterlimit:10;}
	.st30{fill:#5E3112;}
	.st31{fill:#813513;}
	.st32{fill:none;stroke:#813513;stroke-width:7.3;stroke-linecap:round;stroke-linejoin:round;}
	.st33{fill:none;stroke:#813513;stroke-width:7.49;stroke-linecap:round;stroke-linejoin:round;}
	.st34{opacity:0.7;fill:#A0A7C2;enable-background:new    ;}
	.st35{fill:#FFFFFF;}
	.st36{fill:#E98C00;}
	.st37{opacity:0.5;}
	.st38{stroke:#000000;stroke-width:4.11;stroke-miterlimit:10;}
	.st39{fill:#713431;}
	.st40{fill:none;stroke:#FFFFFF;stroke-width:4.11;stroke-miterlimit:10;}
	.st41{fill:#21272A;}
	.st42{fill:none;stroke:#813513;stroke-width:9.81;stroke-linecap:round;stroke-linejoin:round;}
	.st43{fill:#260F03;}
	.st44{fill:#661B0F;}
	.st45{fill:#010101;}
	.st46{fill:#161415;}
	.st47{fill:#50120C;}
	.st48{fill:#EC383D;}
</style>
<g>
	<g id="Camada_2_00000070810742168795736060000003959023977661801625_">
		<g id="Camada_4">
			<g>
				<g>
					<circle class="st0" cx="138.9" cy="259.6" r="138.9"/>
					<g>
						<defs>
							<circle id="SVGID_1_" cx="138.9" cy="259.6" r="138.9"/>
						</defs>
						<clipPath id="SVGID_00000033367238705845759050000006073344404891670717_">
							<use xlink:href="#SVGID_1_"  style="overflow:visible;"/>
						</clipPath>
						<g style="clip-path:url(#SVGID_00000033367238705845759050000006073344404891670717_);">
							<g>
								<path class="st2" d="M221.3,360.5c0,17.9-16.5,32.5-36.8,32.5H93.7c-20.2,0-36.8-14.6-36.8-32.5V210.2
									c0-17.9,16.5-32.5,36.8-32.5h90.9c20.2,0,36.8,14.6,36.8,32.5L221.3,360.5L221.3,360.5z"/>
								<path class="st3" d="M76.4,199.2c9.3-6.8,13.8-10.8,13.8-21.5h44.2l-1.2,32.7L76.4,199.2L76.4,199.2z"/>
								<path class="st3" d="M203.8,199.2c-9.3-6.8-13.8-10.8-13.8-21.5h-44.2l1.2,32.7L203.8,199.2L203.8,199.2z"/>
							</g>
							<g>
								<rect x="79" y="398" class="st4" width="123.1" height="6.6"/>
								<path class="st5" d="M79,398V232.4c0-22.4,14.8-41.5,35-47.6c3-0.9,6.1-1.5,9.3-1.8c1.5-0.1,2.9-0.2,4.4-0.2h25.5
									c0.7,0,1.4,0,2.1,0.1c3.1,0.1,6.1,0.6,9.1,1.3c21.5,5.2,37.6,24.9,37.6,48.3V398H79z"/>
								<g>
									<polygon class="st6" points="187.5,286.6 187.5,395.7 94.6,395.6 90.3,384.3 90.3,277.8 178.3,277.8 									"/>
									<path class="st7" d="M185,287H95.8c-4.3-5.6-4.8-11.6,0-18.3H185L185,287L185,287z"/>
									<path class="st8" d="M94.8,285.5c-2.9-4.6-3.4-9-1.1-13.2h93.7"/>
									<path class="st9" d="M94.5,395.9c0,0-4.3-1.3-4.3-7.1V277.8h4.3V395.9z"/>
									<path class="st10" d="M98.7,287c-4.3-5.6-4.8-11.6,0-18.3"/>
									<path class="st11" d="M185,284.7v2.3H95.8c-4.3-5.6-4.8-11.6,0-18.3H185v2.3"/>
									<polygon class="st9" points="187.3,368 187.5,395.7 94.6,395.6 90.3,384.3 90.1,348.8 									"/>
								</g>
								<g>
									<path class="st12" d="M176.8,296l5.7,88.1c0.2,2.8-2,5.1-4.9,5.3l-69.6,4.5c-2.6,0.2-4.8-1.4-5.4-3.6
										c-0.1-0.3-0.2-0.6-0.2-1l-5.7-88.1c-0.2-2.8,2-5.1,4.9-5.3l69.6-4.5c0.6,0,1.2,0,1.7,0.2C175,292,176.6,293.8,176.8,296
										L176.8,296z"/>
									<path class="st7" d="M175.5,298.5l5.6,85.8c0.2,2.7-2,5-4.8,5.2l-67.3,4.4c-2.5,0.2-4.6-1.4-5.2-3.6
										c-0.1-0.3-0.1-0.6-0.2-1l-5.6-85.8c-0.2-2.7,1.9-5.5,4.8-5.7l67.3-3.9c0.6,0,1.1,0,1.7,0.1
										C173.8,294.6,175.4,296.3,175.5,298.5L175.5,298.5z"/>
									<path class="st12" d="M177.1,304.4l5.7,88.1c0-0.2-2.2,2.1-5.1,2.3l-69.6,4.5c-2.5,0.2-4.8-1.4-5.4-3.6
										c-0.1-0.3-0.2-0.7-0.2-1l-5.7-88.1c-0.2-2.8,2-5.1,4.9-5.3l69.6-4.5c0.6,0,1.2,0,1.7,0.2
										C175.1,297.4,176.7,299.2,177.1,304.4L177.1,304.4z"/>
									<path class="st13" d="M173,296.9l-70.3,98.8c-0.1-0.3-0.2-0.6-0.2-1l-2.1-31.8l46-64.6l24.9-1.6
										C171.9,296.7,172.4,296.7,173,296.9L173,296.9z"/>
									<g>
										<g>
											<path class="st14" d="M97.1,309.3l3.8-0.2c0.9,0,1.6,0.6,1.7,1.4c0,0.4-0.1,0.8-0.4,1.1s-0.7,0.5-1.1,0.5l-3.8,0.2
												L97.1,309.3L97.1,309.3z"/>
											<path class="st14" d="M100.9,309.3c0.8,0,1.4,0.5,1.5,1.3c0.1,0.8-0.6,1.4-1.3,1.5l-3.6,0.2l-0.2-2.7L100.9,309.3
												L100.9,309.3L100.9,309.3z M100.9,308.9L100.9,308.9l-3.6,0.2l-0.3,0l0,0.3l0.2,2.7l0,0.3l0.3,0l3.6-0.2
												c0.5,0,0.9-0.2,1.2-0.6c0.3-0.3,0.5-0.8,0.4-1.2C102.7,309.6,101.9,308.9,100.9,308.9L100.9,308.9L100.9,308.9z"/>
										</g>
										<g>
											<path class="st14" d="M97.5,315.7l3.7-0.2c0.4,0,0.8,0.1,1.1,0.4c0.3,0.3,0.5,0.6,0.5,1c0.1,0.8-0.6,1.6-1.5,1.6
												l-3.7,0.2L97.5,315.7z"/>
											<path class="st14" d="M101.3,315.6c0.4,0,0.7,0.1,1,0.3c0.3,0.2,0.4,0.6,0.5,0.9c0.1,0.8-0.6,1.4-1.3,1.5l-3.6,0.2
												l-0.2-2.7L101.3,315.6L101.3,315.6L101.3,315.6z M101.2,315.3L101.2,315.3l-3.6,0.2l-0.3,0l0,0.3l0.2,2.7l0,0.3l0.3,0
												l3.6-0.2c1-0.1,1.7-0.9,1.6-1.8c0-0.5-0.2-0.9-0.6-1.2C102.1,315.4,101.7,315.2,101.2,315.3L101.2,315.3L101.2,315.3z"/>
										</g>
										<g>
											<path class="st14" d="M97.9,322l3.7-0.2c0.4,0,0.8,0.1,1.1,0.4c0.3,0.3,0.5,0.6,0.5,1c0,0.4-0.1,0.8-0.4,1.1
												c-0.3,0.3-0.7,0.5-1.1,0.5l-3.7,0.2L97.9,322z"/>
											<path class="st14" d="M101.6,321.9c0.4,0,0.8,0.1,1,0.3s0.4,0.6,0.5,0.9c0.1,0.8-0.6,1.4-1.3,1.5l-3.5,0.2l-0.2-2.7
												L101.6,321.9L101.6,321.9L101.6,321.9z M101.6,321.6L101.6,321.6l0,0.3L101.6,321.6l-3.5,0.2l-0.3,0l0,0.3l0.2,2.7l0,0.3
												l0.3,0l3.5-0.2c0.5,0,0.9-0.2,1.2-0.6c0.3-0.3,0.5-0.8,0.4-1.2c0-0.5-0.2-0.9-0.6-1.2
												C102.5,321.7,102.1,321.6,101.6,321.6L101.6,321.6L101.6,321.6z"/>
										</g>
										<g>
											<path class="st14" d="M98.4,328.3l3.6-0.2c0.4,0,0.8,0.1,1.1,0.4c0.3,0.3,0.5,0.6,0.5,1c0.1,0.8-0.6,1.6-1.5,1.6
												l-3.6,0.2L98.4,328.3z"/>
											<path class="st14" d="M102,328.3c0.4,0,0.8,0.1,1,0.3c0.3,0.2,0.5,0.6,0.5,0.9c0.1,0.8-0.6,1.4-1.3,1.5l-3.4,0.2
												l-0.2-2.7L102,328.3L102,328.3L102,328.3z M102,328L102,328l-3.5,0.2l-0.3,0l0,0.3l0.2,2.7l0,0.3l0.3,0l3.4-0.2
												c1-0.1,1.7-0.9,1.6-1.8c0-0.5-0.2-0.9-0.6-1.2C102.9,328.1,102.4,327.9,102,328L102,328L102,328z"/>
										</g>
										<g>
											<path class="st14" d="M98.8,334.7l3.6-0.2c0.4,0,0.8,0.1,1.1,0.4c0.3,0.3,0.5,0.6,0.5,1c0,0.4-0.1,0.8-0.4,1.1
												c-0.3,0.3-0.7,0.5-1.1,0.5l-3.6,0.2L98.8,334.7z"/>
											<path class="st14" d="M102.3,334.6c0.4,0,0.8,0.1,1,0.3c0.3,0.2,0.4,0.6,0.5,0.9c0.1,0.8-0.6,1.4-1.3,1.5l-3.4,0.2
												l-0.2-2.7L102.3,334.6L102.3,334.6L102.3,334.6z M102.3,334.3L102.3,334.3l-3.4,0.2l-0.3,0l0,0.3l0.2,2.7l0,0.3l0.3,0
												l3.4-0.2c1-0.1,1.7-0.9,1.6-1.8c0-0.5-0.2-0.9-0.6-1.2C103.2,334.4,102.8,334.3,102.3,334.3L102.3,334.3L102.3,334.3z"/>
										</g>
										<g>
											<path class="st14" d="M99.2,341l3.5-0.2c0.4,0,0.8,0.1,1.1,0.4c0.3,0.3,0.5,0.6,0.5,1c0.1,0.8-0.6,1.6-1.5,1.6l-3.5,0.2
												L99.2,341z"/>
											<path class="st14" d="M102.7,340.9c0.4,0,0.8,0.1,1,0.3c0.3,0.2,0.5,0.6,0.5,0.9c0.1,0.8-0.6,1.4-1.3,1.5l-3.3,0.2
												l-0.2-2.7L102.7,340.9L102.7,340.9L102.7,340.9z M102.7,340.6L102.7,340.6l-3.3,0.2l-0.3,0l0,0.3l0.2,2.7l0,0.3l0.3,0
												l3.3-0.2c1-0.1,1.7-0.9,1.6-1.8c0-0.5-0.2-0.9-0.6-1.2C103.6,340.7,103.1,340.6,102.7,340.6L102.7,340.6L102.7,340.6z"/>
										</g>
										<g>
											<path class="st14" d="M99.6,347.3l3.4-0.2c0.4,0,0.8,0.1,1.1,0.4c0.3,0.3,0.5,0.6,0.5,1c0,0.4-0.1,0.8-0.4,1.1
												c-0.3,0.3-0.7,0.5-1.1,0.5l-3.4,0.2L99.6,347.3z"/>
											<path class="st14" d="M103.1,347.3c0.4,0,0.7,0.1,1,0.3c0.3,0.2,0.4,0.6,0.5,0.9c0.1,0.8-0.6,1.4-1.3,1.5l-3.3,0.2
												l-0.2-2.7L103.1,347.3L103.1,347.3L103.1,347.3z M103,347L103,347l-3.3,0.2l-0.3,0l0,0.3l0.2,2.7l0,0.3l0.3,0l3.3-0.2
												c1-0.1,1.7-0.9,1.6-1.8c0-0.5-0.2-0.9-0.6-1.2C103.9,347.1,103.5,346.9,103,347L103,347L103,347z"/>
										</g>
										<g>
											<path class="st14" d="M100,353.7l3.4-0.2c0.4,0,0.8,0.1,1.1,0.4c0.3,0.3,0.5,0.6,0.5,1c0,0.4-0.1,0.8-0.4,1.1
												s-0.7,0.5-1.1,0.5l-3.4,0.2L100,353.7L100,353.7z"/>
											<path class="st14" d="M103.4,353.6c0.4,0,0.8,0.1,1,0.3c0.3,0.2,0.5,0.6,0.5,0.9c0.1,0.8-0.6,1.4-1.3,1.5l-3.2,0.2
												l-0.2-2.7L103.4,353.6L103.4,353.6L103.4,353.6z M103.4,353.3L103.4,353.3l-3.2,0.2l-0.3,0l0,0.3l0.2,2.7l0,0.3l0.3,0
												l3.2-0.2c0.5,0,0.9-0.2,1.2-0.6c0.3-0.3,0.5-0.8,0.4-1.2s-0.2-0.9-0.6-1.2C104.3,353.4,103.9,353.3,103.4,353.3
												L103.4,353.3L103.4,353.3z"/>
										</g>
										<g>
											<path class="st14" d="M100.4,360l3.3-0.2c0.4,0,0.8,0.1,1.1,0.4c0.3,0.3,0.5,0.6,0.5,1c0,0.4-0.1,0.8-0.4,1.1
												c-0.3,0.3-0.7,0.5-1.1,0.5l-3.3,0.2L100.4,360L100.4,360z"/>
											<path class="st14" d="M103.8,360c0.4,0,0.8,0.1,1,0.3c0.3,0.2,0.5,0.6,0.5,0.9c0.1,0.8-0.6,1.4-1.3,1.5l-3.2,0.2
												l-0.2-2.7L103.8,360L103.8,360L103.8,360z M103.7,359.6L103.7,359.6l-3.2,0.2l-0.3,0l0,0.3l0.2,2.7l0,0.3l0.3,0l3.2-0.2
												c1-0.1,1.7-0.9,1.6-1.8c0-0.5-0.2-0.9-0.6-1.2C104.6,359.8,104.2,359.6,103.7,359.6L103.7,359.6L103.7,359.6z"/>
										</g>
										<g>
											<path class="st14" d="M100.8,366.3l3.3-0.2c0.4,0,0.8,0.1,1.1,0.4c0.3,0.3,0.5,0.6,0.5,1c0.1,0.8-0.6,1.6-1.5,1.6
												l-3.3,0.2L100.8,366.3z"/>
											<path class="st14" d="M104.1,366.3c0.4,0,0.8,0.1,1,0.3c0.3,0.2,0.4,0.6,0.5,0.9c0.1,0.8-0.6,1.4-1.3,1.5l-3.1,0.2
												l-0.2-2.7L104.1,366.3L104.1,366.3L104.1,366.3z M104.1,366L104.1,366l-3.1,0.2l-0.3,0l0,0.3l0.2,2.7l0,0.3l0.3,0
												l3.1-0.2c0.5,0,0.9-0.2,1.2-0.6c0.3-0.3,0.5-0.8,0.4-1.2c0-0.5-0.2-0.9-0.6-1.2C105,366.1,104.6,365.9,104.1,366
												L104.1,366L104.1,366z"/>
										</g>
										<g>
											<path class="st14" d="M101.2,372.7l3.2-0.2c0.4,0,0.8,0.1,1.1,0.4c0.3,0.3,0.5,0.6,0.5,1c0.1,0.8-0.6,1.6-1.5,1.6
												l-3.2,0.2L101.2,372.7L101.2,372.7z"/>
											<path class="st14" d="M104.5,372.6c0.4,0,0.8,0.1,1,0.3c0.3,0.2,0.5,0.6,0.5,0.9c0.1,0.8-0.6,1.4-1.3,1.5l-3.1,0.2
												l-0.2-2.7L104.5,372.6L104.5,372.6L104.5,372.6z M104.5,372.3L104.5,372.3l-3.1,0.2l-0.3,0l0,0.3l0.2,2.7l0,0.3l0.3,0
												l3.1-0.2c0.5,0,0.9-0.2,1.2-0.6c0.3-0.3,0.5-0.8,0.4-1.2s-0.2-0.9-0.6-1.2C105.4,372.4,104.9,372.3,104.5,372.3
												L104.5,372.3L104.5,372.3z"/>
										</g>
										<g>
											<path class="st14" d="M101.7,379l3.2-0.2c0.4,0,0.8,0.1,1.1,0.4c0.3,0.3,0.5,0.6,0.5,1c0,0.4-0.1,0.8-0.4,1.1
												s-0.7,0.5-1.1,0.5l-3.2,0.2L101.7,379L101.7,379z"/>
											<path class="st14" d="M104.8,379c0.4,0,0.7,0.1,1,0.3c0.3,0.2,0.4,0.6,0.5,0.9c0.1,0.8-0.6,1.4-1.3,1.5l-3,0.2l-0.2-2.7
												L104.8,379L104.8,379L104.8,379z M104.8,378.6L104.8,378.6l-3,0.2l-0.3,0l0,0.3l0.2,2.7l0,0.3l0.3,0l3-0.2
												c0.5,0,0.9-0.2,1.2-0.6c0.3-0.3,0.5-0.8,0.4-1.2c0-0.5-0.2-0.9-0.6-1.2C105.7,378.8,105.3,378.6,104.8,378.6L104.8,378.6
												L104.8,378.6z"/>
										</g>
										<g>
											<path class="st14" d="M102.1,385.3l3.1-0.2c0.4,0,0.8,0.1,1.1,0.4c0.3,0.3,0.5,0.6,0.5,1c0.1,0.8-0.6,1.6-1.5,1.6
												l-3.1,0.2L102.1,385.3z"/>
											<path class="st14" d="M105.2,385.3c0.4,0,0.8,0.1,1,0.3c0.3,0.2,0.5,0.6,0.5,0.9c0.1,0.8-0.6,1.4-1.3,1.5l-2.9,0.2
												l-0.2-2.7L105.2,385.3L105.2,385.3L105.2,385.3z M105.2,385L105.2,385l-3,0.2l-0.3,0l0,0.3l0.2,2.7l0,0.3l0.3,0l2.9-0.2
												c0.5,0,0.9-0.2,1.2-0.6c0.3-0.3,0.5-0.8,0.4-1.2s-0.2-0.9-0.6-1.2C106.1,385.1,105.6,385,105.2,385L105.2,385L105.2,385z
												"/>
										</g>
										<g>
											<path class="st14" d="M102.5,391.7l3.1-0.2c0.9,0,1.6,0.6,1.7,1.4c0.1,0.8-0.6,1.6-1.5,1.6l-3.1,0.2L102.5,391.7
												L102.5,391.7z"/>
											<path class="st14" d="M105.5,391.6c0.8,0,1.4,0.5,1.5,1.3c0.1,0.8-0.6,1.4-1.3,1.5l-2.9,0.2l-0.2-2.7L105.5,391.6
												L105.5,391.6L105.5,391.6z M105.5,391.3L105.5,391.3l-2.9,0.2l-0.3,0l0,0.3l0.2,2.7l0,0.3l0.3,0l2.9-0.2
												c0.5,0,0.9-0.2,1.2-0.6c0.3-0.3,0.5-0.8,0.4-1.2C107.3,392,106.5,391.3,105.5,391.3C105.5,391.3,105.5,391.3,105.5,391.3
												z"/>
										</g>
										<path class="st15" d="M98.7,331.2l-0.2-2.7L98.7,331.2z"/>
										<path class="st15" d="M99.1,337.6l-0.2-2.7L99.1,337.6z"/>
										<path class="st15" d="M100.8,362.9l-0.2-2.7L100.8,362.9z"/>
									</g>
									<g>
										<g>
											<path class="st16" d="M101.3,307.1c-0.5,0-1,0.3-1.3,0.6l0.5,0c0.8,0,1.5,0.5,1.5,1.3l0,0c0.1,0.8-0.6,1.4-1.3,1.5
												l-0.5,0c0.4,0.3,0.9,0.5,1.4,0.5c1.1-0.1,1.9-1,1.9-2C103.3,307.8,102.4,307,101.3,307.1L101.3,307.1z"/>
											<path class="st17" d="M102,308.9L102,308.9c-0.1-0.8-0.7-1.3-1.5-1.3l-0.5,0l-4.7,0.3c-0.8,0-1.4,0.7-1.3,1.5l0,0
												c0.1,0.8,0.7,1.3,1.5,1.3l4.7-0.3l0.5,0C101.4,310.4,102,309.7,102,308.9z"/>
										</g>
										<g>
											<path class="st16" d="M100.3,314l0.5,0c0.8,0,1.5,0.5,1.5,1.3l0,0c0.1,0.8-0.6,1.4-1.3,1.5l-0.5,0
												c0.4,0.3,0.9,0.5,1.4,0.5c1.1-0.1,1.9-1,1.9-2c-0.1-1-1-1.9-2.1-1.8C101.1,313.4,100.7,313.7,100.3,314L100.3,314z"/>
											<path class="st17" d="M95.6,314.3c-0.8,0-1.4,0.7-1.3,1.5l0,0c0.1,0.8,0.7,1.3,1.5,1.3l4.7-0.3l0.5,0
												c0.8,0,1.4-0.7,1.3-1.5l0,0c-0.1-0.8-0.7-1.3-1.5-1.3l-0.5,0L95.6,314.3z"/>
										</g>
										<g>
											<path class="st16" d="M100.7,320.4l0.5,0c0.8,0,1.5,0.5,1.5,1.3l0,0c0.1,0.8-0.6,1.4-1.3,1.5l-0.5,0
												c0.4,0.3,0.9,0.5,1.4,0.5c1.1-0.1,1.9-1,1.9-2c-0.1-1-1-1.9-2.1-1.8C101.5,319.8,101,320,100.7,320.4L100.7,320.4z"/>
											<path class="st17" d="M96,320.7c-0.8,0-1.4,0.7-1.3,1.5l0,0c0.1,0.8,0.7,1.3,1.5,1.3l4.7-0.3l0.5,0
												c0.8,0,1.4-0.7,1.3-1.5l0,0c-0.1-0.8-0.7-1.3-1.5-1.3l-0.5,0L96,320.7z"/>
										</g>
										<g>
											<path class="st16" d="M101,326.7l0.5,0c0.8,0,1.5,0.5,1.5,1.3l0,0c0.1,0.8-0.6,1.4-1.3,1.5l-0.5,0
												c0.4,0.3,0.9,0.5,1.4,0.5c1.1-0.1,1.9-1,1.9-2c-0.1-1-1-1.9-2.1-1.8C101.8,326.1,101.4,326.3,101,326.7L101,326.7z"/>
											<path class="st17" d="M96.3,327c-0.8,0-1.4,0.7-1.3,1.5l0,0c0.1,0.8,0.7,1.3,1.5,1.3l4.7-0.3l0.5,0
												c0.8,0,1.4-0.7,1.3-1.5l0,0c-0.1-0.8-0.7-1.3-1.5-1.3l-0.5,0L96.3,327z"/>
										</g>
										<g>
											<path class="st16" d="M101.4,333l0.5,0c0.8,0,1.5,0.5,1.5,1.3l0,0c0.1,0.8-0.6,1.4-1.3,1.5l-0.5,0
												c0.4,0.3,0.9,0.5,1.4,0.5c1.1-0.1,1.9-1,1.9-2c-0.1-1-1-1.9-2.1-1.8C102.2,332.4,101.7,332.7,101.4,333L101.4,333z"/>
											<path class="st17" d="M96.7,333.4c-0.8,0-1.4,0.7-1.3,1.5l0,0c0.1,0.8,0.7,1.3,1.5,1.3l4.7-0.3l0.5,0
												c0.8,0,1.4-0.7,1.3-1.5l0,0c-0.1-0.8-0.7-1.3-1.5-1.3l-0.5,0L96.7,333.4z"/>
										</g>
										<g>
											<path class="st16" d="M101.7,339.4l0.5,0c0.8,0,1.5,0.5,1.5,1.3l0,0c0.1,0.8-0.6,1.4-1.3,1.5l-0.5,0
												c0.4,0.3,0.9,0.5,1.4,0.5c1.1-0.1,1.9-1,1.9-2s-1-1.9-2.1-1.8C102.5,338.8,102.1,339,101.7,339.4L101.7,339.4z"/>
											<path class="st17" d="M97,339.7c-0.8,0-1.4,0.7-1.3,1.5l0,0c0.1,0.8,0.7,1.3,1.5,1.3l4.7-0.3l0.5,0
												c0.8,0,1.4-0.7,1.3-1.5l0,0c-0.1-0.8-0.7-1.3-1.5-1.3l-0.5,0L97,339.7z"/>
										</g>
										<g>
											<path class="st16" d="M102.1,345.7l0.5,0c0.8,0,1.5,0.5,1.5,1.3l0,0c0.1,0.8-0.6,1.4-1.3,1.5l-0.5,0
												c0.4,0.3,0.9,0.5,1.4,0.5c1.1-0.1,1.9-1,1.9-2c-0.1-1-1-1.9-2.1-1.8C102.9,345.1,102.4,345.4,102.1,345.7L102.1,345.7z"
												/>
											<path class="st17" d="M97.4,346c-0.8,0-1.4,0.7-1.3,1.5l0,0c0.1,0.8,0.7,1.3,1.5,1.3l4.7-0.3l0.5,0
												c0.8,0,1.4-0.7,1.3-1.5l0,0c-0.1-0.8-0.7-1.3-1.5-1.3l-0.5,0L97.4,346z"/>
										</g>
										<g>
											<path class="st16" d="M102.4,352.1l0.5,0c0.8,0,1.5,0.5,1.5,1.3l0,0c0.1,0.8-0.6,1.4-1.3,1.5l-0.5,0
												c0.4,0.3,0.9,0.5,1.4,0.5c1.1-0.1,1.9-1,1.9-2c-0.1-1-1-1.9-2.1-1.8C103.3,351.5,102.8,351.7,102.4,352.1L102.4,352.1z"
												/>
											<path class="st17" d="M97.8,352.4c-0.8,0-1.4,0.7-1.3,1.5l0,0c0.1,0.8,0.7,1.3,1.5,1.3l4.7-0.3l0.5,0
												c0.8,0,1.4-0.7,1.3-1.5l0,0c-0.1-0.8-0.7-1.3-1.5-1.3l-0.5,0L97.8,352.4z"/>
										</g>
										<g>
											<path class="st16" d="M102.8,358.4l0.5,0c0.8,0,1.5,0.5,1.5,1.3l0,0c0.1,0.8-0.6,1.4-1.3,1.5l-0.5,0
												c0.4,0.3,0.9,0.5,1.4,0.5c1.1-0.1,1.9-1,1.9-2c-0.1-1-1-1.9-2.1-1.8C103.6,357.8,103.1,358,102.8,358.4L102.8,358.4z"/>
											<path class="st17" d="M98.1,358.7c-0.8,0-1.4,0.7-1.3,1.5l0,0c0.1,0.8,0.7,1.3,1.5,1.3l4.7-0.3l0.5,0
												c0.8,0,1.4-0.7,1.3-1.5l0,0c-0.1-0.8-0.7-1.3-1.5-1.3l-0.5,0L98.1,358.7z"/>
										</g>
										<g>
											<path class="st16" d="M103.2,364.7l0.5,0c0.8,0,1.5,0.5,1.5,1.3l0,0c0.1,0.8-0.6,1.4-1.3,1.5l-0.5,0
												c0.4,0.3,0.9,0.5,1.4,0.5c1.1-0.1,1.9-1,1.9-2c-0.1-1-1-1.9-2.1-1.8C104,364.1,103.5,364.4,103.2,364.7L103.2,364.7z"/>
											<path class="st17" d="M98.5,365c-0.8,0-1.4,0.7-1.3,1.5l0,0c0.1,0.8,0.7,1.3,1.5,1.3l4.7-0.3l0.5,0
												c0.8,0,1.4-0.7,1.3-1.5l0,0c-0.1-0.8-0.7-1.3-1.5-1.3l-0.5,0L98.5,365z"/>
										</g>
										<g>
											<path class="st16" d="M103.5,371.1l0.5,0c0.8,0,1.5,0.5,1.5,1.3l0,0c0.1,0.8-0.6,1.4-1.3,1.5l-0.5,0
												c0.4,0.3,0.9,0.5,1.4,0.5c1.1-0.1,1.9-1,1.9-2c-0.1-1-1-1.9-2.1-1.8C104.3,370.5,103.9,370.7,103.5,371.1L103.5,371.1z"
												/>
											<path class="st17" d="M98.8,371.4c-0.8,0-1.4,0.7-1.3,1.5l0,0c0.1,0.8,0.7,1.3,1.5,1.3l4.7-0.3l0.5,0
												c0.8,0,1.4-0.7,1.3-1.5l0,0c-0.1-0.8-0.7-1.3-1.5-1.3l-0.5,0L98.8,371.4z"/>
										</g>
										<g>
											<path class="st16" d="M103.9,377.4l0.5,0c0.8,0,1.5,0.5,1.5,1.3l0,0c0.1,0.8-0.6,1.4-1.3,1.5l-0.5,0
												c0.4,0.3,0.9,0.5,1.4,0.5c1.1-0.1,1.9-1,1.9-2c-0.1-1-1-1.9-2.1-1.8C104.7,376.8,104.2,377,103.9,377.4L103.9,377.4z"/>
											<path class="st17" d="M99.2,377.7c-0.8,0-1.4,0.7-1.3,1.5l0,0c0.1,0.8,0.7,1.3,1.5,1.3l4.7-0.3l0.5,0
												c0.8,0,1.4-0.7,1.3-1.5l0,0c-0.1-0.8-0.7-1.3-1.5-1.3l-0.5,0L99.2,377.7z"/>
										</g>
										<g>
											<path class="st16" d="M104.2,383.7l0.5,0c0.8,0,1.5,0.5,1.5,1.3l0,0c0.1,0.8-0.6,1.4-1.3,1.5l-0.5,0
												c0.4,0.3,0.9,0.5,1.4,0.5c1.1-0.1,1.9-1,1.9-2c-0.1-1-1-1.9-2.1-1.8C105,383.1,104.6,383.4,104.2,383.7L104.2,383.7z"/>
											<path class="st17" d="M99.5,384.1c-0.8,0-1.4,0.7-1.3,1.5l0,0c0.1,0.8,0.7,1.3,1.5,1.3l4.7-0.3l0.5,0
												c0.8,0,1.4-0.7,1.3-1.5l0,0c-0.1-0.8-0.7-1.3-1.5-1.3l-0.5,0L99.5,384.1z"/>
										</g>
										<g>
											<path class="st16" d="M105.9,389.4c-0.5,0-1,0.3-1.3,0.6l0.5,0c0.8,0,1.5,0.5,1.5,1.3c0.1,0.8-0.6,1.4-1.3,1.5l-0.5,0
												c0.4,0.3,0.9,0.5,1.4,0.5c1.1-0.1,1.9-1,1.9-2C108,390.2,107,389.4,105.9,389.4L105.9,389.4z"/>
											<path class="st17" d="M106.6,391.3c-0.1-0.8-0.7-1.3-1.5-1.3l-0.5,0l-4.7,0.3c-0.8,0-1.4,0.7-1.3,1.5
												c0.1,0.8,0.7,1.3,1.5,1.3l4.7-0.3l0.5,0C106,392.7,106.6,392.1,106.6,391.3z"/>
										</g>
									</g>
									<path class="st7" d="M121.7,319.3l34.8-2.3c2.2-0.1,4.1,1.5,4.2,3.7l1.7,25.7c0.1,2.2-1.5,4.1-3.7,4.2l-34.8,2.3
										c-2.2,0.1-4.1-1.5-4.2-3.7l-1.7-25.7C117.8,321.4,119.5,319.5,121.7,319.3z"/>
									<g>
										<path class="st18" d="M125.2,327.1l28.6-1.9C153.8,325.2,125.2,327.1,125.2,327.1z"/>
										<path class="st18" d="M125.6,333.2l28.6-1.9C154.2,331.4,125.6,333.2,125.6,333.2z"/>
										<path class="st18" d="M126,339.3l28.6-1.9L126,339.3z"/>
										<path class="st18" d="M126.4,345.4l28.6-1.9L126.4,345.4z"/>
									</g>
								</g>
								<path class="st7" d="M164.5,184c-2.9-0.7-6-1.1-9.1-1.3c4.5,4.2,7.3,10.2,7.3,16.9c0,12.8-10.4,23.3-23.3,23.3
									s-23.3-10.4-23.3-23.3c0-6.6,2.7-12.5,7.1-16.8c-3.2,0.3-6.3,0.9-9.3,1.8c-2.6,4.4-4.1,9.5-4.1,15
									c0,16.3,13.3,29.6,29.6,29.6c16.3,0,29.6-13.3,29.6-29.6C169,194,167.4,188.6,164.5,184L164.5,184z"/>
								<g>
									<path class="st19" d="M106.6,382.8l11-19.3l-53.4-30.4c0.3-5.7,0.9-13.6,1.4-20.5c0.6-8.3,1.1-15.5,1.2-18.8l3.2-62.2
										l-22.2-1.1l-3.2,62.5c-0.1,2.8-0.6,10.2-1.2,18.1c-1,14-1.7,24.1-1.7,28.4v4.2c0,1.4,0.8,2.7,2,3.4L106.6,382.8
										L106.6,382.8z"/>
									<polygon class="st20" points="68.3,264.1 46,263.7 46.8,248.1 69,250.4 									"/>
									<path class="st5" d="M84.8,199.5l-7.9,57.1l-42-6.2C39.5,219.1,44.3,193.5,84.8,199.5L84.8,199.5z"/>
									<g>
										<line class="st21" x1="124.6" y1="362" x2="142.9" y2="370.3"/>
										<path class="st19" d="M98.2,383.4c1.1,0.8,2.3,1.5,3.6,2l17.3,6.9c8.8,3.5,16.6-1.9,20.4-10.7c3.8-8.7,6.4-15.4-2.4-18.9
											l-22.6-9.1c-8.8-3.5-18.7,0.7-22.3,9.5C89.3,370.6,92,378.9,98.2,383.4L98.2,383.4z"/>
										<line class="st21" x1="125.2" y1="354.1" x2="109.3" y2="357.1"/>
									</g>
								</g>
								<g>
									<path class="st19" d="M173.2,383.3l-11-19.3l53.4-30.4c-0.3-5.7-0.9-13.6-1.4-20.5c-0.6-8.3-1.1-15.5-1.2-18.8l-3.1-62.2
										l22.2-1.1l3.2,62.5c0.1,2.8,0.6,10.2,1.2,18.1c1,14,1.7,24.1,1.7,28.4v3.7c0,1.7-0.9,3.3-2.4,4.1L173.2,383.3L173.2,383.3z
										"/>
									<polygon class="st20" points="211.5,264.6 233.7,264.2 233,248.6 210.8,250.9 									"/>
									<path class="st5" d="M195,200l7.9,57.1l42-6.2C240.3,219.6,235.5,194,195,200L195,200L195,200z"/>
									<g>
										<line class="st21" x1="155.1" y1="362.6" x2="136.9" y2="370.9"/>
										<path class="st19" d="M181.5,384c-1.1,0.8-2.3,1.5-3.6,2l-17.3,6.9c-8.8,3.5-16.6-1.9-20.4-10.7
											c-3.8-8.7-6.4-15.4,2.4-18.9l22.6-9.1c8.8-3.5,18.7,0.7,22.3,9.5C190.4,371.1,187.8,379.5,181.5,384L181.5,384z"/>
										<line class="st21" x1="154.5" y1="354.7" x2="170.5" y2="357.7"/>
									</g>
								</g>
								<path class="st3" d="M202.4,292.9c0.1-2.1,21.1-56.7,1.4-94.2l-19.1-4.2c16.6,16.3,17.8,67.4,17.7,69.5L202.4,292.9
									L202.4,292.9z"/>
								<path class="st3" d="M79,292.8c-0.1-2.1-21.7-56.6-2-94.1l18.4-3.5c-16.6,16.3-16.6,66.4-16.5,68.5V292.8z"/>
							</g>
						</g>
					</g>
					<g>
						<path class="st19" d="M197.4,124.5c0,26.5-17.7,48.8-41.9,55.7v11.4c0,0-4.9,6.3-16,6.3s-16-6.3-16-6.3v-11.4
							c-24.2-7-41.9-29.3-41.9-55.7c0-32,26-58,58-58S197.4,92.5,197.4,124.5L197.4,124.5z"/>
						<path class="st22" d="M241.9,167.8c-43.3-3.3-51.4,4.7-55.9-30.9c-12.8,9.8-28.8,15.6-46.2,15.6s-33.4-5.8-46.2-15.6
							c-4.4,35.6-12.6,27.6-55.8,30.9c2.9-51.9,8-56.3,32.8-59.6c-3-6.6-5.2-13.7-6.2-21.1c-0.1-0.7-0.2-1.5-0.3-2.2
							c-0.3-2.8-0.5-5.7-0.5-8.6c0-33.5,21.7-62,51.8-72.2c0.3-0.1,0.6-0.2,0.8-0.3c5.4-1.7,11-2.9,16.8-3.5
							c1.8-0.1,3.5-0.2,5.3-0.3h0c0.5,0,1,0,1.5,0l0,0c0.5,0,1,0,1.5,0h0c1.8,0.1,3.6,0.1,5.3,0.3c5.8,0.5,11.5,1.7,16.8,3.4
							c0.3,0.1,0.6,0.2,0.8,0.3c30.1,10.2,51.8,38.7,51.8,72.2c0,2.9-0.2,5.8-0.5,8.6c-0.1,0.8-0.2,1.5-0.3,2.2
							c-1.1,7.4-3.2,14.5-6.2,21.1C233.8,111.6,238.9,116,241.9,167.8L241.9,167.8z"/>
						<path class="st19" d="M162.8,199.5c0,12.9-10.4,23.3-23.3,23.3s-23.3-10.4-23.3-23.3c0-12.9,10.4-23.3,23.3-23.3
							S162.8,186.7,162.8,199.5z"/>
						<path class="st20" d="M197.5,124.6c0,26.5-17.7,48.8-41.9,55.7v11.4c0,0-4.9,6.3-16,6.3s-16-6.3-16-6.3v-11.4
							c-24.2-7-41.9-29.3-41.9-55.7c0-32,26-58,58-58S197.5,92.6,197.5,124.6L197.5,124.6z"/>
						<path class="st19" d="M197.5,117.6c0,0.6,0,1.1,0,1.7c0,32-25.9,58-58,58s-58-25.9-58-58c0-0.6,0-1.2,0-1.8
							c-5.2-0.7-9.2-5.2-9.2-10.6c0-5.9,4.8-10.7,10.7-10.7c0.7,0,1.3,0.1,1.9,0.2c0.2,0.5,0.4,1,0.6,1.5c0.2-0.4,0.3-0.8,0.5-1.3
							c-0.4-0.1-0.7-0.2-1.1-0.3c-2.3-6.3-3.6-13-3.6-20.1c0-32,26-58,58-58s58,25.9,58,58c0,7.2-1.3,14.1-3.7,20.5
							c-0.2,0.1-0.4,0.1-0.6,0.2c0.1,0.2,0.2,0.5,0.3,0.7c0.1-0.3,0.2-0.6,0.4-0.9c1.1-0.4,2.3-0.6,3.5-0.6
							c5.9,0,10.7,4.8,10.7,10.7S203.3,117.5,197.5,117.6L197.5,117.6z"/>
						<path class="st19" d="M85.1,96.3c0.4,0.1,0.8,0.1,1.1,0.3c-0.2,0.4-0.4,0.8-0.5,1.3C85.5,97.4,85.3,96.9,85.1,96.3L85.1,96.3z
							"/>
						<path class="st19" d="M193.7,96.8c-0.1,0.3-0.2,0.6-0.4,0.9c-0.1-0.2-0.2-0.5-0.3-0.7C193.3,96.9,193.5,96.8,193.7,96.8
							L193.7,96.8z"/>
						<path class="st19" d="M86.2,96.6c-0.2,0.4-0.4,0.8-0.5,1.3c-0.2-0.5-0.4-1-0.6-1.5C85.5,96.4,85.8,96.5,86.2,96.6L86.2,96.6z"
							/>
						<path class="st19" d="M193.7,96.8c-0.1,0.3-0.2,0.6-0.4,0.9c-0.1-0.2-0.2-0.5-0.3-0.7C193.3,96.9,193.5,96.8,193.7,96.8
							L193.7,96.8z"/>
						<path class="st23" d="M153,143c0,3.7-1.8,7-4.6,9.2c-2.1,1.6-4.8,2.6-7.8,2.6s-5.6-1-7.8-2.6c-2.8-2.2-4.6-5.5-4.6-9.2
							L153,143L153,143z"/>
						<path class="st24" d="M148.4,152.2c-2.1,1.6-4.8,2.6-7.8,2.6s-5.6-1-7.8-2.6c1.5-1.9,4.4-3.2,7.8-3.2S146.9,150.3,148.4,152.2
							z"/>
						<path class="st22" d="M201.8,75.5l9.8,16.2L194,96.8c1-6,0.1-13.8-14.5-14.5l0.1-0.1c-1.2,0.1-2.4,0.1-3.6,0.1
							c-21,0-39.2-12.4-47.4-30.3c-0.1-0.1-0.1-0.2-0.1-0.3c-0.2,0.9-0.5,1.8-0.8,2.7c-5.4,15.7-18.3,27.8-34.5,31.9h0
							c-0.2,0-0.3,0.1-0.5,0.1c-6.4,1.6-8,4.8-7.2,9.7l-10.7-3.3v-5.3c-3.7-0.4-7.2-1.3-10.6-2.5c-0.3-2.8-0.5-5.7-0.5-8.6
							c0-33.5,21.7-62,51.7-72.2c0.3-0.1,0.6-0.2,0.8-0.3c3.7,3.8,6.7,8.1,9.1,12.8l0.2,0.3c0.2-0.9,0.5-1.8,0.8-2.7
							c1.6-5,3.9-9.7,6.8-13.9c1.8-0.1,3.5-0.2,5.3-0.3c0.5,0,1,0,1.5,0c36.5,0,67,25.6,74.5,59.9c0,0,0,0,0,0
							c0.2,1.7,0.4,3.3,0.6,5C211.1,69.1,206.7,72.7,201.8,75.5L201.8,75.5z"/>
						<path class="st25" d="M160.2,107.3c5.1-2.9,11.1-0.4,13.5,4.3"/>
						<path class="st25" d="M119.8,107.3c-5.1-2.9-11.2-0.4-13.5,4.3"/>
					</g>
				</g>
				<g>
					<circle class="st26" cx="331.4" cy="389.8" r="138.9"/>
					<g>
						<defs>
							<circle id="SVGID_00000062889230768769517120000000755545852757541819_" cx="331.4" cy="389.8" r="138.9"/>
						</defs>
						<clipPath id="SVGID_00000110439065864471570190000014606791313081423007_">
							<use xlink:href="#SVGID_00000062889230768769517120000000755545852757541819_"  style="overflow:visible;"/>
						</clipPath>
						<g style="clip-path:url(#SVGID_00000110439065864471570190000014606791313081423007_);">
							<g>
								<g>
									<path class="st28" d="M380.3,342.1l9.1,79.3l35.7-0.1C423.2,395.1,433.3,321.9,380.3,342.1z"/>
									<path class="st29" d="M389.5,423.7l35.9-3.4L389.5,423.7z"/>
									<polygon class="st30" points="395.5,426.3 421.3,423.9 421.9,434.1 396.2,435.2 									"/>
								</g>
								<g>
									<path class="st31" d="M430,414.1l-6.9,47c0,2.2-1.1-27.1-1.1-27.1l-25.6,1.2l0.8,22.4c-0.1,21.2,17.1,34.3,21.3,34.7
										c7.6,0.6,24.4-9.2,29.8-29.7L452,419L430,414.1L430,414.1z"/>
									<g>
										<line class="st32" x1="435.9" y1="395.2" x2="436.5" y2="366.5"/>
										<path class="st31" d="M452.6,421c0.5-1,0.9-2,1.2-3l3.7-14.4c1.9-7.3-2.7-13.4-9.9-15.5c-7.1-2.1-12.9-3.2-14.8,4.1
											l-4.9,18.9c-1.9,7.3,3.4,10.3,10.5,12.2C444.6,424.9,449.8,426.5,452.6,421L452.6,421z"/>
										<line class="st33" x1="423.7" y1="385.5" x2="433.5" y2="407"/>
										<line class="st32" x1="442.9" y1="396.7" x2="446.9" y2="365.2"/>
										<line class="st32" x1="449" y1="398.1" x2="457.7" y2="370.8"/>
										<line class="st32" x1="453.7" y1="401.2" x2="464.5" y2="383.2"/>
									</g>
								</g>
								<g>
									<path class="st28" d="M287.3,345.3l-20,77.3l-35.4-5C237.5,391.8,237.6,317.9,287.3,345.3L287.3,345.3z"/>
									<path class="st29" d="M267,424.8l-35.1-8.3L267,424.8z"/>
									<polygon class="st30" points="260.6,426.6 235.4,420.7 233.4,430.7 258.7,435.3 									"/>
								</g>
								<rect x="277.2" y="529.4" class="st34" width="109" height="10.8"/>
								<path class="st28" d="M386.4,357.8c-5.7-19.3-20.5-29.1-32.9-33.6c-6.8-2.5-12.9-3.4-16.6-3.4c-1.4,0-2.8,4.1-4.2,4.1h-3.2
									c-1.4,0-2.8-4.1-4.2-4.1c-3.1,0-8.1,0.7-13.8,2.4c-13,4-29.5,13.8-35.7,34.5c-1.6,3.7-2.5,8-2.5,12.8l5,159.6l107.8,0.2
									l2.8-159.8C388.9,365.7,388,361.5,386.4,357.8L386.4,357.8z"/>
								<path class="st35" d="M304.3,341.4c0,15.3,12.4,27.7,27.8,27.7s27.7-12.4,27.7-27.7c0-1.5-0.1-3-0.4-4.4
									c-0.8-5-2.9-9.6-6-13.3c-6.8-2.5-12.9-3.4-16.6-3.4c-1.4,0-2.8,4.1-4.2,4.1h-3.2c-1.4,0-2.8-4.1-4.2-4.1
									c-3.1,0-8.1,0.7-13.8,2.4c-3.4,3.7-5.8,8.4-6.7,13.6C304.5,338,304.3,339.7,304.3,341.4L304.3,341.4z"/>
								<polygon class="st36" points="324,422.1 338,422.1 338,367.2 331,368.6 324,367.2 								"/>
								<path class="st7" d="M328.1,391.8L328.1,391.8c1.6,1.6,3.9,1.6,5.4,0.1l0.1-0.1c1.5-1.5,1.5-3.9,0-5.3l-0.1-0.1
									c-1.5-1.5-3.9-1.5-5.3,0l-0.1,0.1C326.6,387.9,326.6,390.3,328.1,391.8z"/>
								<path class="st7" d="M328,402.3L328,402.3c1.6,1.6,3.9,1.6,5.4,0.1l0.1-0.1c1.5-1.5,1.5-3.9,0-5.3l-0.1-0.1
									c-1.5-1.5-3.9-1.5-5.3,0L328,397C326.5,398.4,326.5,400.8,328,402.3z"/>
								<path class="st7" d="M327.9,413.9L327.9,413.9c1.6,1.6,3.9,1.6,5.4,0.1l0.1-0.1c1.5-1.5,1.5-3.9,0-5.3l-0.1-0.1
									c-1.5-1.5-3.9-1.5-5.3,0l-0.1,0.1C326.4,410,326.4,412.4,327.9,413.9z"/>
								<path class="st35" d="M364.8,329.1c11,20.4,4.9,39.5-11.3,58.1L331,368.6c22.1-9.2,30-27.6,16.9-46.5
									C350.7,322,362,327.1,364.8,329.1L364.8,329.1z"/>
								<path class="st35" d="M297.8,329.1c-11,20.4-4.1,39.5,12,58.1l21.1-18.6c-22.1-9.2-29.4-27.6-16.3-46.5
									C311.9,322,300.6,327.1,297.8,329.1L297.8,329.1z"/>
								<g class="st37">
									<path d="M285.5,522.3h11.4c2.1-13.1-16.4-178.1-9.2-185.2l-16.4,2C266.3,348.7,286,511.7,285.5,522.3L285.5,522.3z"/>
									<path class="st38" d="M273.2,372.5l10.5-0.8c2.5-0.2,4.8,1.7,4.9,4.3l0.9,11.6c0.2,2.5-1.7,4.8-4.3,4.9l-10.5,0.8
										c-2.5,0.2-4.8-1.7-4.9-4.3l-0.9-11.6C268.8,374.9,270.7,372.7,273.2,372.5z"/>
									<path d="M291.2,538.5L291.2,538.5c-1.6,0-2.9-1.3-2.9-2.9v-6.4c0-1.6,1.3-2.9,2.9-2.9l0,0c1.6,0,2.9,1.3,2.9,2.9v6.4
										C294.1,537.2,292.8,538.5,291.2,538.5z"/>
									<polygon points="285.5,522.3 288.3,530.6 294.1,530.6 296.9,522.3 									"/>
								</g>
								<g>
									<path class="st39" d="M286.8,521h11.4c2.1-13.1-16.4-178.1-9.2-185.2l-17,3.2C266.9,348.6,287.2,510.4,286.8,521L286.8,521
										z"/>
									<path class="st40" d="M274.5,371.2l10.5-0.8c2.5-0.2,4.8,1.7,4.9,4.3l0.9,11.6c0.2,2.5-1.7,4.8-4.3,4.9l-10.5,0.8
										c-2.5,0.2-4.8-1.7-4.9-4.3l-0.9-11.6C270.1,373.6,272,371.4,274.5,371.2z"/>
									<path class="st41" d="M292.5,538.5L292.5,538.5c-1.6,0-2.9-1.3-2.9-2.9v-6.4c0-1.6,1.3-2.9,2.9-2.9l0,0
										c1.6,0,2.9,1.3,2.9,2.9v6.4C295.4,537.2,294.1,538.5,292.5,538.5z"/>
									<polygon class="st7" points="286.8,521 289.6,529.2 295.4,529.2 298.1,521 									"/>
								</g>
								<g class="st37">
									<path d="M390.7,340.4l-17-3.2c7.2,7.1-10.7,172.1-8.6,185.2h11.4C376.1,511.7,395.7,349.9,390.7,340.4z"/>
									<path class="st38" d="M371.9,387.7l0.9-11.6c0.2-2.5,2.4-4.4,4.9-4.3l10.5,0.8c2.5,0.2,4.4,2.4,4.3,4.9l-0.9,11.6
										c-0.2,2.5-2.4,4.4-4.9,4.3l-10.5-0.8C373.6,392.4,371.7,390.2,371.9,387.7z"/>
									<path d="M370.9,537.4L370.9,537.4c-1.6,0-2.9-1.3-2.9-2.9v-6.4c0-1.6,1.3-2.9,2.9-2.9l0,0c1.6,0,2.9,1.3,2.9,2.9v6.4
										C373.8,536.1,372.5,537.4,370.9,537.4z"/>
									<polygon points="365.2,522.3 368,530.7 373.8,530.7 376.6,522.3 									"/>
								</g>
								<g>
									<path class="st39" d="M390.2,339l-17-3.2c7.2,7.1-10.7,172.1-8.6,185.2h11.4C375.6,510.4,395.2,348.6,390.2,339L390.2,339z
										"/>
									<path class="st40" d="M371.4,386.4l0.9-11.6c0.2-2.5,2.4-4.4,4.9-4.3l10.5,0.8c2.5,0.2,4.4,2.4,4.3,4.9l-0.9,11.6
										c-0.2,2.5-2.4,4.4-4.9,4.3l-10.5-0.8C373.1,391.1,371.2,388.9,371.4,386.4z"/>
									<path class="st41" d="M370.4,537.3L370.4,537.3c-1.6,0-2.9-1.3-2.9-2.9V528c0-1.6,1.3-2.9,2.9-2.9l0,0
										c1.6,0,2.9,1.3,2.9,2.9v6.4C373.3,536,372,537.3,370.4,537.3z"/>
									<polygon class="st7" points="364.7,521 367.5,529.4 373.3,529.4 376.1,521 									"/>
								</g>
								<g>
									<path class="st31" d="M260,434.5c0,0-3.7,7.9-6,16.6c-3,11.3-3.5,24.4-3.5,24.4l8.3-40.1l-25.3-4.6l-6.9,38.2
										c-2.5,17.5,9.4,36.1,14.1,37.1c4.1,0.9,33.4,1.1,38.9-29.7l5.2-32.6L260,434.5L260,434.5z"/>
									<g>
										<line class="st42" x1="277.9" y1="419.1" x2="293.8" y2="409"/>
										<path class="st31" d="M281.4,450.8c1.2-0.5,2.3-1.1,3.4-1.8l14.3-10.1c7.2-5.1,7.5-14.1,2.5-21.6
											c-4.9-7.4-9.4-12.9-16.7-7.7l-18.7,13.2c-7.2,5.1-9,15.1-3.8,22.4C266.7,451.3,274.6,453.5,281.4,450.8L281.4,450.8z"/>
										<line class="st42" x1="272" y1="414.6" x2="266.3" y2="428.7"/>
									</g>
								</g>
							</g>
						</g>
					</g>
					<g>
						<path class="st43" d="M401.3,247.7C400.6,247.9,400,246.7,401.3,247.7c3.6-1,6.2-4.3,6.2-8.2c0-3.6-2.3-6.7-5.5-8
							c3.2-1.2,5.5-4.3,5.5-7.9s-2.5-7-5.9-8.1c3.3-1.2,5.7-4.3,5.7-8c0-4.7-3.8-8.5-8.5-8.5c-0.5,0-0.9,0-1.4,0.1
							c2.6-1.4,4.3-4.2,4.3-7.4c0-4.7-3.8-8.5-8.5-8.5c-0.1,0-0.2,0-0.3,0c0.5-1.1,0.7-2.2,0.7-3.4c0-4.7-3.8-8.5-8.5-8.5
							c-0.5,0-0.9,0-1.4,0.1c0.6-1.1,0.9-2.4,0.9-3.7c0-4.7-3.8-8.5-8.5-8.5c-2.6,0-5,1.2-6.6,3.1c0.4-0.9,0.5-1.9,0.5-3
							c0-4.7-3.8-8.5-8.5-8.5c-2.8,0-5.2,1.3-6.8,3.4c0,1.1-0.7,0.9,0,0c0-0.1,0-0.2,0-0.3c0-4.7-3.8-8.5-8.5-8.5
							c-2.8,0-5.3,1.4-6.9,3.5c-1.2-3.2-4.3-5.6-8-5.6c-4.1,0-7.5,2.9-8.3,6.6c-1.4-2.7-4.2-4.6-7.5-4.6c-4.7,0-8.5,3.8-8.5,8.5v0.1
							c-1.5-1.3-3.5-2.2-5.6-2.2c-4.7,0-8.5,3.8-8.5,8.5c0,0.3,0,0.6,0,0.9c-1.1-0.6-2.4-0.9-3.8-0.9c-4.7,0-8.5,3.8-8.5,8.5
							c0,0.7,0.1,1.4,0.3,2c-1-0.4-2-0.6-3.1-0.6c-4.7,0-8.5,3.8-8.5,8.5c0,1.6,0.5,3.2,1.3,4.4c-4.7,0-8.5,3.8-8.5,8.5
							c0,3.2,1.7,5.9,4.3,7.4c-0.4-0.1-0.9-0.1-1.3-0.1c-4.7,0-8.5,3.8-8.5,8.5c0,3.7,2.4,6.9,5.7,8c-3.4,1.1-5.9,4.3-5.9,8.1
							s2.3,6.7,5.5,7.9c-3.2,1.2-5.5,4.3-5.5,8c0,3.9,2.6,7.2,6.2,8.2c-2.2,1.6-3.6,4.1-3.6,6.9c0,4.7,3.8,8.5,8.5,8.5
							c0.1,0,0.3,0,0.4,0c-1.7,1.5-2.8,3.8-2.8,6.3c0,4.7,3.8,8.5,8.5,8.5c1.4,0,2.8-0.4,4-1c-1.5,1.5-2.4,3.6-2.4,6
							c0,4.7,3.8,8.5,8.5,8.5s8.3-3.6,8.5-8.2c11.2,8.9,25.1,14.1,40.1,14.1s28.5-5.1,39.6-13.7c0.4,4.4,4,7.8,8.5,7.8
							c4.7,0,8.5-3.8,8.5-8.5c0-2.3-0.9-4.4-2.4-6c-0.8-0.4-0.6-0.7,0,0c1.2,0.6,2.5,1,3.9,1c4.7,0,8.5-3.8,8.5-8.5
							c0-2.5-1.1-4.7-2.8-6.3c0.1,0,0.3,0,0.4,0c4.7,0,8.5-3.8,8.5-8.5C404.9,251.8,403.5,249.2,401.3,247.7L401.3,247.7z
							 M395.2,199.9c-0.2,0.1-0.5,0.1-0.7,0.1c0.2-0.1,0.4-0.2,0.6-0.3C395.1,199.8,395.2,199.9,395.2,199.9L395.2,199.9z
							 M368.2,164.5C368.2,164.5,368.2,164.5,368.2,164.5C368.2,164.5,368.2,164.5,368.2,164.5C368.2,164.5,368.2,164.5,368.2,164.5
							L368.2,164.5z M269,200c0,0,0.1,0.1,0.2,0.1C269.1,200.1,269,200.1,269,200C269,200,269,200,269,200L269,200z M390.7,261
							C390.7,261,390.7,260.9,390.7,261C390.7,260.9,390.7,260.9,390.7,261C390.7,260.9,390.7,261,390.7,261L390.7,261z"/>
						<path class="st43" d="M314.8,157.1L314.8,157.1C314.8,157.1,314.8,157.1,314.8,157.1C314.8,157.1,314.8,157.1,314.8,157.1
							L314.8,157.1z"/>
						<path class="st43" d="M337.2,253.5c0,0,0.1,0,0.1,0C337.4,253.5,337.3,253.6,337.2,253.5C337.3,253.5,337.3,253.5,337.2,253.5
							L337.2,253.5z"/>
						<path class="st43" d="M341.8,192.5c-0.2,0.1-0.5,0.1-0.7,0.1c0.2-0.1,0.4-0.2,0.6-0.3C341.8,192.4,341.8,192.5,341.8,192.5
							L341.8,192.5z"/>
						<path class="st43" d="M341.8,192.5c-0.2,0.1-0.5,0.1-0.7,0.1c0.2-0.1,0.4-0.2,0.6-0.3C341.8,192.4,341.8,192.5,341.8,192.5
							L341.8,192.5z"/>
						<path class="st43" d="M341.8,192.5c-0.2,0.1-0.5,0.1-0.7,0.1c0.2-0.1,0.4-0.2,0.6-0.3C341.8,192.4,341.8,192.5,341.8,192.5
							L341.8,192.5z"/>
						<path class="st43" d="M347.9,240.3c-0.7,0.2-1.5,0.3-2.3,0.3c-1,0-1.9-0.1-2.8-0.5c0.1-0.5,0.3-1,0.4-1.4
							C345,238.8,346.6,239.3,347.9,240.3L347.9,240.3z"/>
						<path class="st43" d="M337.2,253.5c0,0,0.1,0,0.1,0C337.4,253.5,337.3,253.6,337.2,253.5C337.3,253.5,337.3,253.5,337.2,253.5
							L337.2,253.5z"/>
						<path class="st43" d="M347.9,240.3c-0.7,0.2-1.5,0.3-2.3,0.3c-1,0-1.9-0.1-2.8-0.5c0.1-0.5,0.3-1,0.4-1.4
							C345,238.8,346.6,239.3,347.9,240.3L347.9,240.3z"/>
						<path class="st43" d="M330.7,267.9c0.8,0.4,1.5,1,2.2,1.6C332.1,269.1,331.4,268.6,330.7,267.9z"/>
						<path class="st43" d="M337.4,253.5C337.4,253.5,337.3,253.6,337.4,253.5c-0.1,0-0.1,0-0.1,0
							C337.3,253.5,337.3,253.5,337.4,253.5L337.4,253.5z"/>
						<path class="st43" d="M332.9,269.5c-0.8-0.4-1.6-1-2.2-1.6C331.6,268.3,332.3,268.9,332.9,269.5z"/>
						<g>
							<circle class="st31" cx="331.2" cy="342.3" r="22.5"/>
							<rect x="316.4" y="299.9" class="st44" width="29.7" height="33.7"/>
							<circle class="st44" cx="331.2" cy="262.3" r="53.7"/>
							<path class="st31" d="M384.9,252.2c0,0.5,0,1,0,1.5c0,29.7-24,53.7-53.7,53.7s-53.7-24-53.7-53.7c0-0.6,0-1.1,0-1.6
								c-4.8-0.7-8.5-4.8-8.5-9.9c0-5.5,4.5-9.9,9.9-9.9c0.6,0,1.2,0.1,1.8,0.2c0.2,0.5,0.4,1,0.5,1.4c0.1-0.4,0.3-0.8,0.5-1.2
								c-0.3-0.1-0.7-0.2-1-0.2c-2.1-5.8-3.3-12.1-3.3-18.6c0-29.7,24-53.7,53.7-53.7s53.7,24,53.7,53.7c0,6.7-1.2,13.1-3.5,19
								c-0.2,0.1-0.4,0.1-0.6,0.2c0.1,0.2,0.2,0.4,0.3,0.6c0.1-0.3,0.2-0.6,0.3-0.8c1-0.4,2.1-0.6,3.3-0.6c5.5,0,9.9,4.4,9.9,9.9
								S390.3,252.1,384.9,252.2L384.9,252.2z"/>
							<path class="st31" d="M281.8,232.7c-0.2,0.4-0.3,0.8-0.5,1.2c-0.2-0.5-0.4-0.9-0.5-1.4C281.1,232.6,281.5,232.6,281.8,232.7
								L281.8,232.7z"/>
							<path class="st31" d="M381.4,232.9c-0.1,0.3-0.2,0.6-0.3,0.8c-0.1-0.2-0.2-0.4-0.3-0.6C381,233,381.2,232.9,381.4,232.9
								L381.4,232.9z"/>
							<path class="st31" d="M281.8,232.7c-0.2,0.4-0.3,0.8-0.5,1.2c-0.2-0.5-0.4-0.9-0.5-1.4C281.1,232.6,281.5,232.6,281.8,232.7
								L281.8,232.7z"/>
							<path class="st31" d="M381.4,232.9c-0.1,0.3-0.2,0.6-0.3,0.8c-0.1-0.2-0.2-0.4-0.3-0.6C381,233,381.2,232.9,381.4,232.9
								L381.4,232.9z"/>
							<path class="st45" d="M311,241.4c0,2.3-1.8,4.1-4.1,4.1s-4.1-1.8-4.1-4.1s1.8-4.1,4.1-4.1S311,239.1,311,241.4z"/>
							<path class="st46" d="M361.4,241.4c0,2.3-1.8,4.1-4.1,4.1s-4.1-1.8-4.1-4.1s1.8-4.1,4.1-4.1S361.4,239.1,361.4,241.4z"/>
							<path class="st47" d="M348,273.7c0,4.7-2.3,8.9-5.9,11.6c-2.7,2-6.1,3.3-9.9,3.3s-7.1-1.2-9.9-3.3c-3.6-2.7-5.9-6.9-5.9-11.6
								H348z"/>
							<path class="st48" d="M342.1,285.4c-2.7,2-6.1,3.3-9.9,3.3s-7.1-1.2-9.9-3.3c2-2.4,5.6-4.1,9.9-4.1S340.1,282.9,342.1,285.4z
								"/>
							<path class="st44" d="M346.1,333.5c0,3.8-5,9.9-14.9,9.9s-14.9-6.1-14.9-9.9s6.6-6.9,14.9-6.9S346.1,329.7,346.1,333.5z"/>
						</g>
						<path class="st43" d="M385.8,218.6l1.4-31.8L371,165.6l-42.7-11.6l-36.2,11.6c0,0-16.2,15.8-19.3,18.6c0,0-1.8,22.8-0.4,34.9
							c-1.8,1.6-2.9,3.9-2.9,6.4c0,4.7,3.8,8.5,8.5,8.5s8.5-3.8,8.5-8.5c0-2-0.6-3.8-1.8-5.2c3.6-0.7,6.5-3.8,6.8-7.6
							c1,0.4,2,0.6,3,0.6c3.7,0,6.8-2.4,8-5.6c1.5,2.6,4.2,4.3,7.4,4.3c3.5,0,6.5-2.1,7.8-5.1c1.3,3,4.3,5.1,7.8,5.1
							c3.8,0,7-2.4,8.1-5.8c1.1,3.4,4.3,5.8,8.1,5.8s7.2-2.7,8.2-6.3c0.5,4.3,4.1,7.6,8.5,7.6c2.4,0,4.6-1,6.1-2.6
							c-0.1,0.4-0.1,0.8-0.1,1.3c0,4.7,3.8,8.5,8.5,8.5c0.8,0,1.5-0.1,2.2-0.3c-1.4,1.5-2.2,3.5-2.2,5.7c0,4.7,3.8,8.5,8.5,8.5
							s8.5-3.8,8.5-8.5C390,222.8,388.3,220.1,385.8,218.6L385.8,218.6z M350.3,203.1l-0.2,0c0-0.2,0.1-0.4,0.1-0.5
							C350.3,202.7,350.3,202.9,350.3,203.1L350.3,203.1z"/>
						<path class="st43" d="M314.8,157.1L314.8,157.1C314.8,157.1,314.8,157.1,314.8,157.1C314.8,157.1,314.8,157.1,314.8,157.1
							L314.8,157.1z"/>
						<path class="st43" d="M314.9,157.1C314.9,157.1,314.8,157.1,314.9,157.1C314.8,157.1,314.8,157.1,314.9,157.1
							C314.8,157.1,314.9,157.1,314.9,157.1L314.9,157.1z"/>
					</g>
				</g>
			</g>
		</g>
	</g>
</g>
</svg>
