<?xml version="1.0" encoding="UTF-8"?><svg xmlns="http://www.w3.org/2000/svg" viewBox="0 0 1920 1080"><defs><style>.cls-1{fill:#f3effb;}.cls-2{fill:#6a40d5;mix-blend-mode:multiply;opacity:.1;}.cls-3{isolation:isolate;}</style></defs><g class="cls-3"><g id="Camada_4"><rect class="cls-1" y="0" width="1920" height="1080"/><path class="cls-2" d="M1919.89,543.36v536.64H.11v-391.92H65.41v33.93h12.66v-42.6h-.93v-.81h.93l3.97-1.42v-17.83h17.02v-2.36h11.17l16.02-6.19,12.9,6.44v73.94h.63v-112.95h55.11v94.49h2.11v-205.46l28.17-19.32,37.25-33.07,30.14,189.61h24.6v-23.78s15.75-.14,23.97-.1c.41-21.49,2.02-43.86,5.82-63.93,12.66-66.87,32.77-101.8,40.96-101.8,5.25,0,15.41,13.83,24.58,34.77v-88.64l53.99,4.09v42.35h10.43v118.9h11.92v34.06h10.3v-177.11l16.88-2.47v-70.1l16.91-5.94v-28.99l15.37-3.96h16.39v29.97h15.4v62.67h13.4v62.91l22.1-3.46h55.36v-12.63h13.65v-9.42h4.23v-9.41h15.64v-21.8h30.04l.25-55.48,3.11,55.85h3.47v60.19h20.12v23.97h13.96v88.05h30.72v95.55l19.14-.42c.04-24.23,.1-48.31,.1-48.31h3.73l13.89-88.68,14.4,87.69,7.2,.25v48.19l12.48-.28v-63.89h28.64v-137.97h5.96v-26.01h34.63v25.64h6.33v226.27h10.79v-226.27h4.1v-25.64h37.61v25.26h5.22v226.65h10.05v-56.85h18.24v56.85h6.33v-65.39h23.09v2.69h8.84v4.46h5.86v77h9.87v-30.65h1.9v-5.25h10.24v-9.12h10.19v9.04h12.04v21.55h5.59v-64.03h4.59v-5.82h17.01v-12.63h13.28v32.94h6.58v-5.57h17.01v-27.31h3.73v4.4h3.78v-4.65h3.23v-29.66h2.11v-5.63h7.76v-9.85h27.18v18.58h20.73v79.88h12.05v-244.35l13.34-13.32v-17.52h10.61v51.4h5.58l4.22,10.52h7.95v25.64h-1.86v213.76h15.77v-106.26h47.67v8.17h6.33v39.76h5.95v54.62h24.95v-121.87h9.68s-1.11-10.4,4.38-16.26c5.49-5.85,11.45-10.68,11.45-10.68v18.12h4.38v9.19h3.35v-63.35h10.24v-13.65s.37,7.89,4.93,7.89,6.24-19.22,6.24-19.22v21.64h14.52v11.7h12.85v3.35h-2.99v5.48h-2.14v73.84s15.6-.46,15.6,7.34c-.1,0,0,2.55,0,2.55h11.45v6.74h7.59v23.03h2.24v-3.71h3.45v-2.42h4.28v-5.11h6.51v4.93h5.12v3.16h16.85v26.56h10.15v-5.2h11.27v6.32h3.72v-13.38l14.43-5.76v-95.58h5.21v-51.46h2.43v-10.59h10.05v-2.78h31.65v53.5h13.41v7.06h7.45v3.16h5.02v47h2.43v32.14h6.51v2.04h-2.43v5.57h5.03v-8.54h8.01v-4.09h27v4.09h3.16v10.59h4.66v-21h7.82v-26.93h5.03v-7.99h17.5v7.8h10.05v17.28h13.96v-35.3h5.03v-3.71h4.65v-3.16h19.75v13.93h6.14v-24.34l12.66-13.93h46.74v7.99h9.31v9.1h26.25v-12.07h-13.03v-6.32h16.72Z"/><text/></g></g></svg>