<?xml version="1.0" encoding="UTF-8"?><svg id="Camada_2" xmlns="http://www.w3.org/2000/svg" viewBox="0 0 528.16 528.16"><defs><style>.cls-1{fill:#040404;}.cls-2{fill:#6a40d5;}.cls-3{fill:#ffe164;}.cls-4{fill:#efc825;}.cls-5,.cls-6{fill:#ffd629;}.cls-7{fill:#e5bc0e;}.cls-8{fill:#b5b5b5;}.cls-9{fill:#8f8d98;}.cls-10{fill:#33cfff;}.cls-11{fill:#383838;}.cls-12{fill:#282828;}.cls-6{font-family:Nunito-Bold, Nunito;font-size:20px;}</style></defs><g id="Camada_4"><g><g><circle class="cls-2" cx="264.08" cy="264.08" r="264.08"/><g><g><rect class="cls-3" x="193.77" y="24.48" width="128.88" height="22.95" rx="10.62" ry="10.62"/><g><rect class="cls-1" x="144.05" y="420.63" width="227.91" height="20.65" rx="10.18" ry="10.18"/><rect class="cls-1" x="227.88" y="425.6" width="60.56" height="20.65" rx="10.18" ry="10.18"/><rect class="cls-1" x="63.88" y="378.43" width="61.91" height="115.25" rx="11.68" ry="11.68"/><rect class="cls-1" x="390.9" y="378.43" width="61.91" height="115.25" rx="11.68" ry="11.68"/><path class="cls-1" d="M451.45,264.07c3.56-2.38,21.45-14.61,24.7-21.6,3.2-6.9,1.72-30.34,1.4-34.97l-7.38,.47c.77,10.8,1.03,27.77-.79,31.68-1.78,3.84-14.06,13.25-22.2,18.7l4.27,5.72Z"/><rect class="cls-1" x="457.9" y="152.9" width="32.28" height="56.64" rx="7.11" ry="7.11" transform="translate(948.09 362.44) rotate(-180)"/><path class="cls-1" d="M64.59,263.92c-3.56-2.38-21.45-14.61-24.7-21.6-3.2-6.9-1.72-30.34-1.4-34.97l7.38,.47c-.77,10.8-1.03,27.77,.79,31.68,1.78,3.84,14.06,13.25,22.2,18.7l-4.27,5.72Z"/><path class="cls-7" d="M258.13,436.03h96.19c70.81,0,97.53,1.02,97.53-28.05V68.05c0-10.28-7.47-19.04-17.65-20.71-34.01-5.58-111.63-16.91-176.07-16.91"/><path class="cls-5" d="M258.14,436.02h-96.19c-70.81,0-97.53,1.02-97.53-28.05V68.05c0-10.28,7.47-19.04,17.65-20.71,34.01-5.58,111.63-16.91,176.07-16.91"/><path class="cls-1" d="M169.57,416.18c-.6,.98-1.73,1.66-3.06,1.64-10.89-.07-39.42-.36-60.1-1.3-16.14-.73-25.19-1.66-29.45-2.21-1.75-.22-3.06-1.64-3.06-3.31v-17.91c0-2.22,2.25-3.81,4.51-3.21,3.62,.97,9.65,2.19,18.88,3,35.31,3.09,58.06,3.41,65.64,3.41,.71,0,1.37,.2,1.93,.55,.32,2.41,.59,4.42,.8,5.93,.75,5.61,2.08,10,3.93,13.41Z"/><path class="cls-3" d="M258.14,277.52v157.73h-64.87c-13.96,0-23.98-4.67-26.65-25.67-1.06-8.31-3.97-30.83-7.09-54.99-1.22-9.44-2.48-19.13-3.67-28.33-3.46-26.7-6.38-49.21-6.38-49.21l-.44-3.38,108.7,3.83h.41Z"/><path class="cls-1" d="M444.43,166.7v73.85c0,12.8-4.99,17-25.53,23.43-40.08,12.52-72.44,13.34-160.77,13.34s-120.68-.82-160.77-13.34c-20.54-6.43-25.53-10.63-25.53-23.43v-73.85c0-52.31-1.41-95.15,8.31-104.08,10.37-9.53,137.16-19.79,177.98-19.79s167.62,10.26,177.98,19.79c9.72,8.92,8.31,51.77,8.31,104.08Z"/><path class="cls-1" d="M346.54,416.15c.6,.98,1.73,1.66,3.06,1.64,10.89-.07,39.42-.36,60.1-1.3,16.14-.73,25.19-1.66,29.45-2.21,1.75-.22,3.06-1.64,3.06-3.31v-17.91c0-2.22-2.25-3.81-4.51-3.21-3.62,.97-9.65,2.19-18.88,3-35.31,3.09-58.06,3.41-65.64,3.41-.71,0-1.37,.2-1.93,.55-.32,2.41-.59,4.42-.8,5.93-.75,5.61-2.08,10-3.93,13.41Z"/><path class="cls-4" d="M367.13,274.57l-.33,2.49s-2.92,22.51-6.38,49.21c-1.2,9.2-2.46,18.88-3.67,28.34-3.13,24.15-6.04,46.67-7.09,54.99-2.67,20.99-12.69,25.67-26.65,25.67h-64.87v-157.74h.41l1.41-.06c49.74-.01,81.59-.3,107.17-2.89Z"/><path class="cls-1" d="M347.03,354.68H168.38c-1.18,0-2.18-.87-2.34-2.03l-3.06-22.22c-.19-1.41,.91-2.67,2.34-2.67h184.53c2.04,0,3.6,1.79,3.32,3.8l-2.81,20.23c-.23,1.65-1.65,2.88-3.32,2.88Z"/><path class="cls-1" d="M337.58,417.16H177.82c-1.17,0-2.21-.73-2.54-1.79l-4.87-15.37c-.51-1.61,.76-3.24,2.54-3.24h169.44c1.78,0,3.05,1.62,2.55,3.23l-4.82,15.37c-.33,1.07-1.37,1.8-2.55,1.8Z"/><rect class="cls-1" x="25.86" y="152.75" width="32.28" height="56.64" rx="7.11" ry="7.11"/><path class="cls-10" d="M425.27,249.37c-1.42,.27-2.88,.25-4.32,.07-12.47-1.52-98.86-11.79-163.14-11.79s-148.83,10.02-162.68,11.73c-2.85,.35-5.8,.04-8.36-1.17-4.47-2.11-7.54-6.36-7.54-11.22V98.02c0-6.95,6.18-11.39,13.92-12.64,0,0,82.7-11.61,166.14-11.61s163.19,11.61,163.19,11.61c8.53,1.27,13.92,5.69,13.92,12.64V236.99c0,6.08-4.8,11.2-11.12,12.38Z"/><g><path class="cls-11" d="M159.11,350.56c.31,2.12-1.44,3.98-3.59,3.82-24.12-1.87-42.77-5.25-63.3-11.32-22.15-6.56-27.54-10.85-27.54-23.92l.32-26.59c0,13.07,5.39,17.36,27.55,23.91,19.75,5.84,37.75,9.19,60.57,11.1,1.55,.13,2.81,1.31,3.03,2.84,.97,6.6,1.98,13.41,2.97,20.16Z"/><ellipse class="cls-9" cx="139.71" cy="339.58" rx="10.6" ry="10.04"/><ellipse class="cls-9" cx="110.64" cy="334.38" rx="10.6" ry="10.04"/><ellipse class="cls-9" cx="84.06" cy="326.86" rx="10.6" ry="10.04"/></g><g><path class="cls-11" d="M356.83,351.5c-.31,2.12,1.44,3.98,3.58,3.82,24.07-1.87,42.68-5.25,63.17-11.32,22.11-6.56,27.48-10.85,27.48-23.92l-.32-26.59c0,13.07-5.38,17.36-27.49,23.91-19.71,5.84-37.67,9.19-60.44,11.1-1.55,.13-2.8,1.31-3.03,2.84-.97,6.6-1.97,13.41-2.96,20.16Z"/><ellipse class="cls-9" cx="376.18" cy="340.52" rx="10.58" ry="10.04"/><ellipse class="cls-9" cx="405.19" cy="335.32" rx="10.58" ry="10.04"/><ellipse class="cls-9" cx="431.72" cy="327.8" rx="10.58" ry="10.04"/></g></g><ellipse class="cls-8" cx="101.52" cy="67.6" rx="13.22" ry="5.24" transform="translate(-8.65 15.28) rotate(-8.26)"/><ellipse class="cls-8" cx="415.63" cy="67.58" rx="5.24" ry="13.22" transform="translate(289.07 469.21) rotate(-81.74)"/></g><ellipse class="cls-12" cx="258.01" cy="329.4" rx="24.16" ry="9.31"/></g></g><text class="cls-6" transform="translate(212.99 67.95) rotate(-2.3)"><tspan x="0" y="0">E</tspan></text><text class="cls-6" transform="translate(224.53 67.48) rotate(-1.67)"><tspan x="0" y="0">S</tspan></text><text class="cls-6" transform="translate(237.24 67.11) rotate(-.92)"><tspan x="0" y="0">C</tspan></text><text class="cls-6" transform="translate(250.51 66.9) rotate(-.17)"><tspan x="0" y="0">O</tspan></text><text class="cls-6" transform="translate(266.01 66.89) rotate(.83)"><tspan x="0" y="0">L</tspan></text><text class="cls-6" transform="translate(276.94 67.04) rotate(1.59)"><tspan x="0" y="0">A</tspan></text><text class="cls-6" transform="translate(291.73 67.45) rotate(2.37)"><tspan x="0" y="0">R</tspan></text></g></g></svg>