<?xml version="1.0" encoding="UTF-8"?>
<svg id="Camada_4" data-name="Camada 4" xmlns="http://www.w3.org/2000/svg" viewBox="0 0 1000 1000">
  <defs>
    <style>
      .cls-1 {
        fill: #040404;
      }

      .cls-2 {
        fill: #6a40d5;
      }

      .cls-3 {
        fill: #ffe164;
      }

      .cls-4 {
        fill: #efc825;
      }

      .cls-5, .cls-6 {
        fill: #ffd629;
      }

      .cls-7 {
        fill: #e5bc0e;
      }

      .cls-8 {
        fill: #b5b5b5;
      }

      .cls-9 {
        fill: #8f8d98;
      }

      .cls-10 {
        fill: #33cfff;
      }

      .cls-11 {
        fill: #383838;
      }

      .cls-12 {
        fill: #282828;
      }

      .cls-6 {
        font-family: Nunito-Bold, Nunito;
        font-size: 37.87px;
        font-weight: 700;
      }
    </style>
  </defs>
  <g>
    <circle class="cls-2" cx="500" cy="500" r="500"/>
    <g>
      <g>
        <rect class="cls-3" x="366.88" y="46.34" width="244.03" height="43.45" rx="20.1" ry="20.1"/>
        <g>
          <rect class="cls-1" x="272.74" y="796.41" width="431.53" height="39.11" rx="19.27" ry="19.27"/>
          <rect class="cls-1" x="431.46" y="805.83" width="114.66" height="39.11" rx="19.27" ry="19.27"/>
          <rect class="cls-1" x="120.95" y="716.51" width="117.21" height="218.22" rx="22.11" ry="22.11"/>
          <rect class="cls-1" x="740.13" y="716.51" width="117.21" height="218.22" rx="22.11" ry="22.11"/>
          <path class="cls-1" d="m854.77,499.98c6.73-4.51,40.62-27.66,46.77-40.9,6.06-13.06,3.26-57.45,2.64-66.21l-13.97.89c1.45,20.45,1.95,52.58-1.49,59.98-3.37,7.26-26.61,25.08-42.04,35.41l8.08,10.84Z"/>
          <rect class="cls-1" x="866.99" y="289.5" width="61.12" height="107.24" rx="13.46" ry="13.46" transform="translate(1795.09 686.23) rotate(-180)"/>
          <path class="cls-1" d="m122.3,499.7c-6.73-4.51-40.62-27.66-46.77-40.9-6.06-13.06-3.26-57.45-2.64-66.21l13.97.89c-1.45,20.45-1.95,52.58,1.49,59.98,3.37,7.26,26.61,25.08,42.04,35.41l-8.08,10.84Z"/>
          <path class="cls-7" d="m488.74,825.56h182.13c134.07,0,184.66,1.93,184.66-53.11V128.85c0-19.46-14.14-36.05-33.42-39.22-64.4-10.57-211.36-32.02-333.36-32.02"/>
          <path class="cls-5" d="m488.75,825.56h-182.13c-134.07,0-184.66,1.93-184.66-53.11V128.84c0-19.46,14.14-36.05,33.42-39.22,64.4-10.57,211.36-32.02,333.36-32.02"/>
          <path class="cls-1" d="m321.06,787.98c-1.13,1.86-3.27,3.14-5.79,3.11-20.61-.14-74.64-.68-113.8-2.47-30.56-1.38-47.7-3.15-55.77-4.19-3.31-.42-5.79-3.1-5.79-6.27v-33.91c0-4.21,4.26-7.22,8.53-6.07,6.86,1.83,18.28,4.15,35.74,5.68,66.86,5.84,109.93,6.45,124.28,6.46,1.34,0,2.6.38,3.66,1.05.61,4.57,1.12,8.36,1.51,11.22,1.42,10.62,3.94,18.93,7.44,25.38Z"/>
          <path class="cls-3" d="m488.75,525.45v298.65h-122.82c-26.43,0-45.4-8.84-50.46-48.6-2.01-15.74-7.51-58.37-13.43-104.11-2.31-17.88-4.69-36.23-6.95-53.65-6.56-50.56-12.08-93.18-12.08-93.18l-.84-6.4,205.8,7.26h.56s.22.03.22.03Z"/>
          <path class="cls-1" d="m841.48,315.63v139.83c0,24.24-9.45,32.19-48.34,44.37-75.89,23.71-137.15,25.26-304.39,25.26s-228.5-1.55-304.39-25.26c-38.89-12.18-48.34-20.13-48.34-44.37v-139.83c0-99.04-2.67-180.16,15.74-197.06,19.63-18.03,259.7-37.47,336.99-37.47s317.36,19.43,336.99,37.47c18.41,16.89,15.74,98.02,15.74,197.06Z"/>
          <path class="cls-1" d="m656.12,787.94c1.13,1.86,3.27,3.14,5.79,3.11,20.61-.14,74.64-.68,113.8-2.47,30.56-1.38,47.7-3.15,55.77-4.19,3.31-.42,5.79-3.1,5.79-6.27v-33.91c0-4.21-4.26-7.22-8.53-6.07-6.86,1.83-18.28,4.15-35.74,5.68-66.86,5.84-109.93,6.45-124.28,6.46-1.34,0-2.6.38-3.66,1.05-.61,4.57-1.12,8.36-1.51,11.22-1.42,10.62-3.94,18.93-7.44,25.38Z"/>
          <path class="cls-4" d="m695.11,519.87l-.62,4.71s-5.53,42.62-12.07,93.17c-2.28,17.42-4.65,35.75-6.96,53.65-5.92,45.72-11.43,88.37-13.43,104.11-5.05,39.75-24.03,48.6-50.46,48.6h-122.82v-298.66l.21-.02h.58l2.67-.09c94.18-.02,154.48-.57,202.91-5.47Z"/>
          <path class="cls-1" d="m657.06,671.55h-338.26c-2.23,0-4.12-1.64-4.42-3.84l-5.8-42.07c-.37-2.67,1.72-5.05,4.42-5.05h349.38c3.85,0,6.82,3.39,6.29,7.19l-5.33,38.31c-.43,3.13-3.12,5.46-6.29,5.46Z"/>
          <path class="cls-1" d="m639.17,789.84h-302.48c-2.22,0-4.18-1.38-4.81-3.39l-9.21-29.1c-.97-3.06,1.45-6.13,4.81-6.13h320.82c3.36,0,5.78,3.06,4.82,6.12l-9.12,29.1c-.63,2.02-2.59,3.41-4.82,3.41Z"/>
          <rect class="cls-1" x="48.96" y="289.21" width="61.12" height="107.24" rx="13.46" ry="13.46"/>
          <path class="cls-10" d="m805.2,472.15c-2.69.5-5.46.46-8.18.13-23.61-2.88-187.17-22.32-308.89-22.32s-281.79,18.97-308.02,22.21c-5.4.67-10.99.07-15.83-2.21-8.46-3.99-14.27-12.03-14.27-21.25V185.6c0-13.16,11.7-21.56,26.35-23.93,0,0,156.58-21.98,314.56-21.98s308.98,21.98,308.98,21.98c16.16,2.4,26.35,10.77,26.35,23.93v263.11c0,11.52-9.08,21.2-21.06,23.44Z"/>
          <g>
            <path class="cls-11" d="m301.26,663.74c.59,4.02-2.73,7.54-6.8,7.23-45.68-3.55-80.98-9.94-119.85-21.44-41.95-12.42-52.14-20.54-52.14-45.29l.6-50.35c0,24.74,10.2,32.87,52.16,45.28,37.39,11.06,71.47,17.39,114.67,21.02,2.94.25,5.31,2.48,5.74,5.38,1.84,12.49,3.74,25.4,5.62,38.17Z"/>
            <ellipse class="cls-9" cx="264.53" cy="642.95" rx="20.07" ry="19.01"/>
            <ellipse class="cls-9" cx="209.49" cy="633.11" rx="20.07" ry="19.01"/>
            <ellipse class="cls-9" cx="159.17" cy="618.87" rx="20.07" ry="19.01"/>
          </g>
          <g>
            <path class="cls-11" d="m675.61,665.53c-.59,4.02,2.73,7.54,6.78,7.23,45.58-3.55,80.81-9.94,119.6-21.44,41.86-12.42,52.04-20.54,52.04-45.29l-.6-50.35c0,24.74-10.18,32.87-52.05,45.28-37.31,11.06-71.32,17.39-114.44,21.02-2.93.25-5.3,2.48-5.73,5.38-1.84,12.49-3.73,25.4-5.61,38.17Z"/>
            <ellipse class="cls-9" cx="712.26" cy="644.73" rx="20.03" ry="19.01"/>
            <ellipse class="cls-9" cx="767.18" cy="634.89" rx="20.03" ry="19.01"/>
            <ellipse class="cls-9" cx="817.41" cy="620.65" rx="20.03" ry="19.01"/>
          </g>
        </g>
        <ellipse class="cls-8" cx="192.21" cy="127.99" rx="25.03" ry="9.92" transform="translate(-16.39 28.93) rotate(-8.26)"/>
        <ellipse class="cls-8" cx="786.95" cy="127.96" rx="9.92" ry="25.03" transform="translate(547.31 888.39) rotate(-81.74)"/>
      </g>
      <ellipse class="cls-12" cx="488.51" cy="623.67" rx="45.74" ry="17.62"/>
    </g>
  </g>
  <text class="cls-6" transform="translate(403.3 128.65) rotate(-2.3)"><tspan x="0" y="0">E</tspan></text>
  <text class="cls-6" transform="translate(425.11 127.77) rotate(-1.67)"><tspan x="0" y="0">S</tspan></text>
  <text class="cls-6" transform="translate(449.18 127.06) rotate(-.92)"><tspan x="0" y="0">C</tspan></text>
  <text class="cls-6" transform="translate(474.27 126.67) rotate(-.16)"><tspan x="0" y="0">O</tspan></text>
  <text class="cls-6" transform="translate(503.66 126.65) rotate(.83)"><tspan x="0" y="0">L</tspan></text>
  <text class="cls-6" transform="translate(524.37 126.93) rotate(1.59)"><tspan x="0" y="0">A</tspan></text>
  <text class="cls-6" transform="translate(552.38 127.72) rotate(2.37)"><tspan x="0" y="0">R</tspan></text>
</svg>