<?xml version="1.0" encoding="utf-8"?>
<!-- Generator: Adobe Illustrator 27.4.1, SVG Export Plug-In . SVG Version: 6.00 Build 0)  -->
<svg version="1.1" id="Camada_2_00000132808794525681587770000015875592950960531336_"
	 xmlns="http://www.w3.org/2000/svg" xmlns:xlink="http://www.w3.org/1999/xlink" x="0px" y="0px" viewBox="0 0 415.3 77.6"
	 style="enable-background:new 0 0 415.3 77.6;" xml:space="preserve">
<style type="text/css">
	.st0{fill:#6443D9;}
	.st1{fill:#EAC24D;}
	.st2{fill:#E0DCF0;}
</style>
<g>
	<path class="st0" d="M82.1,6l-3.9,8.5c-2.9-1.6-6-2.9-9.2-3.7c-1.4-0.4-2.9-0.7-4.5-0.9V50H53.2V9.9c-1.5,0.2-3,0.5-4.4,0.9
		c-3.1,0.8-6.2,2.1-9.2,3.7L35.7,6c3.5-2,7.2-3.5,11.1-4.5c3.9-1,7.9-1.5,12-1.5S67,0.5,71,1.5C75,2.5,78.7,4,82.1,6L82.1,6z"/>
	<path class="st1" d="M27.2,40.4c-1.5,0.6-3.3,0.9-5.3,0.9c-2.3,0-4.2-0.4-5.9-1.2c-1.7-0.8-3-2.1-3.9-3.7c-0.1-0.2-0.2-0.4-0.3-0.6
		l28.1-5.3c-0.1-4-0.9-7.3-2.7-10.1c-1.8-2.8-4.1-4.9-7.1-6.4c-3-1.5-6.2-2.2-9.8-2.2c-3.9,0-7.4,0.8-10.4,2.5
		c-3.1,1.6-5.5,3.9-7.2,6.8C0.9,23.8,0,27.1,0,30.8s0.9,7,2.7,9.9s4.3,5.1,7.5,6.8c3.2,1.7,7,2.5,11.3,2.5c3.4,0,6.5-0.5,9.1-1.6
		c2.7-1,4.8-2.5,6.6-4.5l-5.8-6.2C30.1,38.9,28.6,39.8,27.2,40.4L27.2,40.4z M11.9,24.5c0.8-1.6,1.9-2.8,3.3-3.6s3.1-1.2,5-1.2
		s3.5,0.4,4.9,1.2c1.4,0.8,2.5,1.9,3.3,3.3c0.3,0.6,0.6,1.2,0.8,1.9l-18.5,3.5C10.8,27.7,11.2,26,11.9,24.5L11.9,24.5z"/>
	<path class="st0" d="M107.5,12v9.9c-0.4-0.1-0.8-0.2-1.2-0.2c-0.4,0-0.8-0.1-1.2-0.1c-3.1,0-5.6,0.9-7.4,2.5
		C95.9,25.8,95,28.4,95,32V50H84V17.2c0-2.9,2.4-5.2,5.2-5.2c1.4,0,2.8,0.6,3.7,1.5c0.9,0.9,1.5,2.3,1.5,3.7v0.1
		c1-1.4,2.4-2.5,3.9-3.4C100.9,12.6,103.9,12,107.5,12L107.5,12z"/>
	<path class="st0" d="M149.3,13.5c-1-1-2.4-1.6-3.9-1.6c-2.6,0-4.8,1.8-5.4,4.3c-0.9-1-1.9-1.8-3.1-2.5c-2.4-1.4-5.2-2.1-8.4-2.1
		c-3.6,0-6.8,0.8-9.7,2.4s-5.1,3.8-6.8,6.7s-2.5,6.2-2.5,10.1s0.8,7.2,2.5,10.1c1.6,2.9,3.9,5.1,6.8,6.7s6.1,2.4,9.7,2.4
		c3.3,0,6.2-0.7,8.6-2c1.2-0.7,2.3-1.6,3.3-2.8V50h10.5V17.4C150.9,15.8,150.3,14.5,149.3,13.5L149.3,13.5z M138.8,36.3
		c-0.9,1.6-2,2.8-3.5,3.6s-3.1,1.2-4.9,1.2s-3.4-0.4-4.9-1.2c-1.5-0.8-2.6-2-3.5-3.6c-0.9-1.6-1.3-3.4-1.3-5.5s0.4-4,1.3-5.5
		c0.9-1.5,2-2.7,3.5-3.5c1.5-0.8,3.1-1.2,4.9-1.2s3.5,0.4,4.9,1.2c1.5,0.8,2.6,2,3.5,3.5c0.9,1.5,1.3,3.4,1.3,5.5
		S139.7,34.7,138.8,36.3z"/>
	<path class="st0" d="M193.3,28.1v22h-11V29.7c0-3-0.7-5.2-2-6.6s-3.2-2.1-5.7-2.1c-1.7,0-3.3,0.4-4.7,1.1s-2.5,1.8-3.2,3.2
		c-0.8,1.4-1.2,3.3-1.2,5.7V50h-11V17.1c0-2.9,2.4-5.2,5.2-5.2c1.4,0,2.8,0.6,3.7,1.5c0.8,0.8,1.4,1.9,1.5,3.2
		c1.1-1.2,2.4-2.2,3.9-3c2.5-1.3,5.4-2,8.7-2c3,0,5.7,0.6,8.1,1.8c2.4,1.2,4.2,3,5.6,5.4C192.6,21.2,193.3,24.3,193.3,28.1
		L193.3,28.1z"/>
	<path class="st0" d="M212.1,49.9c-3.2,0-6.4-0.4-9.3-1.1c-3-0.8-5.3-1.7-7.1-2.9l3.6-7.7c1.8,1,3.9,1.9,6.2,2.5c2.4,0.7,4.7,1,7,1
		c2.5,0,4.3-0.3,5.4-0.9c1.1-0.6,1.6-1.4,1.6-2.5c0-0.9-0.4-1.5-1.2-2s-1.9-0.8-3.2-1s-2.8-0.5-4.5-0.7s-3.3-0.6-4.9-1
		c-1.6-0.4-3.1-1-4.5-1.8c-1.4-0.8-2.5-1.8-3.3-3.1c-0.8-1.3-1.2-3.1-1.2-5.2c0-2.4,0.7-4.4,2.1-6.3c1.4-1.8,3.4-3.2,6-4.2
		c2.6-1,5.7-1.5,9.4-1.5c2.6,0,5.3,0.3,7.9,0.9c2.7,0.6,4.9,1.4,6.7,2.4l-3.7,7.7c-1.8-1-3.6-1.7-5.5-2.1c-1.9-0.4-3.6-0.6-5.3-0.6
		c-2.5,0-4.4,0.3-5.5,1s-1.7,1.5-1.7,2.5c0,0.9,0.4,1.6,1.3,2.1c0.9,0.5,1.9,0.8,3.3,1.1c1.4,0.2,2.9,0.5,4.5,0.7
		c1.6,0.2,3.3,0.6,4.9,1c1.6,0.4,3.1,1,4.5,1.8s2.5,1.8,3.3,3.1s1.2,3.1,1.2,5.2c0,2.3-0.7,4.3-2.1,6.1s-3.5,3.2-6.1,4.2
		C219.1,49.4,215.9,49.9,212.1,49.9L212.1,49.9z"/>
	<path class="st0" d="M271.8,20.9c-1.7-2.8-3.9-5.1-6.8-6.6c-2.9-1.6-6.1-2.4-9.7-2.4c-3.2,0-6.1,0.7-8.5,2.1
		c-1.2,0.7-2.2,1.5-3.1,2.5c-0.1-1.2-0.7-2.2-1.5-3.1c-1-0.9-2.3-1.5-3.7-1.5c-2.9,0-5.2,2.3-5.2,5.2v60.5h11V45.9
		c0.8,0.8,1.7,1.5,2.7,2.1c2.4,1.4,5.2,2.1,8.3,2.1c3.6,0,6.9-0.8,9.7-2.4c2.8-1.6,5.1-3.8,6.8-6.6c1.7-2.8,2.5-6.2,2.5-10.1
		S273.5,23.8,271.8,20.9L271.8,20.9z M263.5,36.2c-0.9,1.5-2.1,2.7-3.6,3.6s-3.2,1.2-5.1,1.2s-3.6-0.4-5.1-1.2s-2.7-2-3.6-3.6
		c-0.9-1.5-1.4-3.4-1.4-5.5s0.5-4,1.4-5.5c0.9-1.5,2.1-2.7,3.6-3.5c1.5-0.8,3.2-1.2,5.1-1.2s3.6,0.4,5.1,1.2c1.5,0.8,2.7,2,3.6,3.5
		c0.9,1.5,1.4,3.4,1.4,5.5S264.4,34.7,263.5,36.2z"/>
	<path class="st0" d="M297.9,50.2c-4,0-7.6-0.8-10.7-2.5c-3.1-1.7-5.6-3.9-7.4-6.8s-2.7-6.2-2.7-9.9s0.9-7,2.7-9.9
		c1.8-2.9,4.2-5.1,7.4-6.8c3.1-1.6,6.7-2.4,10.7-2.4s7.6,0.8,10.8,2.4c3.1,1.6,5.6,3.9,7.4,6.8c1.8,2.9,2.7,6.2,2.7,9.9
		s-0.9,7-2.7,9.9c-1.8,2.9-4.3,5.1-7.4,6.8C305.5,49.3,301.9,50.2,297.9,50.2z M297.9,41.3c1.9,0,3.5-0.4,5-1.2
		c1.4-0.8,2.6-2,3.5-3.6c0.9-1.6,1.3-3.4,1.3-5.5s-0.4-4-1.3-5.5c-0.9-1.5-2-2.7-3.5-3.5c-1.4-0.8-3.1-1.2-4.9-1.2s-3.5,0.4-4.9,1.2
		c-1.5,0.8-2.6,2-3.5,3.5s-1.3,3.4-1.3,5.5s0.4,4,1.3,5.5c0.9,1.6,2,2.8,3.5,3.6S296.1,41.3,297.9,41.3z"/>
	<path class="st0" d="M375.7,47.5c-1.1,0.8-2.4,1.4-4,1.8c-1.6,0.4-3.2,0.6-4.9,0.6c-4.5,0-8-1.1-10.4-3.4c-2.5-2.2-3.7-5.6-3.7-10
		V21.3h-5.9V13h5.9V9.5c0-3.1,2.5-5.5,5.5-5.5c1.5,0,2.9,0.6,3.9,1.6s1.6,2.4,1.6,3.9V13h9.4v8.3h-9.4v15.1c0,1.6,0.4,2.8,1.2,3.7
		s1.9,1.3,3.4,1.3c1.8,0,3.3-0.5,4.5-1.4L375.7,47.5L375.7,47.5z"/>
	<path class="st0" d="M402.6,40.4c-1.5,0.6-3.3,0.9-5.3,0.9c-2.3,0-4.2-0.4-5.9-1.2c-1.7-0.8-3-2.1-3.9-3.7
		c-0.1-0.2-0.2-0.4-0.3-0.6l28.1-5.3c0-4-1-7.3-2.7-10.1c-1.8-2.8-4.1-4.9-7.1-6.4s-6.2-2.2-9.8-2.2c-3.9,0-7.4,0.8-10.4,2.5
		s-5.5,3.9-7.2,6.8c-1.7,2.9-2.6,6.2-2.6,9.9s0.9,7,2.7,9.9c1.8,2.9,4.3,5.1,7.5,6.8c3.2,1.7,7,2.5,11.3,2.5c3.4,0,6.5-0.5,9.1-1.6
		c2.7-1,4.9-2.5,6.6-4.5l-5.9-6.2C405.5,38.9,404.1,39.8,402.6,40.4L402.6,40.4z M387.3,24.5c0.8-1.6,1.9-2.8,3.4-3.6s3.1-1.2,5-1.2
		s3.5,0.4,4.9,1.2c1.4,0.8,2.5,1.9,3.3,3.3c0.3,0.6,0.6,1.2,0.8,1.9l-18.5,3.5C386.2,27.7,386.6,26,387.3,24.5L387.3,24.5z"/>
	<path class="st0" d="M344.4,12v9.9c-0.4-0.1-0.8-0.2-1.2-0.2c-0.4,0-0.8-0.1-1.2-0.1c-3.1,0-5.6,0.9-7.4,2.5
		c-1.8,1.7-2.8,4.3-2.8,7.8V50h-11V17.2c0-2.9,2.4-5.2,5.2-5.2c1.5,0,2.8,0.6,3.7,1.5c1,0.9,1.5,2.3,1.5,3.7v0.1
		c1-1.4,2.4-2.5,4-3.4C337.8,12.6,340.8,12,344.4,12L344.4,12z"/>
</g>
<path class="st2" d="M315.4,69.6c-0.8,0-1.3,0.1-1.6,0.4c-0.3,0.3-0.4,0.6-0.4,1c0,0.4,0.2,0.8,0.5,1s0.8,0.4,1.4,0.4
	s1.1-0.1,1.5-0.4c0.5-0.3,0.8-0.7,1-1.2v-1.2H315.4L315.4,69.6z M315.4,69.6c-0.8,0-1.3,0.1-1.6,0.4c-0.3,0.3-0.4,0.6-0.4,1
	c0,0.4,0.2,0.8,0.5,1s0.8,0.4,1.4,0.4s1.1-0.1,1.5-0.4c0.5-0.3,0.8-0.7,1-1.2v-1.2H315.4L315.4,69.6z M331.9,55.2h-84.1v22.4h84.1
	c3.1,0,5.9-1.2,7.9-3.3s3.3-4.8,3.3-7.9C343,60.2,338,55.2,331.9,55.2L331.9,55.2z M263.5,74.4h-11.7V59.3h11.4v2.8h-8v3.3h7v2.7h-7
	v3.5h8.2L263.5,74.4L263.5,74.4z M321.1,74.4h-3.2V73c-0.2,0.4-0.6,0.8-1,1c-0.6,0.4-1.5,0.6-2.5,0.6c-0.9,0-1.7-0.2-2.3-0.5
	s-1.1-0.7-1.5-1.3s-0.5-1.1-0.5-1.8s0.2-1.3,0.5-1.8s0.9-0.9,1.6-1.2c0.7-0.3,1.7-0.4,2.9-0.4h2.7v0c0-0.7-0.2-1.3-0.7-1.7
	c-0.4-0.4-1.1-0.6-2-0.6c-0.6,0-1.2,0.1-1.8,0.3c-0.6,0.2-1.1,0.5-1.5,0.8l-1.2-2.4c0.6-0.5,1.4-0.8,2.3-1.1s1.8-0.4,2.7-0.4
	c1.8,0,3.1,0.4,4.1,1.2s1.5,2.1,1.5,3.9L321.1,74.4L321.1,74.4z M331.3,65.8c-0.1,0-0.2-0.1-0.4-0.1c-0.1,0-0.2,0-0.4,0
	c-1,0-1.7,0.3-2.3,0.8s-0.8,1.4-0.8,2.5v5.5h-3.4V62.8h3.2v1.5c0.3-0.4,0.7-0.8,1.2-1.1c0.8-0.4,1.7-0.6,2.8-0.6L331.3,65.8
	L331.3,65.8z M313.7,70c-0.3,0.3-0.4,0.6-0.4,1c0,0.4,0.2,0.8,0.5,1s0.8,0.4,1.4,0.4s1.1-0.1,1.5-0.4c0.5-0.3,0.8-0.7,1-1.2v-1.2
	h-2.3C314.6,69.6,314,69.7,313.7,70L313.7,70z"/>
<g>
	<polygon class="st0" points="263.5,71.6 263.5,74.4 251.8,74.4 251.8,59.3 263.2,59.3 263.2,62.1 255.3,62.1 255.3,65.4 
		262.3,65.4 262.3,68.1 255.3,68.1 255.3,71.6 	"/>
	<path class="st0" d="M269.9,74.6c-1,0-2-0.1-2.9-0.4c-0.9-0.2-1.6-0.5-2.2-0.9L266,71c0.5,0.3,1.2,0.6,1.9,0.8
		c0.7,0.2,1.4,0.3,2.1,0.3c0.8,0,1.3-0.1,1.6-0.3s0.5-0.4,0.5-0.8c0-0.3-0.1-0.5-0.4-0.6s-0.6-0.2-1-0.3c-0.4-0.1-0.9-0.1-1.4-0.2
		c-0.5-0.1-1-0.2-1.5-0.3c-0.5-0.1-1-0.3-1.4-0.6c-0.4-0.2-0.8-0.6-1-1c-0.2-0.4-0.4-1-0.4-1.6c0-0.7,0.2-1.4,0.6-2s1-1,1.8-1.3
		c0.8-0.3,1.8-0.5,2.9-0.5c0.8,0,1.6,0.1,2.4,0.3c0.8,0.2,1.5,0.4,2.1,0.8l-1.1,2.4c-0.5-0.3-1.1-0.5-1.7-0.7s-1.1-0.2-1.6-0.2
		c-0.8,0-1.3,0.1-1.7,0.3s-0.5,0.5-0.5,0.8c0,0.3,0.1,0.5,0.4,0.7c0.3,0.1,0.6,0.3,1,0.3c0.4,0.1,0.9,0.1,1.4,0.2
		c0.5,0.1,1,0.2,1.5,0.3s1,0.3,1.4,0.6c0.4,0.2,0.8,0.6,1,1c0.2,0.4,0.4,1,0.4,1.6c0,0.7-0.2,1.3-0.6,1.9c-0.4,0.6-1.1,1-1.9,1.3
		C272.1,74.5,271.1,74.6,269.9,74.6z"/>
	<path class="st0" d="M283.1,74.6c-1.2,0-2.4-0.3-3.3-0.8c-1-0.5-1.7-1.2-2.3-2.1c-0.5-0.9-0.8-1.9-0.8-3.1s0.3-2.2,0.8-3.1
		s1.3-1.6,2.3-2.1c1-0.5,2.1-0.8,3.3-0.8s2.3,0.3,3.2,0.8c0.9,0.5,1.6,1.2,2,2.2l-2.6,1.4c-0.3-0.6-0.7-0.9-1.1-1.2
		c-0.5-0.2-0.9-0.4-1.5-0.4c-0.6,0-1.1,0.1-1.5,0.4s-0.8,0.6-1.1,1.1c-0.3,0.5-0.4,1.1-0.4,1.7s0.1,1.3,0.4,1.7
		c0.3,0.5,0.6,0.9,1.1,1.1s1,0.4,1.5,0.4c0.5,0,1-0.1,1.5-0.4s0.8-0.7,1.1-1.2l2.6,1.4c-0.4,0.9-1.1,1.6-2,2.2
		S284.3,74.6,283.1,74.6z"/>
	<path class="st0" d="M295.6,74.6c-1.2,0-2.3-0.3-3.3-0.8s-1.7-1.2-2.3-2.1c-0.5-0.9-0.8-1.9-0.8-3.1s0.3-2.2,0.8-3.1
		c0.5-0.9,1.3-1.6,2.3-2.1c1-0.5,2-0.8,3.3-0.8s2.3,0.3,3.3,0.8c1,0.5,1.7,1.2,2.3,2.1s0.8,1.9,0.8,3.1s-0.3,2.2-0.8,3.1
		c-0.5,0.9-1.3,1.6-2.3,2.1C298,74.4,296.9,74.6,295.6,74.6L295.6,74.6z M295.6,71.8c0.6,0,1.1-0.1,1.5-0.4s0.8-0.6,1.1-1.1
		s0.4-1.1,0.4-1.7s-0.1-1.2-0.4-1.7s-0.6-0.8-1.1-1.1s-0.9-0.4-1.5-0.4s-1.1,0.1-1.5,0.4c-0.5,0.2-0.8,0.6-1.1,1.1
		c-0.3,0.5-0.4,1.1-0.4,1.7s0.1,1.2,0.4,1.7c0.3,0.5,0.6,0.9,1.1,1.1S295.1,71.8,295.6,71.8L295.6,71.8z"/>
	<path class="st0" d="M304.3,74.4v-16h3.4v16L304.3,74.4L304.3,74.4z"/>
	<path class="st0" d="M319.6,63.9c-1-0.8-2.4-1.2-4.1-1.2c-0.9,0-1.8,0.1-2.7,0.4s-1.7,0.6-2.3,1.1l1.2,2.4c0.4-0.3,1-0.6,1.5-0.8
		c0.6-0.2,1.2-0.3,1.8-0.3c0.9,0,1.6,0.2,2,0.6c0.4,0.4,0.7,1,0.7,1.7v0H315c-1.2,0-2.2,0.1-2.9,0.4s-1.3,0.7-1.6,1.2
		c-0.3,0.5-0.5,1.1-0.5,1.8s0.2,1.3,0.5,1.8s0.9,0.9,1.5,1.3s1.4,0.5,2.3,0.5c1,0,1.9-0.2,2.5-0.6c0.4-0.3,0.8-0.6,1-1v1.4h3.2v-6.6
		C321.1,66,320.6,64.7,319.6,63.9L319.6,63.9z M316.7,71.9c-0.5,0.3-1,0.4-1.5,0.4s-1-0.1-1.4-0.4s-0.5-0.6-0.5-1
		c0-0.4,0.1-0.7,0.4-1c0.3-0.3,0.8-0.4,1.6-0.4h2.3v1.2C317.5,71.3,317.2,71.7,316.7,71.9L316.7,71.9z"/>
	<path class="st0" d="M331.3,62.6v3.1c-0.1,0-0.2-0.1-0.4-0.1c-0.1,0-0.2,0-0.4,0c-1,0-1.7,0.3-2.3,0.8s-0.8,1.4-0.8,2.5v5.5h-3.4
		V62.8h3.2v1.5c0.3-0.4,0.7-0.8,1.2-1.1C329.3,62.8,330.2,62.6,331.3,62.6L331.3,62.6z"/>
</g>
</svg>
