<?xml version="1.0" encoding="utf-8"?>
<!-- Generator: Adobe Illustrator 27.4.1, SVG Export Plug-In . SVG Version: 6.00 Build 0)  -->
<svg version="1.1" id="Camada_2_00000150810702010486512060000007796446464170348935_"
	 xmlns="http://www.w3.org/2000/svg" xmlns:xlink="http://www.w3.org/1999/xlink" x="0px" y="0px" viewBox="0 0 500 300"
	 style="enable-background:new 0 0 500 300;" xml:space="preserve">
<style type="text/css">
	.st0{fill:#6A40D5;}
	.st1{clip-path:url(#SVGID_00000027590107584236607510000004475811541709642172_);}
	.st2{clip-path:url(#SVGID_00000167369768008786372230000007511402943486734503_);}
	.st3{clip-path:url(#SVGID_00000055686374152573960710000013101790587854353080_);}
	.st4{opacity:0.5;}
</style>
<path class="st0" d="M117.8,143.2c1.3,0,2.2,1,2.2,1.8v41c0,1-0.9,1.9-2.2,1.9h-10.4c-1.2,0-2.4-0.8-2.4-1.8
	c-0.1-2.1-0.2-1.6-0.2-3.9c-4.9,4.5-11,6.5-18.5,6.5c-20.4,0-36.5-14.2-36.5-38.7c0-22.4,17.1-38.7,38.1-38.7
	c10.3,0,20.2,4.5,26.9,11.1c0.5,0.8,0.5,2.3-0.2,2.9l-8.4,8.3c-0.9,0.8-2.3,0.6-2.9-0.1c-4-4-9.5-6.5-15.4-6.5
	c-11.8,0-21.5,8.5-21.5,23c0,16.1,9.7,23,21.5,23c6,0,11.5-2.7,15.6-7V158H93c-1.4,0-2.4-0.8-2.4-1.8v-11.1c0-0.9,1-1.8,2.4-1.8
	L117.8,143.2L117.8,143.2z"/>
<path class="st0" d="M151.5,127.7v14.4h27.6c1.3,0,2.1,1,2.1,1.9v11.6c0,0.9-0.9,1.8-2.1,1.8h-27.6V172H185c1.4,0,2.4,1,2.4,1.9
	v11.9c0,0.9-1,1.8-2.4,1.8h-47.7c-1.4,0-2.3-1-2.3-1.8v-71.6c0-1,0.9-1.9,2.3-1.9h46.8c1.3,0,2.3,1,2.3,1.9v11.5c0,1-1,1.9-2.3,1.9
	L151.5,127.7L151.5,127.7z"/>
<g>
	<defs>
		<path id="SVGID_1_" d="M269.9,188.5c-0.6,1.6-3.3,1.6-4,0l-20.4-53.8c-6.7,17.9-13.6,35.9-20.3,53.8c-0.6,1.6-3.7,1.6-4.2-0.1
			l0.1,0.1l-28.5-75.2c-0.5-1.2,0.6-2.6,2-2.6h12.9c1,0,1.9,0.5,2,1.3c4.7,13,8.8,25.1,13.6,38.2l14.4-38.3v0.1
			c0.2-0.8,1.1-1.3,2-1.3h11.9c1,0,1.9,0.5,2.1,1.3v-0.1l14.3,38.6l13.5-38.5c0.2-0.8,1.2-1.3,2.1-1.3h12.8c1.8,0,2.7,1.3,2.1,2.6
			L269.9,188.5L269.9,188.5z M323.3,126.9V142h27.9c1.3,0,2.2,1,2.2,2v12.2c0,0.9-0.9,1.9-2.2,1.9h-27.9v15.1h33.9
			c1.4,0,2.4,1,2.4,2v12.5c0,0.9-1,1.9-2.4,1.9H309c-1.4,0-2.3-1-2.3-1.9v-75c0-1,0.9-2,2.3-2h47.3c1.3,0,2.3,1,2.3,2v12.1
			c0,1-1,2-2.3,2L323.3,126.9L323.3,126.9z M414.1,149.5c10.4,5.1,9.9,16.1,9.9,16.1c0,22.4-22.1,23.4-27.1,23.4H373
			c-1.4,0-2.3-1-2.3-1.9v-74.7c0-1,0.9-2,2.3-2h23.9c0,0,26-0.6,26,22.9C422.9,141.7,419.3,146.7,414.1,149.5L414.1,149.5z
			 M387.1,141.4h9.8c0,0,9.5,0,9.5-7.3c0-8.1-9.5-8-9.5-8h-9.8V141.4z M407.4,165.3c0-7.9-10.5-7.3-10.5-7.3h-9.8v14.8h9.8
			C401,172.8,407.4,171.7,407.4,165.3z"/>
	</defs>
	<use xlink:href="#SVGID_1_"  style="overflow:visible;fill:#6A40D5;"/>
	<clipPath id="SVGID_00000129921724786658973070000008424414032472323223_">
		<use xlink:href="#SVGID_1_"  style="overflow:visible;"/>
	</clipPath>
	<g style="clip-path:url(#SVGID_00000129921724786658973070000008424414032472323223_);">
		<g>
			<defs>
				<rect id="SVGID_00000052070949969046590570000001085338818800982687_" x="189.9" y="97.4" width="237.6" height="96.7"/>
			</defs>
			<use xlink:href="#SVGID_00000052070949969046590570000001085338818800982687_"  style="overflow:visible;fill:#6A40D5;"/>
			<clipPath id="SVGID_00000114761838817563316930000010021497215407834000_">
				<use xlink:href="#SVGID_00000052070949969046590570000001085338818800982687_"  style="overflow:visible;"/>
			</clipPath>
			<g style="clip-path:url(#SVGID_00000114761838817563316930000010021497215407834000_);">
				<g>
					<defs>
						<rect id="SVGID_00000122689380732505080390000009431333019939779761_" x="184.9" y="92.4" width="247.6" height="106.7"/>
					</defs>
					<use xlink:href="#SVGID_00000122689380732505080390000009431333019939779761_"  style="overflow:visible;fill:#6A40D5;"/>
					<clipPath id="SVGID_00000096033503114192737800000007842758256326099359_">
						<use xlink:href="#SVGID_00000122689380732505080390000009431333019939779761_"  style="overflow:visible;"/>
					</clipPath>
					<g style="clip-path:url(#SVGID_00000096033503114192737800000007842758256326099359_);">
						
							<image style="overflow:visible;enable-background:new    ;" width="516" height="222" xlink:href="C5C6B5A512896E03.png"  transform="matrix(0.4809 0 0 0.4809 184.48 92.3167)">
						</image>
					</g>
				</g>
			</g>
		</g>
	</g>
</g>
<g class="st4">
	<g>
		<path class="st0" d="M358.6,114.1c4.1-0.1,8.3-0.1,12.1-0.1v-0.7c-3.9,0.1-8.1,0.2-12.1,0.4C358.6,113.7,358.6,114.1,358.6,114.1z
			"/>
		<path class="st0" d="M277.3,124c-6.1,1.2-12,2.6-17.7,4l0.2,0.4c5.5-1.5,11.4-3,17.5-4.3L277.3,124L277.3,124z"/>
		<path class="st0" d="M228,137.4c-2.8,1-5.7,2.1-8.3,3.2l0.9,2.6c1.9-1.1,4.2-2.2,6.4-3.2L228,137.4L228,137.4z"/>
		<path class="st0" d="M207.6,153c-2.1,2.6-2.9,5-2.6,7.4c2.2,15.4,53.2,16.4,115.7,8.2c62.5-8.2,112.9-22.4,110.7-37.8
			c-0.6-4.2-4.9-7.7-12.1-10.4c0,0-0.7-1.2-2.4-2.8c-1.9-1.9-3-2.5-3-2.5c21.6,2.7,35,8.3,36.1,16.2c2.4,17-54,38.3-126,47.8
			c-72,9.4-132.4,3.3-134.8-13.7c-0.8-5.8,5.1-12,16.2-18.2L207.6,153L207.6,153z"/>
	</g>
</g>
</svg>
