<svg id="456810505" viewBox="0 0 2427 453" xmlns="http://www.w3.org/2000/svg" xmlns:xlink="http://www.w3.org/1999/xlink"><defs><marker id="NONE" viewBox="0 0 10 10" refX="5" refY="5" markerWidth="1" markerHeight="1" orient="auto-start-reverse" markerUnits="strokeWidth"></marker><marker id="ROUND" viewBox="0 0 10 10" refX="5" refY="5" markerWidth="1" markerHeight="1" orient="auto-start-reverse" markerUnits="strokeWidth"><circle r="5" cx="5" cy="5" stroke="context-stroke" fill="context-fill"></circle></marker><marker id="SQUARE" viewBox="0 0 10 10" refX="0" refY="5" markerWidth="1" markerHeight="1" orient="auto-start-reverse" markerUnits="strokeWidth"><rect x="0" y="0" width="5" height="10" stroke="context-stroke" fill="context-fill"></rect></marker><marker id="ARROW_LINES" viewBox="0 0 10 10" refX="4" refY="5" markerWidth="10" markerHeight="10" orient="auto-start-reverse" markerUnits="strokeWidth"><path d="M3.3095 4.5L0.3255 1.457C0.1315 1.26 0.1355 0.942998 0.3315 0.749998C0.5295 0.556998 0.8455 0.559998 1.0385 0.756998L4.8575 4.65C5.0475 4.844 5.0475 5.156 4.8575 5.35L1.0385 9.243C0.8455 9.44 0.5285 9.443 0.3315 9.25C0.1345 9.057 0.1315 8.74 0.3255 8.543L3.3095 5.5V4.5Z"></path></marker><marker id="ARROW_EQUILATERAL" viewBox="0 0 10 10" refX="6.5" refY="5" markerWidth="6" markerHeight="6" orient="auto-start-reverse" markerUnits="strokeWidth"><path d="M8 5L0.5 9.33013L0.5 0.669873L8 5Z"></path></marker><marker id="TRIANGLE_FILLED" viewBox="0 0 10 10" refX="5" refY="5" markerWidth="6" markerHeight="6" orient="auto-start-reverse" markerUnits="strokeWidth"><path d="M-5.96244e-08 5L7.5 9.33013L7.5 0.669873L-5.96244e-08 5Z"></path></marker><marker id="CIRCLE_FILLED" viewBox="0 0 10 10" refX="5" refY="5" markerWidth="6" markerHeight="6" orient="auto-start-reverse" markerUnits="strokeWidth"><circle r="3.5" cx="5" cy="5"></circle></marker><marker id="DIAMOND_FILLED" viewBox="0 0 10 10" refX="5" refY="5" markerWidth="6" markerHeight="6" orient="auto-start-reverse" markerUnits="strokeWidth"><rect x="-0.000488281" y="5" width="7.07138" height="7.07138" transform="rotate(-45 -0.000488281 5)"></rect></marker></defs><g transform="matrix(1,0,0,1,0,0)"><g id="456810505" opacity="1" style="mix-blend-mode:normal"><g><defs><clipPath id="456810505_clipPath" x="-50%" y="-50%" width="200%" height="200%"><path d="M0,0h2427v0v453v0h-2427v0v-453z" fill="white" clip-rule="nonzero"></path></clipPath></defs><g clip-path="url(#456810505_clipPath)"><g transform="matrix(1,0,0,1,0,0)"><g id="456810506" opacity="1" style="mix-blend-mode:normal"><g><g><g transform="matrix(1,0,0,1,479.89,0)"><g id="456810507" opacity="0" style="mix-blend-mode:normal"><g><g><path id="456810507_fill_path" d="M270.96002,35.31l-22.58002,49.67c-17.24,-9.58 -35.09999,-16.83 -53.57999,-21.76c-8.39,-2.24 -17.08001,-3.97 -26.07001,-5.19v234.26999h-66.51001v-234.27999c-8.88,1.22 -17.49999,2.96 -25.85999,5.2c-18.34,4.93 -36.27001,12.18 -53.78001,21.76l-22.58,-49.67c20.25,-11.76 41.88,-20.59 64.87,-26.48c22.99,-5.88 46.39001,-8.83 70.20001,-8.83c23.81,0 47.75999,2.94 71.01999,8.83c23.26,5.89 44.88003,14.72 64.87003,26.48z" fill-rule="nonzero" fill="rgb(255, 255, 255)" fill-opacity="1" style="mix-blend-mode:NORMAL"></path></g></g></g></g><g transform="matrix(1,0,0,1,232.89,67.77)"><g id="456810508" opacity="0" style="mix-blend-mode:normal"><g><g><path id="456810508_fill_path" d="M158.7,168.08002c-8.8,3.5 -19.11,5.25 -30.92,5.25c-13.19,0 -24.72999,-2.43002 -34.62,-7.27002c-9.9,-4.85 -17.46001,-12.12001 -22.67001,-21.82001c-0.57,-1.05 -1.1,-2.11998 -1.6,-3.22998l164,-31.11001c-0.27,-23.17 -5.55999,-42.89 -15.87,-59.18999c-10.3,-16.3 -24.11,-28.82 -41.42,-37.58c-17.31,-8.75 -36.42,-13.13 -57.3,-13.13c-22.81,0 -43.14,4.79001 -61.01,14.35001c-17.86,9.56 -31.88,22.82 -42.04,39.79c-10.17,16.97 -15.25,36.23 -15.25,57.78c0,21.55 5.21,40.73998 15.66,57.56998c10.44,16.84 25.15,30.10002 44.11,39.80002c18.96,9.69 40.94,14.54001 65.95,14.54001c20.06,0 37.85001,-3.03 53.38,-9.09c15.52,-6.06 28.36999,-14.75 38.53999,-26.06l-34.21001,-36.36002c-7.7,7.01 -15.94,12.26001 -24.73,15.76001zM69.45,75.56001c4.54,-9.16 11.06,-16.10001 19.58,-20.81001c8.52,-4.71 18.28,-7.07 29.27,-7.07c10.99,0 20.53999,2.36 28.64999,7.07c8.1,4.71 14.49,11.11001 19.17,19.19001c1.98,3.43 3.54001,7.09999 4.68001,11.00999l-108.1,20.33c0.33,-11.39 2.58,-21.3 6.75,-29.72z" fill-rule="nonzero" fill="rgb(255, 255, 255)" fill-opacity="1" style="mix-blend-mode:NORMAL"></path></g></g></g></g><g transform="matrix(1,0,0,1,628.44,69.89)"><g id="456810509" opacity="0" style="mix-blend-mode:normal"><g><g><path id="456810509_fill_path" d="M137.67001,0v58.03c-2.47,-0.53 -4.88002,-0.93 -7.21002,-1.2c-2.34,-0.26 -4.59999,-0.4 -6.79999,-0.4c-18.14,0 -32.56997,4.94001 -43.27997,14.81001c-10.72,9.87 -16.08002,25.07999 -16.08002,45.62v105.63h-64.30002v-191.63c0,-16.96 13.74999,-30.71 30.70999,-30.71c8.48,0 16.16002,3.44 21.71002,8.99c5.56,5.56 9,13.24 9,21.72v0.59c6.05,-8.05 13.75002,-14.6 23.08002,-19.64c14.56,-7.87 32.28998,-11.81 53.16998,-11.81z" fill-rule="nonzero" fill="rgb(255, 255, 255)" fill-opacity="1" style="mix-blend-mode:NORMAL"></path></g></g></g></g><g transform="matrix(1,0,0,1,882.19,67.77)"><g id="456810510" opacity="0" style="mix-blend-mode:normal"><g><g><path id="456810510_fill_path" d="M231.73004,10.94c-5.82,-5.82 -13.85999,-9.42 -22.73999,-9.42c-15.36,0 -28.22002,10.78 -31.40002,25.2c-5.28,-5.84 -11.31,-10.7 -18.06,-14.6c-14.02,-8.08 -30.36999,-12.12 -49.04999,-12.12c-20.89,0 -39.72004,4.65 -56.48004,13.94c-16.76,9.29 -29.95001,22.29 -39.57001,38.99c-9.62,16.7 -14.42999,36.36001 -14.42999,58.99001c0,22.63 4.80999,42.28999 14.42999,58.97999c9.62,16.71 22.81001,29.70002 39.57001,38.99002c16.76,9.29 35.59004,13.94 56.48004,13.94c19.5,0 36.19996,-3.97001 50.07996,-11.92001c7.28,-4.17 13.67004,-9.54 19.17004,-16.12v28.82001h61.41998v-190.94001c0,-8.88 -3.59998,-16.92 -9.41998,-22.73zM170.45001,144.23999c-5.09,9.16 -11.88996,16.10003 -20.39996,20.81003c-8.52,4.71 -18.14005,7.06998 -28.86005,7.06998c-10.72,0 -19.92,-2.35998 -28.44,-7.06998c-8.52,-4.71 -15.31996,-11.65003 -20.39996,-20.81003c-5.09,-9.16 -7.63,-19.92998 -7.63,-32.31998c0,-12.39 2.54,-23.44 7.63,-32.33c5.08,-8.88 11.87996,-15.68 20.39996,-20.4c8.52,-4.71 18,-7.07 28.44,-7.07c10.44,0 20.34005,2.36 28.86005,7.07c8.51,4.72 15.30996,11.52 20.39996,20.4c5.08,8.89 7.63,19.67 7.63,32.33c0,12.66 -2.55,23.15998 -7.63,32.31998z" fill-rule="nonzero" fill="rgb(255, 255, 255)" fill-opacity="1" style="mix-blend-mode:NORMAL"></path></g></g></g></g><g transform="matrix(1,0,0,1,1129.86,67.77)"><g id="456810511" opacity="0" style="mix-blend-mode:normal"><g><g><path id="456810511_fill_path" d="M226.71997,96.16v128.45002h-64.30994v-118.75001c0,-17.51 -3.90999,-30.44001 -11.73999,-38.79001c-7.84,-8.35 -18.90006,-12.52 -33.19006,-12.52c-10.17,0 -19.30997,2.15 -27.40997,6.46c-8.11,4.31 -14.42002,10.64001 -18.96002,18.99001c-4.53,8.35 -6.79999,19.38999 -6.79999,33.12999v111.48002h-64.31v-192.38001c0,-16.96 13.74996,-30.71 30.70996,-30.71c8.48,0 16.16003,3.44 21.72003,9c4.88,4.88 8.12997,11.41 8.83997,18.69c6.4,-7.01 14.01002,-12.84001 22.83002,-17.49001c14.83,-7.81 31.72995,-11.72 50.69995,-11.72c17.58,0 33.31006,3.44001 47.19006,10.31001c13.88,6.86 24.80002,17.36999 32.77002,31.50999c7.97,14.14 11.95996,32.26 11.95996,54.34z" fill-rule="nonzero" fill="rgb(255, 255, 255)" fill-opacity="1" style="mix-blend-mode:NORMAL"></path></g></g></g></g><g transform="matrix(1,0,0,1,1344.1,67.78)"><g id="456810512" opacity="0" style="mix-blend-mode:normal"><g><g><path id="456810512_fill_path" d="M96.04004,223.82001c-18.96,0 -37.10003,-2.22001 -54.41003,-6.67001c-17.31,-4.44 -31.19001,-10.02999 -41.63,-16.76999l21.02002,-44.85001c10.44,5.93 22.59998,10.85 36.47998,14.75c13.87,3.91 27.55001,5.86 41.01001,5.86c14.84,0 25.35003,-1.75 31.53003,-5.25c6.18,-3.5 9.27002,-8.34999 9.27002,-14.53999c0,-5.11 -2.41008,-8.95001 -7.21008,-11.51001c-4.81,-2.56 -11.12996,-4.51 -18.95996,-5.86c-7.83,-1.34 -16.56005,-2.68999 -26.18005,-4.03999c-9.62,-1.35 -19.1699,-3.23 -28.6499,-5.66c-9.48,-2.42 -18.28,-5.86 -26.38,-10.3c-8.11,-4.44 -14.56999,-10.56999 -19.37,-18.37999c-4.81,-7.81 -7.21008,-17.91 -7.21008,-30.3c0,-13.74 4.12,-25.92 12.37,-36.56001c8.25,-10.64 19.92004,-18.92 35.04004,-24.85c15.11,-5.92 33.38995,-8.89 54.81995,-8.89c15.39,0 30.84,1.69 46.37,5.05c15.52,3.37 28.64999,8.01999 39.37,13.93999l-21.84998,44.85c-10.45,-5.92 -21.08995,-10.1 -31.94995,-12.52c-10.86,-2.42 -21.22999,-3.64 -31.12,-3.64c-14.84,0 -25.55002,1.89 -32.15002,5.66c-6.6,3.78 -9.89001,8.62 -9.89001,14.54c0,5.39 2.47004,9.48999 7.42004,12.31999c4.95,2.83 11.4,4.92001 19.37,6.26001c7.97,1.35 16.76,2.69999 26.38,4.03999c9.62,1.35 19.09994,3.23 28.43994,5.66c9.34,2.42 18.07005,5.86 26.18005,10.3c8.1,4.44 14.56,10.56999 19.37,18.37999c4.81,7.82 7.20996,17.92 7.20996,30.3c0,13.2 -4.12,24.98999 -12.37,35.34999c-8.24,10.37 -20.13003,18.52 -35.66003,24.44c-15.53,5.92 -34.41993,8.89001 -56.67993,8.89001z" fill-rule="nonzero" fill="rgb(255, 255, 255)" fill-opacity="1" style="mix-blend-mode:NORMAL"></path></g></g></g></g><g transform="matrix(1,0,0,1,1603.43,69.29)"><g id="456810513" opacity="0" style="mix-blend-mode:normal"><g><g><path id="456810513_fill_path" d="M225.21008,52.9c-9.76,-16.62 -22.95007,-29.57 -39.57007,-38.82c-16.64,-9.26 -35.52993,-13.88 -56.67993,-13.88c-18.96,0 -35.52004,4.02 -49.67004,12.07c-6.82,3.87 -12.85,8.71 -18.12,14.53c-0.88,-6.92 -4.06,-13.12 -8.75,-17.8c-5.55,-5.56 -13.22996,-9 -21.70996,-9c-16.96,0 -30.71008,13.75 -30.71008,30.71v353.38h64.30005v-185.45001c4.79,4.88 10.13002,9 16.02002,12.38c14.01,8.05 30.22001,12.07001 48.64001,12.07001c21.15,0 40.03993,-4.62 56.67993,-13.88c16.62,-9.25 29.81007,-22.13 39.57007,-38.62c9.75,-16.5 14.63,-36.14001 14.63,-58.95c0,-22.81 -4.88,-42.09999 -14.63,-58.73999zM176.37,142.51999c-5.31,9.02 -12.33996,15.96002 -21.07996,20.80002c-8.75,4.85 -18.72002,7.28 -29.90002,7.28c-11.18,0 -21.22999,-2.43 -30.12,-7.28c-8.89,-4.84 -15.98993,-11.78002 -21.29993,-20.80002c-5.31,-9.02 -7.96008,-19.72999 -7.96008,-32.11999c0,-12.39 2.65008,-23.44 7.96008,-32.33c5.31,-8.88 12.40993,-15.68 21.29993,-20.4c8.89,-4.71 18.93,-7.07 30.12,-7.07c11.19,0 21.15002,2.36 29.90002,7.07c8.74,4.72 15.76996,11.52 21.07996,20.4c5.3,8.89 7.96008,19.67 7.96008,32.33c0,12.66 -2.66008,23.09999 -7.96008,32.11999z" fill-rule="nonzero" fill="rgb(255, 255, 255)" fill-opacity="1" style="mix-blend-mode:NORMAL"></path></g></g></g></g><g transform="matrix(1,0,0,1,1862.99,69.2)"><g id="456810514" opacity="0" style="mix-blend-mode:normal"><g><g><path id="456810514_fill_path" d="M121.18994,223.83c-23.36,0 -44.17995,-4.84999 -62.44995,-14.54999c-18.28,-9.7 -32.63008,-22.96002 -43.08008,-39.80002c-10.45,-16.83 -15.65991,-36.01999 -15.65991,-57.56999c0,-21.55 5.21991,-41.14 15.65991,-57.98c10.44,-16.83 24.80008,-30.03 43.08008,-39.59c18.27,-9.56 39.08995,-14.34 62.44995,-14.34c23.36,0 44.66007,4.79 63.07007,14.34c18.41,9.56 32.82991,22.76 43.27991,39.59c10.44,16.84 15.66003,36.16 15.66003,57.98c0,21.82 -5.22003,41.08 -15.66003,57.77c-10.45,16.7 -24.86991,29.9 -43.27991,39.59c-18.41,9.7 -39.44007,14.54999 -63.07007,14.54999zM121.18994,172.11c10.99,0 20.68006,-2.34999 29.06006,-7.06999c8.38,-4.71 15.10995,-11.65001 20.19995,-20.81001c5.08,-9.15 7.62,-19.92999 7.62,-32.31999c0,-12.39 -2.54,-23.43001 -7.62,-32.32001c-5.09,-8.89 -11.81995,-15.68999 -20.19995,-20.39999c-8.39,-4.71 -17.93002,-7.07 -28.65002,-7.07c-10.72,0 -20.33998,2.36 -28.85999,7.07c-8.52,4.72 -15.32003,11.50999 -20.41003,20.39999c-5.09,8.89 -7.62,19.66001 -7.62,32.32001c0,12.66 2.54,23.16999 7.62,32.31999c5.08,9.16 11.88003,16.10001 20.41003,20.81001c8.51,4.72 17.99994,7.06999 28.43994,7.06999z" fill-rule="nonzero" fill="rgb(255, 255, 255)" fill-opacity="1" style="mix-blend-mode:NORMAL"></path></g></g></g></g><g transform="matrix(1,0,0,1,2195.94,22.93)"><g id="456810515" opacity="0" style="mix-blend-mode:normal"><g><g><path id="456810515_fill_path" d="M169.00989,254.92999c-6.33,4.59 -14.09004,8.02003 -23.29004,10.31003c-9.22,2.28 -18.7599,3.42999 -28.6499,3.42999c-26.11,0 -46.45001,-6.53 -61.01001,-19.59c-14.57,-13.07 -21.8501,-32.53001 -21.8501,-58.39001v-89.28001h-34.20984v-48.49h34.20984v-20.56c0,-17.88 14.49011,-32.36 32.36011,-32.36c8.93,0 17.02988,3.62 22.87988,9.48c5.86,5.85 9.48022,13.94 9.48022,22.88v20.56h54.81982v48.49h-54.81982v88.07001c0,9.16 2.39996,16.29998 7.20996,21.41998c4.81,5.12 11.33983,7.67001 19.57983,7.67001c10.44,0 19.24014,-2.69002 26.39014,-8.08002z" fill-rule="nonzero" fill="rgb(255, 255, 255)" fill-opacity="1" style="mix-blend-mode:NORMAL"></path></g></g></g></g><g transform="matrix(1,0,0,1,2427.06,67.77)"><g id="456810516" opacity="0" style="mix-blend-mode:normal"><g><g><path id="456810516_fill_path" d="M158.71021,168.08002c-8.8,3.5 -19.11017,5.25 -30.92017,5.25c-13.19,0 -24.72988,-2.43002 -34.62988,-7.27002c-9.89,-4.85 -17.45017,-12.12001 -22.67017,-21.82001c-0.56,-1.05 -1.09985,-2.11998 -1.59985,-3.22998l164.01001,-31.11001c-0.27,-23.17 -5.56012,-42.89 -15.87012,-59.18999c-10.3,-16.3 -24.10992,-28.82 -41.41992,-37.58c-17.32,-8.75 -36.42005,-13.13 -57.30005,-13.13c-22.81,0 -43.15001,4.79001 -61.01001,14.35001c-17.86,9.56 -31.88004,22.82 -42.04004,39.79c-10.17,16.97 -15.26001,36.23 -15.26001,57.78c0,21.55 5.22017,40.73998 15.67017,57.56998c10.44,16.84 25.13986,30.10002 44.10986,39.80002c18.96,9.69 40.93995,14.54001 65.94995,14.54001c20.06,0 37.85013,-3.03 53.38013,-9.09c15.52,-6.06 28.37004,-14.75 38.54004,-26.06l-34.20996,-36.36002c-7.7,7.01 -15.93998,12.26001 -24.72998,15.76001zM69.46021,75.56001c4.54,-9.16 11.05983,-16.10001 19.57983,-20.81001c8.52,-4.71 18.27002,-7.07 29.27002,-7.07c11,0 20.54015,2.36 28.65015,7.07c8.1,4.71 14.48992,11.11001 19.16992,19.19001c1.98,3.43 3.53992,7.09999 4.66992,11.00999l-108.08984,20.33c0.33,-11.39 2.58,-21.3 6.75,-29.72z" fill-rule="nonzero" fill="rgb(255, 255, 255)" fill-opacity="1" style="mix-blend-mode:NORMAL"></path></g></g></g></g><g transform="matrix(1,0,0,1,2013.07,69.89)"><g id="456810517" opacity="0" style="mix-blend-mode:normal"><g><g><path id="456810517_fill_path" d="M137.67993,0v58.03c-2.47,-0.53 -4.87996,-0.93 -7.20996,-1.2c-2.34,-0.26 -4.60993,-0.4 -6.79993,-0.4c-18.14,0 -32.57003,4.94001 -43.28003,14.81001c-10.72,9.87 -16.08008,25.07999 -16.08008,45.62v105.63h-64.30994v-191.63c0,-16.96 13.74996,-30.71 30.70996,-30.71c8.48,0 16.16008,3.44 21.71008,8.99c5.56,5.56 9,13.24 9,21.72v0.61c6.05,-8.06 13.74997,-14.62 23.08997,-19.66c14.56,-7.87 32.27992,-11.81 53.16992,-11.81z" fill-rule="nonzero" fill="rgb(255, 255, 255)" fill-opacity="1" style="mix-blend-mode:NORMAL"></path></g></g></g></g></g></g></g></g><g transform="matrix(1,0,0,1,1447.89,453.37)"><g id="456810518" opacity="0" style="mix-blend-mode:normal"><g><g><path id="456810518_fill_path" d="M395.33997,83.89001c-4.63,0 -7.81004,0.75999 -9.54004,2.26999c-1.73,1.52 -2.58997,3.41 -2.58997,5.69c0,2.53 0.98997,4.53 2.96997,6c1.98,1.47 4.65002,2.20999 8.02002,2.20999c3.37,0 6.38004,-0.75999 9.04004,-2.26999c2.65,-1.52 4.52,-3.84001 5.62,-6.95001v-6.94998zM395.33997,83.89001c-4.63,0 -7.81004,0.75999 -9.54004,2.26999c-1.73,1.52 -2.58997,3.41 -2.58997,5.69c0,2.53 0.98997,4.53 2.96997,6c1.98,1.47 4.65002,2.20999 8.02002,2.20999c3.37,0 6.38004,-0.75999 9.04004,-2.26999c2.65,-1.52 4.52,-3.84001 5.62,-6.95001v-6.94998zM395.33997,83.89001c-4.63,0 -7.81004,0.75999 -9.54004,2.26999c-1.73,1.52 -2.58997,3.41 -2.58997,5.69c0,2.53 0.98997,4.53 2.96997,6c1.98,1.47 4.65002,2.20999 8.02002,2.20999c3.37,0 6.38004,-0.75999 9.04004,-2.26999c2.65,-1.52 4.52,-3.84001 5.62,-6.95001v-6.94998zM395.33997,83.89001c-4.63,0 -7.81004,0.75999 -9.54004,2.26999c-1.73,1.52 -2.58997,3.41 -2.58997,5.69c0,2.53 0.98997,4.53 2.96997,6c1.98,1.47 4.65002,2.20999 8.02002,2.20999c3.37,0 6.38004,-0.75999 9.04004,-2.26999c2.65,-1.52 4.52,-3.84001 5.62,-6.95001v-6.94998zM294.94995,68.22c-1.56,-2.78 -3.61994,-4.9 -6.18994,-6.38c-2.57,-1.47 -5.50003,-2.20999 -8.78003,-2.20999c-3.28,0 -6.23998,0.73999 -8.84998,2.20999c-2.61,1.48 -4.69,3.6 -6.25,6.38c-1.56,2.78 -2.33997,6.15002 -2.33997,10.11002c0,3.96 0.77997,7.24999 2.33997,10.10999c1.56,2.86 3.64,5.03001 6.25,6.51001c2.61,1.47 5.51997,2.20999 8.71997,2.20999c3.37,0 6.34003,-0.73999 8.91003,-2.20999c2.57,-1.48 4.62994,-3.65001 6.18994,-6.51001c1.56,-2.86 2.34009,-6.22999 2.34009,-10.10999c0,-3.88 -0.78009,-7.33002 -2.34009,-10.11002zM395.33997,83.89001c-4.63,0 -7.81004,0.75999 -9.54004,2.26999c-1.73,1.52 -2.58997,3.41 -2.58997,5.69c0,2.53 0.98997,4.53 2.96997,6c1.98,1.47 4.65002,2.20999 8.02002,2.20999c3.37,0 6.38004,-0.75999 9.04004,-2.26999c2.65,-1.52 4.52,-3.84001 5.62,-6.95001v-6.94998zM395.33997,83.89001c-4.63,0 -7.81004,0.75999 -9.54004,2.26999c-1.73,1.52 -2.58997,3.41 -2.58997,5.69c0,2.53 0.98997,4.53 2.96997,6c1.98,1.47 4.65002,2.20999 8.02002,2.20999c3.37,0 6.38004,-0.75999 9.04004,-2.26999c2.65,-1.52 4.52,-3.84001 5.62,-6.95001v-6.94998zM294.94995,68.22c-1.56,-2.78 -3.61994,-4.9 -6.18994,-6.38c-2.57,-1.47 -5.50003,-2.20999 -8.78003,-2.20999c-3.28,0 -6.23998,0.73999 -8.84998,2.20999c-2.61,1.48 -4.69,3.6 -6.25,6.38c-1.56,2.78 -2.33997,6.15002 -2.33997,10.11002c0,3.96 0.77997,7.24999 2.33997,10.10999c1.56,2.86 3.64,5.03001 6.25,6.51001c2.61,1.47 5.51997,2.20999 8.71997,2.20999c3.37,0 6.34003,-0.73999 8.91003,-2.20999c2.57,-1.48 4.62994,-3.65001 6.18994,-6.51001c1.56,-2.86 2.34009,-6.22999 2.34009,-10.10999c0,-3.88 -0.78009,-7.33002 -2.34009,-10.11002zM294.94995,68.22c-1.56,-2.78 -3.61994,-4.9 -6.18994,-6.38c-2.57,-1.47 -5.50003,-2.20999 -8.78003,-2.20999c-3.28,0 -6.23998,0.73999 -8.84998,2.20999c-2.61,1.48 -4.69,3.6 -6.25,6.38c-1.56,2.78 -2.33997,6.15002 -2.33997,10.11002c0,3.96 0.77997,7.24999 2.33997,10.10999c1.56,2.86 3.64,5.03001 6.25,6.51001c2.61,1.47 5.51997,2.20999 8.71997,2.20999c3.37,0 6.34003,-0.73999 8.91003,-2.20999c2.57,-1.48 4.62994,-3.65001 6.18994,-6.51001c1.56,-2.86 2.34009,-6.22999 2.34009,-10.10999c0,-3.88 -0.78009,-7.33002 -2.34009,-10.11002zM395.33997,83.89001c-4.63,0 -7.81004,0.75999 -9.54004,2.26999c-1.73,1.52 -2.58997,3.41 -2.58997,5.69c0,2.53 0.98997,4.53 2.96997,6c1.98,1.47 4.65002,2.20999 8.02002,2.20999c3.37,0 6.38004,-0.75999 9.04004,-2.26999c2.65,-1.52 4.52,-3.84001 5.62,-6.95001v-6.94998zM395.33997,83.89001c-4.63,0 -7.81004,0.75999 -9.54004,2.26999c-1.73,1.52 -2.58997,3.41 -2.58997,5.69c0,2.53 0.98997,4.53 2.96997,6c1.98,1.47 4.65002,2.20999 8.02002,2.20999c3.37,0 6.38004,-0.75999 9.04004,-2.26999c2.65,-1.52 4.52,-3.84001 5.62,-6.95001v-6.94998zM294.94995,68.22c-1.56,-2.78 -3.61994,-4.9 -6.18994,-6.38c-2.57,-1.47 -5.50003,-2.20999 -8.78003,-2.20999c-3.28,0 -6.23998,0.73999 -8.84998,2.20999c-2.61,1.48 -4.69,3.6 -6.25,6.38c-1.56,2.78 -2.33997,6.15002 -2.33997,10.11002c0,3.96 0.77997,7.24999 2.33997,10.10999c1.56,2.86 3.64,5.03001 6.25,6.51001c2.61,1.47 5.51997,2.20999 8.71997,2.20999c3.37,0 6.34003,-0.73999 8.91003,-2.20999c2.57,-1.48 4.62994,-3.65001 6.18994,-6.51001c1.56,-2.86 2.34009,-6.22999 2.34009,-10.10999c0,-3.88 -0.78009,-7.33002 -2.34009,-10.11002zM491.80994,0h-491.80994v130.69h491.80994c18.05,0 34.38007,-7.30998 46.20007,-19.13998c11.83,-11.83 19.14001,-28.17002 19.14001,-46.21002c0,-36.09 -29.25009,-65.34 -65.34009,-65.34zM92.34998,112.32001h-68.47998v-88.45001h66.83997v16.43002h-46.48999v19.07999h41.06006v16.04001h-41.06006v20.47h48.13zM157.92993,102.91c-2.53,3.24 -6.16993,5.79001 -10.92993,7.64001c-4.76,1.85 -10.55,2.78 -17.38,2.78c-5.81,0 -11.37004,-0.69002 -16.67004,-2.08002c-5.31,-1.39 -9.57002,-3.14 -12.77002,-5.25l6.45007,-14.01999c3.2,1.85 6.92993,3.38999 11.17993,4.60999c4.25,1.22 8.44007,1.83002 12.57007,1.83002c4.55,0 7.76992,-0.54001 9.66992,-1.64001c1.89,-1.09 2.84009,-2.60999 2.84009,-4.54999c0,-1.6 -0.74008,-2.80001 -2.21008,-3.60001c-1.47,-0.8 -3.40994,-1.40999 -5.80994,-1.82999c-2.4,-0.42 -5.08003,-0.84002 -8.03003,-1.27002c-2.94,-0.42 -5.87003,-1.00998 -8.78003,-1.75998c-2.9,-0.76 -5.59996,-1.84001 -8.07996,-3.23001c-2.49,-1.39 -4.46994,-3.3 -5.93994,-5.75c-1.48,-2.44 -2.21008,-5.6 -2.21008,-9.47c0,-4.3 1.26004,-8.11 3.79004,-11.44c2.52,-3.32 6.09999,-5.90999 10.73999,-7.76999c4.63,-1.85 10.23005,-2.78 16.80005,-2.78c4.72,0 9.45997,0.52999 14.21997,1.57999c4.75,1.06 8.77994,2.51002 12.05994,4.36002l-6.68994,14.03c-3.21,-1.86 -6.47005,-3.16001 -9.80005,-3.92001c-3.32,-0.76 -6.49992,-1.13998 -9.53992,-1.13998c-4.54,0 -7.8301,0.58999 -9.8501,1.76999c-2.02,1.18 -3.02991,2.69999 -3.02991,4.54999c0,1.69 0.7599,2.97001 2.2699,3.85001c1.52,0.89 3.50006,1.53999 5.94006,1.95999c2.44,0.43 5.13997,0.85002 8.08997,1.27002c2.94,0.42 5.85008,1.00998 8.71008,1.75998c2.87,0.76 5.53991,1.84001 8.02991,3.23001c2.48,1.39 4.46006,3.3 5.94006,5.75c1.47,2.44 2.20996,5.6 2.20996,9.47c0,4.13 -1.27004,7.82 -3.79004,11.06zM191.16003,88.5c1.6,2.83 3.73994,4.97001 6.43994,6.45001c2.69,1.47 5.68997,2.20999 8.96997,2.20999c3.28,0 5.98009,-0.73999 8.59009,-2.20999c2.61,-1.48 4.84995,-3.86001 6.69995,-7.14001l15.16003,8.34c-2.36,5.39 -6.21006,9.6 -11.56006,12.63c-5.35,3.03 -11.60001,4.55002 -18.76001,4.55002c-7.16,0 -13.84002,-1.49001 -19.52002,-4.48001c-5.69,-2.99 -10.1599,-7.14001 -13.3999,-12.45001c-3.24,-5.31 -4.85999,-11.32998 -4.85999,-18.06998c0,-6.74 1.61999,-12.84001 4.85999,-18.07001c3.24,-5.22 7.7099,-9.35 13.3999,-12.38c5.68,-3.03 12.19002,-4.54999 19.52002,-4.54999c7.33,0 13.41001,1.49999 18.76001,4.48999c5.35,2.99 9.20006,7.22001 11.56006,12.70001l-15.16003,8.34c-1.85,-3.2 -4.08995,-5.54002 -6.69995,-7.02002c-2.61,-1.47 -5.47009,-2.20999 -8.59009,-2.20999c-3.28,0 -6.27997,0.73999 -8.96997,2.20999c-2.7,1.48 -4.83994,3.6 -6.43994,6.38c-1.61,2.78 -2.40002,6.15002 -2.40002,10.11002c0,3.96 0.79002,7.34998 2.40002,10.16998zM312.44995,96.39999c-3.2,5.22 -7.62002,9.35 -13.27002,12.38c-5.64,3.03 -12.07996,4.55002 -19.32996,4.55002c-7.25,0 -13.54001,-1.52002 -19.14001,-4.55002c-5.6,-3.03 -9.99995,-7.18 -13.19995,-12.44c-3.2,-5.27 -4.80005,-11.26998 -4.80005,-18.00998c0,-6.74 1.60005,-12.86 4.80005,-18.13c3.2,-5.26 7.59995,-9.39 13.19995,-12.38c5.6,-2.99 11.98001,-4.48999 19.14001,-4.48999c7.16,0 13.68996,1.49999 19.32996,4.48999c5.65,2.99 10.07002,7.12 13.27002,12.38c3.2,5.27 4.80005,11.31 4.80005,18.13c0,6.82 -1.60005,12.84998 -4.80005,18.06998zM350.09998,112.32001h-19.70996v-93.75h19.70996zM428.56995,112.32001h-18.44995v-8.45999c-1.48,2.43 -3.50006,4.42999 -6.06006,5.98999c-3.79,2.32 -8.67991,3.48001 -14.65991,3.48001c-5.22,0 -9.73002,-0.91 -13.52002,-2.72c-3.79,-1.81 -6.72003,-4.27001 -8.78003,-7.39001c-2.07,-3.12 -3.09998,-6.60999 -3.09998,-10.48999c0,-3.88 0.98997,-7.47002 2.96997,-10.55002c1.98,-3.07 5.12004,-5.44998 9.42004,-7.13998c4.29,-1.68 9.92993,-2.51999 16.92993,-2.51999h15.54004v-0.13c0,-4.21 -1.28999,-7.50002 -3.85999,-9.86002c-2.57,-2.35 -6.50006,-3.53 -11.81006,-3.53c-3.62,0 -7.17993,0.57001 -10.67993,1.70001c-3.49,1.14 -6.50003,2.67999 -9.03003,4.60999l-6.94995,-13.76999c3.71,-2.69 8.17001,-4.74 13.39001,-6.13c5.23,-1.39 10.52992,-2.07999 15.91992,-2.07999c10.37,0 18.41001,2.43999 24.14001,7.32999c5.72,4.88 8.58997,12.51 8.58997,22.87zM488.57996,61.64999c-0.75,-0.17 -1.48996,-0.28997 -2.20996,-0.37997c-0.71,-0.08 -1.40996,-0.13 -2.07996,-0.13c-5.56,0 -9.98002,1.55999 -13.27002,4.67999c-3.28,3.12 -4.93005,7.91999 -4.93005,14.39999v32.10001h-19.70996v-67.98001h18.82996v8.91c1.86,-2.54 4.22007,-4.6 7.07007,-6.19c4.47,-2.49 9.89993,-3.72998 16.29993,-3.72998zM385.79993,86.16c-1.73,1.52 -2.58997,3.41 -2.58997,5.69c0,2.53 0.98997,4.53 2.96997,6c1.98,1.47 4.65002,2.20999 8.02002,2.20999c3.37,0 6.38004,-0.75999 9.04004,-2.26999c2.65,-1.52 4.52,-3.84001 5.62,-6.95001v-6.94998h-13.52002c-4.63,0 -7.81004,0.75999 -9.54004,2.26999zM288.76001,61.84c-2.57,-1.47 -5.50003,-2.20999 -8.78003,-2.20999c-3.28,0 -6.23998,0.73999 -8.84998,2.20999c-2.61,1.48 -4.69,3.6 -6.25,6.38c-1.56,2.78 -2.33997,6.15002 -2.33997,10.11002c0,3.96 0.77997,7.24999 2.33997,10.10999c1.56,2.86 3.64,5.03001 6.25,6.51001c2.61,1.47 5.51997,2.20999 8.71997,2.20999c3.37,0 6.34003,-0.73999 8.91003,-2.20999c2.57,-1.48 4.62994,-3.65001 6.18994,-6.51001c1.56,-2.86 2.34009,-6.22999 2.34009,-10.10999c0,-3.88 -0.78009,-7.33002 -2.34009,-10.11002c-1.56,-2.78 -3.61994,-4.9 -6.18994,-6.38zM294.94995,68.22c-1.56,-2.78 -3.61994,-4.9 -6.18994,-6.38c-2.57,-1.47 -5.50003,-2.20999 -8.78003,-2.20999c-3.28,0 -6.23998,0.73999 -8.84998,2.20999c-2.61,1.48 -4.69,3.6 -6.25,6.38c-1.56,2.78 -2.33997,6.15002 -2.33997,10.11002c0,3.96 0.77997,7.24999 2.33997,10.10999c1.56,2.86 3.64,5.03001 6.25,6.51001c2.61,1.47 5.51997,2.20999 8.71997,2.20999c3.37,0 6.34003,-0.73999 8.91003,-2.20999c2.57,-1.48 4.62994,-3.65001 6.18994,-6.51001c1.56,-2.86 2.34009,-6.22999 2.34009,-10.10999c0,-3.88 -0.78009,-7.33002 -2.34009,-10.11002zM395.33997,83.89001c-4.63,0 -7.81004,0.75999 -9.54004,2.26999c-1.73,1.52 -2.58997,3.41 -2.58997,5.69c0,2.53 0.98997,4.53 2.96997,6c1.98,1.47 4.65002,2.20999 8.02002,2.20999c3.37,0 6.38004,-0.75999 9.04004,-2.26999c2.65,-1.52 4.52,-3.84001 5.62,-6.95001v-6.94998zM395.33997,83.89001c-4.63,0 -7.81004,0.75999 -9.54004,2.26999c-1.73,1.52 -2.58997,3.41 -2.58997,5.69c0,2.53 0.98997,4.53 2.96997,6c1.98,1.47 4.65002,2.20999 8.02002,2.20999c3.37,0 6.38004,-0.75999 9.04004,-2.26999c2.65,-1.52 4.52,-3.84001 5.62,-6.95001v-6.94998zM294.94995,68.22c-1.56,-2.78 -3.61994,-4.9 -6.18994,-6.38c-2.57,-1.47 -5.50003,-2.20999 -8.78003,-2.20999c-3.28,0 -6.23998,0.73999 -8.84998,2.20999c-2.61,1.48 -4.69,3.6 -6.25,6.38c-1.56,2.78 -2.33997,6.15002 -2.33997,10.11002c0,3.96 0.77997,7.24999 2.33997,10.10999c1.56,2.86 3.64,5.03001 6.25,6.51001c2.61,1.47 5.51997,2.20999 8.71997,2.20999c3.37,0 6.34003,-0.73999 8.91003,-2.20999c2.57,-1.48 4.62994,-3.65001 6.18994,-6.51001c1.56,-2.86 2.34009,-6.22999 2.34009,-10.10999c0,-3.88 -0.78009,-7.33002 -2.34009,-10.11002zM395.33997,83.89001c-4.63,0 -7.81004,0.75999 -9.54004,2.26999c-1.73,1.52 -2.58997,3.41 -2.58997,5.69c0,2.53 0.98997,4.53 2.96997,6c1.98,1.47 4.65002,2.20999 8.02002,2.20999c3.37,0 6.38004,-0.75999 9.04004,-2.26999c2.65,-1.52 4.52,-3.84001 5.62,-6.95001v-6.94998zM395.33997,83.89001c-4.63,0 -7.81004,0.75999 -9.54004,2.26999c-1.73,1.52 -2.58997,3.41 -2.58997,5.69c0,2.53 0.98997,4.53 2.96997,6c1.98,1.47 4.65002,2.20999 8.02002,2.20999c3.37,0 6.38004,-0.75999 9.04004,-2.26999c2.65,-1.52 4.52,-3.84001 5.62,-6.95001v-6.94998zM395.33997,83.89001c-4.63,0 -7.81004,0.75999 -9.54004,2.26999c-1.73,1.52 -2.58997,3.41 -2.58997,5.69c0,2.53 0.98997,4.53 2.96997,6c1.98,1.47 4.65002,2.20999 8.02002,2.20999c3.37,0 6.38004,-0.75999 9.04004,-2.26999c2.65,-1.52 4.52,-3.84001 5.62,-6.95001v-6.94998zM395.33997,83.89001c-4.63,0 -7.81004,0.75999 -9.54004,2.26999c-1.73,1.52 -2.58997,3.41 -2.58997,5.69c0,2.53 0.98997,4.53 2.96997,6c1.98,1.47 4.65002,2.20999 8.02002,2.20999c3.37,0 6.38004,-0.75999 9.04004,-2.26999c2.65,-1.52 4.52,-3.84001 5.62,-6.95001v-6.94998zM395.33997,83.89001c-4.63,0 -7.81004,0.75999 -9.54004,2.26999c-1.73,1.52 -2.58997,3.41 -2.58997,5.69c0,2.53 0.98997,4.53 2.96997,6c1.98,1.47 4.65002,2.20999 8.02002,2.20999c3.37,0 6.38004,-0.75999 9.04004,-2.26999c2.65,-1.52 4.52,-3.84001 5.62,-6.95001v-6.94998zM395.33997,83.89001c-4.63,0 -7.81004,0.75999 -9.54004,2.26999c-1.73,1.52 -2.58997,3.41 -2.58997,5.69c0,2.53 0.98997,4.53 2.96997,6c1.98,1.47 4.65002,2.20999 8.02002,2.20999c3.37,0 6.38004,-0.75999 9.04004,-2.26999c2.65,-1.52 4.52,-3.84001 5.62,-6.95001v-6.94998z" fill-rule="nonzero" fill="rgb(255, 255, 255)" fill-opacity="1" style="mix-blend-mode:NORMAL"></path></g></g></g></g></g></g></g></g><animateTransform href="#456810507" attributeName="transform" type="translate" values="0 0;0 0;-270.96 0;-270.96 0" dur="5s" repeatCount="0" calcMode="spline" keyTimes="0;0.34;0.5;1" keySplines="0.5 0.35 0.15 1;0.5 0.35 0.15 1;0.5 0.35 0.15 1" additive="sum" fill="freeze"></animateTransform><animate href="#456810507" attributeName="opacity" values="0;0;1;1" dur="5s" repeatCount="0" calcMode="spline" keyTimes="0;0.34;0.5;1" keySplines="0.5 0.35 0.15 1;0.5 0.35 0.15 1;0.5 0.35 0.15 1" additive="replace" fill="freeze"></animate><animateTransform href="#456810508" attributeName="transform" type="translate" values="0 0;0 0;-232.89 0;-232.89 0" dur="5s" repeatCount="0" calcMode="spline" keyTimes="0;0.37;0.53;1" keySplines="0.5 0.35 0.15 1;0.5 0.35 0.15 1;0.5 0.35 0.15 1" additive="sum" fill="freeze"></animateTransform><animate href="#456810508" attributeName="opacity" values="0;0;1;1" dur="5s" repeatCount="0" calcMode="spline" keyTimes="0;0.37;0.53;1" keySplines="0.5 0.35 0.15 1;0.5 0.35 0.15 1;0.5 0.35 0.15 1" additive="replace" fill="freeze"></animate><animateTransform href="#456810509" attributeName="transform" type="translate" values="0 0;0 0;-137.67000000000007 0;-137.67000000000007 0" dur="5s" repeatCount="0" calcMode="spline" keyTimes="0;0.31;0.47;1" keySplines="0.5 0.35 0.15 1;0.5 0.35 0.15 1;0.5 0.35 0.15 1" additive="sum" fill="freeze"></animateTransform><animate href="#456810509" attributeName="opacity" values="0;0;1;1" dur="5s" repeatCount="0" calcMode="spline" keyTimes="0;0.31;0.47;1" keySplines="0.5 0.35 0.15 1;0.5 0.35 0.15 1;0.5 0.35 0.15 1" additive="replace" fill="freeze"></animate><animateTransform href="#456810510" attributeName="transform" type="translate" values="0 0;0 0;-241.1500000000001 0;-241.1500000000001 0" dur="5s" repeatCount="0" calcMode="spline" keyTimes="0;0.28;0.44;1" keySplines="0.5 0.35 0.15 1;0.5 0.35 0.15 1;0.5 0.35 0.15 1" additive="sum" fill="freeze"></animateTransform><animate href="#456810510" attributeName="opacity" values="0;0;1;1" dur="5s" repeatCount="0" calcMode="spline" keyTimes="0;0.28;0.44;1" keySplines="0.5 0.35 0.15 1;0.5 0.35 0.15 1;0.5 0.35 0.15 1" additive="replace" fill="freeze"></animate><animateTransform href="#456810511" attributeName="transform" type="translate" values="0 0;0 0;-226.7199999999999 0;-226.7199999999999 0" dur="5s" repeatCount="0" calcMode="spline" keyTimes="0;0.24;0.4;1" keySplines="0.5 0.35 0.15 1;0.5 0.35 0.15 1;0.5 0.35 0.15 1" additive="sum" fill="freeze"></animateTransform><animate href="#456810511" attributeName="opacity" values="0;0;1;1" dur="5s" repeatCount="0" calcMode="spline" keyTimes="0;0.24;0.4;1" keySplines="0.5 0.35 0.15 1;0.5 0.35 0.15 1;0.5 0.35 0.15 1" additive="replace" fill="freeze"></animate><animateTransform href="#456810512" attributeName="transform" type="translate" values="0 0;0 0;-200.73000000000002 0;-200.73000000000002 0" dur="5s" repeatCount="0" calcMode="spline" keyTimes="0;0.21;0.37;1" keySplines="0.5 0.35 0.15 1;0.5 0.35 0.15 1;0.5 0.35 0.15 1" additive="sum" fill="freeze"></animateTransform><animate href="#456810512" attributeName="opacity" values="0;0;1;1" dur="5s" repeatCount="0" calcMode="spline" keyTimes="0;0.21;0.37;1" keySplines="0.5 0.35 0.15 1;0.5 0.35 0.15 1;0.5 0.35 0.15 1" additive="replace" fill="freeze"></animate><animateTransform href="#456810513" attributeName="transform" type="translate" values="0 0;0 0;-239.84010000000012 0;-239.84010000000012 0" dur="5s" repeatCount="0" calcMode="spline" keyTimes="0;0.17;0.33;1" keySplines="0.5 0.35 0.15 1;0.5 0.35 0.15 1;0.5 0.35 0.15 1" additive="sum" fill="freeze"></animateTransform><animate href="#456810513" attributeName="opacity" values="0;0;1;1" dur="5s" repeatCount="0" calcMode="spline" keyTimes="0;0.17;0.33;1" keySplines="0.5 0.35 0.15 1;0.5 0.35 0.15 1;0.5 0.35 0.15 1" additive="replace" fill="freeze"></animate><animateTransform href="#456810514" attributeName="transform" type="translate" values="0 0;0 0;-243.20000000000005 0;-243.20000000000005 0" dur="5s" repeatCount="0" calcMode="spline" keyTimes="0;0.14;0.3;1" keySplines="0.5 0.35 0.15 1;0.5 0.35 0.15 1;0.5 0.35 0.15 1" additive="sum" fill="freeze"></animateTransform><animate href="#456810514" attributeName="opacity" values="0;0;1;1" dur="5s" repeatCount="0" calcMode="spline" keyTimes="0;0.14;0.3;1" keySplines="0.5 0.35 0.15 1;0.5 0.35 0.15 1;0.5 0.35 0.15 1" additive="replace" fill="freeze"></animate><animateTransform href="#456810515" attributeName="transform" type="translate" values="0 0;0 0;-169.00990000000002 0;-169.00990000000002 0" dur="5s" repeatCount="0" calcMode="spline" keyTimes="0;0.08;0.24;1" keySplines="0.5 0.35 0.15 1;0.5 0.35 0.15 1;0.5 0.35 0.15 1" additive="sum" fill="freeze"></animateTransform><animate href="#456810515" attributeName="opacity" values="0;0;1;1" dur="5s" repeatCount="0" calcMode="spline" keyTimes="0;0.08;0.24;1" keySplines="0.5 0.35 0.15 1;0.5 0.35 0.15 1;0.5 0.35 0.15 1" additive="replace" fill="freeze"></animate><animateTransform href="#456810516" attributeName="transform" type="translate" values="0 0;0 0;-232.90009999999984 0;-232.90009999999984 0" dur="5s" repeatCount="0" calcMode="spline" keyTimes="0;0.06;0.22;1" keySplines="0.5 0.35 0.15 1;0.5 0.35 0.15 1;0.5 0.35 0.15 1" additive="sum" fill="freeze"></animateTransform><animate href="#456810516" attributeName="opacity" values="0;0;1;1" dur="5s" repeatCount="0" calcMode="spline" keyTimes="0;0.06;0.22;1" keySplines="0.5 0.35 0.15 1;0.5 0.35 0.15 1;0.5 0.35 0.15 1" additive="replace" fill="freeze"></animate><animateTransform href="#456810517" attributeName="transform" type="translate" values="0 0;0 0;-137.67989999999986 0;-137.67989999999986 0" dur="5s" repeatCount="0" calcMode="spline" keyTimes="0;0.11;0.27;1" keySplines="0.5 0.35 0.15 1;0.5 0.35 0.15 1;0.5 0.35 0.15 1" additive="sum" fill="freeze"></animateTransform><animate href="#456810517" attributeName="opacity" values="0;0;1;1" dur="5s" repeatCount="0" calcMode="spline" keyTimes="0;0.11;0.27;1" keySplines="0.5 0.35 0.15 1;0.5 0.35 0.15 1;0.5 0.35 0.15 1" additive="replace" fill="freeze"></animate><animateTransform href="#456810518" attributeName="transform" type="translate" values="0 0;0 0;0 -130.69;0 -130.69" dur="5s" repeatCount="0" calcMode="spline" keyTimes="0;0.65;0.81;1" keySplines="0.5 0.35 0.15 1;0.5 0.35 0.15 1;0.5 0.35 0.15 1" additive="sum" fill="freeze"></animateTransform><animate href="#456810518" attributeName="opacity" values="0;0;1;1" dur="5s" repeatCount="0" calcMode="spline" keyTimes="0;0.65;0.81;1" keySplines="0.5 0.35 0.15 1;0.5 0.35 0.15 1;0.5 0.35 0.15 1" additive="replace" fill="freeze"></animate></svg>