<?xml version="1.0" encoding="utf-8"?>
<!-- Generator: Adobe Illustrator 27.4.1, SVG Export Plug-In . SVG Version: 6.00 Build 0)  -->
<svg version="1.1" id="Camada_2_00000100355320153519529490000014851191619186063781_"
	 xmlns="http://www.w3.org/2000/svg" xmlns:xlink="http://www.w3.org/1999/xlink" x="0px" y="0px" viewBox="0 0 500 300"
	 style="enable-background:new 0 0 500 300;" xml:space="preserve">
<style type="text/css">
	.st0{fill:#6A40D5;}
</style>
<g>
	<g>
		<g>
			<g>
				
					<image style="overflow:visible;opacity:0.2;" width="67" height="59" xlink:href="2490291B11A2F451.png"  transform="matrix(1 0 0 1 43.0913 140.0913)">
				</image>
				<g>
					<path class="st0" d="M105.4,162.3c0,0.2,0,0.4-0.1,0.6c0,0.1,0,0.2,0,0.2c0,0,0,0,0,0c0,0.1-0.1,0.2-0.1,0.3
						c-0.1,0.5-0.3,1-0.6,1.5c0,0.1-0.1,0.2-0.2,0.3c0,0,0,0,0,0.1l-0.1,0.2c0,0-0.1,0.1-0.1,0.1c-0.1,0.1-0.2,0.2-0.3,0.3
						c-1.3,1.6-3.2,2.5-5.2,2.5c-2.1,0-4-1-5.3-2.6c-0.2-0.3-0.6-0.5-1-0.5c0,0-0.1,0-0.1,0c-0.4,0-0.8,0.3-1,0.7
						c-0.3,0.6-0.6,1.1-1,1.6c0,0,0,0-0.1,0.1c-0.1,0.2-0.3,0.3-0.4,0.5c-0.1,0.1-0.1,0.2-0.2,0.2l-0.1,0.1
						c-0.2,0.2-0.5,0.5-0.8,0.7c-1.1,0.9-2.3,1.6-3.7,1.9c-0.6,0.2-1,0.7-1,1.3v22.4c-1.2-0.6-2.4-1.2-3.5-1.9
						c-0.8-0.4-1.6-0.9-2.4-1.3c-0.8-0.5-1.6-0.9-2.3-1.4c-2.8-1.7-5.6-3.6-8.2-5.6c-1.2-0.9-2.3-1.8-3.4-2.7
						c-2.7-2.3-5.3-4.7-7.6-7.4c-1.6-1.9-3.2-3.8-4.5-5.9c-1.6-2.5-3-5.1-4.1-7.8c-0.3-0.6-0.4-1.3-0.4-2c0-4.7,0-9.5,0-14.2h7.6
						c0.5,1.2,1.1,2.4,2,3.5c0.2,0.3,0.5,0.6,0.8,0.9l0.1,0.1c0.1,0.1,0.1,0.1,0.2,0.2c0.1,0.1,0.3,0.3,0.5,0.4
						c0.2,0.1,0.3,0.3,0.5,0.4c0.1,0.1,0.3,0.2,0.5,0.4c0,0,0.1,0.1,0.1,0.1c-1.5,1.8-2.4,4.1-2.3,6.4c0.1,2,0.8,4,2.1,5.6
						c0.1,0.1,0.2,0.3,0.3,0.4c0.1,0.1,0.2,0.2,0.3,0.4c0.1,0.1,0.2,0.2,0.3,0.3c0.2,0.2,0.3,0.3,0.5,0.4c0.1,0.1,0.2,0.1,0.3,0.2
						c0,0,0.1,0.1,0.1,0.1c0.1,0.1,0.2,0.1,0.3,0.2c0.1,0.1,0.2,0.1,0.3,0.2c0.3,0.2,0.5,0.3,0.8,0.4c1,0.5,2.2,0.8,3.3,0.9
						c0.2,0,0.5,0,0.7,0c2.5,0,4.8-1,6.6-2.7c1.8-1.8,2.7-4.1,2.7-6.6c0-2.3-0.8-4.4-2.3-6.1c0.6-0.4,1.2-0.9,1.7-1.4
						c1.3-1.3,2.3-2.8,2.9-4.5h5.5v6.5c0,0.6,0.4,1.1,1,1.3c1.6,0.4,3.1,1.3,4.3,2.5c0.8,0.8,1.4,1.6,1.9,2.6c0.2,0.4,0.5,0.6,1,0.7
						c0.1,0,0.1,0,0.2,0c0.3,0,0.7-0.1,0.9-0.4c0,0,0.1-0.1,0.1-0.1c0,0,0,0,0.1-0.1c0.1-0.2,0.3-0.4,0.5-0.5
						c0.3-0.3,0.6-0.5,0.9-0.8l0.2-0.1c0,0,0.1,0,0.1-0.1c0,0,0.1,0,0.1-0.1c0,0,0.1-0.1,0.1-0.1c0,0,0,0,0,0c0.1,0,0.1-0.1,0.2-0.1
						c0.1,0,0.1-0.1,0.2-0.1c0.1-0.1,0.2-0.1,0.4-0.2c0.2-0.1,0.3-0.1,0.5-0.2c0.2-0.1,0.3-0.1,0.5-0.1c0.2-0.1,0.3-0.1,0.5-0.1
						c0.1,0,0.2,0,0.2,0c0.1,0,0.2,0,0.2,0c0.3,0,0.5,0,0.8,0c0.9,0,1.8,0.2,2.6,0.5c0,0,0,0,0.1,0c1.6,0.7,2.9,2.1,3.6,3.7
						c0,0,0,0.1,0,0.1C105.3,160.3,105.5,161.2,105.4,162.3z"/>
				</g>
			</g>
			<g>
				
					<image style="overflow:visible;opacity:0.2;" width="45" height="80" xlink:href="2490291B11A2F453.png"  transform="matrix(1 0 0 1 82.0913 119.0913)">
				</image>
				<g>
					<path class="st0" d="M123,159c0,0.3,0,0.7-0.1,1c-0.2,0.7-0.4,1.3-0.7,1.9c-2.3,5.5-5.8,10.1-9.8,14.4
						c-0.1,0.1-0.2,0.2-0.4,0.4c-4,4.2-8.6,7.7-13.3,11c-3.9,2.7-8,5-12.1,7.2v-14.6c0,0,0-0.1,0-0.1v-6.8c1.3-0.5,2.6-1.2,3.7-2.1
						c0.3-0.3,0.7-0.6,1-0.9c0.5-0.5,0.9-1,1.3-1.6c1.7,1.5,3.8,2.3,6.1,2.3c0.1,0,0.2,0,0.3,0c2.8-0.1,5.6-1.5,7.2-3.9
						c0-0.1,0.1-0.2,0.2-0.2c0,0,0.2-0.3,0.2-0.3c0,0,0-0.1,0.1-0.1c0.1-0.1,0.1-0.2,0.2-0.3c0.1-0.2,0.2-0.4,0.3-0.7
						c0.5-1,0.7-2.1,0.8-3.2c0.1-1.4-0.1-2.7-0.6-4c0,0,0-0.1,0-0.1c-0.9-2.3-2.8-4.2-5.1-5.2c0,0,0,0-0.1,0
						c-1.1-0.5-2.3-0.7-3.6-0.7c-1.8,0-3.6,0.5-5.1,1.5c-0.2,0.1-0.3,0.2-0.5,0.3c-0.2,0.1-0.4,0.3-0.6,0.4
						c-0.4-0.6-0.9-1.2-1.4-1.7c-1.3-1.3-2.8-2.3-4.5-2.9v-5.5h6.4c0.6,0,1.1-0.4,1.3-1c0.5-1.6,1.3-3.1,2.5-4.3
						c0.8-0.8,1.6-1.4,2.6-1.9c0.4-0.2,0.7-0.6,0.7-1c0-0.4-0.1-0.9-0.5-1.2c-1.7-1.3-2.6-3.2-2.6-5.3c0-0.8,0.1-1.6,0.4-2.3
						c0.1-0.3,0.2-0.5,0.3-0.8c0.1-0.2,0.2-0.4,0.4-0.7c0.1-0.2,0.2-0.3,0.4-0.5c0,0,0,0,0,0c0.1-0.1,0.2-0.2,0.3-0.3
						c0.1-0.1,0.1-0.1,0.1-0.1c0.1-0.1,0.3-0.3,0.5-0.4c0,0,0,0,0,0c0.2-0.1,0.3-0.3,0.5-0.4c0.3-0.2,0.6-0.3,0.8-0.5
						c0.1-0.1,0.2-0.1,0.3-0.1c0.2-0.1,0.4-0.2,0.6-0.2c0.2-0.1,0.4-0.1,0.6-0.2c0.4-0.1,0.9-0.1,1.3-0.1c0.2,0,0.3,0,0.5,0
						c0,0,0.1,0,0.1,0c0.2,0,0.4,0,0.6,0.1c0.1,0,0.2,0,0.2,0c2.8,0.6,4.9,2.9,5.2,5.7c0,0,0,0.1,0,0.1c0,0.1,0,0.2,0,0.3
						c0,0.1,0,0.2,0,0.3c0,0.1,0,0.2,0,0.3c0,0.2,0,0.4,0,0.6c0,0,0,0.1,0,0.1c0,0.2,0,0.3-0.1,0.5c-0.1,0.7-0.3,1.3-0.7,1.9
						c-0.2,0.4-0.5,0.8-0.8,1.1c-0.1,0.2-0.3,0.4-0.5,0.6c-0.2,0.2-0.4,0.3-0.6,0.5c-0.4,0.3-0.5,0.7-0.5,1.2c0,0.5,0.3,0.8,0.7,1
						c2.5,1.2,4.4,3.5,5.1,6.2c0.2,0.6,0.7,1,1.3,1h8.5C122.9,149.4,122.9,154.2,123,159z"/>
				</g>
			</g>
			<g>
				
					<image style="overflow:visible;opacity:0.2;" width="45" height="67" xlink:href="2490291B11A2F456.png"  transform="matrix(1 0 0 1 43.0913 101.0913)">
				</image>
				<g>
					<path class="st0" d="M62.5,124.2c-0.2,2.6,0.7,5.1,2.5,7c1.8,1.9,4.3,3,6.8,3c2.3,0,4.4-0.8,6.1-2.3c0.4,0.6,0.9,1.2,1.4,1.7
						c1.3,1.3,2.9,2.3,4.5,2.9v5.5h-6.4c-0.6,0-1.1,0.4-1.3,1c-0.4,1.6-1.3,3.1-2.5,4.4c-0.8,0.8-1.6,1.4-2.6,1.9
						c-0.4,0.2-0.7,0.6-0.7,1c0,0.4,0.1,0.9,0.5,1.2c0.2,0.1,0.4,0.3,0.5,0.5c1.3,1.3,2.1,3,2.1,4.9c0,3.7-3,6.7-6.7,6.7
						c-0.2,0-0.3,0-0.5,0c-1.2-0.1-2.4-0.5-3.4-1.2c0,0,0,0-0.1,0c-0.1-0.1-0.1-0.1-0.2-0.2c0,0,0,0,0,0c-0.4-0.3-0.7-0.7-1.1-1
						c-0.9-1.2-1.4-2.5-1.5-4c-0.1-2.2,0.9-4.3,2.6-5.6c0.3-0.3,0.5-0.7,0.5-1.1c0-0.4-0.3-0.8-0.7-1c0,0-0.1,0-0.1,0
						c-0.5-0.2-0.9-0.5-1.3-0.8c-0.1-0.1-0.3-0.2-0.4-0.3c-0.2-0.1-0.3-0.2-0.4-0.3c-0.1-0.1-0.3-0.2-0.4-0.4
						c-1.2-1.2-2.2-2.8-2.6-4.4c-0.2-0.6-0.7-1-1.3-1h-8.5v-6.2c0-7.3,0-14.6,0-22c0-0.7,0.2-1,0.8-1.3c3.3-1.6,6.8-2.7,10.3-3.8
						c4.4-1.3,8.9-2.2,13.5-2.8c1.3-0.2,2.6-0.3,3.9-0.4c1.4-0.1,2.8-0.2,4.2-0.3c1.2-0.1,2.3-0.1,3.5-0.1c0.1,0,0.1,0,0.2,0v8
						c-2.4,0.9-4.5,2.5-6,4.6c-1.7-1.5-3.8-2.3-6.1-2.3c-0.1,0-0.2,0-0.3,0C66.8,115.7,62.8,119.5,62.5,124.2z"/>
				</g>
			</g>
			<g>
				
					<image style="overflow:visible;opacity:0.2;" width="9" height="9" xlink:href="2490291B11A2F457.png"  transform="matrix(1 0 0 1 79.0913 101.0913)">
				</image>
				<g>
					<path class="st0" d="M83.9,105.1L83.9,105.1c-0.1,0-0.1,0-0.2,0C83.8,105.1,83.8,105.1,83.9,105.1z"/>
				</g>
			</g>
			<g>
				
					<image style="overflow:visible;opacity:0.2;" width="66" height="45" xlink:href="2490291B11A2F452.png"  transform="matrix(1 0 0 1 61.0913 101.0913)">
				</image>
				<g>
					<path class="st0" d="M122.9,136.5L122.9,136.5l0,0.7c0,1.6,0,3.2,0,4.8h-0.7c0,0-0.1,0-0.1,0c0,0,0,0,0,0c0,0-0.5,0-1.3,0
						c-1.2,0-3,0-4.4,0c-0.4,0-0.8,0-1.1,0c-0.9-2.4-2.5-4.5-4.6-5.9c0-0.1,0.1-0.1,0.1-0.2c0.4-0.5,0.8-1,1.1-1.6
						c0.4-0.9,0.8-1.8,0.9-2.7c0-0.2,0.1-0.5,0.1-0.7c0,0,0,0,0-0.1c0-0.4,0-0.6,0-0.9c0-0.1,0-0.2,0-0.4c0-0.1,0-0.2,0-0.4
						c0,0,0,0,0,0c0-0.1,0-0.2,0-0.4c0,0,0,0,0-0.1c-0.5-3.9-3.4-7.1-7.3-8c-0.1,0-0.2-0.1-0.4-0.1c-0.3,0-0.5-0.1-0.8-0.1
						c-0.3,0-0.6,0-0.8,0c-0.6,0-1.2,0.1-1.9,0.2c-0.3,0.1-0.6,0.1-0.9,0.2c-0.3,0.1-0.6,0.2-0.9,0.3c-0.1,0.1-0.3,0.1-0.4,0.2
						c-0.4,0.2-0.8,0.4-1.2,0.7c-0.3,0.2-0.5,0.4-0.7,0.5c0,0,0,0,0,0c-0.2,0.2-0.4,0.4-0.6,0.6c-0.1,0.1-0.1,0.1-0.2,0.2
						c-0.1,0.1-0.3,0.3-0.4,0.4c0,0,0,0,0,0c-0.2,0.2-0.4,0.5-0.5,0.7c-0.2,0.3-0.4,0.6-0.5,0.9c-0.2,0.3-0.3,0.7-0.5,1.1
						c-0.4,1-0.6,2.1-0.6,3.2c0,2.3,0.8,4.4,2.3,6.1c-0.6,0.4-1.2,0.9-1.7,1.4c-1.3,1.3-2.3,2.8-2.9,4.5c-0.3,0-1,0-1,0
						c-1.4,0-3.2,0-4.5,0v-6.4c0-0.6-0.4-1.1-1-1.3c-1.6-0.4-3.1-1.3-4.4-2.5c-0.8-0.8-1.4-1.6-1.9-2.6c-0.2-0.4-0.6-0.7-1-0.7
						c0,0-0.1,0-0.1,0c-0.4,0-0.8,0.2-1,0.5c-1.3,1.7-3.2,2.6-5.3,2.6c-1.9,0-3.6-0.8-4.9-2.1c-1.3-1.4-1.9-3.2-1.8-5.1
						c0.2-3.4,3.1-6.1,6.5-6.2c0.1,0,0.2,0,0.2,0c2.1,0,4,1,5.3,2.6c0.2,0.3,0.6,0.5,1,0.5c0,0,0.1,0,0.1,0c0.4,0,0.8-0.3,1-0.7
						c1.2-2.5,3.5-4.4,6.2-5.2c0.6-0.2,1-0.7,1-1.3v-7.7c0,0,0-0.1,0-0.1v-1.1c0.1,0,0.1,0,0.2,0c0,0,0,0,0,0c0.2,0,0.4,0,0.6,0
						c1.7,0,3.3,0.1,5,0.2c1.2,0.1,2.4,0.2,3.6,0.3c0.5,0.1,1,0.1,1.6,0.2c1.3,0.2,2.6,0.3,3.9,0.5c1.1,0.2,2.2,0.4,3.2,0.6
						c2.6,0.5,5.2,1.2,7.8,1.9c0.1,0,0.1,0,0.2,0c3.3,1,6.6,2.1,9.7,3.6c0.4,0.2,0.6,0.4,0.7,0.7c0.1,0.2,0.1,0.4,0.1,0.6
						C122.9,121.4,122.9,128.9,122.9,136.5z"/>
				</g>
			</g>
			<g>
				
					<image style="overflow:visible;opacity:0.2;" width="9" height="9" xlink:href="2490291B11A2F45D.png"  transform="matrix(1 0 0 1 82.0913 101.0913)">
				</image>
				<g>
					<path class="st0" d="M86.7,105.1c-0.1,0-0.1,0-0.2,0v0C86.6,105.1,86.6,105.1,86.7,105.1z"/>
				</g>
			</g>
		</g>
	</g>
</g>
<g>
	<path class="st0" d="M180.9,161.2L180.9,161.2c0,0.2,0,0.3,0,0.5c-0.2,3.3-3,5.8-6.3,5.8h-28.4c-0.5,0-0.9-0.4-0.9-0.9
		s0.4-0.9,0.9-0.9h2.6c1.2,0,2.2-1,2.2-2.2v-35.7c0-1.1-0.9-1.9-1.9-1.9h-2c-0.6,0-1.1-0.5-1.1-1.1s0.5-1.1,1.1-1.1h17.3
		c0.6,0,1.1,0.5,1.1,1.1s-0.5,1.1-1.1,1.1h-3.1c-1.1,0-1.9,0.8-1.9,1.9v31.2c0,3.5,2.8,6.3,6.3,6.3h8.1c0.8,0,1.5-0.1,2.1-0.3
		c2.6-0.8,4.1-3.1,4.7-5.4C180.8,160.2,180.9,160.7,180.9,161.2L180.9,161.2z"/>
	<path class="st0" d="M207.4,162.8c6.2-6.2,6.4-16,0.6-21.9c-5.9-5.9-15.7-5.6-21.9,0.6s-6.4,16-0.6,21.9S201.2,168.9,207.4,162.8
		L207.4,162.8z M196.7,165.2c-5.3,0-9.6-5.9-9.6-13.1s4.3-13.1,9.6-13.1s9.6,5.9,9.6,13.1S202,165.2,196.7,165.2z"/>
	<path class="st0" d="M230.6,160.2c0,0,0,0.4,0,0.4c-0.3,4.1-3.7,6.9-7.9,6.9c-0.2,0-0.3,0-0.5,0h0c-0.5,0-1-0.1-1.5-0.2
		c-3.4-0.9-5.9-4-5.9-7.6v-19.6h-3.3c-0.4,0-0.7-0.3-0.7-0.7v-1.5c0-0.4,0.3-0.7,0.7-0.7h0c3.6,0,6.5-2.9,6.5-6.5v-0.1
		c0-0.4,0.3-0.7,0.7-0.7h1.4c0.4,0,0.7,0.3,0.7,0.7v6.6h7.2c0.4,0,0.7,0.3,0.7,0.7v1.5c0,0.4-0.3,0.7-0.7,0.7h-7.2v18.2
		c0,0.6,0,2.4,0.1,2.8c0.6,1.9,2.2,3.4,4.2,3.6C229.5,164.7,230.6,160.2,230.6,160.2L230.6,160.2L230.6,160.2z"/>
	<path class="st0" d="M253.6,167.6h0.2H253.6z"/>
	<path class="st0" d="M254.6,160.2V146c0-8-6.6-9.4-11.9-9.4s-10.6,3.6-10.4,8.3c0,1.6,1.3,3,3,3s3-1.3,3-3c0-0.2,0-0.4-0.1-0.5
		c0-0.2-0.1-0.4-0.2-0.6c0,0,0-0.1,0-0.1c-1.1-2.3-0.3-5.9,4.7-5.9s6.3,0.8,6.3,8.8v4.1h-4.4c-4.4,0-12.5,0.6-12.5,9.3
		s10.5,8.6,16.9,3.7c0,0.6,0.4,1.6,1.2,2.4c0.3,0.3,0.6,0.5,1,0.7c0.2,0.1,0.4,0.2,0.6,0.3c0.1,0.1,0.3,0.1,0.4,0.1c0,0,0,0,0,0
		c0.3,0.1,0.6,0.1,0.9,0.2c0,0,0,0,0,0c0.1,0,0.3,0,0.4,0h0.1c0.1,0,0.1,0,0.2,0l0.8-0.1h0c1.5-0.4,2.7-1.4,3.3-2.9
		C256,164,254.6,162.2,254.6,160.2L254.6,160.2z M249,162.4L249,162.4c-4.5,3.9-11.8,3.9-11.8-3s5.7-7.4,8.7-7.4h3.1L249,162.4
		L249,162.4z"/>
	<path class="st0" d="M249,162.5C249,162.5,249,162.4,249,162.5L249,162.5L249,162.5L249,162.5z"/>
	<path class="st0" d="M252.2,167.4c0.3,0.1,0.6,0.1,0.9,0.2C252.8,167.5,252.5,167.4,252.2,167.4z"/>
	<path class="st0" d="M253.1,167.5c0.2,0,0.3,0,0.5,0h-0.1C253.4,167.6,253.3,167.6,253.1,167.5z"/>
	<path class="st0" d="M302.4,149.4v1c0,0.2-0.2,0.4-0.4,0.4h-3.6l-0.7,11.3c0,0-3.6,5.1-18.3,5.4c-0.3,0-0.6,0-1,0
		c-11.3,0-20.4-7-20.4-22.8c0-16.9,9.1-22.8,20.4-22.8c0,0,7.5-0.3,11.8,2.2c4,2.3,5.2,4,5.4,4.2c0,0,0,0,0,0l0-1.3V127l0-2.1
		c0-0.3,0.3-0.6,0.6-0.6l0.7,0c0.3,0,0.6,0.3,0.6,0.6l-0.1,13h-1.8c-1.8-9.3-7.5-13.1-14.2-13.1c-8.2,0-14.8,5.2-14.8,20
		c0,13.9,6.6,20,14.8,20c3.2,0,6.2-0.8,8.7-2.7c1.4-1.3,2-4.1,2-7.9c0-3.2-4-3.4-4.8-3.4h-2.4V149h17.2
		C302.2,149,302.4,149.2,302.4,149.4L302.4,149.4z"/>
	<path class="st0" d="M324.1,166.1c8.1-3.3,12.1-12.2,9-19.9c-3.1-7.7-12.3-11.3-20.4-7.9c-8.1,3.3-12.1,12.2-9,19.9
		S316,169.4,324.1,166.1L324.1,166.1z M318.4,165.2c-5.3,0-9.5-5.9-9.5-13.2c0-7.3,4.4-13.1,9.7-13.1c5.3,0,9.5,5.9,9.5,13.2
		C328,159.4,323.7,165.3,318.4,165.2L318.4,165.2z"/>
	<path class="st0" d="M330.6,138.9H330c0,0,0,0,0,0H330.6z"/>
	<path class="st0" d="M364.5,137.3v1.3c0,0.2-0.2,0.4-0.4,0.4h-0.9c-1.2,0-2.4,0.8-2.9,1.9l-12.2,26.7h-2.1L333.9,141
		c-0.6-1.3-1.9-2.1-3.3-2.1H330c-0.2,0-0.3-0.1-0.3-0.3v-1.4c0-0.2,0.1-0.3,0.3-0.3h15.2c0.2,0,0.3,0.1,0.3,0.3v1.4
		c0,0.2-0.1,0.3-0.3,0.3h-3c-1.3,0-2.1,1.3-1.6,2.5l8,18.1l8.3-18.2c0.4-1.1-0.4-2.3-1.6-2.3H353c-0.1,0-0.3-0.1-0.3-0.3
		c0-0.3,0-0.9,0-1.4l0,0c0,0,0.2-0.4,0.4-0.4h11.1C364.3,136.9,364.5,137.1,364.5,137.3L364.5,137.3z"/>
	<path class="st0" d="M403.4,160.5c0,2.4-2,4.4-4.4,4.4c-0.6,0-1.2-0.1-1.8-0.4c-0.2-0.1-0.4-0.2-0.6-0.3c-0.1-0.1-0.2-0.1-0.2-0.2
		c-5.7-3.9-2.7-18.2-10.6-18.9h-1c6.3,0,11.5-5.2,11.5-11.5v-0.4c0-6.3-5.2-11.5-11.5-11.5h-21.2c-0.4,0-0.6,0.3-0.6,0.6v1.5
		c0,0.3,0.3,0.6,0.6,0.6h3.6c0.8,0,1.4,0.6,1.4,1.3v38c0,0.7-0.6,1.4-1.4,1.4h-2.6c-0.3,0-0.5,0.2-0.5,0.5v1.5
		c0,0.3,0.2,0.5,0.5,0.5h15.9c0.3,0,0.5-0.2,0.5-0.5v-1.5c0-0.3-0.2-0.5-0.5-0.5h-4c-0.7,0-1.4-0.6-1.4-1.4v-16c0-0.6,0.5-1,1-1h4.4
		c0.5,0,4.3,0.3,6.4,8.2c1,3.8,2,6.6,2.8,8.6c0.9,2.2,3.1,3.6,5.5,3.6h2.5C400.9,167.4,403.5,165.7,403.4,160.5L403.4,160.5
		L403.4,160.5z M382.1,143.1h-6.2c-0.5,0-1-0.4-1-0.9v-16.5c0-0.5,0.4-0.9,1-0.9h6.2c4.9,0,8.9,4,8.9,8.9v0.6
		C391,139.1,387,143.1,382.1,143.1L382.1,143.1z"/>
	<path class="st0" d="M451.5,165.8v1.5c0,0,0,0.1,0,0.1c0,0.2-0.2,0.4-0.5,0.4h-15.9c-0.3,0-0.5-0.2-0.5-0.5v-1.5
		c0-0.3,0.2-0.5,0.5-0.5h2.6c0.7,0,1.3-0.6,1.3-1.4V146h-22.6v17.9c0,0.8,0.6,1.4,1.4,1.4h3.9c0.2,0,0.4,0.2,0.5,0.4
		c0,0.1,0,0.1,0,0.1v1.5c0,0,0,0.1,0,0.1c0,0.2-0.2,0.4-0.5,0.4H405c-0.3,0-0.5-0.2-0.5-0.5v-1.5c0-0.3,0.2-0.5,0.5-0.5h3.8
		c0.7,0,1.3-0.6,1.3-1.4V126c0-0.7-0.6-1.3-1.4-1.3h-3.6c-0.4,0-0.6-0.3-0.6-0.6v-1.5c0-0.3,0.3-0.6,0.6-0.6h16.3
		c0.4,0,0.7,0.3,0.7,0.7v1.3c0,0.4-0.3,0.7-0.7,0.7h-4c-0.5,0-1,0.4-1,0.9v17.3h22.6V126c0-0.8-0.6-1.3-1.4-1.3h-2.5
		c-0.4,0-0.6-0.3-0.6-0.6v-1.5c0-0.3,0.3-0.6,0.6-0.6h15.5c0.4,0,0.7,0.3,0.7,0.7v1.3c0,0.4-0.3,0.7-0.7,0.7h-4.4
		c-0.5,0-1,0.4-1,0.9V164c0,0.8,0.6,1.4,1.4,1.4h4.2C451.3,165.3,451.5,165.5,451.5,165.8C451.5,165.7,451.6,165.8,451.5,165.8
		L451.5,165.8z"/>
</g>
</svg>
