<?xml version="1.0" encoding="UTF-8"?><svg id="Camada_2" xmlns="http://www.w3.org/2000/svg" xmlns:xlink="http://www.w3.org/1999/xlink" viewBox="0 0 1920 1080"><defs><style>.cls-1,.cls-2{fill:none;}.cls-2{stroke:#fff;stroke-linecap:round;stroke-linejoin:round;stroke-width:.71px;}.cls-3{fill:url(#trofeus);}</style><pattern id="trofeus" x="0" y="0" width="366.28" height="361.81" patternTransform="translate(92.51 -1437.74)" patternUnits="userSpaceOnUse" viewBox="0 0 366.28 361.81"><g><rect class="cls-1" width="366.28" height="361.81"/><g><polygon class="cls-2" points="150.6 124.87 149.57 95.36 121.12 87.43 146.16 71.78 138.81 43.19 164.88 57.04 185.97 36.38 187 65.89 215.44 73.82 190.41 89.47 197.76 118.06 171.69 104.2 150.6 124.87"/><path class="cls-2" d="M185.97,36.38c.73,.29,30.41,1.11,30.41,1.11l6.34-15.87-27.1-10.83"/><path class="cls-2" d="M185.97,36.38c-.73-.29-22.8-20.16-22.8-20.16L169.51,.35l27.1,10.83"/></g><g><polygon class="cls-2" points="323.24 88 292.84 93.1 273.22 69.31 284.02 40.43 314.42 35.34 334.04 59.13 323.24 88"/><path class="cls-2" d="M312.63,89.78c6.6,1.05,12.63,2.13,18.64,4.36l-7.08,19.15c-5.76-2.13-13.07-3.22-20.82-4.37-9.33-1.39-18.97-2.82-28.32-6.28-17.05-6.31-19.31-8.08-20.68-9.53l7.13-19.6s4.08,2,3.83,1.78c.04,.03,4.02,3.47,16.81,8.2,1.23,.45,2.49,.87,3.78,1.25"/><path class="cls-2" d="M257.7,80.09s-7.38-3.33-15.71-4.73c-.04,.11,4,12.13,4,12.13l-11.62,7.5s8.09,1.73,17.38,4.92c9.29,3.2,15.73,5.64,15.73,5.64l1.57-4.24"/><path class="cls-2" d="M329.57,100.92s7.77,2.27,15,6.63c-.04,.11-10.93,6.61-10.93,6.61l3.95,13.26s-7.27-3.95-16.4-7.57-15.61-5.96-15.61-5.96l1.57-4.24"/><polygon class="cls-2" points="322.13 60.93 315.63 78.34 297.3 81.41 285.47 67.07 291.98 49.66 303.66 64.07 322.13 60.93"/></g><g><path class="cls-2" d="M76.74,77.88l31-56.09L.46,52.7l69.59,38,5.27-9.53m2.14-35.23l-13.7,24.8-24.8-13.7,38.5-11.09Z"/><polyline class="cls-2" points="73.63 84.22 19.7 54.87 92.59 33.87 70.23 74.34"/><line class="cls-2" x1="63.62" y1="70.63" x2="76.69" y2="77.86"/><polygon class="cls-2" points="112.14 113.97 106.43 120.07 113.47 124.58 106.15 128.6 111.43 135.07 103.23 136.64 106.26 144.42 97.98 143.39 98.46 151.73 90.9 148.17 88.77 156.25 82.68 150.54 78.17 157.57 74.14 150.26 67.67 155.54 66.1 147.34 58.32 150.37 59.35 142.08 51.02 142.57 54.57 135.01 46.49 132.88 52.2 126.79 45.17 122.28 52.49 118.25 47.2 111.78 55.41 110.21 52.37 102.43 60.66 103.46 60.18 95.12 67.74 98.68 69.86 90.6 75.96 96.31 80.47 89.28 84.49 96.6 90.96 91.31 92.53 99.52 100.31 96.48 99.28 104.77 107.62 104.28 104.06 111.84 112.14 113.97"/></g><g><g><path class="cls-2" d="M359.75,155.3c-7.61,15.45-23.53,26.08-41.92,26.08s-34.3-10.63-41.92-26.08h83.83Z"/><polyline class="cls-2" points="323.28 180.99 323.28 225.36 312.38 225.36 312.38 180.99"/><path class="cls-2" d="M339.47,228.62c0,.26-.04,.53-.1,.77h-41.71s-.09,0-.13,0c-.06-.25-.1-.51-.1-.78,0-.89,.36-1.69,.94-2.27,.59-.58,1.38-.94,2.27-.94h35.62c1.77,0,3.21,1.44,3.21,3.21Z"/><path class="cls-2" d="M342.64,232.61c0,.13,0,.26-.02,.39h-48.01c-.11,0-.21,0-.32,.02-.02-.13-.03-.27-.03-.4,0-.88,.36-1.69,.94-2.27s1.31-.91,2.14-.94c.04,0,.09,0,.13,0h41.95c1.77,0,3.21,1.45,3.21,3.21Z"/><path class="cls-2" d="M345.81,236.21c0,.88-.36,1.68-.94,2.26-.58,.59-1.38,.94-2.26,.94h-48.31c-1.77,0-3.21-1.44-3.21-3.21,0-.89,.36-1.69,.94-2.27,.51-.51,1.19-.86,1.95-.93,.11-.01,.21-.02,.32-.02h48.31c1.77,0,3.21,1.44,3.21,3.21Z"/></g><path class="cls-2" d="M348.83,170.06l12.17,2.84c4.06,.95,6.68-4.16,3.56-6.91l-7.26-6.38"/><path class="cls-2" d="M286.78,170.07l-12.17,2.84c-4.06,.95-6.68-4.16-3.56-6.91l7.26-6.38"/></g><g><circle class="cls-2" cx="74.11" cy="185.12" r="12.55"/><g><g><path class="cls-2" d="M66.27,239.79l-7.51-24.56c-.89-3.58,1.31-7.23,4.89-8.12l15-3.72"/><path class="cls-2" d="M116.85,305.77c.09,.34,.15,.7,.19,1.03l-23.99,5.95c-.12-.32-.22-.65-.31-1-.29-1.16-.34-2.27-.2-3.12,.14-.84,.48-1.44,.99-1.56l20.42-5.07c1.02-.25,2.31,1.44,2.89,3.76Z"/><line class="cls-2" x1="91.17" y1="254.42" x2="103.62" y2="304.57"/><path class="cls-2" d="M63.07,229.34l6.55,21.48c1.39,4.56,6.1,7.23,10.73,6.08l.09-.02,13.93,45.58c.46,1.52,1.32,2.81,2.43,3.81"/><line class="cls-2" x1="71.36" y1="226.68" x2="80.44" y2="256.88"/></g><g><path class="cls-2" d="M106.61,229.78l-4.85-25.22c-.89-3.58-4.54-5.78-8.12-4.89l-15,3.72"/><path class="cls-2" d="M104.55,219.05l4.25,22.05c.9,4.68-2.02,9.24-6.64,10.39l-.09,.02,8.99,46.8c.3,1.56,.15,3.1-.36,4.5"/><line class="cls-2" x1="95.97" y1="220.57" x2="102.07" y2="251.51"/></g></g><path class="cls-2" d="M93.12,312.74s-.05,.01-.07,.02h0l.07-.02Z"/><path class="cls-2" d="M119.97,310.55c.04,.17,.08,.34,.11,.51l-27.53,6.83c-.06,.02-.12,.04-.18,.07v-.02c-.06-.17-.11-.33-.15-.5-.29-1.16-.34-2.27-.2-3.12,.14-.8,.46-1.38,.92-1.54,.02-.01,.05-.02,.07-.02l24.06-5.97c1.01-.25,2.31,1.45,2.89,3.76Z"/><path class="cls-2" d="M122.96,314.83c.29,1.15,.34,2.26,.2,3.11-.14,.85-.49,1.44-.99,1.56l-27.71,6.88c-1.01,.25-2.31-1.44-2.88-3.75-.29-1.16-.34-2.27-.2-3.11,.13-.74,.4-1.29,.81-1.49,.06-.03,.12-.05,.18-.07l27.71-6.88c1.01-.25,2.31,1.44,2.89,3.76Z"/></g><g><polygon class="cls-2" points="205.72 254.19 189.45 277.63 138.11 242 154.38 218.56 205.72 254.19"/><polygon class="cls-2" points="186.77 268.01 148.06 241.15 157.12 228.09 195.83 254.95 186.77 268.01"/><polygon class="cls-2" points="195.23 281.64 191.51 286.99 128.62 243.34 132.33 237.99 195.23 281.64"/><ellipse class="cls-2" cx="200.07" cy="207.52" rx="24.17" ry="33.68" transform="translate(-82.61 151.11) rotate(-34.76)"/></g><g><rect class="cls-2" x="227.05" y="326.41" width="62.5" height="28.53"/><rect class="cls-2" x="234.74" y="332.67" width="47.11" height="15.9"/><rect class="cls-2" x="220.02" y="354.94" width="76.56" height="6.51"/><polygon class="cls-2" points="258.3 250.21 269.5 272.89 294.52 276.53 276.41 294.18 280.69 319.11 258.3 307.34 235.91 319.11 240.19 294.18 222.08 276.53 247.11 272.89 258.3 250.21"/><line class="cls-2" x1="258.3" y1="307.34" x2="258.3" y2="326.4"/></g><g><polygon class="cls-2" points="25.3 323.7 13.35 345.65 12.12 333 .35 338.58 12.48 316.29 17.06 318.93 25.3 323.7"/><polygon class="cls-2" points="57.76 343.31 47.09 336.4 44.12 349.08 33.49 323.91 42.19 318.89 46.41 316.45 57.76 343.31"/><polygon class="cls-2" points="55.33 281.58 55.33 311.3 46.41 316.45 42.19 318.89 33.49 323.91 29.58 326.16 25.3 323.7 17.06 318.93 12.48 316.29 3.84 311.3 3.84 281.58 29.58 266.71 55.33 281.58"/><polygon class="cls-2" points="29.7 274.89 11.24 285.55 11.24 306.86 29.7 317.52 48.16 306.86 48.16 285.55 29.7 274.89"/></g><circle class="cls-2" cx="234.22" cy="137.58" r="11.94"/><polygon class="cls-2" points="143.1 148.55 147.41 160.67 159.04 155.15 153.51 166.77 165.64 171.09 153.51 175.4 159.04 187.03 147.41 181.5 143.1 193.63 138.79 181.5 127.16 187.03 132.69 175.4 120.56 171.09 132.69 166.77 127.16 155.15 138.79 160.67 143.1 148.55"/><polygon class="cls-2" points="162.99 309.47 167.31 321.6 178.93 316.07 173.41 327.7 185.53 332.01 173.41 336.32 178.93 347.95 167.31 342.42 162.99 354.55 158.68 342.42 147.05 347.95 152.58 336.32 140.45 332.01 152.58 327.7 147.05 316.07 158.68 321.6 162.99 309.47"/><circle class="cls-2" cx="259.43" cy="216.54" r="11.94"/><circle class="cls-2" cx="234.22" cy="53.63" r="11.94"/></g></pattern></defs><g id="Camada_1-2"><rect class="cls-3" width="1920" height="1080"/></g></svg>