<?xml version="1.0" encoding="UTF-8"?>
<svg id="Camada_2" data-name="Camada 2" xmlns="http://www.w3.org/2000/svg" viewBox="0 0 500 380">
  <defs>
    <style>
      .cls-1 {
        fill: #aaa;
      }

      .cls-1, .cls-2, .cls-3, .cls-4 {
        stroke-width: 0px;
      }

      .cls-2 {
        fill: #c1c1c1;
      }

      .cls-3 {
        fill: #999;
      }

      .cls-4 {
        fill: #777;
      }
    </style>
  </defs>
  <polygon class="cls-1" points="240.2 201.65 145.57 147.01 240.2 92.37 334.83 147.01 240.2 201.65"/>
  <polygon class="cls-3" points="240.2 201.65 240.2 228.97 145.75 228.97 145.75 147.01 240.2 201.65"/>
  <polygon class="cls-4" points="335.01 147.01 335.01 228.97 240.2 228.97 240.2 201.65 240.29 201.6 335.01 147.01"/>
  <polygon class="cls-2" points="194.26 175.09 183.28 168.74 277.89 114.1 288.89 120.46 194.26 175.09"/>
  <rect class="cls-3" x="107.33" y="221.18" width="34.18" height="7.79"/>
  <rect class="cls-3" x="107.33" y="211.11" width="34.18" height="7.79"/>
  <rect class="cls-3" x="107.33" y="200.98" width="34.18" height="7.79"/>
  <rect class="cls-3" x="69.24" y="225.07" width="34.18" height="3.89"/>
  <rect class="cls-3" x="339.1" y="221.18" width="34.18" height="7.79" transform="translate(712.39 450.15) rotate(-180)"/>
  <rect class="cls-3" x="339.1" y="211.11" width="34.18" height="7.79" transform="translate(712.39 430.01) rotate(-180)"/>
  <rect class="cls-3" x="339.1" y="200.98" width="34.18" height="7.79" transform="translate(712.39 409.74) rotate(-180)"/>
  <rect class="cls-3" x="377.19" y="225.07" width="34.18" height="3.89" transform="translate(788.56 454.04) rotate(-180)"/>
  <polygon class="cls-3" points="294.74 213.72 331.49 192.63 331.49 157.37 294.74 178.55 294.74 213.72"/>
  <g>
    <polygon class="cls-4" points="299.65 205.63 300.75 205 300.75 180.53 299.65 181.16 299.65 205.63"/>
    <polyline class="cls-4" points="326.46 166.07 326.46 190.54 325.36 191.17 325.36 166.7"/>
    <polygon class="cls-4" points="301.35 203.04 301.78 202.8 301.78 179.97 301.35 180.22 301.35 203.04"/>
    <polygon class="cls-4" points="303.09 202.05 304.41 201.3 304.41 178.47 303.09 179.23 303.09 202.05"/>
    <polygon class="cls-4" points="305.58 200.64 306.9 199.88 306.9 177.06 305.58 177.82 305.58 200.64"/>
    <polygon class="cls-4" points="307.67 199.47 309.77 198.27 309.77 175.44 307.67 176.65 307.67 199.47"/>
    <polygon class="cls-4" points="311.25 197.45 311.67 197.21 311.67 174.39 311.25 174.63 311.25 197.45"/>
    <polygon class="cls-4" points="312.98 196.47 314.3 195.71 314.3 172.89 312.98 173.65 312.98 196.47"/>
    <polygon class="cls-4" points="315.48 195.05 316.8 194.3 316.8 171.47 315.48 172.23 315.48 195.05"/>
    <polygon class="cls-4" points="317.56 193.88 319.66 192.68 319.66 169.85 317.56 171.06 317.56 193.88"/>
    <polygon class="cls-4" points="321.02 191.96 321.45 191.72 321.45 168.9 321.02 169.14 321.02 191.96"/>
    <polygon class="cls-4" points="322.76 190.98 324.08 190.22 324.08 167.39 322.76 168.15 322.76 190.98"/>
  </g>
  <g>
    <path class="cls-3" d="M79.78,273.43h24.95v8.51h-35.49v-45.84h34.64v8.51h-24.1v28.81ZM79,254.51h22.07v8.32h-22.07v-8.32Z"/>
    <path class="cls-3" d="M124.05,282.47c-3.01,0-5.89-.36-8.64-1.08-2.75-.72-4.96-1.63-6.61-2.72l3.34-7.27c1.66.96,3.59,1.76,5.8,2.39,2.2.63,4.38.95,6.52.95,2.36,0,4.03-.28,5.01-.85.98-.57,1.47-1.35,1.47-2.36,0-.83-.38-1.45-1.15-1.87-.76-.41-1.77-.73-3.01-.95-1.24-.22-2.63-.44-4.16-.65-1.53-.22-3.05-.52-4.55-.92-1.51-.39-2.9-.95-4.19-1.67-1.29-.72-2.31-1.71-3.08-2.98-.76-1.27-1.15-2.9-1.15-4.91,0-2.23.65-4.2,1.96-5.93,1.31-1.72,3.16-3.07,5.57-4.03,2.4-.96,5.3-1.44,8.71-1.44,2.44,0,4.9.27,7.37.82,2.47.55,4.55,1.3,6.25,2.26l-3.47,7.27c-1.66-.96-3.35-1.64-5.08-2.03-1.73-.39-3.37-.59-4.94-.59-2.36,0-4.06.31-5.11.92-1.05.61-1.57,1.4-1.57,2.36,0,.87.39,1.54,1.18,2,.79.46,1.81.8,3.08,1.02,1.27.22,2.66.44,4.19.65,1.53.22,3.03.52,4.52.92,1.48.39,2.87.95,4.16,1.67,1.29.72,2.31,1.71,3.08,2.98.76,1.27,1.15,2.9,1.15,4.91,0,2.14-.65,4.05-1.96,5.73-1.31,1.68-3.2,3-5.66,3.96-2.47.96-5.47,1.44-9,1.44Z"/>
    <path class="cls-3" d="M142.78,255.36v-7.86h24.43v7.86h-24.43ZM161.38,282.47c-4.15,0-7.38-1.06-9.69-3.18-2.31-2.12-3.47-5.27-3.47-9.46v-30.91h10.28v30.71c0,1.48.38,2.64,1.15,3.47.76.83,1.8,1.24,3.11,1.24,1.66,0,3.06-.44,4.19-1.31l2.68,7.2c-1,.74-2.24,1.3-3.7,1.67-1.46.37-2.98.56-4.55.56Z"/>
    <path class="cls-3" d="M191.04,282.47c-3.71,0-7.02-.79-9.92-2.36-2.9-1.57-5.18-3.72-6.84-6.45-1.66-2.73-2.49-5.84-2.49-9.33s.83-6.67,2.49-9.4c1.66-2.73,3.94-4.87,6.84-6.42,2.9-1.55,6.21-2.32,9.92-2.32s7.09.78,10.02,2.32c2.92,1.55,5.22,3.69,6.88,6.42,1.66,2.73,2.49,5.86,2.49,9.4s-.83,6.66-2.49,9.36c-1.66,2.71-3.95,4.85-6.88,6.42-2.93,1.57-6.26,2.36-10.02,2.36ZM191.04,274.09c1.75,0,3.28-.38,4.62-1.15,1.33-.76,2.4-1.89,3.21-3.37.81-1.48,1.21-3.23,1.21-5.24s-.4-3.8-1.21-5.24c-.81-1.44-1.88-2.54-3.21-3.31-1.33-.76-2.85-1.15-4.55-1.15s-3.23.38-4.58,1.15c-1.35.76-2.43,1.87-3.24,3.31-.81,1.44-1.21,3.19-1.21,5.24s.4,3.75,1.21,5.24c.81,1.48,1.89,2.61,3.24,3.37,1.35.76,2.86,1.15,4.52,1.15Z"/>
    <path class="cls-3" d="M232.23,282.47c-3.32,0-6.31-.75-8.97-2.26-2.66-1.51-4.76-3.6-6.29-6.29-1.53-2.68-2.29-5.88-2.29-9.59s.76-6.85,2.29-9.56c1.53-2.71,3.62-4.81,6.29-6.32,2.66-1.51,5.65-2.26,8.97-2.26,3.1,0,5.75.66,7.96,1.96,2.2,1.31,3.9,3.3,5.07,5.96,1.18,2.66,1.77,6.07,1.77,10.22s-.61,7.5-1.83,10.18c-1.22,2.69-2.95,4.68-5.17,5.99-2.23,1.31-4.82,1.96-7.79,1.96ZM233.93,274.09c1.7,0,3.23-.39,4.58-1.18,1.35-.79,2.43-1.91,3.24-3.37.81-1.46,1.21-3.2,1.21-5.21s-.4-3.8-1.21-5.24c-.81-1.44-1.89-2.54-3.24-3.31-1.35-.76-2.88-1.15-4.58-1.15s-3.17.38-4.52,1.15c-1.35.76-2.43,1.87-3.24,3.31-.81,1.44-1.21,3.19-1.21,5.24s.4,3.74,1.21,5.21c.81,1.46,1.89,2.59,3.24,3.37,1.35.79,2.86,1.18,4.52,1.18ZM242.77,294.65v-19.84l.66-10.41-.2-10.48v-7.2h9.76v47.93h-10.22Z"/>
    <path class="cls-3" d="M285.27,282.73c-3.62,0-6.96-.58-10.02-1.74-3.06-1.16-5.7-2.8-7.92-4.94-2.23-2.14-3.96-4.65-5.21-7.53-1.24-2.88-1.87-6.05-1.87-9.49s.62-6.61,1.87-9.5c1.24-2.88,3-5.39,5.27-7.53,2.27-2.14,4.93-3.79,7.99-4.94,3.06-1.16,6.42-1.74,10.08-1.74,4.06,0,7.72.68,10.97,2.03,3.25,1.35,5.99,3.32,8.22,5.89l-6.75,6.29c-1.7-1.79-3.54-3.11-5.5-3.96-1.96-.85-4.13-1.28-6.48-1.28-2.18,0-4.19.36-6.02,1.08-1.83.72-3.42,1.73-4.75,3.05-1.33,1.31-2.36,2.86-3.08,4.65-.72,1.79-1.08,3.78-1.08,5.96s.36,4.05,1.08,5.86c.72,1.81,1.75,3.37,3.08,4.68,1.33,1.31,2.9,2.34,4.71,3.08,1.81.74,3.81,1.11,5.99,1.11s4.14-.35,6.12-1.05c1.99-.7,3.92-1.86,5.8-3.47l6.02,7.66c-2.53,1.92-5.44,3.37-8.71,4.35-3.27.98-6.55,1.47-9.82,1.47ZM294.11,275.53v-17.22h9.69v18.6l-9.69-1.38Z"/>
    <path class="cls-3" d="M335.89,282.73c-3.62,0-6.96-.59-10.02-1.77-3.06-1.18-5.72-2.84-7.99-4.98-2.27-2.14-4.03-4.65-5.27-7.53-1.24-2.88-1.87-6.02-1.87-9.43s.62-6.6,1.87-9.46c1.24-2.86,3-5.36,5.27-7.5,2.27-2.14,4.92-3.8,7.96-4.98,3.03-1.18,6.36-1.77,9.99-1.77s6.95.58,9.99,1.74c3.03,1.16,5.69,2.81,7.96,4.94,2.27,2.14,4.03,4.65,5.27,7.53,1.24,2.88,1.87,6.05,1.87,9.5s-.62,6.56-1.87,9.46c-1.24,2.9-3,5.43-5.27,7.56-2.27,2.14-4.92,3.79-7.96,4.94-3.03,1.16-6.34,1.74-9.92,1.74ZM335.83,273.76c2.05,0,3.94-.36,5.66-1.08,1.72-.72,3.24-1.75,4.55-3.08,1.31-1.33,2.32-2.88,3.05-4.65.72-1.77,1.08-3.74,1.08-5.93s-.36-4.16-1.08-5.93c-.72-1.77-1.73-3.32-3.05-4.65-1.31-1.33-2.83-2.36-4.55-3.08-1.73-.72-3.61-1.08-5.66-1.08s-3.95.36-5.7,1.08c-1.75.72-3.26,1.75-4.55,3.08-1.29,1.33-2.29,2.88-3.01,4.65-.72,1.77-1.08,3.74-1.08,5.93s.36,4.16,1.08,5.93c.72,1.77,1.72,3.32,3.01,4.65,1.29,1.33,2.8,2.36,4.55,3.08,1.75.72,3.64,1.08,5.7,1.08Z"/>
    <path class="cls-3" d="M381.14,281.95l-19.84-45.84h11.53l17.29,40.6h-6.75l17.55-40.6h10.54l-19.84,45.84h-10.48Z"/>
  </g>
  <polygon class="cls-2" points="183.28 228.97 194.26 228.97 194.26 175.09 183.28 168.75 183.28 228.97"/>
</svg>