<?xml version="1.0" encoding="UTF-8"?>
<svg id="Camada_1" data-name="Camada 1" xmlns="http://www.w3.org/2000/svg" viewBox="0 0 500 380">
  <defs>
    <style>
      .cls-1 {
        fill: #999;
      }

      .cls-1, .cls-2, .cls-3 {
        stroke-width: 0px;
      }

      .cls-2 {
        fill: #4b4b4b;
      }

      .cls-3 {
        fill: #bcbcbc;
      }
    </style>
  </defs>
  <g>
    <g>
      <path class="cls-1" d="M303.56,231.01c-.37.25-.74.49-1.13.72-.64.38-1.29.73-1.94,1.05,1.02-.61,2.01-1.23,3-1.87l.07.1Z"/>
      <path class="cls-1" d="M277.12,59.93c6.84,11.42,3.14,26.22-8.28,33.06-3.81,2.28-8,3.39-12.14,3.42-1.02.01-2.04-.04-3.05-.16,0,0-1.37-.3-2.07-.34-9.73-.46-19.69,1.83-28.68,7.17l-.39.24c-25.26,15.25-42.62,36.66-48.04,56.47-3.06,11.16-2.32,21.81,2.92,30.57,3.63,6.05,9.07,10.63,15.8,13.72,20.32,9.35,52.45,5.24,82.22-12.47l.39-.24c.19-.11.37-.22.55-.34l.09.14c.39-.27.81-.54,1.22-.79,11.41-6.84,26.21-3.13,33.05,8.28,6.2,10.35,3.74,23.48-5.28,30.94t-.01,0c-.58.5-1.21.96-1.86,1.39l-.07-.1c-.99.64-1.99,1.26-3,1.87l-.07.04c-47.21,28.29-108.42,12.96-136.72-34.26-28.29-47.21-12.96-108.42,34.26-136.72,19.33-11.58,41.01-15.85,61.81-13.61l-.03.22c6.98.96,13.48,4.97,17.39,11.48Z"/>
    </g>
    <path class="cls-3" d="M275.4,191.61c-29.77,17.71-61.91,21.82-82.22,12.47-6.73-3.09-12.17-7.66-15.8-13.72-5.25-8.75-5.98-19.41-2.92-30.57,5.42-19.81,22.78-41.22,48.04-56.47-24.19,14.68-32,46.15-17.44,70.45,14.56,24.3,46,32.24,70.35,17.83Z"/>
    <path class="cls-3" d="M346.12,121.24c1.05,1.75,1.85,3.59,2.4,5.47.39,1.9.72,3.81.98,5.71,5.3,37.64-11.33,76.5-45.22,98.04,9.7-7.34,12.52-20.98,6.12-31.66-6.56-10.94-20.4-14.82-31.61-9.14-.51.26-1.01.54-1.52.84-.35.21-.71.44-1.05.66l-.05.03c-11.21,5.96-25.36,2.12-31.96-8.88-3.41-5.68-4.18-12.24-2.68-18.22,1.5-5.99,5.27-11.4,10.96-14.81l60.6-36.32c11.36-6.81,26.22-3.08,33.03,8.28Z"/>
  </g>
  <g>
    <g>
      <path class="cls-2" d="M155.32,301.86c.77.77,1.16,1.77,1.16,3.01,0,6.05,0,12.1,0,18.14,0,2.59-.33,4.41-.99,5.47-.66,1.06-2.01,1.9-4.05,2.53-2.2.74-4.76,1.3-7.68,1.68-2.92.38-5.73.54-8.42.47-6-.15-11.2-1.49-15.61-3.99-4.4-2.5-7.77-6.03-10.11-10.58-2.34-4.55-3.51-9.93-3.51-16.15s1.17-11.39,3.51-15.87c2.34-4.48,5.66-7.92,9.95-10.32,4.29-2.4,9.36-3.62,15.19-3.62,7.76,0,14.12,2.12,19.08,6.41.66.62,1.14,1.24,1.45,1.86.3.62.45,1.35.45,2.2,0,1.24-.33,2.28-.99,3.12-.66.84-1.46,1.26-2.4,1.25-.61,0-1.16-.1-1.65-.3-.49-.2-1.07-.52-1.73-.98-2.42-1.75-4.68-2.98-6.77-3.69-2.09-.71-4.46-1.07-7.1-1.07-6-.02-10.53,1.76-13.58,5.31-3.06,3.56-4.58,8.84-4.58,15.87,0,14.37,6.27,21.74,18.82,22.03,3.74.08,7.49-.37,11.23-1.37,0-4.96,0-9.92,0-14.89-3.11-.04-6.22-.08-9.33-.13-1.32-.02-2.35-.37-3.1-1.05-.74-.68-1.11-1.63-1.11-2.86,0-1.23.37-2.17,1.11-2.83.74-.66,1.78-.98,3.1-.97,4.87.05,9.74.11,14.62.15,1.27.01,2.28.4,3.06,1.17Z"/>
      <path class="cls-2" d="M167.33,331.74c-.91-.92-1.36-2.2-1.36-3.83,0-16.45,0-32.9,0-49.35,0-1.64.45-2.9,1.36-3.81.91-.9,2.16-1.36,3.76-1.35,9.94,0,19.87,0,29.81,0,1.6,0,2.84.37,3.72,1.11.88.74,1.32,1.8,1.32,3.16,0,1.42-.44,2.52-1.32,3.29-.88.77-2.12,1.15-3.72,1.15-8.18-.01-16.35-.03-24.53-.05,0,5.49,0,10.98,0,16.47,7.63.05,15.25.1,22.88.13,1.6,0,2.83.39,3.72,1.13.88.75,1.32,1.83,1.32,3.25,0,1.37-.44,2.42-1.32,3.15-.88.74-2.12,1.1-3.72,1.09-7.63-.05-15.25-.11-22.88-.17,0,5.83,0,11.66,0,17.49,8.18.11,16.35.2,24.53.28,1.6.02,2.84.41,3.72,1.19.88.78,1.32,1.88,1.32,3.3,0,1.36-.44,2.42-1.32,3.15-.88.73-2.12,1.09-3.72,1.07-9.94-.1-19.88-.24-29.81-.41-1.6-.03-2.85-.5-3.76-1.42Z"/>
      <path class="cls-2" d="M287,273.75c.85-.57,1.8-.85,2.85-.86,1.32,0,2.46.43,3.43,1.28.96.85,1.45,1.99,1.45,3.42,0,.51-.14,1.25-.41,2.22-5.92,16.95-11.83,33.94-17.75,50.95-.44,1.15-1.17,2.03-2.19,2.67-1.02.63-2.13.95-3.35.96-1.21,0-2.34-.31-3.39-.93-1.05-.62-1.76-1.51-2.15-2.65-4.57-13.44-9.14-26.89-13.71-40.34-4.65,13.46-9.31,26.91-13.96,40.35-.44,1.14-1.17,2.03-2.19,2.65-1.02.62-2.13.93-3.34.93-1.21,0-2.33-.32-3.35-.96-1.02-.63-1.72-1.52-2.11-2.66-5.92-17.01-11.84-34.01-17.75-50.96-.28-.86-.41-1.59-.41-2.22,0-1.42.51-2.56,1.53-3.42,1.02-.85,2.22-1.28,3.59-1.28,1.1,0,2.09.29,2.97.86.88.57,1.51,1.43,1.9,2.57,4.68,13.95,9.36,27.92,14.04,41.89,4.82-13.86,9.64-27.75,14.45-41.63.38-1.14,1.02-2.04,1.9-2.7.88-.66,1.84-.99,2.89-.99,1.05,0,2.02.33,2.93.99.91.66,1.55,1.59,1.94,2.78,4.68,14.03,9.36,28.05,14.04,42.05,4.76-14.15,9.52-28.28,14.29-42.4.38-1.14,1-2,1.86-2.57Z"/>
      <path class="cls-2" d="M302.69,332.17c-.91-.9-1.36-2.18-1.36-3.82,0-16.58,0-33.16,0-49.74,0-1.65.45-2.93,1.36-3.84.91-.91,2.16-1.37,3.76-1.36,9.94,0,19.87,0,29.81,0,1.6,0,2.83.36,3.72,1.1.88.73,1.32,1.77,1.32,3.12,0,1.41-.44,2.49-1.32,3.26-.88.76-2.12,1.15-3.72,1.15-8.18.02-16.35.04-24.53.06,0,5.51,0,11.01,0,16.52,7.63-.04,15.25-.09,22.88-.15,1.6-.01,2.83.35,3.72,1.07.88.73,1.32,1.79,1.32,3.2,0,1.35-.44,2.4-1.32,3.14-.88.74-2.12,1.12-3.72,1.14-7.62.08-15.25.15-22.88.21,0,5.85,0,11.69,0,17.54,8.18-.09,16.35-.2,24.53-.34,1.6-.03,2.84.34,3.72,1.08.88.75,1.32,1.82,1.32,3.23,0,1.35-.44,2.4-1.32,3.15-.88.75-2.12,1.14-3.72,1.17-9.94.18-19.87.34-29.81.46-1.6.02-2.85-.42-3.76-1.32Z"/>
      <path class="cls-2" d="M391.13,306.71c1.84,2.45,2.77,5.46,2.77,9.03,0,4.96-1.78,8.88-5.33,11.79-3.55,2.91-8.44,4.47-14.66,4.64-7.1.19-14.2.36-21.3.52-1.6.04-2.85-.39-3.76-1.27-.91-.88-1.36-2.13-1.36-3.76,0-16.38,0-32.75,0-49.13,0-1.63.45-2.89,1.36-3.79.91-.9,2.16-1.35,3.76-1.35,6.83,0,13.65,0,20.48,0,6.06,0,10.8,1.34,14.25,4.01,3.44,2.67,5.16,6.39,5.16,11.19,0,3.09-.81,5.76-2.44,8.05-1.62,2.28-3.87,3.97-6.73,5.06,3.36.89,5.96,2.57,7.8,5.01ZM357.89,298.32c4.49-.04,8.97-.09,13.46-.14,7.32-.08,10.98-2.88,10.98-8.35,0-2.77-.91-4.81-2.73-6.13-1.82-1.32-4.57-1.98-8.26-1.96-4.49.02-8.97.03-13.46.05,0,5.51,0,11.03,0,16.54ZM381.18,321.59c1.76-1.43,2.64-3.6,2.64-6.54,0-2.93-.9-5.1-2.68-6.51-1.79-1.41-4.58-2.09-8.38-2.03-4.95.07-9.91.15-14.86.21,0,5.82,0,11.64,0,17.46,4.95-.1,9.91-.21,14.86-.32,3.85-.09,6.66-.85,8.42-2.28Z"/>
    </g>
    <g>
      <path class="cls-1" d="M155.32,301.86c.77.77,1.16,1.77,1.16,3.01,0,6.05,0,12.1,0,18.14,0,2.59-.33,4.41-.99,5.47-.66,1.06-2.01,1.9-4.05,2.53-2.2.74-4.76,1.3-7.68,1.68-2.92.38-5.73.54-8.42.47-6-.15-11.2-1.49-15.61-3.99-4.4-2.5-7.77-6.03-10.11-10.58-2.34-4.55-3.51-9.93-3.51-16.15s1.17-11.39,3.51-15.87c2.34-4.48,5.66-7.92,9.95-10.32,4.29-2.4,9.36-3.62,15.19-3.62,7.76,0,14.12,2.12,19.08,6.41.66.62,1.14,1.24,1.45,1.86.3.62.45,1.35.45,2.2,0,1.24-.33,2.28-.99,3.12-.66.84-1.46,1.26-2.4,1.25-.61,0-1.16-.1-1.65-.3-.49-.2-1.07-.52-1.73-.98-2.42-1.75-4.68-2.98-6.77-3.69-2.09-.71-4.46-1.07-7.1-1.07-6-.02-10.53,1.76-13.58,5.31-3.06,3.56-4.58,8.84-4.58,15.87,0,14.37,6.27,21.74,18.82,22.03,3.74.08,7.49-.37,11.23-1.37,0-4.96,0-9.92,0-14.89-3.11-.04-6.22-.08-9.33-.13-1.32-.02-2.35-.37-3.1-1.05-.74-.68-1.11-1.63-1.11-2.86,0-1.23.37-2.17,1.11-2.83.74-.66,1.78-.98,3.1-.97,4.87.05,9.74.11,14.62.15,1.27.01,2.28.4,3.06,1.17Z"/>
      <path class="cls-1" d="M167.33,331.74c-.91-.92-1.36-2.2-1.36-3.83,0-16.45,0-32.9,0-49.35,0-1.64.45-2.9,1.36-3.81.91-.9,2.16-1.36,3.76-1.35,9.94,0,19.87,0,29.81,0,1.6,0,2.84.37,3.72,1.11.88.74,1.32,1.8,1.32,3.16,0,1.42-.44,2.52-1.32,3.29-.88.77-2.12,1.15-3.72,1.15-8.18-.01-16.35-.03-24.53-.05,0,5.49,0,10.98,0,16.47,7.63.05,15.25.1,22.88.13,1.6,0,2.83.39,3.72,1.13.88.75,1.32,1.83,1.32,3.25,0,1.37-.44,2.42-1.32,3.15-.88.74-2.12,1.1-3.72,1.09-7.63-.05-15.25-.11-22.88-.17,0,5.83,0,11.66,0,17.49,8.18.11,16.35.2,24.53.28,1.6.02,2.84.41,3.72,1.19.88.78,1.32,1.88,1.32,3.3,0,1.36-.44,2.42-1.32,3.15-.88.73-2.12,1.09-3.72,1.07-9.94-.1-19.88-.24-29.81-.41-1.6-.03-2.85-.5-3.76-1.42Z"/>
      <path class="cls-1" d="M287,273.75c.85-.57,1.8-.85,2.85-.86,1.32,0,2.46.43,3.43,1.28.96.85,1.45,1.99,1.45,3.42,0,.51-.14,1.25-.41,2.22-5.92,16.95-11.83,33.94-17.75,50.95-.44,1.15-1.17,2.03-2.19,2.67-1.02.63-2.13.95-3.35.96-1.21,0-2.34-.31-3.39-.93-1.05-.62-1.76-1.51-2.15-2.65-4.57-13.44-9.14-26.89-13.71-40.34-4.65,13.46-9.31,26.91-13.96,40.35-.44,1.14-1.17,2.03-2.19,2.65-1.02.62-2.13.93-3.34.93-1.21,0-2.33-.32-3.35-.96-1.02-.63-1.72-1.52-2.11-2.66-5.92-17.01-11.84-34.01-17.75-50.96-.28-.86-.41-1.59-.41-2.22,0-1.42.51-2.56,1.53-3.42,1.02-.85,2.22-1.28,3.59-1.28,1.1,0,2.09.29,2.97.86.88.57,1.51,1.43,1.9,2.57,4.68,13.95,9.36,27.92,14.04,41.89,4.82-13.86,9.64-27.75,14.45-41.63.38-1.14,1.02-2.04,1.9-2.7.88-.66,1.84-.99,2.89-.99,1.05,0,2.02.33,2.93.99.91.66,1.55,1.59,1.94,2.78,4.68,14.03,9.36,28.05,14.04,42.05,4.76-14.15,9.52-28.28,14.29-42.4.38-1.14,1-2,1.86-2.57Z"/>
      <path class="cls-1" d="M302.69,332.17c-.91-.9-1.36-2.18-1.36-3.82,0-16.58,0-33.16,0-49.74,0-1.65.45-2.93,1.36-3.84.91-.91,2.16-1.37,3.76-1.36,9.94,0,19.87,0,29.81,0,1.6,0,2.83.36,3.72,1.1.88.73,1.32,1.77,1.32,3.12,0,1.41-.44,2.49-1.32,3.26-.88.76-2.12,1.15-3.72,1.15-8.18.02-16.35.04-24.53.06,0,5.51,0,11.01,0,16.52,7.63-.04,15.25-.09,22.88-.15,1.6-.01,2.83.35,3.72,1.07.88.73,1.32,1.79,1.32,3.2,0,1.35-.44,2.4-1.32,3.14-.88.74-2.12,1.12-3.72,1.14-7.62.08-15.25.15-22.88.21,0,5.85,0,11.69,0,17.54,8.18-.09,16.35-.2,24.53-.34,1.6-.03,2.84.34,3.72,1.08.88.75,1.32,1.82,1.32,3.23,0,1.35-.44,2.4-1.32,3.15-.88.75-2.12,1.14-3.72,1.17-9.94.18-19.87.34-29.81.46-1.6.02-2.85-.42-3.76-1.32Z"/>
      <path class="cls-1" d="M391.13,306.71c1.84,2.45,2.77,5.46,2.77,9.03,0,4.96-1.78,8.88-5.33,11.79-3.55,2.91-8.44,4.47-14.66,4.64-7.1.19-14.2.36-21.3.52-1.6.04-2.85-.39-3.76-1.27-.91-.88-1.36-2.13-1.36-3.76,0-16.38,0-32.75,0-49.13,0-1.63.45-2.89,1.36-3.79.91-.9,2.16-1.35,3.76-1.35,6.83,0,13.65,0,20.48,0,6.06,0,10.8,1.34,14.25,4.01,3.44,2.67,5.16,6.39,5.16,11.19,0,3.09-.81,5.76-2.44,8.05-1.62,2.28-3.87,3.97-6.73,5.06,3.36.89,5.96,2.57,7.8,5.01ZM357.89,298.32c4.49-.04,8.97-.09,13.46-.14,7.32-.08,10.98-2.88,10.98-8.35,0-2.77-.91-4.81-2.73-6.13-1.82-1.32-4.57-1.98-8.26-1.96-4.49.02-8.97.03-13.46.05,0,5.51,0,11.03,0,16.54ZM381.18,321.59c1.76-1.43,2.64-3.6,2.64-6.54,0-2.93-.9-5.1-2.68-6.51-1.79-1.41-4.58-2.09-8.38-2.03-4.95.07-9.91.15-14.86.21,0,5.82,0,11.64,0,17.46,4.95-.1,9.91-.21,14.86-.32,3.85-.09,6.66-.85,8.42-2.28Z"/>
    </g>
  </g>
</svg>