<?xml version="1.0" encoding="UTF-8"?>
<svg id="Camada_2" data-name="Camada 2" xmlns="http://www.w3.org/2000/svg" viewBox="0 0 500 300">
  <defs>
    <style>
      .cls-1 {
        fill: #f9e255;
      }

      .cls-2 {
        fill: #e83f5b;
      }

      .cls-3 {
        fill: #5acc3a;
      }

      .cls-4 {
        fill: #4da9ee;
      }
    </style>
  </defs>
  <path class="cls-1" d="m317.14,190.48h12.51c1.02,0,1.84.83,1.84,1.84v30h-16.2v-30c0-1.02.83-1.84,1.84-1.84Z"/>
  <path class="cls-3" d="m339.16,178.56h9.47c1.86,0,3.36,1.51,3.36,3.36v34.6c0,3.21-2.6,5.81-5.81,5.81h-10.39v-40.41c0-1.86,1.51-3.36,3.36-3.36Z"/>
  <path class="cls-2" d="m297.59,202.76h11.11c1.27,0,2.29,1.03,2.29,2.29v17.27h-10.66c-3.06,0-5.54-2.48-5.54-5.54v-11.23c0-1.54,1.25-2.8,2.8-2.8Z"/>
  <g>
    <path class="cls-4" d="m159.41,153.73c-1.49,0-2.9-.89-3.51-2.34-.21-.5-5.48-12.54-17.72-12.54-2.1,0-3.8-1.7-3.8-3.8s1.7-3.8,3.8-3.8c4.97,0,9.1,1.35,12.47,3.3l-12.87-41.41-21.19,57.84c-.72,1.97-2.9,2.99-4.88,2.26-1.97-.72-2.98-2.91-2.26-4.88l25.05-68.39c.56-1.53,2.04-2.6,3.66-2.49,1.63.04,3.05,1.11,3.53,2.67l21.33,68.65c.6,1.94-.42,4.01-2.33,4.7-.43.16-.86.23-1.29.23Z"/>
    <path class="cls-4" d="m300.13,153.8h-34c-2.1,0-3.8-1.7-3.8-3.8v-68.72c0-2.1,1.7-3.8,3.8-3.8s3.8,1.7,3.8,3.8v64.92h30.2c2.1,0,3.8,1.7,3.8,3.8s-1.7,3.8-3.8,3.8Z"/>
    <path class="cls-4" d="m320.36,153.8c-2.1,0-3.8-1.7-3.8-3.8v-68.72c0-2.1,1.7-3.8,3.8-3.8s3.8,1.7,3.8,3.8v68.72c0,2.1-1.7,3.8-3.8,3.8Z"/>
    <path class="cls-4" d="m248.86,153.2c-1.49,0-2.9-.89-3.51-2.34-.21-.5-5.47-12.54-17.72-12.54-2.1,0-3.8-1.7-3.8-3.8s1.7-3.8,3.8-3.8c4.97,0,9.1,1.35,12.47,3.3l-12.87-41.41-21.19,57.84c-.72,1.97-2.91,2.99-4.88,2.26-1.97-.72-2.98-2.9-2.26-4.88l25.05-68.39c.56-1.53,2.05-2.56,3.66-2.49,1.63.04,3.05,1.11,3.53,2.67l21.33,68.65c.6,1.94-.43,4.01-2.33,4.7-.43.16-.86.23-1.29.23Z"/>
    <path class="cls-4" d="m180.74,153.2s-.06,0-.1,0c-1.63-.04-3.05-1.11-3.53-2.67l-21.33-68.65c-.6-1.94.43-4.01,2.33-4.7,1.91-.69,4.02.24,4.8,2.11.21.5,5.47,12.54,17.72,12.54,2.1,0,3.8,1.7,3.8,3.8s-1.7,3.8-3.8,3.8c-4.97,0-9.1-1.35-12.47-3.3l12.87,41.41,21.19-57.84c.72-1.97,2.91-2.99,4.88-2.26,1.97.72,2.98,2.91,2.26,4.88l-25.05,68.39c-.55,1.5-1.98,2.49-3.57,2.49Z"/>
    <path class="cls-4" d="m386.98,153.2c-1.49,0-2.9-.89-3.51-2.34-.21-.5-5.47-12.54-17.72-12.54-2.1,0-3.8-1.7-3.8-3.8s1.7-3.8,3.8-3.8c4.97,0,9.1,1.35,12.47,3.3l-12.87-41.41-21.19,57.84c-.72,1.97-2.91,2.99-4.88,2.26-1.97-.72-2.98-2.9-2.26-4.88l25.05-68.39c.56-1.53,2.04-2.56,3.66-2.49,1.63.04,3.05,1.11,3.53,2.67l21.33,68.65c.6,1.94-.42,4.01-2.33,4.7-.43.16-.86.23-1.29.23Z"/>
  </g>
  <g>
    <path class="cls-4" d="m219.83,164.18h-17.92c-2.02,0-3.66,1.69-3.66,3.77v51.28c0,2.07,1.64,3.77,3.66,3.77h18.78c4.86,0,20.74-2.13,20.74-29.46,0-19.27-10.86-29.36-21.6-29.36Zm.73,50.49h-15.26v-42.16h14.53c7.22,0,14.53,7.22,14.53,21.04s-5.03,21.12-13.8,21.12Z"/>
    <path class="cls-4" d="m192.39,219.18c0,2.07-1.65,3.76-3.66,3.76h-35.87c-2.02,0-3.67-1.69-3.67-3.76v-51.18c0-2.09,1.65-3.79,3.67-3.79h35.87c1.45,0,2.76.89,3.35,2.25.58,1.34.34,2.91-.61,4.02-.02.03-3.6,4.65-3.6,15.06,0,2.07-1.65,3.76-3.66,3.76s-3.66-1.69-3.66-3.76c0-5.11.73-9.74,2.17-13.78h-26.2v18.06h19.39c2.01,0,3.64,1.69,3.64,3.77s-1.63,3.76-3.64,3.76h-19.39v18.06h32.22c2.02,0,3.66,1.69,3.66,3.77Z"/>
    <path class="cls-4" d="m289.39,167.95v25.46c0,9.6,0,29.6-20.99,29.6-.17,0-.32-.01-.46-.03-.24.05-.48.07-.71.07-20.99,0-20.99-19.98-20.99-29.59v-25.46c0-1.4.75-2.67,1.95-3.33.53-.28,1.12-.43,1.71-.43.76,0,1.48.23,2.1.68.08.06,6.96,4.93,15.23,4.93,2.02,0,3.66,1.69,3.66,3.77s-1.64,3.77-3.66,3.77c-5.42,0-10.28-1.59-13.67-3.11v19.18c0,12.07,1.03,22.06,13.67,22.06.15,0,.29.01.43.03.24-.06.49-.08.74-.08,12.65,0,13.67-9.99,13.67-22.06v-25.46c0-2.07,1.64-3.76,3.66-3.76s3.66,1.69,3.66,3.76Z"/>
  </g>
</svg>