<?xml version="1.0" encoding="UTF-8"?>
<svg id="Camada_7" data-name="Camada 7" xmlns="http://www.w3.org/2000/svg" viewBox="0 0 566.93 566.93">
  <defs>
    <style>
      .cls-1 {
        fill: none;
        stroke: #6d8a61;
        stroke-miterlimit: 10;
        stroke-width: 2px;
      }
    </style>
  </defs>
  <path class="cls-1" d="m30.61,152.15v371.67c0,3.69,1.14,7.17,3.16,10.26,4.87,7.47,14.92,12.6,26.51,12.6h446.35c11.6,0,21.64-5.12,26.51-12.6,2.02-3.09,3.16-6.57,3.16-10.26V152.15H30.61Zm423.58,37.17c4.07-4.07,9.7-6.59,15.91-6.59s11.84,2.51,15.91,6.59c4.07,4.07,6.59,9.7,6.59,15.91s-2.51,11.84-6.59,15.91-9.7,6.59-15.91,6.59c-12.42,0-22.5-10.07-22.5-22.5,0-6.21,2.51-11.84,6.59-15.91ZM137.49,484.49c0-6.21,2.51-11.84,6.59-15.91,4.07-4.06,9.7-6.59,15.91-6.59s11.84,2.52,15.91,6.59c4.07,4.07,6.59,9.7,6.59,15.91s-2.51,11.84-6.59,15.91c-4.07,4.06-9.7,6.59-15.91,6.59-12.42,0-22.5-10.07-22.5-22.5Zm186.93-71.2c0-6.21,2.52-11.84,6.59-15.91,4.07-4.06,9.7-6.59,15.91-6.59s11.84,2.52,15.91,6.59c4.06,4.07,6.59,9.7,6.59,15.91s-2.52,11.85-6.59,15.91c-4.07,4.07-9.7,6.59-15.91,6.59-12.42,0-22.5-10.06-22.5-22.5Zm61.31,0c0-6.21,2.51-11.84,6.59-15.91,4.07-4.06,9.7-6.59,15.91-6.59s11.84,2.52,15.91,6.59c4.07,4.07,6.59,9.7,6.59,15.91s-2.51,11.85-6.59,15.91c-4.07,4.07-9.7,6.59-15.91,6.59-12.42,0-22.5-10.06-22.5-22.5Zm68.46-154.62c4.07-4.07,9.7-6.59,15.91-6.59s11.84,2.51,15.91,6.59,6.59,9.7,6.59,15.91-2.51,11.84-6.59,15.91-9.7,6.59-15.91,6.59c-12.42,0-22.5-10.06-22.5-22.5,0-6.21,2.51-11.84,6.59-15.91Zm0,69.36c4.07-4.06,9.7-6.59,15.91-6.59s11.84,2.52,15.91,6.59c4.07,4.07,6.59,9.7,6.59,15.91s-2.51,11.84-6.59,15.91c-4.07,4.06-9.7,6.59-15.91,6.59-12.42,0-22.5-10.07-22.5-22.5,0-6.21,2.51-11.84,6.59-15.91Zm-.23,69.35c4.07-4.06,9.7-6.59,15.91-6.59s11.84,2.52,15.91,6.59c4.07,4.07,6.59,9.7,6.59,15.91s-2.51,11.85-6.59,15.91c-4.07,4.07-9.7,6.59-15.91,6.59-12.42,0-22.5-10.06-22.5-22.5,0-6.21,2.51-11.84,6.59-15.91Zm-61.36-208.06c4.07-4.07,9.7-6.59,15.91-6.59s11.84,2.51,15.91,6.59c4.06,4.07,6.59,9.7,6.59,15.91s-2.52,11.84-6.59,15.91c-4.07,4.07-9.7,6.59-15.91,6.59-12.42,0-22.5-10.07-22.5-22.5,0-6.21,2.52-11.84,6.59-15.91Zm-61.6,0c4.07-4.07,9.7-6.59,15.91-6.59s11.84,2.51,15.91,6.59c4.06,4.07,6.59,9.7,6.59,15.91s-2.52,11.84-6.59,15.91c-4.07,4.07-9.7,6.59-15.91,6.59-12.42,0-22.5-10.07-22.5-22.5,0-6.21,2.52-11.84,6.59-15.91Zm-61.59,0c4.07-4.07,9.7-6.59,15.91-6.59s11.84,2.51,15.91,6.59,6.59,9.7,6.59,15.91-2.51,11.84-6.59,15.91-9.7,6.59-15.91,6.59c-12.42,0-22.5-10.07-22.5-22.5,0-6.21,2.51-11.84,6.59-15.91Zm-61.6,0c4.07-4.07,9.7-6.59,15.91-6.59s11.84,2.51,15.91,6.59c4.07,4.07,6.59,9.7,6.59,15.91s-2.51,11.84-6.59,15.91c-4.07,4.07-9.7,6.59-15.91,6.59-12.42,0-22.5-10.07-22.5-22.5,0-6.21,2.51-11.84,6.59-15.91Zm-64.11,1.51c3.86-4.04,9.22-6.65,15.22-6.92l2.21-.1c12.8-.59,23.5,9.64,23.5,22.45,0,6.01-2.36,11.49-6.22,15.52-3.86,4.05-9.22,6.66-15.22,6.94l-2.2.1c-12.81.58-23.51-9.64-23.51-22.46,0-6.01,2.36-11.49,6.22-15.52Zm-59.07-1.51c4.07-4.07,9.7-6.59,15.91-6.59s11.84,2.51,15.91,6.59c4.06,4.07,6.59,9.7,6.59,15.91s-2.52,11.84-6.59,15.91c-4.07,4.07-9.7,6.59-15.91,6.59-12.42,0-22.5-10.07-22.5-22.5,0-6.21,2.52-11.84,6.59-15.91Zm0,69.35c4.07-4.07,9.7-6.59,15.91-6.59s11.84,2.51,15.91,6.59c4.06,4.07,6.59,9.7,6.59,15.91s-2.52,11.84-6.59,15.91c-4.07,4.07-9.7,6.59-15.91,6.59-12.42,0-22.5-10.06-22.5-22.5,0-6.21,2.52-11.84,6.59-15.91Zm0,69.36c4.07-4.06,9.7-6.59,15.91-6.59s11.84,2.52,15.91,6.59c4.06,4.07,6.59,9.7,6.59,15.91s-2.52,11.84-6.59,15.91c-4.07,4.06-9.7,6.59-15.91,6.59-12.42,0-22.5-10.07-22.5-22.5,0-6.21,2.52-11.84,6.59-15.91Zm0,69.35c4.07-4.06,9.7-6.59,15.91-6.59s11.84,2.52,15.91,6.59c4.06,4.07,6.59,9.7,6.59,15.91s-2.52,11.85-6.59,15.91c-4.07,4.07-9.7,6.59-15.91,6.59-12.42,0-22.5-10.06-22.5-22.5,0-6.21,2.52-11.84,6.59-15.91Zm0,69.04c4.07-4.07,9.7-6.59,15.91-6.59s11.84,2.51,15.91,6.59c4.06,4.07,6.59,9.7,6.59,15.91s-2.52,11.84-6.59,15.91c-4.07,4.07-9.7,6.59-15.91,6.59-12.42,0-22.5-10.07-22.5-22.5,0-6.21,2.52-11.84,6.59-15.91Z"/>
  <path class="cls-1" d="m536.31,63.14v59.34H30.61v-59.34c0-16.39,13.3-29.66,29.67-29.66h38.41v32.59c-3.64,2.7-5.99,7.04-5.99,11.91,0,8.19,6.62,14.84,14.84,14.84s14.82-6.65,14.82-14.84c0-4.4-1.91-8.36-4.96-11.07v-33.42h49.34v32.6c-3.62,2.7-5.97,7.02-5.97,11.9,0,8.19,6.62,14.84,14.84,14.84s14.82-6.65,14.82-14.84c0-4.56-2.05-8.64-5.29-11.36v-33.14h52.79v32.6c-3.62,2.7-5.97,7.02-5.97,11.9,0,8.19,6.62,14.84,14.84,14.84s14.82-6.65,14.82-14.84c0-4.42-1.94-8.39-5-11.11v-33.39h50.39v33.72c-2.86,2.7-4.64,6.54-4.64,10.77,0,8.19,6.62,14.84,14.84,14.84s14.82-6.65,14.82-14.84c0-4.87-2.35-9.2-5.97-11.9v-32.6h48.41v33.59c-2.94,2.7-4.79,6.6-4.79,10.91,0,8.19,6.64,14.84,14.84,14.84s14.84-6.65,14.84-14.84c0-4.87-2.35-9.21-5.99-11.91v-32.59h49.92v33.64c-2.91,2.7-4.74,6.57-4.74,10.86,0,8.19,6.62,14.84,14.82,14.84s14.84-6.65,14.84-14.84c0-4.87-2.35-9.2-5.97-11.9v-32.6h44.4c16.39,0,29.67,13.27,29.67,29.66Z"/>
  <rect class="cls-1" x="30.61" y="122.47" width="505.7" height="29.67"/>
  <g>
    <path class="cls-1" d="m123.05,205.24c0,6.21-2.52,11.84-6.59,15.91-4.07,4.07-9.7,6.59-15.91,6.59-12.42,0-22.5-10.07-22.5-22.5,0-6.21,2.52-11.84,6.59-15.91,4.07-4.07,9.7-6.59,15.91-6.59s11.84,2.51,15.91,6.59c4.06,4.07,6.59,9.7,6.59,15.91Z"/>
    <path class="cls-1" d="m184.65,206.26c0,6.01-2.36,11.49-6.22,15.52-3.86,4.05-9.22,6.66-15.22,6.94l-2.2.1c-12.81.58-23.51-9.64-23.51-22.46,0-6.01,2.36-11.49,6.22-15.52,3.86-4.04,9.22-6.65,15.22-6.92l2.21-.1c12.8-.59,23.5,9.64,23.5,22.45Z"/>
    <path class="cls-1" d="m246.23,205.24c0,6.21-2.51,11.84-6.59,15.91-4.07,4.07-9.7,6.59-15.91,6.59-12.42,0-22.5-10.07-22.5-22.5,0-6.21,2.51-11.84,6.59-15.91s9.7-6.59,15.91-6.59,11.84,2.51,15.91,6.59c4.07,4.07,6.59,9.7,6.59,15.91Z"/>
    <path class="cls-1" d="m307.83,205.24c0,6.21-2.51,11.84-6.59,15.91s-9.7,6.59-15.91,6.59c-12.42,0-22.5-10.07-22.5-22.5,0-6.21,2.51-11.84,6.59-15.91,4.07-4.07,9.7-6.59,15.91-6.59s11.84,2.51,15.91,6.59,6.59,9.7,6.59,15.91Z"/>
    <path class="cls-1" d="m369.42,205.24c0,6.21-2.52,11.84-6.59,15.91-4.07,4.07-9.7,6.59-15.91,6.59-12.42,0-22.5-10.07-22.5-22.5,0-6.21,2.52-11.84,6.59-15.91,4.07-4.07,9.7-6.59,15.91-6.59s11.84,2.51,15.91,6.59c4.06,4.07,6.59,9.7,6.59,15.91Z"/>
    <path class="cls-1" d="m431.02,205.24c0,6.21-2.52,11.84-6.59,15.91-4.07,4.07-9.7,6.59-15.91,6.59-12.42,0-22.5-10.07-22.5-22.5,0-6.21,2.52-11.84,6.59-15.91,4.07-4.07,9.7-6.59,15.91-6.59s11.84,2.51,15.91,6.59c4.06,4.07,6.59,9.7,6.59,15.91Z"/>
    <path class="cls-1" d="m492.6,205.24c0,6.21-2.51,11.84-6.59,15.91s-9.7,6.59-15.91,6.59c-12.42,0-22.5-10.07-22.5-22.5,0-6.21,2.51-11.84,6.59-15.91s9.7-6.59,15.91-6.59,11.84,2.51,15.91,6.59c4.07,4.07,6.59,9.7,6.59,15.91Z"/>
  </g>
  <g>
    <path class="cls-1" d="m123.05,274.58c0,6.21-2.52,11.84-6.59,15.91-4.07,4.07-9.7,6.59-15.91,6.59-12.42,0-22.5-10.06-22.5-22.5,0-6.21,2.52-11.84,6.59-15.91,4.07-4.07,9.7-6.59,15.91-6.59s11.84,2.51,15.91,6.59c4.06,4.07,6.59,9.7,6.59,15.91Z"/>
    <rect class="cls-1" x="139.65" y="252.09" width="45" height="45" rx="22.5" ry="22.5"/>
    <rect class="cls-1" x="201.24" y="252.09" width="45" height="45" rx="22.5" ry="22.5"/>
    <rect class="cls-1" x="262.83" y="252.09" width="45" height="45" rx="22.5" ry="22.5"/>
    <rect class="cls-1" x="324.42" y="252.09" width="45" height="45" rx="22.5" ry="22.5"/>
    <rect class="cls-1" x="386.01" y="252.09" width="45" height="45" rx="22.5" ry="22.5"/>
    <path class="cls-1" d="m492.6,274.58c0,6.21-2.51,11.84-6.59,15.91s-9.7,6.59-15.91,6.59c-12.42,0-22.5-10.06-22.5-22.5,0-6.21,2.51-11.84,6.59-15.91s9.7-6.59,15.91-6.59,11.84,2.51,15.91,6.59,6.59,9.7,6.59,15.91Z"/>
  </g>
  <g>
    <path class="cls-1" d="m123.05,343.94c0,6.21-2.52,11.84-6.59,15.91-4.57,4.56-11.09,7.18-18.2,6.47-10.53-1.04-19.06-9.56-20.1-20.1-.7-7.11,1.92-13.63,6.47-18.2,4.07-4.06,9.7-6.59,15.91-6.59s11.84,2.52,15.91,6.59c4.06,4.07,6.59,9.7,6.59,15.91Z"/>
    <rect class="cls-1" x="139.65" y="321.44" width="45" height="45" rx="22.5" ry="22.5"/>
    <rect class="cls-1" x="201.24" y="321.44" width="45" height="45" rx="22.5" ry="22.5"/>
    <rect class="cls-1" x="262.83" y="321.44" width="45" height="45" rx="22.5" ry="22.5"/>
    <rect class="cls-1" x="324.42" y="321.44" width="45" height="45" rx="22.5" ry="22.5"/>
    <rect class="cls-1" x="386.01" y="321.44" width="45" height="45" rx="22.5" ry="22.5"/>
    <path class="cls-1" d="m492.6,343.94c0,6.21-2.51,11.84-6.59,15.91-4.59,4.57-11.14,7.2-18.28,6.47-10.52-1.08-19.01-9.62-20.02-20.15-.68-7.09,1.92-13.59,6.48-18.14,4.07-4.06,9.7-6.59,15.91-6.59s11.84,2.52,15.91,6.59c4.07,4.07,6.59,9.7,6.59,15.91Z"/>
  </g>
  <g>
    <path class="cls-1" d="m123.05,413.29c0,6.22-2.52,11.85-6.59,15.91-4.07,4.07-9.7,6.59-15.91,6.59-12.42,0-22.5-10.06-22.5-22.5,0-6.21,2.52-11.84,6.59-15.91,4.07-4.06,9.7-6.59,15.91-6.59s11.84,2.52,15.91,6.59c4.06,4.07,6.59,9.7,6.59,15.91Z"/>
    <rect class="cls-1" x="139.65" y="390.8" width="45" height="45" rx="22.5" ry="22.5"/>
    <rect class="cls-1" x="201.24" y="390.8" width="45" height="45" rx="22.5" ry="22.5"/>
    <rect class="cls-1" x="262.83" y="390.8" width="45" height="45" rx="22.5" ry="22.5"/>
    <path class="cls-1" d="m369.42,413.29c0,6.22-2.52,11.85-6.59,15.91-4.07,4.07-9.7,6.59-15.91,6.59-12.42,0-22.5-10.06-22.5-22.5,0-6.21,2.52-11.84,6.59-15.91,4.07-4.06,9.7-6.59,15.91-6.59s11.84,2.52,15.91,6.59c4.06,4.07,6.59,9.7,6.59,15.91Z"/>
    <path class="cls-1" d="m430.73,413.29c0,6.22-2.51,11.85-6.59,15.91-4.07,4.07-9.7,6.59-15.91,6.59-12.42,0-22.5-10.06-22.5-22.5,0-6.21,2.51-11.84,6.59-15.91,4.07-4.06,9.7-6.59,15.91-6.59s11.84,2.52,15.91,6.59c4.07,4.07,6.59,9.7,6.59,15.91Z"/>
    <path class="cls-1" d="m492.38,413.29c0,6.22-2.51,11.85-6.59,15.91-4.07,4.07-9.7,6.59-15.91,6.59-12.42,0-22.5-10.06-22.5-22.5,0-6.21,2.51-11.84,6.59-15.91,4.07-4.06,9.7-6.59,15.91-6.59s11.84,2.52,15.91,6.59c4.07,4.07,6.59,9.7,6.59,15.91Z"/>
  </g>
  <path class="cls-1" d="m123.05,482.33c0,6.21-2.52,11.84-6.59,15.91-4.07,4.07-9.7,6.59-15.91,6.59-12.42,0-22.5-10.07-22.5-22.5,0-6.21,2.52-11.84,6.59-15.91,4.07-4.07,9.7-6.59,15.91-6.59s11.84,2.51,15.91,6.59c4.06,4.07,6.59,9.7,6.59,15.91Z"/>
  <g>
    <path class="cls-1" d="m117.41,29.13v41.3c0,3.9-2.67,7.21-6.38,8.37-.94.31-1.94.47-2.99.47-5.17,0-9.34-3.96-9.34-8.85V29.13c0-4.9,4.18-8.86,9.34-8.86,2.44,0,4.68.89,6.34,2.35,1.86,1.61,3.03,3.94,3.03,6.51Z"/>
    <path class="cls-1" d="m185.15,29.11v41.3c0,3.64-2.34,6.76-5.65,8.12-.01.01-.03.01-.07.03-1.11.45-2.35.7-3.65.7-5.15,0-9.33-3.96-9.33-8.85V29.11c0-4.9,4.18-8.86,9.33-8.86,2.98,0,5.63,1.33,7.35,3.39,1.28,1.5,2.02,3.4,2.02,5.48Z"/>
    <path class="cls-1" d="m256.62,29.11v41.3c0,3.9-2.66,7.2-6.36,8.37-.94.31-1.95.47-2.99.47-5.16,0-9.34-3.96-9.34-8.85V29.11c0-4.9,4.18-8.86,9.34-8.86,2.45,0,4.69.9,6.36,2.39.01,0,.03.01.04.02,1.82,1.61,2.95,3.9,2.95,6.45Z"/>
    <path class="cls-1" d="m326.06,29.11v41.3c0,4.89-4.28,8.85-9.54,8.85-.71,0-1.4-.07-2.07-.21-4.26-.87-7.44-4.41-7.44-8.64V29.11c0-2.7,1.29-5.11,3.34-6.74,1.65-1.32,3.81-2.12,6.17-2.12,5.26,0,9.54,3.96,9.54,8.86Z"/>
    <path class="cls-1" d="m393.37,29.11v41.3c0,4.89-4.23,8.85-9.45,8.85-1.01,0-1.99-.15-2.9-.42-3.8-1.14-6.55-4.49-6.55-8.42V29.11c0-2.76,1.33-5.21,3.44-6.84.04-.04.08-.06.12-.07,1.62-1.24,3.66-1.95,5.89-1.95,5.22,0,9.45,3.96,9.45,8.86Z"/>
    <path class="cls-1" d="m462.24,29.11v41.3c0,4.89-4.27,8.85-9.49,8.85-1,0-1.97-.15-2.85-.41-3.85-1.14-6.61-4.49-6.61-8.44V29.11c0-2.8,1.36-5.29,3.53-6.91.01,0,.03-.01.04-.01,1.62-1.22,3.68-1.94,5.88-1.94,5.23,0,9.49,3.96,9.49,8.86Z"/>
  </g>
  <g>
    <path class="cls-1" d="m504.72,309.88H65.94h438.77Z"/>
    <polyline class="cls-1" points="317.17 379.24 254.89 379.24 194.04 379.24 131.75 379.24 65.94 379.24 504.72 379.24 439.76 379.24"/>
    <polyline class="cls-1" points="131.75 448.6 65.94 448.6 504.72 448.6 317.17 448.6"/>
    <polyline class="cls-1" points="317.17 379.24 317.17 309.88 317.17 240.52 317.17 176.11 317.17 510.57"/>
    <polyline class="cls-1" points="254.89 448.6 254.89 176.11 254.89 510.57"/>
    <path class="cls-1" d="m194.03,510.57V176.33v334.23Z"/>
    <polyline class="cls-1" points="131.75 240.52 131.75 176.34 131.75 510.57 131.75 448.6"/>
    <line class="cls-1" x1="439.76" y1="240.52" x2="439.76" y2="175.14"/>
    <polyline class="cls-1" points="378.9 175.14 378.9 447.63 378.9 510.57"/>
    <line class="cls-1" x1="65.94" y1="240.52" x2="504.72" y2="240.52"/>
    <line class="cls-1" x1="439.76" y1="510.57" x2="439.76" y2="240.52"/>
  </g>
</svg>