<?xml version="1.0" encoding="utf-8"?>
<!-- Generator: Adobe Illustrator 27.1.1, SVG Export Plug-In . SVG Version: 6.00 Build 0)  -->
<svg version="1.1" id="Camada_1" xmlns="http://www.w3.org/2000/svg" xmlns:xlink="http://www.w3.org/1999/xlink" x="0px" y="0px"
	 viewBox="0 0 566.9 566.9" style="enable-background:new 0 0 566.9 566.9;" xml:space="preserve">
<style type="text/css">
	.st0{fill:none;stroke:#9591BE;stroke-width:2;stroke-linecap:round;stroke-linejoin:round;}
	.st1{clip-path:url(#SVGID_00000145779328481693335540000006890967959951388815_);}
	.st2{fill:none;stroke:#9591BE;stroke-width:2;stroke-linecap:round;stroke-linejoin:round;stroke-miterlimit:4;}
	
		.st3{opacity:0.89;fill:none;stroke:#9591BE;stroke-width:2;stroke-linecap:round;stroke-linejoin:round;enable-background:new    ;}
	.st4{opacity:0.7;fill:none;stroke:#9591BE;stroke-width:2;stroke-linecap:round;stroke-linejoin:round;enable-background:new    ;}
	.st5{clip-path:url(#SVGID_00000088817703071547467580000008056108067587152568_);}
	.st6{clip-path:url(#SVGID_00000137090426349483811920000013388559141731537850_);}
	.st7{clip-path:url(#SVGID_00000181775600978121973720000002380534231340058790_);}
	.st8{clip-path:url(#SVGID_00000167373337208733980070000001782996242327060868_);}
	.st9{clip-path:url(#SVGID_00000176021142638113261840000013587579898560061118_);}
	.st10{clip-path:url(#SVGID_00000090280883800762152890000003207528970134685332_);}
	.st11{clip-path:url(#SVGID_00000111165977839514045960000016851249254177486484_);}
	.st12{clip-path:url(#SVGID_00000082346433638954655520000014916801294419145136_);}
	.st13{clip-path:url(#SVGID_00000181055009233581411830000002870806187904768933_);}
</style>
<g>
	<g id="Camada_5">
		<g>
			<g>
				<path class="st0" d="M419.7,104.1c0.4,0.4,0.7,1,1,1.8c1,3.6,2.3,7.2,2.9,10.9c0.6,3.8,2.2,5.3,5.7,3.6
					c5.7-2.9,10.9-2.4,16.8-0.2c8.9,3.3,18.1,5.8,27.6,5.4"/>
				<path class="st0" d="M338.8,69.9c-1.1,1.6-1.9,2.6-3,4.2c-2.1,2.8-4.9,5.2-7.5,7.6c-3.1,2.9-4.2,6.4-3,10.4
					c0.3,1.1,1.6,2.7,2.5,2.7c1.3,0,2.5-1.2,3.8-2c0.1,0,0.1-0.3,0.1-0.4c1.2-3.2,1.5-7.7,3.8-9.2c1.5-1,3.6-1,5.9-0.9"/>
				<path class="st0" d="M225.6,57.9c3-1.1,5.8-2.5,8.6-4c3.7-2.1,7.4-2.3,11.4-1.3c2.5,0.6,5.1,1,8,1.4c1.1,0.2,2.1-0.8,1.9-2
					c-0.3-1.3-0.5-2.5-0.7-3.8c-0.2-0.9,0.4-1.7,1.3-1.9c2.1-0.5,4.2-1,6.4-1.4c0.8-0.2,2-0.1,2.3-0.6c3.3-4.5,6.4-1.8,9.3,0.3
					c4.3,3,8.5,4.2,13.8,2.3c2.6-0.9,6,0.4,8.9,0.2c1.8-0.1,4-0.8,5.3-2c3.5-3.4,7.2-6.9,6.9-12.5c0-0.7,0.5-1.6,1.1-2.1
					c3.1-3.3,6.3-6.4,9.7-9.9c0.7-0.7,1.8-0.7,2.4,0c3,3.2,6.1,5.9,8,9.3c1.5,2.7,0.6,6.8,1.6,9.9c1.7,5.3,3.6,10.6,6.2,15.4
					c0.4,0.7,0.8,1.1,1.7,1.6"/>
				<path class="st0" d="M160.2,24.6c0.6-0.7,1.2-1.5,1.8-2.4c1.2-2,4.9-2.9,7.6-3.5c6.8-1.5,12.3-4.8,17.3-9.6
					c1.8-1.8,4.5-2.7,7.4-4c1.1-0.5,2.3,0.4,2.3,1.6c0,0.9-0.1,1.5-0.3,2c-1.1,3.2,0.4,5,2.8,6.9c4.6,3.6,5.7,7.8,3,12.9
					c-4.6,8.6-3.3,16.9,0.3,25.3c0.4,0.9,1.3,1.9,2.6,2.8"/>
				<path class="st0" d="M62.7,101.6c-0.4-2.4-1.2-4.7-2.4-7.1c-0.6-1.1-1.6-2.1-2.7-2.8c-1.6-1-3.4-1.8-5.3-2.8
					c-0.7-0.3-1-1.1-0.9-1.8c0.7-3.4,0.8-7.4,2.8-9.3c1.9-1.8,5.3-1.9,8.5-2.3c1.1-0.1,1.8-1.3,1.3-2.3c-1.2-2.3-3.1-3.4-5.9-3.2
					c-0.9,0.1-1.7-0.7-1.7-1.6c-0.1-1.5-0.1-2.7,0.1-3.9c0.3-1.2,1.3-2.8,2.3-3.1c4.6-1.4,9.2-2.4,13.9-3.6"/>
				<path class="st0" d="M265.1,420.3c-1.3-5.7-2.5-11.3-3.6-16.8c-0.5-2.4-1.5-3.5-4-4.4c-6.5-2.4-12.9-1.8-19.5-1.3
					c-1.4,0.1-2.9,0.1-4.4,0c-0.9,0-1.6-0.7-1.6-1.6c-0.1-1.3-0.1-2.6,0.1-3.8c1.5-7.9-0.1-15.2-3.1-22.4c-0.8-2-0.7-4.8-0.1-7
					c1.6-5.8,3.5-11.6,5.7-17.2c2.3-5.8-0.1-11.3-3.7-14.1c-5.3-4.2-8.5-8.3-7.3-15.2c0.2-1-0.6-1.9-1.7-1.9h-14.4
					c-5.7,0-10.6-3.8-12.2-9.3c-0.4-1.5-0.8-3-1.2-4.5c-0.2-0.9-0.5-2.3,0-2.8c4.9-5.2,2.1-11.6,0-15.7c-1.9-3.8-8.1-5.7-12.7-8
					c-2.1-1.1-4.8-1.2-7.2-1.5c-8.7-0.8-16.1-4.2-22-10.7c-1.5-1.7-3.2-2.1-5.4-1.2c-4.3,1.8-8.1,0.5-11.2-2.9
					c-3.7-4.1-7.4-8.1-10.8-12.4c-1-1.2-1.3-3.3-1.4-4.9c-0.1-5.1-0.1-10.2-0.1-15.6c0-1.1-1-1.9-2-1.6c-5.5,1.3-10.7,2.3-15.4,4.3
					c-3,1.3-5.2,4.7-7.3,7.6c-2.1,2.9-4.5,4.7-8.2,3.9c-4.4-0.9-7,1.8-9.4,4.6c-2.8,3.1-5.8,3.6-9.9,2.8c-4.9-1-9.9-3.3-15.2-0.7
					c-2.1,1.1-7.7-5.1-7.6-8.1c0.1-3.7,0.4-7.4,0.5-11.1c0-0.2-0.2-0.5-0.7-1.5c-4.7,8.9-12.4,6.7-20,6.7c-0.9,0-1.6-0.7-1.6-1.6
					c-0.5-6.7-5.7-6.1-10.8-6.5c-1.3-0.1-1.9-1.5-1.3-2.6c3-4.7-1.4-7.7-4.1-11.1c-2.2-2.8-4.6-5.4-6.9-8.2c-1.3-1.6-3.4-3.4-3.2-5
					c0.3-3.3,1.4-6.7,2.8-9.8c0.5-1.2,2.7-1.6,4.2-2.2c1.2-0.5,2.4-1,3.3-1.4c0.6-0.2,1-0.8,1-1.5c0.4-6.1,0.5-11.6,1.2-17
					c0.2-1.7,1.7-3.7,3.2-4.7"/>
				<path class="st0" d="M555.8,175.4c0.3,0.8,0.6,1.6,0.9,2.5c3.9,10.7,2.5,21.6-0.8,32.3c-0.5,1.5-1.3,3-2.4,4.2
					c-8.3,9.2-16.9,18-24.9,27.5c-5.8,6.9-10.9,14.4-15.9,21.9c-2,3-4.2,5.1-7.6,6.4c-2.6,1-5,2.6-7.1,4.4
					c-3.9,3.3-4.4,7.7-3.8,12.7c2.4,18.5-1.4,36.3-7.6,53.7c-1.1,3.1-3.3,6.1-5.4,8.7c-2.6,3.3-3.5,6.8-2.4,10.7
					c0.8,3.2-0.3,5.4-2.3,7.8c-4.6,5.5-8.7,11.3-13.2,16.8c-2.9,3.6-4.3,7.6-3.6,12.2c0.4,2.8-0.6,4.6-3.4,5.6
					c-1.9,0.7-3.9,1.5-5.5,2.8c-2.6,2-5,4.4-7.2,7c-0.2,0.2-0.4,0.4-0.7,0.5c-6.6,2.3-13.4,1-20.3-0.5c-2-0.4-4.4,0.3-6.6,0.9
					c-2.9,0.8-5.8,1.6-8.4,2.9c-3.6,1.8-6.8,4.2-10.3,6.2c-1.6,1-3.4,2.4-5.1,2.3c-3.7-0.1-6.6,0.8-9.4,3.2
					c-5.8,5-11.7,9.9-17.6,14.8c-0.7,0.6-1.4,1.5-2.2,1.9c-11,5.1-10.5,14.6-9.4,24.4c1,8.6,0.2,16.7-6.7,22.9
					c-4.4,3.9-7.2,8.8-10.1,13.9c-4.9,8.7-10.3,17.2-15.6,25.6c-0.8,1.2-2.1,2.4-3.4,2.8c-9.1,3.2-13.3,10.9-17.7,18.5
					c-1,1.7-1.9,3.4-2.6,5.2c-1.2,3.3-3.3,4.8-6.7,4.7c-0.7,0-1.3-0.5-1.5-1.1c-1.8-5.1-2.6-9.9,2.3-13.2c0.8-0.5,1-1.7,0.4-2.4
					c-5.4-6.3-11.4-11.1-18.3-15c-3.3-1.9-7-3.5-8.1-7.6c-0.3-1.1-1.5-1.6-2.5-1c-1.1,0.6-2.1,1.2-3.1,1.8c-0.7,0.4-1.6,0.3-2.1-0.3
					c-2-2.4-4.1-4.7-5.9-7.2c-2.3-3.1-4.8-5-8.9-4.2c-0.3,0.1-0.6,0.1-1,0.1c-1.2,0-1.9-1.3-1.5-2.3c0.7-1.7,1.4-3.4,2.5-4.6
					c6.7-7.4,9.3-11.2,16.6-18"/>
			</g>
			<g>
				<g>
					<defs>
						<path id="SVGID_1_" d="M283.2,244.9c0,26.6-33.5,59-48.1,74c-15.3-15.8-48.2-47.4-48.2-74s21.6-48.2,48.2-48.2
							S283.2,218.3,283.2,244.9L283.2,244.9z"/>
					</defs>
					<clipPath id="SVGID_00000018930118178802314420000007191514712449369514_">
						<use xlink:href="#SVGID_1_"  style="overflow:visible;"/>
					</clipPath>
					<g style="clip-path:url(#SVGID_00000018930118178802314420000007191514712449369514_);">
						<circle class="st0" cx="235.2" cy="248.2" r="73.3"/>
						<rect x="222.8" y="352.2" class="st0" width="25.2" height="10.1"/>
						<path class="st0" d="M247.5,361.3c0.8,2.5,2.5,7,8.9,7.3"/>
						<path class="st0" d="M215.1,324.6l-12.3-1.3L215.1,324.6z"/>
						<path class="st0" d="M272.8,463.2l-31.1,0.2c-3.1,0-3-3.7-2.8-12c0,0,7.1-0.3,11.7-0.3c2.3,0,4,0.1,3.9,0.3
							c2.7,2.5,5.7,4.8,8.3,5.3c0.3,0.1,0.6,0.1,0.9,0.1c4.2,0.2,6.6,0.5,6.6,0.5C273.8,457.3,274.2,462.1,272.8,463.2L272.8,463.2z
							"/>
						<path class="st0" d="M262.9,456.6c-1.3,0.3-2.9,0.4-4.5,0.1c-4.3-0.6-7.5-3.1-7.7-5.7c2.3,0,4,0.1,3.9,0.3
							C257.3,453.7,260.3,456.1,262.9,456.6L262.9,456.6z"/>
						<path class="st0" d="M260,455.6c-1-0.3-2,0.1-2.5,0.8"/>
						<path class="st0" d="M258.5,454.4c-1.4-0.5-2.8,0.2-3.6,1.2"/>
						<path class="st0" d="M256.6,453c-1.5-0.5-3,0.2-3.8,1.2"/>
						<path class="st2" d="M231.5,466.7l-31.1-0.1c-0.4,0-0.8-0.4-0.8-0.8l0-1.8c0-0.4,0.4-0.8,0.8-0.8l31.1,0.1
							c0.4,0,0.8,0.4,0.8,0.8l0,1.8C232.3,466.3,231.9,466.7,231.5,466.7z"/>
						<path class="st0" d="M198.6,466.2l0-2.6c0-0.2,0.2-0.4,0.4-0.4l7.4,0c0.2,0,0.4,0.2,0.4,0.4l0,2.6c0,0.2-0.2,0.4-0.4,0.4
							l-7.4,0C198.8,466.6,198.6,466.5,198.6,466.2z"/>
						<path class="st0" d="M199.1,463.8l31.1,0.1c3.1,0,3-3.7,2.8-12c0,0-7.1-0.3-11.7-0.3c-2.3,0-4,0.1-3.9,0.3
							c-2.7,2.5-5.7,4.8-8.3,5.4c-0.3,0.1-0.6,0.1-0.9,0.1c-4.2,0.2-6.6,0.5-6.6,0.5C198.1,458,197.7,462.8,199.1,463.8z"/>
						<path class="st0" d="M209,457.3c1.3,0.3,2.9,0.4,4.5,0.1c4.3-0.6,7.5-3.1,7.7-5.8c-2.3,0-4,0.1-3.9,0.3
							C214.6,454.3,211.6,456.7,209,457.3L209,457.3z"/>
						<path class="st0" d="M211.9,456.2c1-0.3,2,0.1,2.5,0.8"/>
						<path class="st0" d="M213.4,455c1.4-0.5,2.8,0.2,3.6,1.2"/>
						<path class="st0" d="M215.3,453.6c1.5-0.5,3,0.2,3.8,1.2"/>
						<polygon class="st3" points="217.7,452.3 233.3,457.5 232.9,451.9 						"/>
						<polygon class="st3" points="255.8,452.8 238.9,452.8 238.6,457 						"/>
						<rect x="238.6" y="352.2" class="st0" width="17.7" height="100.7"/>
						<rect x="216.1" y="352.2" class="st2" width="17.7" height="99.9"/>
						<rect x="216" y="352.2" class="st4" width="40.3" height="4"/>
						<line class="st0" x1="260.2" y1="367.8" x2="261.1" y2="374.7"/>
						<path class="st0" d="M269.9,361.1c0.2,0.4,0.3,0.9,0.3,1.4l0.6,6.4c0.3,3.3-2.2,5.5-5.5,5.9c-3.3,0.4-5.9,0.4-6.2-2.9
							l-0.7-8.4c-0.3-3.3,2.1-6.2,5.4-6.4C266.6,356.9,269.1,358.6,269.9,361.1L269.9,361.1z"/>
						<line class="st0" x1="257.5" y1="367.2" x2="260.1" y2="362.2"/>
						<g>
							<path class="st0" d="M256.7,282.2c12.8,0.5,11,30.5,12,42.3l-13.2-0.5l-0.5,28.5l-39.9-0.1l-0.9-29.6l-0.4,2.5l-12.3-1.4
								c1.1-11.3-0.2-39.6,11.1-42"/>
							<path class="st0" d="M218.2,349.1h4.2c0.8-4.8-6.1-65.9-3.4-68.5l-6.3,1.2C210.9,285.3,218.4,345.1,218.2,349.1z"/>
							<polyline class="st0" points="232,294.9 232,312.5 237.2,312.5 237.2,294.8 							"/>
							<path class="st0" d="M233.5,299.3L233.5,299.3c0.6-0.6,1.5-0.6,2,0l0,0c0.5,0.5,0.5,1.4,0,2l0,0c-0.5,0.5-1.4,0.5-2,0l0,0
								C232.9,300.7,232.9,299.8,233.5,299.3z"/>
							<path class="st0" d="M233.5,303.2L233.5,303.2c0.6-0.6,1.5-0.6,2,0l0,0c0.5,0.5,0.5,1.4,0,2l0,0c-0.5,0.5-1.4,0.5-2,0l0,0
								C232.9,304.6,232.9,303.7,233.5,303.2z"/>
							<path class="st0" d="M233.4,307.5L233.4,307.5c0.6-0.6,1.5-0.6,2,0l0,0c0.5,0.5,0.5,1.4,0,2l0,0c-0.5,0.5-1.4,0.5-2,0l0,0
								C232.8,308.9,232.9,308,233.4,307.5z"/>
							<path class="st0" d="M240.4,275.3c0.2,0,0.4,0.1,0.6,0.2c1.2,0.1,5.1,1.9,6.1,2.6c4.1,7.6,1.8,14.6-4.2,21.5l-8.1-6.7
								l-0.3-0.2l-0.2,0.2l-7.6,6.7c-6-6.9-8.5-13.9-4.5-21.5c0.8-0.6,3.4-1.8,5.1-2.3c0,0,0.1,0,0.1,0c0.2-0.1,0.4-0.1,0.5-0.2
								c0,0,0,0,0,0c0.5-0.1,0.9-0.2,1.3-0.3"/>
							<path class="st0" d="M240.4,275.2c1.8,1.5,2.9,3.8,2.9,6.4c0,4.7-3.8,8.5-8.5,8.5c-4.7,0-8.5-3.8-8.5-8.5
								c0-2.5,1.1-4.8,2.9-6.3"/>
							<path class="st0" d="M254.7,252.9c0,0.8,0,1.5-0.1,2.2c0,0,0,0.1,0,0.1c-0.1,1-0.3,1.9-0.5,2.8c-0.3,1-0.6,2-1,2.9
								c-2.4,5.3-7,9.4-12.7,11v7.3c0,1.4-1.9,3.7-5.5,3.7c-3.6,0-5.5-2.3-5.5-3.7V272c-5.7-1.6-10.3-5.7-12.7-11.1
								c-0.5-1.1-0.9-2.2-1.1-3.4c-0.2-0.7-0.3-1.4-0.4-2.1c0,0,0-0.1,0-0.1c-0.1-0.8-0.2-1.6-0.2-2.4"/>
							<path class="st0" d="M254.5,251.2L254.5,251.2c0-0.3,0-0.6-0.1-0.9c0-0.4-0.1-0.8-0.2-1.2c0.1,0,0.2,0,0.3,0h0.1
								c0.5,0,1-0.1,1.4-0.3c1.3-0.6,2.2-1.9,2.2-3.4c0-0.4-0.1-0.8-0.2-1.1c0,0-0.1,0-0.1-0.1c0,0,0,0,0.1,0
								c-0.2-0.7-0.7-1.3-1.3-1.7c-0.3-0.3-0.8-0.5-1.2-0.6c-0.3,0.1-0.7,0.2-1.1,0.2c-0.4,0-0.7-0.1-1-0.2l0,0c0,0,0,0-0.1,0h0h0
								c0,0,0,0,0,0c-0.1,0-0.3-0.1-0.4-0.2c-1-0.5-1.7-1.6-1.7-2.8c0-0.1,0-0.2,0-0.2c0-0.7,0.3-1.4,0.8-1.9
								c-0.3,0.1-0.5,0.1-0.8,0.1c-0.7,0-1.3-0.2-1.8-0.6c0,0,0,0,0,0c-0.3-0.2-0.5-0.5-0.8-0.8h0c-0.3-0.5-0.5-1.1-0.5-1.8
								c0-0.2,0-0.3,0-0.5c-0.3,0.3-0.7,0.6-1.2,0.8c-0.3,0.1-0.7,0.2-1.1,0.2c-1.6,0-2.9-1.2-3.1-2.8c0,0,0,0,0,0
								c-0.3,1.1-1.3,2-2.5,2.2c-0.2,0-0.3,0-0.5,0c-0.7,0-1.3-0.2-1.8-0.6c-0.5-0.4-1-0.9-1.2-1.6c-0.2,0.5-0.5,1-0.9,1.4
								c-0.5,0.5-1.3,0.8-2.1,0.8c-0.7,0-1.3-0.2-1.9-0.6c-0.5-0.3-0.8-0.8-1-1.3c-0.5,1.1-1.6,1.9-2.9,1.9c-1.2,0-2.2-0.6-2.7-1.5
								h0c0,0,0,0,0,0c-0.5,1.2-1.6,2-2.9,2h-0.1c-0.4,0-0.7-0.1-1-0.2c-0.1,1.4-1.2,2.5-2.5,2.8c0.2,0.2,0.3,0.4,0.4,0.7
								c0.2,0.4,0.3,0.8,0.3,1.3c0,1.6-1.2,3-2.8,3.1h0c0,0,0,0-0.1,0c-0.1,0-0.2,0-0.3,0h0c-0.3,0-0.6-0.1-0.9-0.2h-0.1
								c-0.8,0.1-1.5,0.4-2.1,0.8c-0.5,0.4-0.9,0.9-1.1,1.6c0,0,0,0.1,0,0.1c-0.1,0.4-0.2,0.8-0.2,1.2c0,1.5,0.8,2.7,2.1,3.3
								c0.3,0.2,0.7,0.3,1.1,0.3c0,0.2,0,0.4,0,0.6c0,0.1,0,0.2,0,0.3c0,0.4,0,0.8,0.1,1.2l0,0 M225.7,246.6c-0.8,0-1.5-0.7-1.5-1.5
								s0.7-1.5,1.5-1.5s1.5,0.7,1.5,1.5S226.5,246.6,225.7,246.6z M239.6,260.6c-0.2,0.3-0.5,0.5-0.8,0.8c-1,0.8-2.3,1.2-3.6,1.2
								s-2.6-0.5-3.6-1.2c-0.2-0.2-0.5-0.4-0.7-0.6c-1-1-1.5-2.3-1.5-3.7h11.7C240.9,258.4,240.4,259.6,239.6,260.6L239.6,260.6z
								 M244.4,246.6c-0.8,0-1.5-0.7-1.5-1.5s0.7-1.5,1.5-1.5s1.5,0.7,1.5,1.5S245.2,246.6,244.4,246.6z"/>
							<path class="st0" d="M231.5,261.1c0.1-0.2,0.3-0.3,0.5-0.5c0.8-0.6,1.9-1.1,3.2-1.1c1.2,0,2.3,0.4,3.1,1h0
								c0.2,0.2,0.4,0.3,0.6,0.5"/>
							<path class="st0" d="M256.5,281.7l-6.3-1.2c2.7,2.6-4,63.7-3.2,68.5h4.2C251.1,345.1,258.3,285.2,256.5,281.7z"/>
							<path class="st0" d="M252.8,263.1c1.7-0.1,3-1.5,3-3.2c0-0.6-0.2-1.1-0.4-1.6c0.1-0.1,0.2-0.2,0.3-0.3
								c0.2,0.1,0.5,0.1,0.8,0.1c1.7,0,3.2-1.4,3.2-3.2c0-0.9-0.3-1.6-0.9-2.2c0,0,0-0.1,0-0.1c1.7,0,3.1-1.4,3.1-3.2
								c0-1.1-0.5-2-1.3-2.6c0,0-0.1,0-0.2,0c0,0,0-0.1,0-0.2c0,0,0.1,0.1,0.1,0.1c1.3-0.4,2.3-1.6,2.3-3c0-1.3-0.8-2.5-2-2.9h0h0
								c1.2-0.5,2-1.6,2-2.9c0-1.3-0.9-2.6-2.1-3c0,0,0,0-0.1,0c0,0,0,0,0.1,0c1.2-0.4,2-1.6,2-2.9c0-1.8-1.4-3.2-3.2-3.2h-0.1
								c-0.1,0-0.2,0-0.4,0c0.1-0.1,0.2-0.1,0.3-0.2c0.8-0.6,1.3-1.5,1.3-2.5c0-1.8-1.4-3.2-3.2-3.2h-0.1c0.2-0.4,0.3-0.8,0.3-1.3
								c0-1.8-1.4-3.2-3.2-3.2c-0.2,0-0.3,0-0.5,0c0.2-0.4,0.3-0.9,0.3-1.4c0-1.7-1.4-3.1-3.2-3.1c-0.9,0-1.8,0.4-2.4,1.1
								c0,0,0,0-0.1,0.1c0,0,0-0.1,0-0.1c0.1-0.3,0.2-0.7,0.2-1c0-1.8-1.4-3.2-3.2-3.2c-1,0-1.9,0.5-2.5,1.2c0,0.1,0,0.2,0,0.2
								c0,0-0.1,0-0.1,0c0-0.1,0.1-0.1,0.1-0.2v-0.1c0-1.7-1.4-3.2-3.2-3.2c-1,0-2,0.5-2.5,1.3c-0.4-1.2-1.6-2.1-3-2.1
								c-1.5,0-2.8,1-3.1,2.4c0.1,0.2,0.2,0.3,0.2,0.5c-0.1,0-0.2,0-0.3,0c0-0.2,0-0.3,0.1-0.5c-0.5-1-1.6-1.7-2.8-1.7
								c-1.7,0-3.2,1.4-3.2,3.2v0c-0.5-0.5-1.3-0.8-2.1-0.8c-1.7,0-3.2,1.4-3.2,3.2c0,0.1,0,0.2,0,0.3c-0.4-0.2-0.9-0.3-1.4-0.3
								c-1.7,0-3.2,1.4-3.2,3.1c0,0.3,0,0.5,0.1,0.8c0.1,0,0.2,0.1,0.3,0.1c-0.1,0-0.1,0.1-0.2,0.2c0-0.1-0.1-0.2-0.1-0.3
								c-0.4-0.1-0.8-0.2-1.2-0.2c-1.8,0-3.2,1.4-3.2,3.1c0,0.6,0.2,1.2,0.5,1.7c-1.8,0-3.1,1.4-3.1,3.2c0,0.9,0.4,1.7,1,2.3
								c-0.1,0.1-0.1,0.3-0.1,0.4c-1.6,0.1-2.9,1.5-2.9,3.1c0,1.2,0.7,2.3,1.7,2.8c0.1,0.1,0.3,0.1,0.4,0.2c-0.2,0-0.3,0.1-0.4,0.2
								c-1,0.5-1.8,1.6-1.8,2.8s0.7,2.3,1.7,2.8c0,0.1,0,0.2,0,0.3c-1,0.5-1.7,1.6-1.7,2.8c0,1.4,0.9,2.6,2.1,3c0.1,0,0.1,0,0.2,0.1
								c0,0-0.1,0.1-0.1,0.1l0,0c-0.7,0.6-1.2,1.5-1.2,2.5c0,1.7,1.3,3,3,3.1c0.1,0,0.1,0,0.2,0h0.1c-0.1,0.1-0.2,0.2-0.2,0.2
								c-0.5,0.5-0.8,1.3-0.8,2.1c0,1.8,1.4,3.2,3.2,3.2c0.3,0,0.5,0,0.7-0.1c0.1,0.1,0.2,0.2,0.3,0.3c-0.3,0.5-0.4,1-0.4,1.6
								c0,1.6,1.2,2.9,2.7,3.1 M208.7,240.9L208.7,240.9C208.7,240.9,208.8,240.9,208.7,240.9C208.8,240.9,208.8,240.9,208.7,240.9z
								"/>
						</g>
						<path class="st0" d="M221.7,355.6L221.7,355.6c-0.6,0-1.1-0.5-1.1-1.1v-2.4c0-0.6,0.5-1.1,1.1-1.1l0,0c0.6,0,1.1,0.5,1.1,1.1
							v2.4C222.8,355.1,222.3,355.6,221.7,355.6z"/>
						<path class="st0" d="M250.5,355.1L250.5,355.1c-0.6,0-1.1-0.5-1.1-1.1v-2.4c0-0.6,0.5-1.1,1.1-1.1l0,0c0.6,0,1.1,0.5,1.1,1.1
							v2.4C251.6,354.6,251.1,355.1,250.5,355.1z"/>
						<polygon class="st0" points="219.6,349.1 220.6,352.1 222.8,352.1 223.8,349.1 						"/>
						<polygon class="st0" points="248.4,349.1 249.4,352.2 251.6,352.2 252.6,349.1 						"/>
						<path class="st0" d="M196.3,375.9h17.5c1.2,0,2.2,1,2.2,2.2v37.7c0,1.2-1,2.2-2.2,2.2h-17.5c-1.2,0-2.2-1-2.2-2.2V378
							C194.1,376.8,195.1,375.9,196.3,375.9z"/>
						<path class="st0" d="M196.5,376h19.1c1.2,0,2.1,0.9,2.1,2.1v15.2c0,1.2-0.9,2.1-2.1,2.1h-19.1c-1.2,0-2.1-0.9-2.1-2.1v-15.2
							C194.4,376.9,195.3,376,196.5,376z"/>
						<path class="st0" d="M215.7,417.9h-4.8c-1,0-1.9-1-1.9-2.3v-31.2c0-0.3,0.3-0.6,0.6-0.6h7.3c0.3,0,0.6,0.3,0.6,0.6v31.2
							C217.6,416.8,216.8,417.9,215.7,417.9L215.7,417.9z"/>
						<rect x="192.5" y="375.5" class="st0" width="15.3" height="19.2"/>
						<path class="st0" d="M216.4,385.5v-8.9c-2.5-0.9-6.1-0.9-9.6,0l0,17"/>
						<path class="st0" d="M192.5,375.5c0.2,0.2,9.1-0.9,9.1-0.9l11.3,0.1l-7,1.2L192.5,375.5L192.5,375.5z"/>
						<path class="st0" d="M208.6,375L208.6,375c-0.7,0-1.2,0.3-1.2-0.4v-3.5c0-0.7,0.5-1.2,1.2-1.2l0,0c0.7,0,1.2,0.5,1.2,1.2v3.5
							C209.8,375.2,209.2,375,208.6,375z"/>
						<path class="st0" d="M202.7,375L202.7,375c-0.7,0-1.2,0.3-1.2-0.4v-3.5c0-0.7,0.5-1.2,1.2-1.2l0,0c0.7,0,1.2,0.5,1.2,1.2v3.5
							C203.9,375.2,203.4,375,202.7,375z"/>
						<path class="st0" d="M201.5,371.9h5.9l1.2-2h-5.9C202,369.9,201.3,370.3,201.5,371.9z"/>
						<rect x="196.6" y="390.6" class="st0" width="6.1" height="4.1"/>
						<rect x="197.9" y="394.4" class="st0" width="2.7" height="4.1"/>
						<path class="st0" d="M208.1,353.8l0.1,5.6c0,0-0.9,9.7-0.8,11.4c0.1,1.7,0.1,2.9-1,2.9c-1.4,0-2.7,0.3-4.5-0.3
							c-1.8-0.7-2.2-4.1-2-5.6c0.3-2.3,0.7-7.5,0.7-7.5l1.1-7.6l6.6-0.7L208.1,353.8L208.1,353.8z"/>
						<path class="st0" d="M209.5,370.2l-2.2-7.1L209.5,370.2z"/>
						<line class="st0" x1="209.5" y1="370.2" x2="207.4" y2="363.2"/>
						<polygon class="st0" points="258.8,326.1 267.9,325.2 268.1,328.8 258.8,329.2 						"/>
						<polygon class="st0" points="203.5,324.5 212.8,325.5 212.4,328.3 203.2,327.8 						"/>
					</g>
				</g>
				<path class="st0" d="M283.2,244.9c0,26.6-33.5,59-48.1,74c-15.3-15.8-48.2-47.4-48.2-74s21.6-48.2,48.2-48.2
					S283.2,218.3,283.2,244.9L283.2,244.9z"/>
			</g>
			<g>
				<g>
					<defs>
						<path id="SVGID_00000150784214879562736950000001877239715775684005_" d="M383.6,181.2c0,26.6-33.4,59.3-48.1,74
							c-16.2-16.9-48.2-47.4-48.2-74s21.6-48.2,48.2-48.2S383.6,154.6,383.6,181.2L383.6,181.2z"/>
					</defs>
					<clipPath id="SVGID_00000026150659221750408830000002501721157869926277_">
						<use xlink:href="#SVGID_00000150784214879562736950000001877239715775684005_"  style="overflow:visible;"/>
					</clipPath>
					<g style="clip-path:url(#SVGID_00000026150659221750408830000002501721157869926277_);">
						<ellipse class="st0" cx="335.5" cy="194.4" rx="52.8" ry="109.2"/>
						<path class="st0" d="M337.3,286.7c0,0.6-0.5,1.2-1.2,1.2c-0.6,0-1.2-0.5-1.2-1.2s0.5-1.2,1.2-1.2
							C336.8,285.6,337.3,286.1,337.3,286.7z"/>
						<rect x="321.6" y="293.7" class="st0" width="26.6" height="10.4"/>
						<path class="st2" d="M340.2,407.2l32.8,0c0.5,0,0.8,0.4,0.8,0.8l0,1.9c0,0.5-0.4,0.8-0.8,0.8l-32.8,0c-0.5,0-0.8-0.4-0.8-0.8
							l0-1.9C339.4,407.6,339.8,407.2,340.2,407.2z"/>
						<path class="st2" d="M366.8,407.2l7.8,0c0.2,0,0.4,0.2,0.4,0.4l0,2.8c0,0.2-0.2,0.4-0.4,0.4l-7.8,0c-0.2,0-0.4-0.2-0.4-0.4
							l0-2.8C366.4,407.4,366.6,407.2,366.8,407.2z"/>
						<path class="st0" d="M374.4,407.8l-32.8,0.1c-3.3,0-3.1-3.9-2.9-12.6c0,0,7.5-0.3,12.4-0.3c2.4,0,4.2,0.1,4.1,0.3
							c2.9,2.6,6,5.1,8.7,5.7c0.3,0.1,0.6,0.1,0.9,0.1c4.4,0.2,6.9,0.5,6.9,0.5C375.5,401.7,375.9,406.8,374.4,407.8L374.4,407.8z"
							/>
						<path class="st0" d="M363.9,400.9c-1.4,0.3-3,0.4-4.7,0.1c-4.5-0.7-7.9-3.3-8.1-6.1c2.4,0,4.2,0.1,4.1,0.3
							C358,397.8,361.2,400.3,363.9,400.9L363.9,400.9z"/>
						<path class="st0" d="M360.9,399.8c-1-0.4-2.1,0.1-2.7,0.9"/>
						<path class="st0" d="M359.3,398.6c-1.5-0.5-3,0.2-3.8,1.2"/>
						<path class="st0" d="M357.3,397.1c-1.5-0.5-3.1,0.2-4,1.3"/>
						<path class="st2" d="M330.8,411.4l-32.8,0.1c-0.5,0-0.8-0.4-0.8-0.8l0-1.9c0-0.5,0.4-0.8,0.8-0.8l32.8-0.1
							c0.5,0,0.8,0.4,0.8,0.8l0,1.9C331.6,411.1,331.3,411.4,330.8,411.4z"/>
						<path class="st2" d="M296.5,407.9l7.8,0c0.2,0,0.4,0.2,0.4,0.4l0,2.8c0,0.2-0.2,0.4-0.4,0.4l-7.8,0c-0.2,0-0.4-0.2-0.4-0.4
							l0-2.8C296.1,408,296.3,407.9,296.5,407.9z"/>
						<path class="st0" d="M296.6,408.5l32.8,0c3.3,0,3.1-4,2.9-12.7c0,0-7.5-0.3-12.4-0.3c-2.4,0-4.2,0.1-4.1,0.3
							c-2.9,2.6-6,5.1-8.7,5.7c-0.3,0.1-0.6,0.1-0.9,0.1c-4.4,0.3-6.9,0.5-6.9,0.5C295.6,402.4,295.1,407.5,296.6,408.5L296.6,408.5
							z"/>
						<path class="st0" d="M307.1,401.6c1.4,0.3,3,0.4,4.7,0.1c4.5-0.7,7.9-3.3,8.1-6.1c-2.4,0-4.2,0.1-4.1,0.3
							C313,398.5,309.8,400.9,307.1,401.6L307.1,401.6z"/>
						<path class="st0" d="M310.1,400.4c1-0.4,2.1,0.1,2.7,0.9"/>
						<path class="st0" d="M311.7,399.2c1.5-0.5,3,0.1,3.8,1.2"/>
						<path class="st0" d="M313.7,397.7c1.5-0.5,3.1,0.2,4,1.3"/>
						<polygon class="st3" points="316.3,396.2 332.7,401.8 332.3,395.8 						"/>
						<polygon class="st3" points="356.4,396.8 338.6,396.8 338.3,401.2 						"/>
						<rect x="338.3" y="293.7" class="st0" width="18.7" height="103.1"/>
						<rect x="314.6" y="293.7" class="st2" width="18.7" height="102.3"/>
						<rect x="314.5" y="293.7" class="st4" width="42.6" height="4.1"/>
						<path class="st0" d="M307.5,217.1c1.3-5.4,6.1-9.4,11.9-9.4h4.3"/>
						<path class="st0" d="M361.7,278.2c0,6.7-5.5,12.2-12.2,12.2h-30.2c-6.7,0-12.2-5.5-12.2-12.2"/>
						<path class="st0" d="M345.2,207.7h4.3c5.7,0,10.5,4,11.8,9.3"/>
						<path class="st0" d="M311.6,216.9c2.2-2.1,4.4-4.5,7.7-4.5h3.8"/>
						<path class="st0" d="M361.7,247.1v39c0,6.7-5.5,12.2-12.2,12.2h-30.2c-6.7,0-12.2-5.5-12.2-12.2V247"/>
						<path class="st0" d="M346.1,212.4h3.4c3.5,0,6.2,2.2,8.4,4.5"/>
						<path class="st0" d="M318.2,215.6c2.3-1.8,5.3-3.5,7.7-4.2"/>
						<path class="st0" d="M310.2,243.8l-13.3-1.5c1.6-10.7,1-26,15-25.4"/>
						<line class="st0" x1="357.3" y1="294" x2="312.1" y2="294"/>
						<path class="st0" d="M357.9,216.9c14.4,0,13.2,14.6,14.8,25.3l-15.4,2.3"/>
						<path class="st0" d="M342.3,211.1c2.6,0.7,5.6,1.9,8.2,3.8"/>
						<path class="st0" d="M340.7,210.6c0.5,0.1,1.1,0.3,1.7,0.5c1.3,1.5,2.3,3.3,2.6,5.3c0.1,0.6,0.2,1.3,0.2,2
							c0,6-4.8,10.8-10.8,10.8s-10.8-4.8-10.8-10.8c0-0.6,0-1.2,0.1-1.7c0.3-2,1.1-3.7,2.4-5.2c0.7-0.3,1.4-0.5,2-0.6"/>
						<path class="st0" d="M316.9,244.9c-1.2-1.9-1.4-3.6-0.4-5.3h37.9"/>
						<path class="st0" d="M318.4,245.5c-1.8-2.3-1.9-4.7,0-7.4"/>
						<path class="st0" d="M340.4,211.4c1.5,1.5,2.5,3.7,2.5,6c0,4.7-3.8,8.5-8.5,8.5c-4.7,0-8.5-3.8-8.5-8.5c0-2.4,1-4.6,2.7-6.2"
							/>
						<polyline class="st0" points="309.3,243.9 309.3,246.6 299.6,248.1 299.6,242.6 						"/>
						<polyline class="st0" points="360.3,244.2 360.3,246.8 370.1,248.2 370.1,242.8 						"/>
						<path class="st0" d="M357.8,216.9c2,3.7,2.8,7.9,3,12.1c0.5,10.8-3.5,21.3-3.5,21.8v-10.4c0-0.4,0-5.7-1-11.4
							c-0.8-5.1-3-11.3-5.8-14"/>
						<path class="st0" d="M318.2,215.6c-2.8,2.8-4.3,8.2-5.2,13.3c-0.9,5.7-1,11-1,11.4v10.4c0-0.5-4-11-3.5-21.8
							c0.2-4.1,1.2-8.4,3.2-12.1"/>
						<g>
							<path class="st0" d="M355.6,184.8c0,0.2,0,0.4,0,0.6c0,0.6,0,1.1-0.1,1.7c0,0.2,0,0.5,0,0.7c0,0.3,0,0.7,0,1
								c0,1.9-0.3,3.7-0.7,5.5c-1.9,7.2-7.5,12.9-14.7,15v7.8c0,1.5-2,3.9-5.9,3.9c-3.9,0-5.9-2.4-5.9-3.9v-7.8
								c-7.3-2.1-13-8-14.8-15.5c-0.4-1.6-0.6-3.2-0.6-4.9c0-0.3,0-0.6,0-0.9c0-0.3,0-0.5,0-0.7c0-0.5-0.1-1.1-0.1-1.7
								c0-0.2,0-0.4,0-0.7c-1.9-0.3-3.4-1.9-3.4-3.9c0-2.2,1.8-3.9,3.9-3.9c0.4,0,0.8,0.1,1.1,0.2c0.7-1.5,1.5-3,2.5-4.3
								c1.2-0.4,2.6-0.6,4-0.8c1.5-0.2,2.9-0.3,3.9-0.4c5.6-0.8,9.5-2.1,12-3.9c1.2-0.8,2.1-1.8,2.8-2.8c0.9,0.3,1.8,0.6,2.7,0.9
								c1.3,2.8,3.7,5.4,8.2,6.2c1.3,1.5,2.3,3.3,3.1,5.1c0.5-0.2,1-0.3,1.5-0.3c2.2,0,3.9,1.8,3.9,3.9S357.7,184.8,355.6,184.8
								L355.6,184.8z"/>
							<path class="st0" d="M326.2,181.9c0,0.9-0.7,1.6-1.6,1.6s-1.6-0.7-1.6-1.6s0.7-1.6,1.6-1.6S326.2,181,326.2,181.9z"/>
							<path class="st0" d="M346.2,181.9c0,0.9-0.7,1.6-1.6,1.6s-1.6-0.7-1.6-1.6s0.7-1.6,1.6-1.6S346.2,181,346.2,181.9z"/>
							<path class="st0" d="M339.2,195.5c0,1.4-0.7,2.6-1.7,3.4c-0.8,0.6-1.8,0.9-2.8,0.9s-2.1-0.4-2.8-0.9c-1-0.8-1.7-2-1.7-3.4
								H339.2z"/>
							<path class="st0" d="M337.5,198.9c-0.8,0.6-1.8,0.9-2.8,0.9s-2.1-0.4-2.8-0.9c0.6-0.7,1.6-1.2,2.8-1.2
								S336.9,198.2,337.5,198.9z"/>
							<path class="st0" d="M362.2,172.2c0.1-0.8,0.1-1.7,0.1-2.6c0-0.8,0-1.5-0.1-2.2c-0.1-1.3-0.3-2.5-0.5-3.8c0,0,0,0,0,0
								c-2.7-12.6-13.9-22-27.3-22h-0.5c-0.7,0-1.3,0.1-2,0.1c-2.1,0.2-4.2,0.6-6.2,1.3c-0.1,0-0.2,0.1-0.3,0.1
								c-11,3.7-19,14.2-19,26.5c0,0.9,0,1.7,0.1,2.6c-0.1,0.9-0.1,1.8-0.1,2.7c0,1.1,0.1,2.1,0.2,3.1c0,0.3,0.1,0.5,0.1,0.8
								c0.8,5.7,3.3,10.8,7,14.9c-0.4-1.6-0.6-3.2-0.6-4.9c0-0.3,0-0.6,0-0.9c0-0.3,0-0.5,0-0.7c0-0.5-0.1-1.1-0.1-1.7
								c0-0.2,0-0.4,0-0.7c-1.9-0.3-3.4-1.9-3.4-3.9c0-2.2,1.8-3.9,3.9-3.9c0.4,0,0.8,0.1,1.1,0.2c0.7-1.5,1.5-3,2.5-4.3
								c1.2-0.4,2.6-0.6,4-0.8c1.5-0.2,2.9-0.3,3.9-0.4c5.6-0.8,9.5-2.1,12-3.9c1.2-0.8,2.1-1.8,2.8-2.8c0.9,0.3,1.8,0.6,2.7,0.9
								c1.3,2.8,3.7,5.4,8.2,6.2c1.3,1.5,2.3,3.3,3.1,5.1c0.5-0.2,1-0.3,1.5-0.3c2.2,0,3.9,1.8,3.9,3.9c0,2.2-1.7,3.9-3.8,3.9
								c0,0.2,0,0.4,0,0.6c0,0.6,0,1.1-0.1,1.7c0,0.2,0,0.5,0,0.7c0,0.3,0,0.7,0,1c0,1.9-0.3,3.7-0.7,5.5c4.6-4.9,7.4-11.5,7.4-19.4
								c0-0.8,0-1.5-0.1-2.2C362.2,172.5,362.2,172.4,362.2,172.2L362.2,172.2z"/>
						</g>
					</g>
				</g>
				<path class="st0" d="M383.6,181.2c0,26.6-33.4,59.3-48.1,74c-16.2-16.9-48.2-47.4-48.2-74s21.6-48.2,48.2-48.2
					S383.6,154.6,383.6,181.2L383.6,181.2z"/>
			</g>
			<g>
				<g>
					<defs>
						<path id="SVGID_00000153692217746499049540000018001607506127086976_" d="M566.9,144.1c0,26.6-33.5,59-48.1,74
							c-15.3-15.8-48.2-47.4-48.2-74S492.2,96,518.8,96S566.9,117.5,566.9,144.1z"/>
					</defs>
					<clipPath id="SVGID_00000016770294354630934970000015778075624153698945_">
						<use xlink:href="#SVGID_00000153692217746499049540000018001607506127086976_"  style="overflow:visible;"/>
					</clipPath>
					<g style="clip-path:url(#SVGID_00000016770294354630934970000015778075624153698945_);">
						<circle class="st0" cx="518.9" cy="147.4" r="73.3"/>
						<rect x="506.5" y="251.4" class="st0" width="25.2" height="10.1"/>
						<path class="st0" d="M531.2,260.6c0.8,2.5,2.5,7,8.9,7.3"/>
						<path class="st0" d="M498.8,223.8l-12.3-1.3L498.8,223.8z"/>
						<path class="st0" d="M556.5,362.4l-31.1,0.2c-3.1,0-3-3.7-2.8-12c0,0,7.1-0.3,11.7-0.3c2.3,0,4,0.1,3.9,0.3
							c2.7,2.5,5.7,4.8,8.3,5.3c0.3,0.1,0.6,0.1,0.9,0.1c4.2,0.2,6.6,0.5,6.6,0.5C557.5,356.5,557.9,361.3,556.5,362.4L556.5,362.4z
							"/>
						<path class="st0" d="M546.6,355.8c-1.3,0.3-2.9,0.4-4.5,0.1c-4.3-0.6-7.5-3.1-7.7-5.7c2.3,0,4,0.1,3.9,0.3
							C541,352.9,544,355.3,546.6,355.8L546.6,355.8z"/>
						<path class="st0" d="M543.7,354.8c-1-0.3-2,0.1-2.5,0.8"/>
						<path class="st0" d="M542.2,353.6c-1.4-0.5-2.8,0.2-3.6,1.2"/>
						<path class="st0" d="M540.3,352.2c-1.5-0.5-3,0.2-3.8,1.2"/>
						<path class="st2" d="M515.2,365.9l-31.1-0.1c-0.4,0-0.8-0.4-0.8-0.8l0-1.8c0-0.4,0.4-0.8,0.8-0.8l31.1,0.1
							c0.4,0,0.8,0.4,0.8,0.8l0,1.8C516,365.5,515.6,365.9,515.2,365.9z"/>
						<path class="st0" d="M482.3,365.4l0-2.6c0-0.2,0.2-0.4,0.4-0.4l7.4,0c0.2,0,0.4,0.2,0.4,0.4l0,2.6c0,0.2-0.2,0.4-0.4,0.4
							l-7.4,0C482.5,365.8,482.3,365.6,482.3,365.4z"/>
						<path class="st0" d="M482.8,363l31.1,0.1c3.1,0,3-3.7,2.8-12c0,0-7.1-0.3-11.7-0.3c-2.3,0-4,0.1-3.9,0.3
							c-2.7,2.5-5.7,4.8-8.3,5.4c-0.3,0.1-0.6,0.1-0.9,0.1c-4.2,0.2-6.6,0.5-6.6,0.5C481.8,357.2,481.4,362,482.8,363L482.8,363z"/>
						<path class="st0" d="M492.7,356.5c1.3,0.3,2.9,0.4,4.5,0.1c4.3-0.6,7.5-3.1,7.7-5.8c-2.3,0-4,0.1-3.9,0.3
							C498.3,353.5,495.3,355.9,492.7,356.5L492.7,356.5z"/>
						<path class="st0" d="M495.6,355.4c1-0.3,2,0.1,2.5,0.8"/>
						<path class="st0" d="M497.1,354.2c1.4-0.5,2.8,0.2,3.6,1.2"/>
						<path class="st0" d="M499,352.8c1.5-0.5,3,0.2,3.8,1.2"/>
						<polygon class="st3" points="501.4,351.5 516.9,356.7 516.6,351.1 						"/>
						<polygon class="st3" points="539.4,352 522.6,352 522.3,356.2 						"/>
						<rect x="522.3" y="251.4" class="st0" width="17.7" height="100.7"/>
						<rect x="499.8" y="251.4" class="st2" width="17.7" height="99.9"/>
						<rect x="499.7" y="251.4" class="st4" width="40.3" height="4"/>
						<line class="st0" x1="543.9" y1="267" x2="544.8" y2="273.9"/>
						<path class="st0" d="M553.6,260.4c0.2,0.4,0.3,0.9,0.3,1.4l0.6,6.4c0.3,3.3-2.2,5.5-5.5,5.9c-3.3,0.4-5.9,0.4-6.2-2.9
							l-0.7-8.4c-0.3-3.3,2.1-6.2,5.4-6.4C550.3,256.1,552.8,257.8,553.6,260.4L553.6,260.4z"/>
						<line class="st0" x1="541.2" y1="266.4" x2="543.8" y2="261.4"/>
						<g>
							<path class="st0" d="M497.1,181.4c-12.8,0.5-11,30.5-12,42.3l13.2-0.5l0.5,28.5l39.9-0.1l0.9-29.6l0.4,2.5l12.3-1.4
								c-1.1-11.3,0.2-39.6-11.1-42"/>
							<path class="st0" d="M535.6,248.3h-4.2c-0.8-4.8,6.1-65.9,3.4-68.5l6.3,1.2C543,184.5,535.5,244.3,535.6,248.3L535.6,248.3z"
								/>
							<polyline class="st0" points="521.9,194.1 521.9,211.7 516.7,211.7 516.7,194 							"/>
							<path class="st0" d="M518.3,198.5L518.3,198.5c0.6-0.6,1.5-0.6,2,0l0,0c0.5,0.5,0.5,1.4,0,2l0,0c-0.5,0.5-1.4,0.5-2,0l0,0
								C517.8,199.9,517.8,199,518.3,198.5z"/>
							<path class="st0" d="M518.3,202.4L518.3,202.4c0.6-0.6,1.5-0.6,2,0l0,0c0.5,0.5,0.5,1.4,0,2l0,0c-0.5,0.5-1.4,0.5-2,0l0,0
								C517.8,203.8,517.8,202.9,518.3,202.4z"/>
							<path class="st0" d="M518.4,206.7L518.4,206.7c0.6-0.6,1.5-0.6,2,0l0,0c0.5,0.5,0.5,1.4,0,2l0,0c-0.5,0.5-1.4,0.5-2,0l0,0
								C517.8,208.1,517.8,207.2,518.4,206.7z"/>
							<path class="st0" d="M513.5,174.5c-0.2,0-0.4,0.1-0.6,0.2c-1.2,0.1-5.1,1.9-6.1,2.6c-4.1,7.6-1.8,14.6,4.2,21.5l8.1-6.7
								l0.3-0.2l0.2,0.2l7.6,6.7c6-6.9,8.5-13.9,4.5-21.5c-0.8-0.6-3.4-1.8-5.1-2.3c0,0-0.1,0-0.1,0c-0.2-0.1-0.4-0.1-0.5-0.2
								c0,0,0,0,0,0c-0.5-0.1-0.9-0.2-1.3-0.3"/>
							<path class="st0" d="M513.5,174.4c-1.8,1.5-2.9,3.8-2.9,6.4c0,4.7,3.8,8.5,8.5,8.5c4.7,0,8.5-3.8,8.5-8.5
								c0-2.5-1.1-4.8-2.9-6.3"/>
							<path class="st0" d="M499.2,152.1c0,0.8,0,1.5,0.1,2.2c0,0,0,0.1,0,0.1c0.1,1,0.3,1.9,0.5,2.8c0.3,1,0.6,2,1,2.9
								c2.4,5.3,7,9.4,12.7,11v7.3c0,1.4,1.9,3.7,5.5,3.7s5.5-2.3,5.5-3.7v-7.3c5.7-1.6,10.3-5.7,12.7-11.1c0.5-1.1,0.9-2.2,1.1-3.4
								c0.2-0.7,0.3-1.4,0.4-2.1c0,0,0-0.1,0-0.1c0.1-0.8,0.2-1.6,0.2-2.4"/>
							<path class="st0" d="M538.9,150.4L538.9,150.4c0-0.4,0.1-0.8,0.1-1.2c0-0.1,0-0.2,0-0.3c0-0.2,0-0.4,0-0.6
								c0.4,0,0.8-0.2,1.1-0.3c1.2-0.6,2.1-1.9,2.1-3.3c0-0.4-0.1-0.8-0.2-1.2c0,0,0-0.1,0-0.1c-0.2-0.6-0.6-1.2-1.1-1.6
								c-0.6-0.5-1.3-0.8-2.1-0.8h-0.1c-0.3,0.1-0.6,0.2-0.9,0.2h0c-0.1,0-0.2,0-0.3,0c0,0,0,0-0.1,0h0c-1.6-0.2-2.8-1.5-2.8-3.1
								c0-0.5,0.1-0.9,0.3-1.3c0.1-0.2,0.2-0.5,0.4-0.7c-1.4-0.3-2.4-1.4-2.5-2.8c-0.3,0.1-0.7,0.2-1,0.2h-0.1c-1.3,0-2.5-0.8-2.9-2
								c0,0,0,0,0,0h0c-0.5,0.9-1.5,1.5-2.7,1.5c-1.3,0-2.4-0.8-2.9-1.9c-0.2,0.5-0.6,0.9-1,1.3c-0.5,0.4-1.2,0.6-1.9,0.6
								c-0.8,0-1.5-0.3-2.1-0.8c-0.4-0.4-0.7-0.8-0.9-1.4c-0.2,0.7-0.6,1.2-1.2,1.6c-0.5,0.4-1.1,0.6-1.8,0.6c-0.2,0-0.4,0-0.5,0
								c-1.2-0.2-2.2-1.1-2.5-2.2c0,0,0,0,0,0c-0.2,1.6-1.5,2.8-3.1,2.8c-0.4,0-0.8-0.1-1.1-0.2c-0.4-0.2-0.8-0.4-1.2-0.8
								c0,0.2,0,0.3,0,0.5c0,0.6-0.2,1.3-0.5,1.8h0c-0.2,0.3-0.5,0.6-0.8,0.8c0,0,0,0,0,0c-0.5,0.4-1.2,0.6-1.8,0.6
								c-0.3,0-0.6,0-0.8-0.1c0.5,0.5,0.8,1.2,0.8,1.9c0,0.1,0,0.2,0,0.2c0,1.2-0.7,2.2-1.7,2.8c-0.1,0.1-0.2,0.1-0.4,0.2
								c0,0,0,0,0,0c0,0,0,0,0,0h0c0,0,0,0-0.1,0l0,0c-0.3,0.1-0.7,0.2-1,0.2c-0.4,0-0.7-0.1-1.1-0.2c-0.4,0.1-0.8,0.3-1.2,0.6
								c-0.6,0.4-1,1-1.3,1.7c0,0,0,0,0.1,0c0,0-0.1,0.1-0.1,0.1c-0.1,0.4-0.2,0.7-0.2,1.1c0,1.5,0.9,2.8,2.2,3.4
								c0.4,0.2,0.9,0.3,1.4,0.3h0.1c0.1,0,0.2,0,0.3,0c-0.1,0.4-0.2,0.8-0.2,1.2c0,0.3-0.1,0.6-0.1,0.9l0,0 M526.6,144.3
								c0-0.8,0.7-1.5,1.5-1.5c0.8,0,1.5,0.7,1.5,1.5s-0.7,1.5-1.5,1.5C527.3,145.8,526.6,145.1,526.6,144.3z M512.9,156.2h11.7
								c0,1.4-0.6,2.7-1.5,3.7c-0.2,0.2-0.4,0.4-0.7,0.6c-1,0.8-2.3,1.2-3.6,1.2c-1.4,0-2.6-0.5-3.6-1.2c-0.3-0.2-0.6-0.5-0.8-0.8
								C513.4,158.8,512.9,157.6,512.9,156.2L512.9,156.2z M508,144.3c0-0.8,0.7-1.5,1.5-1.5c0.8,0,1.5,0.7,1.5,1.5
								s-0.7,1.5-1.5,1.5C508.6,145.8,508,145.1,508,144.3z"/>
							<path class="st0" d="M522.3,160.3c-0.1-0.2-0.3-0.3-0.5-0.5c-0.8-0.6-1.9-1.1-3.2-1.1c-1.2,0-2.3,0.4-3.1,1h0
								c-0.2,0.2-0.4,0.3-0.6,0.5"/>
							<path class="st0" d="M497.3,180.9l6.3-1.2c-2.7,2.6,4,63.7,3.2,68.5h-4.2C502.8,244.3,495.5,184.4,497.3,180.9z"/>
							<path class="st0" d="M537.4,162.2c1.5-0.2,2.7-1.5,2.7-3.1c0-0.6-0.2-1.1-0.4-1.6c0.1-0.1,0.2-0.2,0.3-0.3
								c0.2,0,0.5,0.1,0.7,0.1c1.7,0,3.2-1.4,3.2-3.2c0-0.8-0.3-1.5-0.8-2.1c-0.1-0.1-0.1-0.2-0.2-0.2h0.1c0.1,0,0.1,0,0.2,0
								c1.6-0.1,3-1.5,3-3.1c0-1-0.5-1.9-1.2-2.5l0,0c0,0-0.1-0.1-0.1-0.1c0.1,0,0.1,0,0.2-0.1c1.2-0.4,2.1-1.6,2.1-3
								c0-1.2-0.7-2.3-1.7-2.8c0-0.1,0-0.2,0-0.3c1-0.5,1.7-1.6,1.7-2.8c0-1.2-0.7-2.3-1.8-2.8c-0.1-0.1-0.3-0.1-0.4-0.2
								c0.1,0,0.3-0.1,0.4-0.2c1-0.5,1.7-1.6,1.7-2.8c0-1.7-1.3-3-2.9-3.1c0-0.1-0.1-0.3-0.1-0.4c0.6-0.6,1-1.4,1-2.3
								c0-1.8-1.4-3.1-3.1-3.2c0.3-0.5,0.5-1,0.5-1.7c0-1.7-1.4-3.1-3.2-3.1c-0.4,0-0.8,0.1-1.2,0.2c0,0.1-0.1,0.2-0.1,0.3
								c-0.1-0.1-0.1-0.1-0.2-0.2c0.1-0.1,0.2-0.1,0.3-0.1c0.1-0.2,0.1-0.5,0.1-0.8c0-1.7-1.4-3.1-3.2-3.1c-0.5,0-1,0.1-1.4,0.3
								c0-0.1,0-0.2,0-0.3c0-1.8-1.4-3.2-3.2-3.2c-0.8,0-1.5,0.3-2.1,0.8v0c0-1.7-1.4-3.2-3.2-3.2c-1.2,0-2.3,0.7-2.8,1.7
								c0,0.2,0.1,0.3,0.1,0.5c-0.1,0-0.2,0-0.3,0c0-0.2,0.1-0.3,0.2-0.5c-0.3-1.4-1.6-2.4-3.1-2.4c-1.4,0-2.5,0.9-3,2.1
								c-0.6-0.8-1.5-1.3-2.5-1.3c-1.7,0-3.2,1.4-3.2,3.2v0.1c0.1,0.1,0.1,0.1,0.1,0.2c0,0-0.1,0-0.1,0c0-0.1,0-0.2,0-0.2
								c-0.6-0.8-1.5-1.2-2.5-1.2c-1.7,0-3.2,1.4-3.2,3.2c0,0.4,0.1,0.7,0.2,1c0,0,0,0.1,0,0.1c0,0,0,0-0.1-0.1
								c-0.6-0.7-1.4-1.1-2.4-1.1c-1.8,0-3.2,1.4-3.2,3.1c0,0.5,0.1,1,0.3,1.4c-0.2,0-0.3,0-0.5,0c-1.7,0-3.2,1.4-3.2,3.2
								c0,0.5,0.1,0.9,0.3,1.3h-0.1c-1.7,0-3.2,1.4-3.2,3.2c0,1,0.5,2,1.3,2.5c0.1,0.1,0.2,0.1,0.3,0.2c-0.1,0-0.2,0-0.4,0h-0.1
								c-1.7,0-3.2,1.4-3.2,3.2c0,1.3,0.9,2.5,2,2.9c0,0,0,0,0.1,0c0,0,0,0-0.1,0c-1.2,0.4-2.1,1.6-2.1,3s0.8,2.5,2,2.9c0,0,0,0,0,0
								l0,0c0,0,0,0,0,0c-1.2,0.4-2,1.6-2,2.9c0,1.4,1,2.7,2.3,3c0,0,0.1-0.1,0.1-0.1c0,0.1,0,0.1,0,0.2c-0.1,0-0.1,0-0.2,0
								c-0.8,0.6-1.3,1.5-1.3,2.6c0,1.7,1.4,3.1,3.1,3.2c0,0,0,0.1,0,0.1c-0.6,0.6-0.9,1.3-0.9,2.2c0,1.8,1.4,3.2,3.2,3.2
								c0.3,0,0.5,0,0.8-0.1c0.1,0.1,0.2,0.2,0.3,0.3c-0.3,0.5-0.4,1-0.4,1.6c0,1.7,1.3,3.1,3,3.2 M545,140.1
								C545,140.1,545.1,140.1,545,140.1L545,140.1C545.1,140.1,545,140.1,545,140.1z"/>
						</g>
						<path class="st0" d="M505.4,254.8L505.4,254.8c-0.6,0-1.1-0.5-1.1-1.1v-2.4c0-0.6,0.5-1.1,1.1-1.1l0,0c0.6,0,1.1,0.5,1.1,1.1
							v2.4C506.5,254.3,506,254.8,505.4,254.8z"/>
						<path class="st0" d="M534.2,254.3L534.2,254.3c-0.6,0-1.1-0.5-1.1-1.1v-2.4c0-0.6,0.5-1.1,1.1-1.1l0,0c0.6,0,1.1,0.5,1.1,1.1
							v2.4C535.3,253.8,534.8,254.3,534.2,254.3z"/>
						<polygon class="st0" points="503.3,248.3 504.3,251.3 506.5,251.3 507.5,248.3 						"/>
						<polygon class="st0" points="532.1,248.3 533.1,251.4 535.3,251.4 536.3,248.3 						"/>
						<path class="st0" d="M480,275.1h17.5c1.2,0,2.2,1,2.2,2.2v37.7c0,1.2-1,2.2-2.2,2.2H480c-1.2,0-2.2-1-2.2-2.2v-37.7
							C477.8,276,478.8,275.1,480,275.1z"/>
						<path class="st0" d="M480.2,275.2h19.1c1.2,0,2.1,0.9,2.1,2.1v15.2c0,1.2-0.9,2.1-2.1,2.1h-19.1c-1.2,0-2.1-0.9-2.1-2.1v-15.2
							C478.1,276.1,479,275.2,480.2,275.2z"/>
						<path class="st0" d="M499.4,317.1h-4.8c-1,0-1.9-1-1.9-2.3v-31.2c0-0.3,0.3-0.6,0.6-0.6h7.3c0.3,0,0.6,0.3,0.6,0.6v31.2
							C501.3,316,500.5,317.1,499.4,317.1L499.4,317.1z"/>
						<rect x="476.2" y="274.7" class="st0" width="15.3" height="19.2"/>
						<path class="st0" d="M500.1,284.7v-8.9c-2.5-0.9-6.1-0.9-9.6,0l0,17"/>
						<path class="st0" d="M476.2,274.7c0.2,0.2,9.1-0.9,9.1-0.9l11.3,0.1l-7,1.2L476.2,274.7L476.2,274.7z"/>
						<path class="st0" d="M492.3,274.2L492.3,274.2c-0.7,0-1.2,0.3-1.2-0.4v-3.5c0-0.7,0.5-1.2,1.2-1.2l0,0c0.7,0,1.2,0.5,1.2,1.2
							v3.5C493.5,274.4,492.9,274.2,492.3,274.2z"/>
						<path class="st0" d="M486.4,274.2L486.4,274.2c-0.7,0-1.2,0.3-1.2-0.4v-3.5c0-0.7,0.5-1.2,1.2-1.2l0,0c0.7,0,1.2,0.5,1.2,1.2
							v3.5C487.6,274.4,487.1,274.2,486.4,274.2z"/>
						<path class="st0" d="M485.2,271.1h5.9l1.2-2h-5.9C485.7,269.1,485,269.5,485.2,271.1z"/>
						<rect x="480.3" y="289.8" class="st0" width="6.1" height="4.1"/>
						<rect x="481.6" y="293.6" class="st0" width="2.7" height="4.1"/>
						<path class="st0" d="M491.8,253l0.1,5.6c0,0-0.9,9.7-0.8,11.4c0.1,1.7,0.1,2.9-1,2.9c-1.4,0-2.7,0.3-4.5-0.3
							c-1.8-0.7-2.2-4.1-2-5.6c0.3-2.3,0.7-7.5,0.7-7.5l1.1-7.6l6.6-0.7L491.8,253L491.8,253z"/>
						<path class="st0" d="M493.2,269.4l-2.2-7.1L493.2,269.4z"/>
						<line class="st0" x1="493.2" y1="269.4" x2="491.1" y2="262.4"/>
						<polygon class="st0" points="542.5,225.3 551.6,224.4 551.8,228 542.5,228.4 						"/>
						<polygon class="st0" points="487.2,223.7 496.5,224.7 496.1,227.5 486.9,227 						"/>
					</g>
				</g>
				<path class="st0" d="M566.9,144.1c0,26.6-33.5,59-48.1,74c-15.3-15.8-48.2-47.4-48.2-74S492.2,96,518.8,96
					S566.9,117.5,566.9,144.1z"/>
			</g>
			<g>
				<g>
					<defs>
						<path id="SVGID_00000174576043205751176760000008498488520960432310_" d="M345.3,457.4c0,26.6-30.5,55.9-48.2,73.6
							c-16.7-17.1-48.2-47-48.2-73.6c0-26.6,21.6-48.2,48.2-48.2S345.3,430.8,345.3,457.4z"/>
					</defs>
					<clipPath id="SVGID_00000085225265331135402590000004872498395389443501_">
						<use xlink:href="#SVGID_00000174576043205751176760000008498488520960432310_"  style="overflow:visible;"/>
					</clipPath>
					<g style="clip-path:url(#SVGID_00000085225265331135402590000004872498395389443501_);">
						<ellipse class="st0" cx="297.2" cy="486.9" rx="71.7" ry="110.8"/>
						<g>
							<path class="st0" d="M336.8,482.6c-12.7-1-19.8-3.3-22.6-12.3c1.2-2.4,1.8-5.1,1.9-8c0-0.1,0-0.2,0-0.4c0-0.3,0-0.5,0-0.8
								v-0.2c0-0.3,0-0.5,0-0.8c0-0.2,0-0.4,0-0.5c1.8,0,3.3-1.4,3.4-3.2c0-0.1,0-0.2,0-0.3c0-2-1.6-3.6-3.6-3.6
								c-0.3,0-0.5,0-0.7,0.1h0c-0.2,0-0.3,0.1-0.4,0.1c0.3-1.7,0.1-3.8-3-4.6c-0.5-0.1-1.1-0.2-1.9-0.2l0,0c0,0,0,0-0.1,0
								c-0.4,0-0.7,0-1.1,0c-4.8,0-9.2-2-12.4-5.2c-0.5-0.5-1-1.1-1.4-1.7c-0.8-1-1.4-2.1-1.9-3.2c0,0,0-0.1,0-0.1
								c-0.1,0.3-0.2,0.6-0.3,0.9c-0.4,1.1-0.9,2.1-1.5,3.1c-0.5,0.8-1.1,1.6-1.7,2.4c-1.8,2-4.1,3.6-6.7,4.6
								c-0.5,0.2-1,0.3-1.6,0.5c0,0-0.1,0-0.1,0c-0.1,0-0.1,0-0.2,0.1c0,0-0.1,0-0.1,0c-1.9,0.5-2.4,1.6-2.1,3.1h0c0,0,0,0.1,0,0.1
								c-0.2,0-0.4-0.1-0.6-0.1c-2,0-3.6,1.6-3.6,3.6c0,0.1,0,0.2,0,0.4c0.2,1.6,1.4,2.9,3,3.2c0,0.2,0,0.4,0,0.6c0,0.3,0,0.5,0,0.8
								v0.2c0,0.3,0,0.5,0,0.8c0,0.1,0,0.3,0,0.4c0.1,3.3,1,6.4,2.5,9.1c-3.1,7.6-10.7,10.3-22.6,11.2c1-17.2,8.1-25,16.3-26.1
								c-1-2.2-1.7-4.5-2.1-7c0-0.2-0.1-0.5-0.1-0.7c-0.1-0.9-0.2-1.9-0.2-2.8c0-11.1,7.2-20.6,17.2-23.9c0.1,0,0.2-0.1,0.3-0.1
								c1.8-0.6,3.6-1,5.6-1.1c0.6,0,1.2-0.1,1.8-0.1h0.5c12.1,0,22.2,8.5,24.7,19.9l0,0c0.2,1.1,0.4,2.3,0.5,3.4
								c0.1,0.7,0.1,1.3,0.1,2c0,3.8-0.8,7.3-2.3,10.5C328.3,457.1,335.8,464.9,336.8,482.6L336.8,482.6z"/>
							<path class="st0" d="M305.2,486.6c3.5,0.8,6.5,2.8,8.7,5.5l-0.1-0.4c13.4-2,15,6.5,16.6,16.9l-3.3,0.5l-8.7,1.3l-0.8,0.1
								v45.9h-40.8v-45.9l-1.5-0.2l-8.7-1.3l-2.5-0.4c1.5-10.4,3.1-18.9,16.5-16.9l0,0.2c2-2.3,4.7-4.1,7.7-5"/>
							<path class="st0" d="M305.2,486.6c-1-0.2-2-0.4-3-0.4c1.5,1.4,2.4,3.4,2.4,5.6c0,4.3-3.5,7.7-7.7,7.7s-7.7-3.5-7.7-7.7
								c0-2.2,0.9-4.2,2.4-5.6c-1.1,0.1-2.1,0.3-3.1,0.6c-0.9,1.5-1.4,3.2-1.4,5c0,5.4,4.4,9.8,9.8,9.8c5.4,0,9.8-4.4,9.8-9.8
								C306.7,489.9,306.1,488.1,305.2,486.6L305.2,486.6z"/>
							<path class="st0" d="M319.5,456c0,0.1,0,0.2,0,0.3c-0.2,1.8-1.6,3.2-3.4,3.2h-0.1c0.1,0.4,0.1,0.9,0.1,1.3v0.2
								c0,0.3,0,0.5,0,0.8c0,0.1,0,0.2,0,0.4c0,2.9-0.7,5.6-1.9,8c-2.4,4.9-6.7,8.6-12,10.1v5.9c1.5,1.4,2.4,3.4,2.4,5.6
								c0,4.3-3.5,7.7-7.7,7.7s-7.7-3.5-7.7-7.7c0-2.2,0.9-4.2,2.4-5.6v-5.9c-4.9-1.4-8.9-4.6-11.4-8.9c-1.5-2.7-2.5-5.8-2.5-9.1
								c0-0.1,0-0.3,0-0.4c0-0.3,0-0.5,0-0.8v-0.2c0-0.5,0.1-0.9,0.1-1.3c0,0-0.1,0-0.1,0c-1.6-0.2-2.9-1.5-3-3.2c0-0.1,0-0.2,0-0.4
								c0-2,1.6-3.6,3.6-3.6c0.2,0,0.4,0,0.6,0.1c0,0,0-0.1,0-0.1h0c-0.3-1.5,0.2-2.6,2.1-3.1c0,0,0.1,0,0.1,0c0.1,0,0.1,0,0.2-0.1
								c0,0,0.1,0,0.1,0c0.5-0.1,1-0.3,1.6-0.5c2.6-1,4.9-2.5,6.7-4.6c0.6-0.7,1.2-1.5,1.7-2.4c0.6-1,1.1-2,1.5-3.1
								c0.1-0.3,0.2-0.6,0.3-0.9c0,0,0,0.1,0,0.1c0.5,1.1,1.2,2.2,1.9,3.2c0.4,0.6,0.9,1.2,1.4,1.7c3.1,3.2,7.5,5.2,12.4,5.2
								c0.4,0,0.8,0,1.1,0l0,0c0.7,0,1.3,0.1,1.9,0.2c3.1,0.7,3.2,2.8,3,4.6c0.1,0,0.3-0.1,0.4-0.1h0c0.2,0,0.5-0.1,0.7-0.1
								C317.9,452.4,319.5,454,319.5,456z"/>
							<path class="st0" d="M301.3,468c0,1.2-0.6,2.3-1.5,3c-0.7,0.5-1.6,0.9-2.6,0.9s-1.9-0.3-2.6-0.9c-0.9-0.7-1.5-1.8-1.5-3
								H301.3L301.3,468z"/>
							<path class="st0" d="M299.8,471c-0.7,0.5-1.6,0.9-2.6,0.9s-1.9-0.3-2.6-0.9c0.5-0.6,1.5-1.1,2.6-1.1S299.3,470.4,299.8,471z"
								/>
							<polygon class="st0" points="275.6,512.5 266.7,513.8 266.7,508.9 275.3,510.1 							"/>
							<path class="st0" d="M303.7,456.1c1.7-1,3.7-0.1,4.5,1.4"/>
							<path class="st0" d="M290.3,456.1c-1.7-1-3.7-0.1-4.5,1.4"/>
							<polygon class="st0" points="327.3,514.3 318.4,513 318.4,510.3 327.1,509 							"/>
						</g>
					</g>
				</g>
				<path class="st0" d="M345.3,457.4c0,26.6-30.5,55.9-48.2,73.6c-16.7-17.1-48.2-47-48.2-73.6c0-26.6,21.6-48.2,48.2-48.2
					S345.3,430.8,345.3,457.4z"/>
			</g>
			<g>
				<g>
					<defs>
						<path id="SVGID_00000036971873411705162120000015720819617839948476_" d="M260.5,104.6c0,26.6-33.5,59-48.1,74
							c-15.3-15.8-48.2-47.4-48.2-74s21.6-48.2,48.2-48.2S260.5,78,260.5,104.6z"/>
					</defs>
					<clipPath id="SVGID_00000030476726606622209330000015135543467982473126_">
						<use xlink:href="#SVGID_00000036971873411705162120000015720819617839948476_"  style="overflow:visible;"/>
					</clipPath>
					<g style="clip-path:url(#SVGID_00000030476726606622209330000015135543467982473126_);">
						<g>
							<ellipse class="st0" cx="208.6" cy="136.8" rx="105.8" ry="126.7"/>
							<path class="st0" d="M218,137.8c0.8,0.2,1.7,0.5,2.6,0.8c3.5,1.3,7.6,3.7,10.3,7.8c18.6-10.9,20.2,27.4,22.9,41.1l-14.4,3.3
								l-5-24v-0.1l0,55.6h-45.2v-42.1v0.1l-2.3,11.9l-14.5-3c2.4-13.2,3.4-49.1,20.1-42.5c3.1-4.7,7.7-7.1,11.6-8.3
								c0.6-0.2,1.1-0.3,1.7-0.5"/>
							<polyline class="st0" points="209.1,158.5 209.1,177.1 214.6,177.1 214.6,158.5 							"/>
							<path class="st0" d="M210.7,163.1L210.7,163.1c0.6-0.6,1.6-0.6,2.1,0l0,0c0.6,0.6,0.6,1.5,0,2.1l0,0c-0.6,0.6-1.5,0.6-2.1,0
								l0,0C210.2,164.6,210.2,163.7,210.7,163.1z"/>
							<path class="st0" d="M210.7,167.2L210.7,167.2c0.6-0.6,1.5-0.6,2.1,0l0,0c0.6,0.6,0.6,1.5,0,2.1l0,0c-0.6,0.6-1.5,0.6-2.1,0
								l0,0C210.1,168.7,210.1,167.8,210.7,167.2z"/>
							<path class="st0" d="M210.7,173.9L210.7,173.9c-0.6-0.6-0.6-1.5,0-2.1l0,0c0.6-0.6,1.5-0.6,2.1,0l0,0c0.6,0.6,0.6,1.5,0,2.1
								l0,0C212.2,174.5,211.2,174.5,210.7,173.9z"/>
							<path class="st0" d="M218.6,137.9c1.2,0.1,5.5,2,6.6,2.8c4.3,8,1.9,15.5-4.4,22.7l-8.5-7l-0.3-0.2l-0.3,0.2l-8,7.1
								c-6.3-7.3-9-14.7-4.7-22.7c0.8-0.6,3.6-1.9,5.3-2.5c0.3-0.1,0.5-0.2,0.7-0.2"/>
							<path class="st0" d="M239.9,95.2c0.1,0.9,0.1,1.7,0.1,2.6c0,1.1-0.1,2.1-0.2,3.2c0,0.3-0.1,0.5-0.1,0.8
								c-0.8,5.6-0.8,10.6-4.4,14.6c-1,1.1-2.1,1.9-3.3,2.5c0.8-2.2,1.2-4.6,1.2-7.1c0-0.3,0-0.6,0-0.9c0-0.3,0-0.5,0-0.8
								c0-0.6,0.1-1.1,0.1-1.7c0-0.2,0-0.4,0-0.5c1.9-0.3,3.4-2,3.4-4.1c0-2.3-1.8-4.1-3.9-4.1c-0.2,0-0.4,0-0.7,0.1
								c0.1-0.4,0.3-0.8,0.4-1.2c0.5-1.8,0.8-3.7,0.9-5.6c-5.5,1.2-12.2-3.6-16.6-8.6c0,0,0,0,0.1,0h-0.1c0,0,0,0,0,0
								c-1,1-2.2,1.9-3.5,2.7c-3.2,2.1-7.1,3.6-11.4,4c-0.5,0-1,0.1-1.5,0.1c-0.1-0.2-0.1-0.4-0.2-0.6c-0.3-1.3-0.4-2.9-0.1-4.3
								c-2.4,1.5-3.3,3.8-3.8,5.3c-1.2,0.1-2.2,0.2-3,0.3c-0.7,0.1-1.3,0.2-1.9,0.3c0,0.1,0,0.2,0,0.3c-0.2,2.1,0,4.1,0.4,6
								c0.1,0.5,0.2,0.9,0.4,1.3c-0.4-0.1-0.8-0.2-1.2-0.2c-0.3,0-0.6,0-0.8,0.1c-1.1,0.2-2,0.9-2.5,1.8c-0.1,0.1-0.1,0.2-0.1,0.2
								c-0.4,0.6-0.5,1.3-0.5,2c0,1,0.3,1.8,0.9,2.5c0,0,0,0,0.1,0.1c0.1,0.1,0.1,0.1,0.2,0.2c0.7,0.8,1.6,1.2,2.7,1.3
								c0,0.2,0,0.3,0,0.5c0,0.6,0,1.1,0.1,1.7c0,0.2,0,0.5,0,0.7c0,0.3,0,0.7,0,1c0,2.6,0.5,5.1,1.3,7.4c-1.3-0.6-2.5-1.4-3.5-2.5
								c-4.3-4.8-4.5-11.3-4.5-18.8c0-0.8,0-1.5,0.1-2.2c0-0.1,0-0.3,0-0.4c-0.1-0.9-0.1-1.7-0.1-2.6c0-0.8,0-1.5,0.1-2.2
								c0.1-1.3,0.3-2.5,0.6-3.8v0c2.1-9.5,10.4-19.8,17.6-19.3c3.1,0.2-1-2.1,9.9-2.8h0.2c0.1,0,0.3,0,0.4,0c0.7,0,1.3,0,2,0.1
								c2.1,0.2,4.2,0.6,6.2,1.3c0.1,0,0.2,0.1,0.3,0.1c11.1,3.8,19,14.2,19,26.6C240.1,93.5,240,94.4,239.9,95.2L239.9,95.2z"/>
							<path class="st0" d="M233.3,107.9c0,0.2,0,0.4,0,0.5c0,0.6,0,1.1-0.1,1.7c0,0.3,0,0.8,0,0.8c0,0.3,0,0.6,0,0.9
								c0,2.5-0.4,4.9-1.2,7.1c-2.3,6.5-7.6,11.5-14.2,13.4v2.7h0v2.7c1.6,1.5,2.6,3.7,2.6,6.1c0,4.7-3.8,8.5-8.5,8.5
								c-4.7,0-8.5-3.8-8.5-8.5c0-2.5,1-4.7,2.7-6.2v-1.9c0-0.1,0-0.2,0-0.3v-3.1c-6.5-1.9-11.8-6.8-14.1-13.1
								c-0.9-2.3-1.3-4.8-1.3-7.4c0-0.3,0-0.7,0-1c0,0.1,0.1-0.4,0-0.7c0-0.6-0.1-1.1-0.1-1.7c0-0.2,0-0.3,0-0.5
								c-1.1,0-2-0.5-2.7-1.3c-0.1-0.1-0.1-0.1-0.2-0.2c0,0,0,0-0.1-0.1c-0.5-0.7-0.8-1.6-0.8-2.5c0-0.7,0.2-1.4,0.5-2
								c0-0.1,0.1-0.2,0.1-0.2c0.5-0.9,1.4-1.6,2.5-1.8c0.3-0.1,0.5-0.1,0.8-0.1c0.4,0,0.8,0.1,1.2,0.2c-0.1-0.4-0.3-0.9-0.4-1.3
								c-0.5-1.9-0.6-3.9-0.4-6c0-0.1,0-0.2,0-0.3c0.6-0.1,1.2-0.2,1.9-0.3c0.9-0.1,1.9-0.2,3-0.3c0.5-1.4,1.4-3.8,3.8-5.3
								c-0.3,1.4-0.3,3,0.1,4.3c0,0.2,0.1,0.4,0.2,0.6c0.5,0,1-0.1,1.5-0.1c4.3-0.4,8.3-2,11.4-4c1.3-0.8,2.5-1.8,3.5-2.7
								c4.5,5,11.1,9.8,16.6,8.6c0,1.9-0.3,3.8-0.9,5.6c-0.1,0.4-0.2,0.8-0.4,1.2c0.2,0,0.4-0.1,0.7-0.1c2.2,0,3.9,1.8,3.9,4.1
								C236.7,105.9,235.2,107.6,233.3,107.9L233.3,107.9z"/>
							<g>
								<path class="st0" d="M227.1,109.5l-0.3,0.3c0,0-0.1,0-0.1,0.1c-0.1,0.1-0.2,0.1-0.3,0.2c-0.1,0-0.1,0.1-0.2,0.1
									c-0.1,0.1-0.2,0.1-0.3,0.2l-5.3-10.1c0.4-0.1,0.8-0.1,1.2-0.1c0.1,0,0.2,0,0.3,0L227.1,109.5z"/>
								<path class="st0" d="M220.7,100.3l5.3,10.1c-1.2,0.7-2.6,1.1-4.2,1.1c-3.9,0-7.1-2.5-7.1-5.6v0c0-0.9,0.3-1.8,0.8-2.5
									C216.5,101.7,218.5,100.6,220.7,100.3z"/>
								<path class="st0" d="M229,105.8c0,0.3,0,0.6-0.1,0.9c-0.1,0.6-0.4,1.1-0.7,1.7c-0.3,0.5-0.8,1-1.3,1.4l0.3-0.3l-4.9-9.3
									c3.2,0.1,5.8,1.8,6.5,4.1C229,104.8,229,105.3,229,105.8z"/>
								<path class="st0" d="M207.4,109.6L207.4,109.6C207.4,109.6,207.4,109.6,207.4,109.6c-0.2,0.2-0.3,0.2-0.4,0.3
									c-0.3,0.2-0.6,0.4-1,0.6c0,0,0,0,0,0c0,0,0,0,0,0l-5.5-10.2c0.1,0,0.2,0,0.3-0.1c0.2,0,0.3,0,0.5-0.1c0.3,0,0.6,0,0.9,0h0.1
									L207.4,109.6L207.4,109.6z"/>
								<path class="st0" d="M200.5,100.4l5.5,10.2c-0.2,0.1-0.4,0.2-0.7,0.3c-0.1,0-0.2,0.1-0.4,0.1c-0.1,0-0.3,0.1-0.4,0.1
									c-0.2,0-0.3,0.1-0.5,0.1c0,0-0.1,0-0.1,0c-0.2,0-0.3,0-0.5,0.1c-0.2,0-0.4,0.1-0.7,0.1c-0.2,0-0.4,0-0.7,0
									c-1.1,0-2.2-0.2-3.2-0.6c-1.9-0.8-3.3-2.2-3.8-3.9c0-0.1,0-0.2-0.1-0.3c0-0.3-0.1-0.5-0.1-0.8v-0.1c0-0.2,0-0.4,0-0.5
									c0,0,0,0,0,0v0c0-0.2,0.1-0.4,0.1-0.5c0,0,0,0,0,0c0-0.1,0-0.2,0.1-0.2c0-0.1,0-0.2,0.1-0.3c0.1-0.2,0.2-0.3,0.3-0.5
									c0.1-0.1,0.2-0.3,0.3-0.4c0-0.1,0.1-0.1,0.1-0.2c0.1-0.1,0.2-0.3,0.3-0.4c0.1-0.1,0.3-0.3,0.4-0.4c0.1-0.1,0.3-0.3,0.4-0.4
									c0,0,0,0,0.1-0.1c0.1-0.1,0.3-0.2,0.5-0.3c0.2-0.1,0.4-0.2,0.5-0.3c0.2-0.1,0.4-0.2,0.6-0.3h0c0.2-0.1,0.3-0.1,0.5-0.2
									c0.1,0,0.2-0.1,0.3-0.1c0.2,0,0.3-0.1,0.5-0.1C200.3,100.4,200.4,100.4,200.5,100.4L200.5,100.4z"/>
								<path class="st0" d="M209.3,105.8L209.3,105.8c0,0.2,0,0.4,0,0.6c0,0.2-0.1,0.4-0.1,0.6c0,0.2-0.1,0.4-0.2,0.5
									c-0.1,0.2-0.1,0.3-0.2,0.5c-0.1,0.1-0.1,0.3-0.2,0.4c-0.1,0.1-0.2,0.3-0.3,0.4c0,0,0,0,0,0c-0.1,0.1-0.2,0.2-0.3,0.3
									c-0.2,0.2-0.3,0.3-0.5,0.4l-5.1-9.4c2.8,0,5.2,1.3,6.3,3.1l0,0C209.1,104.1,209.3,104.9,209.3,105.8L209.3,105.8z"/>
								<path class="st0" d="M215.6,102.4l-0.1,0.9c-0.5,0.8-0.8,1.6-0.8,2.5v0c-1.9-1.9-3.7-1.8-5.4,0v0c0-0.9-0.2-1.7-0.7-2.5l0,0
									l0-0.9C210.7,103.1,213.4,103.1,215.6,102.4L215.6,102.4z"/>
								<path class="st0" d="M195.3,104.4c0,0.1-0.1,0.2-0.1,0.2c0,0,0,0,0,0c-0.1,0.2-0.1,0.4-0.1,0.5v0c0,0,0,0,0,0
									c0,0.2,0,0.4,0,0.5v0.1c0,0.3,0,0.5,0.1,0.8c0,0,0,0.1-0.1,0.1c-0.2,0.3-0.3,0.6-0.4,0.5l0-0.1l-1.7-2.6l-0.8-1.3l-0.9-1.3
									c-0.1-0.1-0.3-0.4-0.5-0.5c-0.1-0.1-0.2-0.1-0.3-0.1h0c-0.4,0,0.5-1.7,1.7-1.2c0.2,0.1,0.5,0.2,0.7,0.5l0.2,0.3l1,1.5
									l0.1,0.2l0.5,0.8l0,0L195.3,104.4L195.3,104.4L195.3,104.4z"/>
								<path class="st0" d="M233.8,101.3C233.8,101.3,233.8,101.3,233.8,101.3C233.7,101.3,233.7,101.3,233.8,101.3
									c-0.2,0-0.3,0.1-0.4,0.2c-0.2,0.2-0.4,0.5-0.5,0.5l-0.5,0.7l-0.9,1.3l-2,3l0,0l-0.1,0.2c0,0.1-0.1,0-0.2-0.1
									c-0.1-0.1-0.2-0.3-0.3-0.5c0.1-0.3,0.1-0.6,0.1-0.9c0-0.5-0.1-1-0.3-1.5l1.6-2.4l0.9-1.3c0.1-0.1,0.1-0.1,0.2-0.2
									c0.5-0.5,1-0.5,1.4-0.3C233.5,100.4,233.9,101.1,233.8,101.3L233.8,101.3z"/>
							</g>
							<path class="st0" d="M207.4,122.1c0,0,0.9,2.5,4.8,2.5c3.9,0,4.6-2.5,4.6-2.5"/>
						</g>
					</g>
				</g>
				<path class="st0" d="M260.5,104.6c0,26.6-33.5,59-48.1,74c-15.3-15.8-48.2-47.4-48.2-74s21.6-48.2,48.2-48.2
					S260.5,78,260.5,104.6z"/>
			</g>
			<g>
				<g>
					<defs>
						<path id="SVGID_00000161592642922106827100000010983911887933841558_" d="M374.4,334.9c0,26.6-33.5,59-48.1,74
							c-15.3-15.8-48.2-47.4-48.2-74s21.6-48.2,48.2-48.2C352.8,286.8,374.4,308.3,374.4,334.9z"/>
					</defs>
					<clipPath id="SVGID_00000067933190241341379690000014187039243194686646_">
						<use xlink:href="#SVGID_00000161592642922106827100000010983911887933841558_"  style="overflow:visible;"/>
					</clipPath>
					<g style="clip-path:url(#SVGID_00000067933190241341379690000014187039243194686646_);">
						<g>
							<ellipse class="st0" cx="322.5" cy="367.2" rx="105.8" ry="126.7"/>
							<path class="st0" d="M331.9,368.2c0.8,0.2,1.7,0.5,2.6,0.8c3.5,1.3,7.6,3.7,10.3,7.8c18.6-10.9,20.2,27.4,22.9,41.1
								l-14.4,3.3l-5-24v-0.1l0,55.6h-45.2v-42.1v0.1l-2.3,11.9l-14.5-3c2.4-13.2,3.4-49.1,20.1-42.5c3.1-4.7,7.7-7.1,11.6-8.3
								c0.6-0.2,1.1-0.3,1.7-0.5"/>
							<polyline class="st0" points="323,388.9 323,407.4 328.5,407.4 328.5,388.9 							"/>
							<path class="st0" d="M324.6,393.5L324.6,393.5c0.6-0.6,1.5-0.6,2.1,0l0,0c0.6,0.6,0.6,1.5,0,2.1l0,0c-0.6,0.6-1.5,0.6-2.1,0
								l0,0C324.1,395,324.1,394.1,324.6,393.5z"/>
							<path class="st0" d="M324.6,397.6L324.6,397.6c0.6-0.6,1.5-0.6,2.1,0l0,0c0.6,0.6,0.6,1.5,0,2.1l0,0c-0.6,0.6-1.5,0.6-2.1,0
								l0,0C324,399.1,324,398.2,324.6,397.6z"/>
							<path class="st0" d="M324.5,404.2L324.5,404.2c-0.6-0.6-0.6-1.5,0-2.1l0,0c0.6-0.6,1.5-0.6,2.1,0l0,0c0.6,0.6,0.6,1.5,0,2.1
								l0,0C326.1,404.8,325.1,404.8,324.5,404.2z"/>
							<path class="st0" d="M332.5,368.3c1.2,0.1,5.5,2,6.6,2.8c4.3,8,1.9,15.5-4.4,22.7l-8.5-7l-0.3-0.2l-0.3,0.2l-8,7.1
								c-6.3-7.3-9-14.7-4.7-22.7c0.8-0.6,3.6-1.9,5.3-2.5c0.3-0.1,0.5-0.2,0.7-0.2"/>
							<path class="st0" d="M353.8,325.6c0.1,0.9,0.1,1.7,0.1,2.6c0,1.1-0.1,2.1-0.2,3.2c0,0.3-0.1,0.5-0.1,0.8
								c-0.8,5.6-0.8,10.6-4.4,14.6c-1,1.1-2.1,1.9-3.3,2.5c0.8-2.2,1.2-4.6,1.2-7.1c0-0.3,0-0.6,0-0.9c0-0.3,0-0.5,0-0.8
								c0-0.6,0.1-1.1,0.1-1.7c0-0.2,0-0.4,0-0.5c1.9-0.3,3.4-2,3.4-4.1c0-2.3-1.8-4.1-3.9-4.1c-0.2,0-0.4,0-0.7,0.1
								c0.1-0.4,0.3-0.8,0.4-1.2c0.5-1.8,0.8-3.7,0.9-5.6c-5.5,1.2-12.2-3.6-16.6-8.6c0,0,0,0,0.1,0h-0.1c0,0,0,0,0,0
								c-1,1-2.2,1.9-3.5,2.7c-3.2,2.1-7.1,3.6-11.4,4c-0.5,0-1,0.1-1.5,0.1c-0.1-0.2-0.1-0.4-0.2-0.6c-0.3-1.3-0.4-2.9-0.1-4.3
								c-2.4,1.5-3.3,3.8-3.8,5.3c-1.2,0.1-2.2,0.2-3,0.3c-0.7,0.1-1.3,0.2-1.9,0.3c0,0.1,0,0.2,0,0.3c-0.2,2.1,0,4.1,0.4,6
								c0.1,0.5,0.2,0.9,0.4,1.3c-0.4-0.1-0.8-0.2-1.2-0.2c-0.3,0-0.6,0-0.8,0.1c-1.1,0.2-2,0.9-2.5,1.8c-0.1,0.1-0.1,0.2-0.1,0.2
								c-0.4,0.6-0.5,1.3-0.5,2c0,1,0.3,1.8,0.9,2.5c0,0,0,0,0.1,0.1c0.1,0.1,0.1,0.1,0.2,0.2c0.7,0.8,1.6,1.2,2.7,1.3
								c0,0.2,0,0.3,0,0.5c0,0.6,0,1.1,0.1,1.7c0,0.2,0,0.5,0,0.7c0,0.3,0,0.7,0,1c0,2.6,0.5,5.1,1.3,7.4c-1.3-0.6-2.5-1.4-3.5-2.5
								c-4.3-4.8-4.5-11.3-4.5-18.8c0-0.8,0-1.5,0.1-2.2c0-0.1,0-0.3,0-0.4c-0.1-0.9-0.1-1.7-0.1-2.6c0-0.8,0-1.5,0.1-2.2
								c0.1-1.3,0.3-2.5,0.6-3.8v0c2.1-9.5,10.4-19.8,17.6-19.3c3.1,0.2-1-2.1,9.9-2.8h0.2c0.1,0,0.3,0,0.4,0c0.7,0,1.3,0,2,0.1
								c2.1,0.2,4.2,0.6,6.2,1.3c0.1,0,0.2,0.1,0.3,0.1c11.1,3.8,19,14.2,19,26.6C354,323.9,353.9,324.7,353.8,325.6L353.8,325.6z"
								/>
							<path class="st0" d="M347.2,338.3c0,0.2,0,0.4,0,0.5c0,0.6,0,1.1-0.1,1.7c0,0.3,0,0.8,0,0.8c0,0.3,0,0.6,0,0.9
								c0,2.5-0.4,4.9-1.2,7.1c-2.3,6.5-7.6,11.5-14.2,13.4v2.7h0v2.7c1.6,1.5,2.6,3.7,2.6,6.1c0,4.7-3.8,8.5-8.5,8.5
								c-4.7,0-8.5-3.8-8.5-8.5c0-2.5,1-4.7,2.7-6.2v-1.9c0-0.1,0-0.2,0-0.3v-3.1c-6.5-1.9-11.8-6.8-14.1-13.1
								c-0.9-2.3-1.3-4.8-1.3-7.4c0-0.3,0-0.7,0-1c0,0.1,0.1-0.4,0-0.7c0-0.6-0.1-1.1-0.1-1.7c0-0.2,0-0.3,0-0.5
								c-1.1,0-2-0.5-2.7-1.3c-0.1-0.1-0.1-0.1-0.2-0.2c0,0,0,0-0.1-0.1c-0.5-0.7-0.8-1.6-0.8-2.5c0-0.7,0.2-1.4,0.5-2
								c0-0.1,0.1-0.2,0.1-0.2c0.5-0.9,1.4-1.6,2.5-1.8c0.3-0.1,0.5-0.1,0.8-0.1c0.4,0,0.8,0.1,1.2,0.2c-0.1-0.4-0.3-0.9-0.4-1.3
								c-0.5-1.9-0.6-3.9-0.4-6c0-0.1,0-0.2,0-0.3c0.6-0.1,1.2-0.2,1.9-0.3c0.9-0.1,1.9-0.2,3-0.3c0.5-1.4,1.4-3.8,3.8-5.3
								c-0.3,1.4-0.3,3,0.1,4.3c0,0.2,0.1,0.4,0.2,0.6c0.5,0,1-0.1,1.5-0.1c4.3-0.4,8.3-2,11.4-4c1.3-0.8,2.5-1.8,3.5-2.7
								c4.5,5,11.1,9.8,16.6,8.6c0,1.9-0.3,3.8-0.9,5.6c-0.1,0.4-0.2,0.8-0.4,1.2c0.2,0,0.4-0.1,0.7-0.1c2.2,0,3.9,1.8,3.9,4.1
								C350.6,336.3,349.1,338,347.2,338.3L347.2,338.3z"/>
							<g>
								<path class="st0" d="M341,339.9l-0.3,0.3c0,0-0.1,0-0.1,0.1c-0.1,0.1-0.2,0.1-0.3,0.2c-0.1,0-0.1,0.1-0.2,0.1
									c-0.1,0.1-0.2,0.1-0.3,0.2l-5.3-10.1c0.4-0.1,0.8-0.1,1.2-0.1c0.1,0,0.2,0,0.3,0L341,339.9z"/>
								<path class="st0" d="M334.6,330.6l5.3,10.1c-1.2,0.7-2.6,1.1-4.2,1.1c-3.9,0-7.1-2.5-7.1-5.6v0c0-0.9,0.3-1.8,0.8-2.5
									C330.5,332.1,332.4,330.9,334.6,330.6L334.6,330.6z"/>
								<path class="st0" d="M342.9,336.2c0,0.3,0,0.6-0.1,0.9c-0.1,0.6-0.4,1.1-0.7,1.7c-0.3,0.5-0.8,1-1.3,1.4l0.3-0.3l-4.9-9.3
									c3.2,0.1,5.8,1.8,6.5,4.1C342.9,335.2,342.9,335.7,342.9,336.2L342.9,336.2z"/>
								<path class="st0" d="M321.3,339.9L321.3,339.9C321.3,339.9,321.3,340,321.3,339.9c-0.2,0.2-0.3,0.2-0.4,0.3
									c-0.3,0.2-0.6,0.4-1,0.6c0,0,0,0,0,0c0,0,0,0,0,0l-5.5-10.2c0.1,0,0.2,0,0.3-0.1c0.2,0,0.3,0,0.5-0.1c0.3,0,0.6,0,0.9,0h0.1
									L321.3,339.9L321.3,339.9z"/>
								<path class="st0" d="M314.4,330.7l5.5,10.2c-0.2,0.1-0.4,0.2-0.7,0.3c-0.1,0-0.2,0.1-0.4,0.1c-0.1,0-0.3,0.1-0.4,0.1
									c-0.2,0-0.3,0.1-0.5,0.1c0,0-0.1,0-0.1,0c-0.2,0-0.3,0-0.5,0.1c-0.2,0-0.4,0.1-0.7,0.1c-0.2,0-0.4,0-0.7,0
									c-1.1,0-2.2-0.2-3.2-0.6c-1.9-0.8-3.3-2.2-3.8-3.9c0-0.1,0-0.2-0.1-0.3c0-0.3-0.1-0.5-0.1-0.8v-0.1c0-0.2,0-0.4,0-0.5
									c0,0,0,0,0,0v0c0-0.2,0.1-0.4,0.1-0.5c0,0,0,0,0,0c0-0.1,0-0.2,0.1-0.2c0-0.1,0-0.2,0.1-0.3c0.1-0.2,0.2-0.3,0.3-0.5
									c0.1-0.1,0.2-0.3,0.3-0.4c0-0.1,0.1-0.1,0.1-0.2c0.1-0.1,0.2-0.3,0.3-0.4c0.1-0.1,0.3-0.3,0.4-0.4c0.1-0.1,0.3-0.3,0.4-0.4
									c0,0,0,0,0.1-0.1c0.1-0.1,0.3-0.2,0.5-0.3c0.2-0.1,0.4-0.2,0.5-0.3c0.2-0.1,0.4-0.2,0.6-0.3h0c0.2-0.1,0.3-0.1,0.5-0.2
									c0.1,0,0.2-0.1,0.3-0.1c0.2,0,0.3-0.1,0.5-0.1C314.2,330.8,314.3,330.7,314.4,330.7L314.4,330.7z"/>
								<path class="st0" d="M323.2,336.2L323.2,336.2c0,0.2,0,0.4,0,0.6c0,0.2-0.1,0.4-0.1,0.6c0,0.2-0.1,0.4-0.2,0.5
									c-0.1,0.2-0.1,0.3-0.2,0.5c-0.1,0.1-0.1,0.3-0.2,0.4c-0.1,0.1-0.2,0.3-0.3,0.4c0,0,0,0,0,0c-0.1,0.1-0.2,0.2-0.3,0.3
									c-0.2,0.2-0.3,0.3-0.5,0.4l-5.1-9.4c2.8,0,5.2,1.3,6.3,3.1l0,0C323,334.4,323.2,335.3,323.2,336.2L323.2,336.2z"/>
								<path class="st0" d="M329.5,332.8l-0.1,0.9c-0.5,0.8-0.8,1.6-0.8,2.5v0c-1.9-1.9-3.7-1.8-5.4,0v0c0-0.9-0.2-1.7-0.7-2.5l0,0
									l0-0.9C324.6,333.5,327.3,333.5,329.5,332.8L329.5,332.8z"/>
								<path class="st0" d="M309.2,334.8c0,0.1-0.1,0.2-0.1,0.2c0,0,0,0,0,0c-0.1,0.2-0.1,0.4-0.1,0.5v0c0,0,0,0,0,0
									c0,0.2,0,0.4,0,0.5v0.1c0,0.3,0,0.5,0.1,0.8c0,0,0,0.1-0.1,0.1c-0.2,0.3-0.3,0.6-0.4,0.5l0-0.1l-1.7-2.6l-0.8-1.3l-0.9-1.3
									c-0.1-0.1-0.3-0.4-0.5-0.5c-0.1-0.1-0.2-0.1-0.3-0.1h0c-0.4,0,0.5-1.7,1.7-1.2c0.2,0.1,0.5,0.2,0.7,0.5l0.2,0.3l1,1.5
									l0.1,0.2l0.5,0.8l0,0L309.2,334.8L309.2,334.8L309.2,334.8z"/>
								<path class="st0" d="M347.7,331.6C347.7,331.6,347.7,331.6,347.7,331.6C347.6,331.7,347.6,331.7,347.7,331.6
									c-0.2,0-0.3,0.1-0.4,0.2c-0.2,0.2-0.4,0.5-0.5,0.5l-0.5,0.7l-0.9,1.3l-2,3l0,0l-0.1,0.2c0,0.1-0.1,0-0.2-0.1
									c-0.1-0.1-0.2-0.3-0.3-0.5c0.1-0.3,0.1-0.6,0.1-0.9c0-0.5-0.1-1-0.3-1.5l1.6-2.4l0.9-1.3c0.1-0.1,0.1-0.1,0.2-0.2
									c0.5-0.5,1-0.5,1.4-0.3C347.4,330.7,347.8,331.5,347.7,331.6L347.7,331.6z"/>
							</g>
							<path class="st0" d="M321.3,352.5c0,0,0.9,2.5,4.8,2.5c3.9,0,4.6-2.5,4.6-2.5"/>
						</g>
					</g>
				</g>
				<path class="st0" d="M374.4,334.9c0,26.6-33.5,59-48.1,74c-15.3-15.8-48.2-47.4-48.2-74s21.6-48.2,48.2-48.2
					C352.8,286.8,374.4,308.3,374.4,334.9z"/>
			</g>
			<g>
				<g>
					<defs>
						<path id="SVGID_00000170979528810363326340000006703026871330158778_" d="M481.7,320.2c0,26.6-32.9,58.5-48.5,74.1
							c-16.8-17.4-47.8-47.6-47.8-74.1s21.6-48.2,48.2-48.2C460.2,272.1,481.7,293.6,481.7,320.2L481.7,320.2z"/>
					</defs>
					<clipPath id="SVGID_00000144326910186877619720000003232172410672821421_">
						<use xlink:href="#SVGID_00000170979528810363326340000006703026871330158778_"  style="overflow:visible;"/>
					</clipPath>
					<g style="clip-path:url(#SVGID_00000144326910186877619720000003232172410672821421_);">
						<ellipse class="st0" cx="433.6" cy="314.1" rx="52.8" ry="93.1"/>
						<path class="st0" d="M467.5,387.4l-9.3,2.3v39.1h-45.2v-43.1l-7.8-1.1c1.6-10.6-0.1-35.7,14-35.3c1.2-0.9,2.5-1.6,4-2.2
							c0.7-0.3,1.4-0.5,2.2-0.7c-0.8,1.1-1.4,2.3-1.7,3.7c-0.1,0.5-0.1,0.9-0.1,1.4c0,4.9,4.5,8.9,9.9,8.9s10-4,10-8.9
							c0-0.6,0-1.1-0.2-1.6c-0.3-1.6-1.1-3-2.3-4.2c0.3,0,0.6,0,0.9,0c1.2,0.1,2.3,0.3,3.4,0.5c3.3,0.8,6.1,2.4,8.3,4.4
							C464.2,349.7,465.5,376.9,467.5,387.4L467.5,387.4z"/>
						<path class="st0" d="M455.8,326.2c-1.3,2.6,0.6,4.8,0.6,4.8s-2.3,1.5-4.9,2c0.8-1.2,1.3-2.5,1.8-3.9c0.4-1.5,0.7-3,0.7-4.6
							c0-0.3,0-0.6,0-0.8c0-0.2,0-0.4,0-0.6v0c0-0.4,0.1-0.9,0.1-1.3v-0.1c0-0.2,0-0.3,0-0.5c0.2,0,0.5,0,0.7-0.1
							c0.1,0,0.2,0,0.3-0.1c0.1,0,0.2,0,0.3-0.1c0.2,0,0.3-0.1,0.5-0.2c0.1-0.1,0.3-0.2,0.4-0.2c0.9-0.6,1.5-1.5,1.5-2.6
							c0-1.1-0.6-2-1.5-2.6c-0.1-0.1-0.3-0.2-0.4-0.2c-0.2-0.1-0.3-0.2-0.5-0.2c-0.1,0-0.2-0.1-0.3-0.1c-0.1,0-0.2,0-0.3-0.1
							c-0.2,0-0.5-0.1-0.7-0.1c0-0.5,0-1-0.1-1.5h0c-0.8,0.1-1.6,0-2.4-0.1c-3.3-0.8-6.4-3.9-8.7-7.4c-0.7-1-1.3-2.1-1.9-3.2l0,0
							c-0.5,0.7-1.1,1.3-1.8,1.9c-0.9,0.8-1.8,1.6-2.9,2.3c-0.3,0.2-0.6,0.4-0.9,0.6c-0.3,0.2-0.6,0.4-0.9,0.5
							c-0.5,0.3-1,0.5-1.5,0.7c-0.5,0.2-1,0.4-1.5,0.6c-0.3,0.1-0.5,0.2-0.8,0.3c-0.3,0.1-0.5,0.2-0.8,0.3c-0.3,0.1-0.5,0.2-0.8,0.2
							c-0.3,0.1-0.6,0.1-0.8,0.2c-0.4,0.1-0.7,0.1-1.1,0.2c-0.3,0.1-0.7,0.1-1,0.1h0c-0.4,0-0.8,0.1-1.2,0.1
							c-0.2-0.5-0.3-1.1-0.4-1.8c-0.1-0.8,0-1.7,0.1-2.4c0,0,0,0,0,0c-1.9,1.2-2.7,3-3.1,4.2c0,0,0,0,0,0c-0.1,0.1-0.3,0.2-0.4,0.3
							h0c-0.9,0.1-1.6,0.1-2.3,0.2c-0.3,0-0.7,0.1-1,0.1c-0.2,0-0.4,0.1-0.6,0.1c-0.4,0.1-0.7,0.2-1,0.2c0,0-0.1,0-0.1,0
							c-0.2,0-0.3,0.1-0.5,0.2c-0.6,0.2-1,0.5-1.4,0.7c-0.1,0.7-0.2,1.4-0.2,2.1h0c-0.1,0-0.2,0-0.3,0.1c-0.1,0-0.2,0.1-0.4,0.1
							c-0.2,0-0.3,0.1-0.5,0.2c0,0-0.1,0-0.1,0c-0.1,0-0.2,0.1-0.2,0.1c-0.2,0.1-0.4,0.2-0.5,0.4c-0.7,0.6-1.1,1.4-1.1,2.4
							s0.4,1.7,1.1,2.4c0.1,0.1,0.2,0.2,0.3,0.2c0.1,0,0.2,0.1,0.2,0.2c0.1,0.1,0.2,0.1,0.3,0.1c0,0,0.1,0,0.1,0
							c0.1,0,0.2,0.1,0.2,0.1c0,0,0.1,0,0.1,0c0.2,0.1,0.4,0.1,0.6,0.2c0.1,0,0.2,0,0.3,0.1h0c0,0.2,0,0.4,0,0.6v0.2
							c0,0.4,0,0.8,0.1,1.3c0,0.2,0,0.4,0,0.6c0,0.3,0,0.5,0,0.8c0,1.4,0.2,2.8,0.6,4.2c0.4,1.5,1,3,1.8,4.3c0,0,0,0,0,0
							c-2.5-0.6-4.7-2-4.7-2s2.1-2.5,0.3-5.3c0-0.1-0.1-0.2-0.1-0.2c-2-2.8-3.4-6-3.9-9.4c0-0.2-0.1-0.5-0.1-0.7
							c-0.1-0.9-0.2-1.8-0.2-2.7c0-0.8,0-1.5,0.1-2.3c-0.1-0.7-0.1-1.4-0.1-2.2c0-10.4,7.5-19.2,17.9-22.4c0.1,0,0.2,0,0.3-0.1
							c1.9-0.5,3.8-0.9,5.8-1.1c0.6,0,1.2-0.1,1.8-0.1h0.5c6.3,0.5,6.9,1.4,7.7,1.9c1.2-1,2-2.7,1.8-4.6c1.3,1.2,1.7,3.3,0.9,5.2
							c6.5,1.2,13.5,8.5,15.4,16.1l0,0c0.3,1,0.4,2.1,0.5,3.2c0,0.6,0.1,1.3,0.1,1.9c0,0.8,0,1.5-0.1,2.2c0,0.1,0,0.2,0,0.3
							c0,0.6,0.1,1.3,0.1,1.9C460.2,317.9,458.6,322.5,455.8,326.2C455.9,326.2,455.8,326.2,455.8,326.2L455.8,326.2z"/>
						<path class="st0" d="M443.4,351.3c0,4.9-4.5,8.9-10,8.9c-5.5,0-9.9-4-9.9-8.9c0-0.5,0-1,0.1-1.4c0.2-1.3,0.8-2.6,1.7-3.7
							c0.5-0.1,1-0.3,1.5-0.4c0.5-0.1,1-0.2,1.5-0.2v0.3c-1.5,1.3-2.4,3.1-2.4,5c0,3.9,3.5,7,7.8,7c4.3,0,7.8-3.1,7.8-7
							c0-2-1-3.8-2.5-5.1v-0.4h1.2c0.3,0,0.5,0,0.8,0c1.1,1.2,1.9,2.6,2.3,4.2C443.3,350.2,443.4,350.7,443.4,351.3L443.4,351.3z"/>
						<path class="st0" d="M411.7,315.5c-0.7,0.6-1.1,1.4-1.1,2.4s0.4,1.8,1.1,2.4c-0.7-0.6-1.1-1.4-1.1-2.4
							C410.6,316.9,411,316.1,411.7,315.5z M413.9,312.4c-0.1,0.7-0.2,1.4-0.2,2.1h0C413.8,313.9,413.8,313.1,413.9,312.4
							c0.4-0.2,0.8-0.5,1.4-0.7C414.7,312,414.2,312.2,413.9,312.4z M414.3,328.7c-0.4-1.3-0.6-2.8-0.6-4.2c0-0.3,0-0.5,0-0.8
							c0-0.2,0-0.4,0-0.6c0-0.4-0.1-0.8-0.1-1.3v-0.2c0-0.2,0-0.4,0-0.6h0c0,0.8,0.1,2.7,0,2.6c0,0.3,0,0.5,0,0.8
							C413.7,326,413.9,327.4,414.3,328.7c0.4,1.5,1,3,1.8,4.3c0,0,0,0,0,0C415.4,331.7,414.8,330.2,414.3,328.7L414.3,328.7z
							 M421.2,310.6C421.2,310.6,421.2,310.6,421.2,310.6C421.2,310.6,421.3,310.6,421.2,310.6c0.5-1.2,1.3-3,3.2-4.2v0
							C422.5,307.5,421.7,309.3,421.2,310.6z M424.4,316.2c-0.8,0-1.5,0.6-1.5,1.4c0,0.8,0.7,1.4,1.5,1.4s1.5-0.6,1.5-1.4
							C425.9,316.8,425.2,316.2,424.4,316.2z M429.5,330.7c0,1.1,0.6,2.1,1.6,2.8c0.7,0.5,1.6,0.8,2.6,0.8c1,0,1.9-0.3,2.6-0.8
							c1-0.6,1.6-1.6,1.6-2.8H429.5L429.5,330.7z M440.8,302.4c-0.5,0.7-1.1,1.3-1.8,2c-0.9,0.8-1.8,1.6-2.9,2.3
							c-0.3,0.2-0.6,0.4-0.9,0.6c0.3-0.2,0.6-0.4,0.9-0.6c1.1-0.7,2-1.5,2.9-2.3C439.7,303.7,440.3,303.1,440.8,302.4
							C440.8,302.4,440.8,302.4,440.8,302.4z M443.2,316.2c-0.8,0-1.5,0.6-1.5,1.4c0,0.8,0.7,1.4,1.5,1.4c0.8,0,1.5-0.6,1.5-1.4
							C444.7,316.8,444,316.2,443.2,316.2z"/>
						<path class="st0" d="M456.1,315.2c-0.1-0.1-0.3-0.2-0.4-0.2c-0.2-0.1-0.3-0.2-0.5-0.2c-0.1,0-0.2-0.1-0.3-0.1
							c-0.1,0-0.2,0-0.3-0.1c-0.2,0-0.5-0.1-0.7-0.1h0c0-0.5,0-1-0.1-1.5c-0.8,0.1-1.6,0-2.4-0.1h0c-3.3-0.8-6.4-3.9-8.7-7.4
							c-0.7-1-1.3-2.1-1.9-3.2c-0.5,0.7-1.1,1.3-1.8,1.9c-0.9,0.8-1.8,1.6-2.9,2.3c-0.3,0.2-0.6,0.4-0.9,0.6
							c-0.3,0.2-0.6,0.4-0.9,0.5c-0.5,0.3-1,0.5-1.5,0.7c-0.5,0.2-1,0.4-1.5,0.6c-0.3,0.1-0.5,0.2-0.8,0.3c-0.3,0.1-0.5,0.2-0.8,0.3
							c-0.3,0.1-0.5,0.2-0.8,0.2c-0.3,0.1-0.6,0.1-0.8,0.2c-0.4,0.1-0.7,0.1-1.1,0.2c-0.3,0.1-0.7,0.1-1,0.1h0
							c-0.4,0-0.8,0.1-1.2,0.1h0c-0.2-0.5-0.3-1.1-0.4-1.8c-0.1-0.8,0-1.6,0.1-2.4c-1.9,1.2-2.7,3-3.1,4.2c0,0,0,0,0,0
							c0,0.1-0.1,0.2-0.1,0.3c-0.1,0-0.2,0-0.3,0h0c-0.9,0.1-1.6,0.1-2.3,0.2c-0.3,0-0.7,0.1-1,0.1c-0.2,0-0.4,0.1-0.6,0.1
							c-0.4,0.1-0.7,0.2-1,0.2c0,0-0.1,0-0.1,0c-0.2,0-0.3,0.1-0.5,0.2c-0.6,0.2-1,0.5-1.4,0.7c-0.1,0.7-0.2,1.4-0.2,2.1h0
							c-0.1,0-0.2,0-0.3,0.1c-0.1,0-0.2,0.1-0.4,0.1c-0.2,0.1-0.3,0.1-0.5,0.2c0,0-0.1,0-0.1,0c-0.1,0-0.2,0.1-0.2,0.1
							c-0.2,0.1-0.4,0.2-0.5,0.4c-0.7,0.6-1.1,1.4-1.1,2.4c0,0.9,0.4,1.7,1.1,2.4c0.1,0.1,0.2,0.2,0.3,0.2c0.1,0,0.2,0.1,0.2,0.2
							c0.1,0.1,0.2,0.1,0.3,0.1c0,0,0.1,0,0.1,0c0.1,0,0.2,0.1,0.2,0.1c0,0,0.1,0,0.1,0c0.2,0.1,0.4,0.1,0.6,0.2
							c0.1,0,0.2,0,0.3,0.1h0c0,0.2,0,0.4,0,0.6v0.2c0,0.4,0,0.8,0.1,1.3c0,0.2,0,0.4,0,0.6c0,0.3,0,0.5,0,0.8
							c0,1.4,0.2,2.8,0.6,4.2c0.4,1.5,1,3,1.8,4.3c0,0,0,0,0,0c0,0,0,0,0,0c2.5,4.2,6.9,7.4,12.1,8.7v4.1c-1.5,1.3-2.4,3.1-2.4,5
							c0,3.9,3.5,7,7.8,7c4.3,0,7.8-3.1,7.8-7c0-2-1-3.8-2.5-5.1v-4c2.7-0.7,5.2-1.8,7.4-3.4c2.1-1.5,3.8-3.3,5.1-5.4l0,0
							c0.8-1.3,1.3-2.6,1.8-4c0.4-1.5,0.7-3,0.7-4.6c0-0.3,0-0.6,0-0.8c0,0,0-0.2,0-0.6v0c0-0.7,0-1.9,0-1.9h0c0.2,0,0.5,0,0.7-0.1
							c0.1,0,0.2,0,0.3-0.1c0.1,0,0.2-0.1,0.3-0.1c0.2-0.1,0.3-0.1,0.5-0.2c0.1-0.1,0.3-0.2,0.4-0.2c0.9-0.6,1.4-1.6,1.4-2.6
							S456.9,315.8,456.1,315.2L456.1,315.2z M424.4,318.9c-0.8,0-1.5-0.6-1.5-1.4c0-0.8,0.7-1.4,1.5-1.4c0.8,0,1.5,0.6,1.5,1.4
							C425.9,318.3,425.2,318.9,424.4,318.9z M443.2,318.9c-0.8,0-1.5-0.6-1.5-1.4c0-0.8,0.7-1.4,1.5-1.4s1.5,0.6,1.5,1.4
							C444.7,318.3,444,318.9,443.2,318.9z"/>
						<path class="st0" d="M436.3,333.5c-0.7,0.5-1.6,0.8-2.6,0.8s-1.9-0.3-2.6-0.8c0.5-0.6,1.5-1,2.6-1S435.8,332.9,436.3,333.5z"
							/>
					</g>
				</g>
				<path class="st0" d="M481.7,320.2c0,26.6-32.9,58.5-48.5,74.1c-16.8-17.4-47.8-47.6-47.8-74.1s21.6-48.2,48.2-48.2
					C460.2,272.1,481.7,293.6,481.7,320.2L481.7,320.2z"/>
			</g>
			<g>
				<g>
					<defs>
						<path id="SVGID_00000096777909589844205130000014500253502171199648_" d="M110.7,150.4c0,26.6-32.9,58.5-48.5,74.1
							c-16.8-17.4-47.8-47.6-47.8-74.1s21.6-48.2,48.2-48.2S110.7,123.8,110.7,150.4z"/>
					</defs>
					<clipPath id="SVGID_00000039122717768892019640000009746654713180471468_">
						<use xlink:href="#SVGID_00000096777909589844205130000014500253502171199648_"  style="overflow:visible;"/>
					</clipPath>
					<g style="clip-path:url(#SVGID_00000039122717768892019640000009746654713180471468_);">
						<ellipse class="st0" cx="62.5" cy="144.2" rx="52.8" ry="93.1"/>
						<path class="st0" d="M96.4,217.5l-9.3,2.3v39.1H41.9v-43.1l-7.8-1.1c1.6-10.6-0.1-35.7,14-35.3c1.2-0.9,2.5-1.6,4-2.2
							c0.7-0.3,1.4-0.5,2.2-0.7c-0.8,1.1-1.4,2.3-1.7,3.7c-0.1,0.5-0.1,0.9-0.1,1.4c0,4.9,4.5,8.9,9.9,8.9s10-4,10-8.9
							c0-0.6,0-1.1-0.2-1.6c-0.3-1.6-1.1-3-2.3-4.2c0.3,0,0.6,0,0.9,0c1.2,0.1,2.3,0.3,3.4,0.5c3.3,0.8,6.1,2.4,8.3,4.4
							C93.2,179.8,94.5,207,96.4,217.5z"/>
						<path class="st0" d="M84.8,156.3c-1.3,2.6,0.6,4.8,0.6,4.8s-2.3,1.5-4.9,2c0.8-1.2,1.3-2.5,1.8-3.9c0.4-1.5,0.7-3,0.7-4.6
							c0-0.3,0-0.6,0-0.8c0-0.2,0-0.4,0-0.6v0c0-0.4,0.1-0.9,0.1-1.3v-0.1c0-0.2,0-0.3,0-0.5c0.2,0,0.5,0,0.7-0.1
							c0.1,0,0.2,0,0.3-0.1c0.1,0,0.2,0,0.3-0.1c0.2,0,0.3-0.1,0.5-0.2c0.1-0.1,0.3-0.2,0.4-0.2c0.9-0.6,1.5-1.5,1.5-2.6
							c0-1.1-0.6-2-1.5-2.6c-0.1-0.1-0.3-0.2-0.4-0.2c-0.2-0.1-0.3-0.2-0.5-0.2c-0.1,0-0.2-0.1-0.3-0.1c-0.1,0-0.2,0-0.3-0.1
							c-0.2,0-0.5-0.1-0.7-0.1c0-0.5,0-1-0.1-1.5h0c-0.8,0.1-1.6,0-2.4-0.1c-3.3-0.8-6.4-3.9-8.7-7.4c-0.7-1-1.3-2.1-1.9-3.2l0,0
							c-0.5,0.7-1.1,1.3-1.8,1.9c-0.9,0.8-1.8,1.6-2.9,2.3c-0.3,0.2-0.6,0.4-0.9,0.6c-0.3,0.2-0.6,0.4-0.9,0.5
							c-0.5,0.3-1,0.5-1.5,0.7c-0.5,0.2-1,0.4-1.5,0.6c-0.3,0.1-0.5,0.2-0.8,0.3c-0.3,0.1-0.5,0.2-0.8,0.3c-0.3,0.1-0.5,0.2-0.8,0.2
							c-0.3,0.1-0.6,0.1-0.8,0.2c-0.4,0.1-0.7,0.1-1.1,0.2c-0.3,0.1-0.7,0.1-1,0.1h0c-0.4,0-0.8,0.1-1.2,0.1
							c-0.2-0.5-0.3-1.1-0.4-1.8c-0.1-0.8,0-1.7,0.1-2.4c0,0,0,0,0,0c-1.9,1.2-2.7,3-3.1,4.2c0,0,0,0,0,0c-0.1,0.1-0.3,0.2-0.4,0.3
							h0c-0.9,0.1-1.6,0.1-2.3,0.2c-0.3,0-0.7,0.1-1,0.1c-0.2,0-0.4,0.1-0.6,0.1c-0.4,0.1-0.7,0.2-1,0.2c0,0-0.1,0-0.1,0
							c-0.2,0-0.3,0.1-0.5,0.2c-0.6,0.2-1,0.5-1.4,0.7c-0.1,0.7-0.2,1.4-0.2,2.1h0c-0.1,0-0.2,0-0.3,0.1c-0.1,0-0.2,0.1-0.4,0.1
							c-0.2,0-0.3,0.1-0.5,0.2c0,0-0.1,0-0.1,0c-0.1,0-0.2,0.1-0.2,0.1c-0.2,0.1-0.4,0.2-0.5,0.4c-0.7,0.6-1.1,1.4-1.1,2.4
							s0.4,1.7,1.1,2.4c0.1,0.1,0.2,0.2,0.3,0.2c0.1,0,0.2,0.1,0.2,0.2c0.1,0.1,0.2,0.1,0.3,0.1c0,0,0.1,0,0.1,0
							c0.1,0,0.2,0.1,0.2,0.1c0,0,0.1,0,0.1,0c0.2,0.1,0.4,0.1,0.6,0.2c0.1,0,0.2,0,0.3,0.1h0c0,0.2,0,0.4,0,0.6v0.2
							c0,0.4,0,0.8,0.1,1.3c0,0.2,0,0.4,0,0.6c0,0.3,0,0.5,0,0.8c0,1.4,0.2,2.8,0.6,4.2c0.4,1.5,1,3,1.8,4.3c0,0,0,0,0,0
							c-2.5-0.6-4.7-2-4.7-2s2.1-2.5,0.3-5.3c0-0.1-0.1-0.2-0.1-0.2c-2-2.8-3.4-6-3.9-9.4c0-0.2-0.1-0.5-0.1-0.7
							c-0.1-0.9-0.2-1.8-0.2-2.7c0-0.8,0-1.5,0.1-2.3c-0.1-0.7-0.1-1.4-0.1-2.2c0-10.4,7.5-19.2,17.9-22.4c0.1,0,0.2,0,0.3-0.1
							c1.9-0.5,3.8-0.9,5.8-1.1c0.6,0,1.2-0.1,1.8-0.1h0.5c6.3,0.5,6.9,1.4,7.7,1.9c1.2-1,2-2.7,1.8-4.6c1.3,1.2,1.7,3.3,0.9,5.2
							c6.5,1.2,13.5,8.5,15.4,16.1l0,0c0.3,1,0.4,2.1,0.5,3.2c0,0.6,0.1,1.3,0.1,1.9c0,0.8,0,1.5-0.1,2.2c0,0.1,0,0.2,0,0.3
							c0,0.6,0.1,1.3,0.1,1.9C89.1,148.1,87.6,152.6,84.8,156.3C84.8,156.3,84.8,156.3,84.8,156.3L84.8,156.3z"/>
						<path class="st0" d="M72.3,181.4c0,4.9-4.5,8.9-10,8.9s-9.9-4-9.9-8.9c0-0.5,0-1,0.1-1.4c0.2-1.3,0.8-2.6,1.7-3.7
							c0.5-0.1,1-0.3,1.5-0.4s1-0.2,1.5-0.2v0.3c-1.5,1.3-2.4,3.1-2.4,5c0,3.9,3.5,7,7.8,7s7.8-3.1,7.8-7c0-2-1-3.8-2.5-5.1v-0.4
							h1.2c0.3,0,0.5,0,0.8,0c1.1,1.2,1.9,2.6,2.3,4.2C72.3,180.3,72.3,180.9,72.3,181.4L72.3,181.4z"/>
						<path class="st0" d="M40.7,145.6c-0.7,0.6-1.1,1.4-1.1,2.4c0,0.9,0.4,1.8,1.1,2.4c-0.7-0.6-1.1-1.4-1.1-2.4
							C39.6,147.1,40,146.2,40.7,145.6z M42.8,142.6c-0.1,0.7-0.2,1.4-0.2,2.1h0C42.7,144,42.8,143.3,42.8,142.6
							c0.4-0.2,0.8-0.5,1.4-0.7C43.6,142.1,43.2,142.3,42.8,142.6z M43.3,158.8c-0.4-1.3-0.6-2.8-0.6-4.2c0-0.3,0-0.5,0-0.8
							c0-0.2,0-0.4,0-0.6c0-0.4-0.1-0.8-0.1-1.3v-0.2c0-0.2,0-0.4,0-0.6h0c0,0.8,0.1,2.7,0,2.6c0,0.3,0,0.5,0,0.8
							C42.7,156.1,42.9,157.5,43.3,158.8c0.4,1.5,1,3,1.8,4.3c0,0,0,0,0,0C44.3,161.8,43.7,160.4,43.3,158.8L43.3,158.8z
							 M50.2,140.7C50.2,140.7,50.2,140.7,50.2,140.7C50.2,140.7,50.2,140.7,50.2,140.7c0.5-1.2,1.3-3,3.2-4.2v0
							C51.4,137.6,50.6,139.4,50.2,140.7z M53.3,146.3c-0.8,0-1.5,0.6-1.5,1.4s0.7,1.4,1.5,1.4c0.8,0,1.5-0.6,1.5-1.4
							S54.1,146.3,53.3,146.3z M58.5,160.8c0,1.1,0.6,2.1,1.6,2.8c0.7,0.5,1.6,0.8,2.6,0.8c1,0,1.9-0.3,2.6-0.8
							c1-0.6,1.6-1.6,1.6-2.8H58.5z M69.7,132.5c-0.5,0.7-1.1,1.3-1.8,2c-0.9,0.8-1.8,1.6-2.9,2.3c-0.3,0.2-0.6,0.4-0.9,0.6
							c0.3-0.2,0.6-0.4,0.9-0.6c1.1-0.7,2-1.5,2.9-2.3C68.6,133.9,69.2,133.2,69.7,132.5C69.7,132.5,69.7,132.5,69.7,132.5
							L69.7,132.5z M72.1,146.3c-0.8,0-1.5,0.6-1.5,1.4s0.7,1.4,1.5,1.4s1.5-0.6,1.5-1.4S73,146.3,72.1,146.3z"/>
						<path class="st0" d="M85,145.3c-0.1-0.1-0.3-0.2-0.4-0.2c-0.2-0.1-0.3-0.2-0.5-0.2c-0.1,0-0.2-0.1-0.3-0.1
							c-0.1,0-0.2,0-0.3-0.1c-0.2,0-0.5-0.1-0.7-0.1h0c0-0.5,0-1-0.1-1.5c-0.8,0.1-1.6,0-2.4-0.1h0c-3.3-0.8-6.4-3.9-8.7-7.4
							c-0.7-1-1.3-2.1-1.9-3.2c-0.5,0.7-1.1,1.3-1.8,1.9c-0.9,0.8-1.8,1.6-2.9,2.3c-0.3,0.2-0.6,0.4-0.9,0.6
							c-0.3,0.2-0.6,0.4-0.9,0.5c-0.5,0.3-1,0.5-1.5,0.7c-0.5,0.2-1,0.4-1.5,0.6c-0.3,0.1-0.5,0.2-0.8,0.3c-0.3,0.1-0.5,0.2-0.8,0.3
							c-0.3,0.1-0.5,0.2-0.8,0.2c-0.3,0.1-0.6,0.1-0.8,0.2c-0.4,0.1-0.7,0.1-1.1,0.2c-0.3,0.1-0.7,0.1-1,0.1h0
							c-0.4,0-0.8,0.1-1.2,0.1h0c-0.2-0.5-0.3-1.1-0.4-1.8c-0.1-0.8,0-1.6,0.1-2.4c-1.9,1.2-2.7,3-3.1,4.2c0,0,0,0,0,0
							c0,0.1-0.1,0.2-0.1,0.3c-0.1,0-0.2,0-0.3,0h0c-0.9,0.1-1.6,0.1-2.3,0.2c-0.3,0-0.7,0.1-1,0.1c-0.2,0-0.4,0.1-0.6,0.1
							c-0.4,0.1-0.7,0.2-1,0.2c0,0-0.1,0-0.1,0c-0.2,0-0.3,0.1-0.5,0.2c-0.6,0.2-1,0.5-1.4,0.7c-0.1,0.7-0.2,1.4-0.2,2.1h0
							c-0.1,0-0.2,0-0.3,0.1c-0.1,0-0.2,0.1-0.4,0.1c-0.2,0.1-0.3,0.1-0.5,0.2c0,0-0.1,0-0.1,0c-0.1,0-0.2,0.1-0.2,0.1
							c-0.2,0.1-0.4,0.2-0.5,0.4c-0.7,0.6-1.1,1.4-1.1,2.4s0.4,1.7,1.1,2.4c0.1,0.1,0.2,0.2,0.3,0.2c0.1,0,0.2,0.1,0.2,0.2
							c0.1,0.1,0.2,0.1,0.3,0.1c0,0,0.1,0,0.1,0c0.1,0,0.2,0.1,0.2,0.1c0,0,0.1,0,0.1,0c0.2,0.1,0.4,0.1,0.6,0.2
							c0.1,0,0.2,0,0.3,0.1h0c0,0.2,0,0.4,0,0.6v0.2c0,0.4,0,0.8,0.1,1.3c0,0.2,0,0.4,0,0.6c0,0.3,0,0.5,0,0.8
							c0,1.4,0.2,2.8,0.6,4.2c0.4,1.5,1,3,1.8,4.3c0,0,0,0,0,0c0,0,0,0,0,0c2.5,4.2,6.9,7.4,12.1,8.7v4.1c-1.5,1.3-2.4,3.1-2.4,5
							c0,3.9,3.5,7,7.8,7s7.8-3.1,7.8-7c0-2-1-3.8-2.5-5.1v-4c2.7-0.7,5.2-1.8,7.4-3.4c2.1-1.5,3.8-3.3,5.1-5.4l0,0
							c0.8-1.3,1.3-2.6,1.8-4c0.4-1.5,0.7-3,0.7-4.6c0-0.3,0-0.6,0-0.8c0,0,0-0.2,0-0.6v0c0-0.7,0-1.9,0-1.9h0c0.2,0,0.5,0,0.7-0.1
							c0.1,0,0.2,0,0.3-0.1c0.1,0,0.2-0.1,0.3-0.1c0.2-0.1,0.3-0.1,0.5-0.2c0.1-0.1,0.3-0.2,0.4-0.2c0.9-0.6,1.4-1.6,1.4-2.6
							C86.4,146.9,85.9,146,85,145.3L85,145.3z M53.3,149c-0.8,0-1.5-0.6-1.5-1.4s0.7-1.4,1.5-1.4s1.5,0.6,1.5,1.4
							S54.1,149,53.3,149z M72.1,149c-0.8,0-1.5-0.6-1.5-1.4s0.7-1.4,1.5-1.4s1.5,0.6,1.5,1.4S73,149,72.1,149z"/>
						<path class="st0" d="M65.3,163.6c-0.7,0.5-1.6,0.8-2.6,0.8c-1,0-1.9-0.3-2.6-0.8c0.5-0.6,1.5-1,2.6-1
							C63.8,162.6,64.8,163,65.3,163.6z"/>
					</g>
				</g>
				<path class="st0" d="M110.7,150.4c0,26.6-32.9,58.5-48.5,74.1c-16.8-17.4-47.8-47.6-47.8-74.1s21.6-48.2,48.2-48.2
					S110.7,123.8,110.7,150.4z"/>
			</g>
			<g>
				<g>
					<defs>
						<path id="SVGID_00000027567730722006135910000000584221433468679588_" d="M435,66.4c0,26.6-25.6,50.1-48.2,73.6
							c-22.3-23.5-48.2-47-48.2-73.6s21.6-48.2,48.2-48.2C413.5,18.2,435,39.8,435,66.4z"/>
					</defs>
					<clipPath id="SVGID_00000109740997280809223280000007949743021572796595_">
						<use xlink:href="#SVGID_00000027567730722006135910000000584221433468679588_"  style="overflow:visible;"/>
					</clipPath>
					<g style="clip-path:url(#SVGID_00000109740997280809223280000007949743021572796595_);">
						<circle class="st0" cx="386.5" cy="65" r="120.6"/>
						<g>
							<path class="st0" d="M424.4,129.3c-1.6,1.7-3.5,3-5.7,4c-1.2-6.5-2.5-12.7-3.7-16.9c-0.6-2.1-1.2-3.7-1.6-4.6
								c-2-3.6-5.5-7.2-9.5-9.9c-0.7-0.5-1.3-0.9-2-1.3c-2.3-1.3-4.7-2.4-7-2.9c-1.1-0.3-2.3-0.5-3.4-0.5h0
								c-0.1-0.1-0.2-0.2-0.3-0.2v-0.4c8.4-2.4,14.5-10,14.7-19.1c0-0.2,0-0.3,0-0.5c0-0.3,0-0.5,0-0.8v-0.2c0-0.3,0-0.5,0-0.8
								c0-0.2,0-0.4,0-0.6c1.8-0.3,3.2-1.8,3.2-3.7c0-2.1-1.7-3.8-3.8-3.8c-0.2,0-0.5,0-0.7,0.1c0,0,0-0.1,0-0.1h0
								c0.3-1.7-0.2-2.8-2.4-3.3c0,0,0,0,0,0c0-0.1-0.1-0.1-0.1-0.2l-0.2,0.1c-0.6-0.1-1.1-0.3-1.7-0.5c-2.8-1-5.2-2.7-7.1-4.9
								c-0.4-0.5-0.8-1-1.2-1.5c-0.2-0.3-0.5-0.7-0.7-1c-0.6-1-1.1-2.2-1.5-3.3c-0.1-0.3-0.2-0.6-0.3-0.9c0,0,0,0.1,0,0.1
								c-0.6,1.2-1.2,2.3-2,3.4c-0.3,0.4-0.6,0.7-0.9,1c-0.2,0.3-0.4,0.5-0.7,0.7c-3.3,3.4-8,5.5-13.1,5.5c-0.4,0-0.8,0-1.2,0
								c0,0,0,0-0.1,0l0,0c-0.8,0-1.4,0.1-2,0.3c-3.3,0.8-3.5,3-3.2,4.8v0l-0.5-0.1h0c-0.2,0-0.5-0.1-0.7-0.1
								c-2.1,0-3.8,1.7-3.8,3.8c0,2.1,1.6,3.7,3.7,3.8c0,0.2,0,0.4,0,0.6c0,0.3,0,0.5,0,0.8v0.2c0,0.3,0,0.5,0,0.8
								c0,0.1,0,0.3,0,0.4c0.2,9.1,6.3,16.8,14.7,19.2v0.5c0,0-0.1,0.1-0.2,0.1h0c-0.3,0-0.6,0-0.8,0c-0.8,0.1-1.7,0.2-2.5,0.3
								c-2.6,0.5-5.4,1.5-8,2.9c-1.1,0.5-2.1,1.2-3.1,1.8c-3.9,2.6-7.1,6-8.2,9.6c-0.4,1.3-0.9,3.4-1.5,6.2
								c-1,4.4-2.2,10.2-3.5,16.2c-2.7-1-5.1-2.5-7-4.6c3.8-3.3,3.2-12.7,6.3-19.6c-1.8-4.6-2.8-9.8-2.8-15.1c0-1.1,0-2.1,0.1-3.1
								c0.1-1.8,0.4-3.6,0.7-5.3c0,0,0,0,0,0c1-5.2,3.1-10,5.8-14.2v-0.1c0-0.9,0-1.8,0.1-2.7c0.1-1.5,0.3-3.1,0.6-4.6c0,0,0,0,0,0
								c0.7-3.4,1.8-6.6,3.3-9.5c0-0.1,0.1-0.1,0.1-0.2c0-0.3,0.1-0.7,0.1-1v0c2.6-12,13.4-21,26.2-21h0.5c0.6,0,1.3,0,1.9,0.1
								c2,0.2,4,0.6,5.9,1.2c0.1,0,0.2,0.1,0.3,0.1c9.7,3.3,16.9,12,18,22.5c2,4.6,3.2,9.8,3.2,15.2c0,0.5,0,1,0,1.6
								c3.6,6.1,5.7,13.3,5.7,21.1c0,1.5-0.1,3-0.2,4.4c0,0.4-0.1,0.8-0.1,1.2c-0.4,3.3-1.3,6.6-2.5,9.6
								C421.2,116.9,420.6,126,424.4,129.3L424.4,129.3z"/>
							<path class="st0" d="M377.2,105c-0.3-0.8-0.4-1.5-0.4-2.4l0,0c0-0.3,0-0.5,0-0.8v0c0-0.3,0.1-0.5,0.1-0.7c0,0,0,0,0-0.1
								c0-0.2,0.1-0.4,0.2-0.6c0.1-0.3,0.2-0.6,0.3-0.8c0.1-0.2,0.2-0.4,0.3-0.7c0.1-0.2,0.3-0.4,0.4-0.6c0.1-0.2,0.3-0.4,0.5-0.6
								c0.2-0.2,0.4-0.4,0.5-0.5l0,0c0,0,0.1-0.1,0.1-0.1c0.1,0,0.2,0,0.3,0c-0.1,0-0.1,0.1-0.2,0.1l0,0c-0.2,0.2-0.4,0.3-0.5,0.5
								c-0.2,0.2-0.3,0.4-0.5,0.6c-0.2,0.2-0.3,0.4-0.4,0.6c-0.1,0.2-0.2,0.4-0.3,0.7c-0.1,0.3-0.2,0.5-0.3,0.8
								c-0.1,0.2-0.1,0.4-0.2,0.6c0,0,0,0,0,0.1c-0.1,0.2-0.1,0.5-0.1,0.7v0c0,0.3,0,0.5,0,0.8l0,0c0,0.8,0.1,1.6,0.4,2.4
								c0.3,0.9,0.9,1.8,1.5,2.5c0.2,0.2,0.4,0.4,0.6,0.6c0.4,0.3,0.8,0.6,1.3,0.9c1.3,0.8,3,1.3,4.7,1.3c-0.1,0-0.2,0-0.3,0
								c-1.7,0-3.3-0.5-4.7-1.3c-0.5-0.3-0.9-0.6-1.3-0.9c-0.2-0.2-0.4-0.4-0.6-0.6C378,106.8,377.5,106,377.2,105L377.2,105z"/>
							<path class="st0" d="M391.2,97.1c0.1,0,0.2,0,0.3,0c0.1,0.1,0.2,0.1,0.3,0.2c0.1,0.1,0.2,0.2,0.4,0.4c0,0,0.1,0.1,0.1,0.1
								c0.2,0.2,0.3,0.3,0.4,0.5c0.5,0.7,0.9,1.5,1.1,2.3c0.1,0.2,0.1,0.3,0.1,0.5c0.1,0.5,0.2,1,0.2,1.5c0,0.8-0.1,1.5-0.3,2.2
								c-0.3,1-0.9,1.9-1.6,2.7c-0.2,0.2-0.4,0.4-0.6,0.6c-0.4,0.3-0.8,0.6-1.3,0.9c-1.2,0.7-2.7,1.2-4.3,1.3c1.5-0.1,2.8-0.5,4-1.3
								c0.5-0.3,0.9-0.6,1.3-0.9c0.2-0.2,0.4-0.4,0.6-0.6c0.7-0.8,1.3-1.7,1.6-2.7c0.2-0.7,0.3-1.4,0.3-2.2c0-0.5,0-1-0.2-1.5
								c0-0.2-0.1-0.3-0.1-0.5c-0.2-0.8-0.6-1.6-1.1-2.3c-0.1-0.2-0.3-0.3-0.4-0.5c0,0-0.1-0.1-0.1-0.1c-0.1-0.1-0.2-0.3-0.4-0.4
								C391.4,97.3,391.3,97.2,391.2,97.1L391.2,97.1z"/>
							<path class="st0" d="M423.7,161h-76.9c0,0,2.7-13.8,5.4-26.9c1.2-6,2.5-11.8,3.5-16.2c0.6-2.8,1.2-4.9,1.6-6.2
								c1.1-3.7,4.3-7.1,8.2-9.6c1-0.7,2.1-1.3,3.1-1.8c2.4-1.3,5-2.2,7.5-2.7c-1,1.5-1.6,3.2-1.6,5.1c0,0.5,0,1,0.1,1.4
								c0.8,4.7,5.3,8.4,10.7,8.4c5.4,0,10.1-3.8,10.7-8.6c0.1-0.4,0.1-0.8,0.1-1.2c0-1.8-0.6-3.5-1.5-5c-1-0.3-2.1-0.5-3.1-0.6
								c0,0,0,0,0,0c0,0,0,0,0,0h0c0.1,0,0.2,0,0.3,0h0c1.2,0.1,2.3,0.3,3.4,0.5c2.3,0.6,4.7,1.6,7,2.9c0.7,0.4,1.4,0.8,2,1.3
								c4,2.8,7.5,6.4,9.5,9.9c0.5,0.9,1,2.5,1.6,4.6c1.2,4.2,2.5,10.4,3.7,16.9C421.5,146.6,423.7,161,423.7,161L423.7,161z"/>
							<path class="st0" d="M393.9,101.1c0-0.2-0.1-0.3-0.1-0.5c-0.2-0.8-0.6-1.6-1.1-2.3c-0.1-0.2-0.3-0.4-0.4-0.5
								c0,0,0-0.1-0.1-0.1c-0.1-0.1-0.2-0.3-0.4-0.4c-0.1-0.1-0.2-0.2-0.3-0.2c-0.1,0-0.2,0-0.3,0c0.1,0.1,0.2,0.2,0.3,0.3
								c0.1,0.1,0.2,0.2,0.4,0.4c0,0,0.1,0.1,0.1,0.1c0.2,0.2,0.3,0.3,0.4,0.5c0.5,0.7,0.9,1.5,1.1,2.3c0.1,0.2,0.1,0.3,0.1,0.5
								c0.1,0.5,0.2,1,0.2,1.5c0,0.8-0.1,1.5-0.3,2.2c-0.3,1-0.9,1.9-1.6,2.7c-0.2,0.2-0.4,0.4-0.6,0.6c-0.4,0.3-0.8,0.6-1.3,0.9
								c-1.2,0.7-2.5,1.2-4,1.3c1.6-0.1,3-0.5,4.3-1.3c0.5-0.3,0.9-0.6,1.3-0.9c0.2-0.2,0.4-0.4,0.6-0.6c0.7-0.8,1.3-1.7,1.6-2.7
								c0.2-0.7,0.3-1.4,0.3-2.2C394,102.1,394,101.6,393.9,101.1L393.9,101.1z M376.1,97.5C376.1,97.5,376.1,97.5,376.1,97.5
								c0.1,0,0.3,0,0.5,0c0.8-0.2,1.6-0.3,2.5-0.3c0.1,0,0.2,0,0.3,0c0,0,0,0,0,0c-0.3,0-0.6,0-0.8,0
								C377.7,97.2,376.9,97.3,376.1,97.5z"/>
							<path class="st0" d="M396.1,102.7c0,0.4,0,0.8-0.1,1.2c-0.6,4.8-5.2,8.6-10.7,8.6s-9.9-3.6-10.7-8.4
								c-0.1-0.5-0.1-0.9-0.1-1.4c0-1.9,0.6-3.6,1.6-5.1c0.2,0,0.4-0.1,0.5-0.1c0.8-0.2,1.6-0.3,2.5-0.3c0.1,0,0.2,0,0.3,0
								c0,0-0.1,0.1-0.1,0.1l0,0c-0.2,0.2-0.4,0.3-0.5,0.5c-0.2,0.2-0.3,0.4-0.5,0.6c-0.2,0.2-0.3,0.4-0.4,0.6
								c-0.1,0.2-0.3,0.4-0.3,0.7c-0.1,0.3-0.2,0.5-0.3,0.8c-0.1,0.2-0.1,0.4-0.2,0.6c0,0,0,0,0,0.1c-0.1,0.2-0.1,0.5-0.1,0.7v0
								c0,0.3,0,0.5,0,0.8l0,0c0,0.8,0.1,1.6,0.4,2.4c0.3,0.9,0.9,1.8,1.5,2.5c0.2,0.2,0.4,0.4,0.6,0.6c0.4,0.3,0.8,0.6,1.3,0.9
								c1.3,0.8,3,1.3,4.7,1.3c0.1,0,0.2,0,0.3,0c0.2,0,0.3,0,0.4,0c1.6-0.1,3-0.5,4.3-1.3c0.5-0.3,0.9-0.6,1.3-0.9
								c0.2-0.2,0.4-0.4,0.6-0.6c0.7-0.8,1.3-1.7,1.6-2.7c0.2-0.7,0.3-1.4,0.3-2.2c0-0.5-0.1-1-0.2-1.5c0-0.2-0.1-0.3-0.1-0.5
								c-0.2-0.8-0.6-1.6-1.1-2.3c-0.1-0.2-0.3-0.4-0.4-0.5c0,0,0-0.1-0.1-0.1c-0.1-0.1-0.2-0.3-0.4-0.4c-0.1-0.1-0.2-0.2-0.3-0.2
								c1.1,0.1,2.1,0.3,3.1,0.6C395.5,99.1,396.1,100.8,396.1,102.7L396.1,102.7z"/>
							<circle class="st0" cx="395.5" cy="71.1" r="1.5"/>
							<circle class="st0" cx="376.3" cy="71.1" r="1.5"/>
							<circle class="st0" cx="373.2" cy="80.2" r="3"/>
							<circle class="st0" cx="398.8" cy="80.2" r="3"/>
							<path class="st0" d="M381.5,83.3c0,1.3,0.6,2.5,1.6,3.2c0.8,0.6,1.7,0.9,2.7,0.9s2-0.3,2.7-0.9c1-0.8,1.6-1.9,1.6-3.2H381.5
								L381.5,83.3z"/>
							<path class="st0" d="M383.1,86.6c0.8,0.6,1.7,0.9,2.7,0.9s2-0.3,2.7-0.9c-0.5-0.7-1.6-1.1-2.7-1.1S383.6,85.9,383.1,86.6z"/>
							<path class="st0" d="M394,102.7c0,0.8-0.1,1.5-0.3,2.2c-0.3,1-0.9,1.9-1.6,2.7c-0.2,0.2-0.4,0.4-0.6,0.6
								c-0.4,0.3-0.8,0.6-1.3,0.9c-1.2,0.7-2.7,1.2-4.3,1.3c1.5-0.1,2.8-0.5,4-1.3c0.5-0.3,0.9-0.6,1.3-0.9c0.2-0.2,0.4-0.4,0.6-0.6
								c0.7-0.8,1.3-1.7,1.6-2.7c0.2-0.7,0.3-1.4,0.3-2.2c0-0.5,0-1-0.2-1.5c0-0.2-0.1-0.3-0.1-0.5c-0.2-0.8-0.6-1.6-1.1-2.3
								c-0.1-0.2-0.3-0.3-0.4-0.5c0,0-0.1-0.1-0.1-0.1c-0.1-0.1-0.2-0.3-0.4-0.4c-0.1-0.1-0.2-0.2-0.3-0.3c0.1,0,0.2,0,0.3,0
								c0.1,0.1,0.2,0.1,0.3,0.2c0.1,0.1,0.2,0.2,0.4,0.4c0,0,0.1,0.1,0.1,0.1c0.2,0.2,0.3,0.3,0.4,0.5c0.5,0.7,0.9,1.5,1.1,2.3
								c0.1,0.2,0.1,0.3,0.1,0.5C394,101.6,394,102.1,394,102.7L394,102.7z"/>
							<path class="st0" d="M405.9,74.4c0,0-0.1,0-0.1,0c0.1,0.5,0.1,0.9,0.1,1.4v0.2c0,0.3,0,0.5,0,0.8c0,0.2,0,0.3,0,0.5
								c-0.2,9.1-6.3,16.7-14.7,19.1v0.4c0.1,0.1,0.2,0.1,0.2,0.2h0l0,0c0,0,0,0,0,0c-0.1,0-0.2,0-0.3,0c0.1,0.1,0.2,0.2,0.3,0.3
								c0.1,0.1,0.2,0.2,0.4,0.4c0,0,0.1,0.1,0.1,0.1c0.2,0.2,0.3,0.3,0.4,0.5c0.5,0.7,0.9,1.5,1.1,2.3c0.1,0.2,0.1,0.3,0.1,0.5
								c0.1,0.5,0.2,1,0.2,1.5c0,0.8-0.1,1.5-0.3,2.2c-0.3,1-0.9,1.9-1.6,2.7c-0.2,0.2-0.4,0.4-0.6,0.6c-0.4,0.3-0.8,0.6-1.3,0.9
								c-1.2,0.7-2.5,1.2-4,1.3c-0.1,0-0.3,0-0.4,0c-1.7,0-3.3-0.5-4.7-1.3c-0.5-0.3-0.9-0.6-1.3-0.9c-0.2-0.2-0.4-0.4-0.6-0.6
								c-0.7-0.8-1.2-1.6-1.5-2.5c-0.3-0.8-0.4-1.5-0.4-2.4l0,0c0-0.3,0-0.5,0-0.8v0c0-0.3,0.1-0.5,0.1-0.7c0,0,0,0,0-0.1
								c0-0.2,0.1-0.4,0.2-0.6c0.1-0.3,0.2-0.6,0.3-0.8c0.1-0.2,0.2-0.4,0.3-0.7c0.1-0.2,0.3-0.4,0.4-0.6c0.2-0.2,0.3-0.4,0.5-0.6
								c0.2-0.2,0.3-0.4,0.5-0.5l0,0c0,0,0.1-0.1,0.2-0.1c0,0,0,0,0,0c0.1-0.1,0.1-0.1,0.2-0.1c0.1-0.1,0.3-0.2,0.5-0.3
								c-0.2,0-0.3-0.1-0.5-0.1c-8.4-2.4-14.6-10.1-14.7-19.2c0-0.1,0-0.3,0-0.4c0-0.3,0-0.5,0-0.8v-0.2c0-0.5,0.1-0.9,0.1-1.4h-0.1
								c-2,0-3.7-1.7-3.7-3.8s1.7-3.8,3.8-3.8c0.2,0,0.5,0,0.7,0.1h0l0.5,0.1v0c-0.3-1.8-0.1-4.1,3.2-4.8c0.6-0.1,1.2-0.2,2-0.3
								c0,0,0,0,0,0c0.4,0,0.8,0,1.2,0c5.1,0,9.8-2.1,13.1-5.5c0.2-0.2,0.5-0.5,0.7-0.7c0.3-0.3,0.6-0.7,0.9-1c0.8-1,1.5-2.2,2-3.4
								c0,0,0-0.1,0-0.1c0.1,0.3,0.2,0.6,0.3,0.9c0.4,1.2,0.9,2.3,1.5,3.3c0.2,0.3,0.4,0.7,0.7,1c0.4,0.5,0.8,1,1.2,1.5
								c1.9,2.2,4.3,3.8,7.1,4.9c0.5,0.2,1.1,0.4,1.7,0.5l0.2-0.1c0,0,0.1,0.1,0.1,0.2c0,0,0,0,0,0c2.1,0.6,2.7,1.7,2.4,3.3h0
								c0,0,0,0.1,0,0.1c0.2,0,0.5-0.1,0.7-0.1c2.1,0,3.8,1.7,3.8,3.8C409.1,72.5,407.7,74.1,405.9,74.4L405.9,74.4z"/>
						</g>
					</g>
				</g>
				<path class="st0" d="M435,66.4c0,26.6-25.6,50.1-48.2,73.6c-22.3-23.5-48.2-47-48.2-73.6s21.6-48.2,48.2-48.2
					C413.5,18.2,435,39.8,435,66.4z"/>
			</g>
			<g>
				<g>
					<defs>
						<path id="SVGID_00000138570719346414774110000014624501264665265039_" d="M168.6,52.2c0,26.6-25.6,50.1-48.2,73.6
							c-22.3-23.5-48.2-47-48.2-73.6S93.8,4,120.4,4S168.6,25.6,168.6,52.2z"/>
					</defs>
					<clipPath id="SVGID_00000147181088097787818780000001359881168369051834_">
						<use xlink:href="#SVGID_00000138570719346414774110000014624501264665265039_"  style="overflow:visible;"/>
					</clipPath>
					<g style="clip-path:url(#SVGID_00000147181088097787818780000001359881168369051834_);">
						<circle class="st0" cx="120.1" cy="50.8" r="120.6"/>
						<g>
							<path class="st0" d="M157.9,115.1c-1.6,1.7-3.5,3-5.7,4c-1.2-6.5-2.5-12.7-3.7-16.9c-0.6-2.1-1.2-3.7-1.6-4.6
								c-2-3.6-5.5-7.2-9.5-9.9c-0.7-0.5-1.3-0.9-2-1.3c-2.3-1.3-4.7-2.4-7-2.9c-1.1-0.3-2.3-0.5-3.4-0.5h0
								c-0.1-0.1-0.2-0.2-0.3-0.2v-0.4c8.4-2.4,14.5-10,14.7-19.1c0-0.2,0-0.3,0-0.5c0-0.3,0-0.5,0-0.8v-0.2c0-0.3,0-0.5,0-0.8
								c0-0.2,0-0.4,0-0.6c1.8-0.3,3.2-1.8,3.2-3.7c0-2.1-1.7-3.8-3.8-3.8c-0.2,0-0.5,0-0.7,0.1c0,0,0-0.1,0-0.1h0
								c0.3-1.7-0.2-2.8-2.4-3.3c0,0,0,0,0,0c0-0.1-0.1-0.1-0.1-0.2l-0.2,0.1c-0.6-0.1-1.1-0.3-1.7-0.5c-2.8-1-5.2-2.7-7.1-4.9
								c-0.4-0.5-0.8-1-1.2-1.5c-0.2-0.3-0.5-0.7-0.7-1c-0.6-1-1.1-2.2-1.5-3.3c-0.1-0.3-0.2-0.6-0.3-0.9c0,0,0,0.1,0,0.1
								c-0.6,1.2-1.2,2.3-2,3.4c-0.3,0.4-0.6,0.7-0.9,1c-0.2,0.3-0.4,0.5-0.7,0.7c-3.3,3.4-8,5.5-13.1,5.5c-0.4,0-0.8,0-1.2,0
								c0,0,0,0-0.1,0l0,0c-0.8,0-1.4,0.1-2,0.3c-3.3,0.8-3.5,3-3.2,4.8v0l-0.5-0.1h0c-0.2,0-0.5-0.1-0.7-0.1
								c-2.1,0-3.8,1.7-3.8,3.8s1.6,3.7,3.7,3.8c0,0.2,0,0.4,0,0.6c0,0.3,0,0.5,0,0.8v0.2c0,0.3,0,0.5,0,0.8c0,0.1,0,0.3,0,0.4
								c0.2,9.1,6.3,16.8,14.7,19.2v0.5c0,0-0.1,0.1-0.2,0.1h0c-0.3,0-0.6,0-0.8,0c-0.8,0.1-1.7,0.2-2.5,0.3c-2.6,0.5-5.4,1.5-8,2.9
								c-1.1,0.5-2.1,1.2-3.1,1.8c-3.9,2.6-7.1,6-8.2,9.6c-0.4,1.3-0.9,3.4-1.5,6.2c-1,4.4-2.2,10.2-3.5,16.2c-2.7-1-5.1-2.5-7-4.6
								c3.8-3.3,3.2-12.7,6.3-19.6C83,91.2,82,86,82,80.7c0-1.1,0-2.1,0.1-3.1c0.1-1.8,0.4-3.6,0.7-5.3c0,0,0,0,0,0
								c1-5.2,3.1-10,5.8-14.2V58c0-0.9,0-1.8,0.1-2.7c0.1-1.5,0.3-3.1,0.6-4.6c0,0,0,0,0,0c0.7-3.4,1.8-6.6,3.3-9.5
								c0-0.1,0.1-0.1,0.1-0.2c0-0.3,0.1-0.7,0.1-1v0c2.6-12,13.4-21,26.2-21h0.5c0.6,0,1.3,0,1.9,0.1c2,0.2,4,0.6,5.9,1.2
								c0.1,0,0.2,0.1,0.3,0.1c9.7,3.3,16.9,12,18,22.5c2,4.6,3.2,9.8,3.2,15.2c0,0.5,0,1,0,1.6c3.6,6.1,5.7,13.3,5.7,21.1
								c0,1.5-0.1,3-0.2,4.4c0,0.4-0.1,0.8-0.1,1.2c-0.4,3.3-1.3,6.6-2.5,9.6C154.7,102.7,154.1,111.8,157.9,115.1L157.9,115.1z"/>
							<path class="st0" d="M110.7,90.8c-0.3-0.8-0.4-1.5-0.4-2.4l0,0c0-0.3,0-0.5,0-0.8v0c0-0.3,0.1-0.5,0.1-0.7c0,0,0,0,0-0.1
								c0-0.2,0.1-0.4,0.2-0.6c0.1-0.3,0.2-0.6,0.3-0.8c0.1-0.2,0.2-0.4,0.3-0.7c0.1-0.2,0.3-0.4,0.4-0.6c0.1-0.2,0.3-0.4,0.5-0.6
								c0.2-0.2,0.4-0.4,0.5-0.5l0,0c0,0,0.1-0.1,0.1-0.1c0.1,0,0.2,0,0.3,0c-0.1,0-0.1,0.1-0.2,0.1l0,0c-0.2,0.2-0.4,0.3-0.5,0.5
								c-0.2,0.2-0.3,0.4-0.5,0.6c-0.2,0.2-0.3,0.4-0.4,0.6c-0.1,0.2-0.2,0.4-0.3,0.7c-0.1,0.3-0.2,0.5-0.3,0.8
								c-0.1,0.2-0.1,0.4-0.2,0.6c0,0,0,0,0,0.1c-0.1,0.2-0.1,0.5-0.1,0.7v0c0,0.3,0,0.5,0,0.8l0,0c0,0.8,0.1,1.6,0.4,2.4
								c0.3,0.9,0.9,1.8,1.5,2.5c0.2,0.2,0.4,0.4,0.6,0.6c0.4,0.3,0.8,0.6,1.3,0.9c1.3,0.8,3,1.3,4.7,1.3c-0.1,0-0.2,0-0.3,0
								c-1.7,0-3.3-0.5-4.7-1.3c-0.5-0.3-0.9-0.6-1.3-0.9c-0.2-0.2-0.4-0.4-0.6-0.6C111.6,92.6,111,91.8,110.7,90.8z"/>
							<path class="st0" d="M124.7,82.9c0.1,0,0.2,0,0.3,0c0.1,0.1,0.2,0.1,0.3,0.2c0.1,0.1,0.2,0.2,0.4,0.4c0,0,0.1,0.1,0.1,0.1
								c0.2,0.2,0.3,0.3,0.4,0.5c0.5,0.7,0.9,1.5,1.1,2.3c0.1,0.2,0.1,0.3,0.1,0.5c0.1,0.5,0.2,1,0.2,1.5c0,0.8-0.1,1.5-0.3,2.2
								c-0.3,1-0.9,1.9-1.6,2.7c-0.2,0.2-0.4,0.4-0.6,0.6c-0.4,0.3-0.8,0.6-1.3,0.9c-1.2,0.7-2.7,1.2-4.3,1.3c1.5-0.1,2.8-0.5,4-1.3
								c0.5-0.3,0.9-0.6,1.3-0.9c0.2-0.2,0.4-0.4,0.6-0.6c0.7-0.8,1.3-1.7,1.6-2.7c0.2-0.7,0.3-1.4,0.3-2.2c0-0.5,0-1-0.2-1.5
								c0-0.2-0.1-0.3-0.1-0.5c-0.2-0.8-0.6-1.6-1.1-2.3c-0.1-0.2-0.3-0.3-0.4-0.5c0,0-0.1-0.1-0.1-0.1c-0.1-0.1-0.2-0.3-0.4-0.4
								C124.9,83.1,124.8,83,124.7,82.9z"/>
							<path class="st0" d="M157.3,146.8H80.4c0,0,2.7-13.8,5.4-26.9c1.2-6,2.5-11.8,3.5-16.2c0.6-2.8,1.2-4.9,1.6-6.2
								c1.1-3.7,4.3-7.1,8.2-9.6c1-0.7,2.1-1.3,3.1-1.8c2.4-1.3,5-2.2,7.5-2.7c-1,1.5-1.6,3.2-1.6,5.1c0,0.5,0,1,0.1,1.4
								c0.8,4.7,5.3,8.4,10.7,8.4c5.4,0,10.1-3.8,10.7-8.6c0.1-0.4,0.1-0.8,0.1-1.2c0-1.8-0.6-3.5-1.5-5c-1-0.3-2.1-0.5-3.1-0.6
								c0,0,0,0,0,0c0,0,0,0,0,0h0c0.1,0,0.2,0,0.3,0h0c1.2,0.1,2.3,0.3,3.4,0.5c2.3,0.6,4.7,1.6,7,2.9c0.7,0.4,1.4,0.8,2,1.3
								c4,2.8,7.5,6.4,9.5,9.9c0.5,0.9,1,2.5,1.6,4.6c1.2,4.2,2.5,10.4,3.7,16.9C155,132.5,157.3,146.9,157.3,146.8L157.3,146.8z"/>
							<path class="st0" d="M127.4,86.9c0-0.2-0.1-0.3-0.1-0.5c-0.2-0.8-0.6-1.6-1.1-2.3c-0.1-0.2-0.3-0.4-0.4-0.5
								c0,0,0-0.1-0.1-0.1c-0.1-0.1-0.2-0.3-0.4-0.4c-0.1-0.1-0.2-0.2-0.3-0.2c-0.1,0-0.2,0-0.3,0c0.1,0.1,0.2,0.2,0.3,0.3
								c0.1,0.1,0.2,0.2,0.4,0.4c0,0,0.1,0.1,0.1,0.1c0.2,0.2,0.3,0.3,0.4,0.5c0.5,0.7,0.9,1.5,1.1,2.3c0.1,0.2,0.1,0.3,0.1,0.5
								c0.1,0.5,0.2,1,0.2,1.5c0,0.8-0.1,1.5-0.3,2.2c-0.3,1-0.9,1.9-1.6,2.7c-0.2,0.2-0.4,0.4-0.6,0.6c-0.4,0.3-0.8,0.6-1.3,0.9
								c-1.2,0.7-2.5,1.2-4,1.3c1.6-0.1,3-0.5,4.3-1.3c0.5-0.3,0.9-0.6,1.3-0.9c0.2-0.2,0.4-0.4,0.6-0.6c0.7-0.8,1.3-1.7,1.6-2.7
								c0.2-0.7,0.3-1.4,0.3-2.2C127.6,87.9,127.5,87.4,127.4,86.9z M109.7,83.3C109.7,83.3,109.6,83.3,109.7,83.3
								c0.1,0,0.3,0,0.5,0c0.8-0.2,1.6-0.3,2.5-0.3c0.1,0,0.2,0,0.3,0c0,0,0,0,0,0c-0.3,0-0.6,0-0.8,0
								C111.3,83,110.4,83.1,109.7,83.3z"/>
							<path class="st0" d="M129.6,88.5c0,0.4,0,0.8-0.1,1.2c-0.6,4.8-5.2,8.6-10.7,8.6s-9.9-3.6-10.7-8.4c-0.1-0.5-0.1-0.9-0.1-1.4
								c0-1.9,0.6-3.6,1.6-5.1c0.2,0,0.4-0.1,0.5-0.1c0.8-0.2,1.6-0.3,2.5-0.3c0.1,0,0.2,0,0.3,0c0,0-0.1,0.1-0.1,0.1l0,0
								c-0.2,0.2-0.4,0.3-0.5,0.5c-0.2,0.2-0.3,0.4-0.5,0.6c-0.2,0.2-0.3,0.4-0.4,0.6c-0.1,0.2-0.3,0.4-0.3,0.7
								c-0.1,0.3-0.2,0.5-0.3,0.8c-0.1,0.2-0.1,0.4-0.2,0.6c0,0,0,0,0,0.1c-0.1,0.2-0.1,0.5-0.1,0.7v0c0,0.3,0,0.5,0,0.8l0,0
								c0,0.8,0.1,1.6,0.4,2.4c0.3,0.9,0.9,1.8,1.5,2.5c0.2,0.2,0.4,0.4,0.6,0.6c0.4,0.3,0.8,0.6,1.3,0.9c1.3,0.8,3,1.3,4.7,1.3
								c0.1,0,0.2,0,0.3,0c0.2,0,0.3,0,0.4,0c1.6-0.1,3-0.5,4.3-1.3c0.5-0.3,0.9-0.6,1.3-0.9c0.2-0.2,0.4-0.4,0.6-0.6
								c0.7-0.8,1.3-1.7,1.6-2.7c0.2-0.7,0.3-1.4,0.3-2.2c0-0.5-0.1-1-0.2-1.5c0-0.2-0.1-0.3-0.1-0.5c-0.2-0.8-0.6-1.6-1.1-2.3
								c-0.1-0.2-0.3-0.4-0.4-0.5c0,0,0-0.1-0.1-0.1c-0.1-0.1-0.2-0.3-0.4-0.4c-0.1-0.1-0.2-0.2-0.3-0.2c1.1,0.1,2.1,0.3,3.1,0.6
								C129.1,85,129.6,86.7,129.6,88.5L129.6,88.5z"/>
							<circle class="st0" cx="129" cy="56.9" r="1.5"/>
							<circle class="st0" cx="109.9" cy="56.9" r="1.5"/>
							<circle class="st0" cx="106.7" cy="66" r="3"/>
							<circle class="st0" cx="132.3" cy="66" r="3"/>
							<path class="st0" d="M115,69.2c0,1.3,0.6,2.5,1.6,3.2c0.8,0.6,1.7,0.9,2.7,0.9c1,0,2-0.3,2.7-0.9c1-0.8,1.6-1.9,1.6-3.2H115
								L115,69.2z"/>
							<path class="st0" d="M116.6,72.4c0.8,0.6,1.7,0.9,2.7,0.9c1,0,2-0.3,2.7-0.9c-0.5-0.7-1.6-1.1-2.7-1.1S117.2,71.7,116.6,72.4
								z"/>
							<path class="st0" d="M127.6,88.5c0,0.8-0.1,1.5-0.3,2.2c-0.3,1-0.9,1.9-1.6,2.7c-0.2,0.2-0.4,0.4-0.6,0.6
								c-0.4,0.3-0.8,0.6-1.3,0.9c-1.2,0.7-2.7,1.2-4.3,1.3c1.5-0.1,2.8-0.5,4-1.3c0.5-0.3,0.9-0.6,1.3-0.9c0.2-0.2,0.4-0.4,0.6-0.6
								c0.7-0.8,1.3-1.7,1.6-2.7c0.2-0.7,0.3-1.4,0.3-2.2c0-0.5,0-1-0.2-1.5c0-0.2-0.1-0.3-0.1-0.5c-0.2-0.8-0.6-1.6-1.1-2.3
								c-0.1-0.2-0.3-0.3-0.4-0.5c0,0-0.1-0.1-0.1-0.1c-0.1-0.1-0.2-0.3-0.4-0.4c-0.1-0.1-0.2-0.2-0.3-0.3c0.1,0,0.2,0,0.3,0
								c0.1,0.1,0.2,0.1,0.3,0.2c0.1,0.1,0.2,0.2,0.4,0.4c0,0,0.1,0.1,0.1,0.1c0.2,0.2,0.3,0.3,0.4,0.5c0.5,0.7,0.9,1.5,1.1,2.3
								c0.1,0.2,0.1,0.3,0.1,0.5C127.5,87.4,127.6,87.9,127.6,88.5z"/>
							<path class="st0" d="M139.4,60.2c0,0-0.1,0-0.1,0c0.1,0.5,0.1,0.9,0.1,1.4v0.2c0,0.3,0,0.5,0,0.8c0,0.2,0,0.3,0,0.5
								c-0.2,9.1-6.3,16.7-14.7,19.1v0.4c0.1,0.1,0.2,0.1,0.2,0.2h0l0,0c0,0,0,0,0,0c-0.1,0-0.2,0-0.3,0c0.1,0.1,0.2,0.2,0.3,0.3
								c0.1,0.1,0.2,0.2,0.4,0.4c0,0,0.1,0.1,0.1,0.1c0.2,0.2,0.3,0.3,0.4,0.5c0.5,0.7,0.9,1.5,1.1,2.3c0.1,0.2,0.1,0.3,0.1,0.5
								c0.1,0.5,0.2,1,0.2,1.5c0,0.8-0.1,1.5-0.3,2.2c-0.3,1-0.9,1.9-1.6,2.7c-0.2,0.2-0.4,0.4-0.6,0.6c-0.4,0.3-0.8,0.6-1.3,0.9
								c-1.2,0.7-2.5,1.2-4,1.3c-0.1,0-0.3,0-0.4,0c-1.7,0-3.3-0.5-4.7-1.3c-0.5-0.3-0.9-0.6-1.3-0.9c-0.2-0.2-0.4-0.4-0.6-0.6
								c-0.7-0.8-1.2-1.6-1.5-2.5c-0.3-0.8-0.4-1.5-0.4-2.4l0,0c0-0.3,0-0.5,0-0.8v0c0-0.3,0.1-0.5,0.1-0.7c0,0,0,0,0-0.1
								c0-0.2,0.1-0.4,0.2-0.6c0.1-0.3,0.2-0.6,0.3-0.8c0.1-0.2,0.2-0.4,0.3-0.7c0.1-0.2,0.3-0.4,0.4-0.6c0.2-0.2,0.3-0.4,0.5-0.6
								c0.2-0.2,0.3-0.4,0.5-0.5l0,0c0,0,0.1-0.1,0.2-0.1c0,0,0,0,0,0c0.1-0.1,0.1-0.1,0.2-0.1c0.1-0.1,0.3-0.2,0.5-0.3
								c-0.2,0-0.3-0.1-0.5-0.1c-8.4-2.4-14.6-10.1-14.7-19.2c0-0.1,0-0.3,0-0.4c0-0.3,0-0.5,0-0.8v-0.2c0-0.5,0.1-0.9,0.1-1.4h-0.1
								c-2,0-3.7-1.7-3.7-3.8c0-2.1,1.7-3.8,3.8-3.8c0.2,0,0.5,0,0.7,0.1h0l0.5,0.1v0c-0.3-1.8-0.1-4.1,3.2-4.8
								c0.6-0.1,1.2-0.2,2-0.3c0,0,0,0,0,0c0.4,0,0.8,0,1.2,0c5.1,0,9.8-2.1,13.1-5.5c0.2-0.2,0.5-0.5,0.7-0.7
								c0.3-0.3,0.6-0.7,0.9-1c0.8-1,1.5-2.2,2-3.4c0,0,0-0.1,0-0.1c0.1,0.3,0.2,0.6,0.3,0.9c0.4,1.2,0.9,2.3,1.5,3.3
								c0.2,0.3,0.4,0.7,0.7,1c0.4,0.5,0.8,1,1.2,1.5c1.9,2.2,4.3,3.8,7.1,4.9c0.5,0.2,1.1,0.4,1.7,0.5l0.2-0.1c0,0,0.1,0.1,0.1,0.2
								c0,0,0,0,0,0c2.1,0.6,2.7,1.7,2.4,3.3h0c0,0,0,0.1,0,0.1c0.2,0,0.5-0.1,0.7-0.1c2.1,0,3.8,1.7,3.8,3.8
								C142.6,58.4,141.2,59.9,139.4,60.2L139.4,60.2z"/>
						</g>
					</g>
				</g>
				<path class="st0" d="M168.6,52.2c0,26.6-25.6,50.1-48.2,73.6c-22.3-23.5-48.2-47-48.2-73.6S93.8,4,120.4,4
					S168.6,25.6,168.6,52.2z"/>
			</g>
		</g>
	</g>
</g>
</svg>
