<?xml version="1.0" encoding="utf-8"?>
<!-- Generator: Adobe Illustrator 27.1.1, SVG Export Plug-In . SVG Version: 6.00 Build 0)  -->
<svg version="1.1" id="Camada_4" xmlns="http://www.w3.org/2000/svg" xmlns:xlink="http://www.w3.org/1999/xlink" x="0px" y="0px"
	 viewBox="0 0 566.9 566.9" style="enable-background:new 0 0 566.9 566.9;" xml:space="preserve">
<style type="text/css">
	.st0{fill:none;stroke:#9591BE;stroke-width:2;stroke-linecap:round;stroke-linejoin:round;}
	.st1{opacity:0.7;}
</style>
<g>
	<polygon class="st0" points="197.5,43.2 166,50.6 166,43.1 	"/>
	<path class="st0" d="M326.5,400.4c-2.3,0.5-4.5-0.9-5-3.2c0-0.2-0.1-0.3-0.1-0.5c-0.2-2.1,1.2-4,3.2-4.5c2.1-0.5,4.1,0.7,4.8,2.7
		c0.1,0.2,0.1,0.3,0.1,0.5C330.2,397.6,328.7,399.9,326.5,400.4L326.5,400.4z"/>
	<path class="st0" d="M348.5,412.6c0.5,2.3-0.9,4.5-3.2,5s-4.5-0.9-5-3.2c0-0.2-0.1-0.3-0.1-0.5c-0.1-1.2,0.3-2.3,1-3.2
		c0.6-0.6,1.3-1.1,2.2-1.3c1.2-0.3,2.4,0,3.3,0.7l20.7-2.3l-19.2,4.3C348.4,412.3,348.5,412.4,348.5,412.6L348.5,412.6z"/>
	<path class="st0" d="M375.4,399.1c-2.1,0.5-4.1-0.7-4.9-2.7c-0.1-0.2-0.1-0.3-0.1-0.5c-0.5-2.3,0.9-4.5,3.2-5
		c2.3-0.5,4.5,0.9,5,3.2c0,0.2,0.1,0.4,0.1,0.5C378.9,396.7,377.5,398.6,375.4,399.1z"/>
	<path class="st0" d="M406,335.7c-0.1,1.8-1.4,3.4-3.3,3.8c-2.1,0.5-4.1-0.7-4.8-2.7c0-0.1,0-0.1-0.1-0.2c0-0.1-0.1-0.2-0.1-0.3
		c-0.5-2.3,0.9-4.5,3.2-5c2.3-0.5,4.5,0.9,5,3.2c0,0.2,0.1,0.3,0.1,0.5C406,335.2,406,335.5,406,335.7L406,335.7z"/>
	<polygon class="st0" points="526,44.1 524.6,543.5 343.2,543 514.9,523.8 507.2,454.7 502.2,410 499.7,388.1 497.3,366.1 
		492.3,321.4 489.6,296.9 487.1,275.2 484.3,249.8 481.7,226.3 479.1,202.7 476.8,182.3 474.3,160 471.8,137.6 467,94.6 461.4,43.9 
			"/>
	<polygon class="st0" points="514.9,523.8 343.2,543 157.1,563.7 157,563.3 245.1,542.7 482.6,487.1 475,454.7 469.7,432.3 
		464.4,409.9 454,366 451.3,354.4 448.7,343.7 445.8,331.3 443.5,321.3 439.9,306.4 437.7,296.8 434.9,285.1 432.5,275 429.2,261.1 
		426.5,249.7 424.1,239.2 421,226.1 418.9,217.3 415.4,202.6 413.8,195.7 410.6,182.2 408.7,174.2 405.3,159.8 403.5,152.3 
		400,137.5 398.4,130.4 389.9,94.4 377.9,43.7 376.3,36.8 459.5,27.5 461.4,43.9 467,94.6 471.8,137.6 474.3,160 476.8,182.3 
		479.1,202.7 481.7,226.3 484.3,249.8 487.1,275.2 489.6,296.9 492.3,321.4 497.3,366.1 499.7,388.1 502.2,410 507.2,454.7 	"/>
	<path class="st0" d="M326.5,400.4c-2.3,0.5-4.5-0.9-5-3.2c0-0.2-0.1-0.3-0.1-0.5c-0.2-2.1,1.2-4,3.2-4.5c2.1-0.5,4.1,0.7,4.8,2.7
		c0.1,0.2,0.1,0.3,0.1,0.5C330.2,397.6,328.7,399.9,326.5,400.4L326.5,400.4z"/>
	<path class="st0" d="M348.5,412.6c0.5,2.3-0.9,4.5-3.2,5s-4.5-0.9-5-3.2c0-0.2-0.1-0.3-0.1-0.5c-0.1-1.2,0.3-2.3,1-3.2
		c0.6-0.6,1.3-1.1,2.2-1.3c1.2-0.3,2.4,0,3.3,0.7l20.7-2.3l-19.2,4.3C348.4,412.3,348.5,412.4,348.5,412.6L348.5,412.6z"/>
	<path class="st0" d="M375.4,399.1c-2.1,0.5-4.1-0.7-4.9-2.7c-0.1-0.2-0.1-0.3-0.1-0.5c-0.5-2.3,0.9-4.5,3.2-5
		c2.3-0.5,4.5,0.9,5,3.2c0,0.2,0.1,0.4,0.1,0.5C378.9,396.7,377.5,398.6,375.4,399.1z"/>
	<path class="st0" d="M406,335.7c-0.1,1.8-1.4,3.4-3.3,3.8c-2.1,0.5-4.1-0.7-4.8-2.7c0-0.1,0-0.1-0.1-0.2c0-0.1-0.1-0.2-0.1-0.3
		c-0.5-2.3,0.9-4.5,3.2-5c2.3-0.5,4.5,0.9,5,3.2c0,0.2,0.1,0.3,0.1,0.5C406,335.2,406,335.5,406,335.7L406,335.7z"/>
	<path class="st0" d="M150.5,107.1l102.3-11.3L150.5,107.1z"/>
	<path class="st0" d="M152.8,128.7l125-13.9L152.8,128.7L152.8,128.7z"/>
	<path class="st0" d="M475,454.7l-5.3-22.4l-5.3-22.4L454,366l-2.7-11.7l-2.5-10.7l-2.9-12.4l-2.4-10l-3.5-14.9l-2.3-9.6l-2.8-11.7
		l-2.4-10.1l-3.3-13.9l-2.7-11.4l-2.5-10.5l-3.1-13.1l-2.1-8.8l-3.5-14.7l-1.6-6.8l-3.2-13.6l-1.9-8l-3.4-14.4l-1.8-7.5l-3.5-14.9
		l-1.7-7.1l-8.5-35.9l-12-50.8l-1.6-6.9l-7.9-33.6l-170.8,40L166,50.6L41,79.8l114.3,483.9l1.8-0.4l88.1-20.6l237.5-55.6L475,454.7
		L475,454.7z M326.5,400.4c-2.3,0.5-4.5-0.9-5-3.2c0-0.2-0.1-0.3-0.1-0.5c-0.2-2.1,1.2-4,3.2-4.5c2.1-0.5,4.1,0.7,4.8,2.7
		c0.1,0.2,0.1,0.3,0.1,0.5C330.2,397.6,328.7,399.9,326.5,400.4L326.5,400.4z M348.5,412.6c0.5,2.3-0.9,4.5-3.2,5
		c-2.3,0.5-4.5-0.9-5-3.2c0-0.2-0.1-0.3-0.1-0.5c-0.1-1.2,0.3-2.3,1-3.2c0.6-0.6,1.3-1.1,2.2-1.3c1.2-0.3,2.4,0,3.3,0.7l20.7-2.3
		l-19.2,4.3C348.4,412.3,348.5,412.4,348.5,412.6L348.5,412.6z M375.4,399.1c-2.1,0.5-4.1-0.7-4.9-2.7c-0.1-0.2-0.1-0.3-0.1-0.5
		c-0.5-2.3,0.9-4.5,3.2-5c2.3-0.5,4.5,0.9,5,3.2c0,0.2,0.1,0.4,0.1,0.5C378.9,396.7,377.5,398.6,375.4,399.1z M402.8,339.5
		c-2.1,0.5-4.1-0.7-4.8-2.7c0-0.1,0-0.1-0.1-0.2c0-0.1-0.1-0.2-0.1-0.3c-0.5-2.3,0.9-4.5,3.2-5c2.3-0.5,4.5,0.9,5,3.2
		c0,0.2,0.1,0.3,0.1,0.5c0,0.2,0,0.5,0,0.7C405.9,337.5,404.6,339,402.8,339.5L402.8,339.5z"/>
	<path class="st0" d="M326.5,400.4c-2.3,0.5-4.5-0.9-5-3.2c0-0.2-0.1-0.3-0.1-0.5c-0.2-2.1,1.2-4,3.2-4.5c2.1-0.5,4.1,0.7,4.8,2.7
		c0.1,0.2,0.1,0.3,0.1,0.5C330.2,397.6,328.7,399.9,326.5,400.4L326.5,400.4z"/>
	<path class="st0" d="M348.5,412.6c0.5,2.3-0.9,4.5-3.2,5s-4.5-0.9-5-3.2c0-0.2-0.1-0.3-0.1-0.5c-0.1-1.2,0.3-2.3,1-3.2
		c0.6-0.6,1.3-1.1,2.2-1.3c1.2-0.3,2.4,0,3.3,0.7l20.7-2.3l-19.2,4.3C348.4,412.3,348.5,412.4,348.5,412.6L348.5,412.6z"/>
	<path class="st0" d="M375.4,399.1c-2.1,0.5-4.1-0.7-4.9-2.7c-0.1-0.2-0.1-0.3-0.1-0.5c-0.5-2.3,0.9-4.5,3.2-5
		c2.3-0.5,4.5,0.9,5,3.2c0,0.2,0.1,0.4,0.1,0.5C378.9,396.7,377.5,398.6,375.4,399.1z"/>
	<path class="st0" d="M406,335.7c-0.1,1.8-1.4,3.4-3.3,3.8c-2.1,0.5-4.1-0.7-4.8-2.7c0-0.1,0-0.1-0.1-0.2c0-0.1-0.1-0.2-0.1-0.3
		c-0.5-2.3,0.9-4.5,3.2-5c2.3-0.5,4.5,0.9,5,3.2c0,0.2,0.1,0.3,0.1,0.5C406,335.2,406,335.5,406,335.7L406,335.7z"/>
	<g>
		<path class="st0" d="M350.8,172.5c-4.5,1-9.3,1-13.8,0l9.8-29.2l27.7-6.4C377.3,153,367,168.7,350.8,172.5L350.8,172.5
			L350.8,172.5z"/>
		<g class="st1">
			<path class="st0" d="M340.7,111c15.1-1.9,29.3,7.6,33.3,22.2l-26.8,6.2L340.7,111L340.7,111z"/>
		</g>
		<path class="st0" d="M333.1,171.3c-10.2-3.3-18-11.7-20.4-22.2c-2.6-11.3,1.5-23.1,10.4-30.5l19.8,23.9L333.1,171.3L333.1,171.3z"
			/>
		<path class="st0" d="M326.3,116.4c3.2-2.2,6.2-3.6,10.1-4.5c0,0,0.4-0.1,0.6-0.1l5.6,24.2L326.3,116.4z"/>
	</g>
	<g>
		<path class="st0" d="M368.2,264.5c-4.5,1-9.3,1-13.8,0l9.8-29.1l27.7-6.4C394.7,245,384.4,260.8,368.2,264.5L368.2,264.5
			L368.2,264.5z"/>
		<path class="st0" d="M358.1,203.1c15.1-1.9,29.3,7.6,33.3,22.1l-26.8,6.2L358.1,203.1z"/>
		<path class="st0" d="M350.5,263.3c-10.2-3.3-18-11.7-20.4-22.2c-2.6-11.3,1.5-23.1,10.4-30.5l19.8,23.9L350.5,263.3z"/>
		<path class="st0" d="M343.7,208.4c3.2-2.2,6.2-3.6,10.1-4.5c0,0,0.4-0.1,0.6-0.1l5.6,24.2L343.7,208.4L343.7,208.4z"/>
	</g>
	<g>
		<path class="st0" d="M334.4,66.9L82.9,124.5C82.9,124.5,334.4,66.9,334.4,66.9z"/>
		<path class="st0" d="M267.7,126.2L92.5,166.4L267.7,126.2z"/>
		<path class="st0" d="M253.2,175.4l-150.7,34.5L253.2,175.4z"/>
		<path class="st0" d="M256.8,195.5l-149.8,34.3L256.8,195.5z"/>
		<path class="st0" d="M248.2,153.6L97.5,188.2L248.2,153.6z"/>
		<path class="st0" d="M273.5,266l-150.2,34.4L273.5,266z"/>
		<path class="st0" d="M268.3,241.2l-150.7,34.5L268.3,241.2z"/>
		<path class="st0" d="M272.1,288.6l-149.5,34.3L272.1,288.6z"/>
		<path class="st0" d="M287.1,212.7l-174.8,40L287.1,212.7z"/>
		<path class="st0" d="M307.9,305.5l-174.3,39.9L307.9,305.5z"/>
		<path class="st0" d="M251.5,364.2L143.6,389L251.5,364.2L251.5,364.2z"/>
		<path class="st0" d="M256.4,385.6l-107.9,24.8L256.4,385.6z"/>
		<path class="st0" d="M266.3,428.8l-107.9,24.8L266.3,428.8L266.3,428.8z"/>
		<path class="st0" d="M271.3,450.6l-107.9,24.8L271.3,450.6L271.3,450.6z"/>
		<path class="st0" d="M247.2,342.3l-108.6,25L247.2,342.3z"/>
		<path class="st0" d="M440,463.8l-100.3,23L440,463.8L440,463.8z"/>
		<path class="st0" d="M435.2,442.6l-122.6,28.1L435.2,442.6z"/>
		<path class="st0" d="M278.7,403l-125.3,28.8L278.7,403z"/>
	</g>
	<g>
		<polygon class="st0" points="299.7,446.5 298.3,446.8 281.9,373.1 274,337.7 275.4,337.4 281.1,362.9 283.3,373 287.9,393.5 
			290.2,403.7 292.4,413.9 294.7,424.1 297.2,435.3 		"/>
		<g>
			<line class="st0" x1="297.2" y1="435.3" x2="438.1" y2="403.8"/>
			<line class="st0" x1="435.6" y1="392.6" x2="367.5" y2="407.8"/>
			<polyline class="st0" points="348.3,412.1 340.3,413.9 294.7,424.1 			"/>
			<line class="st0" x1="292.4" y1="413.9" x2="433.3" y2="382.4"/>
			<line class="st0" x1="290.1" y1="403.7" x2="431" y2="372.2"/>
			<line class="st0" x1="287.9" y1="393.5" x2="428.7" y2="362"/>
			<line class="st0" x1="281" y1="362.9" x2="421.9" y2="331.4"/>
			<path class="st0" d="M321.3,429.9c-0.4,1.5-1.7,2.7-3.3,2.9c-1.5,0.2-2.9-0.3-3.8-1.3c-0.5-0.6-0.9-1.3-1-2.1
				c-0.4-2.3,1.2-4.4,3.5-4.8c0.3,0,0.6-0.1,0.9-0.1c1.9,0.1,3.6,1.5,3.9,3.5C321.5,428.7,321.4,429.3,321.3,429.9L321.3,429.9z"/>
			<path class="st0" d="M328.6,399.2c-0.5,0.6-1.3,1-2.1,1.2c-0.9,0.2-1.8,0.1-2.6-0.3h0c-1.1-0.5-2-1.6-2.3-2.9
				c0-0.2-0.1-0.3-0.1-0.5c-0.2-2.1,1.2-4,3.2-4.5c2.1-0.5,4.1,0.7,4.8,2.7c0.1,0.2,0.1,0.3,0.1,0.5
				C330,396.8,329.5,398.2,328.6,399.2L328.6,399.2z"/>
			<g>
				
					<rect x="296.8" y="428.4" transform="matrix(0.9759 -0.2181 0.2181 0.9759 -84.7172 91.4512)" class="st0" width="150" height="1.9"/>
				<line class="st0" x1="285.8" y1="384.3" x2="426.7" y2="352.9"/>
				<polyline class="st0" points="424.2,341.6 399.1,347.2 357.3,356.6 				"/>
				<line class="st0" x1="349.3" y1="358.4" x2="283.3" y2="373.1"/>
				<line class="st0" x1="278.7" y1="352.7" x2="419.6" y2="321.2"/>
				<path class="st0" d="M395.4,373.2c-1.1,0.2-2.1,0-3-0.5c-0.8-0.5-1.5-1.3-1.8-2.2c-0.1-0.2-0.1-0.3-0.1-0.5
					c-0.5-2.3,0.9-4.5,3.2-5c0.8-0.2,1.6-0.1,2.3,0.1c1.3,0.5,2.4,1.6,2.7,3c0,0.2,0.1,0.3,0.1,0.5
					C398.8,370.8,397.4,372.8,395.4,373.2L395.4,373.2z"/>
				<polyline class="st0" points="395.8,365.2 396.9,359.5 399.1,347.2 400.5,339.3 				"/>
				<path class="st0" d="M345.3,417.6c-2.3,0.5-4.5-0.9-5-3.2c0-0.2-0.1-0.3-0.1-0.5c-0.1-1.2,0.3-2.3,1-3.1c0,0,0,0,0-0.1
					c0.6-0.6,1.3-1.1,2.2-1.3c0.3-0.1,0.6-0.1,0.9-0.1c0.9,0,1.7,0.3,2.4,0.8c0.7,0.5,1.2,1.2,1.5,2c0.1,0.2,0.1,0.3,0.1,0.5
					C349,414.8,347.6,417.1,345.3,417.6L345.3,417.6z"/>
				<polyline class="st0" points="352.1,361.9 350.8,369.8 344.4,409.3 				"/>
				<line class="st0" x1="317.5" y1="424.6" x2="323.9" y2="400.1"/>
				<line class="st0" x1="341.3" y1="410.8" x2="328.6" y2="399.2"/>
				<path class="st0" d="M375.4,399.1c-2.1,0.5-4.1-0.7-4.9-2.7c-0.1-0.2-0.1-0.3-0.1-0.5c-0.4-1.7,0.3-3.4,1.7-4.4
					c0.4-0.3,0.9-0.5,1.4-0.6c1.1-0.2,2.1,0,3,0.5c1,0.6,1.7,1.5,2,2.7c0,0.2,0.1,0.4,0.1,0.5C378.9,396.7,377.5,398.6,375.4,399.1z
					"/>
				<line class="st0" x1="392.3" y1="372.8" x2="376.6" y2="391.4"/>
				<polyline class="st0" points="372.2,391.6 358.7,368 355.2,361.8 				"/>
				<path class="st0" d="M355.2,361.8c-0.3,0.1-0.5,0.2-0.8,0.3c-0.8,0.2-1.5,0.1-2.3-0.1c-1.3-0.4-2.4-1.6-2.7-3
					c0-0.2-0.1-0.3-0.1-0.5c-0.2-2.1,1.2-4,3.2-4.5c2.1-0.5,4.1,0.7,4.9,2.7c0.1,0.2,0.1,0.3,0.1,0.5
					C357.9,359,356.9,361,355.2,361.8L355.2,361.8z"/>
			</g>
			<path class="st0" d="M402.8,339.5c-0.8,0.2-1.6,0.1-2.3-0.1c-1.2-0.4-2.1-1.3-2.5-2.5c-0.1-0.2-0.1-0.3-0.1-0.5
				c-0.5-2.3,0.9-4.5,3.2-5c2.3-0.5,4.5,0.9,5,3.2c0,0.2,0.1,0.3,0.1,0.5C406.2,337.1,404.9,339,402.8,339.5L402.8,339.5z"/>
		</g>
	</g>
</g>
</svg>
