<?xml version="1.0" encoding="UTF-8"?>
<svg id="Camada_1" xmlns="http://www.w3.org/2000/svg" xmlns:xlink="http://www.w3.org/1999/xlink" version="1.1" viewBox="0 0 566.9 566.9">
  <!-- Generator: Adobe Illustrator 29.6.1, SVG Export Plug-In . SVG Version: 2.1.1 Build 9)  -->
  <defs>
    <style>
      .st0, .st1, .st2, .st3, .st4, .st5, .st6, .st7, .st8, .st9 {
        fill: none;
      }

      .st1 {
        opacity: .7;
      }

      .st1, .st2, .st3, .st4, .st5, .st6, .st7, .st8, .st9 {
        stroke: #9591be;
        stroke-linecap: round;
        stroke-linejoin: round;
      }

      .st1, .st2, .st3, .st4, .st7 {
        isolation: isolate;
      }

      .st1, .st2, .st3, .st7, .st9 {
        stroke-width: 2px;
      }

      .st2 {
        opacity: .5;
      }

      .st3, .st4 {
        opacity: .8;
      }

      .st4, .st8 {
        stroke-width: 2px;
      }

      .st5 {
        stroke-width: 2px;
      }

      .st6 {
        stroke-width: 2px;
      }

      .st7 {
        opacity: .3;
      }

      .st10 {
        fill: #9591be;
      }

      .st11 {
        clip-path: url(#clippath);
      }
    </style>
    <clipPath id="clippath">
      <circle class="st0" cx="87.1" cy="419.3" r="41.4"/>
    </clipPath>
  </defs>
  <g id="Camada_4">
    <g>
      <path class="st9" d="M175.7,364.4h65.7c12.1,0,21.9,9.8,21.9,21.9v65.7c0,12.1-9.8,21.9-21.9,21.9h-65.7c-12.1,0-21.9-9.8-21.9-21.9v-65.7c0-12.1,9.8-21.9,21.9-21.9Z"/>
      <path class="st9" d="M55.1,364.6h65.7c12.1,0,21.9,9.8,21.9,21.9v65.7c0,12.1-9.8,21.9-21.9,21.9H55.1c-12.1,0-21.9-9.8-21.9-21.9v-65.7c0-12.1,9.8-21.9,21.9-21.9Z"/>
      <g>
        <circle class="st9" cx="87.1" cy="419.3" r="41.4"/>
        <g>
          <g class="st11">
            <path class="st9" d="M128.9,397.7c-12.3,1.3-21.9-.5-27.9-2-6.7-1.7-13.2-3.5-19.2-9.1-4.1-3.8-6.3-7.9-7.6-10.7l28.3.9c-7.3,6.6-16.5,16.5-24.5,30.3-12.1,20.9-15.6,40.6-16.7,52.4l38.8,7.1c.3-7,.3-28.2-14.5-43.9-4.5-4.8-11.6-12.3-22.3-12.3-13.2.1-21.5,11.6-22.5,13.2l9.6-30.8c8.6,1.1,19.4,3.5,31,8.5,25.9,11.1,41.4,29.1,48.8,39.3"/>
          </g>
          <circle class="st9" cx="87.1" cy="419.3" r="41.4"/>
        </g>
      </g>
      <g>
        <path class="st9" d="M222,416l15.3-9.4,6.9,13.5c1.7,7.4-7.4,10.1-14.8,9.7l-7.4-13.8h0Z"/>
        <path class="st9" d="M218.5,425.6l-8.1,14.6,8.1,14.8.2-5.9h7.4c2.7.2,6.2-1.6,7.5-4.2l9.5-17.7c-3.1,3.2-7.1,4-11.8,4h-12.5l-.3-5.6h0Z"/>
        <path class="st9" d="M200.4,407.7l-15.5-9.2,8.2-12.7c5.5-5.1,12.3,1.7,15.4,8.5l-8.1,13.4h0Z"/>
        <path class="st9" d="M210.4,406.1h16.4c0,.1,8.7-14.3,8.7-14.3l-5.1,2.7-3.6-6.6c-1.1-2.5-4.3-4.8-7.2-4.6h-19.8c4.2,1.4,6.9,4.5,9.1,8.7l6,11.1-4.5,3h0Z"/>
        <path class="st9" d="M173.1,406.9l4.8,3.7-4.5,8.6c-2.3,4,1.6,7.9,4.1,9.2,2.4,1.3,6.2,1.5,9.7,1.4l6.3-10.4,4.8,2.6-8.3-15.4-16.9.3h0Z"/>
        <path class="st9" d="M173.8,426.9l10.3,19c2.1,2.6,6,3.3,10,3.2h10.9v-18h-20.6c-3.2,0-7.4-.6-10.6-4.2h0Z"/>
      </g>
      <g>
        <g>
          <g>
            <rect class="st9" x="305" y="319.6" width="28.5" height="5.9"/>
            <path class="st9" d="M332.4,324.4h-26.4v-3.7h26.3v3.7M334.5,326.5v-8h-30.6v8h30.6Z"/>
          </g>
          <rect class="st9" x="303.9" y="208.6" width="30.6" height="110.1"/>
          <g>
            <rect class="st9" x="309.3" y="220.4" width="19.9" height="58.6"/>
            <path class="st9" d="M328,277.9h-17.7v-56.4h17.7v56.4M330.2,280.1v-60.7h-22v60.7h22Z"/>
          </g>
          <rect class="st9" x="310.3" y="223.3" width="17.7" height="10.2"/>
          <rect class="st9" x="310.3" y="266.8" width="17.7" height="3.7"/>
          <g>
            <path class="st9" d="M313.4,299.1c0-3.2,2.6-5.8,5.8-5.8s5.8,2.6,5.8,5.8-2.6,5.8-5.8,5.8-5.8-2.6-5.8-5.8Z"/>
            <path class="st9" d="M324.1,299.1c0,2.7-2.2,5-5,5s-5-2.2-5-5,2.2-5,5-5c2.8.1,5,2.3,5,5M325.8,299.1c0-3.6-3-6.6-6.6-6.6s-6.6,3-6.6,6.6,3,6.6,6.6,6.6,6.6-2.9,6.6-6.6h0Z"/>
          </g>
        </g>
        <g>
          <g>
            <rect class="st9" x="366.8" y="319.5" width="28.5" height="5.9"/>
            <path class="st9" d="M394.2,324.3h-26.3v-3.7h26.3v3.7M396.4,326.5v-8h-30.6v8h30.6Z"/>
          </g>
          <rect class="st9" x="365.7" y="208.6" width="30.6" height="110.1"/>
          <g>
            <rect class="st9" x="371.1" y="220.4" width="19.9" height="58.6"/>
            <path class="st9" d="M389.9,277.9h-17.7v-56.4h17.7v56.4M392.1,280v-60.7h-22v60.7h22Z"/>
          </g>
          <rect class="st9" x="372.2" y="223.3" width="17.7" height="10.2"/>
          <rect class="st9" x="372.2" y="266.8" width="17.7" height="3.7"/>
          <g>
            <path class="st9" d="M375.3,299.1c0-3.2,2.6-5.8,5.8-5.8s5.8,2.6,5.8,5.8-2.6,5.8-5.8,5.8-5.8-2.6-5.8-5.8Z"/>
            <path class="st9" d="M386,299.1c0,2.7-2.2,5-5,5s-5-2.2-5-5,2.2-5,5-5,5,2.3,5,5M387.6,299.1c0-3.6-3-6.6-6.6-6.6s-6.6,3-6.6,6.6,3,6.6,6.6,6.6,6.6-3,6.6-6.6h0Z"/>
          </g>
        </g>
        <g>
          <g>
            <rect class="st9" x="335.8" y="315.2" width="28.5" height="10.2"/>
            <path class="st9" d="M363.2,324.3h-26.3v-8h26.3v8M365.4,326.5v-12.3h-30.6v12.3h30.6Z"/>
          </g>
          <rect class="st9" x="334.7" y="204.3" width="30.6" height="110.1"/>
          <g>
            <rect class="st9" x="340.1" y="216.1" width="19.9" height="58.5"/>
            <path class="st9" d="M358.9,273.6h-17.7v-56.4h17.7v56.4M361.1,275.7v-60.7h-22v60.7h22Z"/>
          </g>
          <rect class="st9" x="341.2" y="219" width="17.7" height="10.2"/>
          <rect class="st9" x="341.2" y="262.5" width="17.7" height="3.7"/>
          <g>
            <path class="st9" d="M344.3,294.8c0-3.2,2.6-5.8,5.8-5.8s5.8,2.6,5.8,5.8-2.6,5.8-5.8,5.8-5.8-2.6-5.8-5.8Z"/>
            <path class="st9" d="M355,294.8c0,2.7-2.2,5-5,5s-5-2.2-5-5,2.2-5,5-5,5,2.3,5,5M356.6,294.8c0-3.6-3-6.6-6.6-6.6s-6.6,3-6.6,6.6,3,6.6,6.6,6.6,6.6-3,6.6-6.6h0Z"/>
          </g>
        </g>
      </g>
      <g>
        <path class="st9" d="M423.8,476.6h-87.7c-.2,0-.3,0-.5-.1-.1,0-.3-.1-.4-.1s-.2-.1-.3-.1c-.2-.1-.3-.1-.5-.2-.3-.1-.6-.3-.9-.5-.1-.1-.3-.2-.4-.3-.7-.5-1.2-1.3-1.6-2.1,0-.1-.1-.2-.1-.3s0-.1-.1-.2c0-.1-.1-.2-.1-.3h0c-.1-.5-.2-.9-.2-1.4v-10.9c0-.5.1-1,.2-1.4,0-.1.1-.3.1-.4h0c.1-.2.1-.4.2-.5s.1-.3.2-.4c.1-.3.3-.5.5-.8l.3-.3h0l.3-.3c.2-.2.5-.4.8-.6s.5-.3.8-.4c.2-.1.3-.1.5-.2.1,0,.2-.1.3-.1s.3-.1.4-.1c.2,0,.3-.1.5-.1h87.7c-2.4,0-4.4,1.5-5.2,3.6-.3.6-.4,1.3-.4,2v10.9c0,.7.1,1.4.4,2,.8,2.1,2.8,3.6,5.2,3.6h0Z"/>
        <path class="st9" d="M421.8,471.7h-.1v-.2s.1.1.1.2Z"/>
        <path class="st2" d="M423.8,476.6h-87.7c-.2,0-.3,0-.5-.1-.1,0-.3-.1-.4-.1s-.2-.1-.3-.1c-.2-.1-.3-.1-.5-.2-.3-.1-.6-.3-.9-.5-.1-.1-.3-.2-.4-.3-.7-.5-1.2-1.3-1.6-2.1,0-.1-.1-.2-.1-.3s0-.1-.1-.2c0-.1-.1-.2-.1-.3h0c.8.4,1.6.6,2.5.6h84.8c.9,2.1,2.9,3.6,5.3,3.6h0Z"/>
        <path class="st9" d="M423.8,454.5c-2.4,0-4.4,1.5-5.2,3.6h-84.8c-.9,0-1.7.2-2.5.6,0-.1.1-.3.1-.4h0c.1-.2.1-.4.2-.5s.1-.3.2-.4c.1-.3.3-.5.5-.8l.3-.3h0l.3-.3c.2-.2.5-.4.8-.6s.5-.3.8-.4c.2-.1.3-.1.5-.2.1,0,.2-.1.3-.1s.3-.1.4-.1c.2,0,.3-.1.5-.1h87.6Z"/>
        <path class="st9" d="M455.5,475.2c0,.8-.6,1.4-1.4,1.4h-30.3c-2.4,0-4.4-1.5-5.2-3.6-.3-.6-.4-1.3-.4-2v-10.9c0-.7.1-1.4.4-2,.8-2.1,2.8-3.6,5.2-3.6h30.3c.8,0,1.4.6,1.4,1.4s-.6,1.4-1.4,1.4h-28.9c-.9,0-1.6.3-2.3.8h-.1c-.2.2-.3.4-.5.6s-.1.2-.2.3c-.1.1-.1.2-.2.3h0c-.1.1-.1.2-.2.3-.1.1-.1.2-.1.4s-.1.2-.1.3,0,.2-.1.4v10.4q0,.1,0,0c0,.1.1.3.1.4s0,.1.1.1h0c0,.1,0,.2.1.2,0,0,0,.1.1.1,0,0,0,.1.1.1h0c0,.2.1.2.1.3h0c.1.1.1.2.2.3.1.2.3.3.5.5h.1c.6.6,1.4.9,2.3.9h28.9c.9-.2,1.5.4,1.5,1.2h0Z"/>
        <path class="st9" d="M421.8,471.7h-.1v-.2s.1.1.1.2Z"/>
        <path class="st9" d="M421.8,471.7h-.1v-.2s.1.1.1.2Z"/>
        <path class="st9" d="M453.9,457.3c-.1.2-.1.4-.2.7-.1.2-.1.5-.2.7h-27.7c-1,0-1.9.4-2.6,1-.7.7-1.1,1.6-1.1,2.7v9.1c0,.3,0,.5.1.7,0,0-.1-.1-.1-.2h0c0-.1,0-.2-.1-.2h-.1c0-.2-.1-.3-.1-.4,0,0,0-.1-.1-.1,0-.1-.1-.3-.1-.4s0-.1,0,0v-10.3c0-.1,0-.3.1-.4,0-.1,0-.2.1-.3,0-.1.1-.3.1-.4s.1-.2.2-.3h0c.1-.1.1-.2.2-.3.1-.1.1-.2.2-.3.1-.2.3-.3.5-.5h.1c.6-.6,1.4-.9,2.3-.9h28.5Z"/>
        <path class="st9" d="M453.9,473.8h-28.7c-.8,0-1.6-.3-2.3-.8h-.1c-.2-.2-.3-.4-.5-.6s-.1-.2-.2-.3h0c0-.3-.1-.5-.1-.8v-9.1c0-1,.4-2,1.1-2.7.7-.6,1.6-1,2.6-1h27.7c-.6,2.1-.9,4.5-.9,6.9.1,3.1.5,5.9,1.4,8.4h0Z"/>
        <path class="st9" d="M421.8,471.7h-.1v-.2s.1.1.1.2Z"/>
        <path class="st9" d="M429.9,454.5h-90.5c-.2,0-.3,0-.5-.1-.1,0-.3,0-.4-.1-.1,0-.3-.1-.4-.1h0c-.1,0-.3-.1-.4-.2-.4-.2-.8-.4-1.2-.7l-.3-.3-.3-.3-.3-.3c-.2-.2-.4-.5-.5-.8l-.2-.4c-.3-.7-.5-1.5-.5-2.3v-10.9c0-.5.1-1,.2-1.4,0-.1.1-.3.1-.4h0c.1-.2.1-.4.2-.5s.1-.3.2-.4c.1-.3.3-.5.5-.8l.3-.3.3-.3.3-.3c.4-.3.8-.5,1.2-.7.1-.1.3-.1.4-.2h0c.1-.1.3-.1.4-.1s.2-.1.4-.1.3-.1.5-.1h90.5c-2.4,0-4.4,1.5-5.2,3.6-.3.6-.4,1.3-.4,2v10.9c0,.7.1,1.4.4,2,.8,2.1,2.8,3.6,5.2,3.6h0Z"/>
        <path class="st9" d="M428.8,450.7s.1,0,0,0h0c.1,0,0,0,0,0Z"/>
        <path class="st9" d="M428.3,450.2c0-.1-.1-.1-.1-.2,0,0,0-.1-.1-.1h.1c.1.2.1.3.1.3Z"/>
        <path class="st9" d="M429.9,454.5h-90.5c-.2,0-.3,0-.5-.1-.1,0-.3,0-.4-.1-.1,0-.3-.1-.4-.1h0c-.1,0-.3-.1-.4-.2-.4-.2-.8-.4-1.2-.7l-.3-.3-.3-.3-.3-.3c-.2-.2-.4-.5-.5-.8l-.2-.4c-.1-.3-.2-.6-.3-.9.8.4,1.6.6,2.5.6h87.6c.8,2.1,2.8,3.6,5.2,3.6h0Z"/>
        <path class="st9" d="M429.9,432.4c-2.4,0-4.4,1.5-5.2,3.6h-87.6c-.9,0-1.7.2-2.5.6,0-.1.1-.3.1-.4h0c.1-.2.1-.4.2-.5s.1-.3.2-.4c.1-.3.3-.5.5-.8l.3-.3.3-.3.3-.3c.4-.3.8-.5,1.2-.7.1-.1.3-.1.4-.2h0c.1-.1.3-.1.4-.1s.2-.1.4-.1.3-.1.5-.1h90.5Z"/>
        <path class="st9" d="M451.3,453.1c0,.8-.6,1.4-1.4,1.4h-20.1c-2.4,0-4.4-1.5-5.2-3.6-.3-.6-.4-1.3-.4-2v-10.9c0-.7.1-1.4.4-2,.8-2.1,2.9-3.6,5.2-3.6h20.1c.8,0,1.4.6,1.4,1.4s-.6,1.4-1.4,1.4h-18.6c-.8,0-1.6.3-2.3.8h-.1c0,.1-.1.1-.1.2l-.2.2-.3.3c-.1.1-.2.2-.2.3-.1.1-.1.2-.2.3-.1.2-.2.4-.2.6s-.1.2-.1.3,0,.2-.1.4v9.8h0v.3h0v.2c0,.1,0,.2.1.2h0q0,.1.1.2c.1.1.1.3.2.4,0,.1.1.1.1.2h0c0,.1,0,.2.1.2,0,.1.1.1.1.2l.3.3.2.2h.1c0,.1.1.2.1.2.6.5,1.4.8,2.3.8h18.6c.9,0,1.5.5,1.5,1.3h0Z"/>
        <path class="st9" d="M428.8,450.7s.1,0,0,0h0c.1,0,0,0,0,0Z"/>
        <path class="st9" d="M428.3,450.2c0-.1-.1-.1-.1-.2,0,0,0-.1-.1-.1h.1c.1.2.1.3.1.3Z"/>
        <path class="st9" d="M428.3,450.2c0-.1-.1-.1-.1-.2,0,0,0-.1-.1-.1h.1c.1.2.1.3.1.3Z"/>
        <path class="st9" d="M449.7,435.2c-.1.4-.3.8-.4,1.2q0,.1-.1.2h-17.4c-1,0-1.9.4-2.6,1.1s-1.1,1.6-1.1,2.7v9c0,.3,0,.5.1.7h-.1v-.2c0-.1-.1-.1-.1-.2-.1-.1-.1-.3-.2-.4,0-.1-.1-.1-.1-.2h0c0-.1,0-.2-.1-.2h0v-.5h0v-9.8c0-.1,0-.3.1-.4,0-.1,0-.2.1-.3,0-.2.1-.4.2-.6,0-.1.1-.2.2-.3.1-.1.1-.2.2-.3l.3-.3.2-.2h.1c0-.1.1-.2.1-.2.6-.5,1.4-.8,2.3-.8h18.3Z"/>
        <path class="st9" d="M428.2,450.1h0s0-.1,0,0q0-.1,0,0Z"/>
        <path class="st9" d="M449.7,451.7h-18.4c-.8,0-1.6-.3-2.3-.8h-.1c0-.1-.1-.1-.1-.2l-.2-.2-.3-.3c0-.1-.1-.1-.1-.2,0-.2-.1-.5-.1-.7v-9c0-1,.4-2,1.1-2.7s1.6-1.1,2.6-1.1h17.4c-.6,2.1-.9,4.5-.9,6.9,0,3,.6,5.8,1.4,8.3Z"/>
        <path class="st9" d="M428.8,450.7s.1,0,0,0h0c.1,0,0,0,0,0Z"/>
        <path class="st9" d="M414,446.2h-29.8v-5.5h29.8c1.5,0,2.7,1.2,2.7,2.7h0c0,1.5-1.2,2.8-2.7,2.8h0Z"/>
        <path class="st9" d="M372.9,440.7h5.9v5.5h-5.9c-1.5,0-2.7-1.2-2.7-2.7h0c0-1.5,1.2-2.8,2.7-2.8h0Z"/>
        <g id="_4">
          <path class="st9" d="M329.7,413.4v.3h0v-.3h0Z"/>
          <path class="st9" d="M329.8,414.2s0-.1,0,0q-.1-.1-.1-.2t.1.2h0Z"/>
          <path class="st9" d="M378.2,428.9l-.2.2h0l.2-.2Z"/>
          <path class="st9" d="M379.1,427.2h0v.2h.1q-.1-.1-.1-.2h0Z"/>
          <path class="st9" d="M379.2,427h0q0,.1,0,0h0Z"/>
          <path class="st9" d="M379.2,426.8h0v.2h0v-.2h0Z"/>
          <path class="st9" d="M329.7,431.1v.3-.5.2h0Z"/>
          <path class="st9" d="M395.7,417.4v9.9c0,.6-.1,1.3-.4,1.8-.7,1.9-2.6,3.2-4.7,3.2h-13.4c2.2,0,4-1.4,4.7-3.2.2-.6.4-1.2.4-1.8v-9.9c0-.6-.1-1.3-.4-1.8-.7-1.9-2.6-3.2-4.7-3.2h14c.1,0,.2,0,.3.1.5.1.9.2,1.3.5.1,0,.2.1.3.2.2.1.4.3.6.4.5.4.9.9,1.2,1.4.1.1.1.2.2.3h0c0,.2.1.3.1.4.3.5.5,1.1.5,1.7h0Z"/>
          <path class="st9" d="M440,417.4v9.9c0,.6-.1,1.3-.4,1.8h-41.2c.2-.6.4-1.2.4-1.8v-9.9c0-.6-.1-1.3-.4-1.8h41.2c.2.6.4,1.2.4,1.8Z"/>
          <path class="st9" d="M444.6,417.4v9.9c0,.6-.1,1.3-.4,1.8-.7,1.9-2.6,3.2-4.7,3.2h-2.9c2.2,0,4-1.4,4.7-3.2.2-.6.4-1.2.4-1.8v-9.9c0-.6-.1-1.3-.4-1.8-.7-1.9-2.6-3.2-4.7-3.2h2.9c2.2,0,4,1.4,4.7,3.2.3.6.4,1.2.4,1.8Z"/>
          <path class="st9" d="M456.2,417.4v9.9c0,.4-.1.9-.2,1.3q-.1.3,0,0c0,.1-.1.3-.1.4s-.1.3-.2.4c-.1.3-.2.5-.4.7-.1.1-.2.2-.2.3l-.3.3-.3.3h-.1c-.1.2-.2.3-.3.3-.2.2-.4.3-.7.5-.1.1-.3.1-.4.2s-.2.1-.4.1c-.2.1-.5.1-.7.2-.1,0-.2,0-.3.1h-10.5c2.1,0,4-1.4,4.7-3.2.2-.6.4-1.2.4-1.8v-9.9c0-.6-.1-1.3-.4-1.8-.7-1.9-2.6-3.2-4.7-3.2h10.9c.2,0,.5.1.7.2.1,0,.2.1.4.1s.1.1.2.1c.2.1.5.3.7.4h.1c0,.1.1.1.1.2.1,0,.1.1.2.1h0s.1.1.2.1.1.1.2.2h.1c0,.1.1.2.1.2h0c.1.2.1.3.2.4,0,.1.1.1.1.2h.1v.2c.1.1.1.2.2.4h0c0,.2.1.3.1.3,0,.1.1.1.1.2s.1.2.1.3h0v.3c0,.2.1.4.1.5s.2.4.2.5h0Z"/>
          <path class="st9" d="M395.3,429.2c-.7,1.9-2.6,3.2-4.7,3.2h-13.4c2.2,0,4-1.4,4.7-3.2h13.4Z"/>
          <path class="st9" d="M444.3,429.2c-.7,1.9-2.6,3.2-4.7,3.2h-2.9c2.2,0,4-1.4,4.7-3.2h2.9Z"/>
          <path class="st9" d="M456.1,428.6h0c0,.1-.1.3-.1.4s-.1.3-.2.4c-.1.3-.2.5-.4.7-.1.1-.2.2-.2.3l-.3.3-.3.3h-.1c-.1.2-.2.3-.3.3-.2.2-.4.3-.7.5-.1.1-.3.1-.4.2s-.2.1-.4.1c-.2.1-.5.1-.7.2-.1,0-.2,0-.3.1h-10.5c2.1,0,4-1.4,4.7-3.2h7.7c1,0,1.8-.2,2.5-.6h0Z"/>
          <path class="st9" d="M329.7,413.7h0Z"/>
          <path class="st9" d="M329.7,413.4v.3h0v-.3h0Z"/>
          <path class="st9" d="M329.7,414h0v-.2.2Z"/>
          <path class="st9" d="M329.8,414.2s0-.1,0,0q-.1-.1-.1-.2t.1.2h0Z"/>
          <path class="st9" d="M330,412.8h-.1q0,.1.1,0c0,.1,0,0,0,0Z"/>
          <path class="st9" d="M330.2,412.7c-.1,0-.1.1-.2.2q0-.1.2-.2t0,0Z"/>
          <path class="st9" d="M395.3,415.6h-13.4c-.7-1.9-2.6-3.2-4.7-3.2h14c.1,0,.2,0,.3.1.5.1.9.2,1.3.5.1,0,.2.1.3.2.2.1.4.3.6.4.5.4.9.9,1.2,1.4.1.1.1.2.2.3h0c.1.1.2.2.2.3h0Z"/>
          <path class="st9" d="M439.6,415.6h-41.2c0-.1-.1-.2-.1-.3h0c-.1-.2-.1-.3-.2-.4-.7-1.3-2-2.2-3.5-2.5-.1,0-.2,0-.3-.1h-.6,41.2c2.1,0,4,1.4,4.7,3.3h0Z"/>
          <path class="st9" d="M382.2,417.4v9.9c0,.6-.1,1.3-.4,1.8-.7,1.9-2.6,3.2-4.7,3.2h-46.4c-.1,0-.2,0-.2-.1-.3-.2-.6-.5-.7-.9v-.5h0c.1-.5.3-.8.7-1,.1,0,.2-.1.2-.1h45.2c.8,0,1.5-.3,2.1-.7h.1q.1-.2.2-.3c.1-.1.1-.2.2-.2l.2-.2h0c.1-.1.1-.2.2-.3h0c0-.1.1-.2.1-.3s.1-.1.1-.2h0v-.2h0v-.2h0v-.2h0v-8.6c0-.2,0-.5-.1-.7,0-.1-.1-.2-.1-.3s-.1-.2-.1-.3c0,0,0-.1-.1-.1,0-.1-.1-.2-.2-.3-.1-.1-.1-.2-.2-.3-.1-.1-.2-.3-.4-.4h-.1c0-.1-.1-.2-.1-.2h-.1c-.6-.5-1.3-.8-2.1-.8h-45.2c-.1,0-.2,0-.2-.1h-.1c0-.1-.1-.2-.1-.2l-.2-.2c0-.1-.1-.1-.1-.1,0-.1-.1-.1-.1-.2h0v-.3h0v-.4h0c0-.2.1-.2.1-.3h.1c0-.2.1-.2.2-.3s.2-.1.3-.2q.1,0,.2-.1h46.5c2.2,0,4,1.4,4.7,3.2.5.5.6,1.1.6,1.7h0Z"/>
          <path class="st9" d="M329.7,414h0v-.2.2Z"/>
          <path class="st9" d="M378.2,428.9l-.2.2h0l.2-.2Z"/>
          <path class="st9" d="M379.1,427.2h0v.2h.1q-.1-.1-.1-.2h0Z"/>
          <path class="st9" d="M379.2,427h0q0,.1,0,0h0Z"/>
          <path class="st9" d="M379.2,426.8h0v.2h0v-.2h0Z"/>
          <path class="st9" d="M378.7,419.5v8.2c0,.2,0,.4-.1.7h0c-.1.1-.1.2-.2.2-.1.1-.1.2-.2.2l-.2.2h-.1c-.6.5-1.3.8-2.1.8h-44.7c.8-2.3,1.2-4.8,1.2-7.5s-.3-4.3-.8-6.3h43.8c.9,0,1.7.4,2.4,1,.6.7,1,1.6,1,2.5h0Z"/>
          <path class="st9" d="M379.2,426.8h0v.2-.2Z"/>
          <path class="st9" d="M379.2,418.3v8.7h0v.2h0c0,.2,0,.3-.1.3,0,.1-.1.2-.1.2,0,.1-.1.2-.1.3h0c0,.1-.1.2-.2.3,0,.1-.1.1,0,0,0-.2.1-.4.1-.7v-8.2c0-.9-.4-1.8-1-2.4s-1.4-1-2.4-1h-43.8c-.1-.4-.2-.8-.4-1.2h44.7c.8,0,1.5.3,2.1.7h.1c0,.1.1.1.1.2,0,0,.1,0,.1.1l.4.4c.1.1.1.2.2.3.1.1.1.2.2.3h.1c0,.2.1.3.1.4s.1.2.1.3c-.2.3-.2.5-.2.8h0Z"/>
          <path class="st9" d="M379.1,427.3h0v.2h0v-.2h0Z"/>
          <path class="st9" d="M378.2,428.9l-.2.2h0l.2-.2Z"/>
          <path class="st9" d="M379.1,427.2h0v.2h.1q-.1-.1-.1-.2h0Z"/>
          <path class="st9" d="M379.2,427h0q0,.1,0,0h0Z"/>
          <path class="st9" d="M379.2,426.8h0v.2h0v-.2h0Z"/>
          <path class="st1" d="M444.3,415.6h-2.9c-.7-1.9-2.6-3.2-4.7-3.2h2.9c2.1,0,3.9,1.3,4.7,3.2Z"/>
          <path class="st1" d="M456.1,416.1h0c-.7-.3-1.5-.5-2.3-.5h-7.7c-.7-1.9-2.6-3.2-4.7-3.2h10.9c.2,0,.5.1.7.2.1,0,.2.1.4.1s.1.1.2.1c.2.1.5.3.7.4h.1c0,.1.1.1.1.2.1,0,.1.1.2.1h0s.1.1.2.1.1.1.2.2h.1c0,.1.1.2.1.2h0c.1.2.1.3.2.4h0c0,.1.1.1.1.2h.1v.2c.1.1.1.2.2.4h0c0,.2.1.3.1.3,0,.1.1.1.1.2h0c-.1.2-.1.3,0,.4h0Z"/>
          <path class="st9" d="M455.1,414.3c.1.2.3.4.4.6-.1-.2-.2-.4-.4-.6Z"/>
          <path class="st9" d="M455.1,414.2h0Z"/>
          <path class="st9" d="M455.6,414.9c.1.1.1.2.2.4-.1,0-.2-.3-.2-.4Z"/>
          <path class="st9" d="M455.8,415.3h0Z"/>
          <path class="st9" d="M455.5,414.9s.1,0,0,0q.1,0,0,0Z"/>
          <path class="st9" d="M454.9,414l.2.2-.2-.2Z"/>
          <path class="st9" d="M439.6,429.2c-.7,1.9-2.6,3.2-4.7,3.2h-41.2c2.1,0,4-1.4,4.7-3.2h41.2Z"/>
          <path class="st9" d="M444.6,417.4v9.9c0,.6-.1,1.3-.4,1.8-.7,1.9-2.6,3.2-4.7,3.2h-2.9c2.2,0,4-1.4,4.7-3.2.2-.6.4-1.2.4-1.8v-9.9c0-.6-.1-1.3-.4-1.8h2.9c.3.6.4,1.2.4,1.8Z"/>
          <path class="st9" d="M456.1,416.1h0c0-.1-.1-.2-.1-.3-.1-.2-.1-.3-.2-.5,0,.1.1.2.1.2,0,.1.1.1.1.2,0,.2,0,.3.1.4h0Z"/>
          <path class="st9" d="M456.2,417.4v9.9c0,.4-.1.9-.2,1.3q-.1.3,0,0c0,.1-.1.3-.1.4s-.1.3-.2.4c-.1.3-.2.5-.4.7-.1.1-.2.2-.2.3l-.3.3-.3.3h-.1c-.1.2-.2.3-.3.3-.2.2-.4.3-.7.5-.1.1-.3.1-.4.2s-.2.1-.4.1c-.2.1-.5.1-.7.2-.1,0-.2,0-.3.1h-10.5c2.1,0,4-1.4,4.7-3.2.2-.6.4-1.2.4-1.8v-9.9c0-.6-.1-1.3-.4-1.8h7.7c.8,0,1.6.2,2.2.5,0,.1.1.1.1.2,0,.2.1.4.1.5s.3.4.3.5h0Z"/>
          <path class="st9" d="M454.9,414l-.2-.2s.1.1.2.2Z"/>
          <path class="st9" d="M454.1,413.3c.1.1.3.2.4.3-.1,0-.2-.2-.4-.3Z"/>
          <path class="st9" d="M454.7,413.8l-.2-.2q.1.1.2.2Z"/>
          <path class="st10" d="M441.8,417.4v9.9c0,.6-.1,1.3-.4,1.8-.7,1.9-2.6,3.2-4.7,3.2h-1.8c2.2,0,4-1.4,4.7-3.2.2-.6.4-1.2.4-1.8v-9.9c0-.6-.1-1.3-.4-1.8-.7-1.9-2.6-3.2-4.7-3.2h1.8c2.2,0,4,1.4,4.7,3.2.2.6.4,1.2.4,1.8Z"/>
          <path class="st10" d="M446.4,417.4v9.9c0,.6-.1,1.3-.4,1.8-.7,1.9-2.6,3.2-4.7,3.2h-1.8c2.2,0,4-1.4,4.7-3.2.2-.6.4-1.2.4-1.8v-9.9c0-.6-.1-1.3-.4-1.8-.7-1.9-2.6-3.2-4.7-3.2h1.8c2.1,0,4,1.4,4.7,3.2.3.6.4,1.2.4,1.8Z"/>
        </g>
        <path class="st10" d="M398.7,417.4v9.9c0,.6-.1,1.3-.4,1.8-.7,1.9-2.6,3.2-4.7,3.2h-3.1c2.2,0,4-1.4,4.7-3.2.2-.6.4-1.2.4-1.8v-9.9c0-.6-.1-1.3-.4-1.8,0-.1-.1-.2-.1-.3h0c0-.2-.1-.3-.2-.4-.3-.5-.7-1-1.2-1.4-.2-.2-.4-.3-.6-.4-.1-.1-.2-.1-.3-.2-.4-.2-.9-.4-1.3-.5-.1,0-.2,0-.3-.1h-.6,3.7c.1,0,.2,0,.3.1,1.5.3,2.7,1.2,3.5,2.5.1.1.1.2.2.3h0c0,.2.1.3.1.4.2.6.3,1.2.3,1.8Z"/>
      </g>
      <path class="st9" d="M432.9,58.7h65.7c12.1,0,21.9,9.8,21.9,21.9v65.7c0,12.1-9.8,21.9-21.9,21.9h-65.7c-12.1,0-21.9-9.8-21.9-21.9v-65.7c0-12.1,9.8-21.9,21.9-21.9Z"/>
      <path class="st9" d="M240.9,326.5h-65.6c-12.1,0-21.9-9.8-21.9-21.9v-65.6c0-12.1,6.9-24.5,21.9-25.5l66.5.4c12.1,0,21.9,9.8,21.9,21.9v66.4c0,12.2-10.7,24.3-22.8,24.3h0Z"/>
      <g>
        <g>
          <rect class="st5" x="413.1" y="103.8" width="82.7" height="12.7" transform="translate(157.8 471.7) rotate(-64.3)"/>
          <rect class="st5" x="466.3" y="74.1" width="1.9" height="7.6" transform="translate(194 464.9) rotate(-64.3)"/>
          <rect class="st5" x="456" y="95.6" width="1.9" height="7.6" transform="translate(168.9 467.8) rotate(-64.3)"/>
          <rect class="st5" x="445.8" y="116.6" width="1.9" height="7.6" transform="translate(144.2 470.5) rotate(-64.3)"/>
          <rect class="st5" x="435.5" y="138" width="1.9" height="7.6" transform="translate(119.1 473.3) rotate(-64.3)"/>
          <rect class="st5" x="463.3" y="79.1" width="1.5" height="4.5" transform="translate(189.2 464) rotate(-64.3)"/>
          <rect class="st5" x="461.3" y="83.2" width="1.5" height="4.5" transform="translate(184.4 464.5) rotate(-64.3)"/>
          <rect class="st5" x="459.4" y="87.2" width="1.5" height="4.5" transform="translate(179.7 465.1) rotate(-64.3)"/>
          <rect class="st5" x="457.5" y="91" width="1.5" height="4.5" transform="translate(175.2 465.5) rotate(-64.3)"/>
          <rect class="st5" x="453" y="100.5" width="1.5" height="4.5" transform="translate(164.1 466.8) rotate(-64.3)"/>
          <rect class="st5" x="451.1" y="104.5" width="1.5" height="4.5" transform="translate(159.4 467.3) rotate(-64.3)"/>
          <rect class="st5" x="449.1" y="108.6" width="1.5" height="4.5" transform="translate(154.6 467.9) rotate(-64.3)"/>
          <rect class="st5" x="447.2" y="112.3" width="1.5" height="4.5" transform="translate(150.2 468.3) rotate(-64.3)"/>
          <rect class="st5" x="442.2" y="122.9" width="1.5" height="4.5" transform="translate(137.8 469.7) rotate(-64.3)"/>
          <rect class="st5" x="440.2" y="126.9" width="1.5" height="4.5" transform="translate(133 470.2) rotate(-64.3)"/>
          <rect class="st5" x="438.3" y="131" width="1.5" height="4.5" transform="translate(128.3 470.8) rotate(-64.3)"/>
          <rect class="st5" x="436.5" y="134.7" width="1.5" height="4.5" transform="translate(123.9 471.3) rotate(-64.3)"/>
        </g>
        <g>
          <rect class="st4" x="474.6" y="112" width="14.1" height="59.6" transform="translate(338.4 623) rotate(-89.8)"/>
          <path class="st3" d="M481.5,124.3c12.7,0,13.4,10.6,13.4,10.6h-26.5s.4-10.4,13.1-10.6h0ZM455.7,134.8h51.9c0,.1-1.3-23.2-26.2-23-24.9.4-25.7,23-25.7,23h0Z"/>
          <rect class="st8" x="453.6" y="144" width="7.6" height="1.9" transform="translate(311.2 601.9) rotate(-89.8)"/>
          <rect class="st8" x="477" y="144.1" width="7.6" height="1.9" transform="translate(334.3 625.4) rotate(-89.8)"/>
          <rect class="st8" x="500.7" y="144.1" width="7.6" height="1.9" transform="translate(357.9 649.2) rotate(-89.8)"/>
          <rect class="st8" x="459.6" y="145.6" width="4.5" height="1.5" transform="translate(314.1 607.8) rotate(-89.8)"/>
          <rect class="st8" x="464.1" y="145.7" width="4.5" height="1.5" transform="translate(318.6 612.3) rotate(-89.8)"/>
          <rect class="st8" x="468.6" y="145.7" width="4.5" height="1.5" transform="translate(323 616.8) rotate(-89.8)"/>
          <rect class="st8" x="472.8" y="145.7" width="4.5" height="1.5" transform="translate(327.2 621) rotate(-89.8)"/>
          <rect class="st8" x="484.5" y="145.7" width="4.5" height="1.5" transform="translate(338.9 632.8) rotate(-89.8)"/>
          <rect class="st8" x="489" y="145.7" width="4.5" height="1.5" transform="translate(343.4 637.3) rotate(-89.8)"/>
          <rect class="st8" x="493.5" y="145.7" width="4.5" height="1.5" transform="translate(347.8 641.8) rotate(-89.8)"/>
          <rect class="st8" x="497.7" y="145.7" width="4.5" height="1.5" transform="translate(352 646) rotate(-89.8)"/>
        </g>
        <g>
          <rect class="st6" x="495" y="92.4" width="14.6" height="14.6" transform="translate(198.6 512.1) rotate(-64.9)"/>
          <rect class="st6" x="482.1" y="86.5" width="14.6" height="14.6" transform="translate(196.6 497) rotate(-64.9)"/>
        </g>
        <g>
          <rect class="st5" x="407.9" y="108.2" width="59.9" height="4.2" transform="translate(148.3 456.7) rotate(-64.3)"/>
          <rect class="st5" x="420.3" y="138" width="6.3" height="4.2" transform="translate(113.3 460.6) rotate(-64.3)"/>
          <path class="st9" d="M420.2,142l3.8,1.8-1.1,2.3c-.2.3-.6.5-.9.3l-2.6-1.2c-.3-.2-.5-.6-.3-.9l1.1-2.3h0Z"/>
          <polygon class="st9" points="449 82.3 455.2 74.4 452.8 84.2 449 82.3"/>
          <path class="st9" d="M449,82.3l-1.1,3.5,3-2.6-.7,3.7,2.5-2.8-3.7-1.8h0Z"/>
          <path class="st9" d="M453.8,76.1s-1.2,2.5-.8,2.7c.5,0,1.6-2.3,1.6-2.3l.5-2.2-1.3,1.8h0Z"/>
        </g>
      </g>
      <path class="st9" d="M119.4,326.7H53.8c-12.1,0-21.9-9.8-21.9-21.9v-65.6c0-12.1,9.8-25.3,21.9-25.3l67.4.3c12.1,0,21.9,9.8,21.9,21.9v66.4c0,12.1-11.6,24.2-23.7,24.2h0Z"/>
      <g>
        <path class="st9" d="M174.8,225.2h68.3c.8,0,1.5.7,1.5,1.5v77.4c0,.8-.7,1.5-1.5,1.5h-68.3c-.8,0-1.5-.7-1.5-1.5v-77.4c0-.8.7-1.5,1.5-1.5Z"/>
        <path class="st9" d="M177.9,229.1h62.1c.7,0,1.3.6,1.3,1.3v45.4c0,.7-.6,1.3-1.3,1.3h-62.1c-.7,0-1.3-.6-1.3-1.3v-45.4c.1-.7.6-1.3,1.3-1.3Z"/>
        <polygon class="st9" points="238 297.3 228.8 297.3 228.8 294.9 228.8 292.5 238 292.5 238 294.9 238 297.3"/>
        <path class="st9" d="M182.3,232.3h53.4c.7,0,1.3.6,1.3,1.3v38.9c0,.7-.6,1.3-1.3,1.3h-53.4c-.7,0-1.3-.6-1.3-1.3v-38.9c0-.7.6-1.3,1.3-1.3Z"/>
        <path class="st9" d="M174.6,306.6h68.7c.7,0,1.3.6,1.3,1.3v2.3c0,.7-.6,1.3-1.3,1.3h-68.7c-.7,0-1.3-.6-1.3-1.3v-2.3c0-.7.6-1.3,1.3-1.3Z"/>
        <polygon class="st9" points="238 295.8 207.4 295.8 207.4 295 207.4 294 238 294 238 294.8 238 295.8"/>
        <rect class="st9" x="207.7" y="294.7" width="30.3" height=".5"/>
        <rect class="st9" x="207.7" y="292.8" width="2.6" height=".6"/>
        <g>
          <rect class="st9" x="176.9" y="297.2" width="5.9" height=".9"/>
          <rect class="st9" x="176.9" y="298.1" width="5.9" height=".9"/>
          <rect class="st9" x="176.9" y="298.9" width="5.9" height=".9"/>
          <rect class="st9" x="176.9" y="299.8" width="5.9" height=".9"/>
          <rect class="st9" x="176.9" y="300.7" width="5.9" height=".9"/>
          <rect class="st9" x="176.9" y="301.6" width="5.9" height=".9"/>
        </g>
        <path class="st9" d="M185.3,262.4c2.1-4.7,4.4-7.8,6.2-9.8,2.2-2.4,4-3.8,4.4-6.4.4-3-1.3-6.3-2.3-6.2-2.6.3-1.5,23.3-2.2,23.3s-2-7.7,1-9.9c1.5-1.1,4.1-.8,5.3.6,2,2.4-.9,6.9.5,7.9,1.1.8,4.2-.9,5.3-3.6.8-2.1.3-4.9-.7-5.2-.7-.2-1.8,1-2.2,2.1-.8,2.4.6,6.2,3.3,6.8,2.9.6,5.4-4.7,5.7-5.3,3.2-6.9,0-15.8-1.5-15.7-.8,0-1.3,2.7-1.7,4.7-.4,1.8-1.2,6.8,1.3,11.8.9,1.7,2.4,4.8,4.7,4.9,2.6,0,4.4-3.9,5-5.3,3.3-7.2,1-16.3-.7-16.5-1.1-.1-2.1,3.4-2.4,4.7-.1.5-1.8,6.8,1.5,12.8.8,1.4,1.7,3,3.5,4,.5.2,3.2,1.7,5.7.2,2.4-1.5,3.6-5.4,2.1-8-1.1-1.9-3.6-3.2-5.7-2.3-2.2,1-2.6,3.9-2.6,4.3s-.4,3.9,2.2,5.6c2.1,1.4,3.8,1,5.5-1,1.5-1.8,1.9-4.1.8-6.3,2,1.1,4.9,0,6.2-1.5"/>
      </g>
      <path class="st9" d="M60,58.7h65.7c12.1,0,21.9,9.8,21.9,21.9v65.7c0,12.1-9.8,21.9-21.9,21.9H60c-12.1,0-21.9-9.8-21.9-21.9v-65.7c0-12.1,9.8-21.9,21.9-21.9Z"/>
      <g>
        <path class="st9" d="M97.5,76.4c13.6,4,18.5,18.2,18.2,22-.3,3.5-5.8,10.6-10.4,14.2s-7.2,10.5-6.4,14.1c1,4.2,1,16.2-11.6,20.2s-25.9-4-34.4-16.6c-7.1-10.6-2.4-25.9-.7-30.6.3-.8.7-1.7,1.1-2.4,12.1-23.2,30.8-24.9,44.2-20.9h0ZM91.1,106.4c-3.6-1.4-7.7.3-9.1,3.9s.3,7.7,3.9,9.1,7.7-.3,9.1-3.9-.3-7.7-3.9-9.1Z"/>
        <circle class="st9" cx="90.2" cy="88.8" r="6.3"/>
        <circle class="st9" cx="73.5" cy="93.9" r="6.3"/>
        <circle class="st9" cx="63.4" cy="107.8" r="6.3"/>
        <circle class="st9" cx="64.5" cy="124.4" r="5.4"/>
        <circle class="st9" cx="74.8" cy="135.7" r="4.7"/>
        <circle class="st9" cx="90.5" cy="138" r="4.7"/>
        <g>
          <path class="st9" d="M134.9,83.6s-2.6,3.1-8.5,5c-5.9,1.9-5.8,11.1-1.3,12.2,4.4,1.1,7.9-2.6,8.7-6.5s-.5-6.1.3-7.8c.9-1.8.8-2.9.8-2.9h0Z"/>
          <path class="st9" d="M133.4,80s-6.9,3.6-8.2,9.2,4.1,6.9,6.5,5.1c2.3-1.8,1.4-7.3,2.3-9.8.9-2.4-.6-4.5-.6-4.5h0Z"/>
          <path class="st9" d="M123.4,99.9s-.5,2.8-2,5.8c-1.5,2.9-4.9,10.3-6.2,13.6-1.7,4.1-12.6,35-12.7,35.8s0,.8,0,.9.3.1.7-.6c.4-.7,12.9-28.7,15.4-35.1,2.5-6.5,3.6-10.7,4.8-13.7,1.7-4.5,2.7-5.5,2.7-5.5l-2.8-1.2h0Z"/>
        </g>
      </g>
      <path class="st9" d="M182.7,58.8h65.7c12.1,0,21.9,9.8,21.9,21.9v65.7c0,12.1-9.8,21.9-21.9,21.9h-65.7c-12.1,0-21.9-9.8-21.9-21.9v-65.7c0-12.1,9.8-21.9,21.9-21.9Z"/>
      <g>
        <g>
          <g>
            <path class="st9" d="M222.6,149.6h-38c-13.7,0-7-9.8-7-9.8l14.1-25h29.6c-4.6,4.1-7.5,10.2-7.5,16.8,0,7.3,3.4,13.8,8.8,18Z"/>
            <path class="st9" d="M230.7,153.6c-4.8,0-42.1.1-51.5,0-9.9-.1-6.9-11.3-6.9-11.3,0,0,17.9-32.1,23.9-42.5v-18.8h-2.7c-1.4,0-2.6-1.2-2.6-2.6v-3c0-1.4,1.2-2.6,2.6-2.6h21.8c1.4,0,2.6,1.2,2.6,2.6v3c0,1.4-1.2,2.6-2.6,2.6h-2.6v18.5l10.6,13.6c-.8.5-1.5,1.1-2.2,1.7h-29.6l-14.1,25s-6.7,9.8,7,9.8h38c2.6,1.8,5.4,3.2,8.3,4h0Z"/>
          </g>
          <path class="st9" d="M222.6,149.6h-38c-13.7,0-7-9.8-7-9.8l14.1-25h29.6c-4.6,4.1-7.5,10.2-7.5,16.8,0,7.3,3.4,13.8,8.8,18Z"/>
        </g>
        <path class="st9" d="M244.7,110.5v-15.2h2.6c1.4,0,2.6-1.2,2.6-2.6v-3c0-1.5-1.2-2.6-2.6-2.6h-21.8c-1.4,0-2.6,1.2-2.6,2.6v3c0,1.4,1.2,2.6,2.6,2.6h2.7v15.2c-1.7.7-3.3,1.5-4.8,2.6-.8.5-1.5,1.1-2.2,1.7-4.6,4.1-7.5,10.2-7.5,16.8s3.5,13.8,8.8,18c2.4,1.8,5.1,3.2,8.1,4,1.8.5,3.7.7,5.7.7,12.5,0,22.7-10.2,22.7-22.7.1-9.6-5.8-17.8-14.3-21.1h0ZM236.5,149.7c-.6,0-1.3,0-1.9-.1-1.1-.1-2.3-.3-3.3-.5-8.6-1.9-14.9-8.6-14.9-16.5s6.2-6,13.8-6.8c.4,0,.7,0,1.1,0,11.4-1,25.3,1.3,25.3,6.9-.1,9.4-9.1,17.1-20.1,17.1h0Z"/>
        <path class="st9" d="M256.5,132.6c0,9.4-9,17.1-20.1,17.1s-1.3,0-1.9-.1c-1.1-.1-2.3-.3-3.3-.5-8.6-1.9-14.9-8.6-14.9-16.5s6.2-6,13.8-6.8c.4,0,.7,0,1.1,0,11.5-.9,25.3,1.3,25.3,6.9h0Z"/>
      </g>
      <path class="st9" d="M309.8,58.7h65.7c12.1,0,21.9,9.8,21.9,21.9v65.7c0,12.1-9.8,21.9-21.9,21.9h-65.7c-12.1,0-21.9-9.8-21.9-21.9v-65.7c0-12.1,9.8-21.9,21.9-21.9Z"/>
      <g>
        <path class="st9" d="M306.3,88.4h6.8c.4,0,.7.3.7.7v3.1h-8.3v-3.1c.1-.3.4-.7.8-.7h0Z"/>
        <path class="st9" d="M329.5,83.8h19.1c.4,0,.7.3.7.7v9.7h-20.6v-9.7c0-.3.4-.7.8-.7h0Z"/>
        <rect class="st9" x="331.4" y="86.2" width="15.3" height="2.4"/>
        <path class="st9" d="M302.6,91.4h80.1c2.4,0,4.3,1.9,4.3,4.3v43c0,2.4-1.9,4.3-4.3,4.3h-80.1c-2.4,0-4.3-1.9-4.3-4.3v-43c0-2.4,1.9-4.3,4.3-4.3Z"/>
        <path class="st9" d="M332.1,96.9h43c2.1,0,3.9,1.7,3.9,3.9v32.9c0,2.1-1.7,3.9-3.9,3.9h-43c-2.1,0-3.9-1.7-3.9-3.9v-32.9c0-2.2,1.8-3.9,3.9-3.9Z"/>
        <path class="st9" d="M302.2,91.4h13.5c2.1,0,3.9,1.7,3.9,3.9v43.8c0,2.1-1.7,3.9-3.9,3.9h-13.5c-2.1,0-3.9-1.7-3.9-3.9v-43.8c0-2.2,1.7-3.9,3.9-3.9Z"/>
        <circle class="st9" cx="356.7" cy="117.2" r="22.9"/>
        <circle class="st9" cx="356.7" cy="117.2" r="22.3"/>
        <circle class="st9" cx="356.7" cy="117.2" r="21.1"/>
      </g>
      <g>
        <rect class="st9" x="461.7" y="401.2" width="90.3" height="74.8"/>
        <rect class="st9" x="460.4" y="399.6" width="93" height="1.3"/>
        <rect class="st9" x="461.7" y="414.3" width="90.3" height="5.4"/>
        <rect class="st9" x="461.7" y="421.4" width="90.3" height="5.4"/>
        <circle class="st9" cx="480.1" cy="459.9" r="10.2"/>
      </g>
      <g>
        <rect class="st9" x="413" y="303.7" width="124.2" height="4.4"/>
        <g>
          <path class="st9" d="M413.3,280.3l.6.2,5.1,1.3,9.8,2.6,33.1,9.6,2.4.7h69.7v-1.3h-71l-1.3-.4-38-10.9h-.1l-10.3-2.3h-.6c0-.1.3,24,.3,24v1.2h121v-1.2h-120.7v-23.5h0Z"/>
          <polygon class="st9" points="428.8 284.3 419 281.8 419 281.5 428.8 284.3"/>
          <polygon class="st7" points="534 294.7 534 303.7 413.3 303.7 413.3 280.3 413.3 280.3 413.9 280.4 419 281.8 428.8 284.3 461.9 294 464.3 294.7 534 294.7"/>
          <polygon class="st7" points="428.8 284.3 419 281.8 419 281.5 428.8 284.3"/>
          <line class="st9" x1="463" y1="303.9" x2="537.2" y2="303.9"/>
          <polygon class="st9" points="537.2 292.1 537.2 293.4 463.1 293.4 461.8 293 423.8 282.1 423.7 282.1 413.1 279 485.4 279 537 292.1 537.2 292.1"/>
          <g>
            <path class="st9" d="M461.9,294c-.1-.2-.2-.4-.2-.6v-.3h0"/>
            <line class="st9" x1="537.2" y1="292.1" x2="537" y2="292.1"/>
            <line class="st9" x1="537.2" y1="294.7" x2="534" y2="294.7"/>
          </g>
          <polyline class="st9" points="463.1 293.4 461.8 293 428.8 284.3"/>
          <polyline class="st9" points="413.3 303.7 413.3 303.9 413.7 303.9 431.2 303.9 463.5 303.9"/>
        </g>
        <g>
          <path class="st9" d="M509.2,308.1l-45.1-.6-51.2.3h0v.7h121.3l-25-.4Z"/>
          <polygon class="st9" points="534.3 308.4 534.3 326.5 413.3 326.5 413.3 325.5 413 308.4 534.3 308.4"/>
          <line class="st9" x1="462.6" y1="325.5" x2="537.2" y2="325.5"/>
          <line class="st9" x1="537.2" y1="308.4" x2="534.3" y2="308.4"/>
          <polyline class="st9" points="413 308.4 413 308.4 413 325.5 413.3 325.5 463.2 325.5"/>
        </g>
      </g>
      <g>
        <polygon class="st9" points="314.3 454 314.3 459.5 313.3 459.5 307.9 477.6 292.9 477.6 287.4 459.5 286.9 459.5 286.9 454 314.3 454"/>
        <path class="st9" d="M301.3,454c.3-1.4,2.1-10.9-4.3-19.2-5-6.4-11.9-8.1-13.8-8.5"/>
        <path class="st9" d="M283.2,426.4c0,.6-.2,1.1-.6,1.6,0,.2.1.4.1.7,0,2.2-1.8,3.9-3.9,3.9s-.5,0-.7-.1c-.6.4-1.3.6-2.1.6-2.2,0-3.9-1.8-3.9-3.9s.3-1.7.8-2.3c-.1-.4-.2-.7-.2-1.1s.1-1.1.3-1.5c-.3-.5-.4-1.1-.4-1.7,0-2.2,1.8-3.9,3.9-3.9s1.9.4,2.6,1h0c2.2,0,3.9,1.8,3.9,3.9s-.1,1-.3,1.5c.3.2.5.7.5,1.3h0Z"/>
      </g>
      <path class="st9" d="M6,171.9h555.6c3.2,0,5.8,2.6,5.8,5.8v10c0,3.2-2.6,5.8-5.8,5.8H6c-3.2,0-5.8-2.6-5.8-5.8v-10c0-3.2,2.6-5.8,5.8-5.8Z"/>
      <path class="st9" d="M28,193.4h16.8v5.2c0,2.1-1.7,3.8-3.8,3.8h-9.2c-2.1,0-3.8-1.7-3.8-3.8v-5.2h0Z"/>
      <path class="st9" d="M275.5,193.4h16.8v5.2c0,2.1-1.7,3.8-3.8,3.8h-9.2c-2.1,0-3.8-1.7-3.8-3.8v-5.2h0Z"/>
      <path class="st9" d="M492.5,193.4h16.8v5.2c0,2.1-1.7,3.8-3.8,3.8h-9.2c-2.1,0-3.8-1.7-3.8-3.8v-5.2h0Z"/>
      <path class="st9" d="M5.8,326.7h555.6c3.2,0,5.8,2.6,5.8,5.8v10c0,3.2-2.6,5.8-5.8,5.8H5.8c-3.2,0-5.8-2.6-5.8-5.8v-10c0-3.2,2.6-5.8,5.8-5.8Z"/>
      <path class="st9" d="M27.6,348.2h16.8v5.2c0,2.1-1.7,3.8-3.8,3.8h-9.2c-2.1,0-3.8-1.7-3.8-3.8v-5.2h0Z"/>
      <path class="st9" d="M275.2,348.2h16.8v5.2c0,2.1-1.7,3.8-3.8,3.8h-9.2c-2.1,0-3.8-1.7-3.8-3.8v-5.2h0Z"/>
      <path class="st9" d="M492.1,348.2h16.9v5.2c0,2.1-1.7,3.8-3.8,3.8h-9.2c-2.1,0-3.8-1.7-3.8-3.8v-5.2h-.1Z"/>
      <path class="st9" d="M6.2,477.2h555.6c3.2,0,5.8,2.6,5.8,5.8v10c0,3.2-2.6,5.8-5.8,5.8H6.2c-3.2,0-5.8-2.6-5.8-5.8v-10c0-3.2,2.6-5.8,5.8-5.8Z"/>
      <path class="st9" d="M27.7,498.8h16.8v5.2c0,2.1-1.7,3.8-3.8,3.8h-9.2c-2.1,0-3.8-1.7-3.8-3.8v-5.2h0Z"/>
      <path class="st9" d="M275.3,498.8h16.8v5.2c0,2.1-1.7,3.8-3.8,3.8h-9.2c-2.1,0-3.8-1.7-3.8-3.8v-5.2h0Z"/>
      <path class="st9" d="M492.3,498.8h16.8v5.2c0,2.1-1.7,3.8-3.8,3.8h-9.2c-2.1,0-3.8-1.7-3.8-3.8v-5.2h0Z"/>
      <g>
        <path class="st9" d="M65.3,268.6c0,.1,0,.3-.2.4s0,.3-.2.4c0,.2,0,.4-.2.5,0-.1,0-.3,0-.4s0-.2,0-.4c.2-.1.3-.3.4-.5Z"/>
        <path class="st9" d="M71.7,305.6c-.3-.3-.5-.6-.6-.9.2.4.4.7.6.9Z"/>
        <path class="st9" d="M72.4,306.2h0c0,0-.3-.2-.6-.6.2.2.5.5.7.6Z"/>
        <path class="st9" d="M125.6,289.4c-1.5,11.3-9,19.7-16.6,18.7-1.5-.2-2.8-.7-4.1-1.5h0c.9-.7,1.6-1.7,1.9-2.9h0c2-3.3,4.8-9.4,6-18.5,1.2-8.7.5-13.2-.5-15.5h0c0-.2,0-.3,0-.4,0-.1,0-.3-.2-.4,0-.1,0-.1,0-.2,0-.1,0-.2-.2-.2h0c-.6-.9-1.1-1.1-1.2-1.2,1.3-.4,2.7-.5,4-.3,1.6.2,3.1.8,4.4,1.8-.4-8.7-1.8-23.7-5.3-28h0c-5-6-19.4-6.8-24.7-6.8s-18.2-.1-24.7,6.5c-.3.2-.5.5-.7.8-5.1,6.2-6.1,19.7-6.1,27.5,1.2-.8,2.4-1.4,3.8-1.6,1.7-.3,3.4-.1,5,.4h0c0,.1,0,.2,0,.2l-.2.2c0,0,0,.1,0,.1,0,.1,0,.1-.2.2,0,.1,0,.1,0,.2-.2.3-.4.5-.5.8,0,.1,0,.2,0,.4s0,.3,0,.4h0c-.9,2.5-1.4,7-.4,15,1.3,10.5,4.9,16.9,6.9,19.7.2.3.4.6.6.9q.2.2,0,0c.3.4.5.6.6.7-1.1.7-2.3,1.2-3.6,1.5-7.6,1.4-15.3-6.6-17.4-17.9-1.3-7,0-13.6,2.9-17.9h0c.6-13.5,2.1-26.2,5.6-32.2,4.9-8.3,20.4-10.9,28.6-10.7,10.2.2,23,1.9,29,12,4,6.7,5,22.6,5.1,31.5,2.7,4.1,4,10.2,3.1,16.7h0Z"/>
        <path class="st9" d="M105.1,306.4h0q0,.1,0,.1c0-.1,0-.1.2-.1Z"/>
        <path class="st9" d="M111.8,268.3c-.3-.4-.8-.8-1.2-1h0c0,0,.6.2,1.2,1h0Z"/>
        <path class="st9" d="M113.5,240.5c-2.1,1.4-12.2-2.1-24.4-2.1s-23.2,3.5-24.9,1.9c6.5-6.7,19.5-6.6,24.7-6.5,5.2.1,19.7.9,24.6,6.7Z"/>
        <path class="st9" d="M113,285.1c-1.3,9.1-4.1,15.2-6,18.5h0c-.2,1.2-.9,2.1-1.9,2.8,0,0,0,.1-.2.1-.9.5-2,.8-3.1.6l-1.2-.2c-2.4-.4-4.1-2.7-3.6-5,0,0,2.5-8,4.1-15.9,1.4-6.8,1.6-16,1.6-16,.4-2.3,2.7-3.9,5.2-3.4l1.2.2c.5.1,1.1.3,1.5.5h0c.5.3.9.6,1.2,1.1h0q0,.2.2.3c0,.1,0,.1,0,.2,0,.1.2.3.2.4s0,.2,0,.3h0c1,2.3,1.7,6.8.5,15.5h0Z"/>
        <path class="st10" d="M72.3,306.4l-.4.4c0,0,.4-.4.4-.4l.4-.5c0-.1,0,0,0,.1,0,.1-.3.3-.3.4h0Z"/>
        <path class="st10" d="M66.8,267.2c0,.2,0,.6,0,.6-.2-.2-.6-.8-.5-1,0-.1,0,0,0,.1.2,0,.4,0,.4.3h0Z"/>
        <path class="st9" d="M76.8,306.7l-1.1.2c-1.2.2-2.3,0-3.2-.7-.3-.2-.5-.4-.7-.6q0-.2,0,0c-.2-.2-.4-.5-.6-.9-1.9-2.8-5.5-9.2-6.9-19.7-1-8-.4-12.4.4-14.9h0c0-.3,0-.5.2-.6,0-.2,0-.3.2-.4s0-.3.2-.4h0c0-.1,0-.1,0-.2s0-.1,0-.2c0-.1,0-.2.2-.2h0q0-.2.2-.3h0c0-.1,0-.2,0-.2h0c0,0,0-.1.2-.1,0,0,0,0,0-.1.4-.2.8-.4,1.3-.5l1.1-.2c2.3-.4,4.6,1.1,5,3.4,0,0,.3,9.1,1.9,15.9,1.7,7.8,4.3,15.8,4.3,15.8.5,2.2-1,4.4-3.3,4.9Z"/>
        <path class="st9" d="M65.3,268.6c0,.1,0,.3-.2.4s0,.3-.2.4c0,.2,0,.4-.2.5,0-.1,0-.3,0-.4s0-.2,0-.4c.2-.1.3-.3.4-.5Z"/>
        <path class="st9" d="M71.7,305.6c-.3-.3-.5-.6-.6-.9.2.4.4.7.6.9Z"/>
        <path class="st10" d="M105,306.5c0,.1.4.5.3.4s-.7-.6-.8-.8c0,.2.3.3.5.4h0Z"/>
        <path class="st10" d="M110.6,267.3s0,.6,0,.5v-1.1c0-.1,0,.1,0,.1v.5h0Z"/>
      </g>
    </g>
  </g>
</svg>