<?xml version="1.0" encoding="UTF-8"?>
<svg id="Camada_2" data-name="Camada 2" xmlns="http://www.w3.org/2000/svg" viewBox="0 0 500 300">
  <defs>
    <style>
      .cls-1 {
        fill: #e78b33;
      }

      .cls-2 {
        fill: #fdffff;
      }

      .cls-3 {
        fill: #c75b24;
      }

      .cls-4 {
        fill: #7b3212;
      }
    </style>
  </defs>
  <polygon class="cls-1" points="249.85 158.47 155.21 103.84 249.85 49.2 344.48 103.84 249.85 158.47"/>
  <polygon class="cls-3" points="249.85 158.47 249.85 185.79 155.4 185.79 155.4 103.84 249.85 158.47"/>
  <polygon class="cls-4" points="344.66 103.84 344.66 185.79 249.85 185.79 249.85 158.47 249.94 158.42 344.66 103.84"/>
  <polygon class="cls-2" points="203.91 131.92 192.93 125.57 287.53 70.93 298.54 77.28 203.91 131.92"/>
  <rect class="cls-1" x="116.98" y="178.01" width="34.18" height="7.79"/>
  <rect class="cls-1" x="116.98" y="167.94" width="34.18" height="7.79"/>
  <rect class="cls-1" x="116.98" y="157.8" width="34.18" height="7.79"/>
  <rect class="cls-1" x="78.89" y="181.9" width="34.18" height="3.89"/>
  <rect class="cls-1" x="348.75" y="178.01" width="34.18" height="7.79" transform="translate(731.68 363.8) rotate(-180)"/>
  <rect class="cls-1" x="348.75" y="167.94" width="34.18" height="7.79" transform="translate(731.68 343.67) rotate(-180)"/>
  <rect class="cls-1" x="348.75" y="157.8" width="34.18" height="7.79" transform="translate(731.68 323.39) rotate(-180)"/>
  <rect class="cls-1" x="386.84" y="181.9" width="34.18" height="3.89" transform="translate(807.86 367.69) rotate(-180)"/>
  <polygon class="cls-2" points="304.38 170.55 341.14 149.45 341.14 114.2 304.38 135.38 304.38 170.55"/>
  <g>
    <polygon class="cls-4" points="309.3 162.46 310.4 161.83 310.4 137.36 309.3 137.99 309.3 162.46"/>
    <polyline class="cls-4" points="336.11 122.9 336.11 147.37 335.01 148 335.01 123.53"/>
    <polygon class="cls-4" points="311 159.87 311.43 159.62 311.43 136.8 311 137.05 311 159.87"/>
    <polygon class="cls-4" points="312.74 158.88 314.06 158.12 314.06 135.3 312.74 136.06 312.74 158.88"/>
    <polygon class="cls-4" points="315.23 157.47 316.55 156.71 316.55 133.89 315.23 134.65 315.23 157.47"/>
    <polygon class="cls-4" points="317.32 156.3 319.42 155.09 319.42 132.27 317.32 133.48 317.32 156.3"/>
    <polygon class="cls-4" points="320.9 154.28 321.32 154.03 321.32 131.21 320.9 131.46 320.9 154.28"/>
    <polygon class="cls-4" points="322.63 153.29 323.95 152.54 323.95 129.71 322.63 130.47 322.63 153.29"/>
    <polygon class="cls-4" points="325.12 151.88 326.44 151.12 326.44 128.3 325.12 129.06 325.12 151.88"/>
    <polygon class="cls-4" points="327.21 150.71 329.31 149.5 329.31 126.68 327.21 127.89 327.21 150.71"/>
    <polygon class="cls-4" points="330.67 148.79 331.1 148.54 331.1 125.72 330.67 125.97 330.67 148.79"/>
    <polygon class="cls-4" points="332.41 147.8 333.73 147.04 333.73 124.22 332.41 124.98 332.41 147.8"/>
  </g>
  <g>
    <path class="cls-1" d="m89.43,230.26h24.95v8.51h-35.49v-45.84h34.64v8.51h-24.1v28.81Zm-.79-18.92h22.07v8.32h-22.07v-8.32Z"/>
    <path class="cls-1" d="m133.7,239.3c-3.01,0-5.89-.36-8.64-1.08-2.75-.72-4.96-1.63-6.61-2.72l3.34-7.27c1.66.96,3.59,1.76,5.8,2.39,2.2.63,4.38.95,6.52.95,2.36,0,4.03-.28,5.01-.85.98-.57,1.47-1.35,1.47-2.36,0-.83-.38-1.45-1.15-1.87-.76-.41-1.77-.73-3.01-.95-1.24-.22-2.63-.44-4.16-.65-1.53-.22-3.05-.52-4.55-.92-1.51-.39-2.9-.95-4.19-1.67-1.29-.72-2.31-1.71-3.08-2.98-.76-1.27-1.15-2.9-1.15-4.91,0-2.23.65-4.2,1.96-5.93,1.31-1.72,3.16-3.07,5.57-4.03,2.4-.96,5.3-1.44,8.71-1.44,2.44,0,4.9.27,7.37.82,2.47.55,4.55,1.3,6.25,2.26l-3.47,7.27c-1.66-.96-3.35-1.64-5.08-2.03-1.73-.39-3.37-.59-4.94-.59-2.36,0-4.06.31-5.11.92-1.05.61-1.57,1.4-1.57,2.36,0,.87.39,1.54,1.18,2,.79.46,1.81.8,3.08,1.02,1.27.22,2.66.44,4.19.65,1.53.22,3.03.52,4.52.92,1.48.39,2.87.95,4.16,1.67,1.29.72,2.31,1.71,3.08,2.98.76,1.27,1.15,2.9,1.15,4.91,0,2.14-.65,4.05-1.96,5.73-1.31,1.68-3.2,3-5.66,3.96-2.47.96-5.47,1.44-9,1.44Z"/>
    <path class="cls-1" d="m152.43,212.19v-7.86h24.43v7.86h-24.43Zm18.6,27.11c-4.15,0-7.38-1.06-9.69-3.18-2.31-2.12-3.47-5.27-3.47-9.46v-30.91h10.28v30.71c0,1.48.38,2.64,1.15,3.47.76.83,1.8,1.24,3.11,1.24,1.66,0,3.06-.44,4.19-1.31l2.68,7.2c-1,.74-2.24,1.3-3.7,1.67-1.46.37-2.98.56-4.55.56Z"/>
    <path class="cls-1" d="m200.69,239.3c-3.71,0-7.02-.79-9.92-2.36-2.9-1.57-5.18-3.72-6.84-6.45-1.66-2.73-2.49-5.84-2.49-9.33s.83-6.67,2.49-9.4c1.66-2.73,3.94-4.87,6.84-6.42,2.9-1.55,6.21-2.32,9.92-2.32s7.09.78,10.02,2.32c2.92,1.55,5.22,3.69,6.88,6.42,1.66,2.73,2.49,5.86,2.49,9.4s-.83,6.66-2.49,9.36c-1.66,2.71-3.95,4.85-6.88,6.42-2.93,1.57-6.26,2.36-10.02,2.36Zm0-8.38c1.75,0,3.28-.38,4.62-1.15,1.33-.76,2.4-1.89,3.21-3.37.81-1.48,1.21-3.23,1.21-5.24s-.4-3.8-1.21-5.24c-.81-1.44-1.88-2.54-3.21-3.31-1.33-.76-2.85-1.15-4.55-1.15s-3.23.38-4.58,1.15c-1.35.76-2.43,1.87-3.24,3.31-.81,1.44-1.21,3.19-1.21,5.24s.4,3.75,1.21,5.24c.81,1.48,1.89,2.61,3.24,3.37,1.35.76,2.86,1.15,4.52,1.15Z"/>
    <path class="cls-1" d="m241.88,239.3c-3.32,0-6.31-.75-8.97-2.26-2.66-1.51-4.76-3.6-6.29-6.29-1.53-2.68-2.29-5.88-2.29-9.59s.76-6.85,2.29-9.56c1.53-2.71,3.62-4.81,6.29-6.32,2.66-1.51,5.65-2.26,8.97-2.26,3.1,0,5.75.66,7.96,1.96,2.2,1.31,3.9,3.3,5.07,5.96,1.18,2.66,1.77,6.07,1.77,10.22s-.61,7.5-1.83,10.18c-1.22,2.69-2.95,4.68-5.17,5.99-2.23,1.31-4.82,1.96-7.79,1.96Zm1.7-8.38c1.7,0,3.23-.39,4.58-1.18,1.35-.79,2.43-1.91,3.24-3.37.81-1.46,1.21-3.2,1.21-5.21s-.4-3.8-1.21-5.24c-.81-1.44-1.89-2.54-3.24-3.31-1.35-.76-2.88-1.15-4.58-1.15s-3.17.38-4.52,1.15c-1.35.76-2.43,1.87-3.24,3.31-.81,1.44-1.21,3.19-1.21,5.24s.4,3.74,1.21,5.21c.81,1.46,1.89,2.59,3.24,3.37,1.35.79,2.86,1.18,4.52,1.18Zm8.84,20.56v-19.84l.66-10.41-.2-10.48v-7.2h9.76v47.93h-10.22Z"/>
    <path class="cls-4" d="m294.92,239.56c-3.62,0-6.96-.58-10.02-1.74-3.06-1.16-5.7-2.8-7.92-4.94-2.23-2.14-3.96-4.65-5.21-7.53-1.24-2.88-1.87-6.05-1.87-9.49s.62-6.61,1.87-9.5,3-5.39,5.27-7.53c2.27-2.14,4.93-3.79,7.99-4.94,3.06-1.16,6.42-1.74,10.08-1.74,4.06,0,7.72.68,10.97,2.03,3.25,1.35,5.99,3.32,8.22,5.89l-6.75,6.29c-1.7-1.79-3.54-3.11-5.5-3.96-1.96-.85-4.13-1.28-6.48-1.28-2.18,0-4.19.36-6.02,1.08-1.83.72-3.42,1.73-4.75,3.05-1.33,1.31-2.36,2.86-3.08,4.65-.72,1.79-1.08,3.78-1.08,5.96s.36,4.05,1.08,5.86c.72,1.81,1.75,3.37,3.08,4.68,1.33,1.31,2.9,2.34,4.71,3.08,1.81.74,3.81,1.11,5.99,1.11s4.14-.35,6.12-1.05c1.99-.7,3.92-1.86,5.8-3.47l6.02,7.66c-2.53,1.92-5.44,3.37-8.71,4.35-3.27.98-6.55,1.47-9.82,1.47Zm8.84-7.2v-17.22h9.69v18.6l-9.69-1.38Z"/>
    <path class="cls-4" d="m345.54,239.56c-3.62,0-6.96-.59-10.02-1.77-3.06-1.18-5.72-2.84-7.99-4.98-2.27-2.14-4.03-4.65-5.27-7.53-1.24-2.88-1.87-6.02-1.87-9.43s.62-6.6,1.87-9.46c1.24-2.86,3-5.36,5.27-7.5,2.27-2.14,4.92-3.8,7.96-4.98,3.03-1.18,6.36-1.77,9.99-1.77s6.95.58,9.99,1.74c3.03,1.16,5.69,2.81,7.96,4.94,2.27,2.14,4.03,4.65,5.27,7.53,1.24,2.88,1.87,6.05,1.87,9.5s-.62,6.56-1.87,9.46c-1.24,2.9-3,5.43-5.27,7.56-2.27,2.14-4.92,3.79-7.96,4.94-3.03,1.16-6.34,1.74-9.92,1.74Zm-.07-8.97c2.05,0,3.94-.36,5.66-1.08,1.72-.72,3.24-1.75,4.55-3.08,1.31-1.33,2.32-2.88,3.05-4.65.72-1.77,1.08-3.74,1.08-5.93s-.36-4.16-1.08-5.93c-.72-1.77-1.73-3.32-3.05-4.65-1.31-1.33-2.83-2.36-4.55-3.08-1.73-.72-3.61-1.08-5.66-1.08s-3.95.36-5.7,1.08c-1.75.72-3.26,1.75-4.55,3.08-1.29,1.33-2.29,2.88-3.01,4.65-.72,1.77-1.08,3.74-1.08,5.93s.36,4.16,1.08,5.93c.72,1.77,1.72,3.32,3.01,4.65,1.29,1.33,2.8,2.36,4.55,3.08,1.75.72,3.64,1.08,5.7,1.08Z"/>
    <path class="cls-4" d="m390.79,238.77l-19.84-45.84h11.53l17.29,40.6h-6.75l17.55-40.6h10.54l-19.84,45.84h-10.48Z"/>
  </g>
  <polygon class="cls-2" points="192.93 185.79 203.91 185.79 203.91 131.92 192.93 125.57 192.93 185.79"/>
</svg>