<?xml version="1.0" encoding="UTF-8"?>
<svg id="Camada_1" data-name="Camada 1" xmlns="http://www.w3.org/2000/svg" viewBox="0 0 782.38 162.99">
  <defs>
    <style>
      .cls-1 {
        fill: #e78b33;
      }

      .cls-2 {
        fill: #fdffff;
      }

      .cls-3 {
        fill: #c75b24;
      }

      .cls-4 {
        fill: #7b3212;
      }
    </style>
  </defs>
  <g>
    <polygon class="cls-4" points="141.25 40.74 141.25 122.23 70.56 162.99 70.56 81.47 70.62 81.43 141.25 40.74"/>
    <g>
      <polygon class="cls-1" points="70.56 81.47 0 40.74 70.56 0 141.11 40.74 70.56 81.47"/>
      <polygon class="cls-3" points="70.56 81.47 70.56 162.99 .14 122.23 .14 40.74 70.56 81.47"/>
      <polygon class="cls-2" points="36.3 61.67 28.12 56.94 98.65 16.2 106.86 20.94 36.3 61.67"/>
      <g>
        <polygon class="cls-2" points="111.22 90.47 138.62 74.75 138.62 48.46 111.22 64.25 111.22 90.47"/>
        <polygon class="cls-4" points="114.88 84.44 115.7 83.97 115.7 65.73 114.88 66.2 114.88 84.44"/>
        <polyline class="cls-4" points="134.87 54.94 134.87 73.19 134.05 73.66 134.05 55.42"/>
        <polygon class="cls-4" points="116.15 82.51 116.47 82.33 116.47 65.31 116.15 65.49 116.15 82.51"/>
        <polygon class="cls-4" points="117.44 81.77 118.43 81.21 118.43 64.19 117.44 64.76 117.44 81.77"/>
        <polygon class="cls-4" points="119.3 80.72 120.29 80.16 120.29 63.14 119.3 63.71 119.3 80.72"/>
        <polygon class="cls-4" points="120.86 79.85 122.42 78.95 122.42 61.93 120.86 62.83 120.86 79.85"/>
        <polygon class="cls-4" points="123.53 78.34 123.84 78.16 123.84 61.15 123.53 61.33 123.53 78.34"/>
        <polygon class="cls-4" points="124.82 77.61 125.81 77.04 125.81 60.03 124.82 60.59 124.82 77.61"/>
        <polygon class="cls-4" points="126.68 76.55 127.66 75.99 127.66 58.97 126.68 59.54 126.68 76.55"/>
        <polygon class="cls-4" points="128.23 75.68 129.8 74.78 129.8 57.77 128.23 58.67 128.23 75.68"/>
        <polygon class="cls-4" points="130.81 74.25 131.13 74.07 131.13 57.05 130.81 57.23 130.81 74.25"/>
        <polygon class="cls-4" points="132.11 73.51 133.09 72.95 133.09 55.93 132.11 56.5 132.11 73.51"/>
      </g>
      <polygon class="cls-2" points="28.12 138.43 36.3 143.19 36.3 61.67 28.12 56.94 28.12 138.43"/>
    </g>
  </g>
  <g>
    <path class="cls-1" d="m184.77,107.45h44.95v15.34h-63.95V40.2h62.42v15.34h-43.42v51.91Zm-1.42-34.1h39.76v14.98h-39.76v-14.98Z"/>
    <path class="cls-1" d="m264.53,123.73c-5.43,0-10.62-.65-15.57-1.95-4.96-1.3-8.93-2.93-11.92-4.9l6.02-13.1c2.99,1.73,6.47,3.17,10.44,4.31,3.97,1.14,7.88,1.71,11.74,1.71,4.25,0,7.26-.51,9.03-1.53,1.77-1.02,2.66-2.44,2.66-4.25,0-1.49-.69-2.61-2.07-3.36-1.38-.75-3.19-1.32-5.43-1.71-2.24-.39-4.74-.79-7.49-1.18-2.75-.39-5.49-.94-8.2-1.65-2.71-.71-5.23-1.71-7.55-3.01-2.32-1.3-4.17-3.09-5.55-5.37-1.38-2.28-2.06-5.23-2.06-8.85,0-4.01,1.18-7.57,3.54-10.68,2.36-3.11,5.7-5.53,10.03-7.26,4.33-1.73,9.56-2.6,15.69-2.6,4.4,0,8.83.49,13.27,1.47,4.44.98,8.2,2.34,11.27,4.07l-6.25,13.1c-2.99-1.73-6.04-2.95-9.14-3.66-3.11-.71-6.08-1.06-8.91-1.06-4.25,0-7.31.55-9.2,1.65-1.89,1.1-2.83,2.52-2.83,4.25,0,1.57.71,2.77,2.12,3.6,1.42.83,3.26,1.44,5.55,1.83,2.28.39,4.8.79,7.55,1.18,2.75.39,5.47.94,8.14,1.65,2.67.71,5.17,1.71,7.49,3.01,2.32,1.3,4.17,3.09,5.55,5.37,1.38,2.28,2.06,5.23,2.06,8.85,0,3.85-1.18,7.3-3.54,10.32-2.36,3.03-5.76,5.41-10.21,7.14-4.44,1.73-9.85,2.6-16.22,2.6Z"/>
    <path class="cls-1" d="m298.28,74.89v-14.16h44.01v14.16h-44.01Zm33.51,48.85c-7.47,0-13.29-1.91-17.46-5.72-4.17-3.81-6.25-9.5-6.25-17.05v-55.69h18.52v55.34c0,2.67.69,4.76,2.06,6.25,1.38,1.5,3.24,2.24,5.6,2.24,2.99,0,5.5-.79,7.55-2.36l4.84,12.98c-1.81,1.34-4.03,2.34-6.67,3.01-2.64.67-5.37,1-8.2,1Z"/>
    <path class="cls-1" d="m385.23,123.73c-6.69,0-12.64-1.42-17.88-4.25-5.23-2.83-9.34-6.7-12.33-11.62-2.99-4.92-4.48-10.52-4.48-16.81s1.49-12.01,4.48-16.93c2.99-4.91,7.1-8.77,12.33-11.56,5.23-2.79,11.19-4.19,17.88-4.19s12.78,1.4,18.05,4.19c5.27,2.79,9.4,6.65,12.39,11.56,2.99,4.92,4.48,10.56,4.48,16.93s-1.5,12-4.48,16.87c-2.99,4.88-7.12,8.73-12.39,11.56-5.27,2.83-11.29,4.25-18.05,4.25Zm0-15.1c3.14,0,5.92-.69,8.32-2.07,2.4-1.38,4.33-3.4,5.78-6.08,1.45-2.67,2.18-5.82,2.18-9.44s-.73-6.84-2.18-9.44c-1.46-2.6-3.38-4.58-5.78-5.96-2.4-1.38-5.13-2.07-8.2-2.07s-5.82.69-8.26,2.07c-2.44,1.38-4.39,3.36-5.84,5.96-1.46,2.6-2.18,5.74-2.18,9.44s.73,6.77,2.18,9.44c1.45,2.67,3.4,4.7,5.84,6.08,2.44,1.38,5.15,2.07,8.14,2.07Z"/>
    <path class="cls-1" d="m459.45,123.73c-5.98,0-11.37-1.36-16.16-4.07-4.8-2.71-8.57-6.49-11.33-11.33-2.75-4.84-4.13-10.6-4.13-17.28s1.38-12.35,4.13-17.23c2.75-4.88,6.53-8.67,11.33-11.39,4.8-2.71,10.19-4.07,16.16-4.07,5.58,0,10.36,1.18,14.34,3.54,3.97,2.36,7.02,5.94,9.14,10.74,2.12,4.8,3.19,10.93,3.19,18.41s-1.1,13.51-3.3,18.35c-2.2,4.84-5.31,8.44-9.32,10.8-4.01,2.36-8.69,3.54-14.04,3.54Zm3.07-15.1c3.07,0,5.82-.71,8.26-2.12,2.44-1.42,4.38-3.44,5.84-6.08,1.45-2.63,2.18-5.76,2.18-9.38s-.73-6.84-2.18-9.44c-1.46-2.6-3.4-4.58-5.84-5.96-2.44-1.38-5.19-2.07-8.26-2.07s-5.7.69-8.14,2.07c-2.44,1.38-4.39,3.36-5.84,5.96-1.46,2.6-2.18,5.74-2.18,9.44s.73,6.75,2.18,9.38c1.45,2.64,3.4,4.66,5.84,6.08,2.44,1.42,5.15,2.12,8.14,2.12Zm15.93,37.05v-35.75l1.18-18.76-.35-18.88v-12.98h17.58v86.37h-18.41Z"/>
    <path class="cls-4" d="m555.02,124.21c-6.53,0-12.55-1.04-18.05-3.13-5.51-2.08-10.26-5.05-14.28-8.91-4.01-3.85-7.14-8.38-9.38-13.57-2.24-5.19-3.36-10.89-3.36-17.11s1.12-11.92,3.36-17.11c2.24-5.19,5.41-9.71,9.5-13.57,4.09-3.85,8.89-6.82,14.39-8.91,5.51-2.08,11.56-3.13,18.17-3.13,7.31,0,13.9,1.22,19.76,3.66,5.86,2.44,10.8,5.98,14.81,10.62l-12.15,11.33c-3.07-3.22-6.37-5.6-9.91-7.14-3.54-1.53-7.43-2.3-11.68-2.3-3.93,0-7.55.65-10.85,1.95-3.3,1.3-6.16,3.13-8.55,5.49-2.4,2.36-4.25,5.15-5.55,8.38-1.3,3.23-1.95,6.8-1.95,10.74s.65,7.3,1.95,10.56c1.3,3.27,3.15,6.08,5.55,8.44,2.4,2.36,5.23,4.21,8.5,5.55,3.26,1.34,6.86,2.01,10.8,2.01s7.45-.63,11.03-1.89c3.58-1.26,7.06-3.34,10.44-6.25l10.86,13.8c-4.56,3.46-9.79,6.08-15.69,7.85-5.9,1.77-11.8,2.65-17.7,2.65Zm15.93-12.98v-31.03h17.46v33.51l-17.46-2.48Z"/>
    <path class="cls-4" d="m646.22,124.21c-6.53,0-12.55-1.06-18.05-3.19-5.51-2.12-10.31-5.11-14.39-8.97-4.09-3.85-7.26-8.38-9.5-13.57-2.24-5.19-3.36-10.86-3.36-16.99s1.12-11.9,3.36-17.05c2.24-5.15,5.41-9.65,9.5-13.51,4.09-3.85,8.87-6.84,14.34-8.97,5.47-2.12,11.46-3.19,17.99-3.19s12.53,1.04,17.99,3.13c5.47,2.08,10.25,5.05,14.34,8.91,4.09,3.85,7.26,8.38,9.5,13.57,2.24,5.19,3.36,10.9,3.36,17.11s-1.12,11.82-3.36,17.05c-2.24,5.23-5.41,9.77-9.5,13.63-4.09,3.85-8.87,6.82-14.34,8.91-5.47,2.08-11.43,3.13-17.88,3.13Zm-.12-16.16c3.7,0,7.1-.65,10.21-1.95,3.11-1.3,5.84-3.15,8.2-5.55,2.36-2.4,4.19-5.19,5.49-8.38,1.3-3.19,1.95-6.74,1.95-10.68s-.65-7.49-1.95-10.68c-1.3-3.19-3.13-5.98-5.49-8.38-2.36-2.4-5.09-4.25-8.2-5.55-3.11-1.3-6.51-1.95-10.21-1.95s-7.12.65-10.26,1.95c-3.15,1.3-5.88,3.15-8.2,5.55-2.32,2.4-4.13,5.19-5.43,8.38-1.3,3.19-1.95,6.75-1.95,10.68s.65,7.49,1.95,10.68c1.3,3.19,3.11,5.98,5.43,8.38,2.32,2.4,5.05,4.25,8.2,5.55,3.15,1.3,6.57,1.95,10.26,1.95Z"/>
    <path class="cls-4" d="m727.75,122.79l-35.75-82.59h20.77l31.15,73.15h-12.15l31.62-73.15h19l-35.75,82.59h-18.88Z"/>
  </g>
</svg>