<?xml version="1.0" encoding="UTF-8"?>
<svg id="Camada_2" data-name="Camada 2" xmlns="http://www.w3.org/2000/svg" viewBox="0 0 500 300">
  <defs>
    <style>
      .cls-1 {
        fill: #eac24d;
      }

      .cls-2 {
        fill: #e0dcf0;
      }

      .cls-3 {
        fill: #6443d9;
      }
    </style>
  </defs>
  <g>
    <path class="cls-3" d="m124.47,117.25l-3.86,8.5c-2.95-1.64-6.01-2.88-9.17-3.72-1.44-.38-2.92-.68-4.46-.89v40.08h-11.38v-40.09c-1.52.21-2.99.51-4.43.89-3.14.84-6.21,2.08-9.2,3.72l-3.86-8.5c3.47-2.01,7.16-3.52,11.1-4.53,3.93-1.01,7.94-1.51,12.01-1.51s8.17.5,12.15,1.51c3.98,1.01,7.68,2.52,11.1,4.53Z"/>
    <path class="cls-1" d="m69.52,151.57c-1.51.6-3.27.9-5.29.9-2.26,0-4.23-.42-5.92-1.24-1.69-.83-2.99-2.07-3.88-3.73-.1-.18-.19-.36-.27-.55l28.06-5.32c-.05-3.96-.95-7.34-2.72-10.13-1.76-2.79-4.13-4.93-7.09-6.43-2.96-1.5-6.23-2.25-9.8-2.25-3.9,0-7.38.82-10.44,2.46-3.06,1.64-5.45,3.9-7.19,6.81-1.74,2.9-2.61,6.2-2.61,9.89s.89,6.97,2.68,9.85c1.79,2.88,4.3,5.15,7.55,6.81,3.24,1.66,7,2.49,11.28,2.49,3.43,0,6.48-.52,9.13-1.56,2.66-1.04,4.85-2.52,6.59-4.46l-5.85-6.22c-1.32,1.2-2.73,2.1-4.23,2.7Zm-15.27-15.83c.78-1.57,1.89-2.75,3.35-3.56,1.46-.81,3.13-1.21,5.01-1.21s3.51.4,4.9,1.21c1.39.81,2.48,1.9,3.28,3.28.34.59.61,1.21.8,1.88l-18.5,3.48c.06-1.95.44-3.64,1.15-5.09Z"/>
    <path class="cls-3" d="m149.89,123.17v9.93c-.42-.09-.83-.16-1.23-.21-.4-.04-.79-.07-1.16-.07-3.1,0-5.57.85-7.41,2.53-1.83,1.69-2.75,4.29-2.75,7.81v18.07h-11v-32.79c0-2.9,2.35-5.25,5.25-5.25,1.45,0,2.76.59,3.71,1.54.95.95,1.54,2.27,1.54,3.72v.1c1.04-1.38,2.35-2.5,3.95-3.36,2.49-1.35,5.52-2.02,9.1-2.02Z"/>
    <path class="cls-3" d="m191.7,124.68c-1-1-2.37-1.61-3.89-1.61-2.63,0-4.83,1.84-5.37,4.31-.9-1-1.94-1.83-3.09-2.5-2.4-1.38-5.2-2.07-8.39-2.07-3.57,0-6.8.8-9.66,2.39s-5.12,3.81-6.77,6.67-2.47,6.22-2.47,10.09.82,7.24,2.47,10.09c1.65,2.86,3.9,5.08,6.77,6.67s6.09,2.39,9.66,2.39c3.34,0,6.19-.68,8.57-2.04,1.25-.71,2.34-1.63,3.28-2.76v4.93h10.51v-32.67c0-1.52-.62-2.9-1.61-3.89Zm-10.49,22.81c-.87,1.57-2.03,2.75-3.49,3.56-1.46.81-3.1,1.21-4.94,1.21s-3.41-.4-4.87-1.21c-1.46-.81-2.62-1.99-3.49-3.56-.87-1.57-1.31-3.41-1.31-5.53s.43-4.01,1.31-5.53c.87-1.52,2.03-2.68,3.49-3.49,1.46-.81,3.08-1.21,4.87-1.21s3.48.4,4.94,1.21c1.46.81,2.62,1.97,3.49,3.49.87,1.52,1.31,3.37,1.31,5.53s-.44,3.96-1.31,5.53Z"/>
    <path class="cls-3" d="m235.68,139.26v21.98h-11v-20.32c0-3-.67-5.21-2.01-6.64-1.34-1.43-3.23-2.14-5.68-2.14-1.74,0-3.3.37-4.69,1.11-1.39.74-2.47,1.82-3.24,3.25-.78,1.43-1.16,3.32-1.16,5.67v19.07h-11v-32.92c0-2.9,2.35-5.25,5.25-5.25,1.45,0,2.76.59,3.72,1.54.83.83,1.39,1.95,1.51,3.2,1.1-1.2,2.4-2.2,3.91-2.99,2.54-1.34,5.43-2.01,8.67-2.01,3.01,0,5.7.59,8.07,1.76,2.37,1.17,4.24,2.97,5.61,5.39,1.36,2.42,2.05,5.52,2.05,9.3Z"/>
    <path class="cls-3" d="m254.43,161.11c-3.24,0-6.35-.38-9.31-1.14-2.96-.76-5.34-1.72-7.12-2.87l3.6-7.67c1.79,1.01,3.87,1.86,6.24,2.52,2.37.67,4.71,1,7.02,1,2.54,0,4.34-.3,5.4-.9,1.06-.6,1.59-1.43,1.59-2.49,0-.87-.41-1.53-1.23-1.97-.82-.44-1.9-.77-3.24-1-1.34-.23-2.83-.46-4.48-.69-1.65-.23-3.28-.55-4.9-.97-1.62-.41-3.13-1-4.51-1.76-1.39-.76-2.49-1.81-3.31-3.15-.82-1.34-1.23-3.06-1.23-5.18,0-2.35.71-4.43,2.12-6.26,1.41-1.82,3.41-3.24,5.99-4.25,2.59-1.01,5.71-1.52,9.38-1.52,2.63,0,5.28.29,7.93.86,2.66.58,4.9,1.37,6.74,2.38l-3.74,7.67c-1.79-1.01-3.61-1.73-5.47-2.14-1.86-.41-3.63-.62-5.33-.62-2.54,0-4.37.32-5.5.97-1.13.65-1.69,1.48-1.69,2.49,0,.92.42,1.62,1.27,2.11.85.48,1.95.84,3.31,1.07,1.36.23,2.87.46,4.51.69,1.65.23,3.27.55,4.87.97,1.6.41,3.09,1,4.48,1.76,1.39.76,2.49,1.81,3.31,3.15.82,1.34,1.23,3.07,1.23,5.18,0,2.26-.71,4.28-2.12,6.05-1.41,1.77-3.45,3.17-6.1,4.18-2.66,1.01-5.89,1.52-9.7,1.52Z"/>
    <path class="cls-3" d="m314.21,132.12c-1.67-2.84-3.93-5.06-6.77-6.64-2.85-1.58-6.08-2.37-9.7-2.37-3.24,0-6.08.69-8.5,2.07-1.17.66-2.2,1.49-3.1,2.49-.15-1.18-.69-2.24-1.5-3.05-.95-.95-2.26-1.54-3.71-1.54-2.9,0-5.25,2.35-5.25,5.25v60.46h11v-31.73c.82.83,1.73,1.54,2.74,2.12,2.4,1.38,5.17,2.07,8.32,2.07,3.62,0,6.85-.79,9.7-2.37,2.84-1.58,5.1-3.79,6.77-6.61,1.67-2.82,2.5-6.18,2.5-10.09s-.83-7.2-2.5-10.05Zm-8.36,15.33c-.91,1.54-2.11,2.73-3.61,3.56-1.5.83-3.2,1.25-5.12,1.25s-3.63-.42-5.15-1.25c-1.52-.83-2.74-2.02-3.64-3.56-.91-1.54-1.36-3.38-1.36-5.5s.45-4.01,1.36-5.53c.91-1.52,2.12-2.68,3.64-3.49,1.52-.81,3.24-1.21,5.15-1.21s3.62.4,5.12,1.21c1.5.81,2.7,1.97,3.61,3.49.91,1.52,1.36,3.37,1.36,5.53s-.46,3.95-1.36,5.5Z"/>
    <path class="cls-3" d="m340.25,161.35c-4,0-7.56-.83-10.68-2.49-3.13-1.66-5.58-3.93-7.37-6.81-1.79-2.88-2.68-6.16-2.68-9.85s.89-7.04,2.68-9.92c1.79-2.88,4.24-5.14,7.37-6.77,3.13-1.64,6.69-2.45,10.68-2.45s7.64.82,10.79,2.45c3.15,1.64,5.62,3.89,7.41,6.77,1.79,2.88,2.68,6.19,2.68,9.92s-.89,7.03-2.68,9.89c-1.79,2.86-4.26,5.12-7.41,6.77-3.15,1.66-6.75,2.49-10.79,2.49Zm0-8.85c1.88,0,3.54-.4,4.97-1.21,1.43-.81,2.59-1.99,3.46-3.56.87-1.57,1.3-3.41,1.3-5.53s-.44-4.01-1.3-5.53c-.87-1.52-2.02-2.68-3.46-3.49-1.43-.81-3.07-1.21-4.9-1.21s-3.48.4-4.94,1.21c-1.46.81-2.62,1.97-3.49,3.49-.87,1.52-1.3,3.36-1.3,5.53s.43,3.96,1.3,5.53c.87,1.57,2.03,2.75,3.49,3.56,1.46.81,3.08,1.21,4.87,1.21Z"/>
    <path class="cls-3" d="m418.09,158.75c-1.08.79-2.41,1.37-3.98,1.76-1.58.39-3.21.59-4.9.59-4.47,0-7.95-1.12-10.44-3.35-2.49-2.24-3.74-5.57-3.74-9.99v-15.28h-5.85v-8.3h5.85v-3.52c0-3.06,2.48-5.54,5.54-5.54,1.53,0,2.91.62,3.91,1.62,1,1,1.62,2.39,1.62,3.91v3.52h9.38v8.3h-9.38v15.07c0,1.57.41,2.79,1.23,3.66s1.94,1.31,3.35,1.31c1.79,0,3.29-.46,4.52-1.38l2.89,7.6Z"/>
    <path class="cls-3" d="m444.94,151.57c-1.51.6-3.27.9-5.29.9-2.26,0-4.23-.42-5.93-1.24-1.69-.83-2.99-2.07-3.88-3.73-.1-.18-.19-.36-.27-.55l28.06-5.32c-.05-3.96-.95-7.34-2.72-10.13-1.76-2.79-4.13-4.93-7.09-6.43-2.96-1.5-6.23-2.25-9.8-2.25-3.9,0-7.38.82-10.44,2.46-3.06,1.64-5.45,3.9-7.19,6.81-1.74,2.9-2.61,6.2-2.61,9.89s.89,6.97,2.68,9.85c1.79,2.88,4.3,5.15,7.55,6.81,3.24,1.66,7,2.49,11.28,2.49,3.43,0,6.48-.52,9.13-1.56,2.66-1.04,4.85-2.52,6.59-4.46l-5.85-6.22c-1.32,1.2-2.73,2.1-4.23,2.7Zm-15.27-15.83c.78-1.57,1.89-2.75,3.35-3.56,1.46-.81,3.13-1.21,5.01-1.21s3.51.4,4.9,1.21c1.39.81,2.48,1.9,3.28,3.28.34.59.61,1.21.8,1.88l-18.49,3.48c.06-1.95.44-3.64,1.15-5.09Z"/>
    <path class="cls-3" d="m386.8,123.17v9.93c-.42-.09-.83-.16-1.23-.21-.4-.04-.79-.07-1.16-.07-3.1,0-5.57.85-7.41,2.53-1.83,1.69-2.75,4.29-2.75,7.81v18.07h-11v-32.79c0-2.9,2.35-5.25,5.25-5.25,1.45,0,2.76.59,3.71,1.54.95.95,1.54,2.27,1.54,3.72v.1c1.04-1.38,2.35-2.5,3.95-3.36,2.49-1.35,5.52-2.02,9.1-2.02Z"/>
  </g>
  <path class="cls-2" d="m357.74,180.78c-.79,0-1.34.13-1.63.39-.3.26-.44.58-.44.97,0,.43.17.78.51,1.03.34.25.8.38,1.37.38s1.09-.13,1.55-.39c.45-.26.77-.66.96-1.19v-1.19h-2.31Zm0,0c-.79,0-1.34.13-1.63.39-.3.26-.44.58-.44.97,0,.43.17.78.51,1.03.34.25.8.38,1.37.38s1.09-.13,1.55-.39c.45-.26.77-.66.96-1.19v-1.19h-2.31Zm16.51-14.35h-84.15v22.36h84.15c3.09,0,5.88-1.25,7.9-3.27,2.02-2.02,3.27-4.82,3.27-7.91,0-6.18-5-11.18-11.18-11.18Zm-68.35,19.22h-11.72v-15.13h11.44v2.81h-7.95v3.26h7.03v2.74h-7.03v3.5h8.24v2.81Zm57.53,0h-3.16v-1.45c-.25.42-.6.76-1.04,1.02-.65.4-1.49.6-2.51.6-.89,0-1.66-.16-2.31-.47-.65-.31-1.15-.73-1.5-1.26-.35-.53-.53-1.13-.53-1.79s.17-1.28.51-1.81c.34-.53.88-.93,1.61-1.22.73-.29,1.7-.43,2.9-.43h2.66v-.02c0-.72-.22-1.28-.66-1.69-.44-.4-1.11-.6-2.02-.6-.62,0-1.23.1-1.83.29-.6.2-1.11.46-1.55.79l-1.19-2.36c.63-.46,1.4-.81,2.29-1.05.89-.24,1.8-.36,2.72-.36,1.77,0,3.15.42,4.13,1.25.98.83,1.47,2.14,1.47,3.91v6.64Zm10.27-8.67c-.13-.03-.25-.05-.38-.06-.12-.01-.24-.02-.36-.02-.95,0-1.71.27-2.27.8-.56.53-.84,1.36-.84,2.46v5.49h-3.37v-11.63h3.22v1.52c.32-.43.72-.79,1.21-1.06.76-.43,1.69-.64,2.79-.64v3.13Zm-17.59,4.19c-.3.26-.44.58-.44.97,0,.43.17.78.51,1.03.34.25.8.38,1.37.38s1.09-.13,1.55-.39c.45-.26.77-.66.96-1.19v-1.19h-2.31c-.79,0-1.34.13-1.63.39Z"/>
  <g>
    <polygon class="cls-3" points="305.9 182.83 305.9 185.64 294.18 185.64 294.18 170.51 305.62 170.51 305.62 173.32 297.67 173.32 297.67 176.59 304.69 176.59 304.69 179.33 297.67 179.33 297.67 182.83 305.9 182.83"/>
    <path class="cls-3" d="m312.28,185.82c-.99,0-1.95-.12-2.85-.36-.91-.24-1.64-.54-2.18-.9l1.1-2.4c.55.32,1.19.58,1.91.79.73.21,1.44.31,2.15.31.78,0,1.33-.09,1.65-.28.32-.19.49-.45.49-.78,0-.27-.13-.48-.38-.62-.25-.14-.58-.24-.99-.31-.41-.07-.87-.14-1.37-.22-.5-.07-1.01-.17-1.5-.3-.5-.13-.96-.31-1.38-.55-.43-.24-.76-.57-1.02-.98-.25-.42-.38-.96-.38-1.62,0-.74.22-1.39.65-1.96.43-.57,1.04-1.01,1.84-1.33.79-.32,1.75-.48,2.88-.48.81,0,1.62.09,2.43.27.81.18,1.5.43,2.06.75l-1.15,2.4c-.55-.32-1.11-.54-1.68-.67-.57-.13-1.11-.19-1.63-.19-.78,0-1.34.1-1.69.3-.35.2-.52.46-.52.78,0,.29.13.51.39.66.26.15.6.26,1.02.34.42.07.88.14,1.38.22.5.07,1,.17,1.49.3.49.13.95.31,1.37.55.42.24.76.57,1.02.98.25.42.38.96.38,1.62,0,.71-.22,1.34-.65,1.89-.43.56-1.06.99-1.87,1.31-.81.32-1.81.48-2.97.48Z"/>
    <path class="cls-3" d="m325.47,185.82c-1.25,0-2.37-.26-3.34-.77-.97-.51-1.74-1.22-2.29-2.13-.55-.91-.83-1.94-.83-3.09s.28-2.2.83-3.09c.55-.89,1.32-1.6,2.29-2.12.97-.52,2.09-.78,3.34-.78s2.29.26,3.21.77c.92.51,1.57,1.24,1.98,2.17l-2.59,1.43c-.32-.55-.7-.95-1.15-1.2-.45-.25-.94-.38-1.47-.38-.56,0-1.07.13-1.53.38-.46.25-.83.62-1.1,1.09-.27.48-.41,1.05-.41,1.73s.14,1.26.41,1.74c.27.48.64.85,1.1,1.1.46.25.97.38,1.53.38.53,0,1.02-.13,1.47-.38.45-.25.83-.66,1.15-1.22l2.59,1.43c-.4.92-1.06,1.64-1.98,2.16-.92.52-1.99.78-3.21.78Z"/>
    <path class="cls-3" d="m337.98,185.82c-1.23,0-2.32-.26-3.28-.78-.96-.52-1.71-1.23-2.26-2.13-.55-.9-.82-1.93-.82-3.08s.27-2.2.82-3.1c.55-.9,1.3-1.61,2.26-2.12.96-.51,2.05-.77,3.28-.77s2.34.26,3.31.77c.97.51,1.72,1.22,2.27,2.12.55.9.82,1.93.82,3.1s-.27,2.2-.82,3.09c-.55.89-1.3,1.6-2.27,2.12-.97.52-2.07.78-3.31.78Zm0-2.77c.58,0,1.08-.13,1.52-.38.44-.25.79-.62,1.06-1.11.27-.49.4-1.07.4-1.73s-.13-1.25-.4-1.73c-.27-.48-.62-.84-1.06-1.09-.44-.25-.94-.38-1.5-.38s-1.07.13-1.51.38c-.45.25-.8.62-1.07,1.09-.27.48-.4,1.05-.4,1.73s.13,1.24.4,1.73c.27.49.62.86,1.07,1.11.45.25.94.38,1.49.38Z"/>
    <path class="cls-3" d="m346.63,185.64v-16.04h3.37v16.04h-3.37Z"/>
    <path class="cls-3" d="m361.96,175.09c-.98-.84-2.36-1.25-4.13-1.25-.92,0-1.83.12-2.72.36-.89.24-1.66.59-2.29,1.05l1.19,2.36c.43-.33.95-.59,1.55-.79.6-.19,1.21-.29,1.83-.29.91,0,1.58.2,2.02.6.44.4.66.97.66,1.69v.02h-2.66c-1.2,0-2.16.14-2.9.43-.74.29-1.27.7-1.61,1.22-.34.53-.51,1.13-.51,1.81s.18,1.26.53,1.79c.35.53.85.95,1.5,1.26.65.31,1.42.47,2.31.47,1.02,0,1.86-.2,2.51-.6.44-.27.78-.61,1.04-1.02v1.45h3.16v-6.64c0-1.77-.49-3.08-1.47-3.91Zm-2.86,8.06c-.46.26-.97.39-1.55.39s-1.03-.13-1.37-.38c-.34-.25-.51-.59-.51-1.03,0-.39.15-.71.44-.97.3-.26.84-.39,1.63-.39h2.31v1.19c-.19.53-.51.93-.96,1.19Z"/>
    <path class="cls-3" d="m373.7,173.84v3.13c-.13-.03-.25-.05-.38-.06-.12-.01-.24-.02-.36-.02-.95,0-1.71.27-2.27.8-.56.53-.84,1.36-.84,2.46v5.49h-3.37v-11.63h3.22v1.52c.32-.43.72-.79,1.21-1.06.76-.43,1.69-.64,2.79-.64Z"/>
  </g>
</svg>