<?xml version="1.0" encoding="UTF-8"?>
<svg id="Camada_6" xmlns="http://www.w3.org/2000/svg" version="1.1" viewBox="0 0 566.9 566.9">
  <!-- Generator: Adobe Illustrator 29.6.1, SVG Export Plug-In . SVG Version: 2.1.1 Build 9)  -->
  <defs>
    <style>
      .st0, .st1 {
        isolation: isolate;
        opacity: .5;
      }

      .st0, .st1, .st2, .st3, .st4 {
        stroke: #c18816;
        stroke-linecap: round;
        stroke-linejoin: round;
        stroke-width: 2px;
      }

      .st0, .st3 {
        fill: none;
      }

      .st4 {
        fill: #fff;
      }
    </style>
  </defs>
  <g>
    <path class="st2" d="M189.1,355.5c-.1.1-.2.3-.3.5v-.3c0-.1.3-.2.3-.2Z"/>
    <g>
      <g>
        <path class="st3" d="M84.3,312.6c-30.2-14.5-50.2-46.6-48.7-82.1,4.1,5,10.3,8.6,17.5,9.5-.5,27.4,11.4,54.5,31.2,72.6h0Z"/>
        <path class="st3" d="M254.5,240.8c3.9-.4,7.5-1.6,10.6-3.4-.9,30.8-18,57.6-43,72.2,17.7-17.6,27.9-43.1,28-68.6,1,0,3.3,0,4.4-.2h0Z"/>
        <path class="st3" d="M265.1,168.6v30.5c-1.7-.9-3.6-1.6-5.5-2.1h-.1c0,1.5-.3,17.1-.4,19-.1,3.2-2.4,5.9-5.5,6.4-3.8.8-7.5-2.2-7.6-6.2l-.8-19.9c.9-24.5-32.4-50.5-52.8-60.2,4.1,7.9-3.8,18.6-13.3,15.4l-55.8-17.3c-26.2-3.6-44.9,10.4-59,28.1-.5,10.5-1.5,38.6-2,48.7-.2,8.4-13.3,8.2-13.3-.1,0-2.3-.2-12.1-.2-14.6-5.2,1.2-9.6,4-13,7.9v-35.8c1.3-144.7,227.8-144.7,229.3.2h0Z"/>
      </g>
      <path class="st3" d="M277.4,216.7c-.5-9.6-8.7-17.4-17.8-19.6-1.1,6.6,3.8,29.7-9.7,25-6.8-1.8-3.9-20.9-5-25.7h.2c1-24.5-32.4-50.5-52.8-60.2,4.1,8.3-3.8,18.4-13.3,15.4l-55.8-17.3c-26.2-3.6-44.9,10.4-59,28.1-.5,10.5-1.5,38.6-2,48.7-.2,8.4-13.3,8.2-13.3-.1,0-3-.4-11.4-.4-14.6-26.4,6.7-21.2,40.9,4.7,43.7-.9,37.8,22.2,73.6,56.1,89.5v30.7h79.6v-28.5c36.5-14.4,61.4-51.2,61.1-90.8,13.8.8,28.4-10.1,27.4-24.3h0ZM115.9,218.8c0,6-9.3,6-9.2,0v-14.8c0-4,5.2-6.1,7.9-3.3,2.5,1.7.9,15.5,1.3,18.1h0ZM178.8,271.6c-.1,25.6-60.1,25.1-55.8-3.4h56c0,1.1-.1,2.2-.2,3.4ZM196.4,219.1c.1,6-9.3,6-9.2,0v-14.8c-.1-4,5.2-6.1,7.9-3.3,2.5,1.7.8,15.6,1.3,18.1h0Z"/>
      <g>
        <path class="st3" d="M203.2,397.1h0c0,.1,0-1.4,0-1.4v1.4ZM203.4,383h0q-.1-.1-.2-.1v12.8-.8l.2-11.9h0ZM292.9,494.5c-.4-7.5-1.4-15-3.2-22.4h0c-3.7-15.6-10.6-30.5-20-43.4h-48.4c4.3,7.5,11.6,20.4,15.8,27.8-9.6,20.4-26.2,55.8-35.8,76,29.3-2.7,81,12.3,90.3-27.6,1-3.4,1.4-6.9,1.3-10.4h0ZM212.7,385.9c-2.8-1-5.6-1.9-8.5-2.7h0c-.2-.1-.5-.1-.7-.2.5.4,9.5,6.6,9.7,6.7.5-1.2,1.4-2.1,2.5-2.8-1-.2-2-.6-3-1h0Z"/>
        <g>
          <path class="st3" d="M94.8,397.3c7.1-3.9,21.6-11.7,28.7-15.6,3.7,5.4,7.9,11.4,12.2,17.5l-7.7,133.3h-33.6l.4-131.8v-3.2"/>
          <path class="st3" d="M203.2,397.3c-.1,4.1-1.8,131.5-1.9,135.2h-33.5l-6.4-132.9,13.3-16.3.8-1c6.8,3.6,20.9,11.3,27.7,15h0Z"/>
        </g>
        <path class="st3" d="M174.9,383.3l-13.3,16.3,6.4,132.9h-39.9l7.8-133.2c-4.3-6.1-8.4-12.1-12.2-17.5,5.7-3.1,19.7-10.7,25.5-13.8,2.2,1.2,17.8,9.6,20.4,11l6.2,3.4-.9.9h0Z"/>
        <path class="st3" d="M94,532.4c-28.6-1.8-77.7,10.6-84.4-30h0c-1.8-23.7,6.1-47.7,18.6-67.6h0c15.4-24,38.9-42.2,66.7-50.7l-32.1,23.2,10.4,18.5-13.9,29.8,34.7,76.8Z"/>
        <path class="st2" d="M203.2,383h.2-.2Z"/>
        <path class="st2" d="M203.4,383h0Z"/>
        <path class="st3" d="M405.3,386.3c-3.6.8-186.5-1.5-189.7.8-5.8,1.2-1.8,37.7-2.9,41.6h198.4v-32.7h0c.5-4.1-.5-9.8-5.8-9.7h0ZM350.4,418.1c-1.3-.5-9.8,1.3-9.6-1.4-.2-1.2,4.8-5.6,5.4-6.5,4.1-4.3-.5-6.5-4-3.5-4.6-.8,1.5-4.6,3.9-4.1,9.5.8,3.7,9.3-.7,12.8h5.1c2.1-.2,2,2.9,0,2.7h0ZM363.5,418.1c-1.3-.5-9.8,1.3-9.6-1.4.5-2.2,4.1-4.7,5.4-6.5,4.1-4.3-.4-6.5-4-3.5-4.6-.8,1.3-4.6,3.9-4.1,9.5.8,3.7,9.3-.7,12.8h5c2.2-.2,2.1,2.9,0,2.7h0ZM373.2,403.2l-5,15.7c-.4,1.6-3,.9-2.4-.8l5-15.7c.4-1.6,3-.8,2.4.8ZM383.9,416.3c-7.4,7.4-13-6-8.5-11.7,7.3-7.5,13,6,8.5,11.7ZM397.8,414.2h0c-.6,5.1-11.9,5.6-10.6.4,2.6-1.5,6.8,5.3,7.8-3.7-3.6,5-10.6-1.1-7.5-5.9,6.1-7.3,13.5,2.1,10.3,9.2h0Z"/>
        <path class="st3" d="M215.6,387.1c-1.1.6-1.9,1.6-2.4,2.7-.2-.1-9.2-6.4-9.7-6.7,4.1,1.1,8.2,2.4,12.1,4h0Z"/>
        <path class="st3" d="M292.7,499.6c0,.4-.1.8-.1,1.1-6.9,44.9-60,29.1-91.2,31.8,9.5-20.3,26.2-55.7,35.8-76.1-4.2-7.3-11.6-20.3-15.8-27.8h48.3c9.5,13,16.4,27.8,20.1,43.5h0c1.9,9,3.5,18.3,2.9,27.5h0Z"/>
        <path class="st2" d="M94.8,384.1h0Z"/>
        <path class="st2" d="M94.8,384.1h0Z"/>
        <path class="st2" d="M94.8,384.1h0s0,0,0,0h0Z"/>
        <path class="st3" d="M237.1,456.4c-9.6,20.4-26.2,55.8-35.8,76h0l1.8-132.8v-2.4h0c0-1.4.2-12.6.2-14.2h0c.2.1.7.2.8.3-.2-.1-.4-.1-.7-.2.5.4,9.5,6.6,9.7,6.7-.3.7-.5,1.5-.5,2.3v36.5h8.6c4.4,7.5,11.7,20.4,15.9,27.8Z"/>
        <path class="st1" d="M203.2,397.3v-1.6,1.6Z"/>
        <path class="st3" d="M203.2,360.3v36.8c-9.7-5.2-24.2-13.1-33.8-18.3-2.6-1.4-18.1-9.8-20.4-11-16.9,9.1-37.3,20.2-54.2,29.4v-36.9h108.4Z"/>
        <polygon class="st2" points="203.2 395.7 203.2 397.3 203.2 397.3 203.2 395.7"/>
      </g>
      <path class="st3" d="M129.2,184.8c-13.4-8.1-30.5-2.3-30.8-1.2-3.5,1.9-6.5-3.6-2.9-5.5.7-.4,17.8-9.3,35.3.9,2.7,1.5,1.4,5.9-1.6,5.8Z"/>
      <path class="st3" d="M208.9,184.8c-13.4-8.1-30.5-2.3-30.8-1.2-3.5,1.9-6.5-3.6-2.9-5.5.7-.4,17.8-9.3,35.3.9,2.7,1.5,1.5,5.9-1.6,5.8Z"/>
    </g>
    <g>
      <path class="st3" d="M380.9,198.8c-.1,17.9-27.3,17.9-27.4,0,.1-17.9,27.3-17.9,27.4,0Z"/>
      <path class="st3" d="M496.8,198.8c-.1,17.9-27.3,17.9-27.4,0,0-17.9,27.3-17.9,27.4,0Z"/>
      <path class="st3" d="M388.2,275.3h0v-.5c-.1.1,0,.3,0,.5Z"/>
      <path class="st3" d="M389.6,151.9v12.3c.1,5.3-8.7,5.3-8.6,0v-12.3c-.1-5.3,8.7-5.3,8.6,0Z"/>
      <path class="st3" d="M469.4,151.9v12.3c.1,5.3-8.7,5.3-8.6,0v-12.3c0-5.3,8.6-5.3,8.6,0Z"/>
      <path class="st3" d="M537,123.5v22.6c-1.8-1-3.9-1.7-6-2h0c-1.2-.2-2.5-.3-3.8-.4,0,5.2.3,35.1-3,26.1-18.3-85.8-121.3-30-169.2-80.1-7.9,17.5-22.6,51.9-29.1,75.3-4.7,14.6-7.8-2.7-7.8-18.9-2,1-3.8,2.5-5.3,4.2-18.7-167.2,212.2-191.6,224.2-26.8h0Z"/>
      <path class="st3" d="M388.1,275.3v35.1c-30.3,8.6-59.3,24.2-75.3,52.6v-187.3c3.1,3.7,7.5,6.3,12.3,7-.2,40.6,25.9,77.9,63,92.6h0Z"/>
      <path class="st3" d="M335.1,336.7c-8.8,7.7-16.3,16.7-22.2,26.8v-.6c5.9-10,13.4-18.8,22.2-26.2Z"/>
      <path class="st3" d="M371.7,315.9c-13.5,4.8-25.9,11.7-36.5,20.7,10.6-9.1,22.9-16.2,36.5-20.7Z"/>
      <path class="st3" d="M384.7,312.5c-4.4.8-8.7,1.9-12.8,3.3,4.5-1.6,9.1-3,13.7-4-.3.2-.6.5-.9.7Z"/>
      <path class="st3" d="M537,180.2v174.6c-15.9-22-39.9-37.3-67.1-42.9-.8-.8-1.8-1.5-2.8-2.1v-35.7c35.8-15.6,60.3-51.9,60.2-91.1,3.5-.2,6.8-1.1,9.7-2.8h0Z"/>
      <path class="st3" d="M467.1,274v.7-.7q0,.1,0,0Z"/>
      <path class="st3" d="M537,354.7v.5c-15.6-21.8-39.1-37.4-66.4-42.7-.2-.3-.5-.5-.8-.8,27.3,5.7,51.3,21,67.2,43h0Z"/>
      <path class="st3" d="M371.7,315.9c-13.5,4.8-25.9,11.7-36.5,20.7,10.6-9.1,22.9-16.2,36.5-20.7Z"/>
      <path class="st3" d="M354.4,365.1c3.9-7.4-4.6-18.8-7.2-25.3l35.5-24.9c-4.2,6-.9,12.8,0,19.6,3.1,16.6,6.6,34.9,9.8,51.8h-46.6l8.5-21.2h0Z"/>
      <path class="st3" d="M420.3,531.8c-18.4-34-37.5-69.2-55.9-103.1h36.2c6.2,32.4,12.5,65.6,18.7,97.9h0c.3,1.7.7,3.5,1,5.2Z"/>
      <path class="st3" d="M504.2,387.9l1.9,3.9c-16.3,34.1-50.3,105.5-66.7,140l24.5-143.9c-.1-7.5,15.1-67.4,8.6-73l34.7,24.7c-22.5,23.8-14.9,21.8-3,48.3h0Z"/>
      <path class="st3" d="M314.2,524.3c-7.7-5.6-13.2-14-15.1-23.4-1.5-1.9-.5-68-.8-72.3h0c0,19-.1,41-.1,60.6-2,21.6,14.9,41.9,37,42.5-7.9-.3-15.1-3-21-7.4h0ZM312.8,362.9c-4.2,7.1-7.6,15-10.1,23.4h.2c5.8-19.2,17.1-36.5,32.2-49.6-8.8,7.4-16.3,16.2-22.3,26.2ZM371.9,315.9c4.2-1.4,8.5-2.5,12.8-3.3.3-.3.6-.5.9-.7-4.7,1-9.3,2.4-13.7,4ZM537,354.7c-15.9-22-39.9-37.3-67.1-42.9.3.2.5.5.8.8,44.2,8.5,78.3,44.4,85,88.5-2.6-17.5-9.2-33.2-18.7-46.4h0ZM556.9,420.7c-3.4,34.3,16.5,110.3-38.8,111.1,21.3.3,38.8-16.9,38.8-38.2,0-28.6,0-64.3,0-72.9h0Z"/>
      <path class="st3" d="M556.9,418.8c3.1,124.4,1.5,113.8-117.5,113,16.5-34.6,50.4-105.7,66.7-140-1-2-11.1-22.6-12.4-25.3-5.8-9.6,8.6-20.2,13.4-26.9-1.3-1.3-37.2-25.4-36.5-27.1,50.3,9.4,87.4,55.5,86.3,106.3h0Z"/>
      <path class="st3" d="M382.6,314.9l-35.5,24.9c13.5,24.6,7.4,22.4-1.3,46.6h-42.9c11-37.4,43.5-66.3,81.8-73.7-.8.5-1.5,1.3-2.1,2.2h0Z"/>
      <path class="st3" d="M420.3,531.8c-1.7,0-83.6,0-85.2,0-17.5-.8-32.6-13.8-36-30.8-1.5-2-.6-68-.8-72.3h66c18.5,33.9,37.6,69.2,56,103.1h0Z"/>
      <path class="st3" d="M388.2,275.3h0v-.5c-.1.1,0,.3,0,.5Z"/>
      <path class="st3" d="M467.1,274v.7-.7q0,.1,0,0Z"/>
      <g>
        <path class="st3" d="M541.1,149.1c-2.8-2.7-6.3-4.4-10.1-5h0c-1.2-.2-2.5-.3-3.8-.4,0,5.2.3,35.1-3,26.1-18.3-85.8-121.3-30-169.2-80.1-7.9,17.5-22.6,51.9-29.1,75.3-4.7,14.6-7.8-2.7-7.8-18.9-16.6,8.2-10.9,34.5,7,36.6-.3,40.6,25.9,77.9,63,92.6v-.5.5h0v35.1c19.6-6.4,14.4,21.2,36.9,20.6,17-.5,16.3-10.8,25.6-20.4h0c4.5-3.5,11.6-3.8,16.4-.9,0-.8.1-34.9,0-35.7,35.8-15.6,60.3-51.9,60.3-91.1,16.7.3,26.7-22.4,13.8-33.8h0ZM389.6,164.2c.1,5.3-8.7,5.3-8.6,0v-12.3c-.1-5.3,8.7-5.3,8.6,0v12.3ZM469.4,164.2c.1,5.3-8.7,5.3-8.6,0v-12.3c-.1-5.3,8.7-5.3,8.6,0v12.3Z"/>
        <path class="st3" d="M388.2,275.3h0v-.5c-.1.1,0,.3,0,.5Z"/>
        <path class="st3" d="M389.6,151.9v12.3c.1,5.3-8.7,5.3-8.6,0v-12.3c-.1-5.3,8.7-5.3,8.6,0Z"/>
        <path class="st3" d="M469.4,151.9v12.3c.1,5.3-8.7,5.3-8.6,0v-12.3c0-5.3,8.6-5.3,8.6,0Z"/>
      </g>
      <path class="st3" d="M402.6,141.7c-13.4-8.1-30.5-2.3-30.8-1.2-3.5,1.9-6.5-3.6-2.9-5.5.7-.4,17.8-9.3,35.3.9,2.7,1.5,1.5,5.9-1.6,5.8Z"/>
      <path class="st3" d="M472.5,315c-4.2-7.4-15-9.6-21.8-4.4h0c-2.3,1.6-4.1,3.9-5.2,6.6-7.1,17.6-31.6,18.5-40.1,1.6-1.6-3.7-4.2-7.4-8.1-8.7-17-3.9-18.7,11.6-14.6,24.4,3.1,16.5,6.6,34.9,9.8,51.8,8.4.7,20.4-3.8,18.7,9.8h0v32.6h-10.6c6.2,32.4,12.5,65.6,18.7,97.9h0c.3,1.8.7,3.6,1,5.3h19.1l24.5-143.9c-.1-7.5,15.1-67.5,8.6-73h0ZM461.2,327.3c-5.8,2.4-9.4-6.7-3.6-9s9.4,6.8,3.6,9Z"/>
      <path class="st3" d="M389.6,151.9v12.3c.1,5.3-8.7,5.3-8.6,0v-12.3c-.1-5.3,8.7-5.3,8.6,0Z"/>
      <path class="st3" d="M482.4,141.7c-13.4-8.1-30.5-2.3-30.8-1.2-3.5,1.9-6.5-3.6-2.9-5.5.7-.4,17.8-9.3,35.3.9,2.7,1.5,1.4,5.9-1.6,5.8h0Z"/>
      <path class="st3" d="M469.4,151.9v12.3c.1,5.3-8.7,5.3-8.6,0v-12.3c0-5.3,8.6-5.3,8.6,0Z"/>
      <path class="st3" d="M452.1,217.1c-3.2,5.2-14.4,12.1-29.3,11.8-16.5,0-24.8-7.9-28.4-12.7"/>
      <path class="st3" d="M360,32.2c-12.5,8.9-23.1,20.3-31.1,33.5,8.1-15.2,19.3-25.9,31.1-33.5Z"/>
      <path class="st3" d="M461.2,327.3c-5.8,2.4-9.4-6.7-3.6-9s9.4,6.8,3.6,9Z"/>
    </g>
    <g>
      <path class="st0" d="M352,416.7c.4,2.6-8.5.9-9.7,1.4-5.4-1.7,6.4-8.1,5.5-11.1-.3-3.5-4.3-1-6.1-.3-6.5-5.5,21.2-7.5,3.6,8.7,1.3.3,6.9-1,6.7,1.3h0Z"/>
      <path class="st0" d="M354,406.3c-1.8-6.6,20.5-5,4.4,9.1h5c2.2-.2,2.1,2.9,0,2.7h-8.1c-1.6.1-1.9-1.9-.9-2.9,1-1.1,3.7-4,4.8-5.1,3.8-3.7.2-6.6-3.5-3.9-.5.6-1.2.8-1.7,0h0Z"/>
      <path class="st0" d="M366.1,419.4c-1.5-.2,4.8-16.3,4.6-17,.5-1.6,3-.9,2.5.8l-5,15.7c-.3.9-1.5,1.1-2.1.5h0Z"/>
      <path class="st0" d="M383.9,404.6c-7.4-7.5-13,6-8.5,11.7,7.4,7.4,13-6,8.5-11.7ZM381.4,414.5c-5.8,6.6-5.8-14.6,0-8.1.8,1.4.8,6.6,0,8.1Z"/>
      <path class="st0" d="M396.8,404.5c-2.9-3.7-10.2-2-9.9,3.2-.4,4.4,5.7,6.9,8.1,3.2-1.1,9-5.2,2.2-7.8,3.7-1.3,5.1,10,4.7,10.6-.4,1-2.8.8-7.7-1-9.7h0ZM394,409.4c-2.3,2.3-5.3-1.4-3.3-3.5,2.3-2.3,5.3,1.4,3.3,3.5Z"/>
      <path class="st3" d="M352,416.7c.4,2.6-8.5.9-9.7,1.4-5.4-1.7,6.4-8.1,5.5-11.1-.3-3.5-4.3-1-6.1-.3-6.5-5.5,21.2-7.5,3.6,8.7,1.3.3,6.9-1,6.7,1.3h0Z"/>
      <path class="st3" d="M354,406.3c-1.8-6.6,20.5-5,4.4,9.1h5c2.2-.2,2.1,2.9,0,2.7h-8.1c-1.6.1-1.9-1.9-.9-2.9,1-1.1,3.7-4,4.8-5.1,3.8-3.7.2-6.6-3.5-3.9-.5.6-1.2.8-1.7,0h0Z"/>
      <path class="st3" d="M366.1,419.4c-1.5-.2,4.8-16.3,4.6-17,.5-1.6,3-.9,2.5.8l-5,15.7c-.3.9-1.5,1.1-2.1.5h0Z"/>
      <path class="st3" d="M383.9,404.6c-7.4-7.5-13,6-8.5,11.7,7.4,7.4,13-6,8.5-11.7ZM381.4,414.5c-5.8,6.6-5.8-14.6,0-8.1.8,1.4.8,6.6,0,8.1Z"/>
      <path class="st3" d="M396.8,404.5c-2.9-3.7-10.2-2-9.9,3.2-.4,4.4,5.7,6.9,8.1,3.2-1.1,9-5.2,2.2-7.8,3.7-1.3,5.1,10,4.7,10.6-.4,1-2.8.8-7.7-1-9.7h0ZM394,409.4c-2.3,2.3-5.3-1.4-3.3-3.5,2.3-2.3,5.3,1.4,3.3,3.5Z"/>
      <path class="st4" d="M411.1,428.7v63.4c-20.9-25.6-66.5-12.9-69.6,20.6h0c-1.2,10.1,2,20.9,8.5,28.6h-131.5c-3.2,0-5.8-2.6-5.8-5.8v-106.8h198.4Z"/>
      <path class="st3" d="M411.1,502.4v29.2c-1.8,3.6-4.4,6.9-7.4,9.6h-45.7c-37-37.8,27.4-83.5,53.1-38.8h0Z"/>
      <path class="st3" d="M352,416.7c.4,2.6-8.5.9-9.7,1.4-5.4-1.7,6.4-8.1,5.5-11.1-.3-3.5-4.3-1-6.1-.3-6.5-5.5,21.2-7.5,3.6,8.7,1.3.3,6.9-1,6.7,1.3h0Z"/>
      <path class="st3" d="M365.1,416.7c0,.9-.5,1.4-1.6,1.4-.8-.2-8.8.4-9.2-.4-1.9-1.9,4-5.9,5-7.5,4.3-5-.7-6-4.5-3.5-6.5-5.5,21.2-7.5,3.6,8.7,1.3.3,6.9-1,6.7,1.3h0Z"/>
      <path class="st3" d="M372.9,401.8c1.5.2-4.8,16.3-4.7,17-.2.9-1.4,1.2-2.1.6-1.5-.2,4.8-16.3,4.6-17,.3-.9,1.5-1.2,2.2-.6h0Z"/>
      <path class="st3" d="M383.9,404.6c-7.4-7.5-13,6-8.5,11.7,7.4,7.4,13-6,8.5-11.7ZM381.4,414.5c-5.8,6.6-5.8-14.6,0-8.1.8,1.4.8,6.6,0,8.1Z"/>
      <path class="st3" d="M396.8,404.5c-2.9-3.7-10.2-2-9.9,3.2-.4,4.4,5.7,6.9,8.1,3.2-1.1,9-5.2,2.2-7.8,3.7-1.3,5.1,10,4.7,10.6-.4,1-2.8.8-7.7-1-9.7h0ZM394,409.4c-2.3,2.3-5.3-1.4-3.3-3.5,2.3-2.3,5.3,1.4,3.3,3.5Z"/>
      <path class="st3" d="M411.2,396v32.6h0v-32.6c-.1,0,0,0,0,0Z"/>
      <g>
        <line class="st3" x1="227.5" y1="443.6" x2="398.3" y2="443.6"/>
        <line class="st3" x1="227.5" y1="455.3" x2="398.3" y2="455.3"/>
        <line class="st3" x1="227.5" y1="467" x2="398.3" y2="467"/>
        <line class="st3" x1="227.5" y1="477.5" x2="398.3" y2="477.5"/>
        <path class="st3" d="M398.3,489.2h-35.6"/>
        <path class="st3" d="M353.3,489.2h-125.8"/>
        <path class="st3" d="M398.3,500.9h-46.9"/>
        <path class="st3" d="M344.8,500.9h-117.3"/>
        <path class="st3" d="M398.3,512.6h-50.9"/>
        <path class="st3" d="M341.5,512.6h-114"/>
        <path class="st3" d="M398.3,524.3h-50.3"/>
        <path class="st3" d="M342,524.3h-114.5"/>
        <path class="st3" d="M292.4,435.8c-.2,31.8-.4,64.9-.6,96.7"/>
        <path class="st3" d="M302.9,436c-.2,31.8-.4,64.9-.6,96.7"/>
        <path class="st3" d="M375.5,436c-.1,13.4-.2,29.3-.2,42.7"/>
        <path class="st3" d="M375.2,484.5c-.1,15.3-.2,32.9-.3,48.2"/>
        <path class="st3" d="M386,435.8c-.1,13.4-.2,29.4-.3,42.8"/>
        <path class="st3" d="M385.7,484.4c-.1,15.5-.2,32.7-.3,48.1"/>
      </g>
      <g>
        <path class="st0" d="M348,524.3c-8.9-47.7,64.6-55.5,66.7-7.3-.4,39-57.8,45-66.7,7.3Z"/>
        <path class="st4" d="M420.5,516.4c-1.8-48.1-72.6-51.1-79-3.7h0c-4.3,54.3,78,57.9,79,3.7ZM414.6,518.5c-2.5,42.4-66.8,41-67.5-1.4,1.3-44.5,68.1-43.1,67.5,1.4Z"/>
        <path class="st3" d="M414.6,517c-1.2,43.5-66.3,43.5-67.5,0,.8-43.3,66.7-43.3,67.5,0Z"/>
        <path class="st4" d="M414.6,517c-1.2,43.5-66.3,43.5-67.5,0,.8-43.3,66.7-43.3,67.5,0Z"/>
        <g>
          <path class="st3" d="M347.8,518.5h5.9"/>
          <path class="st3" d="M408.7,518.5h5.9"/>
        </g>
        <g>
          <path class="st3" d="M361.2,543.5c1.1-1.3,3.6-4.5,3.7-4.5"/>
          <path class="st3" d="M399.8,496.5c1.1-1.3,3.6-4.5,3.7-4.5"/>
        </g>
        <g>
          <path class="st3" d="M402.5,543c-1.1-1.3-3.8-4.4-3.8-4.4"/>
          <path class="st3" d="M363,496.9c-1.1-1.3-3.8-4.4-3.8-4.4"/>
        </g>
        <polygon class="st3" points="381.6 492.6 378.7 497.7 384.5 497.7 381.6 492.6"/>
        <polygon class="st3" points="367.8 535.8 373.4 533.8 369 530 367.8 535.8"/>
        <line class="st3" x1="379" y1="520.9" x2="371" y2="531.7"/>
        <line class="st3" x1="381.7" y1="497.7" x2="381.6" y2="513.1"/>
        <line class="st3" x1="381" y1="544.4" x2="381" y2="549.1"/>
        <line class="st3" x1="381.7" y1="484.8" x2="381.7" y2="489.5"/>
        <path class="st3" d="M385.7,517.3c.1,5.6-8.7,5.6-8.6,0-.1-5.6,8.7-5.6,8.6,0Z"/>
      </g>
      <g>
        <path class="st3" d="M350.4,415.4h-5.1c13.8-11.5-.8-16.5-4.7-10.1.5,3.3,3.5-.5,5.3-.1,8.1,1.7-10.1,11.3-3.6,12.9h8.1c2.1.2,2.2-2.9,0-2.7h0Z"/>
        <path class="st3" d="M363.5,415.4h-5c13.8-11.5-.8-16.5-4.7-10.1.1,2.6,2.6.7,3.7.2,3.5-1.5,4.6,2.3,1.9,4.7-1.3,1.8-5,4.3-5.4,6.5-.3,2.7,8.3.9,9.6,1.4,2,.2,2-2.9-.1-2.7h0Z"/>
        <path class="st3" d="M372.9,401.8c-.7-.6-1.9-.4-2.1.6s-5.1,15.6-5,16.1c0,1.4,2.2,1.7,2.5.3l5-15.7c0-.4,0-.9-.4-1.3h0Z"/>
        <path class="st3" d="M383.9,404.6c-7.4-7.5-13,6-8.5,11.7,7.4,7.4,13-6,8.5-11.7ZM381.4,414.5c-5.8,6.6-5.8-14.6,0-8.1.8,1.4.8,6.6,0,8.1Z"/>
        <path class="st3" d="M382,410.4c-.7,11.2-7.2,2.8-4.3-4,2.5-3.4,4.8.7,4.3,4Z"/>
        <path class="st3" d="M396.8,404.5c-2.9-3.7-10.2-2-9.9,3.2-.4,4.4,5.7,6.9,8.1,3.2-1.1,9-5.2,2.2-7.8,3.7-1.3,5.1,10,4.7,10.6-.4,1-2.8.8-7.7-1-9.7h0ZM394,409.4c-2.3,2.3-5.3-1.4-3.3-3.5,2.3-2.3,5.3,1.4,3.3,3.5Z"/>
        <path class="st3" d="M394.6,407.7c.2,3.2-4.8,3.2-4.5,0-.2-3.3,4.7-3.2,4.5,0Z"/>
      </g>
    </g>
  </g>
  <path class="st3" d="M412.3,187h22s-.3,8.6-11,8.6-11-8.6-11-8.6h0Z"/>
  <path class="st3" d="M139.9,240.7s.6,8.6,11,8.6,11-8.6,11-8.6"/>
</svg>