<?xml version="1.0" encoding="utf-8"?>
<!-- Generator: Adobe Illustrator 27.2.0, SVG Export Plug-In . SVG Version: 6.00 Build 0)  -->
<svg version="1.1" id="Camada_7" xmlns="http://www.w3.org/2000/svg" xmlns:xlink="http://www.w3.org/1999/xlink" x="0px" y="0px"
	 viewBox="0 0 566.9 566.9" style="enable-background:new 0 0 566.9 566.9;" xml:space="preserve">
<style type="text/css">
	.st0{fill:none;stroke:#6D8A61;stroke-width:2;stroke-miterlimit:10;}
	.st1{fill:none;stroke:#000000;stroke-width:2;stroke-miterlimit:10;}
</style>
<path class="st0" d="M512.3,417.9c0,15.1,0,33.2,0,50.5c0,3-0.2,5.9-0.6,8.5c-0.3,0.1-0.5,0.1-0.8,0.2c-3,19.7-16.5,28.6-35.3,32.4
	c0-0.3,0.2-3.7,0.2-29.4c0-3.2,0-6.8,0-10.7c0-17.5,0-35.8,0-51c0-17.4,0.2-32.9-3.6-47.5c-3.9-15-12.7-24.4-23.9-30.5
	c-3-1.6-6.2-3-9.5-4.2c19.8,6.7,39.7,20,54.8,35.5C505.8,384.1,512.3,400.7,512.3,417.9L512.3,417.9z"/>
<path class="st0" d="M434.9,356.4c0,23.4-20.6,42.5-46.2,43.1c-0.4,0-0.8,0-1.2,0c-0.2,0-0.4,0-0.6,0c-25.6-0.6-46.2-19.7-46.2-43.1
	c0-8.2,2.5-15.9,7-22.4c4.2-0.6,9.7-1.4,14.5-1.9c-0.5,0.5-1.1,1-1.6,1.5c-0.2,0.2-0.4,0.4-0.6,0.6c-0.3,0.3-0.6,0.7-0.9,1
	c-0.3,0.3-0.5,0.6-0.8,0.9c0,0-0.1,0.1-0.1,0.2c-0.2,0.2-0.3,0.4-0.5,0.6c-0.2,0.2-0.4,0.5-0.6,0.8c-0.2,0.2-0.3,0.4-0.5,0.6
	c-0.3,0.4-0.6,0.8-0.8,1.3c0,0,0,0,0,0c-0.2,0.3-0.4,0.7-0.6,1c-0.2,0.3-0.3,0.5-0.5,0.8c-0.1,0.2-0.2,0.4-0.4,0.6
	c-0.3,0.5-0.5,1-0.8,1.6c-0.1,0.3-0.2,0.5-0.3,0.8c0,0,0,0,0,0c-0.2,0.4-0.4,0.9-0.5,1.3c-0.1,0.4-0.3,0.7-0.4,1.1
	c-0.1,0.3-0.2,0.5-0.3,0.8c-0.1,0.3-0.2,0.6-0.2,0.8c-0.1,0.2-0.1,0.4-0.2,0.7c-0.1,0.4-0.2,0.7-0.2,1c0,0.2-0.1,0.4-0.1,0.6
	c-0.1,0.7-0.2,1.4-0.3,2.1c0,0.3-0.1,0.6-0.1,0.9c0,0.2,0,0.5,0,0.7c0,0.2,0,0.5,0,0.7c0,0.5,0,0.9,0,1.4c0,0.4,0,0.7,0,1.1v0.1
	c0,0.4,0,0.8,0.1,1.2c0,0.3,0,0.7,0.1,1c0,0.4,0.1,0.7,0.1,1.1c0,0.4,0.1,0.8,0.2,1.2c0,0.2,0.1,0.4,0.1,0.6c0,0.2,0.1,0.4,0.1,0.5
	c0.1,0.3,0.1,0.5,0.2,0.8c0.1,0.3,0.1,0.5,0.2,0.8c0.1,0.2,0.1,0.5,0.2,0.7c0,0.2,0.1,0.3,0.2,0.5c0.1,0.3,0.2,0.7,0.3,1
	c0.1,0.4,0.3,0.8,0.5,1.2c0.1,0.2,0.1,0.4,0.2,0.5c0.1,0.3,0.2,0.6,0.4,0.8c0.1,0.2,0.2,0.5,0.3,0.7c0,0,0,0,0,0
	c0.2,0.4,0.4,0.7,0.6,1.1c0.1,0.1,0.1,0.3,0.2,0.4c0.2,0.4,0.4,0.7,0.6,1.1c0.2,0.3,0.4,0.6,0.5,0.8c0,0.1,0.1,0.1,0.1,0.2
	c0.4,0.5,0.8,1.1,1.1,1.6c0.2,0.3,0.4,0.6,0.7,0.9c0.2,0.3,0.5,0.6,0.8,0.9c0.4,0.4,0.8,0.9,1.2,1.3c0.3,0.3,0.6,0.6,0.9,0.9
	c0.3,0.3,0.6,0.6,0.9,0.9c0,0,0.1,0.1,0.1,0.1c0,0,0,0,0.1,0.1c0.2,0.2,0.4,0.4,0.7,0.6c0.1,0.1,0.3,0.3,0.5,0.4
	c0.2,0.2,0.4,0.4,0.7,0.5c0.2,0.2,0.4,0.3,0.6,0.5c0.1,0.1,0.2,0.2,0.4,0.3c0.1,0.1,0.3,0.2,0.4,0.3c0.1,0.1,0.2,0.1,0.2,0.2
	c0,0,0,0,0,0c0.2,0.2,0.5,0.3,0.7,0.5c0.3,0.2,0.6,0.4,0.9,0.6c0.3,0.2,0.7,0.4,1,0.6c0.5,0.3,1,0.6,1.5,0.9
	c0.3,0.1,0.5,0.3,0.8,0.4c0.5,0.3,1.1,0.5,1.6,0.8c0.5,0.2,1.1,0.5,1.7,0.7c0.5,0.2,1.1,0.4,1.7,0.6s1.1,0.4,1.7,0.5
	c0.6,0.2,1.2,0.3,1.8,0.5c0.4,0.1,0.9,0.2,1.3,0.3c0,0,0.1,0,0.1,0c0.3,0.1,0.7,0.1,1,0.2c1,0.2,2.1,0.3,3.1,0.4
	c1.3,0.1,2.5,0.2,3.8,0.2s2.6-0.1,3.8-0.2c1.4-0.1,2.8-0.3,4.2-0.6c0.5-0.1,0.9-0.2,1.4-0.3h0c0.6-0.1,1.2-0.3,1.8-0.5h0
	c0.4-0.1,0.8-0.2,1.2-0.4c0.3-0.1,0.7-0.2,1-0.3c0.4-0.1,0.8-0.3,1.2-0.4c0.5-0.2,1.1-0.4,1.6-0.7c0.5-0.2,1.1-0.5,1.6-0.8
	c0.3-0.1,0.5-0.3,0.8-0.4c0.5-0.3,1-0.5,1.5-0.9c0.3-0.2,0.7-0.4,1-0.6c0.3-0.2,0.6-0.4,0.9-0.6c0.3-0.2,0.6-0.4,0.9-0.6
	c0,0,0.1-0.1,0.1-0.1c0.3-0.2,0.5-0.4,0.8-0.6c0.3-0.2,0.6-0.4,0.9-0.7c0.3-0.2,0.6-0.5,0.9-0.7c0.3-0.2,0.5-0.5,0.8-0.7
	c0,0,0,0,0,0c0.5-0.5,1-1,1.5-1.5c0.4-0.4,0.7-0.8,1.1-1.2c0,0,0,0,0-0.1c0.2-0.2,0.4-0.4,0.5-0.6c0.2-0.2,0.3-0.4,0.5-0.6
	c0.2-0.3,0.5-0.6,0.7-0.9c0.4-0.5,0.8-1.1,1.1-1.6c0-0.1,0.1-0.1,0.1-0.2c0.2-0.3,0.4-0.6,0.5-0.8c0.3-0.5,0.6-0.9,0.8-1.4
	c0.1-0.2,0.3-0.5,0.4-0.7s0.2-0.5,0.4-0.7c0.2-0.3,0.3-0.6,0.5-1c0.3-0.7,0.6-1.3,0.8-2c0.1-0.3,0.2-0.6,0.3-1
	c0.1-0.2,0.1-0.3,0.2-0.5c0.1-0.2,0.1-0.5,0.2-0.7c0.1-0.3,0.1-0.5,0.2-0.8c0.1-0.3,0.1-0.5,0.2-0.8c0-0.2,0.1-0.4,0.1-0.5
	c0-0.2,0.1-0.4,0.1-0.6c0.1-0.4,0.1-0.8,0.2-1.2c0.1-0.4,0.1-0.7,0.1-1.1c0-0.3,0.1-0.7,0.1-1c0-0.4,0.1-0.8,0.1-1.2v-0.1
	c0-0.4,0-0.7,0-1.1c0-0.4,0-0.9,0-1.3c0-0.4,0-0.9-0.1-1.3c0-0.2,0-0.4-0.1-0.6c0,0,0-0.1,0-0.1c0-0.5-0.1-1-0.2-1.4
	c0-0.3-0.1-0.7-0.2-1c0-0.3-0.1-0.5-0.2-0.8c-0.1-0.4-0.2-0.7-0.2-1.1c-0.1-0.3-0.1-0.5-0.2-0.8c-0.1-0.5-0.3-1.1-0.5-1.6
	c-0.1-0.3-0.2-0.5-0.3-0.8c-0.8-2.1-1.8-4.1-3-6c-0.1-0.2-0.3-0.5-0.5-0.7c-0.1-0.1-0.2-0.3-0.3-0.4c-0.1-0.2-0.3-0.4-0.4-0.6
	c-0.2-0.3-0.4-0.5-0.6-0.8c-0.6-0.8-1.2-1.5-1.9-2.3c-0.2-0.2-0.4-0.4-0.5-0.6c-0.1-0.2-0.3-0.3-0.4-0.5c-0.2-0.2-0.4-0.4-0.6-0.6
	c-0.4-0.4-0.8-0.7-1.2-1.1c2.8,0.4,6.1,0.9,9.4,1.4c0,0,0.1,0,0.1,0c1.6,0.3,3.2,0.7,4.8,1.1C432.5,341,434.9,348.4,434.9,356.4
	L434.9,356.4z"/>
<path class="st0" d="M340.5,335c0.7-0.2,1.4-0.4,2-0.5C341.8,334.7,341,334.9,340.5,335z"/>
<path class="st0" d="M474.4,199.1c-1,0-2,0.1-3,0.3c0.1-0.2,0.1-0.4,0.2-0.5l-0.1,0c1.2-7.2-1-12.2-10.3-14.7
	c-0.5-0.1-1-0.3-1.6-0.4c-2.1-0.5-4.2-1.2-6.3-1.9c-0.3-0.1-0.7-0.2-1-0.4c-12.2-4.4-22.9-11.9-31.2-21.4c-0.1-0.1-0.2-0.3-0.3-0.4
	c-6.3-7.3-11.3-15.8-14.5-25.2c-0.5-1.4-0.9-2.7-1.3-4.1c0,0.2-0.1,0.3-0.2,0.4c-3.9,8.4-9.2,16.1-15.7,22.7
	c-14.6,14.9-34.9,24.1-57.3,24.1h-0.2c-1.5,0-3.1-0.1-4.6-0.1c-0.2,0-0.4,0-0.6,0c-0.1,0-0.2,0-0.4,0l0.2,0.2
	c-22.5,1-24,13-22.5,22.3c1,6.2,1,6.2,0,0c-0.6-0.2-1.3-0.4-1.9-0.5h0c-1.1-0.2-2.3-0.4-3.5-0.4c-9.1,0-16.6,7.4-16.6,16.6
	s7.2,16.3,16.1,16.6c0,0.9,0,1.7,0,2.6c0,1.4,0,2.8,0.1,4.2c-0.1,1.3-0.1,2.6-0.1,4c0,40.8,27.4,75.3,64.7,86v2.3
	c-0.1,0-0.3,0-0.4,0c-3.2,0.2-6.4,0.5-9.6,1c-1.3,0.2-2.6,0.4-3.9,0.7c-1.4,0.3-2.7,0.6-4.1,0.9c-0.2,0-0.4,0.1-0.5,0.1
	c-0.5,0.1-1,0.2-1.5,0.4c-0.7,0.2-1.4,0.4-2,0.5c0.1,0,0.2,0,0.2,0s-21.5,11.2-28.4,25.1c-0.2,0.5-0.4,0.9-0.7,1.4
	c-0.5,1-0.9,2-1.4,3.1c-6.4,14.5-9.3,30.6-9.4,49.3c0,16,0,36-0.1,55.2c0,4.4,0,8.2,0,11.7c0,25.2,0.2,28.4,0.2,28.6
	c3,0.6,6.2,1,9.5,1.4c-6.9-0.6-9.5-1.4-9.5-1.4l0,0c-18.4-3.5-32-11.9-35.7-30.1c-0.3,0-0.5-0.1-0.8-0.1
	c5.6,27.2,33.7,32.6,65.5,32.6l114.7,0c9.4,0,18.3-0.4,26.4-1.7c0.2,0,0.4,0,0.5-0.1c0.1,0,0.3,0,0.4-0.1c0.2,0,0.5-0.1,0.8-0.1
	c0.2,0,0.5-0.1,0.7-0.1c0.6-0.1,1.2-0.2,1.8-0.3c0-0.3,0.2-3.7,0.2-29.4c0-3.2,0-6.8,0-10.7c0-17.5,0-35.8,0-51
	c0-17.4,0.2-32.9-3.6-47.5c-3.9-15-12.7-24.4-23.9-30.5c-3-1.6-6.2-3-9.5-4.2c-0.2-0.1-0.4-0.1-0.6-0.2c-0.2,0-0.4-0.1-0.5-0.2
	c0,0,0,0-0.1,0c-2.3-0.8-4.6-1.4-6.9-2c-4.8-1.2-9.9-2-15-2.4c-0.9-0.1-1.9-0.1-2.8-0.2c0,0-0.1,0-0.1,0c-0.2,0-0.4,0-0.5,0v-2.2
	c37.4-10.7,64.8-45.2,64.8-86c0-1.4,0-2.8-0.1-4.2c0.1-1.3,0.1-2.6,0.1-4c0-0.9,0-1.8,0-2.8c0,0,0,0,0.1,0c8-1.2,14.1-8.1,14.1-16.4
	C491,206.6,483.6,199.1,474.4,199.1L474.4,199.1z M465.7,510.9c-0.7,0.1-1.4,0.1-2.1,0.2C464.4,511,465.1,510.9,465.7,510.9z
	 M440.7,511.8h4.5C443.7,511.8,442.2,511.8,440.7,511.8H340.2c-3.4,0-6.5,0-9.3,0h9.3c7.9-0.1,26.7,0,47.8,0
	C405.6,511.8,424.8,511.7,440.7,511.8L440.7,511.8z M412.7,381.8c0.3-0.2,0.6-0.5,0.9-0.7c0.3-0.2,0.5-0.5,0.8-0.7c0,0,0,0,0,0
	c0.5-0.5,1-1,1.5-1.5c0.4-0.4,0.7-0.8,1.1-1.2c0,0,0,0,0-0.1c0.2-0.2,0.4-0.4,0.5-0.6c0.2-0.2,0.3-0.4,0.5-0.6
	c0.2-0.3,0.5-0.6,0.7-0.9c0.4-0.5,0.8-1.1,1.1-1.6c0-0.1,0.1-0.1,0.1-0.2c0.2-0.3,0.4-0.6,0.5-0.8c0.3-0.5,0.6-0.9,0.8-1.4
	c0.1-0.2,0.3-0.5,0.4-0.7s0.2-0.5,0.4-0.7c0.2-0.3,0.3-0.6,0.5-1c0.3-0.7,0.6-1.3,0.8-2c0.1-0.3,0.2-0.6,0.3-1
	c0.1-0.2,0.1-0.3,0.2-0.5c0.1-0.2,0.1-0.5,0.2-0.7c0.1-0.3,0.1-0.5,0.2-0.8c0.1-0.3,0.1-0.5,0.2-0.8c0-0.2,0.1-0.4,0.1-0.5
	c0-0.2,0.1-0.4,0.1-0.6c0.1-0.4,0.1-0.8,0.2-1.2c0.1-0.4,0.1-0.7,0.1-1.1c0-0.3,0.1-0.7,0.1-1c0-0.4,0.1-0.8,0.1-1.2v-0.1
	c0-0.4,0-0.7,0-1.1c0-0.4,0-0.9,0-1.3c0-0.4,0-0.9-0.1-1.3c0-0.2,0-0.4-0.1-0.6c0,0,0-0.1,0-0.1c0-0.5-0.1-1-0.2-1.4
	c0-0.3-0.1-0.7-0.2-1c0-0.3-0.1-0.5-0.2-0.8c-0.1-0.4-0.2-0.7-0.2-1.1c-0.1-0.3-0.1-0.5-0.2-0.8c-0.1-0.5-0.3-1.1-0.5-1.6
	c-0.1-0.3-0.2-0.5-0.3-0.8c-0.8-2.1-1.8-4.1-3-6c-0.1-0.2-0.3-0.5-0.5-0.7c-0.1-0.1-0.2-0.3-0.3-0.4c-0.1-0.2-0.3-0.4-0.4-0.6
	c-0.2-0.3-0.4-0.5-0.6-0.8c-0.6-0.8-1.2-1.5-1.9-2.3c-0.2-0.2-0.4-0.4-0.5-0.6c-0.1-0.2-0.3-0.3-0.4-0.5c-0.2-0.2-0.4-0.4-0.6-0.6
	c-0.4-0.4-0.8-0.7-1.2-1.1c2.8,0.4,6.1,0.9,9.4,1.4c0,0,0.1,0,0.1,0c1.6,0.3,3.2,0.7,4.8,1.1c4.2,6.4,6.6,13.9,6.6,21.8
	c0,23.4-20.6,42.5-46.2,43.1c-0.4,0-0.8,0-1.2,0c-0.2,0-0.4,0-0.6,0c-25.6-0.6-46.2-19.7-46.2-43.1c0-8.2,2.5-15.9,7-22.4
	c4.2-0.6,9.7-1.4,14.5-1.9c-0.5,0.5-1.1,1-1.6,1.5c-0.2,0.2-0.4,0.4-0.6,0.6c-0.3,0.3-0.6,0.7-0.9,1c-0.3,0.3-0.5,0.6-0.8,0.9
	c0,0-0.1,0.1-0.1,0.2c-0.2,0.2-0.3,0.4-0.5,0.6c-0.2,0.2-0.4,0.5-0.6,0.8c-0.2,0.2-0.3,0.4-0.5,0.6c-0.3,0.4-0.6,0.8-0.8,1.3
	c0,0,0,0,0,0c-0.2,0.3-0.4,0.7-0.6,1c-0.2,0.3-0.3,0.5-0.5,0.8c-0.1,0.2-0.2,0.4-0.4,0.6c-0.3,0.5-0.5,1-0.8,1.6
	c-0.1,0.3-0.2,0.5-0.3,0.8c0,0,0,0,0,0c-0.2,0.4-0.4,0.9-0.5,1.3c-0.1,0.4-0.3,0.7-0.4,1.1c-0.1,0.3-0.2,0.5-0.3,0.8
	c-0.1,0.3-0.2,0.6-0.2,0.8c-0.1,0.2-0.1,0.4-0.2,0.7c-0.1,0.4-0.2,0.7-0.2,1c0,0.2-0.1,0.4-0.1,0.6c-0.1,0.7-0.2,1.4-0.3,2.1
	c0,0.3-0.1,0.6-0.1,0.9c0,0.2,0,0.5,0,0.7c0,0.2,0,0.5,0,0.7c0,0.5,0,0.9,0,1.4c0,0.4,0,0.7,0,1.1v0.1c0,0.4,0,0.8,0.1,1.2
	c0,0.3,0,0.7,0.1,1c0,0.4,0.1,0.7,0.1,1.1c0,0.4,0.1,0.8,0.2,1.2c0,0.2,0.1,0.4,0.1,0.6c0,0.2,0.1,0.4,0.1,0.5
	c0.1,0.3,0.1,0.5,0.2,0.8c0.1,0.3,0.1,0.5,0.2,0.8c0.1,0.2,0.1,0.5,0.2,0.7c0,0.2,0.1,0.3,0.2,0.5c0.1,0.3,0.2,0.7,0.3,1
	c0.1,0.4,0.3,0.8,0.5,1.2c0.1,0.2,0.1,0.4,0.2,0.5c0.1,0.3,0.2,0.6,0.4,0.8c0.1,0.2,0.2,0.5,0.3,0.7c0,0,0,0,0,0
	c0.2,0.4,0.4,0.7,0.6,1.1c0.1,0.1,0.1,0.3,0.2,0.4c0.2,0.4,0.4,0.7,0.6,1.1c0.2,0.3,0.4,0.6,0.5,0.8c0,0.1,0.1,0.1,0.1,0.2
	c0.4,0.5,0.8,1.1,1.1,1.6c0.2,0.3,0.4,0.6,0.7,0.9c0.2,0.3,0.5,0.6,0.8,0.9c0.4,0.4,0.8,0.9,1.2,1.3c0.3,0.3,0.6,0.6,0.9,0.9
	c0.3,0.3,0.6,0.6,0.9,0.9c0,0,0.1,0.1,0.1,0.1c0,0,0,0,0.1,0.1c0.2,0.2,0.4,0.4,0.7,0.6c0.1,0.1,0.3,0.3,0.5,0.4
	c0.2,0.2,0.4,0.4,0.7,0.5c0.2,0.2,0.4,0.3,0.6,0.5c0.1,0.1,0.2,0.2,0.4,0.3c0.1,0.1,0.3,0.2,0.4,0.3c0.1,0.1,0.2,0.1,0.2,0.2
	c0,0,0,0,0,0c0.2,0.2,0.5,0.3,0.7,0.5c0.3,0.2,0.6,0.4,0.9,0.6c0.3,0.2,0.7,0.4,1,0.6c0.5,0.3,1,0.6,1.5,0.9
	c0.3,0.1,0.5,0.3,0.8,0.4c0.5,0.3,1.1,0.5,1.6,0.8c0.5,0.2,1.1,0.5,1.7,0.7c0.5,0.2,1.1,0.4,1.7,0.6s1.1,0.4,1.7,0.5
	c0.6,0.2,1.2,0.3,1.8,0.5c0.4,0.1,0.9,0.2,1.3,0.3c0,0,0.1,0,0.1,0c0.3,0.1,0.7,0.1,1,0.2c1,0.2,2.1,0.3,3.1,0.4
	c1.3,0.1,2.5,0.2,3.8,0.2s2.6-0.1,3.8-0.2c1.4-0.1,2.8-0.3,4.2-0.6c0.5-0.1,0.9-0.2,1.4-0.3h0c0.6-0.1,1.2-0.3,1.8-0.5h0
	c0.4-0.1,0.8-0.2,1.2-0.4c0.3-0.1,0.7-0.2,1-0.3c0.4-0.1,0.8-0.3,1.2-0.4c0.5-0.2,1.1-0.4,1.6-0.7c0.5-0.2,1.1-0.5,1.6-0.8
	c0.3-0.1,0.5-0.3,0.8-0.4c0.5-0.3,1-0.5,1.5-0.9c0.3-0.2,0.7-0.4,1-0.6c0.3-0.2,0.6-0.4,0.9-0.6c0.3-0.2,0.6-0.4,0.9-0.6
	c0,0,0.1-0.1,0.1-0.1c0.3-0.2,0.5-0.4,0.8-0.6C412.2,382.3,412.4,382,412.7,381.8L412.7,381.8z"/>
<path class="st0" d="M558.2,455.9c-12,11.3-28.9,17.7-46.5,21.1c-0.1,0-0.1,0-0.2,0c0.4-2.6,0.6-5.5,0.6-8.5c0-17.4,0-35.4,0-50.5
	c0-17.2-6.6-33.9-18.6-46.2c-14.3-14.6-32.8-27.3-51.6-34.3c-1.1-0.4-2.1-0.8-3.2-1.1c-0.2-0.1-0.4-0.1-0.6-0.2
	c-0.1,0-0.3-0.1-0.5-0.2c0,0,0,0-0.1,0c-2.3-0.8-4.6-1.4-6.9-2c-4.8-1.2-9.9-2-15-2.4c-0.9-0.1-1.9-0.1-2.8-0.2c0,0-0.1,0-0.1,0
	c-0.2,0-0.4,0-0.5,0v-2.2c37.4-10.7,64.8-45.2,64.8-86c0-1.4,0-2.8-0.1-4.2c0.1-1.3,0.1-2.6,0.1-4c0-0.9,0-1.8,0-2.8c0,0,0,0,0.1,0
	c8-1.2,14.1-8.1,14.1-16.4c0-9.2-7.4-16.6-16.6-16.6c-1,0-2,0.1-3,0.3c0.1-0.2,0.1-0.4,0.2-0.5l-0.1,0c1.2-7.2-1-12.2-10.3-14.7
	c-0.5-0.1-1-0.3-1.6-0.4c-2.1-0.5-4.2-1.2-6.3-1.9c-0.3-0.1-0.7-0.2-1-0.4c-12.2-4.4-22.9-11.9-31.2-21.4c-0.1-0.1-0.2-0.3-0.3-0.4
	c-6.3-7.3-11.3-15.8-14.5-25.2c-0.5-1.4-0.9-2.7-1.3-4.1c0,0.2-0.1,0.3-0.2,0.4c-3.9,8.4-9.2,16.1-15.7,22.7
	c-14.6,14.9-34.9,24.1-57.3,24.1h-0.2c-1.5,0-3.1-0.1-4.6-0.1c-0.2,0-0.4,0-0.6,0c-0.1,0-0.2,0-0.4,0l0.2,0.2
	c-22.5,1-24,13-22.5,22.3c1,6.2,1,6.2,0,0c-0.6-0.2-1.3-0.4-1.9-0.5h0c-1.1-0.2-2.3-0.4-3.5-0.4c-9.1,0-16.6,7.4-16.6,16.6
	s7.2,16.3,16.1,16.6c0,0.9,0,1.7,0,2.6c0,1.4,0,2.8,0.1,4.2c-0.1,1.3-0.1,2.6-0.1,4c0,40.8,27.4,75.3,64.7,86v2.3
	c-0.1,0-0.3,0-0.4,0c-3.2,0.2-6.4,0.5-9.6,1c-1.3,0.2-2.6,0.4-3.9,0.7c-1.4,0.3-2.7,0.6-4.1,0.9c-0.2,0-0.4,0.1-0.5,0.1
	c-0.5,0.1-1,0.2-1.5,0.4c-0.7,0.2-1.4,0.4-2,0.5c0,0-0.1,0-0.1,0c-0.5,0.1-1,0.3-1.6,0.5c-0.2,0-0.3,0.1-0.5,0.1
	c-0.5,0.2-1.1,0.3-1.6,0.5c-0.6,0.2-1.2,0.4-1.8,0.6c-0.5,0.2-1,0.3-1.5,0.5c-0.2,0.1-0.4,0.1-0.6,0.2c-0.5,0.2-1,0.4-1.5,0.5
	c-3.1,1.1-6.1,2.3-9.2,3.6c-0.6,0.3-1.2,0.5-1.8,0.8c-0.5,0.2-1.1,0.5-1.6,0.7c-0.9,0.4-1.8,0.8-2.6,1.3c-0.4,0.2-0.8,0.4-1.2,0.6
	c-0.6,0.3-1.2,0.6-1.8,0.9c-3.4,1.7-6.7,3.6-9.9,5.6c-0.5,0.3-1,0.6-1.5,1c-0.4,0.2-0.8,0.5-1.1,0.7c-0.5,0.3-0.9,0.6-1.3,0.9
	c-1.2,0.8-2.4,1.6-3.5,2.4c-0.6,0.4-1.2,0.9-1.8,1.3c-1.2,0.9-2.5,1.9-3.7,2.8c-0.4,0.4-0.9,0.7-1.3,1.1c-1.2,1-2.5,2.1-3.7,3.2
	c-13.8,12.5-21.5,30.3-21.5,48.9c0,15.8-0.1,35.7-0.1,54.7c0,4,0.3,7.6,1,10.9c-2-0.3-4-0.6-6-0.9c0.1-0.8,0.1-1.6,0.2-2.4
	c0.1-1.1,0.1-2.2,0.1-3.4c0-17.4,0-35.4,0-50.5c0-1,0-2.1-0.1-3.1c-0.1-2-0.3-4-0.5-6c-1.9-13.9-8.1-27-18-37.1
	c-3.2-3.2-6.6-6.4-10.1-9.4c-3.5-14.1-5.3-29-5.3-44.3c0-4.6,0.2-9.2,0.5-13.7c0.1-1.1,0.2-2.3,0.3-3.4c12.3-2.8,23-9.6,23-9.6
	s-10.5-12.2-1.6-25.7c0.9-1.4,1.6-2.8,1.9-4c10.9-16.9,17.1-37.1,17.1-59.4c0-3.1-0.1-6.2-0.4-9.2c0-0.6-0.1-1.1-0.2-1.7
	c0.4-3.5,0.6-7.1,0.6-10.7c0-3.1-0.1-6.1-0.4-9.2c-0.3-3.4-0.8-6.8-1.4-10.1l0,0c2.1-5.8,4.5-11.4,7.3-16.8c0.1-0.3,0.3-0.6,0.5-0.9
	c0,0,0,0,0,0c0.1-1.4,0.3-2.9,0.5-4.4c0,0,0,0,0-0.1c11.6-52.9,58.7-92.5,115-92.5c0.8,0,1.5,0,2.3,0h0c2.8,0,5.5,0.2,8.2,0.4
	c9,0.8,17.7,2.6,26,5.3c0.4,0.2,0.9,0.3,1.3,0.4c0.7,0.2,1.5,0.5,2.2,0.8c1.2,0.5,2.5,0.9,3.7,1.4c0.5,0.2,0.9,0.4,1.4,0.6
	c1.2,0.5,2.5,1,3.7,1.6c0.4,0.2,0.9,0.4,1.3,0.6c1.1,0.5,2.2,1.1,3.3,1.6c0.6,0.3,1.1,0.6,1.7,0.9c4.3,2.3,8.4,4.8,12.4,7.6
	c0.5,0.3,0.9,0.7,1.4,1c0.8,0.5,1.5,1.1,2.2,1.6c0.4,0.3,0.9,0.7,1.3,1c0.7,0.5,1.3,1,2,1.6c0.4,0.3,0.9,0.7,1.3,1.1
	c1,0.8,2,1.7,3,2.6c1.6,1.4,3.1,2.9,4.6,4.4c0.4,0.3,0.7,0.7,1,1c0.3,0.3,0.5,0.6,0.8,0.8c0.5,0.5,1,1.1,1.5,1.6
	c0.5,0.5,0.9,1,1.4,1.6c1.2,1.4,2.5,2.8,3.6,4.3c0.4,0.4,0.7,0.9,1.1,1.4c0.5,0.7,1.1,1.4,1.6,2.1c0.3,0.4,0.6,0.8,0.9,1.3
	c2.5,3.4,4.8,6.9,6.9,10.6c0.3,0.5,0.5,1,0.8,1.5c0.5,0.8,0.9,1.7,1.4,2.5c0.2,0.4,0.4,0.8,0.6,1.2c1,1.9,1.9,3.8,2.7,5.7
	c0.2,0.5,0.4,0.9,0.6,1.4c0.2,0.5,0.5,1.1,0.7,1.6c0.2,0.4,0.3,0.8,0.5,1.2c0.5,1.3,1,2.6,1.5,3.8c0.2,0.6,0.4,1.1,0.6,1.7
	c0.2,0.5,0.3,1,0.5,1.5c0.1,0.4,0.3,0.8,0.4,1.2c0.2,0.6,0.4,1.1,0.5,1.7c0.1,0.5,0.3,1,0.4,1.4c0.2,0.9,0.5,1.7,0.7,2.6
	c0.2,0.6,0.3,1.3,0.5,1.9c0.2,0.7,0.4,1.5,0.5,2.2c0.1,0.6,0.3,1.3,0.4,2c0.4,2.1,0.8,4.3,1.1,6.4c0.1,0.7,0.2,1.4,0.3,2.1
	c0.1,0.7,0.2,1.4,0.2,2.2c0,0,0,0,0,0c8.9,20.1,14,42.8,14,66.9c0,2.3,0,4.6-0.2,6.9c15.9,26.7,25.1,58.6,25.1,92.7
	c0,6.5-0.3,13-1,19.4c-0.2,1.7-0.4,3.4-0.6,5c-1.8,13.6-5.1,26.8-9.7,39.2C544,411.2,542.1,444,558.2,455.9L558.2,455.9z"/>
<path class="st0" d="M477.4,238.8c-0.1-2.3-0.3-4.5-0.6-6.7c0,0,0,0-0.1,0c0,0.9,0,1.8,0,2.8c0,1.3,0,2.6-0.1,4
	c0.1,1.4,0.1,2.8,0.1,4.2c0,40.8-27.4,75.3-64.8,86v2.7c0.2,0,0.4,0.1,0.7,0.1v-2.8c37.4-10.7,64.8-45.2,64.8-86
	C477.5,241.6,477.5,240.2,477.4,238.8L477.4,238.8z M452.4,181.6c0.3,0.1,0.7,0.2,1,0.4c-0.1-0.1-0.2-0.2-0.3-0.4
	c-12.2-4.4-22.9-11.9-31.2-21.4c-0.3-0.1-0.7-0.3-1-0.4c0.1,0.1,0.2,0.3,0.3,0.4C429.5,169.7,440.2,177.1,452.4,181.6L452.4,181.6z
	 M327,177.6c1.5,0.1,3,0.1,4.6,0.1h0.2C330.2,177.7,328.6,177.6,327,177.6C327,177.5,327,177.5,327,177.6z"/>
<path class="st0" d="M362.3,332c-0.5,0.5-1.1,1-1.6,1.5c-0.2,0.2-0.4,0.4-0.6,0.6c-0.3,0.3-0.6,0.7-0.9,1c-0.3,0.3-0.5,0.6-0.8,0.9
	c0,0-0.1,0.1-0.1,0.2c-0.2,0.2-0.3,0.4-0.5,0.6c-0.2,0.2-0.4,0.5-0.6,0.8c-0.2,0.2-0.3,0.4-0.5,0.6c-0.3,0.4-0.6,0.8-0.8,1.3
	c0,0,0,0,0,0c-0.2,0.3-0.4,0.7-0.6,1c-0.2,0.3-0.3,0.5-0.5,0.8c-0.1,0.2-0.2,0.4-0.4,0.6c-0.3,0.5-0.5,1-0.8,1.6
	c-0.1,0.3-0.2,0.5-0.3,0.8c0,0,0,0,0,0c-0.2,0.4-0.4,0.9-0.5,1.3c-0.1,0.4-0.3,0.7-0.4,1.1c-0.1,0.3-0.2,0.5-0.3,0.8
	c-0.1,0.3-0.2,0.6-0.2,0.8c-0.1,0.2-0.1,0.4-0.2,0.7c-0.1,0.4-0.2,0.7-0.2,1c0,0.2-0.1,0.4-0.1,0.6c-0.1,0.7-0.2,1.4-0.3,2.1
	c0,0.3-0.1,0.6-0.1,0.9c0,0.2,0,0.5,0,0.7c0,0.2,0,0.5,0,0.7c0,0.5,0,0.9,0,1.4c0,0.4,0,0.7,0,1.1v0.1c0,0.4,0,0.8,0.1,1.2
	c0,0.3,0,0.7,0.1,1c0,0.4,0.1,0.7,0.1,1.1c0,0.4,0.1,0.8,0.2,1.2c0,0.2,0.1,0.4,0.1,0.6c0,0.2,0.1,0.4,0.1,0.5
	c0.1,0.3,0.1,0.5,0.2,0.8c0.1,0.3,0.1,0.5,0.2,0.8c0.1,0.2,0.1,0.5,0.2,0.7c0,0.2,0.1,0.3,0.2,0.5c0.1,0.3,0.2,0.7,0.3,1
	c0.1,0.4,0.3,0.8,0.5,1.2c0.1,0.2,0.1,0.4,0.2,0.5c0.1,0.3,0.2,0.6,0.4,0.8c0.1,0.2,0.2,0.5,0.3,0.7c0,0,0,0,0,0
	c0.2,0.4,0.4,0.7,0.6,1.1c0.1,0.1,0.1,0.3,0.2,0.4c0.2,0.4,0.4,0.7,0.6,1.1c0.2,0.3,0.4,0.6,0.5,0.8c0,0.1,0.1,0.1,0.1,0.2
	c0.4,0.5,0.8,1.1,1.1,1.6c0.2,0.3,0.4,0.6,0.7,0.9c0.2,0.3,0.5,0.6,0.8,0.9c0.4,0.4,0.8,0.9,1.2,1.3c0.3,0.3,0.6,0.6,0.9,0.9
	c0.3,0.3,0.6,0.6,0.9,0.9c0,0,0.1,0.1,0.1,0.1c0,0,0,0,0.1,0.1c0.2,0.2,0.4,0.4,0.7,0.6c0.1,0.1,0.3,0.3,0.5,0.4
	c0.2,0.2,0.4,0.4,0.7,0.5c0.2,0.2,0.4,0.3,0.6,0.5c0.1,0.1,0.2,0.2,0.4,0.3c0.1,0.1,0.3,0.2,0.4,0.3c0.1,0.1,0.2,0.1,0.2,0.2
	c0,0,0,0,0,0c0.2,0.2,0.5,0.3,0.7,0.5c0.3,0.2,0.6,0.4,0.9,0.6c0.3,0.2,0.7,0.4,1,0.6c0.5,0.3,1,0.6,1.5,0.9
	c0.3,0.1,0.5,0.3,0.8,0.4c0.5,0.3,1.1,0.5,1.6,0.8s1.1,0.5,1.7,0.7c0.5,0.2,1.1,0.4,1.7,0.6c0.6,0.2,1.1,0.4,1.7,0.5
	c0.6,0.2,1.2,0.3,1.8,0.5c0.4,0.1,0.9,0.2,1.3,0.3c0,0,0.1,0,0.1,0c0.3,0.1,0.7,0.1,1,0.2c1,0.2,2.1,0.3,3.1,0.4
	c1.3,0.1,2.5,0.2,3.8,0.2s2.6-0.1,3.8-0.2c1.4-0.1,2.8-0.3,4.2-0.6c0.5-0.1,0.9-0.2,1.4-0.3l0,0c0.6-0.1,1.2-0.3,1.8-0.5h0
	c0.4-0.1,0.8-0.2,1.2-0.4c0.3-0.1,0.7-0.2,1-0.3c0.4-0.1,0.8-0.3,1.2-0.4c0.5-0.2,1.1-0.4,1.6-0.7c0.5-0.2,1.1-0.5,1.6-0.8
	c0.3-0.1,0.5-0.3,0.8-0.4c0.5-0.3,1-0.5,1.5-0.9c0.3-0.2,0.7-0.4,1-0.6c0.3-0.2,0.6-0.4,0.9-0.6c0.3-0.2,0.6-0.4,0.9-0.6
	c0,0,0.1-0.1,0.1-0.1c0.3-0.2,0.5-0.4,0.8-0.6c0.3-0.2,0.6-0.4,0.9-0.7c0.3-0.2,0.6-0.5,0.9-0.7c0.3-0.2,0.5-0.5,0.8-0.7
	c0,0,0,0,0,0c0.5-0.5,1-1,1.5-1.5c0.4-0.4,0.7-0.8,1.1-1.2c0,0,0,0,0-0.1c0.2-0.2,0.4-0.4,0.5-0.6c0.2-0.2,0.3-0.4,0.5-0.6
	c0.2-0.3,0.5-0.6,0.7-0.9c0.4-0.5,0.8-1.1,1.1-1.6c0-0.1,0.1-0.1,0.1-0.2c0.2-0.3,0.4-0.6,0.5-0.8c0.3-0.5,0.6-0.9,0.8-1.4
	c0.1-0.2,0.3-0.5,0.4-0.7s0.2-0.5,0.4-0.7c0.2-0.3,0.3-0.6,0.5-1c0.3-0.7,0.6-1.3,0.8-2c0.1-0.3,0.2-0.6,0.3-1
	c0.1-0.2,0.1-0.3,0.2-0.5c0.1-0.2,0.1-0.5,0.2-0.7c0.1-0.3,0.1-0.5,0.2-0.8c0.1-0.3,0.1-0.5,0.2-0.8c0-0.2,0.1-0.4,0.1-0.5
	c0-0.2,0.1-0.4,0.1-0.6c0.1-0.4,0.1-0.8,0.2-1.2c0.1-0.4,0.1-0.7,0.1-1.1c0-0.3,0.1-0.7,0.1-1c0-0.4,0.1-0.8,0.1-1.2v-0.1
	c0-0.4,0-0.7,0-1.1c0-0.4,0-0.9,0-1.3c0-0.4,0-0.9-0.1-1.3c0-0.2,0-0.4-0.1-0.6c0,0,0-0.1,0-0.1c0-0.5-0.1-1-0.2-1.4
	c0-0.3-0.1-0.7-0.2-1c0-0.3-0.1-0.5-0.2-0.8c-0.1-0.4-0.2-0.7-0.2-1.1c-0.1-0.3-0.1-0.5-0.2-0.8c-0.1-0.5-0.3-1.1-0.5-1.6
	c-0.1-0.3-0.2-0.5-0.3-0.8c-0.8-2.1-1.8-4.1-3-6c-0.1-0.2-0.3-0.5-0.5-0.7c-0.1-0.1-0.2-0.3-0.3-0.4c-0.1-0.2-0.3-0.4-0.4-0.6
	c-0.2-0.3-0.4-0.5-0.6-0.8c-0.6-0.8-1.2-1.5-1.9-2.3c-0.2-0.2-0.4-0.4-0.5-0.6c-0.1-0.2-0.3-0.3-0.4-0.5c-0.2-0.2-0.4-0.4-0.6-0.6
	c-0.4-0.4-0.8-0.7-1.2-1.1c-0.2,0-0.4,0-0.5-0.1c0,0-0.1,0-0.1,0c0,0,0,0,0,0c-0.2,0-0.4,0-0.6-0.1c-0.2,0-0.5-0.1-0.7-0.1v-2.7
	c37.4-10.7,64.8-45.2,64.8-86c0-1.4,0-2.8-0.1-4.2c0.1-1.3,0.1-2.6,0.1-4c0-0.9,0-1.8,0-2.8c0,0,0,0,0.1,0c8-1.2,14.1-8.1,14.1-16.4
	c0-9.2-7.4-16.6-16.6-16.6c-1,0-2,0.1-3,0.3c0.1-0.2,0.1-0.4,0.2-0.5l-0.1,0c1.2-7.2-1-12.2-10.3-14.7c-0.5-0.1-1-0.3-1.6-0.4
	c-2.1-0.5-4.2-1.2-6.3-1.9c-0.3-0.1-0.7-0.2-1-0.4c-12.2-4.4-22.9-11.9-31.2-21.4c-0.1-0.1-0.2-0.3-0.3-0.4
	c-6.3-7.3-11.3-15.8-14.5-25.2c-0.5-1.4-0.9-2.7-1.3-4.1c0,0.2-0.1,0.3-0.2,0.4c-3.9,8.4-9.2,16.1-15.7,22.7
	c-14.6,14.9-34.9,24.1-57.3,24.1h-0.2c-1.5,0-3.1-0.1-4.6-0.1c-0.2,0-0.4,0-0.6,0c-0.1,0-0.2,0-0.4,0l0.2,0.2
	c-22.5,1-24,13-22.5,22.3c1,6.2,1,6.2,0,0c-0.6-0.2-1.3-0.4-1.9-0.5h0c-1.1-0.2-2.3-0.4-3.5-0.4c-9.1,0-16.6,7.4-16.6,16.6
	s7.2,16.3,16.1,16.6c0,0.9,0,1.7,0,2.6c0,1.4,0,2.8,0.1,4.2c-0.1,1.3-0.1,2.6-0.1,4c0,40.8,27.4,75.3,64.7,86v2.8L362.3,332
	L362.3,332z M398.6,285.6c-3.3,2.5-7.4,4-12,4s-8.7-1.5-12-4c-4.4-3.3-7.2-8.4-7.2-14.2h38.4C405.8,277.2,403,282.3,398.6,285.6z
	 M344.8,224.4c-3.8,0-6.8-3-6.8-6.8s3-6.8,6.8-6.8s6.8,3.1,6.8,6.8S348.6,224.4,344.8,224.4z M331.1,244.7c7.2,0,13.1,5.9,13.1,13.1
	c0,7.2-5.9,13.1-13.1,13.1s-13.1-5.9-13.1-13.1C317.9,250.6,323.8,244.7,331.1,244.7z M422.1,217.6c0-3.8,3-6.8,6.8-6.8
	s6.8,3.1,6.8,6.8s-3,6.8-6.8,6.8S422.1,221.4,422.1,217.6z M443.4,270.9c-7.2,0-13.1-5.9-13.1-13.1c0-7.2,5.9-13.1,13.1-13.1
	s13.1,5.9,13.1,13.1C456.5,265.1,450.7,270.9,443.4,270.9z"/>
<path class="st0" d="M84.4,340.4c-12.6,4.6-19.7,13-26.4,28.3c-6.4,14.5-9.3,30.6-9.3,49.3c0,16-0.1,36-0.1,55.2
	c-0.1,35.9,0.2,40,0.2,40.3c-20.8-4-35.4-14.1-36.7-37.7c-0.1-1.1-0.1-2.3-0.1-3.5c0.1-19,0.1-38.9,0.1-54.7c0-1.1,0-2.2,0.1-3.4
	c0.9-17.3,8.5-33.7,21.4-45.4C47.7,356.1,66.4,346.1,84.4,340.4L84.4,340.4z"/>
<path class="st0" d="M258.8,422c0,15.1,0,33.2,0,50.5c0,1.1,0,2.3-0.1,3.4c0,0.8-0.1,1.6-0.2,2.4c0,0.2,0,0.5-0.1,0.8
	c0,0.3-0.1,0.5-0.1,0.8c0,0.2,0,0.4-0.1,0.6c0,0.2,0,0.4-0.1,0.6c0,0.2-0.1,0.4-0.1,0.6c0,0.2-0.1,0.4-0.1,0.6c0,0,0,0.1,0,0.1
	c-0.2,1.3-0.5,2.6-0.9,3.9c-0.1,0.4-0.2,0.8-0.4,1.2c0,0.1,0,0.2-0.1,0.3c-0.1,0.3-0.2,0.6-0.3,0.9c0,0,0,0.1,0,0.1c0,0,0,0.1,0,0.1
	c0,0,0,0.1,0,0.1c0,0,0,0.1-0.1,0.1c0,0,0,0,0,0c0,0.1,0,0.1-0.1,0.2c0,0,0,0,0,0.1c0,0.1,0,0.1-0.1,0.2c0,0,0,0.1,0,0.1
	c-0.1,0.3-0.2,0.6-0.4,0.9c0,0.1-0.1,0.2-0.1,0.3c-0.1,0.1-0.1,0.3-0.2,0.4c0,0.1-0.1,0.2-0.1,0.3c-0.1,0.2-0.2,0.4-0.3,0.6
	c-0.1,0.2-0.2,0.5-0.3,0.7c-0.1,0.3-0.3,0.6-0.5,1c0,0,0,0-0.1,0.1c0,0.1-0.1,0.1-0.1,0.2c0,0.1-0.1,0.1-0.1,0.2h0
	c0,0.1-0.1,0.2-0.1,0.2c0,0.1-0.1,0.2-0.1,0.2l-0.2,0.4c0,0-0.1,0.1-0.1,0.1c-0.1,0.1-0.1,0.1-0.1,0.2c-0.1,0.1-0.1,0.2-0.2,0.3
	c-0.1,0.2-0.2,0.3-0.3,0.5c-0.1,0.2-0.2,0.3-0.3,0.5c0,0,0,0-0.1,0.1c-0.1,0.1-0.1,0.2-0.2,0.3c-0.2,0.3-0.4,0.6-0.6,0.8
	c-0.2,0.3-0.4,0.5-0.6,0.8c-0.1,0.2-0.3,0.4-0.5,0.6c0,0,0,0-0.1,0.1c-0.1,0.1-0.2,0.3-0.4,0.4c-0.8,0.9-1.6,1.8-2.5,2.6
	c-0.1,0.1-0.3,0.3-0.4,0.4c-0.3,0.3-0.6,0.6-1,0.8c-0.1,0-0.1,0.1-0.1,0.1c-0.1,0.1-0.2,0.1-0.3,0.2c-0.6,0.5-1.2,0.9-1.8,1.4
	c-0.3,0.2-0.5,0.4-0.8,0.5c-0.1,0.1-0.3,0.2-0.4,0.3c-0.1,0.1-0.2,0.2-0.4,0.2c0,0-0.1,0-0.1,0c-0.4,0.3-0.8,0.5-1.2,0.7
	c-0.1,0-0.2,0.1-0.2,0.1c-0.1,0-0.1,0.1-0.2,0.1c-0.1,0.1-0.3,0.1-0.4,0.2c-0.1,0.1-0.3,0.2-0.4,0.2c-0.4,0.2-0.8,0.4-1.2,0.6
	c-0.1,0.1-0.2,0.1-0.4,0.2c0,0,0,0-0.1,0c-0.3,0.2-0.7,0.3-1,0.5c0,0-0.1,0-0.1,0c-0.3,0.1-0.6,0.3-0.9,0.4
	c-0.4,0.2-0.8,0.4-1.2,0.5c-0.3,0.1-0.6,0.2-0.8,0.3c-0.5,0.2-1,0.4-1.5,0.5c-0.5,0.2-1,0.4-1.6,0.5c-0.1,0-0.1,0-0.2,0.1
	c-0.4,0.1-0.7,0.2-1.1,0.3c-0.3,0.1-0.7,0.2-1,0.3c-0.1,0-0.1,0-0.2,0c-0.1,0-0.1,0-0.2,0c-0.5,0.2-1.1,0.3-1.6,0.4
	c-0.7,0.2-1.4,0.3-2.1,0.5c-0.1,0-0.3,0.1-0.4,0.1c-0.3,0.1-0.6,0.1-0.9,0.2c-0.1,0-0.2,0.1-0.4,0.1c0,0,0,0,0,0
	c-0.1,0-0.2,0-0.4,0.1c-0.1,0-0.1,0-0.2,0c0,0,0.2-3,0.2-40.1v-7.3c0-11.2,0-22.5,0-33v-10.8c0-17.4,0.2-32.9-3.6-47.4
	c-4.5-17.6-15.8-27.5-29.8-33.3c14.5,5.5,28.8,14.3,41.2,24.8c3.5,3,6.9,6.1,10.1,9.4c0.6,0.6,1.3,1.3,1.9,2
	c0.2,0.2,0.4,0.5,0.6,0.7c0.8,0.9,1.5,1.7,2.2,2.6c0.2,0.3,0.4,0.6,0.7,0.9c1.1,1.4,2.1,2.9,3.1,4.5c0.5,0.8,0.9,1.5,1.4,2.3
	c0,0,0.1,0.1,0.1,0.2c0.2,0.4,0.5,0.9,0.7,1.3c0.2,0.4,0.5,0.9,0.7,1.3c0.3,0.5,0.6,1.1,0.8,1.6c0.1,0.3,0.3,0.7,0.5,1
	c0,0,0,0,0,0.1c0.2,0.4,0.4,0.9,0.6,1.3c0.4,0.9,0.8,1.8,1.1,2.8c0.2,0.5,0.4,0.9,0.5,1.4c0.2,0.5,0.4,1,0.5,1.5
	c0.3,0.8,0.5,1.6,0.7,2.4c0,0.1,0.1,0.2,0.1,0.4c0.1,0.5,0.2,1,0.4,1.4c0.1,0.5,0.2,1,0.4,1.5c0.1,0.5,0.2,1,0.3,1.4
	c0.3,1.5,0.6,3,0.8,4.5c0.3,2,0.5,4,0.5,6C258.8,420,258.8,421,258.8,422L258.8,422z"/>
<path class="st0" d="M184.7,360.1c0,23.8-21.3,43.1-47.5,43.1s-47.5-19.3-47.5-43.1c0-6.5,1.6-12.7,4.5-18.2c3,1.4,6.1,2.6,9.3,3.6
	c-0.2,0.5-0.5,0.9-0.7,1.4c-0.1,0.2-0.2,0.5-0.3,0.8c-0.1,0.2-0.2,0.5-0.3,0.8c-0.1,0.3-0.2,0.5-0.3,0.8c-0.1,0.3-0.2,0.5-0.3,0.8
	c-0.1,0.3-0.2,0.5-0.3,0.8c-0.1,0.3-0.2,0.5-0.2,0.8c-0.1,0.3-0.2,0.5-0.2,0.8c-0.4,1.4-0.6,2.8-0.8,4.2c-0.1,1.1-0.2,2.3-0.2,3.5
	c0,1.9,0.2,3.8,0.5,5.7c0.1,0.6,0.2,1.2,0.4,1.8c0.1,0.4,0.2,0.7,0.3,1c0.2,0.6,0.4,1.2,0.6,1.8c0.2,0.6,0.4,1.2,0.7,1.8
	c0.4,0.9,0.8,1.7,1.2,2.5c0,0.1,0.1,0.1,0.1,0.2c0.1,0.2,0.2,0.4,0.4,0.6c0.1,0.2,0.3,0.5,0.4,0.7c0.3,0.5,0.6,1,0.9,1.4
	c0.1,0.2,0.3,0.4,0.4,0.6c0.2,0.3,0.4,0.5,0.6,0.8c0.2,0.2,0.3,0.5,0.5,0.7c0.2,0.2,0.3,0.4,0.5,0.7c0.1,0.2,0.3,0.4,0.5,0.5
	c2.6,3,5.8,5.6,9.3,7.7c0.5,0.3,1,0.6,1.5,0.9c1.7,0.9,3.4,1.6,5.2,2.2c0.4,0.1,0.7,0.2,1.1,0.4c0.4,0.1,0.8,0.2,1.2,0.4
	c1.5,0.4,3.1,0.8,4.6,1c0.5,0.1,1.1,0.1,1.6,0.2c0.4,0,0.7,0.1,1.1,0.1c1.3,0.1,2.5,0.2,3.8,0.2s2.6-0.1,3.8-0.2
	c0.3,0,0.6-0.1,0.9-0.1c1.1-0.1,2.2-0.3,3.2-0.5c1.1-0.2,2.1-0.5,3.1-0.8c0.4-0.1,0.8-0.2,1.3-0.4c0.4-0.1,0.7-0.2,1.1-0.4
	c2.8-1,5.3-2.2,7.7-3.7c0.3-0.2,0.6-0.4,0.9-0.6c0.3-0.2,0.5-0.4,0.8-0.5c0.1-0.1,0.2-0.1,0.2-0.2c0.3-0.2,0.5-0.4,0.8-0.6
	c0.2-0.1,0.4-0.3,0.6-0.5c0.2-0.2,0.4-0.4,0.7-0.5c2.7-2.2,5-4.7,6.8-7.5c0.2-0.2,0.3-0.5,0.5-0.7c0.1-0.2,0.3-0.5,0.4-0.7
	c0.1-0.2,0.3-0.5,0.4-0.7c0.3-0.5,0.5-1,0.8-1.5c0.1-0.2,0.2-0.5,0.4-0.7c0.5-1,0.9-2.1,1.3-3.2c0.1-0.2,0.2-0.5,0.2-0.8
	c0.3-1,0.6-2,0.8-3c0-0.2,0.1-0.4,0.1-0.6c0.1-0.4,0.1-0.8,0.2-1.2c0.1-0.4,0.1-0.7,0.1-1.1c0.1-0.8,0.1-1.5,0.2-2.3
	c0-0.4,0-0.7,0-1.1c0-0.4,0-0.9,0-1.3v0c0-0.4,0-0.9-0.1-1.3c-0.1-0.6-0.1-1.2-0.2-1.8c-0.1-0.4-0.1-0.7-0.2-1.1
	c-0.1-0.3-0.1-0.6-0.2-0.9c-0.4-2-1-3.9-1.8-5.8c-0.1-0.4-0.3-0.7-0.5-1.1c-0.1-0.3-0.3-0.7-0.5-1c3.2-1,6.3-2.2,9.3-3.5
	C183.2,347.8,184.7,353.8,184.7,360.1L184.7,360.1z"/>
<path class="st0" d="M252.4,225.9c-2.3-6.5-9-11.2-16.9-11.3c0-1.5-0.1-3-0.2-4.5c-0.1-0.9-0.1-1.8-0.2-2.7
	c-25.7,3.3-49.6-25.4-63.3-52.2c-5.9,7.5-13.7,14.8-23,21h0c-13.7,9.3-30.7,16.2-49.7,18.1c-2.1,0.2-4.2,0.4-6.1,0.6
	c-2.4-1.7-3.3-4.4-3.2-8c0.1-3.4,0.9-7.6,2.1-12.4C80.9,181,78,189.7,76.2,195.1l0,0c-0.2,0.5-0.3,1-0.5,1.4
	c-0.6,0.1-1.1,0.1-1.7,0.1c0,0,0,0,0,0c-4.2,0.4-7.9,0.7-11.1,1c-11.8,1.1-18.7,4.1-22.5,6.6l0,0c-0.1,0.8-0.2,1.6-0.3,2.3l0,0
	c-0.3,2.7-0.5,5.4-0.6,8.1c-8.7,1.2-15.4,7.9-15.4,16.1s6.8,14.9,15.5,16.1c0,0.9,0,1.8,0,2.7c0,2.3,0.1,4.6,0.3,6.9c0,0,0,0,0,0
	c-0.2,2.3-0.3,4.6-0.3,6.9c0,15,4.2,29.2,11.7,41.6c8.5,14.1,21.3,25.9,36.7,34c0.1,0,0.1,0,0.2,0c0.1,0,0.2,0,0.3-0.1
	c-0.2,0-0.3,0.1-0.5,0.1c0,0,0.1,0,0.1,0.1h0c1.8,1,3.8,1.9,5.7,2.8c3,1.4,6.1,2.6,9.3,3.6c-0.2,0.5-0.5,0.9-0.7,1.4
	c-0.1,0.3-0.2,0.5-0.3,0.8c-0.1,0.2-0.2,0.5-0.3,0.8c-0.1,0.3-0.2,0.5-0.3,0.8c-0.1,0.3-0.2,0.5-0.3,0.8c-0.1,0.3-0.2,0.5-0.3,0.8
	c-0.1,0.3-0.2,0.5-0.2,0.8c-0.1,0.3-0.2,0.5-0.2,0.8c-0.4,1.4-0.6,2.8-0.8,4.2c-0.1,1.1-0.2,2.3-0.2,3.5c0,1.9,0.2,3.8,0.5,5.7
	c0.1,0.6,0.2,1.2,0.4,1.8c0.1,0.4,0.2,0.7,0.3,1c0.2,0.6,0.4,1.2,0.6,1.8c0.2,0.6,0.4,1.2,0.7,1.8c0.4,0.9,0.8,1.7,1.2,2.5
	c0,0.1,0.1,0.1,0.1,0.2c0.1,0.2,0.2,0.4,0.4,0.6c0.1,0.2,0.3,0.5,0.4,0.7c0.3,0.5,0.6,1,0.9,1.4c0.1,0.2,0.3,0.4,0.4,0.6
	c0.2,0.3,0.4,0.5,0.6,0.8c0.2,0.2,0.3,0.5,0.5,0.7c0.2,0.2,0.3,0.4,0.5,0.7c0.2,0.2,0.3,0.4,0.5,0.5c2.6,3,5.8,5.6,9.3,7.7
	c0.5,0.3,1,0.6,1.5,0.9c1.7,0.9,3.4,1.6,5.2,2.2c0.4,0.1,0.7,0.2,1.1,0.4c0.4,0.1,0.8,0.2,1.2,0.4c1.5,0.4,3,0.8,4.6,1
	c0.5,0.1,1.1,0.1,1.6,0.2c0.4,0,0.7,0.1,1.1,0.1c1.3,0.1,2.5,0.2,3.8,0.2s2.6-0.1,3.8-0.2c0.3,0,0.6-0.1,0.9-0.1
	c1.1-0.1,2.2-0.3,3.2-0.5c1.1-0.2,2.1-0.5,3.1-0.8c0.4-0.1,0.8-0.2,1.3-0.4c0.4-0.1,0.7-0.2,1.1-0.4c2.8-1,5.3-2.2,7.7-3.7
	c0.3-0.2,0.6-0.4,0.9-0.6c0.3-0.2,0.5-0.4,0.8-0.5c0.1-0.1,0.2-0.1,0.2-0.2c0.3-0.2,0.5-0.4,0.8-0.6c0.2-0.1,0.4-0.3,0.6-0.5
	c0.2-0.2,0.4-0.4,0.7-0.5c2.7-2.2,5-4.7,6.8-7.5c0.2-0.2,0.3-0.5,0.5-0.7c0.1-0.2,0.3-0.5,0.4-0.7c0.1-0.2,0.3-0.5,0.4-0.7
	c0.3-0.5,0.5-1,0.8-1.5c0.1-0.2,0.2-0.5,0.4-0.7c0.5-1,0.9-2.1,1.3-3.2c0.1-0.2,0.2-0.5,0.2-0.8c0.3-1,0.6-2,0.8-3
	c0-0.2,0.1-0.4,0.1-0.6c0.1-0.4,0.1-0.8,0.2-1.2c0.1-0.4,0.1-0.7,0.1-1.1c0.1-0.8,0.1-1.5,0.2-2.3c0-0.4,0-0.7,0-1.1
	c0-0.4,0-0.9,0-1.3v0c0-0.4-0.1-0.9-0.1-1.3c-0.1-0.6-0.1-1.2-0.2-1.8c-0.1-0.4-0.1-0.7-0.2-1.1c-0.1-0.3-0.1-0.6-0.2-0.9
	c-0.4-2-1-3.9-1.8-5.8c-0.1-0.4-0.3-0.7-0.5-1.1c-0.1-0.3-0.3-0.7-0.5-1c3.2-1,6.3-2.2,9.3-3.5c1.7-0.7,3.3-1.5,4.9-2.3
	c0.1,0,0.1,0,0.1-0.1c-0.1,0-0.1,0-0.2-0.1c0.1,0,0.1,0,0.2,0.1c16.2-8,29.6-20.1,38.4-34.6c1-1.6,2-3.3,2.8-5
	c5.9-11.2,9.1-23.8,9.1-37c0-0.8,0-1.6,0-2.5c0-1.5-0.1-3-0.3-4.4c0,0,0,0,0,0c0.2-2.3,0.3-4.6,0.3-6.9c0-0.9,0-1.7,0-2.5
	c2.1-0.1,4.2-0.4,6.1-1.1c6.8-2.3,11.6-8.2,11.6-15.2C253.3,229.1,253,227.5,252.4,225.9L252.4,225.9z M99.6,236.1
	c0,3.4-2.8,6.1-6.2,6.1H92c-3.4,0-6.1-2.8-6.1-6.1v-9.6c0-3.4,2.8-6.1,6.1-6.1h1.4c3.4,0,6.2,2.8,6.2,6.1V236.1z M151.6,307
	c-3.5,2.4-7.9,3.8-12.8,3.8s-9.3-1.4-12.8-3.8c-4.7-3.2-7.7-8-7.7-13.5h40.9C159.2,299,156.3,303.9,151.6,307L151.6,307z
	 M192.6,236.1c0,3.4-2.8,6.1-6.1,6.1h-1.4c-3.4,0-6.1-2.8-6.1-6.1v-9.6c0-3.4,2.8-6.1,6.1-6.1h1.4c3.4,0,6.1,2.8,6.1,6.1V236.1z"/>
<path class="st0" d="M265.7,196.9c0.3,3,0.4,6.1,0.4,9.2c0,22.4-6.2,42.5-17.1,59.4c-0.4,1.3-1,2.6-1.9,4
	c-8.9,13.5,1.6,25.7,1.6,25.7s-10.7,6.8-23,9.6c-0.8,0.2-1.6,0.3-2.4,0.5c1-1.6,2-3.3,2.8-5c5.9-11.2,9.1-23.8,9.1-37
	c0-0.8,0-1.6,0-2.5c0-1.5-0.1-3-0.3-4.4c0,0,0,0,0,0c0.2-2.3,0.3-4.6,0.3-6.9c0-0.9,0-1.7,0-2.5c2.1-0.1,4.2-0.4,6.1-1.1
	c6.8-2.3,11.6-8.2,11.6-15.2c0-1.7-0.3-3.4-0.9-4.9c-2.3-6.5-9-11.2-16.9-11.3c0-1.5-0.1-3-0.2-4.5c-0.1-0.9-0.1-1.8-0.2-2.7
	c-25.7,3.3-49.6-25.4-63.3-52.2c-5.9,7.5-13.7,14.8-23,21h0c-13.7,9.3-30.7,16.2-49.7,18.1c-2.1,0.2-4.2,0.4-6.1,0.6
	c-2.4-1.7-3.3-4.4-3.2-8c0.1-3.4,0.9-7.6,2.1-12.4c-10.8,6.5-13.8,15.2-15.6,20.7l0,0c-0.2,0.5-0.3,1-0.5,1.4
	c-0.6,0.1-1.1,0.1-1.7,0.1c0,0,0,0,0,0c-4.2,0.4-7.9,0.7-11.1,1c-11.8,1.1-18.7,4.1-22.5,6.6l0,0c-0.1,0.8-0.2,1.6-0.3,2.3l0,0
	c-0.3,2.7-0.5,5.4-0.6,8.1c-8.7,1.2-15.4,7.9-15.4,16.1s6.8,14.9,15.5,16.1c0,0.9,0,1.8,0,2.7c0,2.3,0.1,4.6,0.3,6.9c0,0,0,0,0,0
	c-0.2,2.3-0.3,4.6-0.3,6.9c0,15,4.2,29.2,11.7,41.6c-12.4-2.8-23.2-9.7-23.2-9.7s10.5-12.2,1.6-25.7c-0.2-0.3-0.4-0.6-0.6-0.9
	c0,0,0,0,0,0C19,255,12.3,239.3,9.6,222.5c-0.2-1.1-0.3-2.2-0.5-3.4c-0.5-4.3-0.8-8.6-0.8-13c0-3.6,0.2-7.2,0.6-10.8
	c-0.4-3.6-0.6-7.2-0.6-10.8c0-50.7,36.6-93.8,87.5-109.3c0.5-0.2,0.9-0.3,1.4-0.4c9.1-2.6,18.6-4.4,28.5-5.2c3-0.2,6-0.4,9-0.4h0
	c0.8,0,1.7-0.1,2.5,0c30.8,2.7,33.5,6.8,37.7,9.3c5.8-4.9,9.7-13.2,8.8-22.3c6.6,5.7,8.2,15.9,4.3,25.2c31.6,6,66.1,41.4,75.2,78.5
	c0,0,0,0.1,0,0.1c0.4,1.8,0.8,3.5,1.1,5.3l0,0c0.6,3.3,1.1,6.7,1.4,10.2c0.3,3,0.4,6.1,0.4,9.2c0,3.6-0.2,7.2-0.6,10.7
	C265.6,195.8,265.7,196.4,265.7,196.9L265.7,196.9z"/>
<line class="st1" x1="48.8" y1="513.5" x2="222.1" y2="513.7"/>
<line class="st0" x1="84.4" y1="340.4" x2="88.1" y2="339.1"/>
<line class="st0" x1="189" y1="341.8" x2="185" y2="340.2"/>
</svg>
