<?xml version="1.0" encoding="UTF-8"?>
<svg id="Camada_8" xmlns="http://www.w3.org/2000/svg" version="1.1" viewBox="0 0 566.9 566.9">
  <!-- Generator: Adobe Illustrator 29.6.1, SVG Export Plug-In . SVG Version: 2.1.1 Build 9)  -->
  <defs>
    <style>
      .st0, .st1 {
        fill: none;
        stroke: #6d8a61;
        stroke-linecap: round;
        stroke-linejoin: round;
        stroke-width: 2px;
      }

      .st1 {
        isolation: isolate;
        opacity: .2;
      }
    </style>
  </defs>
  <polygon class="st1" points="538.6 517.2 533.1 528.9 19.4 528.9 13.9 517.2 538.6 517.2"/>
  <polygon class="st0" points="431.9 180.9 420.2 185 419.6 185.2 417.4 185.9 417.6 185 420.4 171.6 420.9 171.6 425.5 175.5 431.9 180.9"/>
  <path class="st0" d="M538.7,188.6v328.9H14V171.6h341c1.7,4.6,3.8,9.1,6.1,13.4,1.9,3.4,4,6.7,6.3,9.9,2.8,3.8,5.8,7.5,9.1,10.9,2.6,2.8,5.5,5.4,8.4,7.8,4.4,3.7,9.2,7,14.2,9.9,6.4,3.7,13.2,6.7,20.4,9,1.4.4,2.8.9,4.2,1.2,5.1,1.4,10.4,2.4,15.7,3,3.8.4,7.6.6,11.5.6,17.5,0,33.9-4.3,48.3-11.9v-2h3.6c4.8-2.8,9.3-5.9,13.6-9.4,3.2-2.6,6.2-5.4,9-8.4,5-5.2,9.5-11,13.2-17.1Z"/>
  <path class="st0" d="M351.8,161c.9,3.6,2,7.1,3.2,10.6H14v-55.1c0-.2,0-.5,0-.8v-.2c0-1.7.2-3.4.6-5.1,0-.3.1-.6.2-.9.2-.9.4-1.7.7-2.5.2-.7.4-1.1.4-1.2,0,0,0,0,0,0,4.3-11.2,15.1-19.2,27.9-19.2h319.5c-3.7,6-6.8,12.5-9.1,19.3-3.4,10-5.3,20.7-5.3,31.8s1,15.8,2.8,23.3Z"/>
  <polygon class="st0" points="420.9 171.6 420.4 171.6 420.5 171.2 420.9 171.6"/>
  <polygon class="st0" points="460.4 87.9 445.3 87.9 446 86.6 459.7 86.6 460.4 87.9"/>
  <path class="st0" d="M349,137.7c0,8,1,15.8,2.8,23.3H14s0-2.1,0-5.5v-13c0-9.9,0-21.1,0-26.8v-.2c0-1.8.3-3.5.6-5.1,0-.3.1-.6.2-.9.2-1,.5-1.8.7-2.5.2-.7.4-1.1.4-1.2,0,0,0,0,0,0h338.3c-3.4,10.1-5.3,20.8-5.3,31.9Z"/>
  <path class="st0" d="M376.5,205.8H14v-34.2h341c1.7,4.6,3.8,9.1,6.1,13.4,1.9,3.4,4,6.7,6.3,9.9,2.8,3.8,5.8,7.5,9.1,10.9Z"/>
  <polygon class="st0" points="431.9 180.9 420.2 185 419.6 185.2 417.4 185.9 417.6 185 420.4 171.6 420.9 171.6 425.5 175.5 431.9 180.9"/>
  <path class="st0" d="M538.7,188.6v17.1h-13.2c5-5.2,9.5-11,13.2-17.1Z"/>
  <path class="st0" d="M526.8,205.8v300.1H24V205.8h352.5c2.6,2.8,5.5,5.4,8.4,7.8,4.4,3.7,9.2,7,14.2,9.9,6.4,3.7,13.2,6.7,20.4,9,1.4.4,2.8.9,4.2,1.2,5.1,1.4,10.4,2.4,15.7,3,3.8.4,7.6.6,11.5.6,17.5,0,33.9-4.3,48.3-11.9v-2h3.6c4.8-2.8,9.3-5.9,13.6-9.4,3.2-2.6,6.2-5.4,9-8.4h1.3Z"/>
  <path class="st0" d="M399.1,223.5H36.3v-38.6h324.8c1.9,3.4,4,6.7,6.3,9.9,2.8,3.8,5.8,7.5,9.1,10.9,2.6,2.8,5.5,5.4,8.4,7.8,4.4,3.7,9.2,7,14.2,9.9Z"/>
  <polygon class="st0" points="420.2 185 419.6 185.2 417.4 185.9 417.6 185 420.2 185"/>
  <path class="st0" d="M516.4,214.2v9.4h-13.6c4.8-2.8,9.3-5.9,13.6-9.4Z"/>
  <path class="st0" d="M516.4,223.5v38.6H36.3v-38.6h362.8c6.4,3.7,13.2,6.7,20.4,9,1.4.4,2.8.9,4.2,1.2,5.1,1.4,10.4,2.4,15.7,3,3.8.4,7.6.6,11.5.6,17.5,0,33.9-4.3,48.3-11.9v-2h17.2Z"/>
  <rect class="st0" x="36.3" y="262.1" width="480.1" height="38.6"/>
  <rect class="st0" x="36.3" y="339.2" width="480.1" height="38.6"/>
  <rect class="st0" x="36.3" y="377.8" width="480.1" height="38.6"/>
  <rect class="st0" x="36.3" y="416.4" width="480.1" height="38.6"/>
  <rect class="st0" x="36.3" y="455" width="480.1" height="38.6"/>
  <rect class="st0" x="53.1" y="194.9" width="59.8" height="56.5"/>
  <rect class="st0" x="53.1" y="272" width="59.8" height="18.8"/>
  <rect class="st0" x="149.3" y="233.4" width="59.8" height="54.8"/>
  <rect class="st0" x="53.1" y="349.2" width="59.8" height="56.5"/>
  <rect class="st0" x="53.1" y="426.3" width="59.8" height="18.8"/>
  <rect class="st0" x="149.3" y="194.9" width="59.8" height="18.8"/>
  <rect class="st0" x="245.5" y="194.9" width="59.8" height="93.4"/>
  <rect class="st0" x="149.3" y="426.3" width="59.8" height="18.8"/>
  <rect class="st0" x="149.3" y="387.7" width="59.8" height="18.8"/>
  <rect class="st0" x="149.3" y="349.2" width="59.8" height="18.8"/>
  <rect class="st0" x="245.5" y="349.2" width="59.8" height="18.8"/>
  <path class="st0" d="M384.9,213.6h-43.1v-18.8h25.7c2.8,3.8,5.8,7.5,9.1,10.9,2.6,2.8,5.5,5.4,8.4,7.8Z"/>
  <rect class="st0" x="341.8" y="233.4" width="59.8" height="18.8"/>
  <rect class="st0" x="341.8" y="272" width="59.8" height="18.8"/>
  <rect class="st0" x="341.8" y="464.9" width="59.8" height="18.8"/>
  <rect class="st0" x="341.8" y="348.6" width="59.8" height="95.6"/>
  <rect class="st0" x="245.5" y="387.7" width="59.8" height="18.8"/>
  <rect class="st0" x="245.5" y="426.3" width="59.8" height="58.1"/>
  <rect class="st0" x="149.3" y="464.9" width="59.8" height="18.8"/>
  <rect class="st0" x="53.1" y="464.9" width="59.8" height="18.8"/>
  <path class="st0" d="M499.3,225.5v25.8h-59.8v-14.6c3.8.4,7.6.6,11.5.6,17.5,0,33.9-4.3,48.3-11.9Z"/>
  <rect class="st0" x="439.5" y="272" width="59.8" height="18.8"/>
  <rect class="st0" x="439.5" y="349.2" width="59.8" height="56.5"/>
  <rect class="st0" x="439.5" y="426.3" width="59.8" height="18.8"/>
  <rect class="st0" x="439.5" y="464.9" width="59.8" height="18.8"/>
  <rect class="st0" x="129" y="185" width="4.2" height="308.6"/>
  <rect class="st0" x="225.9" y="185" width="4.2" height="308.6"/>
  <rect class="st0" x="322.7" y="185" width="4.2" height="308.6"/>
  <polygon class="st0" points="420.2 185 419.6 185.2 419.6 185 420.2 185"/>
  <path class="st0" d="M423.7,233.8v259.8h-4.2V232.5c1.4.4,2.8.9,4.2,1.2Z"/>
  <rect class="st0" x="36.3" y="300.7" width="480.1" height="38.6"/>
  <rect class="st0" x="36.3" y="335.8" width="480.1" height="3.5"/>
  <rect class="st0" x="36.3" y="300.2" width="480.1" height="3.5"/>
  <path class="st0" d="M120.3,130.1c-4,0-7.3,3.3-7.3,7.3s3.3,7.3,7.3,7.3,7.3-3.3,7.3-7.3-3.3-7.3-7.3-7.3Z"/>
  <polygon class="st0" points="538.8 517.6 533.3 522.8 19.7 522.8 14.2 517.6 538.8 517.6"/>
  <g>
    <path class="st0" d="M451,38c-37.2,0-69.8,19.5-87.6,48.6-3.7,6-6.8,12.5-9.1,19.3-3.4,10-5.3,20.7-5.3,31.8s1,15.8,2.8,23.3c.9,3.6,2,7.1,3.2,10.6,1.7,4.6,3.8,9.1,6.1,13.4,1.9,3.4,4,6.7,6.3,9.9,2.8,3.8,5.8,7.5,9.1,10.9,2.6,2.8,5.5,5.4,8.4,7.8,4.4,3.7,9.2,7,14.2,9.9,6.4,3.7,13.2,6.7,20.4,9,1.4.4,2.8.9,4.2,1.2,5.1,1.4,10.4,2.4,15.7,3,3.8.4,7.6.6,11.5.6,17.5,0,33.9-4.3,48.3-11.9v-2h3.6c4.8-2.8,9.3-5.9,13.6-9.4,3.2-2.6,6.2-5.4,9-8.4,5-5.2,9.5-11,13.2-17.1,9.1-14.9,14.3-32.3,14.3-51,0-55-45.7-99.7-102-99.7ZM537.8,141.4c-.3,6.8-1.4,13.4-3.2,19.6-1.1,3.6-2.4,7.1-3.9,10.6-3.6,8-8.4,15.5-14.3,22-3.2,3.6-6.8,6.9-10.6,10-1,.8-2,1.5-3,2.3-1.2.9-2.4,1.7-3.6,2.5-13.8,9-30.4,14.3-48.3,14.3s-7.7-.2-11.5-.7c-5.4-.7-10.7-1.9-15.7-3.5-1.4-.5-2.8-.9-4.2-1.5-6.4-2.4-12.4-5.6-18-9.3-.8-.6-1.7-1.1-2.5-1.7-4.5-3.2-8.6-6.9-12.3-10.9-2.9-3.1-5.6-6.4-8-9.9-2.9-4.2-5.4-8.7-7.5-13.4-1.5-3.4-2.8-6.9-3.9-10.6-2.2-7.4-3.3-15.2-3.3-23.3s2.2-22,6.3-31.8c2.9-7,6.6-13.4,11.2-19.3,15.9-20.5,41.1-33.8,69.4-33.8s42.1,8,57.5,21.2c5.5,4.8,10.5,10.2,14.6,16.2t0,0c3.4,4.9,6.3,10.2,8.6,15.8,4,9.8,6.3,20.5,6.3,31.7s0,2.5,0,3.7Z"/>
    <path class="st0" d="M502.8,223.5c-1.2.7-2.4,1.3-3.6,2v-2h3.6Z"/>
    <polygon class="st0" points="431.9 180.9 420.2 185 419.6 185.2 417.4 185.9 417.6 185 420.4 171.6 420.5 171.2 420.9 171.6 425.5 175.5 431.9 180.9"/>
    <polygon class="st0" points="460.4 87.9 445.3 87.9 446 86.6 452.9 74.8 459.7 86.6 460.4 87.9"/>
    <path class="st0" d="M531.6,106c-2.3-5.6-5.2-10.9-8.6-15.8t0,0c-4.2-6-9.1-11.4-14.6-16.2-15.3-13.2-35.4-21.2-57.5-21.2s-53.6,13.3-69.4,33.8c-4.5,5.9-8.3,12.4-11.2,19.3-4.1,9.8-6.3,20.5-6.3,31.8s1.2,15.9,3.3,23.3c1,3.6,2.3,7.1,3.9,10.6,2.1,4.7,4.6,9.2,7.5,13.4,2.4,3.5,5.1,6.8,8,9.9,3.7,4,7.9,7.7,12.3,10.9l2.5,1.7c5.6,3.8,11.6,6.9,18,9.3,1.4.5,2.8,1,4.2,1.5,5,1.6,10.3,2.8,15.7,3.5,3.8.5,7.6.7,11.5.7,17.9,0,34.5-5.3,48.3-14.3,1.2-.8,2.4-1.6,3.6-2.5,1-.7,2-1.5,3-2.3,3.8-3,7.3-6.4,10.6-10,5.8-6.5,10.7-13.9,14.3-22,1.5-3.4,2.8-6.9,3.9-10.6,1.8-6.3,2.9-12.9,3.2-19.6,0-1.2,0-2.5,0-3.7,0-11.2-2.2-21.9-6.3-31.7ZM420.2,185l-.6.2-2.1.8.2-1,2.8-13.4v-.4c0,0,.5.4.5.4l4.6,3.9,6.3,5.4-11.7,4.1ZM445.3,87.9l.7-1.2,6.8-11.8,6.8,11.8.7,1.2h-15.1Z"/>
    <polygon class="st0" points="431.9 180.9 420.2 185 419.6 185.2 417.4 185.9 417.6 185 420.4 171.6 420.5 171.2 420.9 171.6 425.5 175.5 431.9 180.9"/>
    <polygon class="st0" points="460.4 87.9 445.3 87.9 446 86.6 452.9 74.8 459.7 86.6 460.4 87.9"/>
    <g>
      <path class="st0" d="M366,141.4h15.1"/>
      <line class="st0" x1="537.8" y1="141.4" x2="524.7" y2="141.4"/>
    </g>
    <g>
      <path class="st0" d="M400.1,206.5c3-3.7,9.8-12.2,9.8-12.2"/>
      <line class="st0" x1="400.5" y1="205.8" x2="400.5" y2="205.8"/>
      <path class="st0" d="M499.6,84.8l.6-.7c2.9-3.6,8.5-9.8,8.5-9.8"/>
    </g>
    <g>
      <path class="st0" d="M498.4,194.9c-.8-1-1.3-1.6-1.3-1.6"/>
      <path class="st0" d="M497.1,193.3c.1.1,8.7,10.1,8.8,10.2"/>
      <path class="st0" d="M404.9,85.8l-.6-.7c-3-3.5-9.1-10.6-9.1-10.6"/>
    </g>
    <polygon class="st0" points="460.4 87.9 445.3 87.9 446 86.6 452.9 74.8 459.7 86.6 460.4 87.9"/>
    <polygon class="st0" points="431.9 180.9 420.2 185 419.6 185.2 417.4 185.9 417.6 185 420.4 171.6 420.5 171.2 420.9 171.6 425.5 175.5 431.9 180.9"/>
    <line class="st0" x1="451.3" y1="208.2" x2="451.3" y2="222.6"/>
    <line class="st0" x1="453.3" y1="54.7" x2="453.3" y2="66.8"/>
  </g>
  <polyline class="st0" points="425.5 175.5 453.3 141.4 453.3 87.9"/>
</svg>