<svg id="4659528" viewBox="0 0 397 79" xmlns="http://www.w3.org/2000/svg" xmlns:xlink="http://www.w3.org/1999/xlink"><defs><marker id="NONE" viewBox="0 0 10 10" refX="5" refY="5" markerWidth="1" markerHeight="1" orient="auto-start-reverse" markerUnits="strokeWidth"></marker><marker id="ROUND" viewBox="0 0 10 10" refX="5" refY="5" markerWidth="1" markerHeight="1" orient="auto-start-reverse" markerUnits="strokeWidth"><circle r="5" cx="5" cy="5" stroke="context-stroke" fill="context-fill"></circle></marker><marker id="SQUARE" viewBox="0 0 10 10" refX="0" refY="5" markerWidth="1" markerHeight="1" orient="auto-start-reverse" markerUnits="strokeWidth"><rect x="0" y="0" width="5" height="10" stroke="context-stroke" fill="context-fill"></rect></marker><marker id="ARROW_LINES" viewBox="0 0 10 10" refX="4" refY="5" markerWidth="10" markerHeight="10" orient="auto-start-reverse" markerUnits="strokeWidth"><path d="M3.3095 4.5L0.3255 1.457C0.1315 1.26 0.1355 0.942998 0.3315 0.749998C0.5295 0.556998 0.8455 0.559998 1.0385 0.756998L4.8575 4.65C5.0475 4.844 5.0475 5.156 4.8575 5.35L1.0385 9.243C0.8455 9.44 0.5285 9.443 0.3315 9.25C0.1345 9.057 0.1315 8.74 0.3255 8.543L3.3095 5.5V4.5Z"></path></marker><marker id="ARROW_EQUILATERAL" viewBox="0 0 10 10" refX="6.5" refY="5" markerWidth="6" markerHeight="6" orient="auto-start-reverse" markerUnits="strokeWidth"><path d="M8 5L0.5 9.33013L0.5 0.669873L8 5Z"></path></marker><marker id="TRIANGLE_FILLED" viewBox="0 0 10 10" refX="5" refY="5" markerWidth="6" markerHeight="6" orient="auto-start-reverse" markerUnits="strokeWidth"><path d="M-5.96244e-08 5L7.5 9.33013L7.5 0.669873L-5.96244e-08 5Z"></path></marker><marker id="CIRCLE_FILLED" viewBox="0 0 10 10" refX="5" refY="5" markerWidth="6" markerHeight="6" orient="auto-start-reverse" markerUnits="strokeWidth"><circle r="3.5" cx="5" cy="5"></circle></marker><marker id="DIAMOND_FILLED" viewBox="0 0 10 10" refX="5" refY="5" markerWidth="6" markerHeight="6" orient="auto-start-reverse" markerUnits="strokeWidth"><rect x="-0.000488281" y="5" width="7.07138" height="7.07138" transform="rotate(-45 -0.000488281 5)"></rect></marker></defs><g transform="matrix(1,0,0,1,0,0)"><g id="4659528" opacity="1" style="mix-blend-mode:normal"><g><defs><clipPath id="4659528_clipPath" x="-50%" y="-50%" width="200%" height="200%"><path d="M0,0h397v0v79v0h-397v0v-79z" fill="white" clip-rule="nonzero"></path></clipPath></defs><g clip-path="url(#4659528_clipPath)"><g transform="matrix(1,0,0,1,0,0)"><g id="4659529" opacity="1" style="mix-blend-mode:normal"><g><g><g transform="matrix(1,0,0,1,0,78.4612)"><g id="4659530" opacity="0" style="mix-blend-mode:normal"><g><g><path id="4659530_fill_path" d="M68,31.96c1.29,0 2.15,0.97 2.15,1.83v41c0,0.97 -0.86,1.93999 -2.15,1.93999h-10.44c-1.18,0 -2.37,-0.74999 -2.37,-1.82999c-0.11,-2.15 -0.21,-1.61 -0.21,-3.87c-4.95,4.52 -10.98,6.46 -18.51,6.46c-20.44,-0.01 -36.47,-14.22 -36.47,-38.75c0,-22.38 17.11,-38.74 38.09,-38.74c10.33,0 20.23,4.52 26.9,11.08c0.54,0.75 0.54,2.26 -0.22,2.9l-8.39,8.29c-0.86,0.75 -2.26,0.65 -2.91,-0.11c-3.98,-3.98 -9.47,-6.46 -15.39,-6.46c-11.84,0 -21.52,8.5 -21.52,23.03c0,16.14 9.68,23.03 21.52,23.03c6.03,0 11.51,-2.69001 15.6,-6.99001v-8.07h-10.55c-1.4,0 -2.37,-0.74999 -2.37,-1.82999v-11.08c0,-0.86 0.97,-1.83 2.37,-1.83h24.86z" fill-rule="nonzero" fill="rgb(244, 244, 244)" fill-opacity="1" style="mix-blend-mode:NORMAL"></path></g></g></g></g><g transform="matrix(1,0,0,1,85.22,77.38)"><g id="4659531" opacity="0" style="mix-blend-mode:normal"><g><g><path id="4659531_fill_path" d="M16.47,15.39v14.42h27.55c1.29,0 2.14999,0.97 2.14999,1.94v11.62c0,0.86 -0.85999,1.83 -2.14999,1.83h-27.55v14.42h33.45999c1.4,0 2.37001,0.97 2.37001,1.94v11.94c0,0.86 -0.97001,1.83 -2.37001,1.83h-47.66999c-1.4,0 -2.26,-0.97 -2.26,-1.83v-71.56c0,-0.97 0.86,-1.94 2.26,-1.94h46.80999c1.29,0 2.26001,0.97 2.26001,1.94v11.51c0,0.97 -0.97001,1.94 -2.26001,1.94z" fill-rule="nonzero" fill="rgb(244, 244, 244)" fill-opacity="1" style="mix-blend-mode:NORMAL"></path></g></g></g></g><g transform="matrix(1,0,0,1,142.65,79.42)"><g id="4659532" opacity="0" style="mix-blend-mode:normal"><g><g><g transform="matrix(1,0,0,1,0,0)"><g id="4659533" opacity="1" style="mix-blend-mode:normal"><g><g><path id="4659533_fill_path" d="M77.43294,78.20116c-0.64,1.63 -3.33,1.63 -3.98,0l-20.43001,-53.77c-6.67,17.92 -13.54999,35.85 -20.31999,53.77c-0.65,1.63 -3.66,1.63 -4.19,-0.11l0.11,0.11l-28.49,-75.17c-0.54,-1.2 0.65001,-2.61 2.04001,-2.61h12.89999c0.97,0 1.92999,0.54 2.03999,1.3c4.73,13.04 8.82,25.09 13.55,38.24l14.41001,-38.35v0.11c0.22,-0.76 1.07999,-1.3 2.03999,-1.3h11.93001c0.97,0 1.92999,0.54 2.14999,1.3v-0.11l14.3,38.56l13.55,-38.46c0.22,-0.76 1.17999,-1.3 2.14999,-1.3h12.79001c1.83,0 2.68999,1.3 2.14999,2.61l-28.7,75.17zM130.85294,16.56116v15.12h27.85999c1.31,0 2.18002,1.02 2.18002,2.03v12.19c0,0.9 -0.87002,1.92 -2.18002,1.92h-27.85999v15.12h33.85001c1.42,0 2.38998,1.02 2.38998,2.03v12.53c0,0.9 -0.97998,1.92 -2.38998,1.92h-48.20999c-1.41,0 -2.29001,-1.02 -2.29001,-1.92v-75.05c0,-1.02 0.87001,-2.03 2.29001,-2.03h47.34c1.31,0 2.28998,1.02 2.28998,2.03v12.07c0,1.02 -0.97998,2.03 -2.28998,2.03h-32.98001zM221.61295,39.23116c10.44,5.06 9.89999,16.07 9.89999,16.07c0,22.37 -22.06,23.38 -27.12,23.38h-23.89001c-1.4,0 -2.25998,-1.01 -2.25998,-1.91v-74.75c0,-1.01 0.85998,-2.02 2.25998,-2.02h23.89001c0,0 26.03998,-0.56 26.03998,22.93c0,8.43 -3.65998,13.49 -8.81998,16.3zM194.60294,31.14116h9.79001c0,0 9.47,0 9.47,-7.31c0,-8.09 -9.47,-7.98 -9.47,-7.98h-9.79001zM214.94293,54.97116c0,-7.87 -10.54001,-7.31 -10.54001,-7.31h-9.78998v14.84h9.78998c4.09,0 10.54001,-1.12 10.54001,-7.53z" fill-rule="nonzero" fill="rgb(244, 244, 244)" fill-opacity="1" style="mix-blend-mode:NORMAL"></path></g></g></g></g><g transform="matrix(1,0,0,1,0,0)"><g id="4659534" opacity="1" style="mix-blend-mode:normal"><g><g><defs><mask id="4659535_mask" style="mask-type:alpha" x="-50%" y="-50%" width="200%" height="200%"><g transform="matrix(1,0,0,1,0,0)"><g id="4659535" opacity="1" style="mix-blend-mode:normal"><g><g><g transform="matrix(1,0,0,1,0,0)"><g id="4659536" opacity="1" style="mix-blend-mode:normal"><g><g><path id="4659536_fill_path" d="M77.43294,78.20116c-0.64,1.63 -3.33,1.63 -3.98,0l-20.43001,-53.77c-6.67,17.92 -13.54999,35.85 -20.31999,53.77c-0.65,1.63 -3.66,1.63 -4.19,-0.11l0.11,0.11l-28.49,-75.17c-0.54,-1.2 0.65001,-2.61 2.04001,-2.61h12.89999c0.97,0 1.92999,0.54 2.03999,1.3c4.73,13.04 8.82,25.09 13.55,38.24l14.41001,-38.35v0.11c0.22,-0.76 1.07999,-1.3 2.03999,-1.3h11.93001c0.97,0 1.92999,0.54 2.14999,1.3v-0.11l14.3,38.56l13.55,-38.46c0.22,-0.76 1.17999,-1.3 2.14999,-1.3h12.79001c1.83,0 2.68999,1.3 2.14999,2.61l-28.7,75.17zM130.85294,16.56116v15.12h27.85999c1.31,0 2.18002,1.02 2.18002,2.03v12.19c0,0.9 -0.87002,1.92 -2.18002,1.92h-27.85999v15.12h33.85001c1.42,0 2.38998,1.02 2.38998,2.03v12.53c0,0.9 -0.97998,1.92 -2.38998,1.92h-48.20999c-1.41,0 -2.29001,-1.02 -2.29001,-1.92v-75.05c0,-1.02 0.87001,-2.03 2.29001,-2.03h47.34c1.31,0 2.28998,1.02 2.28998,2.03v12.07c0,1.02 -0.97998,2.03 -2.28998,2.03h-32.98001zM221.61295,39.23116c10.44,5.06 9.89999,16.07 9.89999,16.07c0,22.37 -22.06,23.38 -27.12,23.38h-23.89001c-1.4,0 -2.25998,-1.01 -2.25998,-1.91v-74.75c0,-1.01 0.85998,-2.02 2.25998,-2.02h23.89001c0,0 26.03998,-0.56 26.03998,22.93c0,8.43 -3.65998,13.49 -8.81998,16.3zM194.60294,31.14116h9.79001c0,0 9.47,0 9.47,-7.31c0,-8.09 -9.47,-7.98 -9.47,-7.98h-9.79001zM214.94293,54.97116c0,-7.87 -10.54001,-7.31 -10.54001,-7.31h-9.78998v14.84h9.78998c4.09,0 10.54001,-1.12 10.54001,-7.53z" fill-rule="nonzero" fill="rgb(0, 0, 0)" fill-opacity="1" style="mix-blend-mode:NORMAL"></path></g></g></g></g></g></g></g></g></mask></defs><g mask="url(#4659535_mask)"><g transform="matrix(1,0,0,1,-2.607100000000003,-12.9288)"><g id="4659537" opacity="1" style="mix-blend-mode:normal"><g><g><g transform="matrix(1,0,0,1,0,0)"><g id="4659538" opacity="1" style="mix-blend-mode:normal"><g><g><path id="4659538_fill_path" d="M0,0h237.63002v96.69h-237.63002z" fill-rule="nonzero" fill="rgb(244, 244, 244)" fill-opacity="1" style="mix-blend-mode:NORMAL"></path></g></g></g></g></g></g></g></g></g></g></g></g></g></g></g></g></g></g></g></g></g><g transform="matrix(1,0,0,1,131.3828,6.7402)"><g id="4659526" opacity="0" style="mix-blend-mode:normal"><g><g><path id="4659526_fill_path" d="M136.65747,62.11c-73.3,9.02 -134.45001,2.67 -136.60001,-14.18c-0.84,-6.63 7.57,-13.9 22.56,-20.83c-4.71,3.46 -7.08999,6.89 -6.67999,10.11c1.77,13.9 54.75,18.82001 118.34,10.99001c63.58,-7.82 113.69999,-25.43 111.92999,-39.33c-0.45,-3.57 -4.28999,-6.55 -10.82999,-8.87c18.04,3.02 29.20999,8.22 30.10999,15.25c2.14,16.86 -55.52998,37.84 -128.82999,46.86z" fill-rule="nonzero" fill="rgb(61, 61, 61)" fill-opacity="1" style="mix-blend-mode:NORMAL"></path></g></g></g></g></g></g></g></g><animateTransform href="#4659530" attributeName="transform" type="translate" values="0 0;0 -77.49000000000001;0 -77.49000000000001" dur="5s" repeatCount="0" calcMode="spline" keyTimes="0;0.16;1" keySplines="0.5 0.35 0.15 1;0.5 0.35 0.15 1" additive="sum" fill="freeze"></animateTransform><animate href="#4659530" attributeName="opacity" values="0;1;1" dur="5s" repeatCount="0" calcMode="spline" keyTimes="0;0.16;1" keySplines="0.5 0.35 0.15 1;0.5 0.35 0.15 1" additive="replace" fill="freeze"></animate><animateTransform href="#4659531" attributeName="transform" type="translate" values="0 0;0 0;0 -75.33000000000001;0 -75.33000000000001" dur="5s" repeatCount="0" calcMode="spline" keyTimes="0;0.04;0.2;1" keySplines="0.5 0.35 0.15 1;0.5 0.35 0.15 1;0.5 0.35 0.15 1" additive="sum" fill="freeze"></animateTransform><animate href="#4659531" attributeName="opacity" values="0;0;1;1" dur="5s" repeatCount="0" calcMode="spline" keyTimes="0;0.04;0.2;1" keySplines="0.5 0.35 0.15 1;0.5 0.35 0.15 1;0.5 0.35 0.15 1" additive="replace" fill="freeze"></animate><animateTransform href="#4659532" attributeName="transform" type="translate" values="0 0;0 0;0 -79.4237;0 -79.4237" dur="5s" repeatCount="0" calcMode="spline" keyTimes="0;0.08;0.24;1" keySplines="0.5 0.35 0.15 1;0.5 0.35 0.15 1;0.5 0.35 0.15 1" additive="sum" fill="freeze"></animateTransform><animate href="#4659532" attributeName="opacity" values="0;0;1;1" dur="5s" repeatCount="0" calcMode="spline" keyTimes="0;0.08;0.24;1" keySplines="0.5 0.35 0.15 1;0.5 0.35 0.15 1;0.5 0.35 0.15 1" additive="replace" fill="freeze"></animate><animate href="#4659526" attributeName="opacity" values="0;0;0.2;0.2" dur="5s" repeatCount="0" calcMode="spline" keyTimes="0;0.22;0.52;1" keySplines="0.5 0.35 0.15 1;0.5 0.35 0.15 1;0.5 0.35 0.15 1" additive="replace" fill="freeze"></animate></svg>