<?xml version="1.0" encoding="UTF-8"?>
<svg id="Camada_8" data-name="Camada 8" xmlns="http://www.w3.org/2000/svg" viewBox="0 0 566.93 566.93">
  <defs>
    <style>
      .cls-1, .cls-2, .cls-3 {
        fill: #fff;
      }

      .cls-4, .cls-5 {
        fill: #6d8a61;
      }

      .cls-2, .cls-6 {
        stroke: #6d8a61;
        stroke-miterlimit: 10;
        stroke-width: 2px;
      }

      .cls-5 {
        font-family: Nunito-ExtraBold, Nunito;
        font-size: 24.44px;
        font-weight: 700;
        letter-spacing: -.05em;
      }

      .cls-6 {
        fill: none;
      }

      .cls-3 {
        fill-rule: evenodd;
      }
    </style>
  </defs>
  <line class="cls-2" x1="149.81" y1="490.23" x2="259.2" y2="490.23"/>
  <line class="cls-2" x1="286.31" y1="490.23" x2="395.7" y2="490.23"/>
  <g>
    <polygon class="cls-3" points="421.92 494.56 418.88 497.77 420.64 501.82 416.69 503.79 416.95 508.2 412.57 508.7 411.31 512.93 407.02 511.91 404.39 515.45 400.71 513.01 397.02 515.45 394.4 511.91 390.1 512.93 388.85 508.7 384.46 508.2 384.73 503.79 380.77 501.82 382.54 497.77 379.5 494.56 382.54 491.36 380.77 487.31 384.73 485.34 384.46 480.93 388.85 480.43 390.1 476.19 394.4 477.22 397.03 473.67 400.71 476.11 404.39 473.67 407.02 477.22 411.32 476.2 412.57 480.43 416.95 480.93 416.69 485.34 420.64 487.31 418.88 491.36 421.92 494.56"/>
    <polygon class="cls-6" points="421.92 494.56 418.88 497.77 420.64 501.82 416.69 503.79 416.95 508.2 412.57 508.7 411.31 512.93 407.02 511.91 404.39 515.45 400.71 513.01 397.02 515.45 394.4 511.91 390.1 512.93 388.85 508.7 384.46 508.2 384.73 503.79 380.77 501.82 382.54 497.77 379.5 494.56 382.54 491.36 380.77 487.31 384.73 485.34 384.46 480.93 388.85 480.43 390.1 476.19 394.4 477.22 397.03 473.67 400.71 476.11 404.39 473.67 407.02 477.22 411.32 476.2 412.57 480.43 416.95 480.93 416.69 485.34 420.64 487.31 418.88 491.36 421.92 494.56"/>
  </g>
  <g>
    <g>
      <path class="cls-2" d="m131.97,33.22L9.53,180.82c-.51.15-.7.55-.77.92l.31,92.37c-.2,1.24,1.1,1.33,2.07.16L224.13,17.54c.95-1.15.62-2.41-.54-2.01l-90.84,16.75c-.35.13-.72.4-.78.94h0Zm0,0"/>
      <rect class="cls-2" x="112.57" y="68.01" width="341.78" height="430.91" transform="translate(-115.69 320.64) rotate(-50.32)"/>
      <path class="cls-2" d="m464.77,309.31l-122.44,147.59c-.67,0-.81.46-.77.92l-1.73,90.67c.11,1.51,1.99,2.08,2.97.9l212.99-256.73c.95-1.15.05-2.89-1.44-2.75l-88.79,18.45c-.46.04-.88.26-.78.94h0Zm0,0"/>
    </g>
    <polygon class="cls-2" points="111.77 38.23 111.77 452.41 111.77 484.23 156.25 528.7 445.16 528.7 445.16 38.23 111.77 38.23"/>
    <polygon class="cls-2" points="107.79 35.02 107.79 449.2 107.79 481.03 152.27 525.5 441.18 525.5 441.18 35.02 107.79 35.02"/>
    <g>
      <path class="cls-4" d="m152.15,56.89c4.61,3.78,11.84,5.29,14.87,5.78v26.82c0,3.07-1.96,5.74-4.88,6.65-4.61,1.44-7.96,2.91-9.98,4.36-2.02-1.46-5.37-2.92-9.98-4.36-2.92-.91-4.88-3.59-4.88-6.65v-26.82c3.03-.49,10.25-1.99,14.87-5.78m0-2.11c-5.22,5.3-16.43,6.53-16.43,6.53v28.18c0,3.73,2.42,7.03,5.98,8.14,3.85,1.21,8.49,2.96,10.45,4.9,1.95-1.94,6.6-3.69,10.45-4.9,3.56-1.11,5.98-4.41,5.98-8.14v-28.18s-11.21-1.23-16.43-6.53h0Z"/>
      <path class="cls-4" d="m152.15,57.88c1.98,1.5,6.33,4.08,14.09,5.44v26.16c0,2.72-1.74,5.1-4.34,5.91-4.35,1.36-7.63,2.76-9.75,4.16-2.12-1.4-5.4-2.8-9.75-4.16-2.59-.81-4.34-3.19-4.34-5.91v-26.16c7.75-1.36,12.1-3.94,14.09-5.44m0-.33c-4.5,3.5-11.14,5-14.35,5.55v26.38c0,2.84,1.82,5.31,4.52,6.16,4.44,1.39,7.73,2.8,9.83,4.23,2.1-1.42,5.39-2.84,9.83-4.23,2.7-.85,4.52-3.32,4.52-6.16v-26.38c-3.21-.55-9.85-2.05-14.35-5.55h0Z"/>
      <path class="cls-4" d="m152.15,59.75c3.92,2.65,8.82,4.07,12.57,4.83v24.91c0,2.05-1.31,3.85-3.27,4.46-3.95,1.24-7.08,2.52-9.3,3.82-2.22-1.3-5.34-2.59-9.3-3.82-1.96-.61-3.27-2.4-3.27-4.46v-24.91c3.75-.76,8.65-2.19,12.57-4.83m0-1.22c-4.27,3.1-10.06,4.58-13.57,5.23v25.73c0,2.49,1.6,4.67,3.97,5.41,4.2,1.31,7.43,2.67,9.59,4.04,2.17-1.37,5.39-2.72,9.59-4.04,2.38-.74,3.97-2.92,3.97-5.41v-25.73c-3.51-.65-9.3-2.13-13.57-5.23h0Z"/>
      <text class="cls-5" transform="translate(142.91 86.45)"><tspan x="0" y="0">A</tspan></text>
      <g>
        <g>
          <polygon class="cls-4" points="152.15 90.32 152.41 91.12 153.25 91.12 152.57 91.62 152.83 92.41 152.15 91.92 151.47 92.41 151.73 91.62 151.05 91.12 151.89 91.12 152.15 90.32"/>
          <polygon class="cls-4" points="155.54 90.32 155.8 91.12 156.64 91.12 155.96 91.62 156.22 92.41 155.54 91.92 154.86 92.41 155.12 91.62 154.44 91.12 155.28 91.12 155.54 90.32"/>
          <polygon class="cls-4" points="148.75 90.32 148.49 91.12 147.65 91.12 148.33 91.62 148.07 92.41 148.75 91.92 149.43 92.41 149.17 91.62 149.85 91.12 149.01 91.12 148.75 90.32"/>
        </g>
        <g>
          <polygon class="cls-4" points="152.15 64.56 152.41 65.36 153.25 65.36 152.57 65.85 152.83 66.65 152.15 66.16 151.47 66.65 151.73 65.85 151.05 65.36 151.89 65.36 152.15 64.56"/>
          <polygon class="cls-4" points="155.54 64.56 155.8 65.36 156.64 65.36 155.96 65.85 156.22 66.65 155.54 66.16 154.86 66.65 155.12 65.85 154.44 65.36 155.28 65.36 155.54 64.56"/>
          <polygon class="cls-4" points="148.75 64.56 148.49 65.36 147.65 65.36 148.33 65.85 148.07 66.65 148.75 66.16 149.43 66.65 149.17 65.85 149.85 65.36 149.01 65.36 148.75 64.56"/>
        </g>
      </g>
    </g>
    <g>
      <path class="cls-4" d="m192.19,70.43c.25.26.38.6.38,1.03v13.06c0,.43-.13.78-.39,1.05s-.6.4-1.01.4-.77-.13-1.02-.4-.38-.62-.38-1.05v-5.49h-8.03v5.49c0,.43-.13.78-.39,1.05-.26.27-.6.4-1.03.4s-.75-.13-1.01-.4c-.26-.27-.39-.62-.39-1.05v-13.06c0-.43.13-.77.38-1.03.25-.26.59-.39,1.02-.39s.77.13,1.03.39c.26.26.39.6.39,1.03v5.25h8.03v-5.25c0-.43.13-.77.38-1.03s.59-.39,1.02-.39.77.13,1.02.39Z"/>
      <path class="cls-4" d="m196.34,85.57c-.26-.27-.39-.62-.39-1.05v-13.06c0-.43.13-.77.39-1.03.26-.26.6-.39,1.03-.39s.8.13,1.06.39c.26.26.39.6.39,1.03v13.06c0,.43-.13.78-.39,1.05-.26.27-.61.4-1.06.4s-.78-.13-1.03-.4Z"/>
      <path class="cls-4" d="m204.39,85.58c-1.02-.3-1.84-.72-2.48-1.23-.34-.25-.51-.61-.51-1.07,0-.31.09-.58.28-.81.19-.23.4-.34.66-.34.27,0,.57.1.91.31.64.46,1.31.79,2,1s1.47.31,2.31.31c1.08,0,1.91-.19,2.49-.57.58-.38.87-.93.87-1.66,0-.56-.27-1-.81-1.3s-1.44-.6-2.7-.88c-1.31-.28-2.36-.61-3.18-.98s-1.43-.84-1.85-1.42-.62-1.31-.62-2.2.26-1.74.78-2.47c.52-.73,1.24-1.29,2.17-1.7.93-.41,1.97-.61,3.12-.61,2.12,0,3.85.56,5.18,1.69.19.16.33.32.41.48s.12.35.12.59c0,.31-.09.58-.28.81-.19.23-.4.35-.66.35-.15,0-.29-.02-.41-.07s-.29-.13-.5-.24c-.61-.44-1.2-.77-1.77-.99-.57-.21-1.27-.32-2.1-.32-1.01,0-1.81.2-2.39.61-.59.41-.88.98-.88,1.7,0,.61.26,1.08.78,1.4.52.33,1.4.63,2.65.91,1.32.3,2.39.63,3.21.99.82.36,1.45.83,1.89,1.39.44.56.65,1.27.65,2.11,0,.92-.26,1.73-.77,2.44s-1.23,1.25-2.16,1.65c-.93.39-1.99.59-3.19.59s-2.22-.15-3.24-.46Z"/>
      <path class="cls-4" d="m220.14,85.56c-.26-.26-.39-.6-.39-1.04v-12.01h-4.05c-.89,0-1.34-.39-1.34-1.18s.44-1.18,1.34-1.18h10.97c.89,0,1.33.39,1.33,1.18s-.44,1.18-1.33,1.18h-4.05v12.01c0,.43-.13.78-.39,1.04s-.61.39-1.04.39-.8-.13-1.06-.39Z"/>
      <path class="cls-4" d="m231.77,85.06c-1.12-.65-1.98-1.59-2.59-2.8-.61-1.22-.91-2.64-.91-4.27s.3-3.05.9-4.26c.6-1.21,1.46-2.14,2.59-2.79s2.45-.98,3.98-.98,2.85.33,3.97.98c1.12.65,1.98,1.58,2.58,2.79s.9,2.63.9,4.26-.3,3.06-.91,4.27c-.61,1.22-1.47,2.15-2.59,2.8s-2.44.98-3.95.98-2.85-.33-3.97-.98Zm7.34-2.8c.81-.99,1.21-2.42,1.21-4.27s-.41-3.27-1.21-4.26c-.81-.99-1.93-1.48-3.37-1.48s-2.58.49-3.39,1.48c-.81.99-1.21,2.41-1.21,4.26s.4,3.28,1.21,4.27c.81.99,1.94,1.49,3.39,1.49s2.56-.5,3.37-1.49Zm-3.39-13.32c-.19,0-.36-.06-.49-.19-.13-.13-.2-.27-.2-.43s.08-.33.24-.49l2.02-2.09c.28-.3.6-.44.96-.44.3,0,.55.11.77.32s.32.46.32.75c0,.19-.06.38-.19.56s-.32.33-.57.47l-2.51,1.47c-.12.06-.24.09-.36.09Z"/>
      <path class="cls-4" d="m258.9,84.81c0,.34-.14.62-.41.85-.27.22-.6.33-.97.33-.24,0-.46-.06-.68-.17-.22-.11-.4-.28-.55-.5l-2.96-4.49c-.3-.47-.61-.81-.95-1-.33-.19-.77-.29-1.3-.29h-2.18v4.98c0,.45-.13.8-.38,1.06-.25.26-.59.39-1.02.39s-.78-.13-1.03-.39c-.26-.26-.39-.61-.39-1.06v-13.01c0-.43.12-.76.37-1,.24-.24.58-.36,1.01-.36h5.56c1.78,0,3.13.4,4.06,1.19.93.79,1.39,1.94,1.39,3.44,0,1.22-.34,2.21-1.03,2.99s-1.66,1.28-2.92,1.5c.43.1.81.29,1.13.56s.64.64.96,1.11l2.02,3.09c.18.27.27.53.27.78Zm-3.89-8.08c.5-.41.76-1.04.76-1.88s-.25-1.49-.76-1.88-1.3-.59-2.38-.59h-3.74v4.96h3.74c1.08,0,1.88-.2,2.38-.61Z"/>
      <path class="cls-4" d="m261.93,85.57c-.26-.27-.39-.62-.39-1.05v-13.06c0-.43.13-.77.39-1.03.26-.26.6-.39,1.03-.39s.8.13,1.06.39c.26.26.39.6.39,1.03v13.06c0,.43-.13.78-.39,1.05-.26.27-.61.4-1.06.4s-.78-.13-1.03-.4Z"/>
      <path class="cls-4" d="m270.83,85.06c-1.13-.65-2.01-1.59-2.61-2.8-.61-1.22-.91-2.64-.91-4.27s.3-3.05.91-4.26c.61-1.21,1.48-2.14,2.61-2.79s2.46-.98,3.97-.98c.98,0,1.9.14,2.76.43.86.29,1.62.71,2.29,1.26.19.15.33.3.4.47.07.16.11.36.11.6,0,.33-.09.6-.27.82s-.39.33-.64.33c-.3,0-.6-.1-.91-.31-.64-.47-1.23-.8-1.78-.99-.55-.19-1.16-.28-1.82-.28-1.54,0-2.71.48-3.5,1.45s-1.19,2.38-1.19,4.25.4,3.31,1.19,4.27,1.96,1.45,3.5,1.45c.64,0,1.23-.1,1.77-.29.54-.19,1.15-.52,1.83-.98.15-.09.3-.16.45-.22.15-.06.3-.09.47-.09.25,0,.47.11.64.33s.27.5.27.82c0,.22-.04.42-.11.59-.07.17-.21.33-.4.48-.67.55-1.43.97-2.29,1.26-.86.29-1.78.43-2.76.43-1.51,0-2.84-.33-3.97-.98Z"/>
      <path class="cls-4" d="m285.6,85.06c-1.12-.65-1.98-1.59-2.59-2.8s-.91-2.64-.91-4.27.3-3.05.9-4.26,1.46-2.14,2.59-2.79c1.13-.65,2.45-.98,3.98-.98s2.85.33,3.97.98,1.98,1.58,2.58,2.79c.6,1.21.9,2.63.9,4.26s-.3,3.06-.91,4.27-1.47,2.15-2.59,2.8c-1.12.65-2.44.98-3.95.98s-2.85-.33-3.97-.98Zm7.34-2.8c.81-.99,1.21-2.42,1.21-4.27s-.4-3.27-1.21-4.26c-.81-.99-1.93-1.48-3.37-1.48s-2.58.49-3.39,1.48-1.21,2.41-1.21,4.26.4,3.28,1.21,4.27,1.94,1.49,3.39,1.49,2.56-.5,3.37-1.49Z"/>
    </g>
    <path class="cls-2" d="m352.62,93.46s-9.72-2.54-9.72-11.37v-9.05c0-.86.84-1.57,1.88-1.57h15.68c1.04,0,1.88.7,1.88,1.57v9.05c0,8.83-9.72,11.37-9.72,11.37Z"/>
    <rect class="cls-2" x="366.13" y="82.31" width="49.34" height="1.37"/>
    <rect class="cls-2" x="135.72" y="118.08" width="279.75" height="5.61" rx="2.49" ry="2.49"/>
    <rect class="cls-2" x="135.72" y="129.95" width="279.75" height="5.61" rx="2.49" ry="2.49"/>
    <rect class="cls-2" x="135.72" y="140.41" width="273.46" height="5.61" rx="2.46" ry="2.46"/>
    <rect class="cls-2" x="135.72" y="152.28" width="145.88" height="5.61" rx="1.8" ry="1.8"/>
    <line class="cls-2" x1="130.03" y1="269.23" x2="415.48" y2="269.23"/>
    <line class="cls-2" x1="130.03" y1="277.21" x2="415.48" y2="277.21"/>
    <rect class="cls-2" x="130.31" y="294.4" width="284.69" height="127.69"/>
    <line class="cls-2" x1="132.23" y1="342.54" x2="413.81" y2="342.54"/>
    <line class="cls-2" x1="128.79" y1="375.69" x2="410.36" y2="375.69"/>
    <line class="cls-2" x1="273.02" y1="293.42" x2="273.59" y2="420.08"/>
    <line class="cls-2" x1="330.49" y1="293.42" x2="331.05" y2="420.08"/>
    <rect class="cls-2" x="135.72" y="171.44" width="273.46" height="5.61" rx="2.46" ry="2.46"/>
    <rect class="cls-2" x="135.72" y="183.31" width="268.47" height="5.61" rx="2.44" ry="2.44"/>
    <rect class="cls-2" x="135.72" y="193.78" width="279.75" height="5.61" rx="2.49" ry="2.49"/>
    <rect class="cls-2" x="135.72" y="205.65" width="145.88" height="5.61" rx="1.8" ry="1.8"/>
    <path class="cls-6" d="m172.09,482.4c5.15-.25,9.71-3.31,13.65-6.64,10.03-8.47,17.97-19.38,22.95-31.53.98-2.38,1.85-4.9,1.69-7.47-.16-2.57-1.59-5.22-4.02-6.09-3.55-1.28-7.25,1.65-9.26,4.83-3.79,5.98-4.69,13.71-2.39,20.4,2.31,6.7,7.78,12.22,14.45,14.6,4,1.42,8.59,1.71,12.38-.21,3.79-1.92,6.41-6.39,5.33-10.49-1.28-4.88-6.74-7.29-11.69-8.28-12.24-2.44-25.36-.16-36.07,6.26"/>
  </g>
  <path class="cls-6" d="m326.94,510.22c9.05-16.47,11.46-36.47,6.59-54.63,1.55,10.58,3.1,21.15,4.65,31.73,6.05-.31,11.35-5.84,11.4-11.9,10.76.16,21.53.33,32.29.49-24.69-1.33-49.38-2.67-74.06-4.01"/>
  <g>
    <polygon class="cls-1" points="110.09 482.03 151.15 482.03 151.15 523.09 110.09 482.03"/>
    <path class="cls-4" d="m150.15,483.03v37.64l-37.64-37.64h37.64m2-2h-44.47l44.47,44.47v-44.47h0Z"/>
  </g>
</svg>