<?xml version="1.0" encoding="UTF-8"?>
<svg id="Camada_7" xmlns="http://www.w3.org/2000/svg" version="1.1" viewBox="0 0 566.9 566.9">
  <!-- Generator: Adobe Illustrator 29.6.1, SVG Export Plug-In . SVG Version: 2.1.1 Build 9)  -->
  <defs>
    <style>
      .st0 {
        isolation: isolate;
        opacity: .2;
      }

      .st0, .st1 {
        fill: none;
        stroke: #6d8a61;
        stroke-miterlimit: 10;
        stroke-width: 2px;
      }
    </style>
  </defs>
  <g>
    <path class="st1" d="M502.3,479.9v.2c0,2.1,0,3.6,0,4.7v.6c0,1.1,0,3.5,0,8.3v.4c0,.6,0,1.2,0,1.9,0,.7,0,1.3,0,1.9,0,.6,0,1.1-.1,1.6,0,.5,0,1.1-.2,1.6,0,.3,0,.5,0,.8,0,.3,0,.5,0,.8,0,.5-.1,1-.2,1.4,0,.2,0,.5-.1.7,0,.6-.2,1.1-.3,1.7-.2.9-.4,1.8-.6,2.7,0,.3-.2.7-.2,1,0,.2,0,.3-.1.5,0,.4-.2.8-.3,1.2-.7,2.3-1.5,4.5-2.4,6.5-.1.3-.3.6-.4.8,0,0,0,.1,0,.2-.5.9-.9,1.8-1.4,2.7-.5.8-1,1.6-1.5,2.4,0,0,0,0,0,0-.2.2-.3.5-.5.7-.2.3-.4.5-.6.8-.2.3-.4.5-.6.8-.3.4-.7.8-1,1.2-.2.2-.4.4-.6.7-.3.3-.5.6-.8.9-.3.3-.6.6-.9.9-.5.5-.9.9-1.4,1.3-.4.3-.8.7-1.2,1-.1.1-.3.2-.4.3-.2.2-.4.3-.6.5-.4.3-.9.7-1.3,1-15.3,11.2-39.1,14-65.8,14h-144.8c-1,0-2,0-3,0-.1,0-.2,0-.3,0-.8,0-1.5,0-2.2,0,0,0-.2,0-.3,0-3.9,0-7.7-.2-11.4-.4,0,0-.2,0-.2,0-.9,0-1.7-.1-2.6-.2-.2,0-.4,0-.6,0-5.8-.4-11.4-1.1-16.6-2.1h0c-22.2-4.2-38.8-14-44.5-34.7h0s0,0,0,0h0c.4-.3.8-.6,1.2-.9.4-.3.8-.7,1.2-1.1.2-.2.5-.5.8-.8.8-.9,1.6-1.8,2.3-2.7.5-.7,1-1.4,1.5-2.1.2-.2.3-.5.4-.7h0s0,0,0,0c.2-.4.5-.8.7-1.2h0s0,0,0,0c.2-.4.4-.8.6-1.2h0s0,0,0,0c.2-.4.4-.8.5-1.2h0s0,0,0,0c.2-.4.3-.8.5-1.3.1-.4.2-.8.4-1.2.8-2.7,1.2-5.6,1.2-8.7v-69,8.3h61.2c8.1,0,14.9-2.8,20.4-8.5,1.8-1.9,3.4-3.9,4.6-6.1,0,0,0,0,0,0,2.4-4.3,3.7-9.2,3.7-14.5s0-2.8-.3-4.1h0c.2-1.4.3-2.8.3-4.2s0-1.8-.1-2.7c0-.1,0-.3,0-.4,0-.2,0-.5,0-.7,0,0,0,0,0,0,0,0,0,0,0,0,0-.3,0-.6-.1-.9-.1-.9-.3-1.8-.5-2.6-.6-2.7-1.7-5.3-3.1-7.6,0,0,0,0,0,0,0,0,0,0,0,0-.2-.2-.3-.4-.4-.6,0,0,0-.1-.1-.2,0,0,0,0,0-.1,0,.1.2.3.3.5,0,.1.2.2.2.4,0,0,0,0,0,0,0,0,0,0,0,0,0,0,0,0,0,0h0c2.8-.7,5.5-1.3,8.2-1.9,1.7-.3,3.4-.6,5.2-.9h0s0,0,0,0h0s0,0,.1,0h0s0,0,0,0h0c.3.1.6.2,1,.4,0,0,.2,0,.3.1h0c2.5.9,4.9,1.6,7.4,2.4h0,0c0,.1-.2.2-.3.3,0,.1-.2.2-.3.4-.2.2-.4.5-.6.7,0,0,0,0,0,0-.3.4-.6.8-1,1.2-.3.4-.6.9-.9,1.3-.1.2-.3.4-.4.5,0,0,0,0,0,0-.5.7-.9,1.3-1.3,2-.2.3-.4.6-.5.9-.3.6-.7,1.2-1,1.9-.2.3-.3.6-.5,1-.2.3-.3.6-.4,1-.1.3-.2.6-.4.9,0,0,0,0,0,0h0s0,0,0,0t0,0c-.1.3-.2.6-.4.9-.1.3-.2.7-.4,1,0,0,0,0,0,0,0,.3-.2.6-.3.8-.1.4-.3.9-.4,1.3-.1.3-.2.6-.3,1,0,0,0,0,0,0,0,.3-.2.6-.2,1,0,.4-.2.8-.2,1.2,0,0,0,0,0,.1,0,.3-.1.5-.2.8,0,.2,0,.3,0,.5,0,0,0,0,0,0,0,.2,0,.3,0,.5,0,.4,0,.7-.1,1.1,0,.4,0,.7,0,1,0,.3,0,.7,0,1,0,.3,0,.6,0,.9,0,.5,0,.9,0,1.4,0,8.9,3,17.1,8.1,24,.2.3.4.6.6.8.2.3.4.6.7.8.9,1.1,1.9,2.2,2.9,3.2.5.5,1,1,1.6,1.5.5.5,1.1,1,1.6,1.4,0,0,0,0,0,0,.6.5,1.1.9,1.7,1.3,0,0,0,0,0,0,.6.4,1.2.9,1.8,1.3.6.4,1.2.8,1.9,1.2,1.2.8,2.5,1.5,3.8,2.1,0,0,0,0,0,0,.7.3,1.3.6,2,.9.8.3,1.6.7,2.3,1,.8.3,1.6.6,2.4.8,4.9,1.6,10.2,2.4,15.7,2.4,14.1,0,26.8-5.6,35.4-14.5,1-1,1.9-2,2.7-3.1.6-.7,1.1-1.4,1.6-2.2,2.2-3.2,4-6.6,5.3-10.3.2-.5.3-1,.5-1.5.3-.9.5-1.8.7-2.7,0,0,0-.1,0-.2.2-.9.3-1.7.5-2.6,0,0,0,0,0,0,.3-1.9.4-3.7.4-5.7s0-.8,0-1.2c0-.7,0-1.4-.1-2.1,0-.4,0-.8-.1-1.2,0-.3,0-.7-.1-1,0-.4,0-.7-.2-1,0-.4-.1-.7-.2-1.1,0-.4-.2-.7-.2-1,0-.3-.2-.7-.2-1,0-.4-.2-.7-.3-1-.5-1.6-1-3.3-1.7-4.8-.1-.3-.2-.5-.3-.8,0-.2-.2-.4-.2-.5,0,0,0-.2-.1-.3,0,0,0-.2-.1-.3-.2-.4-.3-.7-.5-1.1-.2-.4-.4-.7-.6-1-.2-.3-.3-.5-.5-.8-.2-.4-.4-.7-.6-1-.2-.2-.3-.5-.4-.7,0,0,0,0,0,0-.1-.2-.3-.4-.4-.6-.2-.3-.4-.5-.6-.8-.4-.6-.9-1.2-1.4-1.8-.2-.3-.5-.6-.7-.8-.1-.2-.2-.3-.4-.4,0,0,0,0,0,0,2.2-.6,4.3-1.2,6.5-1.9,0,0,0,0,.1,0,.5-.2,1-.3,1.5-.5,0,0,0,0,0,0,0,0,.2,0,.3,0,0,0,0,0,0,0,2.1.4,4.1.8,6.1,1.3,2.2.5,4.3,1.1,6.5,1.8.2,0,.4.1.6.2h0s0,0,0,0c2.6.8,5.2,1.7,7.8,2.7h0c.2,0,.4.2.6.2,23.2,9,46.1,24.8,63.8,42.8,13.6,13.9,21.7,32.1,23.2,51.4,0,.9.1,1.9.2,2.8,0,1.3,0,2.6,0,4h0Z"/>
    <path class="st1" d="M235.6,494.7c0-24.3,0,.4.1-19.7h0c0-17.7,2.1-33.4,6.5-47.9h-39.4v60.7c0,3.1-.4,6-1.2,8.7-.1.4-.2.8-.4,1.2-.1.4-.3.9-.5,1.3h0c-.2.4-.3.9-.5,1.3h0c-.2.4-.4.8-.6,1.2h0c-.2.4-.4.8-.7,1.2h0c-.1.3-.3.5-.4.7-.4.7-.9,1.4-1.5,2.1-.7.9-1.5,1.8-2.3,2.7h0c-.2.3-.5.5-.8.8-.4.4-.8.7-1.2,1.1-.4.3-.8.6-1.2.9,5.7,20.6,22.2,30.3,44.2,34.6,0-.3-.4-5.4-.3-50.8ZM303.4,372.4c-.3-.1-.6-.2-1-.4h0s0,0,0,0c0,0,0,0-.1,0h0c0,0-.1,0-.2,0h0c-1.6.2-3.3.5-4.9.8-2.7.5-5.5,1.2-8.3,1.9h0s0,0,0,0c0,0,0,0,0,0h0c1.9-.4,4.7-.8,7.9-1.2h0c2.2-.3,4.6-.6,7-1h0c-.1,0-.2,0-.3-.1ZM399.4,373.9h0c-1.9-.5-3.8-.9-5.8-1.2,0,0,0,0-.1,0h0c0,0-.2,0-.3,0-.1,0-.2,0-.3.1-.5.2-1.1.4-1.7.6h0s0,0,0,0c0,0,0,0,0,0h0c2.9.5,5.7.9,8.2,1.3h0c2.4.4,4.5.8,6.2,1.2.2,0,.5,0,.7.2h0s0,0,0,0c.8.2,1.4.3,1.9.5-3-1-6.1-1.9-9.1-2.6ZM420.6,548.4c10.9,0,21.3-.6,30.7-2.1-4.8.6-14.1,1.5-30.7,2.1ZM502.2,476h0c0-.9,0-1.9-.2-2.8-1.5-19.3-9.6-37.6-23.2-51.5-19.2-19.6-44.5-36.5-69.7-45,1.8.6,3.6,1.3,5.3,2h0c.2,0,.4.2.6.3,17.2,7.4,31.1,19.8,36.7,41.7,4.8,18.4,4.5,37.9,4.5,59.9,0,19.3,0-7.7,0,14.4,0,46.8-.3,50.6-.3,50.6,11-2.1,20.6-5.5,28.2-11,.4-.3.9-.6,1.3-1,.2-.1.4-.3.6-.5.1-.1.3-.2.4-.3.4-.3.8-.7,1.2-1,.5-.4,1-.9,1.4-1.3.3-.3.6-.6.9-.9.3-.3.6-.6.8-.9.2-.2.4-.4.6-.7.3-.4.7-.8,1-1.2.2-.2.4-.5.6-.8.2-.3.4-.5.6-.8.2-.2.4-.5.5-.7.5-.8,1-1.6,1.5-2.4.5-.9,1-1.7,1.4-2.6,0,0,0-.1,0-.2.1-.3.3-.6.4-.8,1-2,1.8-4.2,2.5-6.5.1-.4.2-.8.3-1.2,0-.2,0-.3.1-.5,0-.3.2-.7.2-1,.2-.9.4-1.8.6-2.7,0-.5.2-1.1.3-1.7,0-.2,0-.5.1-.7,0-.5.1-1,.2-1.4,0-.3,0-.5,0-.8,0-.3,0-.5,0-.8,0-.5.1-1.1.1-1.6,0-.5,0-1.1.1-1.6,0-.6,0-1.3,0-1.9,0-.6,0-1.2,0-1.9v-7c0-1.2,0-1.9,0-2.2v2.2c0-.3,0-2,0-7.1v-.2c0-1.3,0-2.7,0-4ZM273.5,548.4c-13.5,0-26.3-.7-37.6-2.9,0,0,0,0,.2.2h0s0,0,0,0h0c.7.4,3.8,1.4,16.6,2.2.2,0,.4,0,.6,0,.8,0,1.7,0,2.6.1,0,0,.2,0,.2,0,3.2.2,7,.3,11.4.4,0,0,.2,0,.3,0,.7,0,1.5,0,2.2,0,0,0,.2,0,.3,0,15.2.4,37.2.5,68.9,0,.7,0,1.4,0,2.2,0,2.2,0,4.4,0,6.6-.1h-74.6ZM418.3,548.4h-70.2c2,0,3.9,0,5.9.1.4,0,.9,0,1.3,0,25.8.5,45.3.4,59.8,0,.5,0,.9,0,1.4,0,1.4,0,2.7,0,4-.1-.7,0-1.4,0-2.2,0ZM451.4,546.4c2.3-.3,3.6-.6,4.2-.7-1.4.2-2.8.5-4.2.7Z"/>
    <path class="st1" d="M288,405.8c.3-.4.6-.9.8-1.3-.1.2-.3.5-.4.7-.2.2-.3.4-.4.7h0Z"/>
    <path class="st1" d="M289.3,403.7c.2-.3.4-.7.5-1,0,.1-.1.3-.2.4-.1.2-.2.4-.4.6,0,0,0,0,0,0-.1.2-.2.5-.4.7.1-.2.3-.5.4-.7Z"/>
    <path class="st1" d="M290.3,401.6c-.2.4-.3.7-.5,1.1.2-.4.4-.7.5-1.1Z"/>
    <path class="st1" d="M290.9,400.1c0,.2-.2.5-.3.7.2-.4.3-.8.5-1.2,0,0,0-.2,0-.3,0,.3-.2.5-.3.8Z"/>
    <path class="st1" d="M407.7,401.9c0,30-26.9,54.4-59.9,54.4s-53.3-18.9-58.8-43.8c2.4-4.3,3.7-9.2,3.7-14.5s0-2.8-.3-4.1h0s0,0,0,0c.2-1.3.3-2.7.3-4.1h0c0-.7,0-1.3,0-1.9,0-.4,0-.8,0-1.1,0-.2,0-.5,0-.7,0,0,0,0,0,0,0,0,0,0,0,0,0-.3,0-.6-.1-.9,0-.1,0-.3,0-.5,0-.5-.2-.9-.2-1.3,0-.3-.1-.6-.2-.8,0,0,0,0,0,0,1.3-3.1,2.9-6,4.8-8.8,0,0,0,0,0,0h0c0-.1.2-.3.3-.4,1.8-.4,3.5-.7,5.3-1h0s0,0,0,0h0c.5.2.8.3,1.3.5h0c2.4.8,4.9,1.6,7.4,2.3,0,0,0,0,0,0,0,0,0,0,0,0,0,0-.2.2-.3.3-.1.1-.2.2-.3.3-.2.2-.4.5-.6.7,0,0,0,0,0,0-.3.4-.6.8-1,1.2-.3.4-.6.8-.9,1.3,0,0,0,0,0,0-.1.2-.3.4-.4.5,0,0,0,0,0,0-.5.7-.9,1.3-1.3,2-.2.3-.4.6-.5.9-.3.6-.7,1.2-1,1.9-.2.3-.3.6-.5,1-.2.3-.3.6-.4,1-.1.3-.2.6-.4.9,0,0,0,0,0,0t0,0s0,0,0,0h0c-.1.3-.2.6-.4,1-.1.3-.2.7-.4,1-.1.3-.2.6-.3.8-.1.4-.3.9-.4,1.3,0,.3-.2.6-.3,1,0,0,0,0,0,0,0,.3-.2.6-.2,1,0,.4-.2.8-.2,1.2,0,0,0,0,0,.1,0,.3-.1.5-.2.8,0,.2,0,.3,0,.5,0,0,0,0,0,0,0,.2,0,.3,0,.5,0,.4-.1.7-.1,1.1,0,.3,0,.7-.1,1,0,.4,0,.7,0,1.1,0,.3,0,.6,0,.9,0,.5,0,.9,0,1.4s0,.8,0,1.2c0,.3,0,.6,0,.8,0,.5,0,.9,0,1.3,0,.3,0,.6,0,.9,0,.2,0,.5,0,.7,0,.4,0,.8.2,1.2,0,.2,0,.5.1.8.2,1.3.5,2.6.9,3.8.1.4.2.8.4,1.2.1.3.2.6.3.9.1.3.2.6.3.9.2.4.3.8.5,1.2.3.7.6,1.3.9,2,0,.2.2.4.3.6.2.5.5,1,.8,1.4,0,0,0,.1,0,.2,7.7,14.1,23.7,23.7,42.2,23.7s26.7-5.6,35.4-14.5c1-1,1.9-2,2.7-3.1.6-.7,1.1-1.4,1.6-2.2,2.2-3.2,4-6.6,5.3-10.3.2-.5.3-1,.5-1.5.7-2.3,1.2-4.6,1.4-7,0,0,0,0,0-.1,0-.8.1-1.6.2-2.4,0-.5,0-1.1,0-1.7s0-.8,0-1.2c0-.7,0-1.4-.1-2.1,0-.4,0-.8-.1-1.1,0-.3,0-.7-.1-1,0,0,0,0,0,0,0-.2,0-.3,0-.5,0-.2,0-.3,0-.5,0,0,0,0,0,0,0-.3-.1-.6-.2-.9,0,0,0,0,0,0,0-.2,0-.3-.1-.5,0-.2,0-.4-.1-.5,0-.4-.2-.7-.2-1,0-.4-.2-.7-.3-1,0,0,0,0,0,0-.2-.8-.5-1.6-.8-2.4-.2-.4-.3-.8-.5-1.2-.2-.4-.3-.8-.5-1.2-.1-.3-.2-.5-.3-.8-.2-.4-.3-.7-.5-1.1,0-.2-.2-.3-.2-.5,0-.2-.2-.4-.3-.6-.2-.4-.4-.7-.6-1-.1-.3-.3-.5-.5-.8-.2-.4-.4-.7-.7-1-.1-.2-.3-.5-.4-.7,0,0,0,0,0,0-.1-.2-.3-.4-.4-.6-.2-.3-.4-.5-.6-.8-.4-.6-.9-1.2-1.4-1.8-.2-.3-.5-.6-.7-.8-.1-.1-.2-.3-.3-.4,0,0,0,0,0,0,0,0,0,0,0,0,2.2-.6,4.4-1.2,6.5-1.9t0,0c.5-.2,1.1-.4,1.6-.5,0,0,0,0,0,0,0,0,0,0,0,0h0c2.2.4,4.3,1,6.4,1.5,0,.1.2.2.2.4,0,0,0,0,0,0h0s0,0,0,0c5.1,8,8,17.3,8,27.1Z"/>
    <path class="st1" d="M510.8,195.9c.4,3.8.5,7.7.5,11.6,0,28.2-7.9,53.6-21.6,75-.4,1.6-1.2,3.3-2.4,5.1-11.2,17.1,2,32.5,2,32.5,0,0-20.4,13-39.9,13.7,14.5-18.1,23.1-40.4,23.1-64.4s0-2.3,0-3.4c0-1.2,0-2.5,0-3.7s0-2.1,0-3.2c12.4-.3,22.3-9.4,22.3-20.5s-10-20.2-22.5-20.5c0-3-.3-6.1-.6-9-7.2.9-14.4-.2-21.2-2.8-14.6-5.5-28.1-17.9-39.5-32.7-7.4-9.6-13.9-20.1-19.1-30.4-4.9,6.1-10.7,12.2-17.5,17.8-18.9,15.9-44.6,28.7-74.3,31.5-2,.2-3.9.4-5.8.6-3.4-4.7-4.1-12.7-2.5-22.1.2-1,.4-2.1.6-3.1-.7.4-1.3.8-2,1.3.1-.6.2-1.2.4-1.8-5,3-8.8,6.7-11.8,10.4-5,6.3-7.7,12.9-9.4,17.5-5.4.5-10.1.9-14.3,1.3-.3,0-.6,0-.9,0-14.8,1.4-23.6,5.1-28.4,8.3,0,0,0,0-.1,0,0,.7-.1,1.3-.1,1.8,0,0,0,.1,0,.2,0,.2,0,.4,0,.6,0,.2,0,.4,0,.6,0,.1,0,.2,0,.3s0,0,0,0h0c-.3,2.3-.5,4.7-.6,7.1,0,.9,0,1.7,0,2.6-11,1.5-19.4,10-19.4,20.2s8.5,18.9,19.6,20.3c0,1.1,0,2.2,0,3.4s0,2.3,0,3.4c0,1.2,0,2.5,0,3.7,0,23.9,8.5,46.1,22.9,64.2-18.8-1.6-37.4-13.5-37.4-13.5,0,0,13.2-15.4,2-32.5-.2-.4-.5-.8-.7-1.1,0,0,0,0,0,0-12.5-17.3-21-37-24.4-58.3-.2-1.4-.4-2.8-.6-4.3-.7-5.4-1-10.9-1-16.4s.2-9.1.7-13.7c-.5-4.5-.7-9.1-.7-13.7,0-64.1,46.2-118.5,110.4-137.9.6-.2,1.2-.3,1.8-.5,11.5-3.3,23.5-5.6,35.9-6.6,3.8-.3,7.6-.5,11.4-.5h0c1,0,2.1-.1,3.2,0,38.9,3.4,42.3,8.5,47.5,11.7,7.4-6.2,12.2-16.7,11.1-28.2,8.3,7.1,10.4,20.1,5.5,31.8,39.9,7.6,83.4,52.3,94.9,99.1,0,0,0,0,0,0,1.6,6.4,2.6,12.9,3.2,19.6.4,3.8.5,7.7.5,11.6s-.2,9.1-.7,13.6c0,.7.2,1.4.2,2.2h0Z"/>
    <polygon class="st1" points="471.6 209.2 471.6 209.2 471.6 209.1 471.6 209.2"/>
    <path class="st1" d="M226,205.2c-.1.6-.2,1.2-.3,1.9,0-.5.1-1.1.1-1.8,0,0,0,0,.1,0Z"/>
    <path class="st1" d="M256.8,274.5c-8.9-7.3-14.8-17.9-15.5-29.7,1.2,11.8,7,22.3,15.5,29.7Z"/>
    <path class="st1" d="M319.8,289.8c0,8.7-12.6,15.8-28.1,15.8s-28.1-7.1-28.1-15.8,1.5-5.9,4.1-8.3c-3.9-1.8-7.5-4.1-10.7-6.8,3.3,2.6,7,4.9,11,6.6,5-4.4,13.7-7.3,23.7-7.3s14.5,1.7,19.6,4.5c5.3,2.9,8.5,6.9,8.5,11.3h0Z"/>
    <path class="st1" d="M332.5,242.3c0,15.2-8.5,28.5-21.2,36.1,12.7-8.1,21.1-22.3,21.1-38.5s0-1.2,0-1.8c.1,1.4.2,2.7.2,4.1h0Z"/>
    <path class="st1" d="M380.3,274.5c-8.9-7.3-14.7-17.7-15.5-29.4,1.3,11.7,7,22.1,15.5,29.4Z"/>
    <path class="st1" d="M436.5,289.8c0,8.7-12.6,15.8-28.1,15.8s-28.1-7.1-28.1-15.8,2.6-7.6,6.9-10.4c-2.4-1.4-4.6-3-6.7-4.8,2.1,1.7,4.4,3.3,6.9,4.6,5.1-3.2,12.6-5.3,20.9-5.3s17.6,2.6,22.7,6.5c1.2-.6,2.5-1.2,3.6-1.9-1.1.7-2.3,1.4-3.5,2,3.3,2.6,5.3,5.8,5.3,9.2h0Z"/>
    <path class="st1" d="M456.1,242.3c0,15.2-8.5,28.5-21.2,36.1,12.7-8.1,21.1-22.3,21.1-38.5s0-1.3,0-2c.2,1.4.2,2.9.2,4.3h0Z"/>
    <path class="st1" d="M256.8,274.5c-8.9-7.3-14.8-17.9-15.5-29.7,1.2,11.8,7,22.3,15.5,29.7Z"/>
    <path class="st1" d="M319.8,289.8c0,8.7-12.6,15.8-28.1,15.8s-28.1-7.1-28.1-15.8,1.5-5.9,4.1-8.3c-3.9-1.8-7.5-4.1-10.7-6.8,3.3,2.6,7,4.9,11,6.6,5-4.4,13.7-7.3,23.7-7.3s14.5,1.7,19.6,4.5c5.3,2.9,8.5,6.9,8.5,11.3h0Z"/>
    <path class="st1" d="M332.5,242.3c0,15.2-8.5,28.5-21.2,36.1,12.7-8.1,21.1-22.3,21.1-38.5s0-1.2,0-1.8c.1,1.4.2,2.7.2,4.1h0Z"/>
    <path class="st1" d="M380.3,274.5c-8.9-7.3-14.7-17.7-15.5-29.4,1.3,11.7,7,22.1,15.5,29.4Z"/>
    <path class="st1" d="M436.5,289.8c0,8.7-12.6,15.8-28.1,15.8s-28.1-7.1-28.1-15.8,2.6-7.6,6.9-10.4c-2.4-1.4-4.6-3-6.7-4.8,2.1,1.7,4.4,3.3,6.9,4.6,5.1-3.2,12.6-5.3,20.9-5.3s17.6,2.6,22.7,6.5c1.2-.6,2.5-1.2,3.6-1.9-1.1.7-2.3,1.4-3.5,2,3.3,2.6,5.3,5.8,5.3,9.2h0Z"/>
    <path class="st1" d="M456.1,242.3c0,15.2-8.5,28.5-21.2,36.1,12.7-8.1,21.1-22.3,21.1-38.5s0-1.3,0-2c.2,1.4.2,2.9.2,4.3h0Z"/>
    <path class="st1" d="M494.7,238.6c0-11.2-10-20.2-22.5-20.5,0-3-.3-6.1-.6-9-7.2.9-14.4-.2-21.2-2.8-14.6-5.5-28.1-17.9-39.5-32.7-7.4-9.6-13.9-20.1-19.1-30.4-4.9,6.1-10.7,12.2-17.5,17.8-18.9,15.9-44.6,28.7-74.3,31.5-2,.2-3.9.4-5.8.6-3.4-4.7-4.1-12.7-2.5-22.1.2-1,.4-2.1.6-3.1-.7.4-1.3.8-2,1.3.1-.6.2-1.2.4-1.8-5,3-8.8,6.7-11.8,10.4-5,6.3-7.7,12.9-9.4,17.5-5.4.5-10.1.9-14.3,1.3-.3,0-.6,0-.9,0-14.8,1.4-23.6,5.1-28.4,8.3-.1.6-.2,1.2-.3,1.9,0,0,0,.1,0,.2,0,.2,0,.4,0,.6,0,.2,0,.4,0,.6,0,.1,0,.2,0,.3s0,0,0,0h0c-.3,2.3-.5,4.7-.6,7.1,0,.9,0,1.7,0,2.6-11,1.5-19.4,10-19.4,20.2s8.5,18.9,19.6,20.3c0,1.1,0,2.2,0,3.4s0,2.3,0,3.4c0,1.2,0,2.5,0,3.7,0,23.9,8.5,46.1,22.9,64.2,13.5,16.9,32.1,30.3,54,38.3h0c0,0,.2,0,.3.1h0c0,0,.1,0,.2,0h0c.5.2.8.3,1.3.5h0c2.5.9,4.9,1.6,7.4,2.4h0c-.1.1-.2.2-.3.4-.1.1-.2.2-.3.4-.2.2-.4.5-.6.7,0,0,0,0,0,0-.3.4-.6.8-1,1.2-.3.4-.6.9-.9,1.3-.1.2-.3.4-.4.6,0,0,0,0,0,0-.5.7-.9,1.3-1.3,2-.2.3-.4.6-.5.9-.4.6-.7,1.2-1,1.9-.2.3-.3.6-.5,1-.2.3-.3.6-.4,1-.1.3-.2.6-.4.9,0,0,0,0,0,0s0,0,0,0c-.1.3-.3.6-.4,1-.1.3-.2.7-.4,1-.1.3-.2.6-.3.9-.1.4-.3.9-.4,1.3-.1.3-.2.6-.3,1,0,0,0,0,0,0,0,.3-.2.6-.2,1,0,.4-.2.8-.2,1.2,0,0,0,0,0,.1,0,.3-.1.5-.1.8,0,.4-.1.7-.2,1.1,0,.4-.1.7-.1,1.1,0,.4,0,.7-.1,1,0,.4,0,.7,0,1,0,.3,0,.6,0,.9,0,.5,0,.9,0,1.4,0,23.6,21.1,42.8,47.1,42.8s47.1-19.2,47.1-42.8,0-.8,0-1.2c0-.7,0-1.4-.1-2.1,0-.4,0-.8-.1-1.2,0-.3,0-.7-.1-1,0-.4-.1-.7-.2-1,0-.4-.1-.7-.2-1.1,0-.4-.1-.7-.2-1,0-.4-.2-.7-.2-1s-.2-.7-.3-1c-.5-1.6-1-3.3-1.7-4.8-.1-.3-.2-.5-.3-.8-.2-.4-.3-.7-.5-1.1-.2-.4-.4-.7-.5-1.1-.2-.4-.4-.7-.6-1-.1-.3-.3-.5-.5-.8-.2-.4-.4-.7-.6-1-.1-.2-.3-.5-.4-.7,0,0,0,0,0,0-.1-.2-.3-.4-.4-.6-.2-.3-.4-.5-.6-.8-.4-.6-.9-1.2-1.4-1.8-.2-.3-.5-.6-.7-.8-.1-.2-.2-.3-.4-.5,2.2-.6,4.4-1.2,6.5-1.9.5-.2,1.1-.4,1.6-.6.1,0,.2,0,.4-.1,0,0,.2,0,.3,0h0c22.6-7.9,42-21.5,55.9-38.9,14.5-18.1,23.1-40.4,23.1-64.4s0-2.3,0-3.4c0-1.2,0-2.5,0-3.7s0-2.1,0-3.2c12.4-.3,22.3-9.4,22.3-20.5h0ZM319.8,289.8c0,8.7-12.6,15.8-28.1,15.8s-28.1-7.1-28.1-15.8,1.5-5.9,4.1-8.3c-3.9-1.8-7.5-4.1-10.7-6.8l-.2-.2c-8.9-7.3-14.8-17.9-15.5-29.7-.2-1.6-.3-3.2-.3-4.9,0-18.9,11.5-35.1,27.8-42h0c.6-.3,1.3-.6,2-.8h0c1.8-.7,3.6-1.2,5.4-1.6,0,0,0,0,0,0,3.4-.8,6.9-1.2,10.4-1.2s1.3,0,2,0h0c2.1,0,4.2.3,6.3.7.4,0,.9.2,1.3.3s.3,0,0,0c20,4.3,35.2,21.7,36,42.9.1,1.4.2,2.7.2,4.1,0,15.2-8.5,28.5-21.2,36.1,0,0,0,0,0,0,5.3,2.9,8.5,6.9,8.5,11.3h0ZM349.3,348.9c-27.7,0-28.1-32.1-28.1-32.1,0,0,17-1.3,29.8-1.3s28.3,1.3,28.3,1.3c0,0-2.3,32.1-30,32.1h0ZM434.8,278.4s0,0-.1,0c-1.1.7-2.3,1.4-3.5,2,3.3,2.6,5.3,5.8,5.3,9.2,0,8.7-12.6,15.8-28.1,15.8s-28.1-7.1-28.1-15.8,2.6-7.6,6.9-10.4c-2.4-1.4-4.6-3-6.7-4.8,0,0-.2-.1-.2-.2-8.9-7.3-14.7-17.7-15.5-29.4-.2-1.7-.3-3.4-.3-5.1,0-25.2,20.5-45.7,45.7-45.7s33.7,10.5,41.1,25.7c2.6,5.4,4.2,11.5,4.5,17.9h0c.2,1.5.2,2.9.2,4.4,0,15.2-8.5,28.5-21.2,36.1h0Z"/>
    <path class="st1" d="M256.8,274.5c-8.9-7.3-14.8-17.9-15.5-29.7,1.2,11.8,7,22.3,15.5,29.7Z"/>
    <path class="st1" d="M319.8,289.8c0,8.7-12.6,15.8-28.1,15.8s-28.1-7.1-28.1-15.8,1.5-5.9,4.1-8.3c-3.9-1.8-7.5-4.1-10.7-6.8,3.3,2.6,7,4.9,11,6.6,5-4.4,13.7-7.3,23.7-7.3s14.5,1.7,19.6,4.5c5.3,2.9,8.5,6.9,8.5,11.3h0Z"/>
    <path class="st1" d="M332.5,242.3c0,15.2-8.5,28.5-21.2,36.1,12.7-8.1,21.1-22.3,21.1-38.5s0-1.2,0-1.8c.1,1.4.2,2.7.2,4.1h0Z"/>
    <path class="st1" d="M380.3,274.5c-8.9-7.3-14.7-17.7-15.5-29.4,1.3,11.7,7,22.1,15.5,29.4Z"/>
    <path class="st1" d="M436.5,289.8c0,8.7-12.6,15.8-28.1,15.8s-28.1-7.1-28.1-15.8,2.6-7.6,6.9-10.4c-2.4-1.4-4.6-3-6.7-4.8,2.1,1.7,4.4,3.3,6.9,4.6,5.1-3.2,12.6-5.3,20.9-5.3s17.6,2.6,22.7,6.5c1.2-.6,2.5-1.2,3.6-1.9-1.1.7-2.3,1.4-3.5,2,3.3,2.6,5.3,5.8,5.3,9.2h0Z"/>
    <path class="st1" d="M456.1,242.3c0,15.2-8.5,28.5-21.2,36.1,12.7-8.1,21.1-22.3,21.1-38.5s0-1.3,0-2c.2,1.4.2,2.9.2,4.3h0Z"/>
    <path class="st1" d="M225.8,205.3c0,.7-.1,1.3-.1,1.8,0-.6.2-1.2.3-1.9,0,0,0,0-.1,0Z"/>
    <path class="st1" d="M319.8,289.8c0,8.7-12.6,15.8-28.1,15.8s-28.1-7.1-28.1-15.8,1.5-5.9,4.1-8.3c0-.1.2-.2.3-.3,5-4.4,13.7-7.3,23.7-7.3s14.5,1.7,19.6,4.5c5.3,2.9,8.5,6.9,8.5,11.3h0Z"/>
    <path class="st1" d="M436.5,289.8c0,8.7-12.6,15.8-28.1,15.8s-28.1-7.1-28.1-15.8,2.6-7.6,6.9-10.4c0,0,.2-.1.2-.1,5.1-3.2,12.6-5.3,20.9-5.3s17.6,2.6,22.7,6.5c0,0,0,0,.1,0,3.3,2.6,5.3,5.8,5.3,9.2h0Z"/>
    <g>
      <path class="st0" d="M256.8,274.5c-8.9-7.3-14.8-17.9-15.5-29.7,1.2,11.8,7,22.3,15.5,29.7Z"/>
      <path class="st0" d="M311.2,278.4s0,0,0,0c-7,4.2-15.4,6.6-24.4,6.6s-13.1-1.4-18.8-3.8c5-4.4,13.7-7.3,23.7-7.3s14.5,1.7,19.6,4.5h0Z"/>
      <path class="st0" d="M332.5,242.3c0,15.2-8.5,28.5-21.2,36.1,12.7-8.1,21.1-22.3,21.1-38.5s0-1.2,0-1.8c.1,1.4.2,2.7.2,4.1h0Z"/>
      <path class="st0" d="M380.3,274.5c-8.9-7.3-14.7-17.7-15.5-29.4,1.3,11.7,7,22.1,15.5,29.4Z"/>
      <path class="st0" d="M408.4,274c9.3,0,17.6,2.6,22.7,6.5-6.2,2.9-13.2,4.6-20.6,4.6s-16.2-2.1-23-5.8c5.1-3.2,12.6-5.3,20.9-5.3h0Z"/>
      <path class="st0" d="M456.1,242.3c0,15.2-8.5,28.5-21.2,36.1,12.7-8.1,21.1-22.3,21.1-38.5s0-1.3,0-2c.2,1.4.2,2.9.2,4.3h0Z"/>
      <path class="st1" d="M332.3,238.2c-.8-21.1-16-38.6-36-42.9q-13.4-2.9,0,0c-.4,0-.9-.2-1.3-.3-2.1-.4-4.1-.6-6.3-.7h0c-.7,0-1.3,0-2,0-3.6,0-7.1.4-10.4,1.2,0,0,0,0,0,0-1.8.4-3.6,1-5.4,1.6h0c-.7.3-1.3.5-2,.8h0c-16.3,6.9-27.8,23.2-27.8,42s0,3.2.3,4.9c1.2,11.8,7,22.3,15.5,29.7l.2.2c3.3,2.6,7,4.9,11,6.6,5-4.4,13.7-7.3,23.7-7.3s14.5,1.7,19.6,4.5c0,0,0,0,0,0,12.7-8.1,21.1-22.3,21.1-38.5s0-1.2,0-1.8h0ZM300.7,244.5c0,4.8-3.9,8.6-8.6,8.6s-8.6-3.9-8.6-8.6v-10.4c0-4.8,3.9-8.6,8.6-8.6s4.2.8,5.7,2.2c.1.1.3.2.4.4,1.6,1.6,2.5,3.7,2.5,6.1v10.4Z"/>
      <path class="st1" d="M300.7,234.1v10.4c0,4.8-3.9,8.6-8.6,8.6s-8.6-3.9-8.6-8.6v-10.4c0-4.8,3.9-8.6,8.6-8.6s4.2.8,5.7,2.2c.1.1.3.2.4.4,1.6,1.6,2.5,3.7,2.5,6.1Z"/>
      <path class="st1" d="M311.2,278.4s0,0,0,0c-7.1,4.5-15.5,7.2-24.6,7.2s-13.2-1.5-18.9-4.1c-3.9-1.8-7.5-4.1-10.7-6.8,3.3,2.6,7,4.9,11,6.6,5-4.4,13.7-7.3,23.7-7.3s14.5,1.7,19.6,4.5h0Z"/>
      <path class="st1" d="M434.7,278.5c-1.1.7-2.3,1.4-3.5,2-6.3,3.2-13.4,5.1-21,5.1s-16.3-2.3-23-6.2c-2.4-1.4-4.6-3-6.7-4.8,2.1,1.7,4.4,3.3,6.9,4.6,5.1-3.2,12.6-5.3,20.9-5.3s17.6,2.6,22.7,6.5c1.2-.6,2.5-1.2,3.6-1.9h0Z"/>
      <path class="st1" d="M332.8,242.5s5.4-5.9,15.6-5.7c10.1.2,15.4,5.1,15.4,5.1"/>
      <line class="st1" x1="244.5" y1="219.5" x2="224.9" y2="215.8"/>
      <line class="st1" x1="471.6" y1="216.1" x2="451.2" y2="220.1"/>
      <path class="st0" d="M455.9,238h0c-.3-6.4-1.9-12.5-4.5-18-7.4-15.2-23-25.7-41.1-25.7s-45.7,20.4-45.7,45.7.1,3.4.3,5.1c1.3,11.7,7,22.1,15.5,29.4,0,0,.2.1.2.2,2.1,1.7,4.4,3.3,6.9,4.6,5.1-3.2,12.6-5.3,20.9-5.3s17.6,2.6,22.7,6.5c1.2-.6,2.5-1.2,3.6-1.9,0,0,.1,0,.1,0,12.7-8.1,21.1-22.3,21.1-38.5s0-1.3,0-2h0ZM418.2,244.5c0,4.8-3.9,8.6-8.6,8.6s-6.3-2-7.7-4.8c-.6-1.2-.9-2.5-.9-3.9v-10.4c0-4.8,3.9-8.6,8.6-8.6s4.5,1,6.1,2.5c.9.9,1.6,2,2,3.2.3.9.5,1.9.5,2.9v10.4h0Z"/>
      <path class="st1" d="M418.2,234.1v10.4c0,4.8-3.9,8.6-8.6,8.6s-6.3-2-7.7-4.8c-.6-1.2-.9-2.5-.9-3.9v-10.4c0-4.8,3.9-8.6,8.6-8.6s4.5,1,6.1,2.5c.9.9,1.6,2,2,3.2.3.9.5,1.9.5,2.9h0Z"/>
    </g>
  </g>
  <path class="st1" d="M84.3,418.8c-8.1,0-14.9-2.8-20.4-8.5h0c-.6-.6-1.1-1.2-1.6-1.8h0c-.5-.6-1-1.2-1.4-1.9-2.7-3.8-4.3-8.1-5-12.8-.2,1.3-.3,2.7-.3,4.1,0,8.1,2.8,15,8.3,20.6,5.5,5.7,12.3,8.5,20.4,8.5h61.2v-8.3h-61.2ZM202.8,418.8v8.3h0v-8.3ZM291.1,399.7c-.1.4-.3.8-.5,1.2,0-.2.2-.5.3-.7,0-.2.2-.5.3-.8,0,0,0,.2,0,.3Z"/>
  <path class="st1" d="M292.7,398c0,5.4-1.2,10.2-3.7,14.5,0,0,0,0,0,0-1.2,2.2-2.8,4.2-4.6,6.1-5.5,5.7-12.3,8.5-20.4,8.5h-61.2v-8.3s61.2,0,61.2,0c4.1,0,7.8-.7,11.2-2.1,1.3-.5,2.5-1.2,3.7-1.9,1.2-.7,2.3-1.6,3.4-2.5.7-.6,1.4-1.3,2.1-2,1.4-1.4,2.6-2.9,3.6-4.5,0,0,0,0,0,0h0c.2-.2.3-.4.4-.7.1-.2.3-.5.4-.7,0,0,0,0,0,0,.3-.5.5-.9.8-1.4.2-.5.5-1,.7-1.5.1-.2.2-.5.3-.7,0-.2.2-.5.3-.7,0-.2.2-.5.3-.8h0c0,0,0-.2,0-.2.4-1.2.7-2.4.9-3.7,0,0,0,0,0,0,0-.5.2-1,.2-1.6.2,1.3.3,2.7.3,4.1Z"/>
  <path class="st1" d="M292.7,389.6h0s0,0,0,0c0,1.4,0,2.8-.3,4.2h0c0,.5-.2,1.1-.2,1.6,0,0,0,0,0,0-.2,1.3-.5,2.5-.9,3.7,0,0,0,.2,0,.2h0c0,0,0,.2,0,.3-.1.4-.3.8-.5,1.2-.1.2-.2.5-.3.7-.2.4-.3.7-.5,1.1,0,.1-.1.3-.2.4-.1.2-.2.4-.4.6,0,0,0,0,0,0-.1.2-.2.5-.4.7,0,0,0,0,0,0-.1.2-.3.5-.4.7-.2.2-.3.4-.4.7h0s0,0,0,0c-1,1.6-2.2,3.1-3.6,4.5-.7.7-1.4,1.4-2.1,2-1.1.9-2.2,1.8-3.4,2.5-1.2.7-2.4,1.4-3.7,1.9-3.4,1.4-7.1,2.1-11.2,2.1h-61.2v69c0,3.1-.4,6-1.2,8.7-.1.4-.2.8-.4,1.2-.1.4-.3.9-.5,1.3h0c-.2.4-.4.9-.5,1.3h0c-.2.4-.4.8-.6,1.2h0c-.2.4-.4.8-.7,1.2h0c-.1.3-.3.5-.4.7-.5.7-.9,1.4-1.5,2.1-.7.9-1.5,1.8-2.3,2.7-.2.3-.5.5-.8.8-.4.4-.8.7-1.2,1.1-.4.3-.8.6-1.2.9h0s0,0,0,0h0c-2.4,1.8-5.1,3.2-8,4.1-2.9.9-6.1,1.4-9.5,1.4-8.1,0-14.9-2.8-20.4-8.3-5.5-5.5-8.3-12.3-8.3-20.4v-69h-61.2c-8.1,0-14.9-2.8-20.4-8.5-.6-.6-1.1-1.2-1.6-1.8h0c-.5-.6-1-1.2-1.4-1.9-2.7-3.8-4.3-8.1-5-12.8h0c-.2-1.3-.3-2.7-.3-4.2,0-8.1,2.8-14.9,8.3-20.4s12.3-8.3,20.4-8.3h61.2v-61.2c0-8.1,2.8-14.9,8.3-20.4,5.5-5.5,12.3-8.3,20.4-8.3s14.9,2.8,20.4,8.3c5.5,5.5,8.3,12.3,8.3,20.4v61.2h61.2c8.1,0,14.9,2.8,20.4,8.3,1.5,1.5,2.7,3,3.8,4.6,0,0,0,.1.1.2,0,0,0,.1.1.2,0,.1.2.2.2.4,0,0,0,0,0,0,0,0,0,0,0,0h0s0,0,0,0c1.4,2.4,2.4,4.9,3.1,7.6,0,0,0,0,0,0,0,.3.1.6.2.8,0,.4.2.9.2,1.3,0,.4.1.9.2,1.4,0,.2,0,.5,0,.7,0,0,0,.1,0,.2,0,.3,0,.6,0,.9,0,.6,0,1.3,0,1.9Z"/>
</svg>