<?xml version="1.0" encoding="utf-8"?>
<!-- Generator: Adobe Illustrator 27.4.1, SVG Export Plug-In . SVG Version: 6.00 Build 0)  -->
<svg version="1.1" id="Camada_1" xmlns="http://www.w3.org/2000/svg" xmlns:xlink="http://www.w3.org/1999/xlink" x="0px" y="0px"
	 viewBox="0 0 951.1 152.3" style="enable-background:new 0 0 951.1 152.3;" xml:space="preserve">
<style type="text/css">
	.st0{fill:#F2A920;}
	.st1{fill:#285A50;}
	.st2{fill:#EBC17B;}
	.st3{fill:#285A51;}
</style>
<g>
	<g>
		<path class="st0" d="M646.8,73.8v59.7c-8.1,6.2-17.4,10.8-28,14c-10.5,3.2-21,4.7-31.6,4.7c-11.6,0-22.4-1.9-32.2-5.6
			c-9.8-3.7-18.3-9-25.4-15.9c-7.2-6.9-12.7-14.9-16.7-24.2c-4-9.2-6-19.4-6-30.5c0-11.1,2-21.2,6-30.5c4-9.2,9.6-17.3,16.9-24.2
			c7.3-6.9,15.8-12.2,25.7-15.9c9.8-3.7,20.6-5.6,32.4-5.6c13,0,24.8,2.2,35.2,6.5c10.5,4.3,19.2,10.7,26.4,18.9l-21.7,20.2
			c-5.5-5.7-11.4-10-17.7-12.7c-6.3-2.7-13.2-4.1-20.8-4.1c-7,0-13.4,1.2-19.3,3.5s-11,5.6-15.2,9.8c-4.3,4.2-7.6,9.2-9.9,14.9
			c-2.3,5.8-3.5,12.1-3.5,19.1c0,6.7,1.2,13,3.5,18.8c2.3,5.8,5.6,10.8,9.9,15c4.3,4.2,9.3,7.5,15.1,9.9c5.8,2.4,12.2,3.6,19.2,3.6
			c6.7,0,13.3-1.1,19.7-3.4c2.3-0.8,4.6-1.8,6.8-3v-13.4H583V73.8H646.8z"/>
	</g>
	<g>
		<g>
			<polygon class="st1" points="130.5,10 130.5,152.2 103.3,152.2 32.5,65.9 32.5,152.2 0,152.2 0,10 27.2,10 98,96.3 98,10 			"/>
			<path class="st1" d="M257.9,39.9v112.3h-30.1v-13.3c-3,3.7-6.6,6.7-10.7,9c-7.1,4-14.8,4.4-23.2,4.4c-9.2,0-17.3-0.2-24.4-3.8
				c-7-3.6-12.5-9.2-16.5-16.7c-3.9-7.5-5.9-17-5.9-28.4V51.7l31.7-11.8v58.4c0,9.5,1.9,16.4,5.8,20.8c3.8,4.4,9.3,6.5,16.3,6.5
				c4.9,0,9.2-1.1,13-3.3c3.8-2.2,6.8-5.6,9-10c2.2-4.5,3.4-10,3.4-16.7V39.9H257.9z"/>
			<path class="st1" d="M434.2,39.9v27.8c-1.2-0.3-2.4-0.5-3.5-0.6c-1.2-0.1-2.3-0.2-3.4-0.2c-8.9,0-16,2.5-21.3,7.5
				c-5.3,5-7.9,12.7-7.9,23.2v54.6h-31.7V56.5l30.3-16.6v14.4c3-4.1,6.8-7.4,11.4-10C415.2,40.3,423.9,39.9,434.2,39.9z"/>
			<path class="st1" d="M446.5,152.2V39.9h31.7v112.3H446.5z M478.2,10l-31.7,11.8v11.8h31.7V10z"/>
		</g>
		<path class="st1" d="M354.8,145.1c-3.1,2.4-7,4.2-11.5,5.4c-4.5,1.2-9.3,1.8-14.1,1.8c-12.9,0-22.9-3.4-30.1-10.2
			c-7.2-6.8-10.8-16.9-10.8-30.4V65.1h-16.9V39.9h16.9V21.7l31.9-11.8v29.9h27v25.2h-27V111c0,4.8,1.2,8.5,3.6,11.1
			c2.3,2.7,5.6,4,9.6,4c5.2,0,9.5-1.4,13-4.2L354.8,145.1z"/>
	</g>
	<path class="st0" d="M778,77.5v-1.4c0-26-21.1-47.1-47.1-47.1s-47.2,21.1-47.2,47.2c0,20.3,12.8,37.6,30.7,44.2
		c0.1,0,0.2,0.1,0.2,0.1c-0.3-11.5-0.7-23-1.1-34.4c-4.7-0.8-8.4-5-8.8-10.3c0,0-0.3-1-0.7-7.9c-0.1-4.2,0.4-8.2,1.9-8.2
		c1.5,0,1.7,5.7,1.9,8.8s0.5,7.6,0.5,7.6c0.7,0,1.4,0.1,2.2,0.1c0-1.1-0.1-3.5-0.5-9.4c-0.3-4.5-0.1-9.3,1.5-9.4
		c1.6-0.1,1.9,6.3,2.1,9.7l0.5,9c0.3,0,0.7,0,1.1-0.1c0.4,0,0.8-0.1,1.1-0.1l-0.5-9c-0.2-3.5-0.7-9.8,0.9-9.9s2.5,4.2,2.7,8.6
		c0.4,5.9,0.4,8.7,0.6,9.8c0.8-0.1,1.6-0.2,2.3-0.4c0,0-0.2-4.1-0.4-7.3c-0.2-3.2-0.7-9.1,0.8-9.1c1.4-0.1,2.4,4,2.7,8
		c0.3,5.8,0.3,7.6,0.3,8l0,0c0.2,5.3-3,9.7-7.6,11.1c1.1,12.1,2.2,24.3,3.3,36.6c3.2,0.7,6.4,1,9.7,1c3,0,6-0.3,8.8-0.8
		c0.1,0,0.2,0,0.2-0.1c1.6-12.5,3.2-24.9,4.7-37.5c-4.6-1.5-7.7-6.4-7.1-11.7c0.6-6.2,4-16.4,11.8-15.7c7.9,0.7,9.2,11.5,8.6,17.7
		c-0.5,5.4-4.5,9.5-9.1,10.1c-0.8,11.7-1.6,23.5-2.3,35.3c14.5-5.2,25.8-17.2,29.8-32.2l15.6-14.9l13.8,15.9
		c-6.3,35.7-37.5,62.8-75,62.8c-42.1,0.1-76.2-34-76.2-76S688.7,0,730.9,0C773,0,807,34.1,807,76.2v2l-14.8-14.7L778,77.5z"/>
	<polygon class="st2" points="951.1,2.5 888.5,147.2 871.7,107.8 917.2,2.5 	"/>
	<polygon class="st0" points="888.5,147.2 888.5,147.2 887.4,149.7 853.7,149.7 790,2.5 827,2.5 871.7,107.8 	"/>
</g>
<path class="st3" d="M354.8,145.1c-3.1,2.4-7,4.2-11.5,5.4c-4.5,1.2-9.3,1.8-14.1,1.8c-12.9,0-22.9-3.4-30.1-10.2
	c-7.2-6.8-10.8-16.9-10.8-30.4V65.1h-16.9V39.9h16.9V21.7l31.9-11.8v29.9h27v25.2h-27V111c0,4.8,1.2,8.5,3.6,11.1
	c2.3,2.7,5.6,4,9.6,4c5.2,0,9.5-1.4,13-4.2L354.8,145.1L354.8,145.1z"/>
</svg>
