<?xml version="1.0" encoding="UTF-8"?>
<svg id="Camada_2" data-name="Camada 2" xmlns="http://www.w3.org/2000/svg" viewBox="0 0 500 300">
  <defs>
    <style>
      .cls-1 {
        fill: #e7ac44;
      }

      .cls-2 {
        fill: #e4c284;
      }

      .cls-3 {
        fill: #355850;
      }
    </style>
  </defs>
  <path class="cls-1" d="m322.81,149.01v25.39c-3.46,2.62-7.42,4.6-11.89,5.94-4.47,1.34-8.94,2.01-13.41,2.01-4.95,0-9.5-.79-13.67-2.37-4.17-1.58-7.78-3.83-10.81-6.75-3.04-2.92-5.41-6.35-7.11-10.28-1.7-3.93-2.55-8.25-2.55-12.96s.85-9.03,2.55-12.96c1.7-3.93,4.1-7.36,7.2-10.28,3.09-2.92,6.73-5.17,10.9-6.75,4.17-1.58,8.76-2.37,13.76-2.37,5.54,0,10.53.93,14.97,2.77,4.44,1.85,8.18,4.53,11.22,8.05l-9.2,8.58c-2.33-2.44-4.83-4.25-7.51-5.41-2.68-1.16-5.63-1.74-8.85-1.74-2.98,0-5.72.49-8.22,1.47-2.5.98-4.66,2.37-6.48,4.16-1.82,1.79-3.22,3.9-4.2,6.35-.98,2.44-1.48,5.15-1.48,8.14s.49,5.53,1.48,8c.98,2.47,2.38,4.6,4.2,6.39,1.82,1.79,3.97,3.19,6.44,4.2,2.47,1.02,5.2,1.52,8.18,1.52s5.64-.48,8.36-1.43c.98-.34,1.95-.77,2.91-1.28v-5.7h-13.9v-12.69h27.13Z"/>
  <g>
    <g>
      <polygon class="cls-3" points="103.33 121.87 103.33 182.35 91.75 182.35 61.69 145.66 61.69 182.35 47.86 182.35 47.86 121.87 59.44 121.87 89.51 158.57 89.51 121.87 103.33 121.87"/>
      <path class="cls-3" d="m157.51,134.62v47.71h-12.79v-5.64c-1.28,1.56-2.8,2.83-4.57,3.83-3,1.7-6.29,1.85-9.87,1.85-3.91,0-7.37-.09-10.36-1.62-2.98-1.53-5.33-3.9-6.99-7.09-1.67-3.2-2.51-7.21-2.51-12.06v-21.97l13.48-5v24.84c0,4.02.82,6.96,2.47,8.83,1.64,1.86,3.96,2.78,6.95,2.78,2.07,0,3.92-.48,5.53-1.41,1.61-.96,2.9-2.37,3.84-4.26.95-1.89,1.43-4.26,1.43-7.1v-23.68h13.39Z"/>
      <path class="cls-3" d="m232.43,134.62v11.84c-.52-.11-1.02-.2-1.51-.26-.49-.06-.96-.09-1.43-.09-3.8,0-6.82,1.07-9.07,3.2-2.24,2.13-3.37,5.42-3.37,9.85v23.2h-13.48v-40.7l12.88-7.04v6.1c1.27-1.74,2.88-3.16,4.84-4.25,3.06-1.7,6.77-1.86,11.15-1.86Z"/>
      <path class="cls-3" d="m237.66,182.35v-47.74h13.48v47.74h-13.48Zm13.48-60.48l-13.48,5v5h13.48v-10Z"/>
    </g>
    <path class="cls-3" d="m198.68,179.31c-1.33,1.02-2.96,1.78-4.88,2.28-1.93.5-3.94.77-6.01.77-5.48,0-9.74-1.46-12.79-4.34-3.05-2.89-4.58-7.2-4.58-12.93v-19.77h-7.17v-10.73h7.17v-7.72l13.58-5v12.72h11.49v10.73h-11.49v19.5c0,2.03.5,3.61,1.51,4.74.99,1.13,2.37,1.71,4.09,1.71,2.2,0,4.03-.6,5.53-1.79l3.54,9.83Z"/>
  </g>
  <path class="cls-1" d="m378.55,150.59v-.59c0-11.07-8.96-20.02-20.02-20.02s-20.06,8.96-20.06,20.06c0,8.62,5.45,15.97,13.05,18.8.04,0,.08.04.08.04-.13-4.9-.3-9.76-.46-14.62-1.99-.34-3.59-2.11-3.76-4.39,0,0-.13-.42-.3-3.38-.04-1.77.17-3.51.8-3.51s.72,2.41.8,3.76.21,3.21.21,3.21c.3,0,.59.04.93.04,0-.46-.04-1.48-.21-4.01-.13-1.9-.04-3.97.63-4.01s.8,2.66.89,4.14l.21,3.84c.13,0,.3,0,.46-.04.17,0,.34-.04.46-.04l-.21-3.84c-.08-1.48-.3-4.18.38-4.22.68-.04,1.06,1.77,1.14,3.67.17,2.49.17,3.72.25,4.18.34-.04.68-.08.97-.17,0,0-.08-1.73-.17-3.08-.08-1.35-.3-3.89.34-3.89.59-.04,1.01,1.69,1.14,3.42.13,2.45.13,3.21.13,3.42h0c.08,2.24-1.27,4.14-3.21,4.73.46,5.15.93,10.35,1.39,15.54,1.35.3,2.7.42,4.14.42,1.27,0,2.53-.13,3.76-.34.04,0,.08,0,.08-.04.68-5.32,1.35-10.6,1.99-15.92-1.94-.63-3.25-2.7-3-4.98.25-2.62,1.69-6.97,5.03-6.67,3.34.3,3.93,4.9,3.67,7.52-.21,2.28-1.9,4.06-3.89,4.31-.34,4.98-.68,9.97-.97,15,6.17-2.2,10.98-7.31,12.67-13.69l6.63-6.34,5.87,6.76c-2.66,15.16-15.92,26.7-31.89,26.7-17.91.04-32.4-14.45-32.4-32.31s14.49-32.4,32.4-32.4,32.36,14.49,32.36,32.4v.84l-6.29-6.25-6.04,5.96Z"/>
  <polygon class="cls-2" points="452.14 118.71 425.52 180.2 418.41 163.46 437.75 118.71 452.14 118.71"/>
  <polygon class="cls-1" points="425.52 180.2 425.52 180.21 425.06 181.28 410.76 181.28 383.67 118.71 399.4 118.71 418.41 163.46 425.52 180.2"/>
</svg>