<svg id="455710556" viewBox="0 0 1001 1001" xmlns="http://www.w3.org/2000/svg" xmlns:xlink="http://www.w3.org/1999/xlink"><g transform="matrix(1,0,0,1,0,0)"><g id="455710556" opacity="1" style="mix-blend-mode:normal"><g><defs><clipPath id="455710556_clipPath" x="-50%" y="-50%" width="200%" height="200%"><path d="M0,0h1001v0v1001v0h-1001v0v-1001z" fill="white" clip-rule="nonzero"></path></clipPath></defs><g clip-path="url(#455710556_clipPath)"><g transform="matrix(1,0,0,1,0.4993,0.5002)"><g id="455710557" opacity="1" style="mix-blend-mode:normal"><g><g><g transform="matrix(1,0,0,1,354.0937,444.4498)"><g id="455710558" opacity="1" style="mix-blend-mode:normal"><g><g><g style="mix-blend-mode:NORMAL"><path id="455710558_stroke_path" d="M4.89697,202.72998c1.39,-6.58 2.44001,-41.10999 2.39001,-48.12c-0.05,-7.01 -0.40001,-22.53999 -4.13001,-49.23999c-3.73,-26.7 -3.42999,-28.25001 -2.70999,-39.14001c0.72,-10.89 -0.59002,-14.95999 7.81998,-25.14999c8.41,-10.19 11.13002,-11.59001 11.68002,-21.92001c0,0 -0.00002,-0.97998 9.38998,-1.06998c9.39,-0.09 15.89002,-2.57001 19.86002,-8.85001c3.97,-6.28 7.12,-9.23999 7.12,-9.23999c0,0 17.06999,1.49999 30.32999,16.54999c13.26,15.05 31.54002,39.45001 34.02002,45.92001c2.48,6.47 7.6,15.46 11.44,35.16c3.84,19.7 5.82999,20.18996 6.82999,27.70996c0.4,3.02 -2.93,2.66 -3.09,-4.81c-0.16,-7.47 -2.24001,-12.22996 -3.73001,-22.89996c-1.49,-10.67 -17.63998,-54.46002 -17.63998,-54.46002" fill="none" stroke="rgb(0, 0, 0)" stroke-width="1" stroke-linecap="butt" stroke-linejoin="miter" stroke-dasharray="0 0" stroke-opacity="1"></path></g></g></g></g></g><g transform="matrix(1,0,0,1,173.6055,391.69759999999997)"><g id="455710559" opacity="1" style="mix-blend-mode:normal"><g><g><g style="mix-blend-mode:NORMAL"><path id="455710559_stroke_path" d="M334.1452,80.26217c0,0 15.21001,33.74002 22.64001,54.12002c7.43,20.38 16.25999,41.03996 22.04999,66.14996c5.79,25.11 2.20001,38.34002 -22.04999,36.71002c-24.25,-1.63 -55.09001,-22.63002 -73.51001,-37.77002c-18.42,-15.14 -25.96998,-18.15996 -31.95998,-21.76996c-11.73,-7.08 -0.18001,-22.72 0.10999,7.63c0.29,30.35 2.46001,33.36996 2.48001,43.95996c0.02,10.59 1.25,23.23001 1.25,26.01001c0,5.92 -12.48003,-6.75003 4.88997,-4.78003c5.28,0.6 2.83002,5.31007 19.39001,10.37007c16.56,5.06 20.10999,8.74997 27.35999,16.02997c7.25,7.28 14.49,14.31 14.34,19.31c-0.15,5 -0.55999,3.28 1.54001,6.19c2.1,2.91 6.23999,9.68001 -1.54001,18.07001c-7.78,8.39 -14.62,6.98002 -26.19,5.58002c-11.57,-1.4 -15.29999,-2.72003 -15.29999,-2.72003c0,0 0.64,7.03003 -6.22,6.78003c-6.86,-0.25 -9.31,-5.43003 -14.16,-10.09003c0,0 4.08003,12.34002 -5.35997,13.52002c-9.44,1.18 -14.62002,-6.35001 -24.27002,-14.07001c-9.65,-7.72 -11.44998,-8.09003 -11.44998,-8.09003c0,0 -7.91001,5.19004 -20.85001,3.04004c-12.94,-2.15 -12.46001,-5.78002 -16.85001,-6.52002c-4.39,-0.74 -7.09999,-1.01999 -21.04999,-2.23999c-2.11,-20.85 3.54,-45.97004 5.66,-54.40004c0.4,-1.6 2.04997,-2.53001 3.62997,-2.07001c2.28,0.67 5.79003,1.71 10.09003,2.94c1.45,0.42 2.37997,1.83001 2.18997,3.32001c-1.46,11.36 -7,56.06005 -4.03,56.04005c5.97,-0.05 10.97001,-3.23003 -13.70999,-5.53003c-24.68,-2.3 -57.21,-2.74002 -87.37,-7.52002c-30.16,-4.78 -52.67999,-5.99998 -69.22999,-24.10999c-11.72,-12.83 -5.53,-40.23002 0,-81.94002c5.53,-41.71 11.29999,-79.28999 22.37999,-102.08999c11.08,-22.8 17.74001,-49.48 37.31001,-56.71c19.57,-7.23 47.94998,-16.03 57.02998,-18.53c9.08,-2.5 10.33002,-3.62 13.26002,-6.28c6.9,-6.26 3.04001,-10.39999 0.42001,-8.20999c-2.62,2.19 -0.15002,7.95999 1.03998,15.42999c1.19,7.47 3.16001,21.87 16.67001,30.44c13.51,8.57 32.64,18.51001 34.31,19.41001c1.67,0.9 1.54001,10.28998 -0.04999,17.41998c-0.09,0.41 -7.26001,22.98001 -6.79001,21.73001c9.71,-25.85 -6.85001,-30.64001 -12.95001,-33.35001c-8.02,-3.56 -24.12999,-12.94001 -31.17999,-20.57001c-7.05,-7.63 -12.45002,-15.09998 -13.11002,-31.34998" fill="none" stroke="rgb(0, 0, 0)" stroke-width="1" stroke-linecap="butt" stroke-linejoin="miter" stroke-dasharray="0 0" stroke-opacity="1"></path></g></g></g></g></g><g transform="matrix(1,0,0,1,301.2607,248.1299)"><g id="455710560" opacity="1" style="mix-blend-mode:normal"><g><g><g style="mix-blend-mode:NORMAL"><path id="455710560_stroke_path" d="M14.79002,147.23987c0,0 2.13002,-8.00998 0.90002,-16.13998c-2.67,-17.74 -6.92002,-29.70002 -11.93002,-44.52002c-5.01,-14.82 -6.04998,-36.69998 3.39001,-61.25998c9.44,-24.56 41.69,-27.51001 62.72,-24.21001c21.03,3.3 35.74001,7.60998 48.32001,14.83998c12.58,7.23 16.67998,10.52001 23.56998,6.70001c6.89,-3.82 -0.41,-10.78 -5.47,5.06c-5.06,15.84 -5.27997,24.68001 -3.37997,35.98001c1.9,11.3 6.11,17.02998 1.09,29.75998c-5.02,12.73 -6.60002,15.02 -4.93002,24.28c1.67,9.26 0.34003,12.91003 -5.12997,27.84003c-5.47,14.93 -9.86001,27.93999 -10.73001,29.64999" fill="none" stroke="rgb(0, 0, 0)" stroke-width="1" stroke-linecap="butt" stroke-linejoin="miter" stroke-dasharray="0 0" stroke-opacity="1"></path></g></g></g></g></g><g transform="matrix(1,0,0,1,312.99399999999997,283.9941)"><g id="455710561" opacity="1" style="mix-blend-mode:normal"><g><g><g style="mix-blend-mode:NORMAL"><path id="455710561_stroke_path" d="M120.11666,18.2757c-5.76,-18.63 -35.87998,-20.02999 -49.56998,-17.07999c-13.69,2.95 -18.40001,10.65999 -18.89001,16.54999c-0.49,5.89 5.62999,8.96001 6.64999,15.51001c1.02,6.55 -0.93999,8.8 -6.64999,14.28c-5.71,5.48 -7.30998,10.85999 -7.72998,24.29999c-0.42,13.44 3.06999,13.35001 5.85999,26.35001c2.79,13 6.58999,15.29001 14.29999,15.23001c7.71,-0.06 7.47002,-15.71001 10.58002,-18.17001c3.11,-2.46 4.85,-4.99998 4.25,-8.28998c-0.6,-3.29 2.42,-7.58001 8.87,-9.32001c6.45,-1.74 6.82001,-9.12 6.82001,-10.78c0,-1.66 -1.94,-1.51001 -1.94,-1.51001c-23.75,-1.84 -29.20001,1.55 -28.14001,3.03c1.27,1.77 4.42001,9.95002 16.42001,8.52002c12,-1.43 12.18,-5.19001 13.63,-9.17001c1.45,-3.98 -2.36001,-10.24001 0.79999,-12.95001c2.32,-1.99 9.04001,0.73001 -1.85999,4.48001c-8.9,3.06 -32.85001,1.13 -31.10001,-0.78c1.75,-1.91 13.10999,-5.62999 27.37,-6.70999c14.26,-1.08 20.41001,7.53998 19.14001,16.06998c-1.27,8.53 -0.55003,15.43 2.37997,26.66c2.93,11.23 -1.11,10.21001 -8.25,10.35001c-7.14,0.14 -11.55,-4.49 -12.53,-9.12c-0.98,-4.63 5.64002,-0.48999 6.55002,2.32001c1.99,6.1 10.48,19.16001 0.5,13.60001c-7.54,-4.2 -15.35,-3.32002 -20.16,-2.90002c-4.81,0.42 -5.56002,1.08002 -3.83002,5.18002c1.73,4.1 8.31001,8.82998 13.26001,10.44998c4.95,1.62 12.74,2.50002 15.88,0.30002c3.14,-2.2 3.33001,-4.60001 -3.82999,-6.48001c-7.16,-1.88 -20.82,-6.38999 -25.22,-6.98999c-4.4,-0.6 -3.98002,4.41999 -2.36002,11.70999c1.62,7.29 1.04001,6.38999 3.79001,11.99999c2.75,5.61 9.27999,4.09001 11.95999,1.32001c2.68,-2.77 2.96,-3.78001 9.06,-2.04001c6.1,1.74 9.91001,12.68998 2.85001,23.91998c-7.06,11.23 -15.17,16.64002 -27.66,12.49002c-12.49,-4.15 -26.33999,-13.52002 -34.04999,-31.24002c-7.71,-17.72 -8.29,-23.74996 -8.19,-31.93996c0.1,-8.19 3.21,-23.09001 2.69,-32.45001c-0.52,-9.36 -7.19002,-28.54 -19.80002,-26.81c-12.61,1.73 -13.18998,3.24001 -10.94998,19.60001c2.24,16.36 9.13,26.44 17.5,25.78c8.37,-0.66 5.05998,-9.89 4.97998,-10.12c-1.41,-3.73 -4.97998,-3.15 -6.13998,-0.75c-1.16,2.4 -7.8,8.12997 -11.53,-5.56003c-3.73,-13.69 -4.82001,-23.44999 3.64999,-25.79999c8.47,-2.35 12.61,5.89001 12.69,10.70001c0.08,4.81 -3.65001,0.57999 -5.14001,3.89999c-1.49,3.32 -0.5,5.80999 2.16,6.29999c2.66,0.49 3.89999,1.24001 3.89999,4.73001" fill="none" stroke="rgb(0, 0, 0)" stroke-width="1" stroke-linecap="butt" stroke-linejoin="miter" stroke-dasharray="0 0" stroke-opacity="1"></path></g></g></g></g></g><g transform="matrix(1,0,0,1,256.66339999999997,490.4398)"><g id="455710562" opacity="1" style="mix-blend-mode:normal"><g><g><g style="mix-blend-mode:NORMAL"><path id="455710562_stroke_path" d="M176.19728,228.34003c0.38,-7.57 -8.78999,-12.05006 -23.20999,-28.37006c-14.42,-16.32 -28.09998,-9.68997 -15.16998,-7.90997c12.93,1.78 28.88998,12.94997 36.31998,22.96997c7.43,10.02 11.3,19.88003 18.66,16.09003c7.36,-3.79 3.15001,-10.65999 -0.54999,-17.42999c-3.7,-6.77 -7.12999,-18.76998 -20.64999,-31.97998c-13.52,-13.21 -40.4,-5.53001 -22.22,-5.14001c18.18,0.39 26.10999,3.76002 40.98999,14.08002c14.88,10.32 8.18999,21.85996 20.82999,21.82996c12.64,-0.03 7.77002,-9.46997 -0.84998,-22.52997c-8.62,-13.06 -16.44002,-25.15003 -38.74002,-27.78003c-22.3,-2.63 -17.29,-2.46 -42.34,0c-25.05,2.46 -35.99998,-6.87999 -71.48999,-14.67999c-35.49,-7.8 -47.67001,-18.31001 -54.60001,-20.89001c-6.93,-2.58 -0.71999,-17.67999 1.70001,-33.48999c2.42,-15.81 3.63998,-39.82001 3.63998,-39.82001c3.13,-24.76 10.21,-53.28998 5.78,-53.28998c-4.43,0 -2.37998,7.73999 13.99002,13.48999c16.37,5.75 41.39999,14.27002 61.76999,13.71002c0,0 -0.10999,7.52 -1.54999,12.94c0,0 -49.6,-5.53 -59,-10.06c0,0 5.30998,-11.83003 3.31998,-12.94003c-1.99,-1.11 -3.09998,7.96004 -4.97998,22.01004c-1.88,14.05 -3.21001,40.14996 20.01999,44.01996c23.23,3.87 36.11,2.09999 40.31,-37.82001" fill="none" stroke="rgb(0, 0, 0)" stroke-width="1" stroke-linecap="butt" stroke-linejoin="miter" stroke-dasharray="0 0" stroke-opacity="1"></path></g></g></g></g></g><g transform="matrix(1,0,0,1,435.39119999999997,377.8496)"><g id="455710563" opacity="1" style="mix-blend-mode:normal"><g><g><g style="mix-blend-mode:NORMAL"><path id="455710563_stroke_path" d="M94.99944,188.41019c-7.29,-17.62 -6.66999,-18.86003 -9.54999,-27.72003c4.56,-2.73 6.87996,7.63 3.70996,6.44c-3.17,-1.19 -3.62997,-6.43995 -6.58997,-18.88995c-2.96,-12.45 -5.65003,-21.60001 -7.84003,-27.64001c-2.19,-6.04 4.03003,-6.12 4.91003,-2.25c0.88,3.87 0.32998,4.08999 -1.33002,4.64999c-1.66,0.56 -3.04001,-0.76001 -5.67001,-8.07001c-2.63,-7.31 -3.76,-10.58999 -4.91,-10.76999c-1.15,-0.18 -10.44998,1.94999 -16.19998,2.60999c-5.75,0.66 -18.35001,3.53999 -19.79001,0.92999c-1.44,-2.61 -5.81001,-10.85998 -3.98001,-13.56998c1.83,-2.71 -0.21998,1.44999 9.24002,-1.70001c9.46,-3.15 29.91997,-12.63 31.34997,-13.75c1.43,-1.12 4.49001,6.34999 4.10001,12.14999c-0.39,5.8 -3.87001,4.19 -4.32001,3.31c-0.45,-0.88 -1.51998,-9.12998 -6.97998,-19.34998c-5.46,-10.22 -6.39002,-8.63001 -4.96002,-19.91001c1.43,-11.28 -5.55,-18.09001 -7.31,-22.70001c-1.76,-4.61 -1.13,-11.38001 -7.31,-12.98001c-6.18,-1.6 -15.02,-3.54999 -20.06,-0.57999c-5.04,2.97 -9.72999,11.56001 -10.45999,16.98001c-0.73,5.42 -1.97999,10.83999 4.76001,7.42999c6.74,-3.41 5.45999,-10.11001 12.73999,-12.51001c7.28,-2.4 -5.56999,-20.33 -8.04999,-19.5c-2.48,0.83 -8.55002,2.84 -9.11002,4.87c-0.56,2.03 1.11,7.88001 -3,9.20001c-4.11,1.32 -10.32,3.01 -7.81,-7.38c2.51,-10.39 9.66001,-12.6 16.48001,-16.53c6.82,-3.93 7.43999,2.82 10.42999,7.59c1.94,3.11 9.66001,8.44 9.66001,8.44" fill="none" stroke="rgb(0, 0, 0)" stroke-width="1" stroke-linecap="butt" stroke-linejoin="miter" stroke-dasharray="0 0" stroke-opacity="1"></path></g></g></g></g></g><g transform="matrix(1,0,0,1,417.4006,370.4726)"><g id="455710564" opacity="1" style="mix-blend-mode:normal"><g><g><g style="mix-blend-mode:NORMAL"><path id="455710564_stroke_path" d="M35.50003,6.48722c0,0 -1.11999,-6.13999 -8.45999,-6.26999c-7.34,-0.13 -12.63999,-1.21 -13.48999,3.03c-0.31,1.56 0.37,1.42 -1.22,6.78c-0.98,3.32 -2.33,4.88001 3.37,3.29001c9,-2.52 10.46001,-1.86 10.10001,0.47c0,0 -0.52002,-0.12 -2.46002,2.28c-1.94,2.4 -5.26998,7.70998 -5.31998,11.56998c-0.05,3.86 1.21,5.77002 4.03,5.52002c0,0 1.86999,2.99998 2.67999,6.16998c0.81,3.17 0.36999,2.66 -3.73001,9.5c-4.1,6.84 -8.81998,15 -10.97998,17.06c-2.16,2.06 -3.67001,4.04 -5.60001,-1.84c-1.93,-5.88 -3.42,-11.35 -4.06,-13.53c-0.64,-2.18 -0.47001,-4.38998 0.85999,-4.88998c1.33,-0.5 -1.66999,13.76001 12.70001,22.94001c14.37,9.18 31.23,17.2 34.28,31.97" fill="none" stroke="rgb(0, 0, 0)" stroke-width="1" stroke-linecap="butt" stroke-linejoin="miter" stroke-dasharray="0 0" stroke-opacity="1"></path></g></g></g></g></g><g transform="matrix(1,0,0,1,466.59069999999997,673.4698000000001)"><g id="455710565" opacity="1" style="mix-blend-mode:normal"><g><g><g style="mix-blend-mode:NORMAL"><path id="455710565_stroke_path" d="M10.42001,45.26001c0,0 3.09999,-1.21996 1.39999,-7.51996c-1.7,-6.3 -2.21001,-6.39002 -5.07001,-7.08002c-2.86,-0.69 -0.42,1.76997 7.53,1.33997c7.95,-0.43 13.83001,-0.18999 16.48001,-6.35999c2.65,-6.17 -5.35001,-9.19 -5.35001,-9.19c0,0 -5.69999,2.81999 -11.60999,-3.95001c-5.91,-6.77 -5.75002,-9.96 -13.80002,-12.5" fill="none" stroke="rgb(0, 0, 0)" stroke-width="1" stroke-linecap="butt" stroke-linejoin="miter" stroke-dasharray="0 0" stroke-opacity="1"></path></g></g></g></g></g><g transform="matrix(1,0,0,1,453.1978,451.0698)"><g id="455710566" opacity="1" style="mix-blend-mode:normal"><g><g><g style="mix-blend-mode:NORMAL"><path id="455710566_stroke_path" d="M184.76289,138.90997l24.32996,-131.59998l139.99998,-7.31l-42.82001,190.46002l3.25,7.95996l-148.34996,59.15002l-3.77002,-11.17004c0,0 14.99002,-55.73997 22.96002,-88.08997c7.97,-32.35 2.98002,-6.14 -1.66998,-4.31c-4.65,1.83 -172.07,45.74998 -178.66,47.47998c-0.05,0.01 -0.04002,0.08003 0.00998,0.09003c0,0 7.16001,2.43998 8.85001,3.16998c5.55,2.37 8.30002,4.10999 8.30002,4.10999l114.5,-34.23999l43.48999,4.22998l-2.13,8.28003l-129.98001,39.94v2.21002l110.28,17.97998l3.35004,11.08997l-113.39001,-19.95996" fill="none" stroke="rgb(0, 0, 0)" stroke-width="1" stroke-linecap="butt" stroke-linejoin="miter" stroke-dasharray="0 0" stroke-opacity="1"></path></g></g></g></g></g><g transform="matrix(1,0,0,1,516.1507,638.1898000000001)"><g id="455710567" opacity="1" style="mix-blend-mode:normal"><g><g><g style="mix-blend-mode:NORMAL"><path id="455710567_stroke_path" d="M0,11.70001l41.29999,6.27997l41.87,-13.51996l-40.10004,-4.46002l-40.85999,10.73999" fill="none" stroke="rgb(0, 0, 0)" stroke-width="1" stroke-linecap="butt" stroke-linejoin="miter" stroke-dasharray="0 0" stroke-opacity="1"></path></g></g></g></g></g><g transform="matrix(1,0,0,1,0,0)"><g id="455710569" opacity="1" style="mix-blend-mode:normal"><g><g><g style="mix-blend-mode:NORMAL"><path id="455710569_stroke_path" d="M0,784.40997v175.59003c0,22.09 17.91,40 40,40h920c22.09,0 40,-17.91 40,-40v-208.32001h-482.46002c-1.38,-58.44 -0.87999,-125.88997 20.45001,-173.96997c40.39,-91 127.54999,-143.81003 226.35999,-143.81003c146.08,0 234.62,137.70001 234.62,218.79001c-60.66,-7.19 -233.46997,-37.97003 -233.46997,-37.97003l36.78998,-163.64996l-140,7.31c0,0 -20.37999,113.47001 -24.17999,130.76001c-3.8,17.29 -6.21997,15.92999 -6.21997,15.92999l-89.07001,23.83997c0,0 4.63002,-2.18995 7.77002,-5.25995c3.14,-3.07 4.23998,-8.45004 4.22998,-15.67004c-0.01,-7.22 -1.44,-11.31995 -9.37,-39.38995c-7.93,-28.07 -33.22002,-86.50003 -35.71002,-91.16003c-2.49,-4.66 -1.94998,-7.38 -1.94998,-7.38c0.46,-5.12 -1.14002,-9.57999 -2.36002,-12.35999c-1.22,-2.78 -6.01999,0.98999 -6.01999,0.98999c0,0 -0.58001,-1.37 -4.70001,-9.37c-4.12,-8 -4.02,-10.19999 -3.12,-16.57999c0.9,-6.38 0.02,-9.87001 -3.03,-14.98001c-3.05,-5.11 -4.74999,-7 -6.01999,-14.81c-1.27,-7.81 -7.74002,-6.42999 -7.74002,-6.42999l-1.87997,-1.25c-1.44,-0.95 -4.90001,-3.13002 -8.42001,-6.71002c-2.49,-2.53 -3.47,-5.13998 -4.16,-6.94998c-2.27,-6.03 -6.51999,-3.17999 -6.51999,-3.17999c0,0 -0.21001,0.63998 -1.89001,-3.74002c-1.68,-4.38 -5.69998,-4.31999 -13.16998,-4.23999c-7.47,0.08 -7.84,2.35999 -7.84,2.35999c0,0 -0.29002,-4.75999 -0.93002,-8.70999c-0.64,-3.95 -0.60999,-6.18001 1.29001,-12.88c1.9,-6.7 6.23999,-10.70998 6.48999,-19.66998c0.25,-8.96 -3.39999,-12.61 -4.32999,-25.88c-0.93,-13.27 1.26,-25.22 6.06,-34.72c4.8,-9.5 10.20999,-3.94001 2.73999,0.26999c-7.47,4.21 -13.83998,-1.72 -24.16998,-7.87c-10.33,-6.15 -15.03001,-6.64 -28.67001,-10.56c-13.64,-3.92 -41.12999,-8.00999 -57.82999,-0.62c-16.7,7.39 -24.28002,15.99 -27.99002,37.25c-3.71,21.26 -3.5,32.23999 3.69,51.82999c7.19,19.59 6.91002,21.55001 9.15002,34.17001c2.24,12.62 -0.83002,20.82001 -0.83002,20.82001c0.91,-9.95 -2.26999,-19.31 -2.26999,-19.31c0,0 -2.12002,-10.22001 -14.55002,-20.73001c-12.43,-10.51 -52.05999,-10.46001 -87.28999,-13.67001c-35.23,-3.21 -72.12,-6.05999 -78.95,-6.76999c-6.83,-0.71 -12.77,0.41999 -21.64,14.89999c-8.87,14.48 -4.4,31.81002 -4.49,56.86002c-0.09,25.05 -6.33,41.85999 -10.83,58.01999c-4.5,16.16 -4.35,34.87003 -2.68,53.12003c1.67,18.25 11.77,55.91 14.15,77.56c2.38,21.65 3.84,37.24996 4.87,55.32996c1.03,18.08 -1.61,21.07003 3.17,23.47003c4.78,2.4 19.75,7.33998 34.97,13.41998c15.22,6.08 33.57,9.72999 34.11,-0.82001c0.54,-10.55 -24.79,-18.47999 -52.14,-27.92999c-27.35,-9.45 -43.29,-5.97997 -47.02,2.84003c-3.73,8.82 8.62,7.56999 17.11,8.98999c8.49,1.42 7.78,1.92997 9.17,5.90997c1.39,3.98 1.17,1.16004 1.24,14.60004c0.07,13.44 -6.2,4.80999 -1.24,3.98999c4.96,-0.82 4.65,1.48999 19.92,1.48999c15.27,0 17.25,-5.30999 8.73,-3.35999c-8.52,1.95 -139.92999,31.26001 -139.92999,31.26001v-685.40002c0,-22.09 17.91,-40 40,-40h920c22.09,0 40,17.91 40,40v460" fill="none" stroke="rgb(0, 0, 0)" stroke-width="1" stroke-linecap="butt" stroke-linejoin="miter" stroke-dasharray="0 0" stroke-opacity="1"></path></g></g></g></g></g></g></g></g></g><g transform="matrix(6.123233995736766e-17,-1,1,6.123233995736766e-17,518.0293,752.54)"><g id="455710568" opacity="0.5" style="mix-blend-mode:normal"><g><g><path id="455710568_fill_path" d="M0,0h76.61005c133.14,0 241.22998,108.08998 241.22998,241.22998c0,133.14 -108.08998,241.22998 -241.22998,241.22998h-76.61005z" fill-rule="nonzero" fill="rgb(109, 124, 121)" fill-opacity="1" style="mix-blend-mode:NORMAL"></path></g></g></g></g></g></g></g></g><animate href="#455710558_stroke_path" attributeName="stroke-dasharray" values="-481.87150798213474 968.5617310440907;-331.52759749170866 818.2178205536648;-194.48334062158958 681.1735636835457;-70.7387373717774 557.4289604337336;39.51346365453506 447.176759407421;136.2732624573477 350.4169606046084;219.82978194144988 266.86044112050627;290.279396408438 196.41082665351811;348.1039773662941 138.586245695662;393.59264771980764 93.09757534214845;427.2272789769607 59.46294408499541;449.4897426457353 37.20048041622077;460.8619102341136 25.828312827842467;463.1748934724279 23.515329589528154;464.6205079963743 22.0697150655818;466.74074263149566 19.94948043046043;469.9210945841778 16.76912847777826;474.3543124576134 12.335910604342681;477.5346644102956 9.155558651660515;479.26940183903116 7.420821222924914;480.32951915659186 6.360703905364227;481.0041392677669 5.686083794189206;481.4860107757491 5.204212286207017;481.6787593789419 5.011463683014185;481.87150798213474 4.818715079821351;481.87150798213474 4.818715079821351" dur="10s" repeatCount="indefinite" keyTimes="0;0.04;0.08;0.12;0.16;0.2;0.24;0.28;0.32;0.36;0.4;0.44;0.48;0.52;0.56;0.6;0.64;0.68;0.72;0.76;0.8;0.84;0.88;0.92;0.96;1" fill="freeze"></animate><animate href="#455710558_stroke_path" attributeName="stroke-dashoffset" values="-481.87150798213474;-406.6995527369217;-338.1774243018622;-276.30512267695605;-221.17902216379986;-172.7991227623935;-131.02086302034243;-95.79605578684838;-66.8837653079203;-44.13943013116354;-27.32211450258704;-16.190882668199727;-10.504798874010538;-9.348307254853415;-8.625499992880211;-7.565382675319515;-5.975206698978471;-3.758597762260651;-2.168421785919606;-1.3010530715517639;-0.7709944127714157;-0.43368435718392123;-0.19274860319285392;-0.09637430159642696;0;0" dur="10s" repeatCount="indefinite" keyTimes="0;0.04;0.08;0.12;0.16;0.2;0.24;0.28;0.32;0.36;0.4;0.44;0.48;0.52;0.56;0.6;0.64;0.68;0.72;0.76;0.8;0.84;0.88;0.92;0.96;1" fill="freeze"></animate><animate href="#455710559_stroke_path" attributeName="stroke-dasharray" values="-1634.539404558707 3285.4242031630006;-1124.5631103363903 2775.4479089406846;-659.7001036798941 2310.584902284188;-239.95038458921826 1890.8351831935124;134.032231173814 1516.8525674304801;462.24774360920236 1188.6370549950918;745.6768763596822 905.2079222446121;984.6465373061652 666.2382612981289;1180.7912658532098 470.09353275108424;1335.091785643552 315.79301296074226;1449.1826360817497 201.70216252254437;1524.698356572362 126.18644203193207;1563.2734865199473 87.61131208434685;1571.1192756618293 79.76552294246483;1576.0228938755051 74.86190472878889;1583.2148672555634 67.66993134873064;1594.0028273256512 56.88197127864291;1609.040589847591 41.84420875670301;1619.8285499176789 31.05624868661528;1625.71289177409 25.171906830204218;1629.308878464119 21.575920140175096;1631.5972336305013 19.287564973792797;1633.23177303506 17.653025569233908;1633.8855887968837 16.999209807410494;1634.539404558707 16.345394045587085;1634.539404558707 16.345394045587085" dur="10s" repeatCount="indefinite" keyTimes="0;0.04;0.08;0.12;0.16;0.2;0.24;0.28;0.32;0.36;0.4;0.44;0.48;0.52;0.56;0.6;0.64;0.68;0.72;0.76;0.8;0.84;0.88;0.92;0.96;1" fill="freeze"></animate><animate href="#455710559_stroke_path" attributeName="stroke-dashoffset" values="-1634.539404558707;-1379.5512574475488;-1147.1197541193005;-937.2448945739626;-750.2535866924466;-586.1458304747523;-444.4312640995124;-324.94643362627096;-226.87406935274853;-149.72380945757757;-92.67838423847869;-54.92052399317255;-35.63295901937981;-31.710064448438917;-29.258255341600854;-25.662268651571697;-20.268288616527965;-12.749407355557913;-7.355427320514181;-4.413256392308509;-2.6152630472939316;-1.4710854641028364;-0.6538157618234829;-0.32690788091174144;0;0" dur="10s" repeatCount="indefinite" keyTimes="0;0.04;0.08;0.12;0.16;0.2;0.24;0.28;0.32;0.36;0.4;0.44;0.48;0.52;0.56;0.6;0.64;0.68;0.72;0.76;0.8;0.84;0.88;0.92;0.96;1" fill="freeze"></animate><animate href="#455710560_stroke_path" attributeName="stroke-dasharray" values="-446.30320440918774 897.0694408624672;-307.05660463352115 757.8228410868007;-180.12797329954816 630.8942097528278;-65.51731040726878 516.2835468605484;36.5968627615534 414.1693736917262;126.21454620691829 324.5516902463614;203.60352185147144 247.1627146018082;268.8530503360947 181.91318611718492;322.40943486519717 128.35680158808242;364.54045736142456 86.22577909185509;395.6924210291859 55.073815424093745;416.31162907289036 34.45460738038926;426.84438469694715 23.921851756332504;428.9866400781113 21.779596375168342;430.3255496913388 20.440686761940828;432.2892837907392 18.47695266254042;435.2348849398399 15.531351513439708;439.34087442040436 11.425362032875237;442.2864755695051 8.479760883774524;443.8931671053781 6.873069347901527;444.8750341550783 5.891202298201323;445.4998586412512 5.26637781202843;445.9461618456604 4.820074607619192;446.1246831274241 4.641553325855537;446.30320440918774 4.463032044091881;446.30320440918774 4.463032044091881" dur="10s" repeatCount="indefinite" keyTimes="0;0.04;0.08;0.12;0.16;0.2;0.24;0.28;0.32;0.36;0.4;0.44;0.48;0.52;0.56;0.6;0.64;0.68;0.72;0.76;0.8;0.84;0.88;0.92;0.96;1" fill="freeze"></animate><animate href="#455710560_stroke_path" attributeName="stroke-dashoffset" values="-446.30320440918774;-376.67990452135444;-313.2155888543679;-255.91025740822826;-204.85317082381718;-160.0443291011347;-121.34984127885814;-88.72507703654652;-61.946884771995265;-40.8813735238816;-25.305391690000945;-14.995787668148708;-9.729409856120293;-8.658282165538242;-7.9888273589244605;-7.006960309224247;-5.534159734673928;-3.4811649943916643;-2.0083644198413446;-1.205018651904807;-0.7140851270547004;-0.40167288396826895;-0.1785212817636751;-0.08926064088183755;0;0" dur="10s" repeatCount="indefinite" keyTimes="0;0.04;0.08;0.12;0.16;0.2;0.24;0.28;0.32;0.36;0.4;0.44;0.48;0.52;0.56;0.6;0.64;0.68;0.72;0.76;0.8;0.84;0.88;0.92;0.96;1" fill="freeze"></animate><animate href="#455710561_stroke_path" attributeName="stroke-dasharray" values="-1066.3622231280615 2143.3880684874034;-733.6572095121062 1810.6830548714483;-430.38379325448557 1507.4096386138276;-156.54197435519947 1233.5678197145417;87.44170229650106 989.584143062841;301.5672367006158 775.4586086587263;486.4744461910216 590.5513991683205;642.3766032123443 434.64924214699784;770.3400699877116 306.68577537163054;871.0046638510006 206.02118150834153;945.4367470253394 131.58909833400273;994.7026817338558 82.32316362548627;1019.868830199678 57.15701515966419;1024.9873688706928 52.03847648864935;1028.1864555400768 48.839389819265286;1032.8784493218402 44.147396037501856;1039.9164399944857 37.10940536485648;1049.7269724472637 27.298872912078444;1056.764963119909 20.26088223943307;1060.60386712317 16.421978236172233;1062.9498640140516 14.075981345290518;1064.442771126431 12.58307423291116;1065.509133349559 11.51671200978298;1065.9356782388104 11.090167120531802;1066.3622231280615 10.663622231280625;1066.3622231280615 10.663622231280625" dur="10s" repeatCount="indefinite" keyTimes="0;0.04;0.08;0.12;0.16;0.2;0.24;0.28;0.32;0.36;0.4;0.44;0.48;0.52;0.56;0.6;0.64;0.68;0.72;0.76;0.8;0.84;0.88;0.92;0.96;1" fill="freeze"></animate><animate href="#455710561_stroke_path" attributeName="stroke-dashoffset" values="-1066.3622231280615;-900.0097163200838;-748.3730081912736;-611.4520987416305;-489.4602604157802;-382.39749321372284;-289.9438884685199;-211.99280995785864;-148.01107657017494;-97.67877963853043;-60.462738051361086;-35.829770697102866;-23.24669646419174;-20.687427128684394;-19.0878837939923;-16.741886903110565;-13.222891566787961;-8.317625340398878;-4.798630004076276;-2.8791780024457663;-1.7061795570048985;-0.9597260008152553;-0.42654488925122463;-0.21327244462561232;0;0" dur="10s" repeatCount="indefinite" keyTimes="0;0.04;0.08;0.12;0.16;0.2;0.24;0.28;0.32;0.36;0.4;0.44;0.48;0.52;0.56;0.6;0.64;0.68;0.72;0.76;0.8;0.84;0.88;0.92;0.96;1" fill="freeze"></animate><animate href="#455710562_stroke_path" attributeName="stroke-dasharray" values="-1012.1695877148981 2034.460871306945;-696.3726763478498 1718.6639599398968;-408.5116456017328 1430.8029291937798;-148.58649547654707 1170.8777790685942;82.99790619262166 939.2933773994254;286.24155940577316 736.0497241862739;461.7517659155365 560.5395176765106;609.7309596394547 412.5603239525924;731.1913101652423 291.09997342680475;826.7401192455287 195.55116434651833;897.3895564680287 124.90172712401838;944.151791420457 78.13949217159006;968.0389936905284 54.25228990151863;972.89740771156 49.39387588048698;975.9339164747047 46.35736711734239;980.3874626606502 41.903820931396886;987.0677819395687 35.2235016524784;996.3797421465456 25.91154144550146;1003.060061425464 19.231222166582967;1006.7038719412375 15.58741165080951;1008.9306450342103 13.360638557836756;1010.3476824570112 11.94360113503583;1011.3598520447263 10.93143154732082;1011.7647198798121 10.526563712234903;1012.1695877148981 10.121695877148989;1012.1695877148981 10.121695877148989" dur="10s" repeatCount="indefinite" keyTimes="0;0.04;0.08;0.12;0.16;0.2;0.24;0.28;0.32;0.36;0.4;0.44;0.48;0.52;0.56;0.6;0.64;0.68;0.72;0.76;0.8;0.84;0.88;0.92;0.96;1" fill="freeze"></animate><animate href="#455710562_stroke_path" attributeName="stroke-dashoffset" values="-1012.1695877148981;-854.2711320313739;-710.3406166583154;-580.3780415957226;-464.58584076113823;-362.9640141545624;-275.20891089968075;-201.21931403772174;-140.48913877482786;-92.71473423468467;-57.39001562343472;-34.00889814722057;-22.06529701218478;-19.63609000166902;-18.117835620096674;-15.891062527123898;-12.550902887664735;-7.894922784176204;-4.554763144717041;-2.732857886830225;-1.619471340343837;-0.9109526289434082;-0.40486783508595925;-0.20243391754297962;0;0" dur="10s" repeatCount="indefinite" keyTimes="0;0.04;0.08;0.12;0.16;0.2;0.24;0.28;0.32;0.36;0.4;0.44;0.48;0.52;0.56;0.6;0.64;0.68;0.72;0.76;0.8;0.84;0.88;0.92;0.96;1" fill="freeze"></animate><animate href="#455710563_stroke_path" attributeName="stroke-dasharray" values="-513.0666154829271 1031.2638971206834;-352.98983145225384 871.1871130900101;-207.07368600890936 725.2709676466657;-75.31817915289372 593.5154607906501;42.07146246960003 476.1258191681563;145.09523885857178 373.1020427791846;234.06098998331134 284.1362916544451;309.0713291669153 209.12595247084107;370.6393230248665 147.55795861288988;419.0728115264548 99.12447011130153;454.8848612871632 63.31242035059318;478.5885389224744 39.60874271528194;490.6969110478714 27.500370589884938;493.15963080218955 25.03765083556682;494.69883064863825 23.498450989118094;496.95632375676314 21.240957880993236;500.34256341895053 17.854718218805832;505.0627762813934 13.134505356362968;508.4490159435808 9.748265694175567;510.29605575931924 7.901225878437119;511.4248023133817 6.7724793243746895;512.1430955750578 6.054186062698556;512.6561621905408 5.541119447215572;512.8613888367339 5.335892801022424;513.0666154829271 5.130666154829275;513.0666154829271 5.130666154829275" dur="10s" repeatCount="indefinite" keyTimes="0;0.04;0.08;0.12;0.16;0.2;0.24;0.28;0.32;0.36;0.4;0.44;0.48;0.52;0.56;0.6;0.64;0.68;0.72;0.76;0.8;0.84;0.88;0.92;0.96;1" fill="freeze"></animate><animate href="#455710563_stroke_path" attributeName="stroke-dashoffset" values="-513.0666154829271;-433.02822346759046;-360.0701507459182;-294.1923973179104;-235.49757650666353;-183.98568831217764;-139.50281274980787;-101.99764315800591;-71.21364622903029;-46.996901978236124;-29.090877097881965;-17.23903828022635;-11.18485221752781;-9.953492340368786;-9.183892417144394;-8.055145863081954;-6.362026031988296;-4.001919600766831;-2.308799769673172;-1.3852798618039033;-0.8209065847726834;-0.46175995393463437;-0.20522664619317085;-0.10261332309658543;0;0" dur="10s" repeatCount="indefinite" keyTimes="0;0.04;0.08;0.12;0.16;0.2;0.24;0.28;0.32;0.36;0.4;0.44;0.48;0.52;0.56;0.6;0.64;0.68;0.72;0.76;0.8;0.84;0.88;0.92;0.96;1" fill="freeze"></animate><animate href="#455710564_stroke_path" attributeName="stroke-dasharray" values="-218.83274335677137 439.8538141471104;-150.55692742945868 371.5779982197978;-88.32089521879291 309.341966009132;-32.124646724774045 253.14571751511315;17.944284955255256 203.07678583508383;61.88589982129494 159.13517096904417;99.8314975193591 121.18957327098;131.82484459811909 89.19622619222001;158.08477380093163 62.93629698940747;178.74258477381085 42.27848601652824;194.01711026011353 27.003960530225577;204.12718300319636 16.893887787142734;209.29163574641612 11.729435043922965;210.34203291452866 10.679037875810433;210.99853114459896 10.022539645740142;211.96139521536873 9.059675574970358;213.40569132152345 7.6153794688156315;215.41895256040573 5.602118229933362;216.86324866656045 4.157822123778636;217.6510465426448 3.3700242476942965;218.1324785780297 2.8885922123094043;218.4388444187292 2.5822263716099094;218.65767716208597 2.3633936282531134;218.7452102594287 2.2758605309104145;218.83274335677137 2.1883274335677156;218.83274335677137 2.1883274335677156" dur="10s" repeatCount="indefinite" keyTimes="0;0.04;0.08;0.12;0.16;0.2;0.24;0.28;0.32;0.36;0.4;0.44;0.48;0.52;0.56;0.6;0.64;0.68;0.72;0.76;0.8;0.84;0.88;0.92;0.96;1" fill="freeze"></animate><animate href="#455710564_stroke_path" attributeName="stroke-dashoffset" values="-218.83274335677137;-184.69483539311503;-153.57681928778214;-125.4786950407727;-100.44422920075806;-78.47342176773822;-59.50062291870613;-43.50394937932615;-30.37398477791987;-20.04507929148026;-12.407816548328936;-7.352780176787518;-4.770553805177616;-4.245355221121365;-3.9171061060862074;-3.4356740707013103;-2.713526017623965;-1.7068953981828165;-0.9847473451054711;-0.5908484070632828;-0.35013238937083424;-0.19694946902109423;-0.08753309734270856;-0.04376654867135428;0;0" dur="10s" repeatCount="indefinite" keyTimes="0;0.04;0.08;0.12;0.16;0.2;0.24;0.28;0.32;0.36;0.4;0.44;0.48;0.52;0.56;0.6;0.64;0.68;0.72;0.76;0.8;0.84;0.88;0.92;0.96;1" fill="freeze"></animate><animate href="#455710565_stroke_path" attributeName="stroke-dasharray" values="-90.86191297828255 182.6324450863479;-62.512996129058386 154.28352823712376;-36.671868078034834 128.4424001861002;-13.338528825211881 105.10906093327725;7.4506768642191705 84.31985524384619;25.695748990258306 66.07478311780707;41.4512047006925 50.31932740737288;54.73521637811741 37.03531572994796;65.6386459355113 26.13188617255407;74.21601052066119 17.554521587404192;80.55817204654531 11.212360061520062;84.75599242614197 7.014539681923407;86.90033357242942 4.870198535635953;87.33647075472518 4.4340613533401845;87.60905649366002 4.161475614405346;88.00884891076447 3.761683197300907;88.60853753642114 3.1619945716442275;89.44446713582133 2.326064972244039;90.04415576147801 1.7263763465873598;90.37125864819981 1.3992734598655585;90.57115485675203 1.1993772513133387;90.69836153492163 1.072170573143737;90.78922344789993 0.9813086601654443;90.82556821309124 0.9449638949741352;90.86191297828255 0.9086191297828263;90.86191297828255 0.9086191297828263" dur="10s" repeatCount="indefinite" keyTimes="0;0.04;0.08;0.12;0.16;0.2;0.24;0.28;0.32;0.36;0.4;0.44;0.48;0.52;0.56;0.6;0.64;0.68;0.72;0.76;0.8;0.84;0.88;0.92;0.96;1" fill="freeze"></animate><animate href="#455710565_stroke_path" attributeName="stroke-dashoffset" values="-90.86191297828255;-76.68745455367046;-63.76689052815869;-52.100220901747214;-41.70561805703169;-32.58308199401212;-24.705354138795023;-18.06334830008257;-12.611633521385619;-8.322951228810682;-5.151870465868621;-3.0529602760702934;-1.9807897029265595;-1.7627211117786814;-1.6264282423112575;-1.426532033759036;-1.1266877209307036;-0.7087229212306039;-0.4088786084022714;-0.2453271650413629;-0.1453790607652521;-0.08177572168045429;-0.03634476519131302;-0.01817238259565651;0;0" dur="10s" repeatCount="indefinite" keyTimes="0;0.04;0.08;0.12;0.16;0.2;0.24;0.28;0.32;0.36;0.4;0.44;0.48;0.52;0.56;0.6;0.64;0.68;0.72;0.76;0.8;0.84;0.88;0.92;0.96;1" fill="freeze"></animate><animate href="#455710566_stroke_path" attributeName="stroke-dasharray" values="-1522.389967687411 3060.0038350516957;-1047.4042977689387 2585.0181651332236;-614.436590958639 2152.050458322924;-223.486847256512 1761.1007146207971;124.83597735036773 1412.7778900139172;430.5318828619998 1107.0819845022854;694.5143032589968 843.0995641052883;917.0877165348965 620.5261508293886;1099.7745126573855 437.8393547068995;1243.488125607077 294.12574175720783;1349.7509453516586 187.86292201262643;1420.0853618588171 117.52850550546803;1456.0137650962397 81.60010226804536;1463.3212369411394 74.29263042314558;1467.8884068442017 69.72546052008352;1474.5869227020262 63.02694466225897;1484.6346964887632 52.97917087552181;1498.6406841914873 38.973183172797825;1508.6884579782245 28.925409386060664;1514.1690618618989 23.444805502386252;1517.5183197908111 20.09554757347398;1519.6496657455737 17.9642016187115;1521.1720557132612 16.44181165102392;1521.781011700336 15.83285566394902;1522.389967687411 15.223899676874122;1522.389967687411 15.223899676874122" dur="10s" repeatCount="indefinite" keyTimes="0;0.04;0.08;0.12;0.16;0.2;0.24;0.28;0.32;0.36;0.4;0.44;0.48;0.52;0.56;0.6;0.64;0.68;0.72;0.76;0.8;0.84;0.88;0.92;0.96;1" fill="freeze"></animate><animate href="#455710566_stroke_path" attributeName="stroke-dashoffset" values="-1522.389967687411;-1284.8971327281747;-1068.4132793230249;-872.9384074719615;-698.7769951685217;-545.9290424127055;-413.937832214207;-302.6511255762573;-211.30772751501266;-139.45092104016683;-86.3195111678762;-51.152302914297;-33.18810129558556;-29.534365373135774;-27.250780421604656;-23.90152249269235;-18.877635599323895;-11.874641747961805;-6.850754854593348;-4.11045291275601;-2.435823948299858;-1.3701509709186699;-0.6089559870749645;-0.3044779935374822;0;0" dur="10s" repeatCount="indefinite" keyTimes="0;0.04;0.08;0.12;0.16;0.2;0.24;0.28;0.32;0.36;0.4;0.44;0.48;0.52;0.56;0.6;0.64;0.68;0.72;0.76;0.8;0.84;0.88;0.92;0.96;1" fill="freeze"></animate><animate href="#455710567_stroke_path" attributeName="stroke-dasharray" values="-168.36864435623525 338.4209751560328;-115.83762731708984 285.88995811688744;-67.95358486217654 238.00591566197414;-24.716516991495343 194.76884779129296;13.806228837211293 156.2461019625863;47.61465262394333 122.43767817585429;76.80977555531452 93.2425552444831;101.42527136019612 68.62705943960148;121.62950868294433 48.42282211685327;137.52350871017296 32.528822089624654;149.27564008623818 20.77669071355942;157.05427145549626 12.99805934430135;161.02777146230338 9.024559337494225;161.83594095521335 8.216389844584272;162.34104688828202 7.711283911515585;163.08186892344943 6.970461876348157;164.19310197620064 5.859228823596977;165.74209350427796 4.3102372955196335;166.85332655702916 3.1990042427684537;167.45945367671158 2.5928771230860366;167.82986469429528 2.2224661055023223;168.06558079639402 1.9867500034035814;168.23394944075028 1.8183813590473275;168.30129689849275 1.7510339013048406;168.36864435623525 1.683686443562354;168.36864435623525 1.683686443562354" dur="10s" repeatCount="indefinite" keyTimes="0;0.04;0.08;0.12;0.16;0.2;0.24;0.28;0.32;0.36;0.4;0.44;0.48;0.52;0.56;0.6;0.64;0.68;0.72;0.76;0.8;0.84;0.88;0.92;0.96;1" fill="freeze"></animate><animate href="#455710567_stroke_path" attributeName="stroke-dashoffset" values="-168.36864435623525;-142.10313583666255;-118.1611146092059;-96.5425806738653;-77.28120775951199;-60.376995866145954;-45.77943440046036;-33.471686498019565;-23.369567836645455;-15.42256782303115;-9.546502134998539;-5.657186450369504;-3.6704364469659283;-3.266351700510964;-3.013798733976611;-2.643387716392893;-2.087771190017317;-1.313275425978635;-0.7576588996030585;-0.4545953397618352;-0.26938983096997643;-0.15153177992061173;-0.06734745774249411;-0.033673728871247054;0;0" dur="10s" repeatCount="indefinite" keyTimes="0;0.04;0.08;0.12;0.16;0.2;0.24;0.28;0.32;0.36;0.4;0.44;0.48;0.52;0.56;0.6;0.64;0.68;0.72;0.76;0.8;0.84;0.88;0.92;0.96;1" fill="freeze"></animate><animate href="#455710569_stroke_path" attributeName="stroke-dasharray" values="-7423.569122090504 14921.37393540191;-5107.415555998266 12605.220369309674;-2996.152497675727 10493.957310987136;-1089.7799471228861 8587.584760434294;608.7326680114214 6889.072145299987;2099.3853477271946 5398.419465584215;3386.6322334976876 4111.172579813721;4471.95803914732 3025.846774164089;5362.786333798179 2135.0184795132295;6063.571258923524 1434.2335543878855;6581.736383645441 916.0684296659679;6924.705277086023 573.0995362253864;7099.901508367358 397.9033049440517;7135.5346401533925 362.27017315801623;7157.805347519663 339.99946579174554;7190.469051656861 307.33576165454764;7239.464607862659 258.3402054487491;7307.761443785891 190.0433695255174;7356.75699999169 141.04781331971887;7383.481848831215 114.32296448019436;7399.813700899814 97.9911124115954;7410.206697670741 87.59811564066818;7417.630266792832 80.17454651857685;7420.599694441667 77.20511886974097;7423.569122090504 74.2356912209051;7423.569122090504 74.2356912209051" dur="10s" repeatCount="indefinite" keyTimes="0;0.04;0.08;0.12;0.16;0.2;0.24;0.28;0.32;0.36;0.4;0.44;0.48;0.52;0.56;0.6;0.64;0.68;0.72;0.76;0.8;0.84;0.88;0.92;0.96;1" fill="freeze"></animate><animate href="#455710569_stroke_path" attributeName="stroke-dashoffset" values="-7423.569122090504;-6265.492339044385;-5209.8608098831155;-4256.674534606695;-3407.4182270395413;-2662.0918871816543;-2018.4684442964078;-1475.8055414715923;-1030.391394146162;-679.9989315834902;-420.91636922253156;-249.43192250224092;-161.83380686157298;-144.01724096855577;-132.88188728542002;-116.5500352168209;-92.05225711392224;-57.90383915230593;-33.40606104940726;-20.04363662964436;-11.877710595344807;-6.681212209881453;-2.9694276488362017;-1.4847138244181008;0;0" dur="10s" repeatCount="indefinite" keyTimes="0;0.04;0.08;0.12;0.16;0.2;0.24;0.28;0.32;0.36;0.4;0.44;0.48;0.52;0.56;0.6;0.64;0.68;0.72;0.76;0.8;0.84;0.88;0.92;0.96;1" fill="freeze"></animate></svg>