<?xml version="1.0" encoding="utf-8"?>
<!-- Generator: Adobe Illustrator 26.3.1, SVG Export Plug-In . SVG Version: 6.00 Build 0)  -->
<svg version="1.1" id="Camada_1" xmlns="http://www.w3.org/2000/svg" xmlns:xlink="http://www.w3.org/1999/xlink" x="0px" y="0px"
	 viewBox="0 0 552.4 190.4" style="enable-background:new 0 0 552.4 190.4;" xml:space="preserve">
<style type="text/css">
	.st0{fill:url(#SVGID_1_);}
	.st1{fill:url(#SVGID_00000142862609421657727890000013363460576197242778_);}
	.st2{fill:#BAC9EE;}
	.st3{fill:url(#SVGID_00000153689590373695933130000015794561345973797789_);}
	.st4{fill:url(#SVGID_00000181803976518173574340000012121853550924954032_);}
	.st5{fill:url(#SVGID_00000180352312367140621370000015472490869025938604_);}
	.st6{fill:url(#SVGID_00000099628021515269867560000000455724343306122662_);}
</style>
<g id="a">
</g>
<g id="b">
</g>
<g id="c">
</g>
<g id="d">
</g>
<g id="e">
</g>
<g id="f">
</g>
<g id="g">
</g>
<g id="h">
</g>
<g id="i">
	<g>
		<g>
			
				<linearGradient id="SVGID_1_" gradientUnits="userSpaceOnUse" x1="84.9632" y1="-180.6079" x2="84.9632" y2="-90.8499" gradientTransform="matrix(1 0 0 -1 0 -41.6063)">
				<stop  offset="0" style="stop-color:#826EB4"/>
				<stop  offset="1" style="stop-color:#4882EA"/>
			</linearGradient>
			<path class="st0" d="M123.1,86.3c1.5,0,2.5,1.1,2.5,2.1v47.5c0,1.1-1,2.2-2.5,2.2H111c-1.4,0-2.8-0.9-2.8-2.1
				c-0.1-2.5-0.2-1.9-0.2-4.5c-5.7,5.2-12.7,7.5-21.4,7.5c-23.7,0-42.3-16.5-42.3-44.9c0-25.9,19.8-44.9,44.1-44.9
				c12,0,23.4,5.2,31.2,12.8c0.6,0.9,0.6,2.6-0.2,3.4l-9.7,9.6c-1,0.9-2.6,0.7-3.4-0.1c-4.6-4.6-11-7.5-17.8-7.5
				c-13.7,0-24.9,9.9-24.9,26.7c0,18.7,11.2,26.7,24.9,26.7c7,0,13.3-3.1,18.1-8.1v-9.4H94.3c-1.6,0-2.8-0.9-2.8-2.1V88.4
				c0-1,1.1-2.1,2.8-2.1L123.1,86.3L123.1,86.3z"/>
			
				<linearGradient id="SVGID_00000141437984610452383400000012109830698035427259_" gradientUnits="userSpaceOnUse" x1="173.3653" y1="-179.3857" x2="173.3653" y2="-92.1294" gradientTransform="matrix(1 0 0 -1 0 -41.6063)">
				<stop  offset="0" style="stop-color:#826EB4"/>
				<stop  offset="1" style="stop-color:#4882EA"/>
			</linearGradient>
			<path style="fill:url(#SVGID_00000141437984610452383400000012109830698035427259_);" d="M162.1,68.3V85h31.9
				c1.5,0,2.5,1.1,2.5,2.3v13.5c0,1-1,2.1-2.5,2.1h-31.9v16.7h38.8c1.6,0,2.8,1.1,2.8,2.2v13.8c0,1-1.1,2.1-2.8,2.1h-55.2
				c-1.6,0-2.6-1.1-2.6-2.1V52.8c0-1.1,1-2.2,2.6-2.2h54.2c1.5,0,2.6,1.1,2.6,2.2v13.3c0,1.1-1.1,2.2-2.6,2.2H162.1L162.1,68.3z"/>
			<path class="st2" d="M299.3,139.7c-0.7,1.9-3.9,1.9-4.6,0L271,78c-7.7,20.6-15.7,41.1-23.6,61.7c-0.7,1.9-4.2,1.9-4.9-0.1
				l0.1,0.1l-33-86.3c-0.6-1.4,0.7-3,2.4-3h15c1.1,0,2.2,0.6,2.4,1.5c5.5,15,10.2,28.8,15.7,43.9l16.7-44V52
				c0.2-0.9,1.2-1.5,2.4-1.5H278c1.1,0,2.3,0.6,2.5,1.5v-0.1L297,96.1L312.7,52c0.2-0.9,1.4-1.5,2.5-1.5h14.8c2.1,0,3.1,1.5,2.5,3
				L299.3,139.7L299.3,139.7z"/>
			<path class="st2" d="M361.9,68.3V85h31.9c1.5,0,2.5,1.1,2.5,2.3v13.5c0,1-1,2.1-2.5,2.1h-31.9v16.7h38.8c1.6,0,2.8,1.1,2.8,2.2
				v13.8c0,1-1.1,2.1-2.8,2.1h-55.2c-1.6,0-2.6-1.1-2.6-2.1V52.8c0-1.1,1-2.2,2.6-2.2h54.2c1.5,0,2.6,1.1,2.6,2.2v13.3
				c0,1.1-1.1,2.2-2.6,2.2H361.9L361.9,68.3z"/>
			<path class="st2" d="M466.3,94c12.1,5.6,11.5,17.8,11.5,17.8c0,24.8-25.6,25.9-31.4,25.9h-27.7c-1.6,0-2.6-1.1-2.6-2.1V52.7
				c0-1.1,1-2.2,2.6-2.2h27.7c0,0,30.2-0.6,30.2,25.4C476.6,85.3,472.3,90.9,466.3,94L466.3,94z M435,85h11.3c0,0,11,0,11-8.1
				c0-9-11-8.8-11-8.8H435V85L435,85z M458.6,111.4c0-8.7-12.2-8.1-12.2-8.1H435v16.5h11.3C451.1,119.8,458.6,118.6,458.6,111.4
				L458.6,111.4z"/>
		</g>
		<g>
			
				<linearGradient id="SVGID_00000110443819861234420900000001287542530480306602_" gradientUnits="userSpaceOnUse" x1="402.2579" y1="-95.5956" x2="416.0844" y2="-95.5956" gradientTransform="matrix(1 0 0 -1 0 -41.6063)">
				<stop  offset="0" style="stop-color:#826EB4"/>
				<stop  offset="1" style="stop-color:#4882EA"/>
			</linearGradient>
			<path style="fill:url(#SVGID_00000110443819861234420900000001287542530480306602_);" d="M402.3,54.5c4.8-0.1,9.4-0.2,13.8-0.1
				v-0.8c-4.5,0.1-9.1,0.2-13.8,0.5V54.5z"/>
			
				<linearGradient id="SVGID_00000080172947865270450140000007668525425043830400_" gradientUnits="userSpaceOnUse" x1="287.4057" y1="-110.0333" x2="307.7827" y2="-110.0333" gradientTransform="matrix(1 0 0 -1 0 -41.6063)">
				<stop  offset="0" style="stop-color:#826EB4"/>
				<stop  offset="1" style="stop-color:#4882EA"/>
			</linearGradient>
			<path style="fill:url(#SVGID_00000080172947865270450140000007668525425043830400_);" d="M307.8,65.9c-7,1.5-13.8,3-20.4,4.6
				l0.2,0.5c6.4-1.7,13.1-3.4,20.1-4.9"/>
			
				<linearGradient id="SVGID_00000046299202895646288700000002277339398391409301_" gradientUnits="userSpaceOnUse" x1="241.1517" y1="-126.3425" x2="250.5285" y2="-126.3425" gradientTransform="matrix(1 0 0 -1 0 -41.6063)">
				<stop  offset="0" style="stop-color:#826EB4"/>
				<stop  offset="1" style="stop-color:#4882EA"/>
			</linearGradient>
			<path style="fill:url(#SVGID_00000046299202895646288700000002277339398391409301_);" d="M250.5,81.4c-3.3,1.2-6.4,2.4-9.4,3.6
				l1.1,3c2.2-1.2,4.6-2.4,7.2-3.6"/>
			
				<linearGradient id="SVGID_00000181058493612827476310000007841111601252173233_" gradientUnits="userSpaceOnUse" x1="205.7536" y1="-136.8118" x2="508.1258" y2="-136.8118" gradientTransform="matrix(1 0 0 -1 0 -41.6063)">
				<stop  offset="0" style="stop-color:#826EB4"/>
				<stop  offset="1" style="stop-color:#4882EA"/>
			</linearGradient>
			<path style="fill:url(#SVGID_00000181058493612827476310000007841111601252173233_);" d="M227.4,99.2c-2.5,3-3.6,6-3.2,8.9
				c2.5,17.9,61.6,19,134.1,9.5c72.4-9.5,130.8-25.9,128.3-43.8c-0.7-4.9-5.7-8.9-14.1-12c0,0-0.8-1.4-2.8-3.2
				c-2-1.9-3.8-2.9-3.8-2.9c25,3.2,40.9,9.6,42.2,18.7c2.8,19.7-62.6,44.4-146,55.3c-83.5,10.9-153.4,3.8-156.2-15.9
				c-1-6.7,6-14,18.9-21.1L227.4,99.2L227.4,99.2z"/>
		</g>
	</g>
</g>
<g id="p">
</g>
</svg>
