<?xml version="1.0" encoding="UTF-8"?>
<svg id="Camada_3" xmlns="http://www.w3.org/2000/svg" xmlns:xlink="http://www.w3.org/1999/xlink" version="1.1" viewBox="0 0 326.7 94.8">
  <!-- Generator: Adobe Illustrator 29.0.1, SVG Export Plug-In . SVG Version: 2.1.0 Build 192)  -->
  <defs>
    <style>
      .st0 {
        fill: url(#Gradiente_sem_nome);
      }

      .st1 {
        fill: url(#Gradiente_sem_nome_4);
      }

      .st2 {
        fill: url(#Gradiente_sem_nome_2);
      }

      .st3 {
        fill: url(#Gradiente_sem_nome_8);
      }

      .st4 {
        fill: url(#Gradiente_sem_nome_6);
      }

      .st5 {
        fill: url(#Gradiente_sem_nome_7);
      }

      .st6 {
        fill: url(#Gradiente_sem_nome_5);
      }

      .st7 {
        fill: url(#Gradiente_sem_nome_3);
      }

      .st8 {
        fill: url(#Gradiente_sem_nome_9);
      }
    </style>
    <linearGradient id="Gradiente_sem_nome" data-name="Gradiente sem nome" x1="-40.9" y1="68.8" x2="-40.9" y2="69.6" gradientTransform="translate(121.9 152.9) rotate(-5) scale(1 -1)" gradientUnits="userSpaceOnUse">
      <stop offset="0" stop-color="#2d63d2"/>
      <stop offset="1" stop-color="#6b9beb"/>
    </linearGradient>
    <linearGradient id="Gradiente_sem_nome_2" data-name="Gradiente sem nome 2" x1="-72.1" y1="64" x2="-72.1" y2="158.8" gradientTransform="translate(121.9 152.9) rotate(-5) scale(1 -1)" gradientUnits="userSpaceOnUse">
      <stop offset="0" stop-color="#2d63d2"/>
      <stop offset="1" stop-color="#6b9beb"/>
    </linearGradient>
    <linearGradient id="Gradiente_sem_nome_3" data-name="Gradiente sem nome 3" x1="-98.8" y1="95.2" x2="-61.8" y2="111.7" gradientTransform="translate(121.9 152.9) rotate(-5) scale(1 -1)" gradientUnits="userSpaceOnUse">
      <stop offset="0" stop-color="#9cbced"/>
      <stop offset=".3" stop-color="#9ebded"/>
      <stop offset=".5" stop-color="#a7c3ed"/>
      <stop offset=".7" stop-color="#b6ccee"/>
      <stop offset=".8" stop-color="#cad9ef"/>
      <stop offset=".9" stop-color="#e5eaf1"/>
      <stop offset="1" stop-color="#f2f2f2"/>
    </linearGradient>
    <linearGradient id="Gradiente_sem_nome_4" data-name="Gradiente sem nome 4" x1="-67.4" y1="97.9" x2="-14.2" y2="97.9" gradientTransform="translate(121.9 152.9) rotate(-5) scale(1 -1)" gradientUnits="userSpaceOnUse">
      <stop offset="0" stop-color="#2d63d2"/>
      <stop offset="1" stop-color="#9cbced"/>
    </linearGradient>
    <linearGradient id="Gradiente_sem_nome_5" data-name="Gradiente sem nome 5" x1="114.2" y1="48.9" x2="324.4" y2="48.9" gradientTransform="translate(0 97.1) scale(1 -1)" gradientUnits="userSpaceOnUse">
      <stop offset="0" stop-color="#2d63d2"/>
      <stop offset="1" stop-color="#9cbced"/>
    </linearGradient>
    <linearGradient id="Gradiente_sem_nome_6" data-name="Gradiente sem nome 6" x1="114.2" y1="48.9" x2="324.4" y2="48.9" gradientTransform="translate(0 97.1) scale(1 -1)" gradientUnits="userSpaceOnUse">
      <stop offset="0" stop-color="#2d63d2"/>
      <stop offset="1" stop-color="#9cbced"/>
    </linearGradient>
    <linearGradient id="Gradiente_sem_nome_7" data-name="Gradiente sem nome 7" x1="114.2" y1="48.9" x2="324.4" y2="48.9" gradientTransform="translate(0 97.1) scale(1 -1)" gradientUnits="userSpaceOnUse">
      <stop offset="0" stop-color="#2d63d2"/>
      <stop offset="1" stop-color="#9cbced"/>
    </linearGradient>
    <linearGradient id="Gradiente_sem_nome_8" data-name="Gradiente sem nome 8" x1="114.2" y1="48.9" x2="324.4" y2="48.9" gradientTransform="translate(0 97.1) scale(1 -1)" gradientUnits="userSpaceOnUse">
      <stop offset="0" stop-color="#2d63d2"/>
      <stop offset="1" stop-color="#9cbced"/>
    </linearGradient>
    <linearGradient id="Gradiente_sem_nome_9" data-name="Gradiente sem nome 9" x1="114.2" y1="48.9" x2="324.4" y2="48.9" gradientTransform="translate(0 97.1) scale(1 -1)" gradientUnits="userSpaceOnUse">
      <stop offset="0" stop-color="#2d63d2"/>
      <stop offset="1" stop-color="#9cbced"/>
    </linearGradient>
  </defs>
  <g>
    <g>
      <path class="st0" d="M75.8,87.2c-.2.1-.4.2-.5.3-.3.2-.6.4-.9.5.5-.3,1-.6,1.4-.9h0Z"/>
      <path class="st2" d="M63.2,5.8c3.3,5.4,1.5,12.5-3.9,15.7-1.8,1.1-3.8,1.6-5.8,1.6-.5,0-1,0-1.4,0,0,0-.6-.1-1-.2-4.6-.2-9.4.9-13.6,3.4h-.2c-12,7.4-20.3,17.6-22.8,27-1.4,5.3-1.1,10.4,1.4,14.5,1.7,2.9,4.3,5,7.5,6.5,9.7,4.5,24.9,2.5,39.1-5.9h.2c0-.2.2-.2.3-.3h0c.2,0,.4-.2.6-.3,5.4-3.2,12.5-1.5,15.7,3.9,2.9,4.9,1.8,11.2-2.5,14.7q-2.9,2.4,0,0c-.3.2-.6.5-.9.7h0c-.5.2-.9.6-1.4.8h0c-22.5,13.5-51.6,6.2-65-16.3C-4.2,49.3,3.1,20.2,25.5,6.7,34.7,1.2,45-.8,54.9.3h0c3.3.6,6.4,2.5,8.3,5.6h0Z"/>
    </g>
    <path class="st7" d="M62.4,68.5c-14.2,8.4-29.4,10.4-39.1,5.9-3.2-1.5-5.8-3.6-7.5-6.5-2.5-4.2-2.8-9.2-1.4-14.5,2.6-9.4,10.8-19.6,22.8-26.9-11.5,7-15.2,21.9-8.3,33.5,6.9,11.6,21.9,15.3,33.5,8.5Z"/>
    <path class="st1" d="M96,35c.5.8.9,1.7,1.1,2.6.2.9.3,1.8.5,2.7,2.5,17.9-5.4,36.4-21.5,46.6,4.6-3.5,5.9-10,2.9-15.1-3.1-5.2-9.7-7-15-4.4-.2.1-.5.2-.7.4-.2.1-.3.2-.5.3h0c-5.3,2.9-12.1,1-15.2-4.2-1.6-2.7-2-5.8-1.3-8.7.7-2.9,2.5-5.4,5.2-7l28.8-17.3c5.4-3.2,12.5-1.5,15.7,3.9h0Z"/>
  </g>
  <path class="st6" d="M136,70c-4.7,0-8.6-.9-11.9-2.6s-5.7-4.3-7.4-7.5c-1.7-3.2-2.5-7.1-2.5-11.5s.5-6.4,1.5-9.1,2.4-5,4.3-6.9,4.1-3.4,6.8-4.4,5.7-1.5,9.1-1.5,4.5.3,6.8.8,4.4,1.4,6.4,2.7c.7.4,1.1,1,1.4,1.6s.2,1.3,0,1.9-.5,1.2-.9,1.7c-.4.5-1,.8-1.6.9s-1.4,0-2.2-.5c-1.5-.9-3.1-1.5-4.6-1.9s-3.3-.6-5.2-.6c-3,0-5.5.6-7.5,1.8-2,1.2-3.6,2.9-4.6,5.1-1,2.2-1.5,5-1.5,8.2,0,4.9,1.2,8.7,3.5,11.2s5.9,3.8,10.5,3.8,3.2-.2,4.9-.5,3.2-.8,4.8-1.3l-1.5,3.4v-12.8h-6.6c-1,0-1.8-.3-2.3-.8s-.8-1.2-.8-2.1.3-1.6.8-2.1c.5-.5,1.3-.7,2.3-.7h9.9c1,0,1.8.3,2.3.8s.8,1.3.8,2.3v14.6c0,.9-.2,1.6-.5,2.2s-.9,1-1.6,1.3c-1.8.6-3.8,1.2-6.1,1.6-2.3.4-4.5.6-6.7.6h0Z"/>
  <path class="st4" d="M162.1,69.4c-1.3,0-2.3-.4-3-1-.7-.7-1.1-1.7-1.1-3V31.2c0-1.3.4-2.3,1.1-3s1.7-1.1,3-1.1h21.4c1,0,1.8.3,2.3.8s.8,1.3.8,2.2-.3,1.8-.8,2.3-1.3.8-2.3.8h-18.1v11.6h16.8c1,0,1.8.3,2.3.8s.8,1.3.8,2.3-.3,1.8-.8,2.3c-.5.5-1.3.8-2.3.8h-16.8v12.3h18.1c1,0,1.8.3,2.3.8s.8,1.3.8,2.3-.3,1.8-.8,2.3-1.3.8-2.3.8h-21.4Z"/>
  <path class="st5" d="M206.7,69.9c-1.1,0-2-.3-2.6-.8-.7-.5-1.2-1.3-1.6-2.5l-12.5-35.5c-.4-1.3-.4-2.4.3-3.2s1.7-1.3,3.1-1.3,1.9.2,2.5.8c.6.5,1.1,1.3,1.4,2.4l10.8,32h-2.4l11.3-32c.4-1.1.9-1.9,1.5-2.4.6-.5,1.4-.8,2.3-.8s1.7.3,2.3.8,1,1.3,1.4,2.5l10.9,31.9h-2.1l11-32c.4-1,.8-1.8,1.4-2.3.6-.5,1.4-.8,2.5-.8s2.2.4,2.8,1.3.7,2,.2,3.2l-12.7,35.5c-.4,1.1-.9,1.9-1.6,2.4-.6.5-1.5.8-2.6.8s-1.9-.3-2.6-.8-1.2-1.3-1.6-2.5l-10.4-29.8h1.4l-10.6,29.8c-.4,1.1-.9,1.9-1.5,2.4s-1.5.8-2.5.8h0Z"/>
  <path class="st3" d="M260.9,69.4c-1.3,0-2.3-.4-3-1-.7-.7-1-1.7-1-3V31.2c0-1.3.4-2.3,1-3s1.7-1.1,3-1.1h21.4c1,0,1.8.3,2.3.8s.8,1.3.8,2.2-.3,1.8-.8,2.3-1.3.8-2.3.8h-18.1v11.6h16.8c1,0,1.8.3,2.3.8s.8,1.3.8,2.3-.3,1.8-.8,2.3c-.5.5-1.3.8-2.3.8h-16.8v12.3h18.1c1,0,1.8.3,2.3.8s.8,1.3.8,2.3-.3,1.8-.8,2.3-1.3.8-2.3.8h-21.4Z"/>
  <path class="st8" d="M294.9,69.4c-1.3,0-2.3-.4-3-1-.7-.7-1-1.7-1-3V31.2c0-1.3.4-2.3,1-3s1.7-1.1,3-1.1h14.4c3,0,5.5.4,7.6,1.3s3.7,2.1,4.8,3.8c1.1,1.6,1.6,3.6,1.6,5.9s-.7,4.7-2.2,6.5-3.5,2.9-6.1,3.5v-.9c3,.4,5.3,1.6,6.9,3.4,1.6,1.8,2.5,4.1,2.5,7s-1.3,6.7-3.8,8.7-6.1,3.1-10.6,3.1h-15.1,0ZM298.2,45h9.8c2.6,0,4.6-.5,5.9-1.5,1.3-1,2-2.5,2-4.5s-.6-3.5-2-4.5c-1.3-1-3.3-1.5-5.9-1.5h-9.8v12.1ZM298.2,63.6h10.8c2.7,0,4.7-.5,6-1.6s1.9-2.6,1.9-4.8-.6-3.8-1.9-4.8c-1.3-1-3.3-1.6-6-1.6h-10.8v12.7h0Z"/>
</svg>