<svg id="456311517" viewBox="0 0 1001 1001" xmlns="http://www.w3.org/2000/svg" xmlns:xlink="http://www.w3.org/1999/xlink"><g transform="matrix(1,0,0,1,0,0)"><g id="456311517" opacity="1" style="mix-blend-mode:normal"><g><defs><clipPath id="456311517_clipPath" x="-50%" y="-50%" width="200%" height="200%"><path d="M0,0h1001v0v1001v0h-1001v0v-1001z" fill="white" clip-rule="nonzero"></path></clipPath></defs><g clip-path="url(#456311517_clipPath)"><g transform="matrix(1,0,0,1,549.7242,242.3067)"><g id="456311518" opacity="1" style="mix-blend-mode:normal"><g><g><path id="456311518_fill_path" d="M420.25574,140.01329c0,0 -10.18996,-4.38002 -17.76996,-7.11002c-7.58,-2.73 -50.11005,-13.59 -50.11005,-13.59l1.42004,0.98001c0,0 2.70995,1.62001 3.19995,4.32001c0.49,2.7 0.87002,4.32999 -1.97998,9.45999c-2.85,5.13 -7.40002,11.64 -12.08002,14.16l-2.75,-0.49002c0,0 -314.45996,-111.61997 -319.89996,-113.40997c-5.44,-1.79 1.14002,-2.69001 -6.41998,-5.17001c-7.55,-2.48 -13.42,-2.44 -13.81,-8.87c-0.39,-6.43 1.26995,-12.48001 4.81995,-17.07001c3.55,-4.59 5.72005,-3.59001 11.11005,-1.24001c5.39,2.35 5.19999,2.23001 7.54999,3.28001c2.35,1.05 0.97999,-2.26001 11.23999,1.43999c10.26,3.7 317.59003,112.59001 317.59003,112.59001c0,0 9.36998,3.23999 2.91998,14.82999c-6.45,11.59 -11.98999,14.11002 -11.98999,14.11002c0,0 52.18999,17.40999 64.48999,22.70999c21.51,9.26 32.20001,-20.31001 12.01001,-30.95001" fill-rule="nonzero" fill="rgb(109, 124, 121)" fill-opacity="1" style="mix-blend-mode:NORMAL"></path></g></g></g></g><g transform="matrix(1,0,0,1,549.7442,242.3167)"><g id="456311519" opacity="1" style="mix-blend-mode:normal"><g><g><g style="mix-blend-mode:NORMAL"><path id="456311519_stroke_path" d="M340.18579,147.74329c0,0 -314.45997,-111.62001 -319.89997,-113.41001c-5.44,-1.79 1.13996,-2.68998 -6.42004,-5.16998c-7.55,-2.48 -13.42,-2.44003 -13.81,-8.87003c-0.39,-6.43 1.27001,-12.47999 4.82001,-17.06999c3.54,-4.59 5.71999,-3.58999 11.10998,-1.23999c5.39,2.35 5.20005,2.23 7.55005,3.28c2.35,1.05 0.97999,-2.26 11.23999,1.44c10.26,3.7 317.58997,112.58998 317.58997,112.58998c0,0 9.37004,3.24002 2.92004,14.83002c-6.45,11.59 -11.99005,14.10999 -11.99005,14.10999c0,0 52.19005,17.41002 64.49005,22.71002c21.51,9.26 32.19995,-20.31001 12.00995,-30.95001c-20.2,-10.63 -58.06,-19.04999 -77.19,-25.91999c-19.13,-6.87 -15.31999,-6.03001 -14.48999,-8.26001c0.83,-2.23 1.95999,-2.93001 15.48999,1.23999c13.52,4.16 52.93004,16.41001 65.35004,20.63c12.42,4.22 13.91,6.95001 12.38,9.63001" fill="none" stroke="rgb(0, 0, 0)" stroke-width="0.94" stroke-linecap="round" stroke-linejoin="round" stroke-dasharray="0 0" stroke-opacity="1"></path></g></g></g></g></g><g transform="matrix(1,0,0,1,84.66,752.207)"><g id="456311520" opacity="1" style="mix-blend-mode:normal"><g><g><g transform="matrix(1,0,0,1,0.020000000000010232,71.25239999999997)"><g id="456311521" opacity="1" style="mix-blend-mode:normal"><g><g><path id="456311521_fill_path" d="M0,29.50062l21.23,76.84998l30.31,-7.58002l75.25999,-20.75c0,0 13.04001,-3.68001 12.55001,-9.76001c-0.49,-6.08 -4.86002,-7.00995 -4.86002,-7.00995c0,0 -2.28,-28.10001 -3.37,-35.45001c-1.09,-7.35 -6.21,-17.42002 -9.96,-21.39002c-3.75,-3.97 -0.08999,-6.55997 -16.67999,-1.96997c-16.6,4.6 -104.46001,27.06 -104.46001,27.06z" fill-rule="nonzero" fill="rgb(227, 221, 188)" fill-opacity="1" style="mix-blend-mode:NORMAL"></path></g></g></g></g><g transform="matrix(1,0,0,1,0.020000000000010232,44.122600000000034)"><g id="456311522" opacity="1" style="mix-blend-mode:normal"><g><g><g style="mix-blend-mode:NORMAL"><path id="456311522_stroke_path" d="M107.91,97.32045c0,0 -8.55,-17.60005 -14.92,-34.55005c-6.38,-16.95 -13.47999,-28.63995 -5.34999,-35.19995c8.13,-6.56 23.64999,-21.04005 8.14999,-25.86005c-15.5,-4.82 -42.65,1.01 -54.61,11.69c-11.96,10.68 -6.42,15.32 1.71,18.56c8.13,3.24 14.47,3.48003 13.38,14.53003c-1.09,11.05 -2.55,47.49002 -6.94,65.21002c0,0 5.81001,7.49994 2.21001,14.18994l-30.31,7.58002c0,0 -5.99,-9.48997 -6.54,-25.27997c-0.55,-15.79 -2.45001,-24.25004 -2.74001,-28.54004c-0.29,-4.29 -11.95,-23.02997 -11.95,-23.02997c0,0 10.88,-2.80002 24.37,-6.71002c13.49,-3.91 69.08,-18.01 77.36,-19.69c8.28,-1.68 13.89999,-5.97 17.67999,-0.87c3.78,5.1 10.25,9.94 12.05,26.19c1.8,16.24 3.03,32.83002 3.03,32.83002c0,0 4.41002,2.16001 4.86002,7.01001c0.45,4.85 -5.61001,7.74999 -17.03001,11.17999c-11.42,3.43 -12.37001,2.93997 -13.46001,-5.59003c-1.09,-8.54 8.56,-7.96999 15.94,-9.98999l7.38,-2.02002" fill="none" stroke="rgb(0, 0, 0)" stroke-width="1.33" stroke-linecap="round" stroke-linejoin="round" stroke-dasharray="0 0" stroke-opacity="1"></path></g></g></g></g></g><g transform="matrix(1,0,0,1,0,0)"><g id="456311523" opacity="1" style="mix-blend-mode:normal"><g><g><g style="mix-blend-mode:NORMAL"><path id="456311523_stroke_path" d="M52.53,158.08293c0,0 8.38999,6.52003 9.95999,7.66003c1.57,1.14 4.02001,-0.50004 17.40001,-4.73004c13.38,-4.23 17.18,-5.89997 18.91,-6.71997c1.73,-0.82 3.98,-3.40999 5.09,-9.67999c1.11,-6.27 3.43,-3.96001 -0.66,-13.26001c-4.09,-9.3 -18.94,-41.42997 -23.97,-50.65997c-5.03,-9.23 -15.16001,-26.06005 -15.74001,-36.05005c-0.58,-9.99 0.75001,-11.41998 8.21001,-21.10998c7.46,-9.7 -6.01,-29.66001 -34.29,-21.70001c-28.28,7.96 -33.17,28.42003 -20.53,34.53003c12.64,6.11 19.12,5.35996 19.85,18.14996c0.73,12.78 3.73,35.17005 3.73,35.17005l-40.49,11.07001c0,0 4.82999,16.52001 8.18999,32.07001c3.35,15.55 5.51,26.67999 5.51,26.67999" fill="none" stroke="rgb(0, 0, 0)" stroke-width="1.33" stroke-linecap="round" stroke-linejoin="round" stroke-dasharray="0 0" stroke-opacity="1"></path></g></g></g></g></g></g></g></g></g><g transform="matrix(1,0,0,1,0.5299,0.5399)"><g id="456311524" opacity="1" style="mix-blend-mode:normal"><g><g><g style="mix-blend-mode:NORMAL"><path id="456311524_stroke_path" d="M311.50006,360.82004c0.16,-0.11 -10.48001,-15.34998 -10.48001,-15.34998l1.77002,-1.10001c0,0 10.15,15.46999 10.44,15.26999c21.86,-15.21 40.07998,-35.98998 52.22998,-61.16998c0.08,-0.16 -16.84,-7.63 -16.84,-7.63l1.14999,-2.62c0,0 16.59,8.35998 16.75,8.00998c2.39,-5.15 4.53002,-10.47999 6.40002,-15.98999c7.2,-21.2 9.66,-42.87 7.97,-63.86c-0.02,-0.3 -19.09003,1.86 -19.09003,1.86l-0.13998,-4.03c0,0 18.94,-0.96 18.87,-1.66c-2.81,-26.64 -12.31999,-52.05 -27.37,-73.87c-0.16,-0.23 -14.63,10.92999 -14.63,10.92999l-1.79001,-2.54999c0,0 15.01,-10.39 14.72,-10.8c-15.31,-21.34 -36.00999,-39.06 -60.95999,-50.85c-0.27,-0.13 -7.63998,16.19 -7.63998,16.19l-2.72,-1.37c0,0 8.03,-15.9 7.59,-16.1c-4.63,-2.08 -9.39002,-3.96 -14.30002,-5.62c-20.78,-7.05 -42.00999,-9.56001 -62.59999,-8.06001c-0.3,0.02 1.16,18.26 1.16,18.26l-3.10001,0.27c0,0 -1.38,-18.25 -1.91,-18.2c-26.81,2.61 -52.42999,12.02 -74.42999,27.04c-0.19,0.13 10.56,14.95 10.56,14.95l-2.42,1.66c0,0 -10.3,-15.1 -10.75,-14.78c-21.25,15.13 -38.94001,35.58999 -50.83001,60.25999c-0.08,0.17 16.83,8.12001 16.83,8.12001l-1.45,2.95999c0,0 -16.6,-8.5 -16.85,-7.95c-2.2,4.84 -4.19,9.84 -5.93,14.98c-7.08,20.85 -9.56999,42.19 -8.01999,62.91c0.02,0.33 18.84999,-1.22 18.84999,-1.22l0.42,3.32001c0,0 -18.99999,1.17999 -18.93999,1.71999c2.63,26.55 11.9,51.95001 26.64,73.84001c0.17,0.25 15.32,-10.73001 15.32,-10.73001l1.82999,2.57001c0,0 -15.52,10.52999 -15.24,10.92999c15.04,21.36 35.4,39.18 59.94,51.16c0.37,0.18 8.02,-16.16 8.02,-16.16l2.93001,1.37c0,0 -7.74,15.86 -7.16,16.13c4.82,2.19 9.78999,4.15999 14.89999,5.89999c20.33,6.9 41.08,9.45 61.25,8.16c0.32,-0.02 -0.5,-19.26999 -0.5,-19.26999l2.69,-0.26999c0,0 0.99,19.3 1.56,19.25l10.99001,-1.52002l-24.33,-138.28999c-17.1,-2.31 -16.44001,-17.28999 -15.35001,-23.64999c0.33,-1.95 -0.04999,-3.95 -1.09999,-5.64l-37.25,-59.84001c-1.29,-2.07 -0.62,-4.79999 1.48,-6.03999l7.39,-4.36c2.03,-1.2 4.63,-0.56001 5.89,1.42999l36.85001,58.51001c1.8,2.85 5.98,2.78 7.67,-0.14l56.37,-97.16c1.23,-2.13 3.98,-2.81 6.06,-1.51l1.38,0.86c1.97,1.23 2.63001,3.8 1.48001,5.82l-56.11002,99.38999c-1.07,1.9 -0.94999,4.22999 0.29001,6.00999c2.12,3.04 4.63,8.61001 2.09,16.01001c-3.95,11.5 -13.61,10.19 -13.61,10.19l24.88,139.50999c0.43,6.39 -4.77001,14.25001 -15.65001,14.23001c-59.07,-0.09 -109.79,-17.71001 -140.58,-54.98001c-55.37,-67.03 -54.04,-133.31001 -28.6,-193.13c25.44,-59.82 100.17001,-99.20999 167.45,-96.33999c42.01,1.79 88.52,23.96001 118.08,59.84001c29.56,35.88 45.68001,77.64999 39.92001,133.34999c-3.78,36.53 -21.08001,66.94999 -31.64001,80.85999c-3.69,4.86 -3.14,12.23002 1.28,16.43002l0.11002,0.10999c5.56,5.27 6.24998,13.83002 1.72998,20.02002c-29.81,40.79 -112.68999,70.29 -171.17999,59.5c-116.57,-21.52 -161.83001,-107.69001 -169.14001,-173.62001c-9.64,-86.69 41.2,-182.52 131.86001,-212.42c90.44,-29.83 186.31999,-0.16999 239.57999,89.36c19.37,32.56 23.77002,64.48999 25.33002,92.65999c0.87,18.38 -3.06001,58.59 -14.67001,84.47c-6.53,14.55 5.39001,19.58999 15.98001,22.76999c39.24,11.8 90.47,30.67001 90.47,30.67001c0,0 7.13997,-14.46 10.12997,-13.72c2.99,0.74 -8.55997,44.31002 -17.49997,41.33002c-8.93,-2.98 20.44996,-39.95001 25.36996,-38.76001c4.92,1.19 -7.49003,44.5 -13.22003,42.38c-5.73,-2.12 5.64004,-28.09002 14.54004,-24.68002c8.9,3.41 20.90997,1.14 5.96997,29.94c0,0 -10.22996,0.20002 0.54004,-21.47998c10.77,-21.68 24.62999,-27.50001 16.85999,1.32999c-7.76,28.83 -9.17002,23.74001 -12.15002,22.89001c-2.98,-0.85 16.39001,-41.09002 21.70001,-39.21002c5.31,1.87 -6.13,15.64001 -6.13,15.64001l13.44,4.56c0,0 4.12003,-15.53999 8.59003,-14.14999c4.47,1.38 -7.88004,43.82 -14.73004,42.28c-6.85,-1.54 14.95,-42.27 22.44,-40.47c7.49,1.8 -4.02999,44.72 -10.42999,43c-6.4,-1.72 3.96001,-27.92999 8.39001,-25.89999c4.43,2.03 15.20001,5.23999 15.20001,5.23999c0,0 5.05001,-18.32 9.51001,-16.72c4.46,1.6 -7.72004,44.70001 -14.10004,42.54001c-6.38,-2.16 16.94004,-42.79 23.54004,-40.62c6.6,2.17 -6.52004,46.3 -12.67004,43.94c-6.15,-2.36 3.18001,-25.78 8.51001,-24.13c5.33,1.65 119.20001,41.42999 119.20001,41.42999c0,0 7.06001,-14.74999 12.82001,-13.17999c5.76,1.57 -9.55,44.35999 -17.75,40.23999c-8.2,-4.12 19.24001,-39.7 27.26001,-36.13c8.02,3.57 -7.92004,41.10001 -14.85004,39.01001c-6.93,-2.09 6.71002,-26.55001 11.58002,-24.60001c4.87,1.95 10.40002,3.84 10.40002,3.84c0,0 3.56996,-12.43998 11.14996,-10.41998c7.58,2.02 -9.61,42.06999 -17.13,39.07999c-7.52,-2.99 18.06004,-38.25999 26.60004,-35.95999c8.54,2.3 -7.63003,41.66 -15.16003,38.88c-7.53,-2.78 6.51003,-27.83 13.09003,-25.44c6.58,2.39 10.98999,3.72998 10.98999,3.72998c0,0 3.64001,-11.56 10.39001,-10.03c6.75,1.53 -2.29001,41.36 -12.39001,38.09c-10.1,-3.27 14.03002,-38.19998 22.33002,-35.47998c8.3,2.72 -2.16001,41.15 -10.14001,38.56c-7.98,-2.59 3.06002,-26.55 9.77002,-24.37c6.7,2.18 11.14996,3.67999 11.14996,3.67999c0,0 4.17,-13.85001 9.94,-12.39001c5.77,1.46 -1.97001,43.12002 -9.82001,40.21002c-7.85,-2.91 5.92001,-42.1 17.95001,-38.37c12.03,3.73 -1.66002,43.35999 -6.77002,41.82999c-5.11,-1.53 2.81005,-26.83999 8.30005,-24.51999c4.55,1.92 90.27995,30.77004 119.81995,40.70004c5.47,1.84 8.40004,7.76998 6.54004,13.22998l-146.10999,430.32001c-1.85,5.45 -7.77003,8.36996 -13.22003,6.51996l-539.54996,-183.10999c-5.45,-1.85 -8.37002,-7.76997 -6.52002,-13.21997l119.35001,-348.06006c1.85,-5.45 7.77,-8.38 13.22,-6.53l528.23996,179.10007c5.45,1.85 8.38002,7.76997 6.52002,13.21997l-114.72998,334.12c-1.85,5.45 -7.77003,8.37002 -13.22003,6.52002l-518.44995,-175.95001c-5.45,-1.85 -8.37002,-7.76997 -6.52002,-13.21997l100.03,-294.66006c1.85,-5.46 7.78001,-8.37999 13.23001,-6.51999l559.42999,190.62006l31.38,10.07996l15.38995,5.23999l-0.52997,290.78003c-0.04,25.95 -21.10999,46.94997 -47.04999,46.90997l-904.65,-1.38995c-25.95,-0.04 -46.95,-21.11005 -46.91,-47.05005l1.39,-904.65c0.04,-25.95 21.11,-46.95 47.06,-46.91l904.64998,1.39c25.95,0.04 46.94997,21.11 46.90997,47.05l-0.82996,540.63001" fill="none" stroke="rgb(0, 0, 0)" stroke-width="1.07" stroke-linecap="round" stroke-linejoin="round" stroke-dasharray="0 0" stroke-opacity="1"></path></g></g></g></g></g><g transform="matrix(1,0,0,1,311.3443,491.7443)"><g id="456311525" opacity="1" style="mix-blend-mode:normal"><g><g><g style="mix-blend-mode:NORMAL"><path id="456311525_stroke_path" d="M138.13571,39.83572l3.81,-11.23004c1.85,-5.45 -1.07002,-11.36997 -6.52002,-13.21997l-43.69,-14.83002c-5.45,-1.85 -11.37,1.07002 -13.22,6.52002l-8.29999,24.46002c-1.85,5.45 1.07,11.36997 6.53,13.21997l114.36002,38.77002c5.45,1.85 11.36997,-1.07002 13.21997,-6.52002l8.29004,-24.41999c1.85,-5.45 -1.07002,-11.37003 -6.52002,-13.22003l-43.01001,-14.59998c-5.45,-1.85 -11.37,1.07002 -13.22,6.52002l-8.28,24.40997c-1.85,5.45 1.07002,11.36997 6.52002,13.21997l60.33002,20.49005l53.90997,18.28998c5.45,1.85 11.36997,-1.07002 13.21997,-6.52002l8.29004,-24.41998c1.85,-5.45 -1.07002,-11.36997 -6.52002,-13.21997l-44.07001,-14.96002c-5.46,-1.85 -11.37998,1.06997 -13.22998,6.52997l-8.26001,24.43006c-1.84,5.45 1.08003,11.35996 6.53003,13.20996l114.56,38.88c5.45,1.85 11.36997,-1.07002 13.21997,-6.52002l8.28998,-24.41998c1.85,-5.45 -1.06996,-11.36997 -6.51996,-13.21997l-43.83002,-14.88c-5.45,-1.85 -11.36997,1.06996 -13.21997,6.51996l-8.29004,24.42004c-1.85,5.45 1.07002,11.36997 6.52002,13.21997l115.12,39.07001c5.42,1.84 11.31001,-1.04001 13.20001,-6.45001l8.47998,-24.35999c1.9,-5.47 -1.01,-11.43999 -6.5,-13.29999l-44.28998,-15.03003c-5.45,-1.85 -11.37003,1.07002 -13.22003,6.52002l-8.28998,24.41998c-1.85,5.45 1.07002,11.37003 6.52002,13.22003l115.44,39.17999c5.45,1.85 11.36997,-1.07002 13.21997,-6.52002l8.28998,-24.41998c1.85,-5.45 -1.06996,-11.37003 -6.51996,-13.22003l-43.95001,-14.90997c-5.44,-1.84 -11.34002,1.04998 -13.21002,6.47998l-8.39996,24.38c-1.88,5.46 1.04001,11.41002 6.51001,13.27002l115.04999,39.04999c5.45,1.85 11.36997,-1.07002 13.21997,-6.52002l8.29004,-24.42999c1.85,-5.45 -1.07001,-11.36997 -6.51001,-13.21997l-45.45001,-15.47003c-5.47,-1.86 -11.40999,1.08005 -13.23999,6.55005l-25.10004,74.82996c-1.83,5.45 1.10003,11.34 6.53003,13.19l45.20001,15.34003c5.45,1.85 11.36997,-1.07002 13.21997,-6.52002l7.66998,-22.59998c1.85,-5.45 -1.06996,-11.37003 -6.51996,-13.22003l-115.10004,-39.06c-5.45,-1.85 -11.36997,1.07002 -13.21997,6.52002l-7.66998,22.59998c-1.85,5.45 1.06996,11.37003 6.51996,13.22003l44.08002,14.95996c5.46,1.85 11.38998,-1.07998 13.22998,-6.53998l7.62,-22.60999c1.84,-5.45 -1.08997,-11.35001 -6.52997,-13.20001l-115.37,-39.15002c-5.45,-1.85 -11.37003,1.07002 -13.22003,6.52002l-7.66998,22.59998c-1.85,5.45 1.07002,11.37003 6.52002,13.22003l44.32996,15.04999c5.46,1.85 11.40004,-1.07999 13.23004,-6.54999l7.59998,-22.62c1.83,-5.45 -1.08997,-11.35 -6.52997,-13.19l-115.28003,-39.12c-5.45,-1.85 -11.36997,1.06996 -13.21997,6.51996l-7.67004,22.60004c-1.85,5.45 1.07002,11.36997 6.52002,13.21997l43.83002,14.88c5.45,1.85 11.36997,-1.06996 13.21997,-6.51996l7.67004,-22.60004c1.85,-5.45 -1.07002,-11.36997 -6.52002,-13.21997l-114.54999,-38.88c-5.45,-1.85 -11.37003,1.06996 -13.22003,6.51996l-7.66998,22.60004c-1.85,5.45 1.07002,11.36997 6.52002,13.21997l44.02997,14.94c5.45,1.85 11.37003,-1.06996 13.22003,-6.51996l7.66998,-22.60004c1.85,-5.45 -1.07002,-11.36997 -6.52002,-13.21997l-114.17999,-38.73999c-5.44,-1.85 -11.36,1.06 -13.22,6.5l-7.66998,22.46997c-1.86,5.45 1.05,11.36999 6.5,13.23999l42.94998,14.67004c5.46,1.86 11.38999,-1.06002 13.23999,-6.52002l7.66,-22.58002c1.85,-5.45 -1.06999,-11.36997 -6.51999,-13.21997l-114.35001,-38.78003c-5.45,-1.85 -11.37001,1.07002 -13.22001,6.52002l-7.64999,22.54999c-1.85,5.46 1.07999,11.38998 6.54999,13.22998l43.73001,14.72003c5.45,1.83 11.35001,-1.09003 13.20001,-6.53003l7.62,-22.45001c1.85,-5.45 -1.07002,-11.36997 -6.52002,-13.21997l-43.68997,-14.82001c-5.45,-1.85 -11.37001,1.07002 -13.22001,6.52002l-25.46002,75.01996c-1.85,5.45 1.07002,11.37003 6.52002,13.22003l43.69001,14.83002c5.45,1.85 11.37,-1.07002 13.22,-6.52002l8.34,-24.56c1.85,-5.45 -1.07002,-11.37003 -6.52002,-13.22003l-43.69001,-14.82996c-5.45,-1.85 -11.37,1.06996 -13.22,6.51996l-8.34,24.56c-1.85,5.45 1.07002,11.37003 6.52002,13.22003l114.32999,38.79999c5.46,1.85 11.39001,-1.07998 13.23001,-6.53998l8.28998,-24.58002c1.84,-5.45 -1.08,-11.36001 -6.53,-13.20001l-42.94998,-14.57001c-5.45,-1.85 -11.36,1.06 -13.22,6.5l-8.38,24.55005c-1.86,5.46 1.05999,11.38999 6.51999,13.23999l114.29999,38.78998c5.45,1.85 11.37003,-1.07002 13.22003,-6.52002l8.33997,-24.56c1.85,-5.45 -1.06996,-11.36997 -6.51996,-13.21997l-44.03003,-14.94c-5.45,-1.85 -11.36997,1.07002 -13.21997,6.52002l-8.34003,24.56c-1.85,5.45 1.07002,11.36997 6.52002,13.21997l114.54999,38.88c5.45,1.85 11.37003,-1.07002 13.22003,-6.52002l8.33997,-24.56c1.85,-5.45 -1.07002,-11.36997 -6.52002,-13.21997l-43.82996,-14.88c-5.45,-1.85 -11.37003,1.07002 -13.22003,6.52002l-8.33997,24.56c-1.85,5.45 1.06996,11.36997 6.51996,13.21997l115.38,39.16003c5.45,1.85 11.37003,-1.07002 13.22003,-6.52002l8.33997,-24.56c1.85,-5.45 -1.06996,-11.37003 -6.51996,-13.22003l-44.36005,-15.06c-5.45,-1.85 -11.36997,1.07002 -13.21997,6.52002l-8.34003,24.56c-1.85,5.45 1.07002,11.37003 6.52002,13.22003l115.44,39.17999c5.45,1.85 11.36997,-1.07002 13.21997,-6.52002l8.34003,-24.56c1.85,-5.45 -1.07002,-11.37003 -6.52002,-13.22003l-44.09998,-14.96997c-5.45,-1.85 -11.37003,1.07002 -13.22003,6.52002l-8.33997,24.56c-1.85,5.45 1.07002,11.36997 6.52002,13.21997l115.09998,39.06c5.45,1.85 11.36997,-1.06996 13.21997,-6.51996l8.34003,-24.56c1.85,-5.45 -1.07002,-11.37003 -6.52002,-13.22003l-55.03998,-18.67999l-28.94,85.27002c-1.85,5.45 1.07002,11.36997 6.52002,13.21997l45.16998,15.33002c5.45,1.85 11.36997,-1.07002 13.21997,-6.52002l7.83002,-23.07001c1.85,-5.46 -1.07998,-11.37998 -6.53998,-13.22998l-115.16003,-38.89001c-5.45,-1.84 -11.35996,1.08003 -13.20996,6.53003l-7.77002,22.89996c-1.85,5.45 1.07002,11.37003 6.52002,13.22003l44.09998,14.96997c5.45,1.85 11.37003,-1.06996 13.22003,-6.51996l7.82996,-23.09003c1.85,-5.45 -1.06996,-11.36997 -6.51996,-13.21997l-115.44,-39.18005c-5.45,-1.85 -11.37003,1.07002 -13.22003,6.52002l-7.82996,23.09003c-1.85,5.45 1.06996,11.36997 6.51996,13.21997l44.35999,15.06c5.45,1.85 11.37003,-1.07002 13.22003,-6.52002l7.83002,-23.08997c1.85,-5.45 -1.07002,-11.37003 -6.52002,-13.22003l-115.62,-39.23999c-5.48,-1.86 -11.43,1.10003 -13.25,6.59003l-7.66998,23.14001c-1.8,5.44 1.11999,11.30996 6.54999,13.14996l43.89996,14.90002c5.45,1.85 11.37003,-1.07002 13.22003,-6.52002l7.83002,-23.08997c1.85,-5.45 -1.07002,-11.37003 -6.52002,-13.22003l-114.55002,-38.88c-5.45,-1.85 -11.37,1.07002 -13.22,6.52002l-7.82999,23.08997c-1.85,5.45 1.06999,11.37003 6.51999,13.22003l44.03003,14.94c5.45,1.85 11.36997,-1.07002 13.21997,-6.52002l7.84003,-23.08997c1.85,-5.45 -1.07001,-11.37003 -6.51001,-13.22003l-114.14001,-38.84998c-5.45,-1.85 -11.36998,1.06 -13.22998,6.5l-7.91,23.17999c-1.86,5.46 1.05999,11.38999 6.51999,13.23999l42.98001,14.59003c5.45,1.85 11.37,-1.07002 13.22,-6.52002l7.82999,-23.09003c1.85,-5.45 -1.06999,-11.36997 -6.51999,-13.21997l-50.91,-17.28003c-5.45,-1.85 -11.37,1.07002 -13.22,6.52002l-7.84,23.09998c-1.85,5.45 -7.75999,8.37003 -13.20999,6.53003l-43.71003,-14.77002c-5.46,-1.85 -8.39,-7.76998 -6.53,-13.22998l7.86002,-23.16998c1.85,-5.45 7.76998,-8.37002 13.22998,-6.52002l43.68003,14.84003c5.45,1.85 8.36999,7.76997 6.51999,13.21997l-25.42002,74.90002c-1.85,5.45 -7.77,8.36996 -13.22,6.51996l-43.68997,-14.82996c-5.45,-1.85 -8.37002,-7.77003 -6.52002,-13.22003l8.07001,-23.78998c1.85,-5.45 7.77,-8.37002 13.22,-6.52002l114.35999,38.77002c5.45,1.85 8.38002,7.76997 6.52002,13.21997l-8.08002,23.82001c-1.85,5.45 -7.77,8.37002 -13.22,6.52002l-42.97998,-14.59003c-5.46,-1.85 -8.38002,-7.78999 -6.52002,-13.23999l8.12003,-23.78998c1.86,-5.44 7.76997,-8.35 13.21997,-6.5l114.17999,38.72998c5.45,1.85 8.37002,7.76997 6.52002,13.21997l-8.09003,23.82001c-1.85,5.45 -7.76997,8.37002 -13.21997,6.52002l-44.03,-14.94c-5.45,-1.85 -8.36999,-7.76997 -6.51999,-13.21997l8.09,-23.82001c1.85,-5.45 7.77,-8.37002 13.22,-6.52002l114.54999,38.88c5.45,1.85 8.37002,7.76997 6.52002,13.21997l-8.09003,23.82001c-1.85,5.45 -7.76997,8.37002 -13.21997,6.52002l-43.83002,-14.88c-5.45,-1.85 -8.37002,-7.76997 -6.52002,-13.21997l8.09003,-23.83002c1.85,-5.45 7.75996,-8.37003 13.20996,-6.53003l115.47003,39.05005c5.46,1.85 8.38997,7.77999 6.52997,13.23999l-8.16998,23.94c-1.86,5.44 -7.76997,8.36001 -13.21997,6.51001l-44.38,-15.06006c-5.45,-1.85 -8.37002,-7.76997 -6.52002,-13.21997l8.14001,-23.97998c1.85,-5.45 7.76998,-8.37002 13.22998,-6.52002l115.42999,39.20001c5.45,1.85 8.37002,7.76997 6.52002,13.21997l-8.13,23.95001c-1.85,5.45 -7.76997,8.37002 -13.21997,6.52002l-44.10004,-14.97003c-5.45,-1.85 -8.36996,-7.76997 -6.51996,-13.21997l8.08997,-23.82001c1.85,-5.45 7.77003,-8.37002 13.22003,-6.52002l115.09998,39.06c5.45,1.85 8.37002,7.77003 6.52002,13.22003l-8.09003,23.82001c-1.85,5.45 -7.76997,8.36996 -13.21997,6.51996l-45.17004,-15.32996c-5.45,-1.85 -8.36996,-7.77003 -6.51996,-13.22003l9.85999,-29.07001" fill="none" stroke="rgb(0, 0, 0)" stroke-width="1.03" stroke-linecap="round" stroke-linejoin="round" stroke-dasharray="0 0" stroke-opacity="1"></path></g></g></g></g></g></g></g></g></g><animate href="#456311519_stroke_path" attributeName="stroke-dasharray" values="-1114.697720631353 2240.542418469019;170.10287216834448 955.7418256693219;468.8418612975471 657.0028365401193;642.0658870836594 483.7788107540071;758.4403291175724 367.40436872009406;842.0426581649241 283.8020396727424;904.4657305202796 221.3789673173868;952.397732507428 173.44696533023847;989.8515759206413 135.99312191702518;1019.2795957453093 106.56510209235724;1042.4653083344413 83.37938950322517;1060.9692904969218 64.87540734074477;1075.4603608651294 50.38433697253705;1086.8302776155692 39.014420222097264;1095.74785938062 30.09683845704643;1102.4360457044081 23.408652133258308;1107.340715675186 18.5039821624804;1110.9077483812061 14.936949456460217;1113.137143822469 12.707554015197509;1114.2518415431005 11.592856294566031;1114.697720631353 11.146977206313538;1114.697720631353 11.146977206313538;1114.697720631353 11.146977206313538;1114.697720631353 11.146977206313538;1114.697720631353 11.146977206313538;1114.697720631353 11.146977206313538" dur="10s" repeatCount="0" keyTimes="0;0.04;0.08;0.12;0.16;0.2;0.24;0.28;0.32;0.36;0.4;0.44;0.48;0.52;0.56;0.6;0.64;0.68;0.72;0.76;0.8;0.84;0.88;0.92;0.96;1" fill="freeze"></animate><animate href="#456311519_stroke_path" attributeName="stroke-dashoffset" values="-1114.697720631353;-472.29742423150424;-322.92792966690297;-236.31591677384682;-178.12869575689018;-136.32753123321447;-105.11599505553657;-81.1499940619625;-62.423072355355764;-47.7090624430219;-36.11620614845583;-26.864215067215607;-19.618679883111813;-13.933721507891912;-9.4749306253665;-6.1308374634724405;-3.6785024780834648;-1.8949861250732998;-0.780288404441947;-0.2229395441262706;0;0;0;0;0;0" dur="10s" repeatCount="0" keyTimes="0;0.04;0.08;0.12;0.16;0.2;0.24;0.28;0.32;0.36;0.4;0.44;0.48;0.52;0.56;0.6;0.64;0.68;0.72;0.76;0.8;0.84;0.88;0.92;0.96;1" fill="freeze"></animate><animate href="#456311522_stroke_path" attributeName="stroke-dasharray" values="-673.9224131811881 1354.5840504941877;102.8405602514493 577.8210770615506;283.4517669840077 397.20987032899217;388.1793099923644 292.4823273206356;458.5368099284803 222.12482738451968;509.0809909170695 171.58064639593044;546.8206460552159 133.84099125778403;575.7993098220071 104.86232749099284;598.4431029048949 82.21853440810501;616.2346546128784 64.42698270012151;630.2522408070471 50.40939650595285;641.4393528658547 39.222284447145164;650.2003442372103 30.461293075789637;657.0743528516584 23.58728446134153;662.4657321571079 18.195905155892017;666.5092666361951 14.152370676804887;669.4745252541923 11.187112058807687;671.631076976372 9.030560336627973;672.9789218027344 7.682715510265596;673.6528442159156 7.008793097084332;673.9224131811881 6.739224131811887;673.9224131811881 6.739224131811887;673.9224131811881 6.739224131811887;673.9224131811881 6.739224131811887;673.9224131811881 6.739224131811887;673.9224131811881 6.739224131811887" dur="10s" repeatCount="0" keyTimes="0;0.04;0.08;0.12;0.16;0.2;0.24;0.28;0.32;0.36;0.4;0.44;0.48;0.52;0.56;0.6;0.64;0.68;0.72;0.76;0.8;0.84;0.88;0.92;0.96;1" fill="freeze"></animate><animate href="#456311522_stroke_path" attributeName="stroke-dashoffset" values="-673.9224131811881;-285.5409264648694;-195.2353230985902;-142.87155159441187;-107.69280162635386;-82.42071113205931;-63.55088356298603;-49.061551679590494;-37.73965513814653;-28.84387928415485;-21.83508618707049;-16.24153015766663;-11.86103447198891;-8.42403016476485;-5.7283405120400985;-3.7065732724965343;-2.223943963497921;-1.1456681024080198;-0.47174568922683163;-0.13478448263623763;0;0;0;0;0;0" dur="10s" repeatCount="0" keyTimes="0;0.04;0.08;0.12;0.16;0.2;0.24;0.28;0.32;0.36;0.4;0.44;0.48;0.52;0.56;0.6;0.64;0.68;0.72;0.76;0.8;0.84;0.88;0.92;0.96;1" fill="freeze"></animate><animate href="#456311523_stroke_path" attributeName="stroke-dasharray" values="-465.6207780945754 935.8977639700965;71.05373073723221 399.22325513828895;195.84009926657845 274.4368866089427;268.1975681824755 202.0794176930457;316.80837741554905 153.4686084599721;351.7299357726423 118.54705010287887;377.80469934593845 92.47228652958273;397.82639280400525 72.45059307151593;413.4712509479829 56.80573492753825;425.7636394896798 44.513346385841366;435.44855167404694 34.82843420147423;443.17785659041687 27.099129285104304;449.2309267056464 21.046059169874766;453.9802586422111 16.296727233310104;457.7052248669677 12.571761008553496;460.49894953553513 9.778036339986041;462.54768095915125 7.729304916369928;464.03766744905386 6.239318426467348;464.968909005243 5.308076870278196;465.4345297833376 4.842456092183568;465.6207780945754 4.656207780945758;465.6207780945754 4.656207780945758;465.6207780945754 4.656207780945758;465.6207780945754 4.656207780945758;465.6207780945754 4.656207780945758;465.6207780945754 4.656207780945758" dur="10s" repeatCount="0" keyTimes="0;0.04;0.08;0.12;0.16;0.2;0.24;0.28;0.32;0.36;0.4;0.44;0.48;0.52;0.56;0.6;0.64;0.68;0.72;0.76;0.8;0.84;0.88;0.92;0.96;1" fill="freeze"></animate><animate href="#456311523_stroke_path" attributeName="stroke-dashoffset" values="-465.6207780945754;-197.28352367867163;-134.8903394139985;-98.71160495604998;-74.40620033951315;-56.945421160966575;-43.90803937431846;-33.897192645285095;-26.074763573296224;-19.928569302447826;-15.086113210264243;-11.221460752079269;-8.194925694464528;-5.820259726182194;-3.9577766138038912;-2.5609142795201647;-1.536548567712099;-0.7915553227607782;-0.3259345446662028;-0.09312415561891509;0;0;0;0;0;0" dur="10s" repeatCount="0" keyTimes="0;0.04;0.08;0.12;0.16;0.2;0.24;0.28;0.32;0.36;0.4;0.44;0.48;0.52;0.56;0.6;0.64;0.68;0.72;0.76;0.8;0.84;0.88;0.92;0.96;1" fill="freeze"></animate><animate href="#456311524_stroke_path" attributeName="stroke-dasharray" values="-14085.051776835773 28310.9540714399;2149.378901145139 12076.52339345899;5924.172777337127 8301.729517267004;8112.989823457407 6112.912471146725;9583.469228959058 4642.433065645072;10639.848112221744 3586.054182382387;11428.611011724544 2797.291282879586;12034.268238128485 2191.6340564756456;12507.525977830164 1718.3763167739658;12879.371344738633 1346.5309498654985;13172.340421696816 1053.5618729073155;13406.152281192288 819.7500134118424;13589.257954291155 636.6443403129756;13732.92548241488 492.97681218925095;13845.605896629566 380.2963979745646;13930.11620729058 295.78608731354996;13992.090435108657 233.8118594954731;14037.16260079453 188.73969380960045;14065.332704348202 160.5695902559289;14079.41775612504 146.48453847909155;14085.051776835773 140.85051776835786;14085.051776835773 140.85051776835786;14085.051776835773 140.85051776835786;14085.051776835773 140.85051776835786;14085.051776835773 140.85051776835786;14085.051776835773 140.85051776835786" dur="10s" repeatCount="0" keyTimes="0;0.04;0.08;0.12;0.16;0.2;0.24;0.28;0.32;0.36;0.4;0.44;0.48;0.52;0.56;0.6;0.64;0.68;0.72;0.76;0.8;0.84;0.88;0.92;0.96;1" fill="freeze"></animate><animate href="#456311524_stroke_path" attributeName="stroke-dashoffset" values="-14085.051776835773;-5967.836437845317;-4080.4394997493237;-2986.0309766891837;-2250.7912739383564;-1722.6018323070152;-1328.2203825556132;-1025.3917693536443;-788.7628995028033;-602.840216048571;-456.35567756947904;-339.4497478217421;-247.8969112723096;-176.06314721044717;-119.72294010310408;-77.46778477259674;-46.48067086355805;-23.944588020620813;-9.85953624378504;-2.8170103553671546;0;0;0;0;0;0" dur="10s" repeatCount="0" keyTimes="0;0.04;0.08;0.12;0.16;0.2;0.24;0.28;0.32;0.36;0.4;0.44;0.48;0.52;0.56;0.6;0.64;0.68;0.72;0.76;0.8;0.84;0.88;0.92;0.96;1" fill="freeze"></animate><animate href="#456311525_stroke_path" attributeName="stroke-dasharray" values="-9503.48747518162 19102.009825115056;1450.2321887127155 8148.290161220721;3997.16683206139 5601.355517872046;5474.008785704614 4124.513564228822;6466.1728781135735 3132.349471819863;7178.934438752197 2419.58791118124;7711.129737362366 1887.392612571071;8119.779698795177 1478.7426511382598;8439.096877961278 1159.4254719721587;8689.988947306074 908.5334026273621;8887.661486789852 710.860863143585;9045.419378877867 553.1029710555706;9168.964716055229 429.5576338782084;9265.90028830208 332.62206163135596;9341.928188103533 256.59416182990293;9398.949112954624 199.57323697881316;9440.764457845422 157.75789208801442;9471.175617766003 127.34673216743447;9490.182592716366 108.33975721707121;9499.686080191548 98.83626974188851;9503.48747518162 95.03487475181629;9503.48747518162 95.03487475181629;9503.48747518162 95.03487475181629;9503.48747518162 95.03487475181629;9503.48747518162 95.03487475181629;9503.48747518162 95.03487475181629" dur="10s" repeatCount="0" keyTimes="0;0.04;0.08;0.12;0.16;0.2;0.24;0.28;0.32;0.36;0.4;0.44;0.48;0.52;0.56;0.6;0.64;0.68;0.72;0.76;0.8;0.84;0.88;0.92;0.96;1" fill="freeze"></animate><animate href="#456311525_stroke_path" attributeName="stroke-dashoffset" values="-9503.48747518162;-4026.627643234453;-2753.160321560116;-2014.7393447385034;-1518.6572985340229;-1162.2765182147123;-896.1788689096268;-691.853888193222;-532.1952986101708;-406.7492639377733;-307.9129941958845;-229.03404815187704;-167.26137956319653;-118.79359343977026;-80.77964353904378;-52.26918111349891;-31.361508668099347;-16.155928707808755;-6.652441232627134;-1.9006974950363242;0;0;0;0;0;0" dur="10s" repeatCount="0" keyTimes="0;0.04;0.08;0.12;0.16;0.2;0.24;0.28;0.32;0.36;0.4;0.44;0.48;0.52;0.56;0.6;0.64;0.68;0.72;0.76;0.8;0.84;0.88;0.92;0.96;1" fill="freeze"></animate></svg>