<svg id="457510483" viewBox="0 0 1001 1001" xmlns="http://www.w3.org/2000/svg" xmlns:xlink="http://www.w3.org/1999/xlink"><defs><marker id="NONE" viewBox="0 0 10 10" refX="5" refY="5" markerWidth="1" markerHeight="1" orient="auto-start-reverse" markerUnits="strokeWidth"></marker><marker id="ROUND" viewBox="0 0 10 10" refX="5" refY="5" markerWidth="1" markerHeight="1" orient="auto-start-reverse" markerUnits="strokeWidth"><circle r="5" cx="5" cy="5" stroke="context-stroke" fill="context-fill"></circle></marker><marker id="SQUARE" viewBox="0 0 10 10" refX="0" refY="5" markerWidth="1" markerHeight="1" orient="auto-start-reverse" markerUnits="strokeWidth"><rect x="0" y="0" width="5" height="10" stroke="context-stroke" fill="context-fill"></rect></marker><marker id="ARROW_LINES" viewBox="0 0 10 10" refX="4" refY="5" markerWidth="10" markerHeight="10" orient="auto-start-reverse" markerUnits="strokeWidth"><path d="M3.3095 4.5L0.3255 1.457C0.1315 1.26 0.1355 0.942998 0.3315 0.749998C0.5295 0.556998 0.8455 0.559998 1.0385 0.756998L4.8575 4.65C5.0475 4.844 5.0475 5.156 4.8575 5.35L1.0385 9.243C0.8455 9.44 0.5285 9.443 0.3315 9.25C0.1345 9.057 0.1315 8.74 0.3255 8.543L3.3095 5.5V4.5Z"></path></marker><marker id="ARROW_EQUILATERAL" viewBox="0 0 10 10" refX="6.5" refY="5" markerWidth="6" markerHeight="6" orient="auto-start-reverse" markerUnits="strokeWidth"><path d="M8 5L0.5 9.33013L0.5 0.669873L8 5Z"></path></marker><marker id="TRIANGLE_FILLED" viewBox="0 0 10 10" refX="5" refY="5" markerWidth="6" markerHeight="6" orient="auto-start-reverse" markerUnits="strokeWidth"><path d="M-5.96244e-08 5L7.5 9.33013L7.5 0.669873L-5.96244e-08 5Z"></path></marker><marker id="CIRCLE_FILLED" viewBox="0 0 10 10" refX="5" refY="5" markerWidth="6" markerHeight="6" orient="auto-start-reverse" markerUnits="strokeWidth"><circle r="3.5" cx="5" cy="5"></circle></marker><marker id="DIAMOND_FILLED" viewBox="0 0 10 10" refX="5" refY="5" markerWidth="6" markerHeight="6" orient="auto-start-reverse" markerUnits="strokeWidth"><rect x="-0.000488281" y="5" width="7.07138" height="7.07138" transform="rotate(-45 -0.000488281 5)"></rect></marker></defs><g transform="matrix(1,0,0,1,0,0)"><g id="457510483" opacity="1" style="mix-blend-mode:normal"><g><defs><clipPath id="457510483_clipPath" x="-50%" y="-50%" width="200%" height="200%"><path d="M0,0h1001v0v1001v0h-1001v0v-1001z" fill="white" clip-rule="nonzero"></path></clipPath></defs><g clip-path="url(#457510483_clipPath)"><g transform="matrix(1,0,0,1,0.49,0.5)"><g id="457510484" opacity="1" style="mix-blend-mode:normal"><g><g><g transform="matrix(1,0,0,1,86.78930000000001,193.9911)"><g id="457510485" opacity="1" style="mix-blend-mode:normal"><g><g><g transform="matrix(1,0,0,1,0,26.962000000000018)"><g id="457510486" opacity="1" style="mix-blend-mode:normal"><g><g><g transform="matrix(1,0,0,1,197.80030000000002,0)"><g id="457510487" opacity="1" style="mix-blend-mode:normal"><g><g><g style="mix-blend-mode:NORMAL"><g><path id="457510487_stroke_path" d="M51.79045,111.04686c0,0 -8.62998,-2.02999 -19.66998,-4.01999c-11.04,-1.99 -17.24002,2.34998 -17.24002,2.34998c0.22,-0.55 1.26001,-8.02 5.98001,-9.12c4.72,-1.11 15.96999,-0.05998 21.13999,1.05002c5.17,1.11 10.70001,8.84998 11.20001,14.84998c0.5,6 1.17001,8.72002 0.54001,13.58002c-0.63,4.86 -1.13001,8.53999 -3.95001,11.42999c-2.82,2.89 -1.96999,5.73 -0.42999,7.28c1.54,1.55 4.71999,1.80001 5.64999,3.57001c0.93,1.77 2.09001,5.03001 5.98001,5.42001c3.89,0.39 6.04,0.87998 7.41,-1.99002c1.37,-2.87 4.49999,-4.36998 7.35999,-5.13998c2.86,-0.77 6.2,-2.88 6.75,-6.41c0.55,-3.53 0,-2.44 0,-2.44c0,0 -3.28,-1.28999 -7.12,-5.17999c-3.83,-3.89 -6.46,-7.67002 -7.53,-13.18002c-1.08,-5.51 -0.70999,-8.82999 -0.70999,-8.82999c0,0 0.28998,-9.62 8.84998,-13.94c8.56,-4.31 26.89002,-6.26001 31.74002,-0.04001c0,0 -1.98002,5.23002 -9.27002,5.27002c0,0 8.29,0.12998 18.56,2.94998c0,0 -0.6,-23.12 -2.09,-34.56c-1.48,-11.45 -4.93998,-20.56998 -1.31998,-23.88998c3.62,-3.32 7.03,-7.58001 8.78,-15.98001l-0.99002,-2.31999c-12.74,-27.32 -44.47,-37.49001 -74.22,-28.65001c-29.75,8.85 -36.22998,30.19 -36.66998,32.85c-0.44,2.65 -2.63999,7.40999 -5.70999,14.48999c-3.07,7.08 -1.10001,18.03 0.32999,30.19c1.43,12.17 3.29001,11.83002 3.29001,11.83002c0,0 2.19998,-32.07001 1.97998,-36.39001c-0.22,-4.31 2.74001,-6.18999 15.04001,-7.51999c12.3,-1.33 47.75999,-2.43 63.67999,-1.88c15.92,0.55 20.97,1.77 22.62,1c1.65,-0.77 10.65002,-13.60001 10.65002,-13.60001c0,0 6.37,12.94001 7.91,14.82001c1.54,1.88 3.18,17.58999 4.5,27.42999c1.32,9.84 0.43998,10.62001 -0.77002,11.39001c-1.21,0.77 -5.82001,5.52999 -10.76001,13.70999c-4.94,8.18 -6.25998,7.07999 -6.25998,7.07999c0,0 -13.61,-4.64998 -29.31,-2.31998c-15.7,2.32 -19.98001,8.51999 -19.98001,8.51999c-2.53,-0.22 -15.04001,1.10999 -15.04001,1.10999c0,0 -15.80998,-7.96 -26.78998,-5.75c-10.98,2.21 -22.07001,5.75 -22.07001,5.75c0,0 2.74001,-9.94999 3.73001,-13.48999c0.99,-3.54 1.09998,-8.17999 1.09998,-8.17999c0,0 -1.69998,-1.21999 -4.16998,-1.70999c-2.47,-0.49 -4.83001,0.55 -4.45001,4.09c0.38,3.54 0.81999,9.72998 0.92999,11.66998c0.11,1.94 3.59003,4.97 3.59003,4.97l-0.74002,2.67001l0.05002,0.42999c0.12,1.09 0.48999,2.14999 1.14999,3.01999c0.39,0.51 0.87999,0.97 1.48999,1.19c1.7,0.61 2.96,3.26001 4.5,7.35001c1.54,4.09 7.08002,16.47999 18.61002,18.07999c11.53,1.6 17.50998,-0.71999 21.62998,-6.57999c4.12,-5.86 2.03,-21.45999 2.03,-21.45999l13.61002,-1.11002c0,0 0.44001,6.58 2.42001,11.12c1.98,4.54 10.43,16.26003 22.62,15.59003c12.19,-0.66 17.83999,-7.80001 19.70999,-13.60001c1.87,-5.81 1.36999,-12.11 2.95999,-14.16c1.59,-2.05 3.89999,-4.42001 3.89999,-4.42001c0,0 4.38003,-8.13999 6.81003,-12.32999c2.43,-4.19 6.81,-7.69 6.81,-7.69l1.91998,0.06c0,0 4.23001,-4.92 6.64001,-5.09c2.41,-0.17 8.50998,0.22 8.50998,10.62c0,10.4 -2.90999,7.91 -3.89999,13.44c-0.99,5.53 -2.90999,12.99999 -3.89999,15.42999c-0.99,2.43 -0.88001,10.67 -6.04001,11.5c-5.16,0.83 -6.58999,-0.94 -5.92999,-3.87c0.66,-2.93 0.98999,-23.82999 0.98999,-23.82999c0,0 4.61001,2.64998 3.73001,6.13998c-0.88,3.48 -2.69,7.35002 -2.03,7.52002c0.66,0.17 1.70001,-4.59003 4.01001,-4.59003c2.31,0 6.85999,-3.14999 5.92999,-8.73999c-0.93,-5.59 -3.18002,-4.26 -5.05002,-5.31c-1.87,-1.05 -4.55999,-1.33001 -2.57999,-4.70001c1.98,-3.37 7.36001,-11.28 10.98001,-11.34" fill="none" stroke="rgb(0, 0, 0)" stroke-width="1" stroke-linejoin="round" stroke-dasharray="0 0" stroke-opacity="1"></path><circle r="0.5" transform="matrix(0.9734320923955062,0.22897589719118158,-0.22897589719118158,0.9734320923955062,51.79045,111.04686)" fill="rgb(0, 0, 0)"></circle><circle r="0.5" transform="matrix(0.999862669850044,-0.016572309445028962,0.016572309445028962,0.999862669850044,145.40048000000004,88.50686)" fill="rgb(0, 0, 0)"></circle></g></g></g></g></g></g><g transform="matrix(1,0,0,1,211.0309,112.31779999999998)"><g id="457510488" opacity="1" style="mix-blend-mode:normal"><g><g><g style="mix-blend-mode:NORMAL"><g><path id="457510488_stroke_path" d="M31.06979,6.39911c-12.76,7.8 -23.47,0.75 -23.47,0.75c0,0 0.91,-3.48001 9.31,-5.14001c8.4,-1.66 15.06999,1.16002 18.76999,6.14002c3.71,4.98 3.62,12.35998 0,17.66998c-3.62,5.31 -14.41001,9.87001 -24.13001,3.82001c-9.72,-6.06 -12.09998,-13.77 -11.44998,-19.66c0.65,-5.89 6.42001,-7.96001 8.98001,-8.79001c2.55,-0.83 7.57999,-1.16 7.57999,-1.16c0,0 9.13999,-0.58 15.14999,3.44c6.01,4.02 6.62,12.36002 6.62,12.36002" fill="none" stroke="rgb(0, 0, 0)" stroke-width="1" stroke-linejoin="round" stroke-dasharray="0 0" stroke-opacity="1"></path><circle r="0.5" transform="matrix(0.8532157116664824,-0.5215581936519242,0.5215581936519242,0.8532157116664824,31.06979,6.39911)" fill="rgb(0, 0, 0)"></circle><circle r="0.5" transform="matrix(0.07294645262328497,0.9973358587004073,-0.9973358587004073,0.07294645262328497,38.42978,15.82912)" fill="rgb(0, 0, 0)"></circle></g></g></g></g></g></g><g transform="matrix(1,0,0,1,268.98519999999996,108.33549999999997)"><g id="457510489" opacity="1" style="mix-blend-mode:normal"><g><g><g style="mix-blend-mode:NORMAL"><g><path id="457510489_stroke_path" d="M35.2055,8.22136c0,0 -5.10999,3.58999 -12.45999,3.20999c-7.36,-0.39 -16.85001,-1.04999 -16.85001,-1.04999c0,0 6.26,-6.03 14.66,-5.75c5.13,0.17 10.35,0.97999 13.63,1.57999c1.2,0.22 1.94999,-1.29999 1.01999,-2.10999c-1.4,-1.22 -3.46,-2.51001 -6.31,-3.07001c-6.2,-1.22 -14.88,-2.27001 -23,2.48999c-8.12,4.76 -6.53001,14.82 -3.07001,19.47c3.46,4.65 7.51999,9.9 19.26999,10.06c11.75,0.16 15.76,-10.06 16.91,-13.38c1.15,-3.32 0.38002,-10.94998 -2.28998,-14.00998" fill="none" stroke="rgb(0, 0, 0)" stroke-width="1" stroke-linejoin="round" stroke-dasharray="0 0" stroke-opacity="1"></path><circle r="0.5" transform="matrix(0.8182529919094073,-0.5748582792578563,0.5748582792578563,0.8182529919094073,35.2055,8.22136)" fill="rgb(0, 0, 0)"></circle><circle r="0.5" transform="matrix(-0.6574580010862752,-0.7534911922561799,0.7534911922561799,-0.6574580010862752,36.71549,5.66136)" fill="rgb(0, 0, 0)"></circle></g></g></g></g></g></g><g transform="matrix(1,0,0,1,71.9675,370.14680000000004)"><g id="457510490" opacity="1" style="mix-blend-mode:normal"><g><g><g style="mix-blend-mode:NORMAL"><g><path id="457510490_stroke_path" d="M109.90315,30.80019c3.87,3.82 7.53,3.31996 15.03,4.76996c7.49,1.45 13.75,0.95001 13.75,0.95001c0,0 -0.37,0.04002 -6.59,-0.28998c-6.22,-0.33 -11.69,-1.91003 -11.69,-1.91003l-23.12,-13.72998c-0.31,-6.27 4.35,-6.51 4.56,-6.37c0,0 26.59999,14.92998 28.76999,16.41998c2.17,1.49 9.61002,5.5 9.61002,5.5c0,0 4.49998,-0.13997 6.63998,-1.15997c2.14,-1.02 2.09003,-4.34002 -0.37997,-6.77002c-2.47,-2.43 -7.08001,-6.57999 -12.85001,-11.60999c-5.76,-5.03 -3.84001,-2.82002 -9.39001,-6.08002c-5.54,-3.26 -8.89,-2.20999 -11.47,-1.04999c-2.58,1.16 -10.91998,4.76001 -10.91998,4.76001c0,0 -21.38,-11.74999 -24.14,-13.48999c-2.76,-1.74 -3.50001,-0.04002 -4.28001,1.28998c-0.78,1.33 -1.68999,2.86001 0.12001,4.39001c1.81,1.53 18.12,11 18.12,11c-2.8,-1.82 -4.45,-0.25003 -11.03,1.90997c-6.58,2.16 -11.78,-1.15997 -11.78,-1.15997c0,0 -10.87,-7.88002 -16.88,-9.46002c-6.01,-1.58 -12.26999,-3.65002 -17.53999,-1.08002c-5.27,2.57 -12.27001,7.96005 -20.01001,11.36005c-7.74,3.4 -11.45,8.46 -13.67,11.94c-2.22,3.48 0.82001,8.78999 3.79001,14.17999c2.97,5.39 8.89,11.69995 13.83,16.00995c4.94,4.31 14.41,7.63004 21.25,10.29004c6.83,2.65 17.69999,2.89998 21.48999,3.72998c3.79,0.83 2.96,2.24001 7.91,6.14001c3.09,2.44 5.32,2.08998 6.33,2.03998c0.61,-0.03 7.17,6.38 7.17,6.38c0,0 -6.81,-6.04 -7.17,-6.38c-1.17,-1.09 -3.83,-3.75998 -5.59,-6.84998c-2.31,-4.06 -2.39,-12.53001 -2.8,-17.83001c-0.41,-5.31 0.08,-8.37999 2.06,-14.67999c1.98,-6.3 6.67001,-11.94002 8.32001,-13.77002c1.65,-1.83 4.52999,-4.22997 5.51999,-6.71997c0.99,-2.49 4.78,-4.47998 4.78,-4.47998l4.03,-1.58002l15.71002,9.17999c0,0 -11.12001,6.59997 -11.67001,7.15997c-1.24,1.24 -3.61999,11.45005 -1.64999,14.18005c1.97,2.73 -0.25001,3.73 -1.48001,4.56c-1.23,0.83 -8.71,10.77995 -4.36,14.51995c3.38,2.9 1.34,5.10004 0,5.35004c-2.92,0.54 -2.63999,6.75996 -0.65999,9.07996c1.98,2.32 1.23999,2.75 0.40999,2.62c-1.65,-0.26 -4.55999,1.64 -4.31999,4.13c0.24,2.49 2.34001,7.52005 15.85001,5.61005c13.51,-1.91 29.56,-7.63 29.56,-7.63c0,0 -14.90002,-1.74003 -18.86002,-1.91003c-3.95,-0.17 -17.12999,-0.16998 -17.12999,-0.16998c0,0 21.45,-0.24999 39.11,2.20001c0,0 3.86999,1.61999 7.32999,-2.32001c3.46,-3.94 7.45,-7.67003 10.38,-10.16003c2.93,-2.49 2.92001,-7.01 2.35001,-9.62c0,0 -3.98999,4.23003 -6.82999,6.84003c-2.84,2.61 -1.89001,3.81999 -10.79001,2.85999c-8.89,-0.95 -37.34,-2.98999 -37.34,-2.98999c0,0 24.10999,1.63001 30.23999,2.26001c6.13,0.63 11.73,1.65999 14.25,0.67999c2.51,-0.97 10.09,-8.44001 11.63,-11.45001c1.54,-3.01 1.69001,-4.41999 1.48001,-6.17999c-0.21,-1.76 -0.64001,-2.17999 -0.64001,-2.17999l-4.57001,-2.82001c0,0 -3.70999,2.20003 -5.10999,2.53003c-1.4,0.33 -3.64002,0.20996 -4.08002,0.51996c-0.44,0.31 -1.95998,4.3 -6.50998,3.69c-4.55,-0.61 -12.96001,-1.98998 -22.51001,-4.47998c-9.55,-2.49 -11.36002,-2.38 -11.36002,-2.38c0,0 11.34001,2.60002 16.17001,2.52002c4.83,-0.08 20.77999,-0.03 23.54999,0.25c2.77,0.28 3.93001,0.52998 10.70001,-3.21002c6.78,-3.73 7.33001,-3.54 8.07001,-6c0.74,-2.46 1.56,-5.25001 -0.63,-8.32001c-2.19,-3.07 -3.56999,-5.89 -5.73999,-5.31c-2.17,0.58 -3.73001,2.28998 -3.73001,2.28998" fill="none" stroke="rgb(0, 0, 0)" stroke-width="1" stroke-linejoin="round" stroke-dasharray="0 0" stroke-opacity="1"></path><circle r="0.5" transform="matrix(-0.7116893112338311,-0.7024943588923083,0.7024943588923083,-0.7116893112338311,109.90315,30.80019)" fill="rgb(0, 0, 0)"></circle><circle r="0.5" transform="matrix(-0.6739686475397882,0.738759948923457,-0.738759948923457,-0.6739686475397882,148.50317,33.31013999999999)" fill="rgb(0, 0, 0)"></circle></g></g></g></g></g></g><g transform="matrix(1,0,0,1,0,137.6569)"><g id="457510491" opacity="1" style="mix-blend-mode:normal"><g><g><g style="mix-blend-mode:NORMAL"><g><path id="457510491_stroke_path" d="M95.00075,296.78003c0,0 -3.58,0.30996 -6.88,-0.85004c-3.29,-1.16 -8.81,-5.63995 -8.81,-5.63995c0,0 -2.14,9.20998 -4.94,10.03998c0,0 -4.28,-7.47003 -7,-10.78003c-2.72,-3.31 -4.85999,-5.89 -4.68999,-9.37c0.16,-3.48 4.11999,-4.47996 5.18999,-1.07996c1.07,3.4 0.29,11.98998 -2.59,8.41998c-2.88,-3.57 -4.16001,-5.39003 -5.72001,-6.84003c-1.56,-1.45 -2.31,-4.43999 -1.98,-6.42999c0.33,-1.99 4.35999,-1.41997 4.89999,1.53003c0.54,2.95 0.23001,3.38 0.23001,3.38c0,0 -0.56,2.54998 0.33,5.22998c0,0 -3.31001,-3.35003 -4.71001,-4.78003c-1.4,-1.44 -3.85001,-2.45 -5.93001,-3.12c-2.08,-0.67 -3.64,-6.18 0.25,-6.12c3.89,0.06 4.14001,3.26004 3.81001,4.54004c-0.33,1.29 -0.78001,2.96997 -2.74001,2.27997c-1.96,-0.69 -2.66,-1.39 -3.89,-2.94c-1.24,-1.56 0.35,-3.18999 -14.23,-10.48999c-14.58,-7.3 -25.76999,-17.34 -29.96999,-22.56c-4.2,-5.23 -2.39,-3.97998 -4.2,-5.22998c-1.81,-1.25 -1.77,-3.48 -0.62,-7.38c1.15,-3.9 -0.34,-6.64 2.68,-16.31c3.02,-9.68 2.09,-10.73003 4.01,-16.53003c1.92,-5.81 3.46,-11.34001 7.52,-16.70001c4.06,-5.36 10.98,-12.93998 17.18,-16.97998c6.2,-4.04 4.34,-2.65002 7.96,-8.96002c3.62,-6.31 11.25,-12.49997 16.52,-17.80997c5.27,-5.31 7.08,-7.81999 11.03,-15.87c3.95,-8.05 12.43,-7.63002 18.86,-16.18002c6.42,-8.54 11.53,-21.15 16.22,-28.87c4.69,-7.71 7.99,-13.84998 8.89,-20.81998c0.9,-6.97 14.66,-36.50002 17.95,-37.08002c3.29,-0.58 3.20999,0.41 3.20999,0.41c0,0 18.12,-6.72001 34.42,-9.04001c16.3,-2.32 38.53999,-3.23999 38.53999,-3.23999l5.25,-3.32001c0,0 1.25001,13.98002 3.89001,18.77002c0,0 -0.74002,-2.10001 -4.36002,7.60999c-3.62,9.71 -14.65997,38.41 -14.65997,38.41l16.14999,15.20999c0,0 14.81,-9.99001 22.47,-15.85001l-1.54001,-17.69998c0,0 -7.96,-6.80002 -11.91,-14.99002c-3.95,-8.19 -5.48999,-11.38998 -5.48999,-11.38998c0,0 4.27999,8.42999 7.73999,14.26999c3.46,5.84 9.66,12.11002 9.66,12.11002l1.54001,17.69998c0,0 -19.98001,14.88 -27.89001,19.13c-7.91,4.25 -18.94,7.96002 -18.94,7.96002c0,0 21.19,85.77 28.88,118.06c0,0 -21.85,0.65997 -28,1.65997c-6.15,1 -17.79001,2.32001 -17.79001,2.32001l-25.24998,-8.63c0,0 2.53,-15.03996 0.77,-26.20996c-1.76,-11.17 -3.62001,-22.89001 -3.62001,-22.89001c0,0 -5.48999,-26.16003 -7.95999,-33.62003c-2.47,-7.46 -1.32,-17.08998 0,-34.00998c1.32,-16.92 -2.31,-70.34 -2.31,-70.34c0,0 2.84999,46.77999 2.84999,52.87c0,6.09 0.6,13.15999 -0.05,18.07999c-0.66,4.92 -3.39999,25.38001 -0.92999,33.95001c2.47,8.57 7.95999,32.67999 7.95999,32.67999c0,0 -3.48999,6.91003 -8.50999,11.47003c-5.02,4.56 -8.64999,6.96997 -8.64999,6.96997c0,0 -2.72001,12.27998 -3.79001,14.59998c-0.92,1.99 -4.80999,7.57005 -5.81999,9.05005c1,1.94 3.51999,6.88 3.51999,6.88c0,0 -3.53999,-6.94 -3.67999,-7.19c-1.08,-1.88 -5.88,-10.05005 -9.08,-13.05005c-3.62,-3.4 -13.17999,-7.95996 -13.17999,-7.95996c0,0 3.90999,7.70995 12.75999,15.38995c0,0 -6.41999,-5.26997 -13.25999,-15.83997c-6.83,-10.58 -17.54001,-7.84003 -23.10001,-10.66003c-5.56,-2.82 -9.22,-5.55999 -11.65,-5.17999c-2.43,0.38 -3.66,-0.5 -6.83,-1.12c-3.17,-0.62 -3.54001,-1.7 -8.48001,0.87c-4.94,2.57 -11.56999,5.60001 -13.25999,6.76001c-1.69,1.16 -5.56,5.01999 -7.12,6.42999c-1.56,1.41 -2.47001,2.78002 -1.56001,5.52002c0,0 8.81,-5.09998 10.79,-6.34998c1.98,-1.25 3.25,-3.65005 5.43,-3.86005c2.18,-0.21 9.96001,1.04002 17.25001,2.65002c7.29,1.62 9.58999,2.02997 13.12999,1.52997c0,0 -4.82,0.86005 -13.12,-1.69995c-8.3,-2.56 -15.38,-2.70999 -17.28,-2.73999c-1.9,-0.03 -3.68,2.76 -5.52,3.87c-1.84,1.11 -11.62,7.25996 -13.35,9.45996c-1.73,2.2 -3.05,3.48004 -4.55,4.42004c-1.5,0.94 -2.05999,1.44997 -2.50999,3.02997c-0.45,1.58 -0.66,3.71 0.74,4.31c1.4,0.6 6.13,-3.06998 7.41,-4.47998c1.28,-1.41 4.65,-2.82 9.47,-5.56c4.82,-2.74 6.13,-3.19005 7.62,-3.86005c1.49,-0.67 4.93999,-0.5 9.67999,0.75c4.74,1.25 16.18001,3.53003 16.18001,3.53003c0,0 -12.67,-2.32 -16.19,-3.37c-3.52,-1.05 -6.63,-1.91 -9.59,-0.75c-2.96,1.16 -6.15,2.86 -8.32,4.19c-2.17,1.33 -6.22,2.75 -8.7,5.13c-2.48,2.38 -5.85,4.79998 -7.53,4.59998c0,0 -1.47,1.58004 -1.41,4.35004c0.05,2.78 1.87,5.14 5.5,3.06c3.64,-2.09 6.07,-3.57002 13.92,-6.33002c7.85,-2.76 11.09,-5.46998 15.54,-4.91998c4.45,0.55 16.25,3.92999 16.25,3.92999c0,0 -7.24,-1.61004 -11.47,-2.73004c-4.23,-1.12 -5.97,-2.15998 -12.02,0.52002c-6.05,2.68 -10.97,5.27003 -13.75,6.59003c-2.78,1.33 -4.79999,2.49 -4.64999,5.06c0.14,2.57 2.71999,6.10001 11.39999,2.70001c0,0 0.82,-0.29004 0.7,-0.60004c-0.12,-0.31 -0.1,0.97 4.06,0.5c4.16,-0.47 7.31001,-0.35002 8.17001,-1.58002c0,0 0.11999,0.64005 1.84999,1.24005c1.73,0.6 7.99,1.97 9.92,2.12c1.93,0.15 3.42001,-0.15002 3.42001,-0.15002c0,0 -0.76001,1.02 0.34999,1.87c1.11,0.85 10.48001,2.74001 16.57001,6.14001c6.09,3.4 14.81999,8.21 16.54999,9.12c1.35,0.71 6.40001,2.28003 8.07001,2.84003c0.47,0.16 30.92,16.23999 30.92,16.23999c0,0 -19.12,-10.19999 -30.92,-16.23999c1.23,-2.05 5.32999,-9.33002 7.81999,-12.96002c2.96,-4.31 11.03001,-8.53998 11.03001,-8.53998c0,0 10.95,7.08996 16.92,8.20996c5.97,1.12 17.75,2.41003 17.75,2.41003c0,0 -1.11,9.65997 -1.19,16.83997l1.53999,-16.81l16.11,-2.33002l18.12,-2.29999c0,0 4.08,-0.55999 10.75,-0.92999c6.67,-0.37 17.33002,-0.71002 17.33002,-0.71002l33.88998,-3.73999c0,0 -1.53998,-49.10998 -3.72998,-74.09998c-2.2,-25 -11.58002,-66.53 -11.58002,-66.53l-0.76999,-1l-1.54001,-17.70001c0,0 6.67,10.19999 9.66,14.20999c2.99,4.01 11.47,12.11001 18.17,11.23001c6.7,-0.88 9.82999,-1.65999 14.54999,-1.32999c4.72,0.33 11.64001,-0.77 17.79001,-6.53c6.15,-5.76 12.34999,-15.32003 19.48999,-22.84003c7.14,-7.52 11.31,-13.48999 12.19,-20.01999c0.88,-6.53 2.19998,-22.45001 2.19998,-22.45001c0,0 5.16001,7.69 3.82001,25.94c-0.06,0.87 -0.44,3.46002 -0.44,3.46002l-1.19998,2.17999l-2.42001,3.85999l-3.76999,6.16c0,0 -1.79001,3.06002 -4.07001,7.02002c-2.09,3.63 -5.96999,9.82998 -9.89999,17.53998c-1.74,3.43 -3.93002,6.63 -6.61002,9.38c-3.12,3.21 -6.36999,5.29001 -15.29999,7.20001c-12.76,2.74 -19.01999,4.05998 -29.39999,-1.99002c-10.38,-6.05 -17.06999,-12.33 -20.03999,-16.53c-2.97,-4.2 -3.32001,-5.41998 -3.32001,-5.41998" fill="none" stroke="rgb(0, 0, 0)" stroke-width="1" stroke-linejoin="round" stroke-dasharray="0 0" stroke-opacity="1"></path><circle r="0.5" transform="matrix(0.9962728067310497,-0.08625830144534763,0.08625830144534763,0.9962728067310497,95.00075,296.78003)" fill="rgb(0, 0, 0)"></circle><circle r="0.5" transform="matrix(-0.2757730335284332,-0.9612227806177533,0.9612227806177533,-0.2757730335284332,234.43073,58.79995999999992)" fill="rgb(0, 0, 0)"></circle></g></g></g></g></g></g><g transform="matrix(1,0,0,1,227.32070000000002,127.23689999999999)"><g id="457510492" opacity="1" style="mix-blend-mode:normal"><g><g><g style="mix-blend-mode:NORMAL"><g><path id="457510492_stroke_path" d="M0,297.09998c0.16,0.08 1.39998,1.41001 1.72998,1.20001c0.33,-0.21 1.28003,0.54004 3.09003,1.29004c1.81,0.75 7.32999,2.93996 8.76999,3.39996c1.44,0.46 0.54001,-0.37 0.54001,-0.37c0,0 2.42997,1.58 3.12997,0.75c0.7,-0.83 -1.84997,-2.64999 -2.21997,-2.73999c-0.37,-0.09 -0.86002,0.90997 -0.86002,0.90997c0,0 0.4,-1.04 1,-1.19c0,0 -1.56001,-2.07999 -3.76001,-3.67999c-2.2,-1.6 -6.17999,-4.41998 -6.17999,-4.41998c0,0 -1.29999,-2.00998 -3.10999,-2.66998c0,0 0.59998,-0.17001 1.09998,-2.01001c0,0 16,0.76 28.63,2.44c12.63,1.68 31.18002,1.35001 54.46002,0.57001l23.28,-0.77002c0,0 0.69998,-2.35002 4.16998,-5.65002c2.22,-2.12 4.08,-1.84996 5.13,-2.89996c2.74,-2.74 1.80001,-4.05999 2.51001,-5.10999c0.64,-0.93 1.59999,-3.07001 2.42999,-3.89001c4.94,-4.93 4.25999,-7.72003 13.48999,-18.66003c3.33,-3.94 9.17001,-8.63998 13.54001,-9.66998c4.1,-5.16 8.44001,-11.33999 11.32001,-17.04999c9.22,-18.25 22.06998,-45.46001 25.19998,-56.07001c3.13,-10.62 17.78998,-58.55999 22.72998,-68.67999c4.94,-10.12 9.28004,-21.90002 7.85004,-30.30002c-1.43,-8.41 -3.4,-16.47999 -15.81,-14.70999c-12.41,1.77 -31.29001,20.78999 -38.98001,33.17999c-7.69,12.39 -27.01001,32.52002 -27.01001,32.52002c0,0 -19.1,34.72997 -25.25,48.65997c-6.15,13.94 -20.19998,36.72003 -20.19998,36.72003c0,0 -16.25,3.75998 -31.84,4.41998c-15.59,0.66 -35.57001,4.87 -35.57001,4.87c0,0 17.43,-3.17998 23.5,-3.97998c0,0 3.50999,-23.29 5.04999,-36.06c5.22,-43.13 24.66,-92.96002 24.66,-92.96002c0,0 25.69,20.23002 41.44,19.96002c-18.99,53.19 -40.73001,104.84998 -40.73001,104.84998c0,0 37.22001,-92.62998 40.73001,-104.84998c-10.71,0.17 -23.45001,-8.04001 -23.45001,-8.04001l29.60001,-15.62c0.4,-4.65 -18.2,-38.43 -20.56,-44.41c-6.4,16.15 -17.14999,31.63998 -17.14999,31.63998c6.22,-13.48 18.98999,-23.13 17.17999,-43.03c-0.88,-9.67 -3.42999,-16.23999 -3.42999,-16.23999c0,0 0.88,1.46 4.09,1.38c3.21,-0.08 5.23001,-1.32 6.10001,-4.94c0.87,-3.62 1.16998,-5.19 1.16998,-5.19c0,0 0.14003,1.92 23.28003,7.31c23.14,5.39 31.53997,8.71001 41.90997,15.01001c10.38,6.3 26.1,18.49998 32.44,33.00998" fill="none" stroke="rgb(0, 0, 0)" stroke-width="1" stroke-linejoin="round" stroke-dasharray="0 0" stroke-opacity="1"></path><circle r="0.5" transform="matrix(-0.8944271909999515,-0.44721359549988676,0.44721359549988676,-0.8944271909999515,0,297.09998)" fill="rgb(0, 0, 0)"></circle><circle r="0.5" transform="matrix(0.4003881090328738,0.9163456564774449,-0.9163456564774449,0.4003881090328738,209.13997,55.32999000000006)" fill="rgb(0, 0, 0)"></circle></g></g></g></g></g></g></g></g></g></g><g transform="matrix(1,0,0,1,328.39829999999995,0)"><g id="457510493" opacity="1" style="mix-blend-mode:normal"><g><g><g transform="matrix(1,0,0,1,0,434.36340000000007)"><g id="457510494" opacity="1" style="mix-blend-mode:normal"><g><g><g style="mix-blend-mode:NORMAL"><g><path id="457510494_stroke_path" d="M61.89244,25.56546c0,0 -1.40002,2.36001 -3.33002,6.51001c-1.94,4.15 -5.19,5.22998 -5.19,5.22998c0,0 -0.32998,2.70001 -0.94998,6.51001c-0.62,3.81 -2.64001,5.60004 -2.64001,5.60004c0,0 -0.45,6.35 -1.81,11.94c-1.36,5.6 -4.23998,9.86999 -9.50998,9.86999c-5.27,0 -3.87001,-6.71999 -3.54001,-11.23999c0.33,-4.52 0.66,-12.19 0.66,-12.19c-4.51,-0.23 -7.32001,-3.47003 -7.32001,-3.47003c1.12,-2.03 0.51999,-2.92999 0.51999,-2.92999c0.68,2.47 -0.63998,2.84003 -0.63998,2.84003c0,0 -3.48002,-1.62005 -3.36002,-2.36005c0.12,-0.74 2.84002,-0.70996 3.05002,-0.70996c0,0 4.07999,-1.18005 8.73999,-1.05005c0,0 -0.69001,4.85006 -0.92001,7.06006c0,0 0.77003,-7.52005 1.81003,-10.74005c1.04,-3.22 0.20999,-5.22998 0.32999,-6.09998c0.12,-0.87 2.47001,-5.01998 5.54001,-8.66998c3.07,-3.65 4.95999,-6.97003 4.95999,-6.97003c0,0 -1.68999,-1.84 -2.01999,0.87c-0.33,2.71 -2.49,5.41999 -3.5,6.92999c-1.01,1.51 -4.71,5.72003 -5.19,7.84003c-0.48,2.12 -0.09002,4.29997 -0.33002,6.02997c-0.24,1.73 -0.85999,3.55005 -0.85999,3.55005c0,0 -5.17002,0.23996 -8.58002,1.07996c0,0 -2.78999,-0.36995 -3.17999,0.80005c0,0 0.56,-2.92002 1.41,-5.65002c0.85,-2.73 0.66001,-3.95002 1.67001,-7.33002c1.02,-3.37 3.15999,-8.63 2.54999,-9.12c-0.61,-0.49 -0.82999,1.55999 -0.98999,3.23999c-0.16,1.67 -1.25001,5.28005 -1.48001,6.11005c-0.23,0.83 -1.02,5.31997 -1.62,7.21997c-0.6,1.9 -1.63002,4.98998 -1.61002,5.91998c0.03,0.93 0.15001,5.42001 0.67001,10.01001c0.52,4.59 1.33999,7.35002 1.14999,9.71002c-0.19,2.35 0.32999,8.48997 1.64999,11.96997c1.32,3.48 2.33002,7.52 2.77002,10.37c0.44,2.85 3.86998,9.59005 8.75998,7.49005c4.89,-2.1 5.93001,-4.04003 4.01001,-11.78003c-1.92,-7.74 -1.42999,-9.01001 -1.42999,-9.01001c0,0 2.35998,-2.36001 4.19998,-5.07001c1.84,-2.71 2.52002,-9.10998 2.52002,-9.10998c0,0 4.46998,-6.23001 10.28998,-3.64001c5.82,2.58 2.96002,10.52002 2.96002,10.52002c0,0 0.78,1.32998 0.31,3.35998c-0.47,2.03 -1.75999,4.19004 -5.95999,5.10004c-4.2,0.91 -5.81003,-0.93005 -7.34003,-4.61005c-1.53,-3.68 -1.12,-3.73999 -1.12,-3.73999c0,0 1.65001,10.29003 8.45001,8.35003c6.8,-1.94 5.81998,-5.25003 6.19998,-7.41003c0.38,-2.16 4.78002,-3.21001 7.30002,-5.70001c2.52,-2.49 2.73999,-3.47998 2.73999,-3.47998l-23.03,-5.21002l0.07001,-0.87994c0,0 1.17001,-1.09004 2.01001,-3.23004c0.83,-2.14 0.68997,-2.75 0.68997,-2.75c0,0 14.94002,2.28 19.99002,3.19c5.05,0.91 3.84,0.66003 3.84,0.66003c0,0 0.64999,-2.81002 -0.51001,-6.46002c-1.15,-3.65 -1.18998,-4.69 -1.97998,-10c-0.79,-5.31 -2.51001,-13.84999 -6.92001,-19.23999c-4.41,-5.39 -7.48999,-6.88001 -11.35999,-6.26001c-3.87,0.62 -5.64002,-0.28999 -8.77002,-2.48999c-3.13,-2.2 -5.80999,-3.64999 -8.92999,-2.35999c-3.13,1.29 -4.41001,4.64995 -5.60001,6.13995c-1.19,1.49 -1.88998,-0.28997 -5.47998,0.91003c-3.59,1.2 -4.45003,1.78001 -7.53003,5.89002c-3.09,4.11 -3.66,5.22999 -6.09,6.17999c-2.43,0.95 -9.56997,10.62999 -10.87997,14.60999c-1.31,3.98 -3.51002,4.08998 -1.21002,12.60999c2.3,8.52 5.49001,16.15003 10.98001,19.91003c5.49,3.76 5.10999,3.42999 5.10999,3.42999c0,0 -5.87,-22.61999 -6.09,-27.42999c-0.22,-4.81 1.86999,-7.91001 3.67999,-14.38001c1.81,-6.47 2.03002,-3.43 0.77002,0c0,0 -4.88,8.80999 -4.09,14.98999c0.79,6.17 5.97998,27.27996 5.97998,27.27996c0,0 5.02001,6.43002 7.20001,9.71002c2.18,3.28 3.47,3.96997 6.25,3.90997" fill="none" stroke="rgb(0, 0, 0)" stroke-width="1" stroke-linejoin="round" stroke-dasharray="0 0" stroke-opacity="1"></path><circle r="0.5" transform="matrix(0.5102057054926433,-0.8600524042654344,0.8600524042654344,0.5102057054926433,61.89244,25.56546)" fill="rgb(0, 0, 0)"></circle><circle r="0.5" transform="matrix(0.9997671741376523,-0.021577708794338627,0.021577708794338627,0.9997671741376523,30.792400000000033,84.24545)" fill="rgb(0, 0, 0)"></circle></g></g></g></g></g></g><g transform="matrix(1,0,0,1,25.354900000000043,412.55420000000004)"><g id="457510495" opacity="1" style="mix-blend-mode:normal"><g><g><g style="mix-blend-mode:NORMAL"><g><path id="457510495_stroke_path" d="M59.50757,20.37469c-2.39,0.12 -11.20002,-6.55 -14.99002,-7.88c-3.79,-1.33 -8.81,-4.59998 -10.87,-5.22998c-2.06,-0.63 -4.15998,1.07997 -6.41998,2.40997c-2.26,1.33 -7.45,2.70003 -13.34,5.47003c-5.89,2.77 -7.74002,5.34998 -8.36002,8.41998c-0.62,3.07 -1.51999,5.32001 -1.51999,5.32001l1.28,0.13c1.28,0.13 1.60001,-0.59998 1.60001,-0.59998c0,0 2.34998,-4.20005 5.00998,-5.86005c2.66,-1.66 5.24001,-0.89 8.29001,1.25c3.05,2.14 4.81999,2.95005 7.26999,3.49005c2.45,0.54 3.29,-1.21006 6.91,0.12994c3.62,1.34 6.59,4.69006 9.16,8.87006c2.56,4.18 4.20001,12.09998 4.20001,12.09998c0,0 1.14,0.81 5.53,6.62c4.39,5.81 8.9,10.43999 12.75,12.92999c3.85,2.49 4.34,5.02002 4.34,5.02002l14.83997,2.40997l-34.23996,-6.27997c0,0 -0.82001,4.72996 -3.57001,8.20996c0,0 21.13999,4.12001 28.82999,5.82001c7.7,1.7 10.54004,2.70001 10.54004,2.70001c0,0 15.24995,5.47002 21.06995,3.21002c5.82,-2.27 6.53005,-6.47001 -2.19995,-9.01001c-8.73,-2.54 -19.65002,-5.09003 -19.65002,-5.09003l20.26001,5.09003c0,0 7.18997,0.83 6.08997,5.75c-1.1,4.92 -7.02997,4.12 -7.02997,4.12c0,0 10.31996,1.33 15.64996,2.13c5.32,0.8 11.20001,2.34998 11.20001,2.34998c0,0 -0.00997,-4.31 -0.58997,-5.81c-0.58,-1.49 0.24996,-4.94 1.51996,-9.5c1.28,-4.56 4.94001,-8.95997 7.45001,-10.90997c2.51,-1.95 7.91003,-5.56 7.91003,-5.56c0,0 -14.62005,-1.78002 -21.99005,-4.15002c-7.37,-2.36 -11.64995,-2.94 -19.63995,-13.31c-7.99,-10.37 -14.78002,-17.30997 -18.65002,-23.33997c-3.87,-6.03 -7.73999,-6.28 -12.92999,-8.19c-5.19,-1.91 -8.29999,-4.05001 -13.67999,-7.26001c-5.38,-3.21 -10.65002,-5.47001 -12.24002,-6.14001c-1.59,-0.67 -4.78,0.44 -6.31,1.38c-1.53,0.94 -2.84998,1.54999 -2.84998,1.54999c0,0 1.86998,-0.55 3.78998,0.44c1.92,1 9.11001,3.15001 15.76001,6.64001c6.65,3.49 7.84999,3.59001 12.01999,4.26001c4.17,0.67 7.47003,2.70996 7.47003,2.70996c0,0 -2.45003,-1.93996 -7.47003,-2.58996c-5.02,-0.65 -5.93998,-1.06002 -12.19998,-4.21002c-6.26,-3.15 -13.24,-5.74001 -15.69,-6.57001c-2.45,-0.83 -5.74001,-2.80001 -9.04001,-2.45001c-3.3,0.35 -5.78001,3.46002 -8.48001,4.21002c-2.7,0.75 -7.30997,2.99002 -9.62997,4.65002c-2.32,1.66 -3.44001,1.42997 -4.57001,2.52997c-1.13,1.1 -5.13001,6.14003 -6.01001,6.78003c-0.88,0.64 -2.13999,2.22001 -3.51999,2.76001c-1.38,0.54 -3.23002,1.05999 -2.33002,3.85999c0.9,2.8 1.57001,3.04999 1.57001,3.04999l2.09,-0.26001c0,0 0.97999,-0.10002 1.42999,-0.02002c0.45,0.08 1.30001,-0.04998 1.64001,-0.47998c0.34,-0.43 1.04999,-1.93997 2.60999,-3.71997c1.56,-1.78 2.98002,-3.07002 5.08002,-3.02002c2.1,0.05 5.26999,1.84003 5.26999,1.84003c0,0 1.41,-0.2 5.47,-0.5c4.06,-0.3 7.58,-1.38005 9.25,-0.80005c1.67,0.58 8.40001,3.98004 10.70001,5.17004c2.31,1.19 4.85999,2.59998 9.32999,5.41998" fill="none" stroke="rgb(0, 0, 0)" stroke-width="1" stroke-linejoin="round" stroke-dasharray="0 0" stroke-opacity="1"></path><circle r="0.5" transform="matrix(0.9987418960927363,-0.05014603662390263,0.05014603662390263,0.9987418960927363,59.50757,20.37469)" fill="rgb(0, 0, 0)"></circle><circle r="0.5" transform="matrix(0.8457585566617171,0.5335658008469893,-0.5335658008469893,0.8457585566617171,54.67757,32.834700000000005)" fill="rgb(0, 0, 0)"></circle></g></g></g></g></g></g><g transform="matrix(1,0,0,1,0.04240000000004329,228.49930000000003)"><g id="457510496" opacity="1" style="mix-blend-mode:normal"><g><g><g style="mix-blend-mode:NORMAL"><g><path id="457510496_stroke_path" d="M174.56003,246.10957c0,0 0.55995,-0.28997 4.75995,-2.27997c4.2,-1.99 5.48004,-1.87 5.48004,-1.87c0,0 0.57996,-0.12003 6.95996,0.65997c6.38,0.78 22.01001,3.92999 22.01001,3.92999c-10.81,-1.78 -18.52997,-3.60999 -18.52997,-3.60999c0,0 -3.18004,-8.62996 -5.60004,-16.14996c-2.42,-7.52 -13.39,-44.46004 -15.88,-56.29004c-2.48,-11.83 -6.74001,-46.55999 -7.51001,-57.61999c-0.77,-11.06 -1.31997,-22.89 -2.52997,-31.41c-1.21,-8.52 1.75997,-15.47998 4.27997,-23.22998c2.53,-7.74 8.01,-22.23 13.5,-36.94c5.49,-14.71 10.98004,-18.97 10.98004,-18.97l11.90997,-2.31c0,0 0.97004,2.01001 1.54004,4.13c0.91,3.37 4.05997,7.97 9.02997,11.81c3.39,3.3 5.66002,7.44998 7.33002,11.85998c2.23,4.4 4.48999,8.32001 4.48999,8.32001c0,0 -9.45999,8.43 -13.23999,11.59c-3.79,3.15 -3.35,4.58999 -0.25,8.73999c3.1,4.15 7.19,15.82001 7.19,15.82001c0,0 3.52,-3.83999 9.19,-12.98999c5.67,-9.15 12.07996,-11.63 12.07996,-11.63c-5.76,1.91 -12.03998,11.34001 -15.16998,16.32001c-3.13,4.98 -6.08997,8.28998 -6.08997,8.28998l-25.53003,11.28c0,0 -2.64,50.10001 4.94,85.77001c7.58,35.67 15.47998,77.14001 15.47998,77.14001c0,0 -3.61995,0.17 5.43005,0c9.06,-0.17 17.12994,-7.08002 17.12994,-7.08002c0,0 -1.76,-9.94998 0,-23.22998c1.76,-13.27 4.83002,-44.02003 5.27002,-65.03003c0.44,-21.01 7.33002,-104.32 7.33002,-104.32c0,0 -2.05999,0.50001 -7.98999,0.17001c-5.93,-0.33 -9.96,-3.4 -11.94,-5.31c-1.98,-1.91 -7.33001,-11.36001 -8.32001,-13.85001c-0.99,-2.49 -4.36002,-9.61998 -7.33002,-11.85998c-2.96,-2.24 -7.45997,-6.65 -9.02997,-11.81c-1.07,-3.52 -1.46004,-4.29 -1.54004,-4.13c-0.09,0.18 -12.34998,0.47999 -16.84998,4.79999c-4.5,4.31 -12.95998,19.01999 -18.22998,32.51999c-5.27,13.49 -7.58004,25.44002 -14.60004,35.83002c-7.03,10.4 -23.05998,24.99998 -38.09998,37.81998c-15.04,12.83 -30.41001,25.21999 -40.17001,34.05999c-9.76,8.84 -19.89001,22.01005 -28.23001,25.11005c-8.34,3.1 -16.57998,14.15996 -19.75998,19.57996c-3.18,5.42 -8.23,10.51 -8.78,13.94c-0.55,3.43 -2.53002,3.43 -5.93002,5.31c-3.4,1.88 -8.22999,10.61999 -9.76999,15.92999c-1.54,5.31 -3.95,15.59004 -3.97,16.04004c0,0 1.45999,-0.28999 2.54999,-1.73999c1.08,-1.44 0.61002,-1.91 3.08002,-5.31c2.46,-3.4 4.81998,-6.54001 6.41998,-7.76001c1.6,-1.22 2.05001,-0.67003 4.01001,-2.78003c1.96,-2.11 2.39001,-3.35998 4.45001,-5.78998c2.06,-2.43 3.01,-3.36 6.22,-4.19c0,0 -0.99001,-2.10002 -1.26001,-3.46002c-0.27,-1.36 -0.18999,-2.09001 0.70001,-2.76001c0.89,-0.67 1.91998,-0.56 3.41998,-1.94c1.5,-1.38 2.77002,-2.33996 4.61002,-4.70996c1.84,-2.37 2.73,-3.18001 3.22,-3.70001c0.49,-0.52 1.03999,-0.87999 2.42999,-1.29999c1.39,-0.42 1.65,-0.96 3.41,-2.06c1.76,-1.1 4.48998,-2.45003 7.09998,-3.41003c2.61,-0.96 1.07002,-0.14996 3.27002,-1.32996c2.2,-1.18 2.97001,-2.29003 5.07001,-2.97003c2.1,-0.68 3.43999,-0.42997 4.85999,0.03003c1.42,0.46 2.72,0.95996 2.72,0.95996c0,0 2.57,-1.70996 5,-2.32996c2.43,-0.62 2.68,-0.48005 4.87,0.50995c2.19,0.99 5.68001,2.64003 11.64001,6.03003c5.96,3.39 7.40001,4.81002 11.76001,6.33002c4.35,1.51 8.12,3.01001 8.12,3.01001c0,0 0.51,-1.48003 -2.12,-8.72003c-2.64,-7.24 -2.96003,-12.28003 -7.91003,-17.09003c-4.94,-4.81 -9.82998,-9.61994 -14.59998,-13.43994c-4.77,-3.82 -5.49002,-7.52 -0.77002,-5.75c4.72,1.77 18.99002,11.33996 24.21002,15.70996c5.22,4.37 15.92,14.71003 24.37,9.84003c8.45,-4.87 27.60997,-10.12004 34.96997,-26.60004l3.76001,-9.70996c0,0 2.85003,20.62999 4.03003,26.23999c0,0 -5.43001,5.34001 -9.20001,8.32001c-3.76,2.99 -43.94,35.83997 -43.94,35.83997" fill="none" stroke="rgb(0, 0, 0)" stroke-width="1" stroke-linejoin="round" stroke-dasharray="0 0" stroke-opacity="1"></path><circle r="0.5" transform="matrix(-0.8879970689616453,0.4598491116828725,-0.4598491116828725,-0.8879970689616453,174.56003,246.10957)" fill="rgb(0, 0, 0)"></circle><circle r="0.5" transform="matrix(-0.7741893191649826,0.632954104253113,-0.632954104253113,-0.7741893191649826,120.46998999999994,214.92958999999996)" fill="rgb(0, 0, 0)"></circle></g></g></g></g></g></g><g transform="matrix(1,0,0,1,190.26760000000002,0)"><g id="457510497" opacity="1" style="mix-blend-mode:normal"><g><g><g style="mix-blend-mode:NORMAL"><g><path id="457510497_stroke_path" d="M144.88481,73.72895c0,0 1.64998,-0.77 2.41998,-16.7c0.77,-15.93 -15.25999,-55.63001 -51.48999,-56.96001c-36.23,-1.33 -51.81998,16.92 -57.41998,25.55c-5.6,8.63 -5.67004,34.96001 -5.67004,34.96001c0,0 -3.92995,1.75998 -12.07995,12.97998c-10.77,14.84 -13.11005,30.14001 -13.11005,30.14001c6.09,-29.36 24.87002,-44.46001 36.40002,-50.93001c11.53,-6.47 29.15,-10.11999 52.37,-7.79999c23.22,2.32 33.93002,14.93 42.33002,22.73c8.4,7.8 14,22.55998 17.13,35.66998c3.13,13.11 -3.33002,32.76001 -3.33002,39.77001c0,7.01 -1.10999,11.40999 -2.42999,9.07999c-1.32,-2.32 -5.55999,-4.11 -8.10999,-3.69c-2.55,0.42 -6.33002,1.84 -6.33002,1.84c-0.11,12.61 -3.72002,19.23001 -3.27002,23.29001c0.45,4.06 1.43999,4.02002 1.23999,5.52002c-0.21,1.49 -2.69995,4.54997 -3.94995,6.90997c-2.64,5 -3.73004,11.72 -3.73004,11.72c0,0 1.15004,-6.69 3.73004,-11.72c2.58,-5.03 5.97996,-6.68997 9.76996,-6.68997c3.79,0 2.64002,3.97999 3.40002,3.70999c0.76,-0.27 4.34,-6.8 5.87,-10.62c1.54,-3.82 0.54997,-6.08002 0.15997,-7.52002c-0.38,-1.44 -4.00997,-7.19 -5.21997,-7.19c-1.21,0 -3.73002,-0.5 -3.40002,-5.81c0.33,-5.31 5.98004,-2.42999 5.98004,-2.42999l2.08997,1.04999c2.09,1.05 4.38999,8.18002 3.67999,14.71002c-0.71,6.53 -2.13999,10.99999 -5.92999,18.29999c-3.79,7.3 -2.95998,4.04001 -6.91998,8.85001c-3.96,4.81 -5.54002,6.3 -7.96002,7.91c-2.42,1.61 -5.40997,-1.27002 -5.40997,-1.27002c0,0 0.00001,0.66001 -0.73999,5.23001c-0.74,4.57 -0.91001,14.85 -6.26001,23.97c-5.35,9.12 -23.72,24.8 -36.31,35.09c-12.6,10.29 -22.07001,11.94 -22.07001,11.94c0,0 -7.33001,1.82 -14.45001,-1.41c-7.12,-3.24 -9.31,-9.25998 -9.31,-9.25998c0,0 -5.46,-9.91 -7,-13.47c-1.53,-3.56 -3.57002,-5.66001 -6.27002,-7.89001c-3.43,-3.3 -6.81996,-7.41 -7.57996,-10.63c-0.75,-3.22 -2.17004,-5.35999 -2.17004,-5.35999c-3.62,-2.57 -6.66999,-4.65001 -9.54999,-9.95001c-2.88,-5.31 -2.06002,-16.08999 -1.52002,-21.64999c0.54,-5.56 1.07001,-10.78 1.07001,-10.78c0.62,-1.7 4.16003,-2.64999 4.16003,-2.64999l1.51996,1.78c2.84,2.57 7.82,2.60998 10.5,2.31998c2.68,-0.29 3.91,-1.15999 7,-1.23999c3.09,-0.08 7.58002,3.86002 7.58002,3.86002c-6.09,-9.21 -20.79002,-9.12 -24.58002,-7.84c-3.79,1.28 -6.04999,3.28 -6.04999,3.28c0.49,-3.82 -1.23997,-7.22003 -2.46997,-10.37003c-1.24,-3.15 -1.19,-7.29999 -1.19,-7.29999v2.73999c0,0 1.84998,-0.99999 4.97998,-1.57999c3.13,-0.58 13.33999,5.81 19.67999,7.22c6.34,1.41 9.63,7.54999 9.63,7.54999c0,0 -4.86,-8.28998 -9.06,-9.78998c-4.2,-1.49 -11.78002,-6.14001 -17.21002,-8.54001c-5.43,-2.41 -7.40998,0.66 -7.84998,0.97c-0.44,0.31 0.00002,-0.00001 0.77002,-3.54001c0.77,-3.54 0.87997,-9.73 0.65997,-13.94c0,0 -0.22002,-15.58999 2.41998,-24.43999c2.64,-8.85 3.95004,-18.91001 10.54004,-20.35001c6.59,-1.44 5.05,10.18001 23.5,8.07001c18.45,-2.1 41.49998,-8.52 58.84998,-5.97c17.35,2.55 17.90001,16.92001 16.14001,23.89001c-1.76,6.97 -1.98001,17.02999 7.35999,14.26999c9.33,-2.76 14.85999,0.35001 14.92999,5.64001" fill="none" stroke="rgb(0, 0, 0)" stroke-width="1" stroke-linejoin="round" stroke-dasharray="0 0" stroke-opacity="1"></path><circle r="0.5" transform="matrix(-0.9061811756671609,0.4228896745801225,-0.4228896745801225,-0.9061811756671609,144.88481,73.72895)" fill="rgb(0, 0, 0)"></circle><circle r="0.5" transform="matrix(0.013231355826955631,0.9999124617800202,-0.9999124617800202,0.013231355826955631,135.34475999999998,148.95896)" fill="rgb(0, 0, 0)"></circle></g></g></g></g></g></g><g transform="matrix(1,0,0,1,215.3188,165.9695)"><g id="457510498" opacity="1" style="mix-blend-mode:normal"><g><g><g style="mix-blend-mode:NORMAL"><g><path id="457510498_stroke_path" d="M28.34368,12.71935c0,0 2.30999,-2.57 12.67999,-4.56c10.37,-1.99 29.39997,-3.48 35.15997,-0.5c0,0 -8.49,-8.21 -22.94,-7.63c-14.45,0.58 -24.58,7.47002 -25.81,13.11002c0,0 -0.44,8.48999 0.88,12.79999c0,0 1.76,-1.84999 5.63,-6.57999c3.87,-4.73 8.56,-4.64999 16.06,-4.64999c7.5,0 16.91998,0.62 16.91998,0.62c0,0 -5.84997,8.70998 -18.27997,8.53998c-12.43,-0.17 -13.96002,-2.93997 -13.96002,-2.93997l-6.37,5c0,0 -0.49003,-0.18001 0.65997,6.57999c1.15,6.76 2.17004,12.35001 2.17004,12.35001c0,0 7.21998,-1.47001 8.22998,4.01999c1.32,7.13 -3.57999,7.84 -6.29999,7.88c-2.72,0.04 -4.12002,-1.20001 -8.65002,0.32999c-4.53,1.53 -5.92996,3.57 -9.01996,3.53c-3.09,-0.04 -5.15005,-1.44999 -8.61005,-3.85999c-3.86,0 -6.01996,-2.17 -6.45996,-4.78c-0.72,-4.27 -0.83002,-8.28 5.59998,-9.69c0,0 8.15,-9.57999 3.87,-24.42999" fill="none" stroke="rgb(0, 0, 0)" stroke-width="1" stroke-linejoin="round" stroke-dasharray="0 0" stroke-opacity="1"></path><circle r="0.5" transform="matrix(-0.6684833439921385,0.743727113130272,-0.743727113130272,-0.6684833439921385,28.34368,12.71935)" fill="rgb(0, 0, 0)"></circle><circle r="0.5" transform="matrix(-0.2769423795913943,-0.9608865273206072,0.9608865273206072,-0.2769423795913943,9.803620000000006,17.85939000000001)" fill="rgb(0, 0, 0)"></circle></g></g></g></g></g></g><g transform="matrix(1,0,0,1,157.81500000000005,195.4489)"><g id="457510499" opacity="1" style="mix-blend-mode:normal"><g><g><g style="mix-blend-mode:NORMAL"><g><path id="457510499_stroke_path" d="M0.0174,312.59998c0,0 -1.36999,6.75005 20.20001,8.74005c21.57,1.99 45.94997,4.64995 70.15997,6.63995c24.21,1.99 62.25002,10.95 89.26002,17.25c27.01,6.3 32.94,4.31004 37.88,-3.64996c4.94,-7.96 32.60998,-56.74 38.86998,-72c6.26,-15.26 15.15002,-58.06001 17.46002,-77.64001c2.31,-19.58 7.91,-37.49002 15.81,-54.08002c7.9,-16.59 8.99999,-41.36 1.42999,-49.22c-7.58,-7.85 -23.28002,-22.22998 -38.10002,-27.97998c-14.82,-5.75 -55.01001,-19.91 -55.01001,-19.91c0,0 0.88,3.10001 -1.87,-6.29999c-2.74,-9.4 -15.53997,-21.29003 -18.71997,-27.87003c-3.18,-6.58 -7.58002,-6.57999 -7.58002,-6.57999c0,0 2.25002,1.33 3.46002,1.38c1.21,0.05 0.88,7.51999 0,15.70999c-0.88,8.18 -3.72998,14.60001 -3.72998,14.60001c0,0 -4.13001,-6.46 -5.82001,-13.94c-0.85,-3.79 -0.77002,-11.61002 -0.77002,-11.61002c0,0 -0.54998,4.87002 0.77002,11.61002c1.32,6.74 5.82001,13.94 5.82001,13.94c-0.33,1.55 -13.18005,43.47 -13.18005,43.47l-11.41998,37.94c0,0 -6.25999,7.74 -27.66999,5.97c-21.41,-1.77 -25.88,-22.25 -25.88,-22.25l-1.46002,18.76999c0,0 10.49,10.56002 21.25,13.49002c10.76,2.93 29.42005,-2.76001 29.42005,-2.76001l2.26996,-6.75l1.95001,-5.80002l4.13,-13.00998l19.02002,34.01001c0,0 21.82,-5.02001 24.13,-5.39001c2.31,-0.37 3.57998,-0.07999 3.41998,-6.67999c-0.16,-6.6 2.43996,-48.08003 3.20996,-57.59003c0.77,-9.51 0.77002,-14.37998 0.33002,-17.69998c-0.44,-3.32 -0.88,-5.25 -0.88,-5.25c0,0 1.02003,4.83999 1.34003,10.14999l17.53998,4.62c0,0 28.85,5.13999 54.7,25.95999c0,0 6.51003,-2.27998 14.53003,2.24002c0,0 -7.99001,-4.89001 -14.95001,-1.82001c-6.96,3.07 -20.59001,12.94 -32.28001,36.5c-11.69,23.56 -22.89001,59.89001 -22.89001,59.89001c0,0 -5.75997,15.59 -6.58997,17.25c-0.82,1.66 -6.51,10.95001 -7.25,15.76001c-0.74,4.81 -0.91003,16.33997 -0.91003,16.33997c0,0 0.33005,-3.07001 -0.81995,-3.07001c-1.15,0 -3.79005,-0.57997 -5.43005,5.97003c-1.65,6.55 -1.97995,11.44998 -7.81995,17.41998c-5.85,5.97 -10.87,11.86001 -14.25,15.51001c-3.38,3.65 -3.87002,5.47 -3.71002,7.63c0,0 4.40997,-0.95004 5.71997,-0.54004c1.31,0.41 3.71005,3.53004 5.93005,4.23004c2.22,0.71 9.05999,3.39996 9.42999,0.70996c0.37,-2.69 -5.15003,-3.27999 -7.41003,-2.60999c-2.26,0.67 -4.40997,0.87 -4.40997,0.87c0,0 -1.15003,-2.17999 -3.66003,-2.98999c-2.51,-0.81 -6.08996,0.41001 -7.01996,0.89001c-0.93,0.48 -1.44002,0.57997 -1.83002,3.83997c-0.39,3.26 -0.56,4.11005 -0.56,4.11005c0,0 -3.14999,1.86996 -5.98999,1.07996c-2.84,-0.79 -3.71001,-2.35997 -9.51001,-2.02997c-5.81,0.33 -12.18999,-0.5 -19.67999,0.87c-7.49,1.37 -8.77003,2.33997 -11.02003,2.33997c-2.25,0 -7.46997,0.5 -7.46997,0.5l-1.59003,-1.93994c0,0 17.84,-29.97 21.74,-36.5c3.9,-6.53 12.79,-21.12003 20.81,-31.41003c8.01,-10.29 30.19,-43.52002 30.19,-43.52002c0,0 3.13,-4.64997 4.12,-5.96997c0.99,-1.32 1.59002,-1.94 -1.03998,-5.31c-2.64,-3.37 -17.72998,-23.60999 -17.72998,-23.60999l-19.74005,-35.20001c0,0 -6.47995,21.15001 -8.31995,27.57001c-1.84,6.41 -16.63001,57.56999 -21.57001,74.48999c-4.94,16.92 -11.53005,39.79999 -14.05005,48.92999c-2.53,9.13 -3.60998,16.76002 -4.34998,20.65002c-3.21,-0.43 -3.46,-0.64002 -6.12,-1.40002c-3.67,-1.05 -7.68,-2.02997 -13.19,1.53003c0,0 5.98999,-3.69 10.42999,-2.38c4.44,1.31 6.6,2.28 8.88,2.25c2.28,-0.03 6.93001,3.68999 9.57001,9.29999" fill="none" stroke="rgb(0, 0, 0)" stroke-width="1" stroke-linejoin="round" stroke-dasharray="0 0" stroke-opacity="1"></path><circle r="0.5" transform="matrix(0.19890460550471226,-0.9800188558946276,0.9800188558946276,0.19890460550471226,0.0174,312.59998)" fill="rgb(0, 0, 0)"></circle><circle r="0.5" transform="matrix(0.4257970363298825,0.9048187022009927,-0.9048187022009927,0.4257970363298825,109.94738999999991,281.26001000000014)" fill="rgb(0, 0, 0)"></circle></g></g></g></g></g></g></g></g></g></g></g></g></g></g><g transform="matrix(1,0,0,1,0,0)"><g id="457510500" opacity="1" style="mix-blend-mode:normal"><g><g><g style="mix-blend-mode:NORMAL"><g><path id="457510500_stroke_path" d="M1000.01001,808.10999v-762.10999c0,-25.3 -20.54998,-46 -45.66998,-46h-908.67003c-25.11,0 -45.66,20.7 -45.66,46v467.15002l39.6,-12.25003l72.77001,25.00998c0,0 5.05,-4.24 8.79,-6.75c3.73,-2.51 2.87,-2.23999 5.16,-6.23999c2.29,-4 4.35999,-6.33997 6.68999,-8.90997c2.33,-2.57 4.1,-4.06002 6.53,-6.36002c2.43,-2.3 5.84001,-5.74 7.96001,-8.09c2.12,-2.35 4.53,-6.63 6.62,-10.63c2.09,-4 2.96,-4.59999 5.17,-6.54999c2.21,-1.95 5.43001,-3.34999 7.98001,-4.92999c2.56,-1.58 4.3,-3.52002 6.25,-5.80002c1.95,-2.28 4.71999,-7.26998 6.23999,-9.97998c1.52,-2.71 4.90001,-9.45002 6.48001,-12.55002c1.58,-3.1 6.35999,-11.20001 7.40999,-13.10001c1.05,-1.91 3.99001,-8.18999 4.67001,-12.17999c0.68,-3.99 1.02999,-4.88999 2.01999,-7.85999c0.99,-2.97 5.80001,-14.53001 8.04001,-18.39001c2.23,-3.85 5.62,-11.95999 8.2,-12.70999c2.58,-0.75 3.20999,0.41 3.20999,0.41c0,0 2.50001,58.61999 2.68001,65.35999c0.18,6.74 -1.33,16.2 -1.97,23.72c-0.64,7.53 -0.03,13.39999 0.45,16.64999c0.48,3.25 8.25,33.84 8.25,33.84c0,0 -2.52999,6.02999 -7.87,10.87c-5.34,4.84 -9.28,7.57001 -9.28,7.57001c0,0 -2.66001,12.14004 -3.79001,14.60004c-1.13,2.46 -3.54999,5.71997 -3.54999,5.71997l27.78,10.72998l25.25,8.63c0,0 17.42,-2.57996 28.59,-3.07996c11.18,-0.49 30.37001,-1.39003 46.42001,-3.91003c16.05,-2.52 28.29999,-4.51001 28.29999,-4.51001c0,0 14.68,-0.89995 27.69,-2.38995c13.01,-1.48 16.22,-2.92004 16.22,-2.92004c0,0 8.13002,-13.66 16.74002,-29.5c8.62,-15.84 11.85,-24.68 19.47,-38.81c7.62,-14.12 9.23999,-17.06998 9.23999,-17.06998c0,0 12.19001,-12.03 19.60001,-22.28c7.41,-10.24 14.06,-20.23002 20.09,-25.96002c6.03,-5.73 18.12,-18.98998 32.09,-17.50998c13.97,1.48 13.16002,23.41 3.58002,42.09c-9.59,18.68 -13.56,37.47 -13.56,37.47l3.69,0.09c18.58,0.47 32.83998,16.79998 30.97998,35.47998c0,0 14.18999,-13.01997 18.60999,-18.77997c4.42,-5.76 8.48,-10.18002 13.75,-27.11002c5.27,-16.93 9.68,-25.68 15.81,-36.16c6.12,-10.48 8.13001,-12.22 11.89001,-13.31c0,0 -5.74998,4.88001 -12.78998,25.79001c-7.05,20.92 -11.56004,31.30999 -12.98004,36.17999c-1.42,4.87 -3.06,7.71999 -2,19.07999c1.07,11.36 2.53003,32.67004 2.53003,32.67004l3.06,28.45996l4.19,25.96002c0,0 -13.45004,12.6 -21.98004,18.87c-8.53,6.27 -9.26996,7.57001 -9.26996,7.57001l3.87,43.82001c0,0 7.66,2.79998 15.31,4.03998c7.65,1.25 12.07001,1.84998 12.07001,1.84998c0,0 -3.78001,2.62001 -7.26001,5.07001c-3.48,2.45 -6.03998,5.89001 -7.53998,9.76001c-1.5,3.87 -2.02002,7.01003 -2.15002,8.34003c-0.13,1.33 -0.27002,2.02996 0.16998,3.14996c0.44,1.12 0.48004,5.46002 0.48004,5.46002c0,0 -0.22005,1.50002 0.88995,3.15002c1.11,1.65 3.01999,3.59996 10.42999,5.32996c7.4,1.72 13.79005,1.79001 28.05005,3.20001c14.26,1.41 34.06997,3.69999 46.58997,4.42999c12.52,0.73 27.03004,3.01999 42.54004,6.23999c15.51,3.22 43.18995,8.92004 57.38995,12.73004c40.01,15.82 111.24004,37.46 166.35004,54.63c0,0 5.36001,-140.24 8.32001,-178.06c2.96,-37.82 -7.89,-39.26006 -27.25,-47.12006l-50.62,-20.54999l1.15997,-3.19l53.07001,21.09003c13.54,5.38 30.04999,8.62999 30.04999,29.35999c0,20.73 -0.65998,29.03001 -1.47998,41.14001c-0.82,12.11 -6.67999,159.14996 -6.67999,159.14996c36.22,11.22 68.51996,22.42004 68.51996,22.42004v139.13c0,25.3 -20.54998,46 -45.66998,46h-908.65001c-25.12,0 -45.67,-20.7 -45.67,-46v-433" fill="none" stroke="rgb(0, 0, 0)" stroke-width="1" stroke-linejoin="round" stroke-dasharray="0 0" stroke-opacity="1"></path><circle r="0.5" transform="matrix(6.123233995736766e-17,1,-1,6.123233995736766e-17,1000.01001,808.10999)" fill="rgb(0, 0, 0)"></circle><circle r="0.5" transform="matrix(6.123233995736766e-17,-1,1,6.123233995736766e-17,0.00003999999997006398,520.96001)" fill="rgb(0, 0, 0)"></circle></g></g></g></g></g></g></g></g></g></g><g transform="matrix(1,0,0,1,124.5654,657.7342)"><g id="457510501" opacity="1" style="mix-blend-mode:normal"><g><g><g style="mix-blend-mode:NORMAL"><g><path id="457510501_stroke_path" d="M339.81461,290.01578l68.72998,-42.73999c1.26,-0.78 1.03,-2.68 -0.38,-3.13l-69.78998,-22.65002l-0.16,-6.60999l24.72,-13.96002c1.13,-0.64 0.99001,-2.31 -0.23999,-2.75l-25,-8.94l-0.16,-7.48999l3.39999,1.41003l117.85999,40.82996c5.17,1.59 5.64,4.37 3.06,5.94l-121.72998,75.01001l-3.79001,-180.26c-0.12,-5.58 -3.68999,-10.50998 -8.95999,-12.34998l-320.52,-112.02997c-3.65,-1.28 -7.35,1.77998 -6.8,5.59998l28.43,196.02996l311.38999,110.37006l122.79999,-80.51001" fill="none" stroke="rgb(0, 0, 0)" stroke-width="1" stroke-linejoin="round" stroke-dasharray="0 0" stroke-opacity="1"></path><circle r="0.5" transform="matrix(-0.8491969622684082,0.5280762438077552,-0.5280762438077552,-0.8491969622684082,339.81461,290.01578)" fill="rgb(0, 0, 0)"></circle><circle r="0.5" transform="matrix(0.8362898761069687,-0.5482875551396282,0.5482875551396282,0.8362898761069687,462.6746,231.78580999999994)" fill="rgb(0, 0, 0)"></circle></g></g></g></g></g></g><g transform="matrix(1,0,0,1,329.66,384.4308)"><g id="457510502" opacity="1" style="mix-blend-mode:normal"><g><g><g style="mix-blend-mode:NORMAL"><g><path id="457510502_stroke_path" d="M0,11.1092c0,0 6.73999,-6.36 12.73999,-6.47c4.12,-0.08 9.43001,0.82998 10.98001,1.16998c0.74,0.16 1.48998,0.11 2.19998,-0.16c2.44,-0.92 6.74002,-3.64999 10.11002,-4.76999c8.13,-2.71 17.17999,1.70999 17.17999,1.70999c0,0 -8.26999,17.09 -27.73999,18.75c-19.47,1.66 -25.45999,-10.22998 -25.45999,-10.22998c0,0 11.5,1.10998 24.09,-0.33002c12.59,-1.44 29.10999,-8.17999 29.10999,-8.17999" fill="none" stroke="rgb(0, 0, 0)" stroke-width="0.94" stroke-linejoin="round" stroke-dasharray="0 0" stroke-opacity="1"></path><circle r="0.47" transform="matrix(-0.7273118358010938,0.6863071422502047,-0.6863071422502047,-0.7273118358010938,0,11.1092)" fill="rgb(0, 0, 0)"></circle><circle r="0.47" transform="matrix(0.9259037770024342,-0.37775944161943403,0.37775944161943403,0.9259037770024342,53.21000000000001,2.59919)" fill="rgb(0, 0, 0)"></circle></g></g></g></g></g></g><g transform="matrix(1,0,0,1,636.37,425.8119)"><g id="457510503" opacity="1" style="mix-blend-mode:normal"><g><g><g style="mix-blend-mode:NORMAL"><g><path id="457510503_stroke_path" d="M0,2.19813c0,0 5.22999,-3.13001 9.92999,-1.92001c3.23,0.83 6.01,3.04999 7.12,3.70999c0.53,0.32 1.13001,0.43002 1.76001,0.33002c2.15,-0.35 5.31002,-3.13002 9.58002,-2.86002c7.08,0.45 15.95001,2.40002 15.95001,2.40002c0,0 -11.06004,18.52 -26.67004,15.87c-15.62,-2.65 -17.65997,-17.53 -17.65997,-17.53c0,0 7.87001,6.18 18.14001,6.75c11.97,0.66 26.19,-5.09 26.19,-5.09" fill="none" stroke="rgb(0, 0, 0)" stroke-width="0.85" stroke-linejoin="round" stroke-dasharray="0 0" stroke-opacity="1"></path><circle r="0.425" transform="matrix(-0.8580702876779414,0.5135322593608846,-0.5135322593608846,-0.8580702876779414,0,2.19813)" fill="rgb(0, 0, 0)"></circle><circle r="0.425" transform="matrix(0.9270763227762867,-0.37487263403401194,0.37487263403401194,0.9270763227762867,44.34003,3.858129999999999)" fill="rgb(0, 0, 0)"></circle></g></g></g></g></g></g></g></g></g></g><animate href="#457510487_stroke_path" attributeName="stroke-dasharray" values="-1355.606477763729 2724.7690203050947;-1179.9198782455496 2549.082420786916;-936.9951974302894 2306.1577399716557;-575.5905104584793 1944.7530529998455;-17.08064161982291 1386.243184161189;549.5628660854156 819.5996764559505;882.2286957286349 486.93384681273136;1073.911451684426 295.25109085694015;1192.6625791365286 176.49996340483762;1268.3054205957446 100.85712194562146;1315.4805260219225 53.68201651944377;1342.3215342816443 26.841008259721885;1354.2508712859653 14.911671255400881;1355.606477763729 13.556064777637301;1355.606477763729 13.556064777637301;1355.606477763729 13.556064777637301;1355.606477763729 13.556064777637301;1355.606477763729 13.556064777637301;1355.606477763729 13.556064777637301;1355.606477763729 13.556064777637301;1355.606477763729 13.556064777637301;1355.606477763729 13.556064777637301;1355.606477763729 13.556064777637301;1355.606477763729 13.556064777637301;1355.606477763729 13.556064777637301;1355.606477763729 13.556064777637301" dur="5s" repeatCount="0" keyTimes="0;0.04;0.08;0.12;0.16;0.2;0.24;0.28;0.32;0.36;0.4;0.44;0.48;0.52;0.56;0.6;0.64;0.68;0.72;0.76;0.8;0.84;0.88;0.92;0.96;1" fill="freeze"></animate><animate href="#457510487_stroke_path" attributeName="stroke-dashoffset" values="-1355.606477763729;-1267.7631780046393;-1146.3008375970091;-965.5984941111042;-686.3435596917759;-403.0218058391566;-236.68889101754706;-140.84751303965143;-81.4719493136001;-43.65052858399207;-20.062975870903188;-6.642471741042272;-0.6778032388818644;0;0;0;0;0;0;0;0;0;0;0;0;0" dur="5s" repeatCount="0" keyTimes="0;0.04;0.08;0.12;0.16;0.2;0.24;0.28;0.32;0.36;0.4;0.44;0.48;0.52;0.56;0.6;0.64;0.68;0.72;0.76;0.8;0.84;0.88;0.92;0.96;1" fill="freeze"></animate><animate href="#457510488_stroke_path" attributeName="stroke-dasharray" values="-177.43323077976535 356.64079386732834;-154.43788407070778 333.64544715827077;-122.64184911497382 301.8494122025368;-75.33814978908838 254.54571287665138;-2.2356587078250336 181.44322179538804;71.93143175811687 107.27613132944613;115.4735465914713 63.734016496091705;140.5626054237301 38.64495766383289;156.10575644003754 23.101806647525464;166.00653071754846 13.201032370014547;172.18120714868428 7.026355938878722;175.69438511812365 3.513177969439361;177.2557975489856 1.9517655385774009;177.43323077976535 1.7743323077976552;177.43323077976535 1.7743323077976552;177.43323077976535 1.7743323077976552;177.43323077976535 1.7743323077976552;177.43323077976535 1.7743323077976552;177.43323077976535 1.7743323077976552;177.43323077976535 1.7743323077976552;177.43323077976535 1.7743323077976552;177.43323077976535 1.7743323077976552;177.43323077976535 1.7743323077976552;177.43323077976535 1.7743323077976552;177.43323077976535 1.7743323077976552;177.43323077976535 1.7743323077976552" dur="5s" repeatCount="0" keyTimes="0;0.04;0.08;0.12;0.16;0.2;0.24;0.28;0.32;0.36;0.4;0.44;0.48;0.52;0.56;0.6;0.64;0.68;0.72;0.76;0.8;0.84;0.88;0.92;0.96;1" fill="freeze"></animate><animate href="#457510488_stroke_path" attributeName="stroke-dashoffset" values="-177.43323077976535;-165.93555742523657;-150.0375399473696;-126.38569028442687;-89.83444474379519;-52.75089951082424;-30.97984209414703;-18.43531267801762;-10.663737169863898;-5.713350031108444;-2.626011815540527;-0.8694228308208501;-0.08871661538988268;0;0;0;0;0;0;0;0;0;0;0;0;0" dur="5s" repeatCount="0" keyTimes="0;0.04;0.08;0.12;0.16;0.2;0.24;0.28;0.32;0.36;0.4;0.44;0.48;0.52;0.56;0.6;0.64;0.68;0.72;0.76;0.8;0.84;0.88;0.92;0.96;1" fill="freeze"></animate><animate href="#457510489_stroke_path" attributeName="stroke-dasharray" values="-176.58728992847503 354.9404527562348;-153.70157715374467 332.05473998150444;-122.05713479856195 300.4102976263217;-74.97896330363051 253.33212613139028;-2.2249998530987756 180.57816268085855;71.58848733700377 106.764675490756;114.92300828545156 63.43015454230822;139.89245108133792 38.46071174642186;155.36149767907233 22.991665148687467;165.21506845708123 13.138094370678546;171.36030614659217 6.992856681167625;174.85673448717597 3.4964283405838126;176.41070263854658 1.9424601892132074;176.58728992847503 1.7658728992847519;176.58728992847503 1.7658728992847519;176.58728992847503 1.7658728992847519;176.58728992847503 1.7658728992847519;176.58728992847503 1.7658728992847519;176.58728992847503 1.7658728992847519;176.58728992847503 1.7658728992847519;176.58728992847503 1.7658728992847519;176.58728992847503 1.7658728992847519;176.58728992847503 1.7658728992847519;176.58728992847503 1.7658728992847519;176.58728992847503 1.7658728992847519;176.58728992847503 1.7658728992847519" dur="5s" repeatCount="0" keyTimes="0;0.04;0.08;0.12;0.16;0.2;0.24;0.28;0.32;0.36;0.4;0.44;0.48;0.52;0.56;0.6;0.64;0.68;0.72;0.76;0.8;0.84;0.88;0.92;0.96;1" fill="freeze"></animate><animate href="#457510489_stroke_path" attributeName="stroke-dashoffset" values="-176.58728992847503;-165.14443354110986;-149.3222123635185;-125.78312661605277;-89.4061448907869;-52.49940129573563;-30.832140821511743;-18.347419423568557;-10.612896124701349;-5.686110735696896;-2.6134918909414306;-0.8652777206495276;-0.08829364496423751;0;0;0;0;0;0;0;0;0;0;0;0;0" dur="5s" repeatCount="0" keyTimes="0;0.04;0.08;0.12;0.16;0.2;0.24;0.28;0.32;0.36;0.4;0.44;0.48;0.52;0.56;0.6;0.64;0.68;0.72;0.76;0.8;0.84;0.88;0.92;0.96;1" fill="freeze"></animate><animate href="#457510490_stroke_path" attributeName="stroke-dasharray" values="-1077.7285181548414 2166.2343214912307;-938.054902201974 2026.560705538364;-744.9259517486264 1833.4317550850162;-457.60352880854566 1546.1093321449355;-13.579379328750942 1102.0851826651408;436.9111412599727 651.5946620764171;701.3857196151708 387.120083721219;853.7765320822654 234.72927125412446;948.1855502726294 140.32025306376045;1008.3228015856696 80.18300175072022;1045.827754017458 42.678049318931805;1067.166778676924 21.339024659465903;1076.6507896366866 11.855013699703147;1077.7285181548414 10.777285181548423;1077.7285181548414 10.777285181548423;1077.7285181548414 10.777285181548423;1077.7285181548414 10.777285181548423;1077.7285181548414 10.777285181548423;1077.7285181548414 10.777285181548423;1077.7285181548414 10.777285181548423;1077.7285181548414 10.777285181548423;1077.7285181548414 10.777285181548423;1077.7285181548414 10.777285181548423;1077.7285181548414 10.777285181548423;1077.7285181548414 10.777285181548423;1077.7285181548414 10.777285181548423" dur="5s" repeatCount="0" keyTimes="0;0.04;0.08;0.12;0.16;0.2;0.24;0.28;0.32;0.36;0.4;0.44;0.48;0.52;0.56;0.6;0.64;0.68;0.72;0.76;0.8;0.84;0.88;0.92;0.96;1" fill="freeze"></animate><animate href="#457510490_stroke_path" attributeName="stroke-dashoffset" values="-1077.7285181548414;-1007.8917101784077;-911.3272349517339;-767.6660234816935;-545.6539487417962;-320.4086884474344;-188.17139926983532;-111.97599303628803;-64.77148394110597;-34.70285828458589;-15.950382068691653;-5.280869738958723;-0.5388642590774207;0;0;0;0;0;0;0;0;0;0;0;0;0" dur="5s" repeatCount="0" keyTimes="0;0.04;0.08;0.12;0.16;0.2;0.24;0.28;0.32;0.36;0.4;0.44;0.48;0.52;0.56;0.6;0.64;0.68;0.72;0.76;0.8;0.84;0.88;0.92;0.96;1" fill="freeze"></animate><animate href="#457510491_stroke_path" attributeName="stroke-dasharray" values="-2740.0597743690187 5507.520146481727;-2384.948027610794 5152.408399723503;-1893.9293160438658 4661.389688156574;-1163.4293801970855 3930.8897523097944;-34.52475315704948 2801.9851252697586;1110.8202325292002 1656.6401395835087;1783.2309011593575 984.2294709533514;2170.6753532551365 596.7850188575723;2410.7045894898624 356.7557826228465;2563.5999248996536 203.86044721305504;2658.9540050476953 108.50636706501335;2713.207188580202 54.253183532506675;2737.31971459465 30.140657518058926;2740.0597743690187 27.40059774369021;2740.0597743690187 27.40059774369021;2740.0597743690187 27.40059774369021;2740.0597743690187 27.40059774369021;2740.0597743690187 27.40059774369021;2740.0597743690187 27.40059774369021;2740.0597743690187 27.40059774369021;2740.0597743690187 27.40059774369021;2740.0597743690187 27.40059774369021;2740.0597743690187 27.40059774369021;2740.0597743690187 27.40059774369021;2740.0597743690187 27.40059774369021;2740.0597743690187 27.40059774369021" dur="5s" repeatCount="0" keyTimes="0;0.04;0.08;0.12;0.16;0.2;0.24;0.28;0.32;0.36;0.4;0.44;0.48;0.52;0.56;0.6;0.64;0.68;0.72;0.76;0.8;0.84;0.88;0.92;0.96;1" fill="freeze"></animate><animate href="#457510491_stroke_path" attributeName="stroke-dashoffset" values="-2740.0597743690187;-2562.5039009899065;-2316.994545206442;-1951.7445772830522;-1387.292263763034;-814.6197709199092;-478.41443660483066;-284.69221055694106;-164.67759243957804;-88.2299247346824;-40.552884660661476;-13.42629289440819;-1.3700298871845094;0;0;0;0;0;0;0;0;0;0;0;0;0" dur="5s" repeatCount="0" keyTimes="0;0.04;0.08;0.12;0.16;0.2;0.24;0.28;0.32;0.36;0.4;0.44;0.48;0.52;0.56;0.6;0.64;0.68;0.72;0.76;0.8;0.84;0.88;0.92;0.96;1" fill="freeze"></animate><animate href="#457510492_stroke_path" attributeName="stroke-dasharray" values="-1457.0271953058748 2928.624662564808;-1268.1964707942334 2739.793938053167;-1007.0971973954207 2478.6946646543543;-618.6537471268745 2090.251214385808;-18.358542660853942 1489.9560099197874;590.6788249770016 880.918642281932;948.2332987050634 523.3641685538702;1154.256944121314 317.3405231376195;1281.8925264301085 189.70494082882504;1363.1946439281764 108.40282333075712;1413.899190324821 57.698276934112755;1442.7483287918772 28.849138467056378;1455.570168110569 16.027299148364474;1457.0271953058748 14.57027195305876;1457.0271953058748 14.57027195305876;1457.0271953058748 14.57027195305876;1457.0271953058748 14.57027195305876;1457.0271953058748 14.57027195305876;1457.0271953058748 14.57027195305876;1457.0271953058748 14.57027195305876;1457.0271953058748 14.57027195305876;1457.0271953058748 14.57027195305876;1457.0271953058748 14.57027195305876;1457.0271953058748 14.57027195305876;1457.0271953058748 14.57027195305876;1457.0271953058748 14.57027195305876" dur="5s" repeatCount="0" keyTimes="0;0.04;0.08;0.12;0.16;0.2;0.24;0.28;0.32;0.36;0.4;0.44;0.48;0.52;0.56;0.6;0.64;0.68;0.72;0.76;0.8;0.84;0.88;0.92;0.96;1" fill="freeze"></animate><animate href="#457510492_stroke_path" attributeName="stroke-dashoffset" values="-1457.0271953058748;-1362.6118330500542;-1232.0621963506478;-1037.8404712163747;-737.6928689833644;-433.1741851644366;-254.39694830040574;-151.3851255922804;-87.56733443788308;-46.91627568884917;-21.56400249052695;-7.139433256998786;-0.7285135976529374;0;0;0;0;0;0;0;0;0;0;0;0;0" dur="5s" repeatCount="0" keyTimes="0;0.04;0.08;0.12;0.16;0.2;0.24;0.28;0.32;0.36;0.4;0.44;0.48;0.52;0.56;0.6;0.64;0.68;0.72;0.76;0.8;0.84;0.88;0.92;0.96;1" fill="freeze"></animate><animate href="#457510494_stroke_path" attributeName="stroke-dasharray" values="-760.2354572471495 1528.0732690667703;-661.7089419879189 1429.54675380754;-525.4747480492298 1293.3125598688507;-322.7959751471397 1090.6337869667607;-9.578966761314042 777.416778580935;308.1994543679944 459.63835745162663;494.7612355764449 273.0765762431761;602.2585292311918 165.57928258842915;668.8551552860421 98.98265653357893;711.2762938004331 56.561518019187936;737.7324877126338 30.10532410698718;752.7851497661275 15.05266205349359;759.4752217899024 8.362590029718568;760.2354572471495 7.602354572471501;760.2354572471495 7.602354572471501;760.2354572471495 7.602354572471501;760.2354572471495 7.602354572471501;760.2354572471495 7.602354572471501;760.2354572471495 7.602354572471501;760.2354572471495 7.602354572471501;760.2354572471495 7.602354572471501;760.2354572471495 7.602354572471501;760.2354572471495 7.602354572471501;760.2354572471495 7.602354572471501;760.2354572471495 7.602354572471501;760.2354572471495 7.602354572471501" dur="5s" repeatCount="0" keyTimes="0;0.04;0.08;0.12;0.16;0.2;0.24;0.28;0.32;0.36;0.4;0.44;0.48;0.52;0.56;0.6;0.64;0.68;0.72;0.76;0.8;0.84;0.88;0.92;0.96;1" fill="freeze"></animate><animate href="#457510494_stroke_path" attributeName="stroke-dashoffset" values="-760.2354572471495;-710.9721996175342;-642.8551026481896;-541.5157161971446;-384.9072120042318;-226.01800143957755;-132.7371108353523;-78.98846400797883;-45.69015098055368;-24.479581723358212;-11.251484767257812;-3.725153740511032;-0.38011772862357474;0;0;0;0;0;0;0;0;0;0;0;0;0" dur="5s" repeatCount="0" keyTimes="0;0.04;0.08;0.12;0.16;0.2;0.24;0.28;0.32;0.36;0.4;0.44;0.48;0.52;0.56;0.6;0.64;0.68;0.72;0.76;0.8;0.84;0.88;0.92;0.96;1" fill="freeze"></animate><animate href="#457510495_stroke_path" attributeName="stroke-dasharray" values="-752.0337503119985 1511.5878381271168;-654.5701762715635 1414.124264086682;-519.8057282156534 1279.3598160307718;-319.3135303824746 1078.8676181975932;-9.475625253931138 769.0297130690495;304.87448237648414 454.67960543863427;489.4235647030486 270.1305231120698;595.7611369971652 163.79295081795325;661.6392935244962 97.91479429062227;703.6027767919057 55.9513110232127;729.7735513027633 29.780536512355198;744.6638195589409 14.890268256177599;751.2817165616865 8.272371253431906;752.0337503119985 7.5203375031199915;752.0337503119985 7.5203375031199915;752.0337503119985 7.5203375031199915;752.0337503119985 7.5203375031199915;752.0337503119985 7.5203375031199915;752.0337503119985 7.5203375031199915;752.0337503119985 7.5203375031199915;752.0337503119985 7.5203375031199915;752.0337503119985 7.5203375031199915;752.0337503119985 7.5203375031199915;752.0337503119985 7.5203375031199915;752.0337503119985 7.5203375031199915;752.0337503119985 7.5203375031199915" dur="5s" repeatCount="0" keyTimes="0;0.04;0.08;0.12;0.16;0.2;0.24;0.28;0.32;0.36;0.4;0.44;0.48;0.52;0.56;0.6;0.64;0.68;0.72;0.76;0.8;0.84;0.88;0.92;0.96;1" fill="freeze"></animate><animate href="#457510495_stroke_path" attributeName="stroke-dashoffset" values="-752.0337503119985;-703.301963291781;-635.9197392638259;-535.6736403472365;-380.7546877829648;-223.57963396775716;-131.30509280447492;-78.13630665741664;-45.19722839375111;-24.21548676004635;-11.130099504617577;-3.684965376528792;-0.37601687515599924;0;0;0;0;0;0;0;0;0;0;0;0;0" dur="5s" repeatCount="0" keyTimes="0;0.04;0.08;0.12;0.16;0.2;0.24;0.28;0.32;0.36;0.4;0.44;0.48;0.52;0.56;0.6;0.64;0.68;0.72;0.76;0.8;0.84;0.88;0.92;0.96;1" fill="freeze"></animate><animate href="#457510496_stroke_path" attributeName="stroke-dasharray" values="-1691.9259604292358 3400.771180462764;-1472.652355957607 3181.4975759911354;-1169.4592238486878 2878.304443882216;-718.3917627982536 2427.236982831782;-21.318267101408278 1730.1634871349365;685.9067843580121 1022.9384356755161;1101.1054150473467 607.7398049861814;1340.3437458520407 368.50147418148754;1488.5564599856416 220.28876004788665;1582.965928577593 125.87929145593519;1641.8449520005304 67.00026803299788;1675.3450860170292 33.50013401649894;1690.2340344688068 18.611185564721424;1691.9259604292358 16.919259604292375;1691.9259604292358 16.919259604292375;1691.9259604292358 16.919259604292375;1691.9259604292358 16.919259604292375;1691.9259604292358 16.919259604292375;1691.9259604292358 16.919259604292375;1691.9259604292358 16.919259604292375;1691.9259604292358 16.919259604292375;1691.9259604292358 16.919259604292375;1691.9259604292358 16.919259604292375;1691.9259604292358 16.919259604292375;1691.9259604292358 16.919259604292375;1691.9259604292358 16.919259604292375" dur="5s" repeatCount="0" keyTimes="0;0.04;0.08;0.12;0.16;0.2;0.24;0.28;0.32;0.36;0.4;0.44;0.48;0.52;0.56;0.6;0.64;0.68;0.72;0.76;0.8;0.84;0.88;0.92;0.96;1" fill="freeze"></animate><animate href="#457510496_stroke_path" attributeName="stroke-dashoffset" values="-1691.9259604292358;-1582.2891581934214;-1430.6925921389618;-1205.1588616137446;-856.6221137653221;-503.00958803561184;-295.41027269094457;-175.7911072885976;-101.68475022179707;-54.48001592582139;-25.04050421435269;-8.290437206103256;-0.8459629802146179;0;0;0;0;0;0;0;0;0;0;0;0;0" dur="5s" repeatCount="0" keyTimes="0;0.04;0.08;0.12;0.16;0.2;0.24;0.28;0.32;0.36;0.4;0.44;0.48;0.52;0.56;0.6;0.64;0.68;0.72;0.76;0.8;0.84;0.88;0.92;0.96;1" fill="freeze"></animate><animate href="#457510497_stroke_path" attributeName="stroke-dasharray" values="-1338.8692748964327 2691.127242541829;-1165.3518168698552 2517.609784515252;-925.4264428084143 2277.6844104538113;-568.4838941210254 1920.7418617664225;-16.869752863694977 1369.127720509092;542.7776040430138 809.4803636023832;871.3361241025984 480.92184354279857;1060.652239572954 291.605728072443;1177.9371880538813 174.32077959151565;1252.6460935931025 99.61187405229462;1299.2387443594982 53.01922328589884;1325.7483560024475 26.50961164294942;1337.5304056215364 14.727562023860624;1338.8692748964327 13.388692748964338;1338.8692748964327 13.388692748964338;1338.8692748964327 13.388692748964338;1338.8692748964327 13.388692748964338;1338.8692748964327 13.388692748964338;1338.8692748964327 13.388692748964338;1338.8692748964327 13.388692748964338;1338.8692748964327 13.388692748964338;1338.8692748964327 13.388692748964338;1338.8692748964327 13.388692748964338;1338.8692748964327 13.388692748964338;1338.8692748964327 13.388692748964338;1338.8692748964327 13.388692748964338" dur="5s" repeatCount="0" keyTimes="0;0.04;0.08;0.12;0.16;0.2;0.24;0.28;0.32;0.36;0.4;0.44;0.48;0.52;0.56;0.6;0.64;0.68;0.72;0.76;0.8;0.84;0.88;0.92;0.96;1" fill="freeze"></animate><animate href="#457510497_stroke_path" attributeName="stroke-dashoffset" values="-1338.8692748964327;-1252.110545883144;-1132.1478588524235;-953.6765845087291;-677.8695138800638;-398.04583542670946;-233.76657539691715;-139.10851766173937;-80.4660434212756;-43.11159065166513;-19.815265268467204;-6.56045944699252;-0.6694346374482163;0;0;0;0;0;0;0;0;0;0;0;0;0" dur="5s" repeatCount="0" keyTimes="0;0.04;0.08;0.12;0.16;0.2;0.24;0.28;0.32;0.36;0.4;0.44;0.48;0.52;0.56;0.6;0.64;0.68;0.72;0.76;0.8;0.84;0.88;0.92;0.96;1" fill="freeze"></animate><animate href="#457510498_stroke_path" attributeName="stroke-dasharray" values="-320.9220478416822 645.0533161617811;-279.3305504414002 603.4618187614992;-221.82131946817074 545.9525877882697;-136.26350151357826 460.3947698336773;-4.043617802805177 328.1748861229042;130.10179819501795 194.02947012508105;208.85606873536676 115.27519958473222;254.23444630018062 69.89682201991837;282.34721769111195 41.784050628987046;300.25466796067786 23.87660035942116;311.4227552255684 12.70851309453064;317.7770117728337 6.35425654726532;320.60112579384054 3.5301425262584716;320.9220478416822 3.2092204784168246;320.9220478416822 3.2092204784168246;320.9220478416822 3.2092204784168246;320.9220478416822 3.2092204784168246;320.9220478416822 3.2092204784168246;320.9220478416822 3.2092204784168246;320.9220478416822 3.2092204784168246;320.9220478416822 3.2092204784168246;320.9220478416822 3.2092204784168246;320.9220478416822 3.2092204784168246;320.9220478416822 3.2092204784168246;320.9220478416822 3.2092204784168246;320.9220478416822 3.2092204784168246" dur="5s" repeatCount="0" keyTimes="0;0.04;0.08;0.12;0.16;0.2;0.24;0.28;0.32;0.36;0.4;0.44;0.48;0.52;0.56;0.6;0.64;0.68;0.72;0.76;0.8;0.84;0.88;0.92;0.96;1" fill="freeze"></animate><animate href="#457510498_stroke_path" attributeName="stroke-dashoffset" values="-320.9220478416822;-300.12629914154115;-271.37168365492647;-228.59277467763022;-162.48283282224367;-95.41012482333211;-56.03298955315771;-33.34380077075078;-19.2874150752851;-10.333689940502166;-4.749646308056897;-1.5725180344242427;-0.16046102392084108;0;0;0;0;0;0;0;0;0;0;0;0;0" dur="5s" repeatCount="0" keyTimes="0;0.04;0.08;0.12;0.16;0.2;0.24;0.28;0.32;0.36;0.4;0.44;0.48;0.52;0.56;0.6;0.64;0.68;0.72;0.76;0.8;0.84;0.88;0.92;0.96;1" fill="freeze"></animate><animate href="#457510499_stroke_path" attributeName="stroke-dasharray" values="-2057.5176772984896 4135.610531369964;-1790.8633863206055 3868.95624039208;-1422.1562185487162 3500.2490726201904;-873.6220057809387 2951.7148598524136;-25.924722733960856 2104.0175768054355;834.1176663768076 1243.9751876946668;1339.0325043858572 739.0603496856174;1629.9655039558636 448.127350115611;1810.204052487211 267.88880158426355;1925.013538880467 153.07931519100768;1996.615154050454 81.47770002102035;2037.3540040609644 40.73885001051018;2055.4601596211915 22.63269445028318;2057.5176772984896 20.575176772984914;2057.5176772984896 20.575176772984914;2057.5176772984896 20.575176772984914;2057.5176772984896 20.575176772984914;2057.5176772984896 20.575176772984914;2057.5176772984896 20.575176772984914;2057.5176772984896 20.575176772984914;2057.5176772984896 20.575176772984914;2057.5176772984896 20.575176772984914;2057.5176772984896 20.575176772984914;2057.5176772984896 20.575176772984914;2057.5176772984896 20.575176772984914;2057.5176772984896 20.575176772984914" dur="5s" repeatCount="0" keyTimes="0;0.04;0.08;0.12;0.16;0.2;0.24;0.28;0.32;0.36;0.4;0.44;0.48;0.52;0.56;0.6;0.64;0.68;0.72;0.76;0.8;0.84;0.88;0.92;0.96;1" fill="freeze"></animate><animate href="#457510499_stroke_path" attributeName="stroke-dashoffset" values="-2057.5176772984896;-1924.1905318095476;-1739.8369479236028;-1465.5698415397142;-1041.7212000162253;-611.700005460841;-359.2425864563163;-213.7760866713131;-123.65681240563923;-66.25206920901137;-30.451261624017647;-10.0818366187626;-1.0287588386492448;0;0;0;0;0;0;0;0;0;0;0;0;0" dur="5s" repeatCount="0" keyTimes="0;0.04;0.08;0.12;0.16;0.2;0.24;0.28;0.32;0.36;0.4;0.44;0.48;0.52;0.56;0.6;0.64;0.68;0.72;0.76;0.8;0.84;0.88;0.92;0.96;1" fill="freeze"></animate><animate href="#457510500_stroke_path" attributeName="stroke-dasharray" values="-6432.6869295576125 12929.7007284108;-5862.750867598808 12359.764666451996;-5153.868767961559 11650.882566814747;-4244.286836122113 10741.300634975301;-3025.9359316639006 9522.94973051709;-1336.7123439620718 7833.726142815261;782.2147306342056 5714.799068218983;2607.811281242656 3889.2025176105326;3824.8756483149564 2672.1381505382324;4632.8211266673925 1864.1926721857965;5193.751426924816 1303.262371928373;5593.864553943299 903.1492449098893;5884.622003159304 612.3917956938844;6094.327597062882 402.6862017903065;6242.2793964427065 254.73440241048198;6341.342775157895 155.67102369529422;6401.810032295736 95.20376655745218;6428.827317399879 68.18648145331032;6432.6869295576125 64.32686929557619;6432.6869295576125 64.32686929557619;6432.6869295576125 64.32686929557619;6432.6869295576125 64.32686929557619;6432.6869295576125 64.32686929557619;6432.6869295576125 64.32686929557619;6432.6869295576125 64.32686929557619;6432.6869295576125 64.32686929557619" dur="5s" repeatCount="0" keyTimes="0;0.04;0.08;0.12;0.16;0.2;0.24;0.28;0.32;0.36;0.4;0.44;0.48;0.52;0.56;0.6;0.64;0.68;0.72;0.76;0.8;0.84;0.88;0.92;0.96;1" fill="freeze"></animate><animate href="#457510500_stroke_path" attributeName="stroke-dashoffset" values="-6432.6869295576125;-6147.71889857821;-5793.277848759585;-5338.486882839862;-4729.311430610756;-3884.699636759842;-2825.2360994617034;-1912.4378241574782;-1303.905640621328;-899.93290144511;-619.4677513163981;-419.4111878071563;-274.0324631991543;-169.17966624736522;-95.20376655745267;-45.672077199859054;-15.438448630938268;-1.9298060788672835;0;0;0;0;0;0;0;0" dur="5s" repeatCount="0" keyTimes="0;0.04;0.08;0.12;0.16;0.2;0.24;0.28;0.32;0.36;0.4;0.44;0.48;0.52;0.56;0.6;0.64;0.68;0.72;0.76;0.8;0.84;0.88;0.92;0.96;1" fill="freeze"></animate><animate href="#457510501_stroke_path" attributeName="stroke-dasharray" values="-1733.1962711554368 3483.7245050224274;-1733.1962711554368 3483.7245050224274;-1733.1962711554368 3483.7245050224274;-1733.1962711554368 3483.7245050224274;-1572.3556571922122 3322.8838910592035;-1036.7980094051825 2787.3262432721735;24.611387050407185 1725.916846816584;1029.8652243205606 720.6630095464305;1437.166348042088 313.3618858249031;1623.3116275641823 127.2166063028089;1707.5449663423365 42.983267524654714;1732.8496319012056 17.678601965785433;1733.1962711554368 17.331962711554382;1733.1962711554368 17.331962711554382;1733.1962711554368 17.331962711554382;1733.1962711554368 17.331962711554382;1733.1962711554368 17.331962711554382;1733.1962711554368 17.331962711554382;1733.1962711554368 17.331962711554382;1733.1962711554368 17.331962711554382;1733.1962711554368 17.331962711554382;1733.1962711554368 17.331962711554382;1733.1962711554368 17.331962711554382;1733.1962711554368 17.331962711554382;1733.1962711554368 17.331962711554382;1733.1962711554368 17.331962711554382" dur="5s" repeatCount="0" keyTimes="0;0.04;0.08;0.12;0.16;0.2;0.24;0.28;0.32;0.36;0.4;0.44;0.48;0.52;0.56;0.6;0.64;0.68;0.72;0.76;0.8;0.84;0.88;0.92;0.96;1" fill="freeze"></animate><animate href="#457510501_stroke_path" attributeName="stroke-dashoffset" values="-1733.1962711554368;-1733.1962711554368;-1733.1962711554368;-1733.1962711554368;-1652.7759641738246;-1384.9971402803096;-854.2924420525148;-351.6655234174381;-148.0149615566743;-54.94232179562734;-12.825652406550233;-0.1733196271155437;0;0;0;0;0;0;0;0;0;0;0;0;0;0" dur="5s" repeatCount="0" keyTimes="0;0.04;0.08;0.12;0.16;0.2;0.24;0.28;0.32;0.36;0.4;0.44;0.48;0.52;0.56;0.6;0.64;0.68;0.72;0.76;0.8;0.84;0.88;0.92;0.96;1" fill="freeze"></animate><animate href="#457510502_stroke_path" attributeName="stroke-dasharray" values="-174.93968054998334 351.62875790546644;-174.93968054998334 351.62875790546644;-174.93968054998334 351.62875790546644;-174.93968054998334 351.62875790546644;-158.7052781949449 335.39435555042803;-104.64891690500005 281.33799426048324;2.4841434638097617 174.20493389167342;103.9491581828001 72.73991917268306;145.05998311204618 31.629094243437;163.84850480311442 12.84057255236876;172.3505732778436 4.338504077639575;174.90469261387335 1.7843847416098277;174.93968054998334 1.749396805499835;174.93968054998334 1.749396805499835;174.93968054998334 1.749396805499835;174.93968054998334 1.749396805499835;174.93968054998334 1.749396805499835;174.93968054998334 1.749396805499835;174.93968054998334 1.749396805499835;174.93968054998334 1.749396805499835;174.93968054998334 1.749396805499835;174.93968054998334 1.749396805499835;174.93968054998334 1.749396805499835;174.93968054998334 1.749396805499835;174.93968054998334 1.749396805499835;174.93968054998334 1.749396805499835" dur="5s" repeatCount="0" keyTimes="0;0.04;0.08;0.12;0.16;0.2;0.24;0.28;0.32;0.36;0.4;0.44;0.48;0.52;0.56;0.6;0.64;0.68;0.72;0.76;0.8;0.84;0.88;0.92;0.96;1" fill="freeze"></animate><animate href="#457510502_stroke_path" attributeName="stroke-dashoffset" values="-174.93968054998334;-174.93968054998334;-174.93968054998334;-174.93968054998334;-166.8224793724641;-139.79429872749168;-86.22776854308678;-35.495261183591616;-14.939848718968577;-5.545587873434472;-1.2945536360698768;-0.017493968054998334;0;0;0;0;0;0;0;0;0;0;0;0;0;0" dur="5s" repeatCount="0" keyTimes="0;0.04;0.08;0.12;0.16;0.2;0.24;0.28;0.32;0.36;0.4;0.44;0.48;0.52;0.56;0.6;0.64;0.68;0.72;0.76;0.8;0.84;0.88;0.92;0.96;1" fill="freeze"></animate><animate href="#457510503_stroke_path" attributeName="stroke-dasharray" values="-152.38179097350445 306.2873998567439;-152.38179097350445 306.2873998567439;-152.38179097350445 306.2873998567439;-152.38179097350445 306.2873998567439;-138.24076077116325 292.14636965440275;-91.15478736035037 245.06039624358988;2.1638214318237616 151.74178745141575;90.54526019645635 63.36034868678314;126.35498107522989 27.550627808009615;142.72078542578427 11.184823457455213;150.1265404670966 3.7790684161429002;152.35131461530975 1.5542942679297433;152.38179097350445 1.523817909735046;152.38179097350445 1.523817909735046;152.38179097350445 1.523817909735046;152.38179097350445 1.523817909735046;152.38179097350445 1.523817909735046;152.38179097350445 1.523817909735046;152.38179097350445 1.523817909735046;152.38179097350445 1.523817909735046;152.38179097350445 1.523817909735046;152.38179097350445 1.523817909735046;152.38179097350445 1.523817909735046;152.38179097350445 1.523817909735046;152.38179097350445 1.523817909735046;152.38179097350445 1.523817909735046" dur="5s" repeatCount="0" keyTimes="0;0.04;0.08;0.12;0.16;0.2;0.24;0.28;0.32;0.36;0.4;0.44;0.48;0.52;0.56;0.6;0.64;0.68;0.72;0.76;0.8;0.84;0.88;0.92;0.96;1" fill="freeze"></animate><animate href="#457510503_stroke_path" attributeName="stroke-dashoffset" values="-152.38179097350445;-152.38179097350445;-152.38179097350445;-152.38179097350445;-145.31127587233385;-121.76828916692742;-75.10898477084035;-30.918265388524052;-13.01340494913728;-4.830502773860091;-1.127625253203933;-0.015238179097350446;0;0;0;0;0;0;0;0;0;0;0;0;0;0" dur="5s" repeatCount="0" keyTimes="0;0.04;0.08;0.12;0.16;0.2;0.24;0.28;0.32;0.36;0.4;0.44;0.48;0.52;0.56;0.6;0.64;0.68;0.72;0.76;0.8;0.84;0.88;0.92;0.96;1" fill="freeze"></animate></svg>