<?xml version="1.0" encoding="UTF-8"?>
<svg id="Camada_6" data-name="Camada 6" xmlns="http://www.w3.org/2000/svg" viewBox="0 0 1107.7 557.95">
  <defs>
    <style>
      .cls-1 {
        fill: #6d7c79;
        opacity: .5;
      }

      .cls-2 {
        fill: #4d4d4d;
      }
    </style>
  </defs>
  <path class="cls-1" d="M664.75,115h84.8c147.38,0,267.03,119.65,267.03,267.03h0c0,147.38-119.65,267.03-267.03,267.03h-84.8V115h0Z" transform="translate(458.64 1222.7) rotate(-90)"/>
  <g>
    <path class="cls-2" d="M488.11,25.9c-8.98,12.54-9.4,29.13-7.67,43.89,.44,3.73,1.03,7.45,1.73,11.14,.75,3.94,2.05,7.8,2.35,11.81s-.65,7.79-3.96,10.26c-2.58,1.92-5.7,2.89-8.42,4.57-1.3,.81-2.51,1.77-3.43,3-1.07,1.41-1.42,3.17-1.67,4.89-.54,3.75-.06,7.53,.81,11.2,1.84,7.72,5.6,15.3,5.24,23.39-.07,1.56,.02,3.26-1.28,4.36-1.1,.93-2.66,1.26-4.06,1.38-4.1,.36-8.34-.65-12.16-2.07-3.38-1.26-7.34-3.11-9.48-6.16-.74-1.06-1.21-2.34-.81-3.63,.79-2.55,3.37-2.71,5.57-3.42,1.27-.41,2.38-1.06,2.99-2.28,.43-.86-.86-1.62-1.3-.76-.77,1.54-2.62,1.73-4.13,2.13-1.3,.35-2.59,.81-3.46,1.89-.96,1.18-1.49,2.63-1.27,4.16,.5,3.47,4.07,5.9,6.89,7.45,3.88,2.13,8.24,3.52,12.63,4.07,3.13,.39,7.44,.55,9.86-1.9,1.25-1.26,1.31-2.78,1.44-4.45,.32-4.05-.49-8.11-1.57-12-2.15-7.8-6.01-16.02-4.26-24.27,.41-1.93,1.17-3.37,2.7-4.63,1.32-1.09,2.89-1.87,4.43-2.62,2.91-1.41,6-2.78,7.99-5.44,2.34-3.13,2.5-7.15,1.99-10.88-.55-4.01-1.75-7.9-2.47-11.88-2.8-15.42-4.31-33.16,3.1-47.59,.87-1.69,1.86-3.3,2.96-4.84,.56-.79-.74-1.54-1.3-.76h0Z"/>
    <path class="cls-2" d="M463.76,152.44c1.85-16.31-4.65-32.89-.24-49.01,.26-.93-1.19-1.33-1.45-.4-4.45,16.28,2.05,32.94,.19,49.4-.11,.96,1.39,.95,1.5,0h0Z"/>
    <path class="cls-2" d="M463.22,102.42c-1.15-1.17-2.62-1.74-4.22-2.02-1.78-.31-3.59-.6-5.39-.8-3.54-.39-7.12-.21-10.6,.49-7.23,1.46-13.78,5.16-19.58,9.6-.76,.58,0,1.88,.76,1.3,5.4-4.14,11.4-7.63,18.07-9.2,3.31-.78,6.73-1.06,10.12-.81,1.67,.12,3.3,.5,4.95,.69,1.76,.21,3.54,.49,4.83,1.81,.68,.69,1.74-.37,1.06-1.06h0Z"/>
    <path class="cls-2" d="M423.66,111.11c3.02,.4,5.87-.58,8.66-1.61,3.08-1.14,6.1-1.97,9.38-2.31,6.08-.62,12.33-.27,18.14-2.47,.89-.34,.51-1.79-.4-1.45-5.83,2.2-12.09,1.79-18.17,2.46-2.94,.32-5.73,.98-8.5,2-2.95,1.08-5.9,2.29-9.1,1.87-.95-.13-.95,1.38,0,1.5h0Z"/>
    <path class="cls-2" d="M451.82,105.58c-.97,2.91-1.32,6.04-2.59,8.85-.33,.72-.7,1.54-1.3,2.06-.66,.58-1.65,.85-2.47,1.14-1.61,.56-3.26,.98-4.93,1.29-6.72,1.25-13.62,.78-20.42,1.01-.96,.03-.97,1.53,0,1.5,7.35-.24,14.83,.29,22.07-1.32,1.8-.4,3.56-.94,5.26-1.65,.64-.27,1.28-.47,1.73-1.02,.52-.62,.93-1.36,1.28-2.09,1.41-2.97,1.79-6.28,2.82-9.38,.3-.92-1.14-1.31-1.45-.4h0Z"/>
    <path class="cls-2" d="M420.54,121.08c7.11-8.25,19.27-8.38,29.25-7.29,.96,.1,.95-1.4,0-1.5-10.37-1.13-22.94-.81-30.31,7.73-.63,.73,.43,1.79,1.06,1.06h0Z"/>
    <path class="cls-2" d="M404.28,63.82c2.06,3.47,4.25,6.95,5.81,10.69,.98,2.34,1.68,4.9,1.1,7.43-.65,2.81-2.56,5.2-4.43,7.31-1.37,1.54-2.82,3-4.29,4.44-.81,.8-1.65,1.48-2.2,2.49s-1.09,2.12-1.56,3.22c-3.6,8.35-4.3,17.73-3.12,26.68,.59,4.49,1.61,8.97,3.15,13.23,1.07,2.97,2,5.88,2.67,8.97,1.12,5.14,1.96,11.23,6.23,14.84,2.35,1.99,5.33,2.88,8.35,3.22,1.01,.12,2.04,.19,3.06,.17,.86-.01,1.46-.51,2.11-1.05,1.19-.97,2.14-2.22,2.86-3.57,1.56-2.9,2.22-6.18,3.21-9.29,.54-1.7,1.18-3.37,2.1-4.91,.99-1.66,2.26-2.79,3.76-3.98s2.52-3.71,2.54-5.58c.01-1.58-.74-2.99-1.86-4.07-2.63-2.53-6.41-3.62-9.6-5.26-2.85-1.47-5.79-3.56-4.39-7.13,.44-1.11,1.14-2.14,1.87-3.08,.59-.75-.47-1.82-1.06-1.06-2.29,2.92-4.04,6.73-1.11,9.85,2.43,2.59,6.2,3.72,9.31,5.26,2.56,1.26,6.06,3.16,5.19,6.57-.26,1.01-.77,1.98-1.38,2.82-.42,.58-1.05,.92-1.6,1.38-.71,.6-1.35,1.27-1.92,2.01-2.03,2.62-3.03,5.81-3.94,8.95s-1.71,6.52-3.93,8.99c-.48,.53-1.11,1.24-1.77,1.53-.8,.36-2.07,.09-2.94,.01-1.73-.16-3.48-.51-5.09-1.2-5.4-2.31-6.86-8.03-8-13.26-.64-2.92-1.22-5.87-2.16-8.71-1.32-3.95-2.72-7.75-3.53-11.86-1.78-8.99-1.69-18.59,1.35-27.31,.37-1.06,.79-2.12,1.25-3.14,.51-1.11,1.01-2.42,1.83-3.34,1.46-1.63,3.16-3.07,4.66-4.68,2.03-2.17,4.07-4.52,5.23-7.3,2.2-5.27-.54-10.62-3.09-15.22-1.09-1.96-2.23-3.9-3.38-5.83-.49-.83-1.79-.08-1.3,.76h0Z"/>
    <path class="cls-2" d="M378.63,111.87c7.17,15.4,.07,32.11,.04,48.1-.01,7.03,1.93,13.97,4.02,20.63s4.67,12.98,8.01,19,7.25,11.39,12.12,16.02c2.37,2.26,4.96,4.3,7.72,6.06,3.3,2.1,6.59,4.22,10.11,5.93,6.79,3.3,14.84,5.29,22.03,1.99,4.82-2.21,8.98-6.16,12.21-10.3,6.14-7.88,10.79-20.34,2.54-28.51-1.03-1.02-2.19-1.89-3.41-2.66-.82-.52-1.57,.78-.76,1.3,4.57,2.87,7.32,7.39,7.15,12.85s-2.55,10.27-5.51,14.5-6.97,8.23-11.6,10.81c-6.83,3.81-14.8,2.1-21.51-1.09-3.46-1.65-6.63-3.74-9.89-5.74-2.74-1.68-5.29-3.65-7.63-5.84-4.74-4.42-8.62-9.67-11.82-15.28s-5.91-12.02-7.97-18.38-4.07-12.97-4.28-19.58c-.48-15.09,5.94-30.27,1.73-45.23-.52-1.84-1.2-3.61-2.01-5.34-.41-.87-1.7-.11-1.3,.76h0Z"/>
    <path class="cls-2" d="M425.43,173.23c.36,5.16,1.16,10.57,3.47,15.26,1.83,3.71,5.05,6.72,9.45,5.91,3.24-.59,6.04-2.82,8.39-4.99,.71-.66-.35-1.72-1.06-1.06-2.98,2.75-7.77,6.43-11.92,3.81-3.43-2.17-4.81-6.93-5.66-10.64-.62-2.72-.98-5.5-1.17-8.28-.07-.96-1.57-.97-1.5,0h0Z"/>
    <path class="cls-2" d="M446.77,189.43c.06-.04,.32-.16,.15-.09,.1-.04,.21-.07,.32-.1,.12-.03,.24-.06,.37-.08,.07-.01,.14-.03,.22-.04,.13-.02-.01,0,.07,0,.65-.08,1.3-.09,1.95-.08s1.31,.06,1.96,.12c.16,.02,.32,.04,.48,.06,.13,.02-.01,0,.06,0,.06,0,.12,.02,.18,.03,.24,.04,.49,.08,.73,.13,.4,.09,.81-.12,.92-.52,.1-.38-.13-.84-.52-.92-1.27-.28-2.6-.38-3.9-.4-.73-.01-1.45,.02-2.17,.12-.53,.07-1.1,.19-1.56,.49-.81,.52-.06,1.82,.76,1.3h0Z"/>
    <path class="cls-2" d="M426.91,173.03c-.3-1.72-.63-3.45-.58-5.2s.59-3.2,1.51-4.59c.54-.81-.76-1.56-1.3-.76-1.04,1.56-1.63,3.32-1.71,5.2s.3,3.86,.63,5.75c.17,.95,1.61,.55,1.45-.4h0Z"/>
    <path class="cls-2" d="M426.46,163.06c1.65,5.46,6,9.87,10.76,12.8s10.7,4.83,16.18,3.32c2.98-.82,5.41-2.7,7.16-5.21,.55-.79-.75-1.54-1.3-.76-6.71,9.66-20.59,3.54-26.95-3.25-1.96-2.09-3.58-4.54-4.41-7.3-.28-.92-1.73-.53-1.45,.4h0Z"/>
    <path class="cls-2" d="M427.72,163.39c2.26-1.88,5.32-2.23,8.16-2.15,3.29,.09,6.54,.74,9.76,1.36s6.22,1.26,9.37,1.31c2.33,.04,4.88-.3,6.65-1.95,2.54-2.36,2.47-6.35,2.09-9.52-.11-.95-1.61-.96-1.5,0,.32,2.7,.58,6.34-1.6,8.41-1.73,1.63-4.41,1.66-6.64,1.52-6.26-.39-12.29-2.57-18.59-2.64-3.14-.03-6.31,.55-8.78,2.6-.74,.62,.32,1.67,1.06,1.06h0Z"/>
    <path class="cls-2" d="M481.29,61.4c-2.31-6.96-6.79-12.73-13.34-16.14-6.02-3.12-12.84-4.22-19.52-4.9-6.15-.63-12.42-1.53-18.56-.55s-12.93,3.28-18.25,7.03-9.36,9.86-7.42,16.8c.26,.93,1.71,.53,1.45-.4-3.62-12.96,13.18-19.78,23.06-21.71,2.6-.51,5.36-.9,8.02-.7,3.04,.23,6.08,.52,9.11,.79,6.37,.56,12.87,1.34,18.83,3.78,7.41,3.03,12.65,8.82,15.17,16.41,.3,.91,1.75,.52,1.45-.4h0Z"/>
    <path class="cls-2" d="M488.56,25.56c-2.13,.48-4.33,.91-6.52,.66-2.06-.23-3.95-1.12-5.74-2.11-2.81-1.56-5.5-3.34-8.22-5.04-1.98-1.23-4.06-2.25-6.16-3.25-8.22-3.9-16.79-7.09-25.53-9.61-9.32-2.7-18.87-4.65-28.52-5.6s-18.75-.89-27.97,.74c-8.44,1.49-16.75,4.43-23.77,9.44s-12.63,12.27-15.98,20.46c-.94,2.3-1.72,4.67-2.35,7.08-.71,2.71-1.09,5.49-1.72,8.21-1.56,6.65-2.38,13.48-2.43,20.32-.09,12.28,2.36,24.36,5.77,36.11,3.09,10.67,7.02,21.12,9.57,31.95,2.28,9.68,3.23,19.83,.28,29.49-.75,2.46-1.73,4.83-2.89,7.11-.44,.86,.86,1.62,1.3,.76,4.57-8.96,5.73-18.84,4.44-28.74-1.37-10.49-4.86-20.58-8.06-30.61-3.61-11.32-7-22.78-8.3-34.63-.7-6.41-.81-12.89-.2-19.32,.33-3.52,.88-7.02,1.62-10.47,.62-2.88,1.1-5.79,1.79-8.65,2.2-9.04,6.51-17.53,13.32-23.97,6.21-5.87,14.05-9.67,22.26-11.82,8.89-2.34,18.2-2.86,27.35-2.39,9.69,.5,19.3,2.13,28.7,4.52,8.97,2.29,17.79,5.27,26.28,8.98,1.93,.84,3.85,1.73,5.74,2.65,2.53,1.24,4.89,2.65,7.27,4.15,3.85,2.42,7.97,5.5,12.67,5.8,2.15,.14,4.32-.28,6.41-.76,.94-.21,.54-1.66-.4-1.45h0Z"/>
    <path class="cls-2" d="M379.92,111.12c-1.61-3.82-3.73-7.4-6.67-10.35-2.7-2.7-5.94-4.77-9.23-6.68-2.9-1.69-7.38-1.65-10.49-.54-2.9,1.03-5.23,3.16-6.48,5.98-1.49,3.38-1.38,7.24-.5,10.77,1.03,4.14,1.64,8.38,2.69,12.53s2.39,8.22,4.54,11.9c1.92,3.28,4.57,6.61,8.2,8,2.93,1.12,6.78,1.85,9.63,.12,3.35-2.04,3.23-6.35,2.49-9.72-.21-.94-1.65-.54-1.45,.4,.59,2.73,.89,6.55-1.99,8.14-2.33,1.28-5.37,.66-7.74-.17-3.53-1.23-6.02-4.37-7.86-7.51s-3.14-6.86-4.11-10.49-1.67-7.32-2.41-11.01-1.67-6.95-.76-10.53c1.65-6.48,8.35-8.78,14.36-7.02,1.83,.54,3.65,1.97,5.23,3.03s3.01,2.17,4.35,3.46c3.08,2.94,5.23,6.58,6.88,10.48,.37,.89,1.67,.12,1.3-.76h0Z"/>
    <path class="cls-2" d="M477.12,142.65c1.23-3.38,1.28-6.92,.88-10.45-.19-1.71-.47-3.42-.71-5.12-.27-1.91-.74-4.15-.35-6.06,.72-3.52,2.19-6.95,3.57-10.25s2.93-6.81,4.18-10.3c.33-.91-1.12-1.3-1.45-.4-2.47,6.89-6,13.41-7.75,20.55-.4,1.63-.08,3.44,.12,5.09,.21,1.75,.5,3.5,.73,5.25,.51,3.81,.66,7.62-.67,11.29-.33,.91,1.12,1.3,1.45,.4h0Z"/>
    <path class="cls-2" d="M460.17,194.9c7.71-17.58,15.53-35.7,17.34-55.02,.09-.96-1.41-.95-1.5,0-1.78,19.02-9.54,36.94-17.13,54.26-.38,.88,.91,1.64,1.3,.76h0Z"/>
    <path class="cls-2" d="M461.55,188.98c1.57,5.08,2.76,10.28,4.43,15.33,.39,1.16,.8,2.32,1.25,3.46,.39,.98,.74,2.37,1.46,3.14,1.01,1.1,2.52,.79,3.6,0,1.36-1,2.37-2.52,3.24-3.94,1.36-2.2,2.64-4.43,4.09-6.58,3.05-4.54,6.39-8.87,9.43-13.42,1.5-2.24,2.51-4.26,1.99-7.02s-2.12-5.06-3.16-7.58c-.36-.88-1.81-.49-1.45,.4,1.58,3.85,4.85,8,2.19,12.11s-5.47,7.84-8.23,11.75c-1.4,1.99-2.78,4-4.07,6.06-.98,1.58-1.84,3.23-2.91,4.76-.55,.78-2.19,3.27-3.42,2.6-.77-.42-1.19-2.3-1.48-3.07-.42-1.08-.8-2.17-1.16-3.27-1.64-4.99-2.82-10.11-4.37-15.13-.28-.92-1.73-.53-1.45,.4h0Z"/>
    <path class="cls-2" d="M489.89,150.07c-1.86,1.26-4.02,2.28-4.68,4.61-.86,3.07-1.81,6.05-2.86,9.07-.72,2.07-1.8,4.4-.85,6.56,.61,1.39,1.9,2.29,3.31,2.75,2.68,.86,7.11,.36,8.73-2.29,.51-.83,.56-2.06,.79-3.01s.51-1.97,.85-2.92c.38-1.04,.87-2.07,1.74-2.79,.91-.76,2.1-1.19,3.16-1.69,2.01-.96,3.91-2.09,5.72-3.39,.78-.56,.03-1.86-.76-1.3-2.46,1.76-5.08,2.95-7.73,4.35-1.96,1.03-2.98,2.66-3.69,4.72-.26,.77-.48,1.55-.67,2.33-.24,.96-.29,2.4-.92,3.16-.89,1.07-2.57,1.54-3.89,1.67-1.4,.13-2.96-.06-4.14-.86-1.6-1.09-1.53-2.75-1.02-4.43,.92-3.03,2.17-5.95,3.05-9,.4-1.37,.46-2.95,1.49-4.02,.88-.92,2.08-1.5,3.13-2.21,.8-.54,.05-1.84-.76-1.3h0Z"/>
    <path class="cls-2" d="M490.18,151.35c5.31-1.43,9.82-4.75,14.96-6.6,.9-.33,.51-1.78-.4-1.45-5.14,1.85-9.66,5.18-14.96,6.6-.93,.25-.54,1.7,.4,1.45h0Z"/>
    <path class="cls-2" d="M504.77,145.14c1.94,.75,3.39,2.42,4.64,4.02,1.34,1.71,2.51,3.54,3.88,5.23,1.6,1.96,3.75,3.51,5.58,5.26,1.96,1.88,3.83,3.86,5.53,5.99,.6,.75,1.66-.31,1.06-1.06-1.78-2.22-3.73-4.28-5.79-6.24-1.89-1.8-4.05-3.38-5.67-5.44-2.57-3.28-4.72-7.6-8.83-9.19-.9-.35-1.29,1.1-.4,1.45h0Z"/>
    <path class="cls-2" d="M537.81,179.78c-2.37-4.5-1.07-12.42-6.64-14.76-1.54-.65-3.11-.33-4.73-.41-2-.1-3.99-.41-5.97-.72-3.7-.57-7.55-1.31-11.3-.72-1.68,.26-3.29,.81-4.56,1.97-1.47,1.35-2.82,2.83-4.04,4.42-2.43,3.17-4.28,6.75-5.48,10.56-.63,2-1.08,4.06-1.36,6.13-.22,1.6-.64,3.41,.17,4.9,1.22,2.25,3.97,1.84,5.95,1,2.31-.98,5.53-3,6.49-5.47,.77-1.99,1.27-3.86,2.79-5.46s3.35-2.32,5.42-2.62c.95-.14,.55-1.58-.4-1.45-2.99,.43-5.54,1.94-7.24,4.46-.86,1.28-1.4,2.71-1.87,4.17-.35,1.09-1.22,1.91-2.07,2.66-1.58,1.37-4.29,3.32-6.54,2.88-1.46-.29-1.53-1.78-1.43-3,.16-1.88,.47-3.75,.92-5.58,.91-3.7,2.42-7.22,4.52-10.4,1.05-1.6,2.25-3.1,3.57-4.49s2.48-2.49,4.32-2.97c3.37-.89,7.06-.25,10.44,.27s6.74,1.11,10.17,.96,4.61,3.29,5.25,5.93c.69,2.85,.95,5.88,2.33,8.51,.45,.85,1.75,.1,1.3-.76h0Z"/>
    <path class="cls-2" d="M491.73,149.55c-2.54-1.85-5.34-1.53-8.1-.39-2.56,1.05-5.22,2.56-8.02,1.49-.9-.34-1.29,1.11-.4,1.45,2.75,1.05,5.42-.03,7.97-1.13,1.21-.52,2.46-1.08,3.78-1.25,1.49-.2,2.81,.26,4.02,1.13,.78,.57,1.53-.73,.76-1.3h0Z"/>
    <path class="cls-2" d="M478.29,140.56c3.61-4.35,9.03-4.28,14.19-3.63,1.25,.16,2.49,.35,3.74,.51,1.33,.18,2.12,.35,2.97,1.47,1.39,1.83,1.99,4.12,3.41,5.93,.6,.76,1.65-.31,1.06-1.06-1.61-2.05-2.11-4.86-4.08-6.66-.94-.86-1.82-.98-3.04-1.13-1.42-.18-2.83-.4-4.24-.58-5.5-.69-11.27-.5-15.08,4.09-.61,.74,.44,1.8,1.06,1.06h0Z"/>
    <path class="cls-2" d="M474.02,209.45c5.69,4.95,12.2,8.71,18.64,12.59,6.04,3.65,12,7.6,16.43,13.2,2.88,3.64,4.94,7.83,6.35,12.24,.29,.92,1.74,.52,1.45-.4-2.38-7.46-6.64-13.9-12.65-18.91-5.61-4.68-12.11-8.08-18.28-11.92-3.8-2.37-7.48-4.91-10.87-7.85-.73-.63-1.79,.43-1.06,1.06h0Z"/>
    <path class="cls-2" d="M553.67,232.12c-2.83-6.01-7.83-11.34-8.85-18.09-.27-1.79-.06-3.48,.19-5.25,.27-1.97,.31-3.98,.16-5.97-.28-3.86-1.25-7.63-2.53-11.27-1.47-4.16-3.35-8.17-5.16-12.19-.4-.88-1.69-.12-1.3,.76,3.27,7.23,6.89,14.66,7.49,22.69,.15,2.01,.13,4.07-.19,6.06-.27,1.68-.4,3.3-.19,5,.4,3.19,1.74,6.16,3.29,8.95,1.89,3.38,4.13,6.55,5.78,10.06,.41,.87,1.7,.11,1.3-.76h0Z"/>
    <path class="cls-2" d="M514.23,249.06c3.97-.23,7.83-1.17,11.54-2.59s7.27-3.41,10.98-4.95c7.21-3,14.69-5.44,21.31-9.67,.81-.52,.06-1.82-.76-1.3-6.51,4.16-13.86,6.57-20.96,9.52-3.57,1.48-6.97,3.37-10.57,4.79s-7.58,2.47-11.56,2.7c-.96,.06-.97,1.56,0,1.5h0Z"/>
    <path class="cls-2" d="M550.53,226.16c11.29,2.72,13.04,17.71,10.74,27.16-.23,.94,1.22,1.34,1.45,.4,2.5-10.25,.36-26.08-11.79-29.01-.94-.23-1.34,1.22-.4,1.45h0Z"/>
    <path class="cls-2" d="M562.72,245.31c-13.87,5.78-27.07,14.19-42.11,16.65l.73,.19c-2.75-3.52-5.98-6.75-6.1-11.5-.03-.96-1.53-.97-1.5,0,.14,5.2,3.52,8.69,6.54,12.56,.17,.22,.48,.23,.73,.19,15.04-2.46,28.23-10.87,42.11-16.65,.88-.37,.49-1.82-.4-1.45h0Z"/>
    <path class="cls-2" d="M516.81,263.17c6.92,1.28,13.92,1.02,20.87,.16,3.43-.43,6.84-1.08,10.27-1.5,2.91-.36,5.83,0,8.37-1.76,.79-.55,.04-1.85-.76-1.3-2.48,1.72-5.44,1.21-8.26,1.65-3.36,.52-6.73,1.06-10.11,1.47-6.65,.8-13.38,1.05-19.99-.17-.94-.17-1.35,1.27-.4,1.45h0Z"/>
    <path class="cls-2" d="M515.84,262.94c4.93,11.93,9.67,23.95,14.21,36.03,1.15,3.07,2.29,6.14,3.42,9.22,.53,1.46,1.06,2.92,1.59,4.38,.57,1.58,1.34,3.2,1.74,4.84,.34,1.38,.41,2.89,.64,4.29,.27,1.66,.57,3.32,.9,4.98,.6,3.07,1.28,6.12,2,9.17,1.67,7.02,3.6,13.98,5.45,20.96,.25,.93,1.69,.54,1.45-.4-3.24-12.25-6.75-24.47-8.65-37.01-.25-1.67-.6-3.1-1.17-4.69s-1.11-3.07-1.66-4.61c-1.12-3.08-2.25-6.15-3.4-9.22-2.24-5.99-4.52-11.96-6.85-17.92-2.68-6.83-5.42-13.64-8.22-20.42-.36-.88-1.82-.49-1.45,.4h0Z"/>
    <path class="cls-2" d="M562.27,250.07c1.62,3.11,2.88,6.46,4.26,9.68,3.02,7.05,5.98,14.12,8.92,21.2,3.74,9.02,7.42,18.06,11.03,27.12s7.1,18.02,10.46,27.11c2.63,7.13,5.23,14.3,7.38,21.59,.2,.68,.39,1.35,.58,2.03,.26,.93,1.7,.53,1.45-.4-1.93-6.98-4.38-13.83-6.86-20.63-3.28-9.01-6.75-17.96-10.28-26.88s-7.34-18.31-11.1-27.43c-3.07-7.44-6.17-14.86-9.33-22.26-1.63-3.83-3.13-7.79-5.02-11.51-.07-.13-.12-.26-.19-.39-.45-.86-1.74-.1-1.3,.76h0Z"/>
    <path class="cls-2" d="M559.72,264.93c1.69,2.74,2.41,5.86,3.39,8.89,.68,2.12,1.48,5.33,3.78,6.23,1.73,.68,3.82-.25,4.36-2.06,.65-2.14-.99-3.61-2.71-4.47-.95-.48-2.29-1.06-3.3-.41-.87,.56-.97,1.7-.89,2.63,.25,3.11,1.67,6.15,2.72,9.04,1.64,4.52,2.89,9.22,4.28,13.83,2.05,6.78,3.94,13.62,5.34,20.57,.36,1.76,.73,3.54,.94,5.33,.12,.99,.34,1.91,.93,2.74,.77,1.07,2.16,1.94,3.5,1.46,1.58-.57,1.94-2.84,1.45-4.25-.51-1.48-2.28-2.73-3.73-3.17-2.16-.66-3.51,.79-3.3,2.93,.31,3.13,1.28,6.12,2.51,9,2.7,6.31,6.64,12.11,8.15,18.88,.21,.94,1.66,.54,1.45-.4-2.08-9.31-8.93-16.87-10.45-26.33-.1-.64-.58-2.31,.23-2.72,.59-.29,1.58,.29,2.05,.59,1.16,.73,2.48,2.26,1.51,3.71-.74,1.11-2.08-.3-2.44-1.05-.39-.81-.38-1.73-.53-2.6-.25-1.51-.53-3.01-.83-4.52-1.13-5.6-2.58-11.14-4.17-16.63-1.42-4.9-3.25-9.74-4.44-14.7-.57-2.35-1.59-4.6-2.38-6.87-.42-1.21-.82-2.43-1.09-3.68-.12-.57-.5-1.84-.11-2.39s1.7,.2,2.18,.46c.95,.51,2.02,1.25,1.73,2.49-.22,.95-1.25,1.47-2.16,1.26-1.36-.31-1.93-2.08-2.39-3.23-.5-1.25-.88-2.54-1.27-3.83-.78-2.59-1.57-5.18-3-7.5-.51-.82-1.81-.07-1.3,.76h0Z"/>
    <path class="cls-2" d="M605.16,359.54c2.96,8.43,5.57,17.04,7.13,25.85,1.07,6.01,1.71,12.29,.88,18.37-.56,4.08-1.86,8.23-4.57,11.4-2.39,2.79-5.64,4.53-9.18,5.39-9.43,2.28-19.84-.59-28.76-3.61-6.09-2.06-12.02-4.57-17.84-7.31-3.11-1.46-6.18-2.99-9.22-4.58-1.61-.84-3.22-1.69-4.81-2.56s-3.38-1.7-4.88-2.8c-18.07-13.24-35.72-27.1-54.5-39.35-2.31-1.51-4.64-2.99-6.98-4.45-.82-.51-1.58,.79-.76,1.3,19.52,12.12,37.7,26.2,56.15,39.87,2.19,1.62,4.34,3.48,6.72,4.81,1.61,.9,3.22,1.78,4.84,2.65,3.16,1.69,6.34,3.33,9.56,4.91,6.02,2.94,12.15,5.66,18.45,7.95,9.47,3.45,20.15,6.6,30.32,5.04,3.79-.58,7.47-2.01,10.37-4.57,3.06-2.69,4.94-6.45,5.92-10.36,1.37-5.47,1.23-11.27,.59-16.83-.95-8.24-3.04-16.32-5.52-24.21-.77-2.45-1.59-4.88-2.44-7.31-.32-.9-1.77-.52-1.45,.4h0Z"/>
    <path class="cls-2" d="M525.39,282.08c-9.08-9.22-16.03-20.13-23.49-30.62-7.01-9.85-14.74-19.46-25.13-25.92-6.45-4.01-13.64-6.59-21.1-7.92-.94-.17-1.35,1.28-.4,1.45,6.66,1.19,13.11,3.35,18.99,6.72,5.29,3.03,10,6.93,14.21,11.32,8.53,8.89,15,19.47,22.17,29.42,4.2,5.83,8.64,11.49,13.69,16.61,.68,.69,1.74-.37,1.06-1.06h0Z"/>
    <path class="cls-2" d="M484.71,232.38c1.6,16.12,1.66,32.39,.61,48.55s-3.42,33.6-7.27,50.02c-2.03,8.63-4.49,17.17-7.54,25.5-.33,.91,1.12,1.3,1.45,.4,5.59-15.28,9.26-31.24,11.74-47.31s3.85-33.44,3.82-50.25c-.02-8.98-.42-17.97-1.3-26.91-.09-.95-1.6-.96-1.5,0h0Z"/>
    <path class="cls-2" d="M482.06,297.15c-17.64,1.75-35.36,2.58-53.09,2.5-.97,0-.97,1.5,0,1.5,17.73,.08,35.45-.75,53.09-2.5,.95-.09,.96-1.6,0-1.5h0Z"/>
    <path class="cls-2" d="M465.41,439.07c.54-5.41,1.09-10.82,2.06-16.18,.46-2.54,1.02-5.07,1.72-7.56s1.7-4.97,2.38-7.5c1.36-5.06,.72-10.64,.66-15.82l-.18-16.92c-.07-6.3-.14-12.6-.2-18.91-.01-.96-1.51-.97-1.5,0,.12,11.2,.24,22.39,.36,33.59l.09,8.21c.03,2.77,.18,5.61-.4,8.35-.54,2.55-1.57,4.98-2.32,7.48s-1.37,5.15-1.88,7.77c-1.11,5.78-1.7,11.65-2.29,17.5-.1,.96,1.4,.95,1.5,0h0Z"/>
    <path class="cls-2" d="M426.69,318.75c17.03,2.07,34.52,2.96,51.28-1.43,.93-.24,.54-1.69-.4-1.45-16.63,4.35-33.99,3.42-50.88,1.37-.96-.12-.95,1.38,0,1.5h0Z"/>
    <path class="cls-2" d="M449.56,222.73c-3.12,6.25-8.03,11.12-14.84,13.09-4.89,1.42-9.9,1.21-14.92,1.44-1.8,.08-3.82,.18-5.39,1.15-.21,.13-.39,.38-.37,.65,.82,11.66-9.35,18.99-15.68,27.38-1.57,2.09-2.96,4.31-3.96,6.73-.66,1.6-.85,3.15-1.04,4.87-.23,2.05-.41,4.11-.55,6.17-.57,8.44-.42,16.92,.14,25.36,1.11,16.82,3.79,33.48,5.52,50.23,.86,8.36,1.49,16.75,1.57,25.16,.03,3.33,0,6.54,.74,9.81,.65,2.82,1.68,5.54,2.87,8.18,4.68,10.37,13.41,20.77,12.1,32.83-.16,1.51-.51,2.99-.97,4.43h1.45c-.16-.8-.31-1.6-.47-2.4-.18-.95-1.63-.55-1.45,.4,.16,.8,.31,1.6,.47,2.4s1.24,.66,1.45,0c3.75-11.83-3.05-22.57-8.41-32.64-2.82-5.3-5.55-10.92-6.17-16.98-.39-3.87-.11-7.84-.25-11.73-.15-4.2-.43-8.39-.78-12.58-1.43-16.87-4.17-33.61-5.65-50.48-.74-8.43-1.17-16.89-.96-25.36,.11-4.2,.37-8.4,.83-12.57,.2-1.86,.46-3.5,1.23-5.21,.53-1.18,1.16-2.31,1.86-3.4,5.62-8.81,15.95-15.37,17.48-26.39,.19-1.4,.23-2.8,.13-4.21l-.37,.65c1.37-.84,3.17-.88,4.72-.95,2.37-.1,4.74-.07,7.1-.21,5.73-.34,11.42-1.68,16.06-5.23,3.38-2.59,5.91-6.05,7.81-9.84,.43-.86-.86-1.62-1.3-.76h0Z"/>
    <path class="cls-2" d="M398.48,265.04c-3.19-10.19-4.94-20.79-5.12-31.47-.03-1.96,.09-4.1-.8-5.91-.84-1.71-2.78-2.29-4.38-3.13-3.23-1.7-6.43-3.46-9.56-5.33-11.65-6.93-22.81-15.75-28.23-28.55-3.39-7.99-4.23-16.75-3.67-25.35,.06-.96-1.44-.96-1.5,0-.51,7.69,.1,15.53,2.61,22.85,2.15,6.25,5.64,11.93,10.07,16.82s10.03,9.22,15.73,12.9c3.05,1.97,6.19,3.8,9.36,5.56,1.67,.92,3.35,1.82,5.03,2.71,.78,.41,1.69,.76,2.42,1.26,1.05,.72,1.25,2.23,1.35,3.4,.23,2.8,.12,5.64,.31,8.45s.51,5.8,.93,8.68c.86,5.93,2.21,11.79,4,17.51,.29,.92,1.74,.53,1.45-.4h0Z"/>
    <path class="cls-2" d="M345.24,165.1c-3.91,1.82-5.8,5.74-9.04,8.35-2.96,2.39-5.25,5.39-5.46,9.33-.11,2.12,.57,4.22,1.11,6.24,.64,2.37,1.37,4.72,2.21,7.02,1.58,4.34,3.51,8.57,5.87,12.54,1.19,2.01,2.5,3.95,3.92,5.81,.74,.97,1.85,1.68,2.81,2.42,2.35,1.81,4.76,3.53,7.22,5.19,5.95,4.02,12.12,7.76,18.59,10.91,3.27,1.59,6.63,3.05,10.11,4.09,2.63,.79,5.46,1.42,8.22,1.12,.95-.1,.96-1.6,0-1.5-5.18,.56-10.67-1.84-15.27-3.92-6.18-2.8-12.07-6.24-17.76-9.92-2.54-1.65-5.05-3.35-7.5-5.13-1.06-.77-2.12-1.56-3.15-2.36-1.23-.96-2.17-1.88-3.09-3.16-5.2-7.27-8.71-15.7-10.94-24.33-.62-2.41-1.19-4.68-.47-7.13,.63-2.12,1.99-3.92,3.64-5.35s3.06-2.89,4.5-4.53c1.52-1.74,3.11-3.4,5.24-4.39,.87-.41,.11-1.7-.76-1.3h0Z"/>
    <path class="cls-2" d="M333.83,175.64c-1.13-.62-3.05-.03-4.21,.18-2.84,.52-5.65,1.24-8.44,1.97-8.48,2.22-16.86,4.78-25.2,7.48-8.87,2.87-17.71,5.89-26.39,9.31-3.38,1.33-6.75,2.72-10.03,4.31-2.03,.98-4.19,2-5.9,3.5-.64,.56-1.1,1.28-1.6,1.95-1.14,1.55-2.23,3.14-3.26,4.77-2.12,3.33-4.01,6.8-5.76,10.34-3.45,7-6.33,14.26-9.23,21.51-.72,1.8-1.44,3.6-2.17,5.39-.36,.89,1.09,1.28,1.45,.4,5.79-14.21,10.99-28.99,20.15-41.48,1.5-2.05,3.22-3.12,5.47-4.28,2.9-1.5,5.91-2.79,8.93-4.02,8.27-3.37,16.71-6.3,25.18-9.1s16.93-5.42,25.5-7.77c3.11-.85,6.23-1.67,9.37-2.37,1.69-.37,3.5-.9,5.22-.81,.18,0,.23,.04,.17,0,.85,.47,1.6-.83,.76-1.3h0Z"/>
    <path class="cls-2" d="M231.46,245.55c-11.52,24.12-18.53,50.06-23.61,76.22-5.13,26.36-8.41,53.03-12.74,79.53-2.08,12.73-5.17,25.49-5.39,38.44-.1,6,.5,12.13,2.58,17.8s5.37,10.3,9.82,14.08,9.44,6.38,14.8,8.25c1.28,.45,2.55,.9,3.9,1.05,1.88,.21,3.75,.43,5.62,.65,3.69,.45,7.37,.93,11.05,1.45,14.55,2.04,29.03,4.53,43.5,7.02,28.61,4.92,57.32,9.9,86.36,11.33,3.6,.18,7.2,.3,10.8,.36,.97,.02,.97-1.48,0-1.5-28.92-.51-57.56-4.95-86.01-9.8-14.17-2.41-28.32-4.93-42.53-7.13-6.9-1.07-13.81-2.06-20.73-2.93-3.46-.44-7.15-.5-10.46-1.58-2.8-.91-5.52-2.05-8.12-3.43-5.05-2.7-9.65-6.39-12.91-11.14-3.52-5.12-5.31-11.18-5.91-17.32-1.24-12.63,1.66-25.26,3.8-37.63,4.48-26,7.68-52.2,12.34-78.17,4.66-25.96,10.81-51.86,21.23-76.17,1.24-2.9,2.55-5.77,3.91-8.62,.41-.87-.88-1.63-1.3-.76h0Z"/>
    <path class="cls-2" d="M353.15,497.73c-2.65-4.98-4.04-10.52-3.46-16.17,.52-5.16,2.68-10.02,5.67-14.21,6.4-8.97,16.51-15.29,26.91-18.59,5.59-1.77,11.48-2.72,17.35-2.26,.96,.08,.96-1.43,0-1.5-11.16-.87-22.68,3.02-31.99,9-9.12,5.85-17.43,14.77-19.21,25.83-1.04,6.48,.38,12.91,3.44,18.66,.45,.85,1.75,.1,1.3-.76h0Z"/>
    <path class="cls-2" d="M293.53,327.76c-.98,20.19-3.13,40.32-6.49,60.25-.81,4.82-1.69,9.62-2.69,14.41-.32,1.56-.11,3.2,.72,4.56,.97,1.58,2.54,2.36,4.06,3.3,7.86,4.85,16.31,8.66,24.97,11.84s17.55,5.68,26.41,8.24c8.67,2.5,17.27,5.23,25.9,7.86,16.12,4.91,32.54,9.54,49.43,10.66,17.44,1.16,34.66-2.02,50.52-9.38,2.21-1.03,4.39-2.13,6.54-3.29,.85-.46,.09-1.75-.76-1.3-15.6,8.41-32.74,12.98-50.49,12.71-16.54-.26-32.72-4.3-48.51-8.94-8.34-2.45-16.62-5.1-24.94-7.6s-17.3-4.89-25.84-7.68-17.28-6.14-25.4-10.38c-2-1.05-3.98-2.15-5.91-3.31-1.64-.98-3.79-1.88-4.77-3.61-1.08-1.9-.31-3.92,.07-5.9,.46-2.4,.91-4.8,1.33-7.2,3.41-19.15,5.72-38.49,6.93-57.9,.15-2.44,.29-4.88,.4-7.32,.05-.96-1.45-.96-1.5,0h0Z"/>
    <path class="cls-2" d="M472.73,436.28c3.84-.91,7.09,.77,10.18,2.89,1.57,1.07,3.08,2.23,4.74,3.16,1.93,1.09,3.91,2.09,5.92,3.03,8.07,3.79,16.56,6.59,24.69,10.22,.87,.39,1.64-.9,.76-1.3-8.55-3.82-17.5-6.72-25.93-10.81-2.07-1-4.17-2.03-6.09-3.29-1.53-1.01-2.99-2.12-4.53-3.11-3.11-1.99-6.44-3.11-10.13-2.24-.94,.22-.54,1.67,.4,1.45h0Z"/>
    <path class="cls-2" d="M517.65,455.4c3.65,1.39,6.79,3.72,9.62,6.37,2.68,2.51,4.99,5.39,7.67,7.89,3.12,2.91,6.15,5.87,8.68,9.33,1.4,1.91,5.26,7.02,2.58,9.3-.69,.58-1.62,.82-2.49,.96-1.31,.21-3.05,.35-4.32-.05-2.79-.87-5.2-3.24-7.13-5.32-4.53-4.87-8.24-10.95-14.83-13.22-.91-.31-1.31,1.13-.4,1.45,6.43,2.21,10.04,8.49,14.5,13.18,2.08,2.19,4.57,4.36,7.47,5.36,1.31,.45,3.07,.3,4.43,.14,1.05-.12,2.11-.35,3.03-.87,3.7-2.09,1.58-6.8-.08-9.52-2.47-4.03-5.81-7.64-9.28-10.83-6.12-5.62-11-12.55-19.05-15.62-.9-.34-1.29,1.1-.4,1.45h0Z"/>
    <path class="cls-2" d="M478.95,453.67c7.42-1.05,14.76,.19,20.92,4.59,5.72,4.09,9.87,10.03,13.71,15.81,2.37,3.57,4.64,7.2,7.05,10.75,.54,.79,1.84,.04,1.3-.76-7.9-11.63-15.26-27.23-29.98-31.27-4.37-1.2-8.93-1.2-13.39-.57-.95,.13-.55,1.58,.4,1.45h0Z"/>
    <path class="cls-2" d="M521.1,483.93c-1.7-.22-3.43,.14-4.72,1.31-1.2,1.08-1.82,2.69-2.07,4.26-.56,3.52,.3,7.55,2.47,10.4,1.13,1.49,2.66,2.59,4.56,2.77,.96,.09,.95-1.41,0-1.5-2.87-.27-4.49-3.55-5.17-5.98-.72-2.59-.99-6.18,.83-8.41,1.03-1.26,2.56-1.54,4.11-1.34,.95,.12,.95-1.38,0-1.5h0Z"/>
    <path class="cls-2" d="M522.22,486.76c2.79,3.04,6.42,8.27,3.77,12.47-1.04,1.64-2.84,2.56-4.68,3.01-1.12,.27-2.27,.37-3.42,.36-1.45-.01-3.37,.02-4.55-.86-4.15-3.09-5.49-8.96-8.06-13.2-1.37-2.26-3.18-4-5.11-5.77-2.34-2.14-4.78-4.16-7.33-6.02-5.79-4.23-12.27-7.59-19.3-9.15-.94-.21-1.34,1.24-.4,1.45,6.92,1.53,13.25,4.84,18.94,9,2.91,2.12,5.65,4.46,8.26,6.93,2.19,2.07,3.76,4.3,5.1,6.99,1.26,2.52,2.34,5.16,3.92,7.51,.64,.96,1.37,1.87,2.2,2.67,.44,.42,.91,.84,1.41,1.17,.66,.45,1.53,.48,2.31,.58,4.19,.56,9.55,.04,12.02-3.91,3.04-4.85-.72-10.71-4-14.29-.65-.71-1.71,.35-1.06,1.06h0Z"/>
    <path class="cls-2" d="M457.4,488.33c5.47,1.28,9.64,5.58,13.06,9.79,3.83,4.71,6.98,9.91,10.44,14.89,.75,1.07,1.54,2.1,2.3,3.16,.94,1.3,1.65,2.75,2.58,4.05,1.8,2.53,3.97,4.48,7.12,4.96,4.17,.64,8.2-.77,9.55-5.06,1.47-4.68-.25-10.18-2.74-14.19-.17-.28-.52-.44-.85-.34-6.53,1.89-8.37,9.57-7.18,15.54,.19,.95,1.64,.55,1.45-.4-1.03-5.14,.44-12.05,6.13-13.69l-.85-.34c2.15,3.48,3.69,8.06,2.81,12.18-.37,1.74-1.26,3.36-2.86,4.23-1.91,1.05-4.53,.95-6.56,.33-3.12-.94-4.99-4.23-6.56-6.84-1.29-2.15-2.92-4.12-4.33-6.21-3.14-4.65-6.15-9.4-9.73-13.73s-7.85-8.48-13.4-9.77c-.94-.22-1.34,1.23-.4,1.45h0Z"/>
    <path class="cls-2" d="M496.93,502.14c-4.41-7.76-7.88-16.13-12.77-23.6-3.91-5.97-9.13-10.28-15.97-12.48-5.33-1.71-10.99-2.3-16.55-2.58-.96-.05-.96,1.45,0,1.5,8.38,.43,17.59,1.49,24.47,6.76,5.59,4.28,8.86,10.82,12.01,16.95,2.45,4.77,4.86,9.55,7.52,14.22,.48,.84,1.77,.08,1.3-.76h0Z"/>
    <path class="cls-2" d="M436.32,481.78c5.92,2.1,12.03,4.4,16.91,8.49,1.19,1,2.29,2.1,3.28,3.3,1.08,1.31,1.81,2.75,2.69,4.19,1.76,2.86,4.36,5.33,6.79,7.62,2.58,2.42,5.28,4.72,7.77,7.23,2.08,2.09,4.21,4.19,4.41,7.29,.23,3.58-3.01,4.84-6.1,4.61-3.9-.3-8.16-2.67-9.34-6.59-.28-.92-1.73-.53-1.45,.4,1.17,3.9,4.87,6.48,8.71,7.37,3.15,.73,7.54,.49,9.15-2.83,.91-1.87,.55-4.09-.14-5.97-.59-1.59-1.78-2.8-2.92-4.03-1.33-1.44-2.76-2.79-4.2-4.12-2.91-2.68-5.92-5.25-8.57-8.2-1.37-1.53-2.5-3.1-3.53-4.86-.86-1.47-1.89-2.85-3.04-4.11-5.27-5.77-12.82-8.68-20.02-11.22-.91-.32-1.3,1.13-.4,1.45h0Z"/>
    <path class="cls-2" d="M462.65,518.23c.29-1.88,.9-3.8,2.13-5.29s2.93-2.4,4.84-2.74c.4-.07,.62-.56,.52-.92-.12-.42-.52-.59-.92-.52-2.13,.37-4.12,1.44-5.5,3.12s-2.18,3.79-2.52,5.95c-.06,.4,.1,.81,.52,.92,.36,.1,.86-.12,.92-.52h0Z"/>
    <path class="cls-2" d="M434.64,504.62c10.82,4.6,17.27,15.25,27.2,21.19,.83,.5,1.59-.8,.76-1.3-9.94-5.95-16.36-16.58-27.2-21.19-.88-.37-1.64,.92-.76,1.3h0Z"/>
    <path class="cls-2" d="M470.21,530.16c2.5-.18,4.91-1.07,6.72-2.85s2.81-4.2,3.19-6.68c.06-.4-.1-.81-.52-.92-.35-.1-.86,.12-.92,.52-.34,2.19-1.14,4.34-2.73,5.94s-3.59,2.33-5.74,2.49c-.96,.07-.96,1.57,0,1.5h0Z"/>
    <path class="cls-2" d="M434.23,503.47c-9.06,2.4-18.83,5.09-27.99,1.69-4.78-1.77-9.06-4.81-13.03-7.95-1.13-.89-2.07-1.97-3.51-2.25-1.58-.31-3.16-.58-4.75-.83-3.34-.52-6.69-.94-10.04-1.42-7.54-1.08-15.09-2.53-21.95-5.96-.86-.43-1.62,.86-.76,1.3,6.18,3.09,12.89,4.65,19.69,5.72,3.34,.52,6.7,.94,10.05,1.42,1.59,.23,3.19,.47,4.77,.74,.86,.15,1.74,.27,2.58,.48,.92,.23,1.47,.77,2.2,1.35,4.09,3.29,8.42,6.43,13.3,8.44,3.85,1.59,7.96,2.26,12.12,2.08,6.01-.25,11.93-1.83,17.71-3.36,.93-.25,.54-1.69-.4-1.45h0Z"/>
    <path class="cls-2" d="M463.89,528.74c2.02,.83,4.17,1.66,6.4,1.39,.4-.05,.75-.31,.75-.75,0-.37-.35-.8-.75-.75-2.1,.25-4.09-.56-6-1.34-.38-.15-.82,.17-.92,.52-.12,.43,.15,.77,.52,.92h0Z"/>
    <path class="cls-2" d="M529.11,453.76c31.08-8.77,62.11-17.71,93.09-26.82,8.74-2.57,17.47-5.15,26.21-7.75,.92-.27,.53-1.72-.4-1.45-30.95,9.2-61.96,18.24-93.01,27.11-8.76,2.5-17.52,4.99-26.28,7.46-.93,.26-.53,1.71,.4,1.45h0Z"/>
    <path class="cls-2" d="M549.87,482.1c31.8,4.56,63.61,9.12,95.41,13.68,8.9,1.28,17.8,2.55,26.69,3.83,.94,.14,1.35-1.31,.4-1.45-31.8-4.56-63.61-9.12-95.41-13.68-8.9-1.28-17.8-2.55-26.69-3.83-.94-.14-1.35,1.31-.4,1.45h0Z"/>
    <path class="cls-2" d="M550.17,489.78c16.14,3.48,32.34,6.7,48.6,9.65s32.54,5.62,48.87,8.01c9.17,1.35,18.34,2.6,27.53,3.78,.95,.12,.95-1.38,0-1.5-32.68-4.18-65.23-9.46-97.56-15.81-9.03-1.77-18.04-3.64-27.04-5.58-.94-.2-1.34,1.24-.4,1.45h0Z"/>
    <path class="cls-2" d="M671.2,499.87c1.99,3.57,3.32,7.45,3.96,11.49,.15,.95,1.6,.55,1.45-.4-.66-4.16-2.06-8.17-4.11-11.85-.47-.84-1.77-.09-1.3,.76h0Z"/>
    <path class="cls-2" d="M677.72,505.19c.96,3.27,1.79,6.58,2.47,9.92,.19,.94,1.64,.54,1.45-.4-.69-3.34-1.51-6.65-2.47-9.92-.27-.92-1.72-.53-1.45,.4h0Z"/>
    <path class="cls-2" d="M681.53,515c23.59-5.6,46.42-13.89,68.98-22.68,11.31-4.4,22.57-8.93,33.89-13.32,2.86-1.11,5.72-2.21,8.59-3.3,2.54-.96,5-2.12,7.53-3.12,4.88-1.93,9.85-3.65,14.79-5.42,11.18-4.01,22.43-8.37,31.92-15.69,.75-.58,0-1.89-.76-1.3-8.49,6.56-18.42,10.74-28.43,14.41-4.94,1.81-9.91,3.51-14.83,5.37-5.19,1.96-10.28,4.17-15.46,6.16-22.58,8.68-44.9,18.03-67.76,25.95-12.77,4.42-25.71,8.38-38.86,11.5-.94,.22-.54,1.67,.4,1.45h0Z"/>
    <path class="cls-2" d="M679.4,505.49c4.1-17.61,8.13-35.24,12.06-52.89s7.83-35.5,11.61-53.28,7.45-35.4,11.04-53.13c3.6-17.73,7.1-35.48,10.53-53.24,3.44-17.85,6.8-35.72,10.07-53.61,.4-2.21,.81-4.43,1.21-6.64,.17-.94-1.27-1.35-1.45-.4-3.23,17.8-6.55,35.59-9.95,53.36s-6.92,35.7-10.52,53.52-7.23,35.45-10.98,53.14-7.57,35.37-11.49,53.03c-3.93,17.74-7.95,35.47-12.06,53.17-.51,2.19-1.02,4.38-1.53,6.57-.22,.94,1.23,1.34,1.45,.4h0Z"/>
    <path class="cls-2" d="M733.87,234.03c20.2-1.09,40.39-2.49,60.57-3.82,20.1-1.32,40.21-2.57,60.35-3.39,11.35-.46,22.7-.77,34.05-.89,.96,0,.97-1.51,0-1.5-20.23,.2-40.44,1.05-60.63,2.19s-40.22,2.53-60.33,3.84c-11.33,.74-22.67,1.45-34.01,2.06-.96,.05-.97,1.55,0,1.5h0Z"/>
    <path class="cls-2" d="M848.1,451.05c7.34-28.97,13.06-58.33,18.05-87.79s9.26-59.03,13.68-88.58c2.48-16.6,5.02-33.2,7.75-49.76,.16-.94-1.29-1.35-1.45-.4-4.88,29.56-9.12,59.21-13.58,88.83-4.45,29.51-9.13,59-14.93,88.29-3.25,16.43-6.86,32.78-10.97,49.01-.24,.94,1.21,1.34,1.45,.4h0Z"/>
    <path class="cls-2" d="M648.95,419.53c14.71,.14,29.25,2.54,43.83,4.21,.96,.11,.95-1.39,0-1.5-14.58-1.66-29.12-4.07-43.83-4.21-.97,0-.97,1.49,0,1.5h0Z"/>
    <path class="cls-2" d="M684.18,434.52c-17.9,5.74-35.69,11.78-53.56,17.6-8.97,2.92-17.96,5.79-26.99,8.53-8.51,2.59-17.24,4.41-25.89,6.48-9.54,2.28-19.01,4.87-28.04,8.75-.88,.38-.12,1.67,.76,1.3,16.26-6.99,33.84-9.34,50.74-14.22,17.96-5.18,35.68-11.29,53.43-17.17,9.97-3.31,19.94-6.61,29.94-9.81,.92-.29,.52-1.74-.4-1.45h0Z"/>
    <path class="cls-2" d="M573.64,446.39c14.52-.36,28.64,3.35,42.93,5.28,.94,.13,1.35-1.32,.4-1.45-14.42-1.95-28.68-5.7-43.33-5.33-.96,.02-.97,1.52,0,1.5h0Z"/>
    <path class="cls-2" d="M618.01,452.95c14.89-5.72,30.09-10.58,45.53-14.57,.93-.24,.54-1.69-.4-1.45-15.44,3.99-30.64,8.85-45.53,14.57-.89,.34-.5,1.79,.4,1.45h0Z"/>
    <path class="cls-2" d="M663.23,436.51c-14.47-1.8-28.95-3.45-43.45-4.94-.96-.1-.95,1.4,0,1.5,14.5,1.49,28.99,3.14,43.45,4.94,.96,.12,.95-1.38,0-1.5h0Z"/>
    <path class="cls-2" d="M619.57,431.85c-15.54,4.68-31.21,8.91-46.99,12.7-.94,.23-.54,1.67,.4,1.45,15.78-3.79,31.45-8.02,46.99-12.7,.92-.28,.53-1.73-.4-1.45h0Z"/>
    <path class="cls-2" d="M503.83,518.41c7.56,.52,14.84,3.63,22.48,3.3,1.26-.05,3.12,.13,3.72-1.17,.51-1.09,.8-2.25,.95-3.44,.3-2.49-.09-5.09-1.14-7.38-1.13-2.47-3.14-4.47-5.82-5.13-.94-.23-1.34,1.22-.4,1.45,2.87,.71,4.66,3.17,5.45,5.9,.42,1.44,.58,2.95,.48,4.45-.06,.83-.26,3.19-1,3.6-.67,.38-2.3,.24-3.06,.24-.98,0-1.95-.04-2.92-.13-2.23-.2-4.44-.63-6.63-1.09-4.01-.84-8.01-1.82-12.11-2.1-.96-.07-.96,1.43,0,1.5h0Z"/>
    <path class="cls-2" d="M523.5,505.71c5.31,1.87,11.44,2.26,16.99,1.57,4.42-.55,10.65-2.2,11.46-7.42,.53-3.45-1.43-6.82-3.37-9.49-.56-.77-1.86-.03-1.3,.76,1.65,2.27,3.45,5.09,3.24,8.03-.14,2.03-1.47,3.56-3.16,4.55-4.4,2.59-10.34,2.61-15.28,2.19-2.77-.23-5.56-.7-8.19-1.63-.91-.32-1.3,1.13-.4,1.45h0Z"/>
    <path class="cls-2" d="M537.95,496.19c4.06,1.12,7.57,3.79,9.79,7.36,.51,.82,1.81,.06,1.3-.76-2.43-3.89-6.26-6.83-10.69-8.05-.93-.26-1.33,1.19-.4,1.45h0Z"/>
    <path class="cls-2" d="M528.18,522.28c5.87-.49,12.33-1.07,17.38-4.41,2.83-1.87,4.64-4.67,6.19-7.63,1.46-2.79,2.53-5.87,2.27-9.06-.32-3.94-2.41-7.43-4.68-10.56-.56-.77-1.86-.03-1.3,.76,2.39,3.29,4.67,7.03,4.51,11.24s-2.41,8.1-4.79,11.22c-4.38,5.74-12.98,6.38-19.59,6.94-.95,.08-.96,1.58,0,1.5h0Z"/>
    <path class="cls-2" d="M348.31,140.87c-3.43-10.53-10.9-18.78-20.68-23.84s-20.34-6.95-30.96-7.41c-7.88-.34-15.76-1.19-23.61-1.88-8.27-.72-16.54-1.47-24.81-2.24-16.37-1.52-32.74-3.09-49.12-4.53-16.36-1.44-32.73-2.75-49.12-3.74-1.9-.11-3.8-.23-5.71-.33-.85-.05-1.89-.28-2.73-.15-.6,.09-1.21,.44-1.77,.69-2.16,.96-4.23,2.12-6.16,3.49-3.51,2.49-6.5,5.63-8.84,9.25-4.81,7.47-6.67,16.44-7.45,25.18-.88,9.83-.41,19.73,0,29.57,.39,9.26,.93,18.63-.04,27.87-.71,6.79-2.23,13.52-3.86,20.14-1.91,7.75-4.15,15.42-6.29,23.11-1.03,3.69-2.03,7.38-2.96,11.1-.24,.94,1.21,1.34,1.45,.4,3.82-15.16,8.81-30.04,11.72-45.43,.93-4.9,1.62-9.81,1.84-14.79,.2-4.59,.13-9.2-.02-13.79-.31-9.7-.97-19.4-.8-29.1,.16-9.03,.96-18.31,4.29-26.79s9.09-14.75,17.07-18.53c.54-.26,1.15-.63,1.73-.77,.86-.21,1.93,.01,2.81,.06,2.07,.12,4.13,.24,6.2,.36,3.97,.24,7.94,.5,11.91,.78,8.11,.56,16.21,1.19,24.31,1.87,32.11,2.67,64.15,6.02,96.26,8.68,11.99,.99,24.17,1.02,35.71,4.83,10.04,3.31,19.29,9.35,24.73,18.62,1.43,2.45,2.57,5.04,3.45,7.73,.3,.91,1.75,.52,1.45-.4h0Z"/>
    <path class="cls-2" d="M104.07,249.57c28.28,10.94,58.39,15.74,88.38,19.07,8.51,.94,17.03,1.78,25.55,2.6,.96,.09,.95-1.41,0-1.5-29.93-2.91-60.05-5.85-89.17-13.69-8.25-2.22-16.4-4.84-24.37-7.93-.9-.35-1.29,1.1-.4,1.45h0Z"/>
    <path class="cls-2" d="M102.32,250.29c-3.91,24.79-1.44,50.08,4.48,74.35s10.64,50.34,13.53,75.93c1.62,14.38,2.73,28.82,3.34,43.28,.04,.96,1.54,.97,1.5,0-1.07-25.49-3.72-50.91-7.92-76.08-2.1-12.57-4.52-25.11-7.47-37.51-1.44-6.05-3.01-12.05-4.18-18.17s-2.15-12.59-2.78-18.95c-1.41-14.13-1.26-28.42,.95-42.46,.15-.94-1.3-1.35-1.45-.4h0Z"/>
    <path class="cls-2" d="M94.71,461.86c1.48-5.8,6.85-8.83,12.29-10.24,6.25-1.62,12.95-1.58,19.31-.77,2.92,.37,5.84,.95,8.66,1.8,3.48,1.06,6.86,2.5,10.31,3.68,9.02,3.08,18.15,5.82,27.08,9.15s17.9,7.36,25.83,12.88c.96,.67,1.91,1.36,2.85,2.08s1.99,1.36,2.45,2.49c.48,1.2,.77,2.53,.45,3.81-.61,2.4-3.11,3.74-5.26,4.53-2.72,1-5.64,1.47-8.51,1.75-1.23,.12-2.47,.2-3.71,.24-1.97,.07-3.72-.6-5.59-1.19-9.85-3.11-19.4-7.06-28.96-10.92-9.56-3.86-19.17-7.68-29.1-10.49-4.89-1.39-9.86-2.53-14.89-3.31-2.34-.36-4.69-.63-7.05-.79-1.69-.12-3.47-.73-4.81-1.77-1.51-1.18-1.94-2.77-.99-4.47,.47-.85-.83-1.6-1.3-.76-1.89,3.41,.37,6.34,3.6,7.68,1.83,.75,3.64,.77,5.57,.97,2.83,.3,5.65,.73,8.45,1.26,10.75,2.06,21.14,5.66,31.32,9.63s20.49,8.43,30.93,12.13c2.54,.9,5.09,1.76,7.67,2.56,1.15,.36,2.42,.93,3.62,1.02,.57,.04,1.17-.02,1.74-.05,2.95-.12,5.92-.4,8.81-1.02,4.86-1.04,11.32-3.73,9.9-9.86-.18-.77-.46-1.54-.82-2.24-.5-.99-1.65-1.64-2.52-2.31-1.96-1.51-3.99-2.93-6.09-4.25-4.32-2.73-8.88-5.07-13.55-7.14-9.29-4.12-18.98-7.21-28.62-10.36-4.86-1.59-9.71-3.19-14.51-4.97-2.72-1.01-5.39-1.91-8.23-2.49-6.69-1.37-13.71-1.74-20.48-.74-5.83,.86-12.32,3.01-15.65,8.24-.75,1.18-1.29,2.49-1.63,3.84-.24,.94,1.21,1.34,1.45,.4h0Z"/>
    <path class="cls-2" d="M94.86,458.58c17.22,2.13,34.11,6.94,49.87,14.19,4.5,2.07,8.9,4.34,13.21,6.79,.84,.48,1.6-.82,.76-1.3-15.35-8.73-32.02-15.12-49.3-18.77-4.81-1.02-9.66-1.81-14.54-2.42-.96-.12-.95,1.38,0,1.5h0Z"/>
    <path class="cls-2" d="M123.22,474.97c1.04,7.32,1.48,14.72,1.33,22.11-.02,.97,1.48,.97,1.5,0,.15-7.53-.32-15.05-1.38-22.51-.14-.95-1.58-.55-1.45,.4h0Z"/>
    <path class="cls-2" d="M155.46,493.52c-20.06,3.98-40.28,7.07-60.55,9.76-20.18,2.68-40.41,5-60.62,7.49-11.26,1.39-22.51,2.83-33.75,4.42-.95,.13-.55,1.58,.4,1.45,20.25-2.86,40.56-5.24,60.86-7.7,20.11-2.43,40.22-4.93,60.24-8.04,11.31-1.75,22.59-3.7,33.81-5.93,.95-.19,.55-1.63-.4-1.45h0Z"/>
    <path class="cls-2" d="M695.53,396.51c-10.81,3.04-21.66,5.96-32.52,8.84-13.25,3.52-26.52,6.97-39.79,10.39-14.11,3.64-28.22,7.23-42.34,10.81-13.57,3.44-27.14,6.85-40.72,10.24-11.41,2.85-22.82,5.69-34.24,8.52-1.22,.3-2.44,.6-3.66,.9-.94,.23-.54,1.68,.4,1.45,11.1-2.74,22.19-5.5,33.28-8.27,13.4-3.35,26.8-6.71,40.19-10.1,14.13-3.57,28.25-7.17,42.37-10.79s26.93-6.95,40.37-10.5c11.19-2.96,22.37-5.95,33.52-9.05,1.18-.33,2.36-.66,3.54-.99,.93-.26,.53-1.71-.4-1.45h0Z"/>
    <path class="cls-2" d="M860.6,409.12c31.68,5.21,63.35,10.41,95.03,15.62,8.86,1.46,17.72,2.91,26.59,4.37,.94,.16,1.35-1.29,.4-1.45-31.68-5.21-63.35-10.41-95.03-15.62-8.86-1.46-17.72-2.91-26.59-4.37-.94-.16-1.35,1.29-.4,1.45h0Z"/>
    <path class="cls-2" d="M460.5,173.18c-1.03-2.21-3.2-3.32-5.43-4-2.98-.92-6.04-1.64-9.07-2.4-6.11-1.53-12.26-2.92-18.43-4.16-.94-.19-1.35,1.26-.4,1.45,5.69,1.15,11.36,2.41,17,3.8,2.78,.69,5.55,1.4,8.32,2.15,2.54,.69,5.5,1.3,6.72,3.92,.41,.87,1.7,.11,1.3-.76h0Z"/>
  </g>
</svg>