<?xml version="1.0" encoding="UTF-8"?>
<svg id="Camada_6" data-name="Camada 6" xmlns="http://www.w3.org/2000/svg" viewBox="0 0 1000 1000">
  <defs>
    <style>
      .cls-1 {
        fill: #4d4d4d;
      }

      .cls-2 {
        fill: #6d7c79;
        opacity: .5;
      }
    </style>
  </defs>
  <path class="cls-2" d="M599.85,351.53h76.61c133.14,0,241.23,108.09,241.23,241.23h0c0,133.14-108.09,241.23-241.23,241.23h-76.61V351.53h0Z" transform="translate(166.01 1351.53) rotate(-90)"/>
  <g>
    <path class="cls-1" d="M440.22,271c-8.07,11.28-8.5,26.18-6.97,39.46,.39,3.36,.91,6.71,1.54,10.03,.66,3.51,1.8,6.96,2.13,10.52s-.31,7.02-3.17,9.34c-2.34,1.89-5.3,2.78-7.85,4.34-1.16,.71-2.24,1.55-3.08,2.61-1.02,1.28-1.38,2.81-1.63,4.4-.52,3.29-.15,6.63,.58,9.86,1.58,7,5.01,13.79,4.87,21.1-.03,1.45,.11,3.29-1.08,4.36-.96,.86-2.35,1.16-3.6,1.28-3.64,.35-7.44-.55-10.84-1.79-3.1-1.13-6.71-2.79-8.69-5.56-.68-.95-1.12-2.09-.77-3.25,.7-2.32,3.08-2.43,5.06-3.08,1.14-.38,2.11-.97,2.68-2.07,.44-.86-.86-1.62-1.3-.76-.72,1.41-2.44,1.55-3.82,1.93-1.13,.31-2.25,.74-3.01,1.67-.89,1.09-1.39,2.42-1.18,3.84,.46,3.14,3.67,5.34,6.22,6.75,3.5,1.93,7.45,3.2,11.42,3.7,2.87,.36,6.8,.51,9.02-1.72,1.12-1.13,1.19-2.47,1.32-3.96,.31-3.59-.38-7.21-1.32-10.66-1.92-7.07-5.47-14.5-3.98-21.99,.37-1.84,1.04-3.21,2.51-4.41,1.18-.96,2.57-1.65,3.93-2.31,2.64-1.29,5.45-2.53,7.26-4.95,4.38-5.87,.75-14.15-.41-20.49-2.54-13.95-3.93-30.02,2.77-43.07,.78-1.52,1.68-2.98,2.67-4.37,.56-.79-.74-1.54-1.3-.76h0Z"/>
    <path class="cls-1" d="M418.35,385.35c1.66-14.73-4.19-29.69-.22-44.25,.25-.93-1.19-1.33-1.45-.4-4.02,14.72,1.85,29.77,.17,44.65-.11,.96,1.39,.95,1.5,0h0Z"/>
    <path class="cls-1" d="M417.84,340.11c-1.05-1.05-2.36-1.58-3.81-1.84-1.6-.29-3.23-.54-4.85-.73-3.22-.37-6.49-.2-9.67,.44-6.54,1.32-12.47,4.66-17.72,8.68-.76,.58,0,1.88,.76,1.3,4.84-3.71,10.22-6.84,16.2-8.28,2.94-.71,5.96-.97,8.98-.77,1.55,.1,3.05,.43,4.59,.63,1.63,.21,3.24,.41,4.45,1.63,.68,.68,1.74-.38,1.06-1.06h0Z"/>
    <path class="cls-1" d="M382.06,348.09c2.76,.35,5.35-.54,7.91-1.48,2.76-1.02,5.48-1.76,8.42-2.06,5.49-.56,11.13-.25,16.38-2.23,.9-.34,.51-1.79-.4-1.45-5.27,1.98-10.92,1.61-16.42,2.22-2.6,.29-5.07,.86-7.53,1.75-2.71,.99-5.41,2.12-8.36,1.74-.95-.12-.95,1.38,0,1.5h0Z"/>
    <path class="cls-1" d="M407.42,343c-.86,2.6-1.18,5.4-2.3,7.91-.3,.67-.64,1.41-1.19,1.9-.65,.58-1.63,.83-2.46,1.11-1.4,.48-2.84,.83-4.29,1.09-6.04,1.11-12.24,.69-18.34,.89-.96,.03-.97,1.53,0,1.5,6.66-.22,13.43,.26,19.99-1.2,1.58-.35,3.13-.82,4.62-1.44,.65-.27,1.27-.46,1.72-1.01s.79-1.14,1.09-1.76c1.33-2.71,1.67-5.76,2.61-8.61,.3-.92-1.14-1.31-1.45-.4h0Z"/>
    <path class="cls-1" d="M379.29,357.07c6.43-7.43,17.36-7.55,26.37-6.57,.96,.1,.95-1.4,0-1.5-9.4-1.02-20.75-.73-27.43,7.01-.63,.73,.43,1.79,1.06,1.06h0Z"/>
    <path class="cls-1" d="M364.48,305.34c1.84,3.1,3.79,6.21,5.2,9.54,.9,2.13,1.57,4.48,1.03,6.79-.59,2.52-2.29,4.65-3.97,6.54-1.24,1.4-2.55,2.72-3.88,4.02-.76,.75-1.52,1.39-2.04,2.33s-.97,1.89-1.39,2.87c-3.26,7.57-3.88,16.05-2.81,24.16,.54,4.09,1.46,8.2,2.9,12.08,.99,2.67,1.79,5.31,2.39,8.09,1.01,4.64,1.79,10.1,5.65,13.33,2.1,1.76,4.74,2.57,7.43,2.89,.88,.1,1.77,.16,2.66,.17s1.31-.28,2-.81c1.1-.86,1.98-1.95,2.66-3.16,1.5-2.66,2.1-5.7,3.02-8.58,.48-1.51,1.04-3,1.84-4.37,.9-1.53,2.05-2.57,3.42-3.66s2.29-3.31,2.34-5.03c.04-1.45-.62-2.75-1.64-3.75-2.34-2.31-5.76-3.31-8.63-4.77-2.55-1.3-5.31-3.15-4.06-6.38,.39-1.01,1.03-1.94,1.69-2.79,.59-.75-.47-1.82-1.06-1.06-2.05,2.62-3.66,6.04-1.11,8.89,2.15,2.4,5.59,3.43,8.4,4.81,2.28,1.12,5.52,2.79,4.79,5.85-.22,.91-.68,1.79-1.22,2.55-.36,.51-.87,.79-1.35,1.18-.64,.53-1.22,1.12-1.74,1.77-1.92,2.4-2.85,5.35-3.69,8.25s-1.54,5.87-3.53,8.09c-.43,.48-1.06,1.21-1.67,1.43-.71,.26-1.87,0-2.62-.06-1.56-.15-3.15-.48-4.59-1.11-4.78-2.11-6.07-7.23-7.08-11.89-.59-2.69-1.12-5.41-2.01-8.02-1.21-3.56-2.44-7-3.16-10.71-1.59-8.16-1.47-16.86,1.35-24.75,.71-1.98,1.52-4.36,3.01-5.88,1.34-1.36,2.73-2.66,4.02-4.06,1.79-1.93,3.58-4.03,4.6-6.49,2-4.82-.55-9.72-2.89-13.92-.96-1.73-1.97-3.43-2.98-5.13-.49-.83-1.79-.08-1.3,.76h0Z"/>
    <path class="cls-1" d="M341.31,348.74c6.47,13.93,.02,29.03,.03,43.5,0,6.33,1.75,12.59,3.64,18.6,1.88,5.98,4.27,11.84,7.33,17.32s6.57,10.26,10.98,14.43c2.17,2.05,4.53,3.91,7.06,5.5,3.02,1.9,6,3.83,9.23,5.38,6.09,2.91,13.27,4.61,19.69,1.67,4.4-2.01,8.18-5.63,11.12-9.41,5.55-7.16,9.69-18.45,2.18-25.81-.92-.9-1.96-1.68-3.05-2.36-.82-.52-1.57,.78-.76,1.3,4.12,2.6,6.58,6.65,6.43,11.58s-2.35,9.33-5.06,13.15-6.29,7.37-10.46,9.67c-6.22,3.43-13.48,1.76-19.53-1.17-3.05-1.47-5.85-3.32-8.73-5.09-2.49-1.53-4.8-3.33-6.93-5.33-4.29-4.03-7.81-8.82-10.7-13.93-2.97-5.25-5.29-10.84-7.13-16.57s-3.66-11.8-3.8-17.84c-.35-15.2,6.56-30.67-.25-45.32-.41-.87-1.7-.11-1.3,.76h0Z"/>
    <path class="cls-1" d="M383.58,404.13c.32,4.68,1.05,9.57,3.15,13.82,1.67,3.38,4.61,6.11,8.62,5.38,2.94-.54,5.48-2.56,7.61-4.53,.71-.66-.35-1.72-1.06-1.06-2.67,2.46-6.96,5.78-10.68,3.43-3.08-1.95-4.31-6.24-5.08-9.57-.56-2.45-.89-4.95-1.06-7.46-.07-.96-1.57-.97-1.5,0h0Z"/>
    <path class="cls-1" d="M402.97,418.83c.06-.04,.31-.14,.11-.07,.1-.03,.19-.07,.29-.09,.11-.03,.22-.05,.33-.08,.07-.01,.13-.02,.2-.03,.14-.02-.05,0,.04,0,.58-.06,1.17-.08,1.76-.07s1.18,.05,1.77,.11c.15,.02,.29,.03,.44,.05s-.05,0,.04,0c.05,0,.11,.02,.16,.02,.22,.03,.44,.07,.66,.12,.4,.09,.81-.12,.92-.52,.1-.38-.13-.84-.52-.92-1.15-.25-2.36-.35-3.54-.36-.66-.01-1.32,.02-1.98,.11-.49,.07-1,.18-1.42,.45-.34,.22-.48,.67-.27,1.03,.2,.34,.68,.49,1.03,.27h0Z"/>
    <path class="cls-1" d="M385.06,403.93c-.27-1.54-.57-3.1-.52-4.68s.53-2.86,1.36-4.11c.54-.81-.76-1.56-1.3-.76-.95,1.42-1.48,3.02-1.56,4.73s.27,3.5,.57,5.21c.07,.4,.56,.62,.92,.52,.42-.12,.59-.52,.52-.92h0Z"/>
    <path class="cls-1" d="M384.52,394.97c1.5,4.95,5.43,8.95,9.76,11.61s9.7,4.38,14.68,3c2.71-.75,4.91-2.45,6.5-4.74,.55-.79-.75-1.54-1.3-.76-3.67,5.26-10.32,5.22-15.74,2.95s-10.71-6.73-12.45-12.47c-.28-.92-1.73-.53-1.45,.4h0Z"/>
    <path class="cls-1" d="M385.77,395.3c2.05-1.7,4.82-2,7.38-1.92,2.97,.09,5.9,.68,8.81,1.23s5.61,1.13,8.46,1.18c2.11,.03,4.39-.29,6-1.77,2.33-2.15,2.27-5.78,1.93-8.67-.11-.95-1.61-.96-1.5,0,.29,2.42,.54,5.72-1.44,7.56-1.56,1.46-3.99,1.47-5.99,1.34-5.7-.37-11.19-2.37-16.93-2.38-2.79,0-5.59,.55-7.78,2.37-.74,.62,.32,1.67,1.06,1.06h0Z"/>
    <path class="cls-1" d="M434.18,303.09c-2.09-6.31-6.14-11.53-12.08-14.62-5.45-2.83-11.63-3.82-17.67-4.44-5.52-.56-11.16-1.38-16.69-.51-5.82,.92-11.78,2.96-16.62,6.39s-8.47,8.95-6.72,15.25c.26,.93,1.71,.53,1.45-.4-3.24-11.65,11.86-17.77,20.75-19.52,2.32-.46,4.78-.81,7.15-.65,2.75,.18,5.51,.47,8.25,.71,5.74,.5,11.59,1.2,16.97,3.37,6.73,2.72,11.49,7.94,13.77,14.82,.3,.91,1.75,.52,1.45-.4h0Z"/>
    <path class="cls-1" d="M440.66,270.66c-1.97,.44-4.02,.85-6.05,.57-1.86-.25-3.57-1.09-5.19-2-2.62-1.47-5.12-3.13-7.67-4.72-1.74-1.08-3.63-1.95-5.48-2.82-7.41-3.49-15.14-6.34-23.01-8.61-16.34-4.69-34.11-7.3-51-4.26-7.61,1.37-15.11,4.06-21.42,8.6s-11.31,11.07-14.32,18.43c-.84,2.05-1.53,4.15-2.09,6.29-.67,2.52-1.02,5.09-1.61,7.62-1.39,5.98-2.12,12.12-2.17,18.26-.08,11.1,2.13,22.02,5.21,32.63,2.78,9.61,6.31,19.01,8.62,28.75,2.07,8.76,2.95,17.93,.3,26.67-.68,2.23-1.56,4.38-2.62,6.46-.44,.86,.86,1.62,1.3,.76,4.15-8.13,5.19-17.1,4.01-26.08s-4.37-18.49-7.25-27.51c-3.28-10.28-6.37-20.69-7.53-31.46-.63-5.83-.71-11.72-.15-17.56,.3-3.14,.8-6.26,1.47-9.34,.56-2.55,.97-5.13,1.59-7.67,1.98-8.17,5.88-15.84,12.03-21.66,5.58-5.27,12.62-8.68,19.99-10.63,16.45-4.34,34.33-2.24,50.6,1.89,8.14,2.07,16.15,4.78,23.85,8.15,4.01,1.76,7.83,3.7,11.54,6.03s7.3,5.05,11.61,5.34c1.96,.13,3.93-.26,5.83-.68,.94-.21,.54-1.66-.4-1.45h0Z"/>
    <path class="cls-1" d="M342.6,347.98c-1.48-3.49-3.42-6.77-6.12-9.45-2.45-2.43-5.39-4.29-8.36-6.02-2.6-1.51-6.71-1.42-9.48-.43-2.62,.94-4.73,2.87-5.85,5.42-1.38,3.14-1.21,6.64-.42,9.91,.91,3.77,1.49,7.62,2.45,11.38s2.2,7.46,4.18,10.78c1.77,2.97,4.17,5.87,7.47,7.1,2.68,1,6.2,1.62,8.75-.05,2.93-1.92,2.8-5.74,2.14-8.78-.2-.94-1.65-.54-1.45,.4,.52,2.42,.81,5.81-1.72,7.24-2.07,1.17-4.8,.61-6.92-.12-3.17-1.09-5.42-3.88-7.08-6.71s-2.83-6.14-3.71-9.4-1.53-6.67-2.2-10.03c-.63-3.16-1.51-6.23-.71-9.46,1.44-5.81,7.43-7.93,12.83-6.37,1.69,.49,3.35,1.79,4.8,2.77s2.75,2,3.98,3.18c2.73,2.64,4.64,5.89,6.11,9.36,.37,.89,1.67,.12,1.3-.76h0Z"/>
    <path class="cls-1" d="M430.42,376.53c1.13-3.13,1.15-6.39,.77-9.66-.17-1.5-.42-3-.62-4.5-.24-1.73-.65-3.72-.29-5.45,1.33-6.43,4.78-12.35,6.98-18.5,.33-.91-1.12-1.3-1.45-.4-2.22,6.2-5.4,12.07-6.98,18.5-.36,1.45-.11,3,.06,4.47,.19,1.58,.44,3.15,.66,4.72,.48,3.52,.65,7.03-.57,10.42-.33,.91,1.12,1.3,1.45,.4h0Z"/>
    <path class="cls-1" d="M415.1,423.74c6.97-15.89,14.03-32.27,15.67-49.74,.09-.96-1.41-.95-1.5,0-1.61,17.17-8.61,33.35-15.47,48.98-.38,.88,.91,1.64,1.3,.76h0Z"/>
    <path class="cls-1" d="M416.21,418.38c1.42,4.59,2.49,9.29,4.01,13.86,.36,1.09,.75,2.18,1.18,3.25,.35,.87,.65,2.06,1.29,2.75,.92,1,2.32,.74,3.31,.02,1.21-.88,2.1-2.21,2.89-3.46,1.23-1.95,2.35-3.95,3.63-5.86,2.76-4.13,5.8-8.06,8.56-12.19,1.35-2.01,2.37-3.85,1.95-6.35s-1.92-4.72-2.89-7.06c-.36-.88-1.82-.49-1.45,.4,.72,1.75,1.7,3.38,2.36,5.16,.8,2.15,.74,4.03-.53,5.97-2.34,3.59-4.92,7.02-7.38,10.52-1.21,1.72-2.4,3.47-3.52,5.26-.89,1.42-1.67,2.92-2.62,4.3-.46,.67-2.04,3.07-3.11,2.36-.31-.21-.49-.88-.64-1.21-.23-.53-.44-1.06-.64-1.6-.39-1.01-.74-2.04-1.08-3.07-1.44-4.44-2.5-8.98-3.87-13.44-.28-.92-1.73-.53-1.45,.4h0Z"/>
    <path class="cls-1" d="M441.85,383.15c-1.69,1.15-3.66,2.08-4.26,4.21-.78,2.77-1.64,5.47-2.59,8.19-.66,1.89-1.63,4-.77,5.98,.56,1.28,1.74,2.1,3.04,2.52,2.45,.79,6.49,.32,7.97-2.1,.46-.76,.51-1.87,.72-2.74s.46-1.78,.77-2.64c.34-.92,.78-1.85,1.55-2.49,.82-.68,1.89-1.06,2.84-1.52,1.82-.86,3.53-1.89,5.17-3.07,.78-.56,.03-1.86-.76-1.3-2.22,1.59-4.59,2.67-6.99,3.93-1.78,.94-2.72,2.43-3.36,4.31-.24,.69-.43,1.4-.61,2.1-.22,.85-.26,2.15-.81,2.83-.78,.96-2.29,1.37-3.46,1.48-1.25,.12-2.65-.05-3.71-.77-1.41-.96-1.34-2.44-.89-3.92,.83-2.74,1.96-5.38,2.75-8.13,.35-1.23,.41-2.64,1.32-3.6,.79-.83,1.87-1.35,2.81-1.99,.8-.54,.05-1.84-.76-1.3h0Z"/>
    <path class="cls-1" d="M442.17,384.44c4.8-1.29,8.87-4.29,13.52-5.96,.9-.33,.51-1.78-.4-1.45-4.64,1.68-8.72,4.68-13.52,5.96-.93,.25-.54,1.7,.4,1.45h0Z"/>
    <path class="cls-1" d="M455.3,378.82c1.74,.67,3.04,2.18,4.16,3.61,1.21,1.55,2.26,3.2,3.51,4.72,1.45,1.77,3.39,3.17,5.04,4.75,1.77,1.7,3.46,3.49,4.99,5.41,.6,.75,1.66-.31,1.06-1.06-1.6-2.01-3.37-3.87-5.23-5.64-1.71-1.62-3.66-3.05-5.12-4.92-2.33-2.98-4.28-6.87-8.01-8.32-.9-.35-1.29,1.1-.4,1.45h0Z"/>
    <path class="cls-1" d="M485.24,410.02c-2.16-4.11-.97-11.35-6.14-13.41-1.39-.55-2.84-.26-4.3-.34-1.86-.1-3.71-.4-5.55-.68-3.31-.51-6.75-1.14-10.09-.59-1.43,.24-2.85,.72-3.93,1.7-1.34,1.22-2.56,2.55-3.67,3.98-2.25,2.91-3.96,6.21-5.06,9.72-.57,1.82-.97,3.69-1.23,5.58-.19,1.44-.56,3.05,.18,4.39,1.11,2.02,3.56,1.72,5.38,.97,2.15-.89,4.99-2.69,5.96-4.94,.75-1.74,1.11-3.43,2.43-4.88s3.05-2.17,4.97-2.45c.95-.14,.55-1.59-.4-1.45-2.67,.39-4.95,1.72-6.5,3.94-.78,1.12-1.31,2.39-1.72,3.68-.34,1.08-1.05,1.82-1.89,2.56-1.4,1.22-3.85,3-5.85,2.6-1.25-.25-1.34-1.49-1.25-2.56,.15-1.75,.43-3.49,.86-5.2,.81-3.27,2.15-6.38,3.99-9.2,1.69-2.59,4.08-6.01,7.22-6.82s6.29-.2,9.3,.26,6,1.02,9.03,.89,4.23,2.7,4.85,5.21,.87,5.37,2.14,7.78c.45,.86,1.74,.1,1.3-.76h0Z"/>
    <path class="cls-1" d="M443.59,382.67c-2.31-1.68-4.86-1.39-7.37-.36-2.3,.95-4.69,2.31-7.21,1.35-.9-.34-1.29,1.11-.4,1.45,2.51,.96,4.94-.03,7.25-1.03,1.08-.47,2.21-.97,3.39-1.12,1.33-.17,2.51,.23,3.58,1.01,.78,.57,1.53-.73,.76-1.3h0Z"/>
    <path class="cls-1" d="M431.45,374.67c3.27-3.93,8.18-3.85,12.85-3.25,1.09,.14,2.18,.31,3.27,.45,1.18,.16,1.89,.3,2.65,1.3,1.26,1.65,1.8,3.73,3.1,5.37,.6,.76,1.65-.31,1.06-1.06-1.43-1.82-1.89-4.29-3.59-5.93-.89-.85-1.74-.99-2.91-1.14-1.25-.16-2.49-.35-3.74-.51-5.01-.63-10.27-.48-13.75,3.71-.61,.74,.44,1.8,1.06,1.06h0Z"/>
    <path class="cls-1" d="M427.49,436.9c5.11,4.44,10.93,7.82,16.71,11.3,5.46,3.29,10.87,6.85,14.89,11.89,2.63,3.31,4.51,7.12,5.8,11.13,.29,.92,1.74,.52,1.45-.4-2.16-6.75-6.01-12.58-11.45-17.12-5.04-4.2-10.87-7.27-16.42-10.72-3.46-2.15-6.82-4.47-9.9-7.15-.73-.63-1.79,.43-1.06,1.06h0Z"/>
    <path class="cls-1" d="M499.57,457.29c-1.69-3.58-4.06-6.78-5.88-10.3-.86-1.66-1.58-3.4-1.97-5.24-.45-2.14-.11-4.07,.12-6.2,.97-9.18-3.22-17.79-6.9-25.92-.4-.88-1.69-.12-1.3,.76,1.95,4.32,3.99,8.63,5.34,13.18,.65,2.18,1.15,4.41,1.36,6.67,.23,2.43,.03,4.74-.28,7.15-1.02,7.88,5.09,14.04,8.21,20.66,.41,.87,1.7,.11,1.3-.76h0Z"/>
    <path class="cls-1" d="M463.88,472.71c3.52-.21,6.94-1.02,10.23-2.26s6.64-3.09,10.02-4.5c6.56-2.73,13.37-4.95,19.39-8.79,.81-.52,.06-1.82-.76-1.3-5.92,3.78-12.6,5.96-19.04,8.64-3.18,1.32-6.19,3-9.39,4.26s-6.85,2.24-10.46,2.45c-.96,.06-.97,1.56,0,1.5h0Z"/>
    <path class="cls-1" d="M496.65,452.01c10.16,2.46,11.72,15.94,9.65,24.45-.23,.94,1.22,1.34,1.45,.4,2.27-9.31,.32-23.62-10.7-26.29-.94-.23-1.34,1.22-.4,1.45h0Z"/>
    <path class="cls-1" d="M507.66,469.17c-12.53,5.23-24.45,12.81-38.04,15.04l.73,.19c-2.48-3.17-5.37-6.06-5.49-10.33-.03-.96-1.53-.97-1.5,0,.13,4.72,3.19,7.88,5.93,11.39,.17,.22,.48,.23,.73,.19,13.59-2.23,25.5-9.82,38.04-15.04,.88-.37,.49-1.82-.4-1.45h0Z"/>
    <path class="cls-1" d="M466.18,485.45c6.25,1.15,12.57,.93,18.86,.15,3.02-.37,6.01-.91,9.02-1.32,2.72-.37,5.48,0,7.87-1.64,.79-.54,.04-1.84-.76-1.3-2.25,1.55-4.95,1.1-7.51,1.49-3.03,.47-6.06,.95-9.1,1.32-5.98,.72-12.03,.94-17.98-.15-.94-.17-1.35,1.27-.4,1.45h0Z"/>
    <path class="cls-1" d="M465.26,485.19c4.47,10.83,8.77,21.72,12.89,32.69,1.03,2.75,2.05,5.5,3.06,8.26s2.14,5.31,2.9,8.03c.36,1.29,.43,2.72,.65,4.04,.25,1.5,.52,3,.81,4.5,.55,2.83,1.18,5.64,1.84,8.45,1.51,6.31,3.24,12.57,4.9,18.84,.25,.93,1.69,.54,1.45-.4-2.95-11.14-6.14-22.27-7.85-33.69-.43-2.89-1.58-5.58-2.58-8.33s-1.96-5.36-2.96-8.03c-2.05-5.5-4.15-10.99-6.3-16.46-2.4-6.12-4.85-12.22-7.36-18.29-.36-.88-1.82-.49-1.45,.4h0Z"/>
    <path class="cls-1" d="M507.21,473.59c1.49,2.85,2.64,5.92,3.9,8.87,2.73,6.37,5.41,12.76,8.06,19.16,6.69,16.14,13.25,32.35,19.31,48.74,2.61,7.07,5.23,14.18,7.23,21.45,.26,.93,1.7,.53,1.45-.4-1.75-6.33-3.97-12.54-6.22-18.71-2.98-8.17-6.12-16.29-9.32-24.37-5.93-15-12.08-29.91-18.4-44.75-1.52-3.58-2.91-7.3-4.71-10.75-.45-.86-1.74-.1-1.3,.76h0Z"/>
    <path class="cls-1" d="M504.9,487.01c1.57,2.54,2.21,5.44,3.13,8.24,.64,1.95,1.41,4.88,3.64,5.54,1.56,.45,3.32-.43,3.79-2.01,.58-1.97-.92-3.33-2.51-4.12-.87-.43-2.08-.95-3.02-.37-.83,.51-.93,1.57-.86,2.45,.22,2.81,1.5,5.56,2.46,8.18,1.48,4.09,2.61,8.34,3.87,12.5,1.9,6.28,3.64,12.61,4.92,19.05,.3,1.54,.56,3.08,.79,4.63,.13,.86,.4,1.67,.94,2.36,.74,.95,2.04,1.67,3.24,1.15,1.38-.6,1.7-2.6,1.24-3.89s-2.03-2.45-3.33-2.88c-1.81-.59-3.27,.43-3.18,2.37,.13,2.89,1.15,5.77,2.27,8.4,2.44,5.72,6.01,10.99,7.39,17.12,.21,.94,1.66,.54,1.45-.4-1.86-8.29-7.88-15.03-9.38-23.41-.11-.6-.63-2.34,.07-2.73,.47-.27,1.29,.2,1.68,.43,1.04,.61,2.39,2.01,1.49,3.32-.67,.97-1.82-.34-2.12-.99-.36-.78-.35-1.74-.49-2.58-.22-1.26-.45-2.52-.7-3.78-1.01-5.02-2.31-9.98-3.73-14.9-1.29-4.45-2.9-8.84-4.03-13.33-.52-2.05-1.37-4.01-2.07-6-.38-1.08-.75-2.17-1.01-3.29-.14-.57-.53-1.76-.21-2.33,.29-.52,1.21,0,1.68,.24,.83,.42,1.89,1,1.78,2.09-.09,.89-1.03,1.47-1.87,1.29-1.2-.26-1.7-1.81-2.1-2.8-.46-1.14-.81-2.32-1.16-3.49-.71-2.36-1.43-4.72-2.73-6.83-.51-.82-1.8-.07-1.3,.76h0Z"/>
    <path class="cls-1" d="M545.94,572.46c2.66,7.6,5.02,15.35,6.43,23.29,.97,5.46,1.56,11.15,.8,16.68-.51,3.66-1.68,7.4-4.13,10.25-2.16,2.5-5.08,4.06-8.27,4.83-8.53,2.05-17.96-.57-26.03-3.31-5.49-1.86-10.84-4.13-16.08-6.6-2.84-1.34-5.64-2.74-8.43-4.19-2.93-1.53-6.13-2.96-8.8-4.92-16.23-11.9-32.08-24.33-48.94-35.34-2.1-1.37-4.22-2.72-6.36-4.05-.82-.51-1.58,.79-.76,1.3,17.64,10.96,34.07,23.68,50.74,36.03,1.95,1.44,3.87,3.11,5.99,4.29,1.47,.82,2.95,1.63,4.43,2.43,2.89,1.55,5.8,3.05,8.75,4.49,5.39,2.63,10.89,5.06,16.52,7.12,8.58,3.13,18.26,5.98,27.47,4.57,3.43-.52,6.75-1.82,9.37-4.13,2.76-2.43,4.47-5.81,5.37-9.33,1.26-4.96,1.14-10.23,.56-15.28-.86-7.49-2.76-14.84-5.03-22.02-.69-2.18-1.41-4.34-2.17-6.49-.32-.91-1.77-.52-1.45,.4h0Z"/>
    <path class="cls-1" d="M474.01,502.41c-8.19-8.31-14.46-18.15-21.19-27.62-6.34-8.91-13.33-17.61-22.73-23.46-5.83-3.63-12.35-5.96-19.1-7.17-.94-.17-1.35,1.28-.4,1.45,6,1.07,11.81,3.02,17.12,6.05,4.77,2.73,9.01,6.24,12.81,10.19,7.72,8.04,13.57,17.61,20.06,26.61,3.8,5.27,7.81,10.38,12.37,15.01,.68,.69,1.74-.37,1.06-1.06h0Z"/>
    <path class="cls-1" d="M437.13,457.57c1.44,14.52,1.5,29.16,.56,43.72-.99,15.23-3.09,30.42-6.57,45.28-1.83,7.81-4.06,15.53-6.81,23.07-.33,.91,1.12,1.3,1.45,.4,5.04-13.78,8.35-28.16,10.59-42.64,2.32-15.03,3.49-30.26,3.47-45.47-.01-8.13-.38-16.26-1.18-24.35-.09-.95-1.6-.96-1.5,0h0Z"/>
    <path class="cls-1" d="M434.81,516.01c-15.94,1.58-31.95,2.33-47.96,2.26-.97,0-.97,1.5,0,1.5,16.01,.07,32.02-.68,47.96-2.26,.95-.09,.96-1.6,0-1.5h0Z"/>
    <path class="cls-1" d="M419.85,644.28c.49-4.9,.99-9.8,1.87-14.65,.44-2.41,.98-4.8,1.65-7.15,.63-2.19,1.49-4.3,2.07-6.5,1.21-4.6,.62-9.69,.57-14.4l-.16-14.85-.19-17.32c-.01-.96-1.51-.97-1.5,0,.11,10.06,.22,20.13,.33,30.19l.08,7.67c.03,2.48,.15,5-.37,7.44-.47,2.21-1.35,4.31-2.01,6.46-.69,2.27-1.24,4.57-1.7,6.9-1.05,5.35-1.6,10.79-2.15,16.21-.1,.96,1.4,.95,1.5,0h0Z"/>
    <path class="cls-1" d="M384.79,535.66c15.4,1.87,31.19,2.67,46.35-1.29,.93-.24,.54-1.69-.4-1.45-15.02,3.93-30.69,3.09-45.95,1.24-.96-.12-.95,1.39,0,1.5h0Z"/>
    <path class="cls-1" d="M405.39,448.82c-2.83,5.66-7.27,10.06-13.44,11.82-4.39,1.25-8.88,1.07-13.38,1.28-1.64,.07-3.47,.17-4.91,1.05-.21,.13-.39,.38-.37,.65,.73,10.52-8.45,17.13-14.16,24.7-1.42,1.88-2.66,3.88-3.56,6.06-1.26,3.04-1.22,6.68-1.45,9.93-.52,7.57-.39,15.17,.1,22.74,.99,15.22,3.41,30.29,4.98,45.45,.79,7.56,1.36,15.16,1.43,22.77,.03,3.03-.02,5.94,.65,8.91,.58,2.55,1.5,5.02,2.57,7.4,4.75,10.6,14.01,21.38,10.1,33.72h1.45c-.14-.72-.28-1.45-.42-2.17-.18-.95-1.63-.55-1.45,.4,.14,.72,.28,1.45,.42,2.17,.15,.77,1.24,.66,1.45,0,3.41-10.78-2.82-20.53-7.69-29.7-2.53-4.77-4.96-9.83-5.49-15.27-.34-3.52-.09-7.14-.22-10.68-.14-3.8-.4-7.59-.72-11.38-1.3-15.2-3.76-30.27-5.1-45.46-.67-7.63-1.05-15.3-.85-22.97,.1-3.88,.36-7.76,.8-11.61,.32-2.85,1.34-5.19,2.9-7.58,5.78-8.87,16.57-15.58,15.75-27.42l-.37,.65c1.23-.76,2.84-.79,4.24-.85,2.13-.09,4.26-.06,6.39-.19,5.2-.31,10.36-1.52,14.57-4.74,3.06-2.34,5.35-5.48,7.07-8.9,.43-.86-.86-1.62-1.3-.76h0Z"/>
    <path class="cls-1" d="M359.38,487.05c-2.89-9.24-4.47-18.86-4.62-28.55-.03-1.75,.06-3.63-.74-5.24s-2.53-2.09-3.99-2.86c-2.93-1.55-5.84-3.15-8.69-4.85-10.47-6.24-20.5-14.17-25.39-25.68-3.07-7.23-3.83-15.13-3.32-22.91,.06-.96-1.44-.96-1.5,0-.45,6.95,.09,14.03,2.36,20.65,1.94,5.65,5.08,10.77,9.08,15.2s8.96,8.27,14.06,11.58c2.77,1.8,5.62,3.47,8.51,5.07,1.47,.81,2.95,1.61,4.43,2.39,.75,.39,1.55,.74,2.27,1.18,1.04,.65,1.27,1.93,1.36,3.07,.21,2.53,.11,5.09,.28,7.62s.45,5.19,.83,7.76c.78,5.41,2,10.74,3.63,15.96,.29,.92,1.74,.53,1.45-.4h0Z"/>
    <path class="cls-1" d="M311.18,396.72c-3.54,1.66-5.27,5.19-8.2,7.57-2.67,2.17-4.73,4.88-4.93,8.44-.11,1.99,.54,3.96,1.05,5.86,.55,2.01,1.17,4,1.88,5.96,1.44,3.99,3.2,7.87,5.36,11.52,1.08,1.82,2.26,3.58,3.54,5.26,.68,.89,1.67,1.54,2.55,2.21,2.13,1.64,4.33,3.2,6.55,4.71,5.37,3.63,10.95,7.01,16.78,9.85,2.92,1.42,5.92,2.72,9.03,3.67,2.42,.73,5.04,1.33,7.58,1.05,.95-.1,.96-1.6,0-1.5-4.65,.49-9.56-1.63-13.69-3.5-5.54-2.51-10.82-5.58-15.93-8.87-2.35-1.51-4.66-3.08-6.92-4.72-.96-.7-1.92-1.41-2.86-2.14-1.11-.87-1.97-1.69-2.8-2.86-4.68-6.54-7.83-14.11-9.84-21.86-.56-2.16-1.11-4.23-.47-6.44,.56-1.93,1.79-3.58,3.31-4.88s2.79-2.65,4.11-4.15,2.77-3,4.66-3.89c.87-.41,.11-1.7-.76-1.3h0Z"/>
    <path class="cls-1" d="M300.94,406.25c-1.06-.58-2.82-.04-3.91,.16-2.56,.47-5.08,1.12-7.6,1.78-7.69,2.02-15.31,4.34-22.88,6.79-7.97,2.58-15.9,5.29-23.69,8.37-3.07,1.21-6.13,2.47-9.11,3.91-1.83,.88-3.78,1.81-5.32,3.15-.73,.64-1.26,1.5-1.83,2.28-1.18,1.62-2.28,3.29-3.33,5-2.03,3.32-3.83,6.77-5.49,10.28-3.43,7.26-6.26,14.77-9.29,22.2-.36,.89,1.09,1.28,1.45,.4,5.23-12.84,9.93-26.19,18.21-37.47,1.35-1.84,2.92-2.8,4.95-3.84,2.63-1.36,5.36-2.52,8.1-3.64,14.83-6.03,30.23-10.95,45.66-15.18,3.09-.85,6.18-1.67,9.32-2.32,.94-.2,1.95-.4,2.85-.5,.3-.03,.6-.06,.91-.06,.07,0,.46,.04,.18,0,.17,.02,.18,.06,.06,0,.85,.46,1.6-.83,.76-1.3h0Z"/>
    <path class="cls-1" d="M208.36,469.43c-10.4,21.78-16.73,45.2-21.33,68.82-4.63,23.8-7.59,47.88-11.5,71.79-1.88,11.47-4.65,22.98-4.88,34.65-.11,5.46,.42,11.04,2.3,16.21s4.8,9.3,8.79,12.72,8.48,5.79,13.3,7.5c1.09,.39,2.21,.81,3.35,.99,1.67,.25,3.37,.38,5.05,.58,3.46,.42,6.92,.87,10.37,1.35,13.01,1.82,25.96,4.04,38.9,6.27,26.04,4.48,52.17,9.03,78.6,10.32,3.21,.16,6.43,.26,9.65,.32,.97,.02,.97-1.48,0-1.5-26.14-.46-52.03-4.48-77.76-8.86-12.8-2.18-25.59-4.45-38.42-6.44-6.3-.98-12.61-1.88-18.93-2.67-3.09-.39-6.34-.46-9.31-1.44-2.49-.82-4.92-1.84-7.24-3.08-4.61-2.47-8.78-5.87-11.73-10.23-3.09-4.58-4.66-9.99-5.19-15.45-1.1-11.44,1.53-22.87,3.46-34.07,4.05-23.51,6.94-47.2,11.16-70.69,4.19-23.27,9.71-46.49,19.01-68.3,1.16-2.71,2.37-5.39,3.64-8.05,.41-.87-.88-1.63-1.3-.76h0Z"/>
    <path class="cls-1" d="M318.42,697.24c-2.4-4.51-3.65-9.54-3.11-14.65,.49-4.67,2.48-9.07,5.21-12.86,5.78-8.02,14.87-13.67,24.2-16.62,5.03-1.59,10.34-2.44,15.62-2.03,.96,.07,.96-1.43,0-1.5-10.06-.78-20.44,2.71-28.85,8.08s-15.88,13.42-17.48,23.48c-.93,5.86,.36,11.66,3.12,16.86,.45,.85,1.75,.1,1.3-.76h0Z"/>
    <path class="cls-1" d="M264.42,543.73c-.88,18.27-2.83,36.48-5.88,54.51-.74,4.39-1.7,8.76-2.45,13.14-.24,1.38-.01,2.79,.73,3.99,.86,1.39,2.25,2.08,3.59,2.92,7.05,4.37,14.65,7.8,22.42,10.67s16.04,5.2,24.14,7.54,15.69,4.76,23.53,7.14c14.52,4.42,29.3,8.57,44.52,9.58,15.69,1.04,31.19-1.81,45.47-8.41,2.06-.95,4.09-1.98,6.09-3.06,.85-.46,.09-1.75-.76-1.3-14.09,7.59-29.56,11.72-45.6,11.47-14.87-.23-29.41-3.85-43.6-8.03-7.49-2.2-14.92-4.57-22.39-6.83-7.83-2.36-15.74-4.45-23.52-6.98-7.89-2.57-15.66-5.55-23.02-9.39-1.81-.95-3.6-1.94-5.35-2.99-1.46-.88-3.42-1.68-4.31-3.22-.97-1.7-.3-3.48,.04-5.26,.42-2.16,.82-4.32,1.2-6.49,3.08-17.33,5.18-34.84,6.28-52.41,.14-2.2,.26-4.4,.36-6.6,.05-.96-1.45-.96-1.5,0h0Z"/>
    <path class="cls-1" d="M426.4,641.83c3.53-.82,6.49,.77,9.32,2.72,3.1,2.14,6.25,3.98,9.67,5.58,7.22,3.37,14.81,5.88,22.08,9.13,.87,.39,1.64-.9,.76-1.3-7.69-3.44-15.73-6.05-23.32-9.72-1.82-.88-3.66-1.78-5.37-2.87-1.47-.93-2.84-2.01-4.3-2.95-2.84-1.82-5.87-2.84-9.24-2.05-.94,.22-.54,1.67,.4,1.45h0Z"/>
    <path class="cls-1" d="M466.95,659.11c3.3,1.26,6.14,3.37,8.7,5.78,2.42,2.27,4.52,4.88,6.95,7.14,2.82,2.62,5.55,5.31,7.82,8.43,1.24,1.7,4.65,6.23,2.28,8.24-1.38,1.17-4.48,1.3-6.1,.79-2.54-.8-4.73-2.99-6.49-4.89-4.05-4.39-7.4-9.8-13.32-11.84-.91-.32-1.31,1.13-.4,1.45,5.81,2.01,9.06,7.69,13.1,11.92,1.84,1.93,4.22,4.13,6.87,4.87,1.92,.54,4.9,.3,6.68-.71,3.36-1.89,1.52-6.13,0-8.62-2.23-3.66-5.25-6.93-8.4-9.83-5.55-5.11-9.99-11.38-17.28-14.17-.9-.35-1.29,1.1-.4,1.45h0Z"/>
    <path class="cls-1" d="M432.02,657.55c6.71-.95,13.33,.18,18.89,4.18,5.16,3.71,8.91,9.09,12.37,14.32,2.11,3.2,4.15,6.44,6.31,9.61,.54,.79,1.84,.04,1.3-.76-7.14-10.51-13.79-24.59-27.08-28.27-3.98-1.1-8.12-1.1-12.18-.53-.95,.13-.55,1.58,.4,1.45h0Z"/>
    <path class="cls-1" d="M470.08,684.74c-1.56-.2-3.13,.13-4.32,1.21-1.09,.99-1.66,2.45-1.89,3.88-.51,3.2,.27,6.86,2.24,9.45,1.04,1.37,2.44,2.37,4.18,2.54,.96,.09,.95-1.41,0-1.5-2.56-.24-4-3.19-4.6-5.35-.65-2.32-.89-5.53,.73-7.53,.92-1.13,2.28-1.37,3.66-1.19,.95,.12,.95-1.38,0-1.5h0Z"/>
    <path class="cls-1" d="M471.04,687.42c2.52,2.75,5.84,7.52,3.33,11.28-.97,1.46-2.62,2.25-4.29,2.62-2.09,.47-5.6,.73-7.28-.75-3.51-3.09-4.67-7.97-7.07-11.83-1.33-2.14-3.15-3.81-5.01-5.48-2.02-1.82-4.12-3.54-6.32-5.13-5.19-3.76-10.99-6.75-17.27-8.14-.94-.21-1.34,1.24-.4,1.45,6.24,1.39,11.94,4.37,17.08,8.11,2.6,1.89,5.05,3.98,7.38,6.19,2.02,1.9,3.47,3.95,4.7,6.43,1.1,2.22,2.05,4.52,3.42,6.6,.63,.96,1.35,1.88,2.19,2.66,1.07,1,1.85,1.32,3.31,1.51,3.82,.5,8.66,.02,10.92-3.56,2.78-4.41-.64-9.75-3.62-13.01-.65-.71-1.71,.35-1.06,1.06h0Z"/>
    <path class="cls-1" d="M412.52,688.86c5.02,1.18,8.83,5.17,11.96,9.06,3.41,4.24,6.23,8.91,9.34,13.36,.67,.96,1.4,1.87,2.07,2.82,.88,1.27,1.57,2.64,2.49,3.89,1.68,2.27,3.66,3.81,6.51,4.2,3.7,.51,7.2-.87,8.41-4.61,1.37-4.25-.21-9.28-2.46-12.92-.17-.28-.52-.44-.85-.34-5.94,1.73-7.62,8.69-6.54,14.12,.19,.95,1.63,.55,1.45-.4-.92-4.61,.39-10.79,5.49-12.28l-.85-.34c1.93,3.13,3.31,7.22,2.54,10.92-.85,4.06-4.73,5.2-8.43,4.1-2.76-.82-4.44-3.76-5.83-6.06-1.19-1.98-2.68-3.8-3.98-5.72-2.82-4.18-5.53-8.45-8.74-12.34-3.19-3.88-7.14-7.72-12.18-8.91-.94-.22-1.34,1.23-.4,1.45h0Z"/>
    <path class="cls-1" d="M448.31,701.23c-3.97-6.99-7.1-14.52-11.5-21.26-3.54-5.44-8.28-9.37-14.5-11.37-4.82-1.55-9.94-2.08-14.98-2.33-.96-.05-.96,1.45,0,1.5,7.56,.39,15.87,1.34,22.08,6.1,5.04,3.86,7.98,9.76,10.82,15.28,2.21,4.31,4.39,8.63,6.79,12.84,.48,.84,1.77,.08,1.3-.76h0Z"/>
    <path class="cls-1" d="M393.47,682.94c5.38,1.9,10.93,3.99,15.33,7.73,2.27,1.92,3.76,4.16,5.29,6.67,1.56,2.57,3.92,4.79,6.09,6.84,2.37,2.23,4.86,4.34,7.14,6.65,1.84,1.86,3.72,3.72,3.9,6.46,.21,3.15-2.61,4.28-5.33,4.1-3.52-.23-7.4-2.37-8.47-5.91-.28-.92-1.73-.53-1.45,.4,1.08,3.55,4.43,5.91,7.94,6.72,2.85,.66,6.81,.43,8.3-2.55,2.51-5.01-3.12-9.72-6.31-12.67-2.64-2.44-5.4-4.78-7.82-7.45-1.24-1.36-2.32-2.76-3.22-4.36-.78-1.38-1.73-2.68-2.8-3.85-4.77-5.27-11.64-7.91-18.18-10.23-.91-.32-1.3,1.13-.4,1.45h0Z"/>
    <path class="cls-1" d="M417.35,715.82c.26-1.69,.81-3.4,1.91-4.75s2.63-2.15,4.34-2.45c.4-.07,.62-.56,.52-.92-.12-.42-.52-.59-.92-.52-1.94,.34-3.75,1.31-5,2.84s-1.99,3.44-2.29,5.41c-.06,.4,.1,.81,.52,.92,.36,.1,.86-.12,.92-.52h0Z"/>
    <path class="cls-1" d="M391.93,703.57c9.77,4.16,15.6,13.77,24.57,19.15,.83,.5,1.59-.8,.76-1.3-8.98-5.38-14.78-14.97-24.57-19.15-.88-.37-1.64,.92-.76,1.3h0Z"/>
    <path class="cls-1" d="M424.11,726.65c2.28-.17,4.47-.97,6.12-2.6s2.56-3.82,2.9-6.06c.06-.4-.1-.81-.52-.92-.35-.1-.86,.12-.92,.52-.3,1.97-1.02,3.9-2.45,5.33s-3.22,2.09-5.13,2.23c-.4,.03-.75,.32-.75,.75,0,.38,.34,.78,.75,.75h0Z"/>
    <path class="cls-1" d="M391.59,702.4c-8.16,2.16-16.96,4.59-25.21,1.54-4.36-1.61-8.27-4.39-11.88-7.26-1.05-.83-1.84-1.72-3.17-1.98-1.42-.28-2.85-.52-4.29-.75-3.03-.47-6.07-.85-9.11-1.29-6.76-.97-13.53-2.28-19.69-5.36-.86-.43-1.62,.86-.76,1.3,5.55,2.77,11.57,4.19,17.66,5.15,3.11,.49,6.23,.88,9.34,1.32,1.44,.21,2.88,.43,4.31,.67,.71,.12,1.43,.23,2.14,.39,.91,.22,1.46,.76,2.19,1.34,3.64,2.92,7.49,5.7,11.83,7.5,3.51,1.46,7.25,2.07,11.05,1.91,5.43-.23,10.78-1.66,16-3.04,.93-.25,.54-1.69-.4-1.45h0Z"/>
    <path class="cls-1" d="M418.38,725.36c1.83,.75,3.78,1.51,5.8,1.26,.4-.05,.75-.31,.75-.75,0-.37-.35-.8-.75-.75-1.89,.23-3.68-.51-5.4-1.21-.38-.15-.82,.17-.92,.52-.12,.43,.15,.77,.52,.92h0Z"/>
    <path class="cls-1" d="M477.33,657.63c28.03-7.91,56.02-15.98,83.96-24.19,7.94-2.33,15.87-4.68,23.81-7.04,.92-.27,.53-1.72-.4-1.45-27.92,8.3-55.88,16.45-83.89,24.45-7.96,2.27-15.91,4.53-23.88,6.78-.93,.26-.53,1.71,.4,1.45h0Z"/>
    <path class="cls-1" d="M496.05,683.23c28.69,4.11,57.38,8.23,86.07,12.34,8.08,1.16,16.16,2.32,24.24,3.47,.94,.14,1.35-1.31,.4-1.45-28.69-4.11-57.38-8.23-86.07-12.34-8.08-1.16-16.16-2.32-24.24-3.47-.94-.14-1.35,1.31-.4,1.45h0Z"/>
    <path class="cls-1" d="M496.32,690.17c29.25,6.31,58.71,11.65,88.32,16,8.2,1.2,16.4,2.33,24.62,3.38,.95,.12,.95-1.38,0-1.5-29.45-3.77-58.77-8.52-87.9-14.24-8.23-1.62-16.45-3.31-24.64-5.08-.94-.2-1.34,1.24-.4,1.45h0Z"/>
    <path class="cls-1" d="M605.61,699.25c1.8,3.22,2.99,6.72,3.57,10.36,.06,.4,.56,.62,.92,.52,.43-.11,.59-.52,.52-.92-.6-3.76-1.87-7.39-3.72-10.72-.47-.84-1.77-.09-1.3,.76h0Z"/>
    <path class="cls-1" d="M611.5,704.04c.87,2.96,1.61,5.95,2.24,8.96,.19,.94,1.64,.54,1.45-.4-.62-3.02-1.37-6.01-2.24-8.96-.27-.92-1.72-.53-1.45,.4h0Z"/>
    <path class="cls-1" d="M615.02,712.95c21.33-5.06,41.97-12.56,62.37-20.51,10.19-3.97,20.33-8.05,30.53-12,9.31-3.61,18.55-7.33,27.95-10.71,10.11-3.63,20.28-7.57,28.86-14.19,.75-.58,0-1.89-.76-1.3-7.7,5.94-16.69,9.72-25.76,13.04-4.5,1.65-9.03,3.2-13.51,4.89s-9.24,3.75-13.89,5.54c-20.33,7.82-40.43,16.24-61.02,23.37-11.56,4-23.27,7.59-35.17,10.41-.94,.22-.54,1.67,.4,1.45h0Z"/>
    <path class="cls-1" d="M613.15,704.31c7.44-31.94,14.58-63.95,21.41-96.02s13.28-63.91,19.46-95.96c3.5-18.13,6.89-36.28,10.19-54.45,.17-.94-1.27-1.35-1.45-.4-5.86,32.28-12.03,64.5-18.51,96.66-6.45,31.99-13.2,63.92-20.27,95.78-3.99,18.02-8.09,36.01-12.28,53.99-.22,.94,1.23,1.34,1.45,.4h0Z"/>
    <path class="cls-1" d="M662.29,459.13c18.21-.99,36.39-2.24,54.59-3.44,18.19-1.2,36.39-2.33,54.61-3.07,10.26-.41,20.53-.7,30.81-.8,.96,0,.97-1.51,0-1.5-18.23,.18-36.44,.95-54.64,1.97s-36.4,2.29-54.59,3.48c-10.25,.67-20.51,1.31-30.77,1.86-.96,.05-.97,1.55,0,1.5h0Z"/>
    <path class="cls-1" d="M765.55,655.13c6.63-26.17,11.8-52.69,16.31-79.31,4.51-26.6,8.36-53.3,12.35-79.97,2.25-15.02,4.54-30.02,7.01-45,.16-.94-1.29-1.35-1.45-.4-4.41,26.7-8.23,53.49-12.27,80.25s-8.25,53.27-13.48,79.71c-2.94,14.85-6.2,29.65-9.92,44.33-.24,.94,1.21,1.34,1.45,.4h0Z"/>
    <path class="cls-1" d="M585.58,626.71c13.29,.13,26.42,2.3,39.59,3.8,.96,.11,.95-1.39,0-1.5-13.17-1.5-26.31-3.68-39.59-3.8-.97,0-.97,1.49,0,1.5h0Z"/>
    <path class="cls-1" d="M617.39,640.11c-16.16,5.18-32.22,10.63-48.36,15.89-8.1,2.64-16.22,5.23-24.37,7.71-7.69,2.34-15.57,3.99-23.39,5.86-8.63,2.07-17.21,4.41-25.38,7.92-.88,.38-.12,1.67,.76,1.3,14.68-6.31,30.56-8.45,45.82-12.84,16.21-4.66,32.2-10.19,48.21-15.5,9.02-2.99,18.05-5.98,27.1-8.88,.92-.29,.52-1.74-.4-1.45h0Z"/>
    <path class="cls-1" d="M517.54,650.97c13.11-.32,25.86,3.02,38.77,4.77,.94,.13,1.35-1.32,.4-1.45-13.04-1.76-25.92-5.15-39.17-4.82-.96,.02-.97,1.52,0,1.5h0Z"/>
    <path class="cls-1" d="M557.65,656.9c13.45-5.16,27.18-9.56,41.13-13.16,.93-.24,.54-1.69-.4-1.45-13.95,3.6-27.68,8-41.13,13.16-.89,.34-.5,1.79,.4,1.45h0Z"/>
    <path class="cls-1" d="M598.47,641.9c-13.07-1.63-26.15-3.12-39.26-4.46-.96-.1-.95,1.4,0,1.5,13.1,1.35,26.19,2.84,39.26,4.46,.96,.12,.95-1.38,0-1.5h0Z"/>
    <path class="cls-1" d="M559.02,637.7c-14.04,4.23-28.2,8.05-42.45,11.47-.94,.23-.54,1.67,.4,1.45,14.26-3.42,28.41-7.25,42.45-11.47,.92-.28,.53-1.73-.4-1.45h0Z"/>
    <path class="cls-1" d="M454.47,716.04c6.82,.47,13.38,3.27,20.27,2.98,1.17-.05,2.91,.11,3.47-1.1,.45-.97,.72-2,.85-3.06,.29-2.3-.07-4.69-1.04-6.8-1.03-2.24-2.86-4.05-5.29-4.65-.94-.23-1.34,1.21-.4,1.45,2.61,.65,4.22,2.92,4.91,5.41,.34,1.24,.47,2.52,.39,3.8-.05,.78-.25,2.91-.86,3.25s-2.1,.21-2.8,.22c-.9,0-1.79-.04-2.69-.13-1.91-.18-3.8-.54-5.68-.93-3.69-.76-7.37-1.68-11.14-1.94-.96-.07-.96,1.43,0,1.5h0Z"/>
    <path class="cls-1" d="M472.23,704.56c4.8,1.69,10.35,2.04,15.37,1.42,4.03-.5,9.68-2.01,10.42-6.76,.49-3.13-1.29-6.2-3.05-8.63-.56-.77-1.86-.03-1.3,.76,1.48,2.04,3.11,4.58,2.92,7.22-.13,1.81-1.31,3.16-2.82,4.05-3.97,2.34-9.32,2.34-13.77,1.97-2.5-.21-5.01-.64-7.38-1.47-.91-.32-1.3,1.13-.4,1.45h0Z"/>
    <path class="cls-1" d="M485.28,695.96c3.65,1.01,6.8,3.41,8.8,6.61,.51,.82,1.81,.06,1.3-.76-2.21-3.53-5.68-6.19-9.7-7.3-.93-.26-1.33,1.19-.4,1.45h0Z"/>
    <path class="cls-1" d="M476.47,719.53c5.33-.45,11.19-.97,15.76-4.01,2.54-1.69,4.17-4.2,5.57-6.86,1.33-2.52,2.31-5.31,2.09-8.2-.27-3.6-2.17-6.79-4.25-9.65-.56-.77-1.86-.03-1.3,.76,2.16,2.97,4.23,6.35,4.06,10.17-.15,3.6-2.19,7.33-4.36,10.11-3.97,5.1-11.66,5.68-17.59,6.18-.95,.08-.96,1.58,0,1.5h0Z"/>
    <path class="cls-1" d="M314.06,374.88c-3.09-9.45-9.75-16.89-18.52-21.48s-18.33-6.35-27.92-6.79c-7.11-.33-14.21-1.07-21.3-1.68-7.45-.64-14.89-1.32-22.33-2.01-14.89-1.38-29.77-2.81-44.67-4.12-14.71-1.29-29.43-2.47-44.17-3.37-1.82-.11-3.64-.22-5.46-.32-.76-.04-1.72-.25-2.48-.14-.6,.09-1.22,.45-1.77,.69-1.9,.86-3.72,1.88-5.42,3.08-3.16,2.24-5.86,5.06-7.97,8.31-4.35,6.7-6.05,14.77-6.77,22.62-.82,8.95-.4,17.96-.02,26.92,.35,8.35,.84,16.78-.02,25.11-1.37,13.29-5.59,26.25-9.15,39.07-.93,3.36-1.85,6.73-2.7,10.11-.24,.94,1.21,1.34,1.45,.4,3.41-13.53,7.84-26.81,10.49-40.53,.88-4.55,1.55-9.11,1.75-13.74,.19-4.13,.12-8.26,0-12.39-.27-8.71-.87-17.42-.73-26.15,.12-8.22,.82-16.67,3.82-24.4,2.86-7.36,8.09-13.3,15.23-16.74,.54-.26,1.15-.63,1.73-.78,.8-.2,1.76,0,2.56,.05,1.82,.1,3.64,.21,5.46,.32,3.64,.22,7.28,.46,10.92,.71,7.28,.51,14.56,1.07,21.84,1.68,28.97,2.41,57.88,5.43,86.85,7.83,10.89,.9,21.97,.92,32.45,4.37,9.07,2.99,17.41,8.44,22.31,16.82,1.29,2.2,2.3,4.52,3.09,6.94,.3,.91,1.75,.52,1.45-.4h0Z"/>
    <path class="cls-1" d="M93.33,473.17c25.51,9.86,52.66,14.2,79.72,17.21,7.73,.86,15.48,1.62,23.22,2.37,.96,.09,.95-1.41,0-1.5-27.14-2.63-54.45-5.31-80.85-12.45-7.35-1.99-14.6-4.33-21.7-7.08-.9-.35-1.29,1.1-.4,1.45h0Z"/>
    <path class="cls-1" d="M91.69,473.73c-3.53,22.39-1.31,45.22,4.03,67.14,5.52,22.64,9.64,45.57,12.25,68.74,1.46,12.96,2.45,25.97,3,39,.04,.96,1.54,.97,1.5,0-.97-22.97-3.34-45.87-7.12-68.55-1.9-11.4-4.08-22.79-6.77-34.04-1.3-5.42-2.7-10.8-3.75-16.28-1.1-5.71-1.97-11.47-2.54-17.26-1.27-12.76-1.14-25.67,.86-38.35,.15-.94-1.3-1.35-1.45-.4h0Z"/>
    <path class="cls-1" d="M84.96,664.89c1.34-5.23,6.18-7.95,11.09-9.21,5.66-1.46,11.74-1.41,17.5-.66,2.59,.34,5.17,.85,7.67,1.61,3.13,.95,6.16,2.25,9.26,3.31,8.17,2.8,16.45,5.28,24.55,8.3,8.07,3.01,16.01,6.58,23.12,11.5,.88,.61,1.75,1.24,2.6,1.89s1.91,1.29,2.33,2.33,.69,2.29,.38,3.44c-.58,2.15-2.87,3.34-4.81,4.04-2.42,.87-5,1.29-7.56,1.53-1.15,.11-2.31,.18-3.47,.22-1.78,.06-3.41-.6-5.1-1.14-8.85-2.81-17.44-6.36-26.04-9.83-8.6-3.47-17.24-6.9-26.16-9.44-4.47-1.27-9-2.31-13.59-3.02-2.08-.32-4.16-.58-6.26-.7-1.47-.09-3.03-.61-4.22-1.48-1.42-1.04-1.89-2.48-1.02-4.06,.46-.85-.83-1.6-1.3-.76-1.68,3.05,.23,5.72,3.13,6.97,1.55,.66,3.05,.73,4.69,.9,2.61,.26,5.21,.64,7.79,1.13,9.74,1.83,19.14,5.07,28.36,8.65,9.35,3.63,18.56,7.63,28.01,10.99,2.4,.85,4.81,1.66,7.24,2.42,.99,.31,2.09,.8,3.12,.9,.53,.05,1.1-.02,1.64-.04,2.63-.1,5.28-.36,7.86-.9,4.43-.92,10.34-3.33,9.14-8.92-.15-.68-.4-1.34-.69-1.98-.45-.97-1.43-1.54-2.26-2.18-1.74-1.35-3.55-2.62-5.42-3.81-3.85-2.45-7.93-4.56-12.09-6.42-8.46-3.78-17.29-6.61-26.09-9.48-4.41-1.44-8.81-2.89-13.17-4.5-2.47-.91-4.89-1.74-7.48-2.27-6.06-1.24-12.41-1.58-18.54-.68-5.28,.78-11.15,2.72-14.18,7.45-.69,1.08-1.18,2.28-1.5,3.52-.24,.94,1.21,1.33,1.45,.4h0Z"/>
    <path class="cls-1" d="M85.02,661.99c15.57,1.93,30.85,6.28,45.1,12.85,4.04,1.86,7.99,3.9,11.85,6.1,.84,.48,1.6-.82,.76-1.3-13.84-7.87-28.87-13.63-44.44-16.94-4.39-.93-8.81-1.66-13.27-2.21-.96-.12-.95,1.38,0,1.5h0Z"/>
    <path class="cls-1" d="M110.57,676.74c.94,6.61,1.33,13.28,1.2,19.96-.02,.97,1.48,.97,1.5,0,.14-6.81-.29-13.61-1.25-20.36-.14-.95-1.58-.55-1.45,.4h0Z"/>
    <path class="cls-1" d="M139.75,693.4c-18.15,3.6-36.44,6.39-54.78,8.83-18.17,2.41-36.37,4.5-54.56,6.74-10.21,1.26-20.42,2.57-30.6,4.01-.95,.13-.55,1.58,.4,1.45,18.32-2.59,36.69-4.74,55.06-6.96,18.09-2.19,36.18-4.44,54.2-7.23,10.26-1.59,20.5-3.36,30.69-5.38,.95-.19,.55-1.63-.4-1.45h0Z"/>
    <path class="cls-1" d="M627.64,605.77c-9.77,2.75-19.57,5.39-29.38,7.99-11.92,3.16-23.85,6.27-35.78,9.34-12.8,3.3-25.61,6.56-38.42,9.81-12.26,3.1-24.52,6.19-36.79,9.26-10.3,2.58-20.61,5.14-30.92,7.69-1.1,.27-2.19,.54-3.29,.81-.94,.23-.54,1.68,.4,1.45,10.03-2.48,20.05-4.97,30.07-7.47,12.05-3.01,24.1-6.03,36.14-9.08,12.82-3.24,25.64-6.5,38.44-9.79,12.17-3.13,24.33-6.28,36.48-9.49,10.11-2.67,20.21-5.37,30.28-8.18,1.06-.3,2.13-.59,3.19-.89,.93-.26,.53-1.71-.4-1.45h0Z"/>
    <path class="cls-1" d="M776.75,617.3c28.57,4.7,57.15,9.4,85.72,14.09,8.05,1.32,16.09,2.65,24.14,3.97,.94,.16,1.35-1.29,.4-1.45-28.57-4.7-57.15-9.4-85.72-14.09-8.05-1.32-16.09-2.65-24.14-3.97-.94-.16-1.35,1.29-.4,1.45h0Z"/>
    <path class="cls-1" d="M415.4,404.05c-.96-2.04-2.96-3.04-5.02-3.67-2.68-.81-5.41-1.47-8.12-2.15-5.52-1.39-11.07-2.63-16.65-3.76-.94-.19-1.35,1.26-.4,1.45,5.1,1.03,10.18,2.16,15.23,3.41,2.53,.62,5.04,1.27,7.56,1.95,2.31,.62,4.99,1.16,6.11,3.53,.41,.87,1.7,.11,1.3-.76h0Z"/>
  </g>
</svg>