<?xml version="1.0" encoding="UTF-8"?>
<svg id="Camada_2" data-name="Camada 2" xmlns="http://www.w3.org/2000/svg" viewBox="0 0 500 300">
  <defs>
    <style>
      .cls-1 {
        fill: #354b67;
      }
    </style>
  </defs>
  <g>
    <path class="cls-1" d="m167.14,163.18h-.38c-.09,10.58-.83,13.12-3.76,17.72-2.93,4.59-6.79,7.88-11.57,9.86-4.78,1.98-10.64,2.97-17.59,2.97-6.68-.16-12.47-1.82-17.38-4.99-4.92-3.17-8.7-7.6-11.36-13.3-2.66-5.7-3.99-12.47-3.99-20.31s1.4-14.57,4.19-20.19c2.79-5.62,6.76-9.98,11.9-13.07,5.14-3.09,11.32-4.63,18.53-4.63s13.84,1.68,19.34,5.05c5.5,3.37,9.47,8.97,11.9,16.81h1.22l-.13-20.31c-3.88-1.82-8.68-3.36-14.41-4.63-5.73-1.26-12.2-1.9-19.41-1.9-11.45,0-21.3,1.74-29.56,5.23-8.25,3.48-14.59,8.45-19.01,14.91-4.42,6.45-6.63,14.11-6.63,22.98s2.25,16.86,6.76,23.28c4.51,6.41,10.89,11.34,19.14,14.79,8.25,3.44,17.88,5.2,28.88,5.28,6.76,0,12.62-.73,17.59-2.2,4.96-1.46,9.11-3.38,12.44-5.76,2.97-2.12,5.93-4.99,7.94-7.66.46-.61.69-1.35.69-2.11h0c0-.58-.15-1.15-.42-1.67-2.53-4.86-4.19-10.25-4.96-16.13Z"/>
    <g>
      <path class="cls-1" d="m262.26,182.73c0,.43-.15.84-.44,1.16-2,2.21-4.85,4.42-8.54,6.62-3.97,2.38-8.72,4.34-14.25,5.88-5.52,1.55-11.67,2.32-18.45,2.32-9.54,0-17.87-1.76-24.98-5.28-7.12-3.52-12.64-8.53-16.57-15.02-3.94-6.49-5.9-14.17-5.9-23.04s1.94-16.51,5.84-22.92c3.89-6.41,9.45-11.38,16.69-14.9,7.24-3.52,15.8-5.29,25.67-5.29,4.6,0,9.08.3,13.43.89,4.35.59,8.37,1.36,12.05,2.31,3.68.95,6.73,2.06,9.16,3.32l.25,20.31h-1.13c-1.59-5.38-3.89-9.68-6.91-12.88-3.01-3.21-6.5-5.5-10.48-6.89-3.98-1.38-8.18-2.08-12.62-2.08-6.78,0-12.54,1.57-17.26,4.69-4.73,3.13-8.28,7.58-10.67,13.36-2.39,5.78-3.58,12.71-3.58,20.78,0,7.6,1.11,14.23,3.32,19.89,2.22,5.66,5.46,10.01,9.73,13.06,4.27,3.05,9.45,4.61,15.56,4.69,3.1,0,6.09-.45,8.98-1.36,2.89-.91,5.42-2.24,7.59-3.98,2.18-1.74,3.72-3.87,4.65-6.41l.13-18.17c0-3.57-2.13-5.34-6.4-5.34h-2.01v-1.19h23.11c.18,6.73,1.47,12.89,3.86,18.38.1.22.15.46.15.69v6.39Z"/>
      <path class="cls-1" d="m356.73,133.2c-3.95-6.48-9.59-11.55-16.94-15.2-7.34-3.65-16.04-5.56-26.07-5.73-10.04-.18-18.8,1.44-26.26,4.83-7.47,3.4-13.26,8.28-17.39,14.67-3.52,5.44-5.59,11.78-6.22,19.01-.11,1.26-.18,2.54-.2,3.86-.15,8.53,1.55,15.95,5.1,22.24.17.31.34.6.52.9,3.9,6.48,9.53,11.55,16.87,15.2,7.34,3.65,16.04,5.57,26.08,5.74,10.04.18,18.79-1.44,26.26-4.83,7.47-3.39,13.28-8.28,17.45-14.66,4.17-6.38,6.33-14,6.49-22.87.16-8.94-1.74-16.66-5.69-23.14Zm-17.51,43.41c-2.44,5.93-5.87,10.52-10.31,13.78-4.44,3.26-9.75,4.88-15.93,4.89-6.09,0-11.38-1.62-15.86-4.87-4.49-3.25-7.95-7.84-10.39-13.77-2.44-5.93-3.66-12.97-3.66-21.12,0-8.15,1.21-15.19,3.65-21.12,2.43-5.93,5.89-10.52,10.37-13.78,4.48-3.25,9.77-4.88,15.86-4.89,6.18,0,11.49,1.62,15.93,4.87,4.44,3.25,7.88,7.84,10.32,13.76,2.44,5.93,3.66,12.97,3.66,21.12,0,8.15-1.21,15.19-3.65,21.12Z"/>
      <path class="cls-1" d="m439.48,113.92v1.19h-1.13c-1.84,0-3.79.57-5.84,1.72-2.05,1.15-3.74,3.07-5.08,5.76h-.08l-29.3,61.28c-.16.47-.56,1.36-1.19,2.67-.63,1.31-1.32,2.79-2.07,4.45-.76,1.67-1.4,3.27-1.95,4.81-.55,1.55-.86,2.75-.95,3.63h-1.13l-22.77-46.48c-.16-.32-.24-.66-.26-1.02-.46-8.1-2.6-15.33-6.39-21.54-4.19-6.89-10.14-12.43-17.67-16.47h37.31v1.19h-1.13c-1.59,0-3,.65-4.21,1.96-1.21,1.31-1.36,3.15-.44,5.52h-.06l21.28,48.99,22.11-48.99h-.02c1.09-2.37.97-4.22-.37-5.52-1.34-1.31-2.81-1.96-4.39-1.96h-1.13v-1.19h26.86Z"/>
    </g>
  </g>
  <g>
    <path class="cls-1" d="m117.86,83.3c.2.12.41.12.62.13.84.03,1.68.07,2.52.11,2.26.11,5.93.5,8.16.86,2.63.42,5.25.89,7.87,1.4,3.78.73,7.56,1.52,11.35,2.28,5.15,1.04,10.3,2.09,15.45,3.14,3.73.76,7.47,1.53,11.21,2.26,3.92.77,7.85,1.51,11.78,2.24,3.18.59,6.37,1.18,9.56,1.73,3.14.54,6.29,1.03,9.43,1.52,2.21.35,4.43.69,6.64,1.01,2.03.29,4.06.53,6.1.79,1.75.22,3.5.46,5.26.66,1.38.16,2.76.28,4.14.42,1.57.16,3.14.31,4.7.48.59.06,1.18.08,1.76.13.74.06,1.92.16,2.65.21,3.15.19,6.29.4,9.44.58.68.04,1.36.01,2.04.04,5.99.26,11.98.2,17.97.14,3.17-.03,6.34-.21,9.51-.36,1.83-.08,3.66-.2,5.49-.35,2.41-.2,4.82-.43,7.24-.66,2.01-.19,4.03-.37,6.04-.59,1.8-.2,3.6-.43,5.4-.66,1.99-.25,3.97-.5,5.96-.78,2.64-.38,5.27-.77,7.91-1.18,2.4-.37,4.8-.76,7.2-1.16,2.19-.37,4.37-.76,6.56-1.16,2.81-.51,5.63-1.02,8.44-1.55,2.56-.48,5.11-.98,7.66-1.49,4.08-.81,8.17-1.64,12.25-2.47,3.97-.81,7.93-1.63,11.9-2.44,4.31-.88,8.63-1.74,12.95-2.61,3.67-.73,7.35-1.34,11.03-1.92,2.08-.32,4.18-.38,6.27-.58,1.09-.1,2.19-.05,3.29-.06.16,0,.33-.08.49-.12,1.83,0,3.67,0,5.5,0,.2.12.41.13.62.13,2.52,0,5.01.36,7.48.93,3.21.74,6.3,1.93,9.07,4.21,3.35,2.76,5.31,6.68,5.95,11.69.06.47-.02.96.15,1.42v3.96c-.21-.31-.15-.68-.16-1.03-.17-3.54-.88-6.86-2.45-9.83-.98-1.85-2.28-3.26-3.78-4.38-2.25-1.67-4.7-2.57-7.24-3.1-1.74-.36-3.5-.47-5.26-.62-2.33-.19-4.65.06-6.96.22-3.64.25-7.24.89-10.86,1.43-3.29.49-6.58.94-9.86,1.52-2.3.4-4.6.85-6.9,1.31-3.99.8-7.98,1.62-11.97,2.44-3.59.74-7.19,1.51-10.78,2.25-4.36.89-8.72,1.78-13.09,2.64-3.57.71-7.15,1.41-10.73,2.08-3.23.6-6.47,1.16-9.7,1.7-2.82.48-5.63.94-8.46,1.37-2.33.35-4.67.65-7,.97-2.05.28-4.11.58-6.16.84-1.85.23-3.7.41-5.54.6-2.2.23-4.4.46-6.6.66-1.03.1-2.06.15-3.09.23-2.39.17-4.78.33-7.17.49-.14,0-.37.02-.51.02-2.2,0-4.41.16-6.61.25-5.52.22-11.05.13-16.57.12-2.64,0-5.28-.11-7.92-.21-2.22-.08-4.44-.2-6.65-.37-2.6-.2-5.21-.33-7.81-.62-1.57-.17-3.14-.25-4.71-.41-1.9-.19-3.79-.43-5.68-.65-1.64-.19-3.27-.39-4.91-.6-1.54-.2-3.08-.42-4.62-.63-1.82-.26-3.64-.51-5.46-.79-2.45-.37-4.9-.75-7.34-1.16-2.56-.43-5.12-.89-7.68-1.36-2.72-.5-5.44-1-8.16-1.53-3.78-.74-7.57-1.5-11.35-2.27-3.64-.74-7.28-1.51-10.92-2.26-4.29-.88-8.58-1.76-12.87-2.62-2.83-.57-5.66-1.14-8.49-1.69-2.97-.58-5.94-1.14-8.93-1.56-2.59-.36-5.17-.81-7.76-1.18-2.08-.3-4.15-.58-6.24-.81-3.14-.36-6.29-.44-9.44-.3-3.27.14-6.51.67-9.6,2.21-4.44,2.21-7.19,6.27-8.18,12.24-.21,1.24-.34,2.48-.42,3.74-.01.2.06.6-.31.31l-.26-2.18c.41-.53.45-1.18.51-1.81.07-.81.18-1.6.33-2.39.7-3.73,2.14-6.87,4.55-9.25,1.65-1.63,3.48-2.83,5.44-3.7,3.53-1.57,7.19-2.25,10.9-2.48.42-.03.85.06,1.25-.15h7.19Z"/>
    <path class="cls-1" d="m125.76,218.15c-.19-.13-.41-.13-.62-.14-1.71-.13-3.42-.23-5.13-.39-3.3-.32-6.59-.79-9.86-1.5-2.78-.61-5.53-1.38-8.21-2.55-2.84-1.24-5.52-2.88-7.89-5.28-2.08-2.11-3.71-4.66-4.77-7.79-.04-.13-.08-.27-.14-.5.25.08.28.3.35.46,1.51,3.5,3.72,6.08,6.43,7.99,3.04,2.14,6.33,3.33,9.73,4.1,2.52.57,5.07.89,7.62,1.13,3.68.35,7.37.4,11.06.28,2.98-.1,5.96-.24,8.94-.36,2.23-.09,4.46-.23,6.69-.35,2.53-.14,5.07-.34,7.6-.54,2.11-.16,4.22-.34,6.33-.54,3.11-.29,6.23-.59,9.34-.9,2.88-.29,5.76-.6,8.64-.9,2.71-.29,5.43-.59,8.14-.9,2.46-.28,4.91-.58,7.37-.84,1.99-.22,3.98-.39,5.97-.6,2.62-.27,5.24-.58,7.86-.84,1.64-.16,3.28-.27,4.92-.42,1.71-.15,3.42-.33,5.13-.47.87-.08,1.73-.12,2.6-.2,1.94-.17,3.89-.25,5.84-.42,2.62-.22,5.25-.39,7.88-.55,2.23-.13,4.46-.25,6.69-.36,3.12-.16,6.25-.23,9.37-.37,2.8-.13,5.59-.02,8.39-.16,4.42-.23,8.84-.15,13.25-.08,3.05.05,6.11.02,9.16.18,1.55.08,3.1.07,4.65.14,2.77.12,5.54.22,8.31.38,1.99.12,3.99.24,5.98.35,2.53.14,5.07.32,7.6.54,2.34.21,4.69.35,7.03.53,2.77.21,5.53.47,8.29.72,2.41.22,4.82.46,7.23.71,2.53.27,5.05.57,7.58.84,1.92.21,3.84.38,5.76.59,1.89.21,3.79.44,5.68.65,1.36.15,2.72.27,4.07.42,1.45.15,2.9.33,4.35.48,1.38.15,2.76.28,4.14.41,1.64.16,3.28.34,4.92.49,1.57.15,3.14.28,4.71.41,1.97.17,3.94.33,5.9.5.87.07,1.74.09,2.6.18,1.29.14,2.58.15,3.87.23,2.98.17,5.96.29,8.94.42,1.81.08,3.62.03,5.43.14,3.64.23,7.29.25,10.93.11,4.58-.17,9.15-.65,13.61-2.13,2.93-.97,5.73-2.31,8.27-4.48,1.98-1.7,3.6-3.84,4.84-6.45.07-.15.15-.31.22-.46.01-.02.04-.03.1-.08.07.22-.03.39-.08.55-1.25,3.51-3.19,6.26-5.65,8.46-2.59,2.32-5.46,3.86-8.47,5.01-3.25,1.24-6.58,2.01-9.93,2.59-2.47.43-4.95.72-7.42,1-1.21.14-2.42.17-3.63.27-2.05.16-4.12.22-6.17.11-2.34-.12-4.68-.24-7.02-.37-1.85-.11-3.71-.22-5.56-.35-2.44-.17-4.88-.35-7.31-.55-2.11-.17-4.22-.34-6.33-.54-2.88-.27-5.76-.57-8.64-.85-2.15-.21-4.31-.37-6.46-.59-2.62-.26-5.24-.57-7.86-.84-2.06-.21-4.12-.38-6.18-.6-2.01-.21-4.02-.45-6.03-.66-1.47-.15-2.95-.27-4.43-.41-1.5-.15-2.99-.32-4.49-.47-1.45-.15-2.9-.27-4.36-.41-1.76-.17-3.51-.34-5.27-.5-.75-.07-1.5-.12-2.25-.19-1.85-.18-3.71-.26-5.56-.43-2.52-.23-5.05-.4-7.58-.56-1.83-.12-3.67-.24-5.5-.35-2.49-.15-4.98-.24-7.46-.38-1.6-.09-3.19-.09-4.79-.15-9.52-.36-19.04-.16-28.56-.1-1.85.01-3.71.06-5.56.17-2.46.14-4.93.24-7.39.36-2.91.14-5.82.34-8.73.54-2.34.16-4.69.34-7.03.54-2.81.23-5.62.47-8.43.73-2.53.23-5.06.46-7.59.72-2.67.27-5.33.57-8,.84-2.06.21-4.12.38-6.18.6-2.55.27-5.1.57-7.65.84-1.45.15-2.9.27-4.36.42-2.01.21-4.02.44-6.04.66-1.43.15-2.86.27-4.28.41-1.62.16-3.23.33-4.84.49-1.5.14-3,.27-4.5.41-1.8.16-3.61.33-5.41.49-.8.07-1.59.11-2.39.19-1.94.18-3.89.28-5.84.42-2.44.17-4.88.36-7.31.54-.19.01-.38.03-.55.14h-8.6Z"/>
  </g>
</svg>