<?xml version="1.0" encoding="utf-8"?>
<!-- Generator: Adobe Illustrator 27.7.0, SVG Export Plug-In . SVG Version: 6.00 Build 0)  -->
<svg version="1.1" id="Camada_1" xmlns="http://www.w3.org/2000/svg" xmlns:xlink="http://www.w3.org/1999/xlink" x="0px" y="0px"
	 viewBox="0 0 782.4 163" style="enable-background:new 0 0 782.4 163;" xml:space="preserve">
<style type="text/css">
	.st0{fill:#FFFFFF;}
	.st1{fill:#E4E4E4;}
	.st2{fill:#C8C8C8;}
	.st3{fill:#FCFFFF;}
	.st4{fill:#7C7C7C;}
</style>
<g>
	<polygon class="st0" points="141.2,40.7 141.2,122.2 70.6,163 70.6,81.5 70.6,81.4 	"/>
	<g>
		<polygon class="st1" points="70.6,81.5 0,40.7 70.6,0 141.1,40.7 		"/>
		<polygon class="st2" points="70.6,81.5 70.6,163 0.1,122.2 0.1,40.7 		"/>
		<polygon class="st3" points="36.3,61.7 28.1,56.9 98.7,16.2 106.9,20.9 		"/>
		<g>
			<polygon class="st3" points="111.2,90.5 138.6,74.7 138.6,48.5 111.2,64.3 			"/>
			<polygon class="st4" points="114.9,84.4 115.7,84 115.7,65.7 114.9,66.2 			"/>
			<polyline class="st4" points="134.9,54.9 134.9,73.2 134,73.7 134,55.4 			"/>
			<polygon class="st4" points="116.2,82.5 116.5,82.3 116.5,65.3 116.2,65.5 			"/>
			<polygon class="st4" points="117.4,81.8 118.4,81.2 118.4,64.2 117.4,64.8 			"/>
			<polygon class="st4" points="119.3,80.7 120.3,80.2 120.3,63.1 119.3,63.7 			"/>
			<polygon class="st4" points="120.9,79.9 122.4,79 122.4,61.9 120.9,62.8 			"/>
			<polygon class="st4" points="123.5,78.3 123.8,78.2 123.8,61.1 123.5,61.3 			"/>
			<polygon class="st4" points="124.8,77.6 125.8,77 125.8,60 124.8,60.6 			"/>
			<polygon class="st4" points="126.7,76.6 127.7,76 127.7,59 126.7,59.5 			"/>
			<polygon class="st4" points="128.2,75.7 129.8,74.8 129.8,57.8 128.2,58.7 			"/>
			<polygon class="st4" points="130.8,74.3 131.1,74.1 131.1,57.1 130.8,57.2 			"/>
			<polygon class="st4" points="132.1,73.5 133.1,73 133.1,55.9 132.1,56.5 			"/>
		</g>
		<polygon class="st3" points="28.1,138.4 36.3,143.2 36.3,61.7 28.1,56.9 		"/>
	</g>
	<path class="st1" d="M184.8,109h45v15.5h-64V41.2h62.4v15.5h-43.4V109z M183.3,74.7h39.8v15.1h-39.8V74.7z"/>
	<path class="st1" d="M264.5,125.5c-5.4,0-10.6-0.7-15.6-2c-5-1.3-8.9-3-11.9-4.9l6-13.2c3,1.7,6.5,3.2,10.4,4.3
		c4,1.2,7.9,1.7,11.7,1.7c4.2,0,7.3-0.5,9-1.5c1.8-1,2.7-2.5,2.7-4.3c0-1.5-0.7-2.6-2.1-3.4c-1.4-0.8-3.2-1.3-5.4-1.7
		c-2.2-0.4-4.7-0.8-7.5-1.2c-2.8-0.4-5.5-1-8.2-1.7c-2.7-0.7-5.2-1.7-7.6-3c-2.3-1.3-4.2-3.1-5.5-5.4c-1.4-2.3-2.1-5.3-2.1-8.9
		c0-4,1.2-7.6,3.5-10.8c2.4-3.1,5.7-5.6,10-7.3c4.3-1.7,9.6-2.6,15.7-2.6c4.4,0,8.8,0.5,13.3,1.5c4.4,1,8.2,2.4,11.3,4.1l-6.3,13.2
		c-3-1.7-6-3-9.1-3.7c-3.1-0.7-6.1-1.1-8.9-1.1c-4.2,0-7.3,0.6-9.2,1.7c-1.9,1.1-2.8,2.5-2.8,4.3c0,1.6,0.7,2.8,2.1,3.6
		c1.4,0.8,3.3,1.4,5.5,1.8c2.3,0.4,4.8,0.8,7.6,1.2c2.8,0.4,5.5,1,8.1,1.7c2.7,0.7,5.2,1.7,7.5,3c2.3,1.3,4.2,3.1,5.5,5.4
		c1.4,2.3,2.1,5.3,2.1,8.9c0,3.9-1.2,7.4-3.5,10.4c-2.4,3.1-5.8,5.5-10.2,7.2C276.3,124.6,270.9,125.5,264.5,125.5z"/>
	<path class="st1" d="M298.3,76.2V61.9h44v14.3H298.3z M331.8,125.5c-7.5,0-13.3-1.9-17.5-5.8c-4.2-3.8-6.3-9.6-6.3-17.2V46.3h18.5
		v55.8c0,2.7,0.7,4.8,2.1,6.3c1.4,1.5,3.2,2.3,5.6,2.3c3,0,5.5-0.8,7.6-2.4l4.8,13.1c-1.8,1.3-4,2.4-6.7,3
		C337.3,125.1,334.6,125.5,331.8,125.5z"/>
	<path class="st1" d="M385.2,125.5c-6.7,0-12.6-1.4-17.9-4.3c-5.2-2.9-9.3-6.8-12.3-11.7c-3-5-4.5-10.6-4.5-17
		c0-6.4,1.5-12.1,4.5-17.1c3-5,7.1-8.8,12.3-11.7c5.2-2.8,11.2-4.2,17.9-4.2c6.8,0,12.8,1.4,18.1,4.2c5.3,2.8,9.4,6.7,12.4,11.7
		c3,5,4.5,10.7,4.5,17.1s-1.5,12.1-4.5,17c-3,4.9-7.1,8.8-12.4,11.7C398,124,392,125.5,385.2,125.5z M385.2,110.2
		c3.1,0,5.9-0.7,8.3-2.1c2.4-1.4,4.3-3.4,5.8-6.1c1.5-2.7,2.2-5.9,2.2-9.5c0-3.7-0.7-6.9-2.2-9.5c-1.5-2.6-3.4-4.6-5.8-6
		c-2.4-1.4-5.1-2.1-8.2-2.1c-3.1,0-5.8,0.7-8.3,2.1c-2.4,1.4-4.4,3.4-5.8,6c-1.5,2.6-2.2,5.8-2.2,9.5c0,3.6,0.7,6.8,2.2,9.5
		c1.5,2.7,3.4,4.7,5.8,6.1C379.5,109.5,382.2,110.2,385.2,110.2z"/>
	<path class="st1" d="M459.4,125.5c-6,0-11.4-1.4-16.2-4.1c-4.8-2.7-8.6-6.5-11.3-11.4c-2.8-4.9-4.1-10.7-4.1-17.4
		c0-6.7,1.4-12.5,4.1-17.4c2.8-4.9,6.5-8.7,11.3-11.5c4.8-2.7,10.2-4.1,16.2-4.1c5.6,0,10.4,1.2,14.3,3.6c4,2.4,7,6,9.1,10.8
		c2.1,4.8,3.2,11,3.2,18.6c0,7.5-1.1,13.6-3.3,18.5c-2.2,4.9-5.3,8.5-9.3,10.9C469.5,124.3,464.8,125.5,459.4,125.5z M462.5,110.2
		c3.1,0,5.8-0.7,8.3-2.1c2.4-1.4,4.4-3.5,5.8-6.1c1.5-2.7,2.2-5.8,2.2-9.5c0-3.7-0.7-6.9-2.2-9.5c-1.5-2.6-3.4-4.6-5.8-6
		c-2.4-1.4-5.2-2.1-8.3-2.1c-3,0-5.7,0.7-8.1,2.1c-2.4,1.4-4.4,3.4-5.8,6c-1.5,2.6-2.2,5.8-2.2,9.5c0,3.6,0.7,6.8,2.2,9.5
		c1.5,2.7,3.4,4.7,5.8,6.1C456.8,109.5,459.5,110.2,462.5,110.2z M478.4,147.6v-36.1l1.2-18.9l-0.4-19V60.5h17.6v87.1H478.4z"/>
	<path class="st0" d="M555,125.9c-6.5,0-12.5-1.1-18.1-3.2c-5.5-2.1-10.3-5.1-14.3-9c-4-3.9-7.1-8.4-9.4-13.7
		c-2.2-5.2-3.4-11-3.4-17.3c0-6.3,1.1-12,3.4-17.3c2.2-5.2,5.4-9.8,9.5-13.7c4.1-3.9,8.9-6.9,14.4-9c5.5-2.1,11.6-3.2,18.2-3.2
		c7.3,0,13.9,1.2,19.8,3.7c5.9,2.5,10.8,6,14.8,10.7l-12.2,11.4c-3.1-3.3-6.4-5.7-9.9-7.2c-3.5-1.5-7.4-2.3-11.7-2.3
		c-3.9,0-7.6,0.7-10.9,2c-3.3,1.3-6.2,3.2-8.6,5.5c-2.4,2.4-4.2,5.2-5.5,8.4c-1.3,3.3-1.9,6.9-1.9,10.8c0,3.8,0.6,7.4,1.9,10.7
		c1.3,3.3,3.1,6.1,5.5,8.5c2.4,2.4,5.2,4.2,8.5,5.6c3.3,1.3,6.9,2,10.8,2c3.8,0,7.5-0.6,11-1.9c3.6-1.3,7.1-3.4,10.4-6.3l10.9,13.9
		c-4.6,3.5-9.8,6.1-15.7,7.9C566.8,125,560.9,125.9,555,125.9z M570.9,112.9V81.6h17.5v33.8L570.9,112.9z"/>
	<path class="st0" d="M646.2,125.9c-6.5,0-12.5-1.1-18.1-3.2c-5.5-2.1-10.3-5.2-14.4-9c-4.1-3.9-7.3-8.4-9.5-13.7
		c-2.2-5.2-3.4-10.9-3.4-17.1c0-6.3,1.1-12,3.4-17.2c2.2-5.2,5.4-9.7,9.5-13.6c4.1-3.9,8.9-6.9,14.3-9c5.5-2.1,11.5-3.2,18-3.2
		c6.5,0,12.5,1.1,18,3.2c5.5,2.1,10.2,5.1,14.3,9c4.1,3.9,7.3,8.4,9.5,13.7s3.4,11,3.4,17.3c0,6.2-1.1,11.9-3.4,17.2
		c-2.2,5.3-5.4,9.9-9.5,13.7c-4.1,3.9-8.9,6.9-14.3,9C658.6,124.9,652.7,125.9,646.2,125.9z M646.1,109.6c3.7,0,7.1-0.7,10.2-2
		c3.1-1.3,5.8-3.2,8.2-5.6c2.4-2.4,4.2-5.2,5.5-8.4c1.3-3.2,1.9-6.8,1.9-10.8c0-4-0.6-7.6-1.9-10.8c-1.3-3.2-3.1-6-5.5-8.4
		c-2.4-2.4-5.1-4.3-8.2-5.6c-3.1-1.3-6.5-2-10.2-2c-3.7,0-7.1,0.7-10.3,2c-3.1,1.3-5.9,3.2-8.2,5.6c-2.3,2.4-4.1,5.2-5.4,8.4
		c-1.3,3.2-1.9,6.8-1.9,10.8c0,4,0.6,7.6,1.9,10.8c1.3,3.2,3.1,6,5.4,8.4c2.3,2.4,5.1,4.3,8.2,5.6C639,109,642.4,109.6,646.1,109.6z
		"/>
	<path class="st0" d="M727.7,124.5L692,41.2h20.8l31.1,73.8h-12.2l31.6-73.8h19l-35.8,83.3H727.7z"/>
</g>
</svg>
