<?xml version="1.0" encoding="UTF-8"?>
<svg id="Camada_2" data-name="Camada 2" xmlns="http://www.w3.org/2000/svg" version="1.1" viewBox="0 0 500 300">
  <defs>
    <style>
      .cls-1 {
        fill: #713fe8;
      }

      .cls-1, .cls-2 {
        stroke-width: 0px;
      }

      .cls-2 {
        fill: #f9bc00;
      }
    </style>
  </defs>
  <g>
    <path class="cls-1" d="M142.7,130.4v10.6c-1,0-1.7-.1-2.6-.1-6.3,0-10.5,3.5-10.5,11v18.7h-11.5v-39.6h11v5.2c2.8-3.8,7.5-5.8,13.6-5.8Z"/>
    <path class="cls-1" d="M182.7,148v22.6h-10.7v-4.9c-2.1,3.6-6.3,5.5-12.1,5.5-9.3,0-14.8-5.2-14.8-12s4.9-11.9,17-11.9h9.1c0-4.9-2.9-7.8-9.1-7.8s-8.5,1.4-11.4,3.7l-4.1-8c4.3-3.1,10.7-4.8,17.1-4.8,12.1,0,19.1,5.6,19.1,17.6ZM171.3,158v-4h-7.9c-5.4,0-7.1,2-7.1,4.6s2.4,4.8,6.5,4.8,7.1-1.8,8.5-5.4Z"/>
    <path class="cls-1" d="M226.9,147.9v22.7h-11.5v-20.9c0-6.4-2.9-9.3-8-9.3s-9.5,3.4-9.5,10.7v19.6h-11.5v-39.6h11v4.6c3.1-3.4,7.7-5.2,13.1-5.2,9.3,0,16.4,5.4,16.4,17.5Z"/>
    <path class="cls-1" d="M229.3,166.9l3.8-8.2c3.5,2.3,8.9,3.8,13.8,3.8s7.3-1.4,7.3-3.6c0-6.5-23.9.1-23.9-15.7s6.8-12.8,18.3-12.8,11.5,1.3,15.2,3.5l-3.8,8.2c-3.9-2.2-7.8-2.9-11.4-2.9-5.2,0-7.4,1.6-7.4,3.7,0,6.8,23.9.2,23.9,15.8s-6.8,12.6-18.7,12.6-13.5-1.8-17.2-4.3Z"/>
    <path class="cls-1" d="M311.1,150.8c0,12.4-8.6,20.4-19.7,20.4s-9-1.5-11.9-4.8v18.5h-11.5v-53.9h11v4.6c2.9-3.5,7.1-5.2,12.4-5.2,11.1,0,19.7,7.9,19.7,20.4ZM299.5,150.8c0-6.8-4.3-11-10.1-11s-10.1,4.1-10.1,11,4.3,11,10.1,11,10.1-4.1,10.1-11Z"/>
    <path class="cls-1" d="M314.3,150.8c0-11.9,9.2-20.4,21.8-20.4s21.7,8.5,21.7,20.4-9.1,20.4-21.7,20.4-21.8-8.5-21.8-20.4ZM346.2,150.8c0-6.8-4.3-11-10.1-11s-10.2,4.1-10.2,11,4.4,11,10.2,11,10.1-4.1,10.1-11Z"/>
    <path class="cls-1" d="M384.5,130.4v10.6c-1,0-1.7-.1-2.6-.1-6.3,0-10.5,3.5-10.5,11v18.7h-11.5v-39.6h11v5.2c2.8-3.8,7.5-5.8,13.6-5.8Z"/>
    <path class="cls-1" d="M416.7,168.6c-2.4,1.7-5.8,2.5-9.3,2.5-9.3,0-14.8-4.8-14.8-14.2v-16.3h-6.1v-8.8h6.1v-9.6h11.5v9.6h9.9v8.8h-9.9v16.1c0,3.4,1.8,5.2,4.9,5.2s3.4-.5,4.6-1.5l3.1,8.1Z"/>
    <path class="cls-1" d="M457.4,154h-30c1.1,4.9,5.3,7.9,11.3,7.9s7.2-1.3,9.9-3.8l6.1,6.6c-3.7,4.2-9.2,6.4-16.3,6.4-13.7,0-22.6-8.6-22.6-20.4s9.1-20.4,21.1-20.4,20.6,7.8,20.6,20.5-.1,2.1-.2,3.1ZM427.3,147.3h19.5c-.8-5-4.6-8.2-9.7-8.2s-9,3.2-9.8,8.2Z"/>
  </g>
  <path class="cls-2" d="M98.3,155.7c0,12.5-10.2,22.6-22.7,22.5-.1,0-.3,0-.4,0-.1,0-.2,0-.3,0h0s-31.8,0-31.8,0c-.4,0-.8-.3-.8-.7s.3-.8.8-.8l8.8-1.3,3.6-.5,6.8-1c-1.5-1.1-2.9-2.4-4-3.8-.7-.8-1.3-1.6-1.8-2.5-2.2-3.5-3.4-7.6-3.4-11.9,0-6.2,2.5-11.8,6.6-15.9,4.1-4.1,9.8-6.6,16-6.6s.5,0,.7,0l-7.9,13.7-1.7,2.9-.2.3-.4.7h0c0,.2,0,.2,0,.2-.7,1.4-1.1,3-1.1,4.7s0,1.6.3,2.4c1.1,4.8,5.3,8.3,10.4,8.3,1.1,0,2.1-.2,3.1-.5,2.3-.7,4.3-2.2,5.7-4.2h0c.3-.4.5-.8.7-1.3l9.7-16.6c2.2,3.5,3.4,7.6,3.4,11.9Z"/>
  <path class="cls-1" d="M122,115.3h0c0,9-7.3,16.3-16.2,16.2h-7.3s-5.7,9.7-5.7,9.7c-2.6,4.4-8.3,14.4-10.8,18.6-5.4,8.7-19-.2-13-8.7.8-1.3,2.6-4.5,3.4-5.8l7-12,1.1-1.9h-23.3c0,0,0-.1,0-.1,0-9,7.3-16.2,16.2-16.2h48.6Z"/>
</svg>